<svg width="395" height="395" viewBox="0 0 395 395" fill="none" xmlns="http://www.w3.org/2000/svg">
<g filter="url(#filter0_f)">
<circle cx="197.5" cy="197.5" r="184.5" fill="#0E243E" fill-opacity="0.1"/>
<circle cx="197.5" cy="197.5" r="184.5" stroke="#7BD7FF" stroke-width="6"/>
</g>
<g filter="url(#filter1_f)">
<circle cx="197.5" cy="197.5" r="184.5" fill="#0E243E" fill-opacity="0.1"/>
<circle cx="197.5" cy="197.5" r="183" stroke="white" stroke-width="3"/>
</g>
<g filter="url(#filter2_f)">
<path d="M240.532 190.33C236.957 188.631 233.31 187.167 229.599 185.941C241.618 176.92 249.406 162.556 249.406 146.406C249.406 119.164 227.243 97 200 97C172.757 97 150.594 119.164 150.594 146.406C150.594 162.574 158.4 176.952 170.441 185.972C159.409 189.604 149.057 195.255 139.997 202.708C123.384 216.373 111.832 235.434 107.472 256.38C106.105 262.943 107.742 269.684 111.963 274.874C116.163 280.038 122.391 283 129.049 283H218.528C222.54 283 225.793 279.747 225.793 275.734C225.793 271.722 222.54 268.469 218.528 268.469H129.049C125.947 268.469 124.076 266.737 123.237 265.706C121.788 263.924 121.227 261.604 121.698 259.341C129.238 223.124 161.183 196.668 198.074 195.775C198.713 195.8 199.355 195.812 200 195.812C200.652 195.812 201.3 195.8 201.945 195.775C213.251 196.04 224.124 198.62 234.293 203.454C237.918 205.176 242.252 203.636 243.974 200.011C245.697 196.387 244.156 192.053 240.532 190.33ZM201.772 181.237C201.183 181.226 200.592 181.221 200 181.221C199.414 181.221 198.828 181.226 198.242 181.237C179.825 180.319 165.125 165.047 165.125 146.406C165.125 127.176 180.77 111.531 200 111.531C219.231 111.531 234.875 127.176 234.875 146.406C234.875 165.042 220.182 180.311 201.772 181.237Z" fill="#7BD7FF"/>
<path d="M285.734 241.223H265.754V221.242C265.754 217.229 262.501 213.977 258.488 213.977C254.475 213.977 251.223 217.229 251.223 221.242V241.223H231.242C227.229 241.223 223.977 244.475 223.977 248.488C223.977 252.501 227.229 255.754 231.242 255.754H251.223V275.734C251.223 279.747 254.475 283 258.488 283C262.501 283 265.754 279.747 265.754 275.734V255.754H285.734C289.747 255.754 293 252.501 293 248.488C293 244.475 289.747 241.223 285.734 241.223Z" fill="#7BD7FF"/>
</g>
<path d="M240.532 190.33C236.957 188.631 233.31 187.167 229.599 185.941C241.618 176.92 249.406 162.556 249.406 146.406C249.406 119.164 227.243 97 200 97C172.757 97 150.594 119.164 150.594 146.406C150.594 162.574 158.4 176.952 170.441 185.972C159.409 189.604 149.057 195.255 139.997 202.708C123.384 216.373 111.832 235.434 107.472 256.38C106.105 262.943 107.742 269.684 111.963 274.874C116.163 280.038 122.391 283 129.049 283H218.528C222.54 283 225.793 279.747 225.793 275.734C225.793 271.722 222.54 268.469 218.528 268.469H129.049C125.947 268.469 124.076 266.737 123.237 265.706C121.788 263.924 121.227 261.604 121.698 259.341C129.238 223.124 161.183 196.668 198.074 195.775C198.713 195.8 199.355 195.812 200 195.812C200.652 195.812 201.3 195.8 201.945 195.775C213.251 196.04 224.124 198.62 234.293 203.454C237.918 205.176 242.252 203.636 243.974 200.011C245.697 196.387 244.156 192.053 240.532 190.33ZM201.772 181.237C201.183 181.226 200.592 181.221 200 181.221C199.414 181.221 198.828 181.226 198.242 181.237C179.825 180.319 165.125 165.047 165.125 146.406C165.125 127.176 180.77 111.531 200 111.531C219.231 111.531 234.875 127.176 234.875 146.406C234.875 165.042 220.182 180.311 201.772 181.237Z" fill="white"/>
<path d="M285.734 241.223H265.754V221.242C265.754 217.229 262.501 213.977 258.488 213.977C254.475 213.977 251.223 217.229 251.223 221.242V241.223H231.242C227.229 241.223 223.977 244.475 223.977 248.488C223.977 252.501 227.229 255.754 231.242 255.754H251.223V275.734C251.223 279.747 254.475 283 258.488 283C262.501 283 265.754 279.747 265.754 275.734V255.754H285.734C289.747 255.754 293 252.501 293 248.488C293 244.475 289.747 241.223 285.734 241.223Z" fill="white"/>
<defs>
<filter id="filter0_f" x="0" y="0" width="395" height="395" filterUnits="userSpaceOnUse" color-interpolation-filters="sRGB">
<feFlood flood-opacity="0" result="BackgroundImageFix"/>
<feBlend mode="normal" in="SourceGraphic" in2="BackgroundImageFix" result="shape"/>
<feGaussianBlur stdDeviation="5" result="effect1_foregroundBlur"/>
</filter>
<filter id="filter1_f" x="10" y="10" width="375" height="375" filterUnits="userSpaceOnUse" color-interpolation-filters="sRGB">
<feFlood flood-opacity="0" result="BackgroundImageFix"/>
<feBlend mode="normal" in="SourceGraphic" in2="BackgroundImageFix" result="shape"/>
<feGaussianBlur stdDeviation="1.5" result="effect1_foregroundBlur"/>
</filter>
<filter id="filter2_f" x="82" y="72" width="236" height="236" filterUnits="userSpaceOnUse" color-interpolation-filters="sRGB">
<feFlood flood-opacity="0" result="BackgroundImageFix"/>
<feBlend mode="normal" in="SourceGraphic" in2="BackgroundImageFix" result="shape"/>
<feGaussianBlur stdDeviation="12.5" result="effect1_foregroundBlur"/>
</filter>
</defs>
</svg>
