<svg width="68" height="68" viewBox="0 0 68 68" fill="none" xmlns="http://www.w3.org/2000/svg">
<g clip-path="url(#clip0)">
<path d="M60.3958 0H20.6709C18.3976 0 16.548 1.84959 16.548 4.12291V13.3493C9.01221 15.5059 3.48047 22.4571 3.48047 30.6762C3.48047 38.8954 9.01208 45.8466 16.548 48.0032V63.8774C16.548 66.1507 18.3976 68.0003 20.6709 68.0003H53.1338C53.519 68.0003 53.8882 67.8473 54.1607 67.575L64.0933 57.6422C64.3656 57.3699 64.5186 57.0005 64.5186 56.6154V4.12291C64.5186 1.84959 62.6691 0 60.3958 0ZM20.6709 2.90424H60.3958C61.0677 2.90424 61.6143 3.45093 61.6143 4.12291V8.50541H19.4523V4.12291C19.4523 3.45093 19.999 2.90424 20.6709 2.90424ZM6.38471 30.6761C6.38471 22.3419 13.165 15.5616 21.4992 15.5616C29.8334 15.5616 36.6137 22.3419 36.6137 30.6761C36.6137 39.0103 29.8334 45.7907 21.4992 45.7907C13.165 45.7907 6.38471 39.0103 6.38471 30.6761ZM19.4523 63.8772V48.578C20.1244 48.6543 20.8072 48.695 21.4993 48.695C26.9116 48.695 31.7737 46.2959 35.0794 42.5059H43.9769C44.7789 42.5059 45.429 41.8558 45.429 41.0538C45.429 40.2518 44.7789 39.6017 43.9769 39.6017H37.1477C38.4107 37.3958 39.2199 34.8989 39.4495 32.2384H43.9768C44.7788 32.2384 45.4289 31.5883 45.4289 30.7863C45.4289 29.9843 44.7788 29.3342 43.9768 29.3342H39.4679C39.2715 26.6797 38.497 24.1837 37.2709 21.9711H43.9766C44.7786 21.9711 45.4287 21.321 45.4287 20.519C45.4287 19.717 44.7786 19.0669 43.9766 19.0669H35.2675C31.9597 15.1499 27.0153 12.6572 21.4989 12.6572C20.8067 12.6572 20.124 12.6979 19.4518 12.7742V11.4096H61.6139V55.163H55.8042C53.5307 55.163 51.6814 57.0126 51.6814 59.2858V65.0958H20.6709C19.999 65.0958 19.4523 64.5492 19.4523 63.8772ZM54.5861 63.042V59.2859C54.5861 58.6139 55.1328 58.0674 55.8046 58.0674H59.5608L54.5861 63.042Z" fill="white"/>
<path d="M49.6816 21.9711H54.504C55.306 21.9711 55.9562 21.321 55.9562 20.519C55.9562 19.717 55.306 19.0669 54.504 19.0669H49.6816C48.8796 19.0669 48.2295 19.717 48.2295 20.519C48.2295 21.321 48.8796 21.9711 49.6816 21.9711Z" fill="white"/>
<path d="M49.6816 32.2387H54.504C55.306 32.2387 55.9562 31.5886 55.9562 30.7866C55.9562 29.9846 55.306 29.3345 54.504 29.3345H49.6816C48.8796 29.3345 48.2295 29.9846 48.2295 30.7866C48.2295 31.5886 48.8796 32.2387 49.6816 32.2387Z" fill="white"/>
<path d="M49.6816 42.5058H54.504C55.306 42.5058 55.9562 41.8557 55.9562 41.0537C55.9562 40.2517 55.306 39.6016 54.504 39.6016H49.6816C48.8796 39.6016 48.2295 40.2517 48.2295 41.0537C48.2295 41.8557 48.8796 42.5058 49.6816 42.5058Z" fill="white"/>
<path d="M54.5051 52.7734C55.3071 52.7734 55.9572 52.1232 55.9572 51.3213C55.9572 50.5193 55.3071 49.8691 54.5051 49.8691H40.9209C40.1189 49.8691 39.4688 50.5193 39.4688 51.3213C39.4688 52.1232 40.1189 52.7734 40.9209 52.7734H54.5051Z" fill="white"/>
<path d="M32.7743 23.3507L31.0027 21.5791C30.5256 21.1021 29.8914 20.8394 29.2166 20.8394C28.5419 20.8394 27.9076 21.1021 27.4305 21.5791L18.1383 30.8713L15.5697 28.3027C15.0927 27.8258 14.4584 27.5631 13.7838 27.5631C13.1091 27.5631 12.4748 27.8258 11.9978 28.3028L10.2258 30.0747C9.24112 31.0595 9.24112 32.662 10.2259 33.6468L16.3521 39.7728C16.8292 40.25 17.4636 40.5128 18.1383 40.5128H18.1385C18.8131 40.5128 19.4474 40.25 19.9243 39.7731L32.7744 26.9229C33.7591 25.9381 33.7591 24.3355 32.7743 23.3507ZM18.1382 37.4517L12.547 31.8607L13.7836 30.624L17.1113 33.9517C17.6785 34.5189 18.5979 34.5189 19.165 33.9517L29.2166 23.9001L30.4533 25.1368L18.1382 37.4517Z" fill="white"/>
</g>
<defs>
<clipPath id="clip0">
<rect width="68" height="68" fill="white"/>
</clipPath>
</defs>
</svg>
