<svg width="67" height="67" viewBox="0 0 67 67" fill="none" xmlns="http://www.w3.org/2000/svg">
<path d="M65.9531 44.4922V8.89844C65.9531 8.32056 65.4852 7.85156 64.9062 7.85156H56.5312V6.80469H58.625C59.2039 6.80469 59.6719 6.33569 59.6719 5.75781C59.6719 5.17994 59.2039 4.71094 58.625 4.71094H52.3438C51.7648 4.71094 51.2969 5.17994 51.2969 5.75781C51.2969 6.33569 51.7648 6.80469 52.3438 6.80469H54.4375V7.85156H41.875V6.80469H43.9688C44.5477 6.80469 45.0156 6.33569 45.0156 5.75781C45.0156 5.17994 44.5477 4.71094 43.9688 4.71094H37.6875C37.1086 4.71094 36.6406 5.17994 36.6406 5.75781C36.6406 6.33569 37.1086 6.80469 37.6875 6.80469H39.7812V7.85156H27.2188V6.80469H29.3125C29.8914 6.80469 30.3594 6.33569 30.3594 5.75781C30.3594 5.17994 29.8914 4.71094 29.3125 4.71094H23.0312C22.4523 4.71094 21.9844 5.17994 21.9844 5.75781C21.9844 6.33569 22.4523 6.80469 23.0312 6.80469H25.125V7.85156H12.5625V6.80469H14.6562C15.2352 6.80469 15.7031 6.33569 15.7031 5.75781C15.7031 5.17994 15.2352 4.71094 14.6562 4.71094H8.375C7.79608 4.71094 7.32812 5.17994 7.32812 5.75781C7.32812 6.33569 7.79608 6.80469 8.375 6.80469H10.4688V7.85156H2.09375C1.51483 7.85156 1.04688 8.32056 1.04688 8.89844V44.4922C0.467953 44.4922 0 44.9601 0 45.5391C0 46.118 0.467953 46.5859 1.04688 46.5859H29.3125V61.2422C29.3125 61.8211 29.7805 62.2891 30.3594 62.2891C30.9383 62.2891 31.4062 61.8211 31.4062 61.2422V46.5859H35.5938V61.2422C35.5938 61.8211 36.0617 62.2891 36.6406 62.2891C37.2195 62.2891 37.6875 61.8211 37.6875 61.2422V59.1484C38.2664 59.1484 38.7344 58.6805 38.7344 58.1016C38.7344 57.5226 38.2664 57.0547 37.6875 57.0547V54.9609C38.2664 54.9609 38.7344 54.493 38.7344 53.9141C38.7344 53.3351 38.2664 52.8672 37.6875 52.8672V50.7734C38.2664 50.7734 38.7344 50.3055 38.7344 49.7266C38.7344 49.1476 38.2664 48.6797 37.6875 48.6797V46.5859H65.9531C66.532 46.5859 67 46.118 67 45.5391C67 44.9601 66.532 44.4922 65.9531 44.4922ZM3.14062 9.94531H63.8594V44.4922H3.14062V9.94531Z" fill="white"/>
<path d="M39.7822 22.5078H58.626C59.2049 22.5078 59.6729 22.0388 59.6729 21.4609C59.6729 20.8831 59.2049 20.4141 58.626 20.4141H39.7822C39.2033 20.4141 38.7354 20.8831 38.7354 21.4609C38.7354 22.0388 39.2033 22.5078 39.7822 22.5078Z" fill="white"/>
<path d="M39.7822 26.6953H58.626C59.2049 26.6953 59.6729 26.2263 59.6729 25.6484C59.6729 25.0706 59.2049 24.6016 58.626 24.6016H39.7822C39.2033 24.6016 38.7354 25.0706 38.7354 25.6484C38.7354 26.2263 39.2033 26.6953 39.7822 26.6953Z" fill="white"/>
<path d="M39.7822 30.8828H58.626C59.2049 30.8828 59.6729 30.4138 59.6729 29.8359C59.6729 29.2581 59.2049 28.7891 58.626 28.7891H39.7822C39.2033 28.7891 38.7354 29.2581 38.7354 29.8359C38.7354 30.4138 39.2033 30.8828 39.7822 30.8828Z" fill="white"/>
<path d="M39.7822 35.0684H49.2041C49.783 35.0684 50.251 34.6004 50.251 34.0215C50.251 33.4436 49.783 32.9746 49.2041 32.9746H39.7822C39.2033 32.9746 38.7354 33.4436 38.7354 34.0215C38.7354 34.6004 39.2033 35.0684 39.7822 35.0684Z" fill="white"/>
<path d="M10.4766 22.5059C12.2081 22.5059 13.6172 21.0968 13.6172 19.3652C13.6172 17.6337 12.2081 16.2246 10.4766 16.2246C8.74503 16.2246 7.33594 17.6337 7.33594 19.3652C7.33594 21.0968 8.74503 22.5059 10.4766 22.5059ZM10.4766 18.3184C11.0544 18.3184 11.5234 18.7884 11.5234 19.3652C11.5234 19.9421 11.0544 20.4121 10.4766 20.4121C9.89869 20.4121 9.42969 19.9421 9.42969 19.3652C9.42969 18.7884 9.89869 18.3184 10.4766 18.3184Z" fill="white"/>
<path d="M33.5062 37.1785C33.5481 37.1785 33.5826 37.1597 33.6235 37.1555C33.6957 37.1471 33.7679 37.1356 33.8381 37.1115C33.8967 37.0916 33.948 37.0665 34.0014 37.0372C34.0244 37.0246 34.0495 37.0194 34.0715 37.0058C34.0935 36.9922 34.1029 36.9702 34.1239 36.9555C34.1961 36.9 34.26 36.8404 34.3175 36.7671C34.3489 36.7263 34.3772 36.6854 34.4034 36.6404C34.44 36.5745 34.4693 36.5064 34.4924 36.4331C34.5123 36.3682 34.5238 36.3065 34.5311 36.2384C34.5353 36.2018 34.5531 36.1704 34.5531 36.1316C34.5531 36.1013 34.5384 36.0751 34.5353 36.0458C34.5301 35.9715 34.5133 35.9003 34.4913 35.827C34.4725 35.7663 34.4526 35.7108 34.4243 35.6543C34.4076 35.6239 34.4055 35.5883 34.3866 35.558L24.9648 20.9195C24.9627 20.9153 24.9574 20.9143 24.9553 20.9101C24.9166 20.8504 24.8569 20.8064 24.8056 20.7562C24.7564 20.7091 24.7156 20.6515 24.6601 20.6159C24.6559 20.6128 24.6538 20.6086 24.6496 20.6054C24.6025 20.5751 24.5491 20.5688 24.4989 20.5468C24.4288 20.5154 24.3607 20.4777 24.2853 20.4631C24.2131 20.4484 24.1409 20.4568 24.0676 20.4589C24.0058 20.4589 23.9461 20.4505 23.8844 20.462C23.8017 20.4788 23.7274 20.5175 23.6499 20.5531C23.6059 20.574 23.5578 20.5782 23.5159 20.6054C23.5117 20.6075 23.5096 20.6128 23.5054 20.6149C23.4499 20.6515 23.4101 20.707 23.362 20.7541C23.3096 20.8054 23.25 20.8494 23.2102 20.909C23.2081 20.9122 23.2029 20.9143 23.2008 20.9184L18.2972 28.5355L16.06 25.0934C16.0579 25.0902 16.0548 25.0892 16.0527 25.0861C16.0171 25.0316 15.9606 24.9918 15.9135 24.9447C15.8622 24.8924 15.8182 24.8317 15.7585 24.7919C15.7564 24.7908 15.7554 24.7877 15.7523 24.7856C15.7114 24.7594 15.6654 24.7542 15.6224 24.7343C15.5439 24.6977 15.4686 24.6558 15.3827 24.639C15.3157 24.6254 15.2487 24.6359 15.1817 24.6359C15.1147 24.6359 15.0477 24.6265 14.9818 24.639C14.8991 24.6558 14.8258 24.6956 14.7483 24.7312C14.7033 24.7521 14.6541 24.7573 14.6112 24.7856C14.608 24.7867 14.607 24.7898 14.6038 24.7919C14.5473 24.8296 14.5065 24.8872 14.4573 24.9364C14.407 24.9856 14.3484 25.0285 14.3097 25.0861C14.3076 25.0892 14.3044 25.0902 14.3023 25.0934L7.49765 35.56C7.47985 35.5862 7.4788 35.6166 7.4652 35.6438C7.4317 35.7056 7.40866 35.7684 7.38877 35.8364C7.36784 35.9055 7.35318 35.9736 7.3469 36.0437C7.3448 36.0741 7.3291 36.1002 7.3291 36.1306C7.3291 36.1672 7.3469 36.1976 7.35004 36.2342C7.35841 36.3054 7.37098 36.3735 7.39296 36.4426C7.4139 36.5075 7.43798 36.565 7.46938 36.6247C7.49974 36.6823 7.53534 36.7336 7.57826 36.7849C7.62432 36.8414 7.67457 36.8896 7.7311 36.9356C7.75937 36.9576 7.77612 36.989 7.80648 37.0089C7.84102 37.0309 7.87871 37.0403 7.91535 37.0592C7.9478 37.0759 7.98026 37.0916 8.01585 37.1052C8.13415 37.1482 8.25559 37.1775 8.37702 37.1775H8.37807H33.5062V37.1785ZM19.1567 31.0763C19.1693 31.0585 19.1787 31.0407 19.1902 31.0229L24.0843 23.4194L31.5925 35.0848H16.5761L19.1567 31.0763ZM14.0867 35.0848H10.3116L15.1859 27.586L17.0588 30.467L14.0867 35.0848Z" fill="white"/>
</svg>
