<svg width="79" height="79" viewBox="0 0 79 79" fill="none" xmlns="http://www.w3.org/2000/svg">
<path d="M61.7188 9.875H17.2812C13.1967 9.875 9.875 13.1967 9.875 17.2812V61.7188C9.875 65.8033 13.1967 69.125 17.2812 69.125H61.7188C65.8033 69.125 69.125 65.8033 69.125 61.7188V17.2812C69.125 13.1967 65.8033 9.875 61.7188 9.875ZM46.9062 28.3906V37.0312H32.0938V28.3906H46.9062ZM64.1875 28.3906V37.0312H51.8438V28.3906H64.1875ZM27.1562 37.0312H14.8125V28.3906H27.1562V37.0312ZM14.8125 41.9688H37.0312V50.6094H14.8125V41.9688ZM46.9062 55.5469V64.1875H32.0938V55.5469H46.9062ZM41.9688 50.6094V41.9688H64.1875V50.6094H41.9688ZM64.1875 17.2812V23.4531H41.9688V14.8125H61.7188C63.0803 14.8125 64.1875 15.9197 64.1875 17.2812ZM17.2812 14.8125H37.0312V23.4531H14.8125V17.2812C14.8125 15.9197 15.9197 14.8125 17.2812 14.8125ZM14.8125 61.7188V55.5469H27.1562V64.1875H17.2812C15.9197 64.1875 14.8125 63.0803 14.8125 61.7188ZM61.7188 64.1875H51.8438V55.5469H64.1875V61.7188C64.1875 63.0803 63.0803 64.1875 61.7188 64.1875Z" fill="white"/>
</svg>
