<svg width="68" height="68" viewBox="0 0 68 68" fill="none" xmlns="http://www.w3.org/2000/svg">
<g clip-path="url(#clip0)">
<path d="M66.8663 15.8667H15.8663V13.6H66.8663C67.4922 13.6 67.9996 13.0925 67.9996 12.4667C67.9996 11.8408 67.4922 11.3333 66.8663 11.3333H56.6663V3.4C56.6663 2.77412 56.1588 2.26667 55.5329 2.26667H46.4663C44.5886 2.26667 43.0663 3.78903 43.0663 5.66667C43.0713 6.5056 43.3861 7.31244 43.95 7.93333C43.3861 8.55423 43.0713 9.36107 43.0663 10.2C43.0696 10.5868 43.1382 10.9698 43.2705 11.3333H37.3996V1.13333C37.3996 0.507454 36.8922 0 36.2663 0H22.6663C22.0404 0 21.5329 0.507454 21.5329 1.13333V5.25882L16.4667 11.3333H14.7329C14.1071 11.3333 13.5996 11.8408 13.5996 12.4667V17C13.5996 17.6259 14.1071 18.1333 14.7329 18.1333H15.8663V62.3333C15.8663 62.9592 16.3737 63.4667 16.9996 63.4667H20.3996V64.6C20.3996 66.4776 21.922 68 23.7996 68C25.6772 68 27.1996 66.4776 27.1996 64.6V63.4667H54.3996V64.6C54.3996 66.4776 55.922 68 57.7996 68C59.6772 68 61.1996 66.4776 61.1996 64.6V63.4667H64.5996C65.2255 63.4667 65.7329 62.9592 65.7329 62.3333V21.5333C65.7329 20.9075 65.2255 20.4 64.5996 20.4C63.9737 20.4 63.4663 20.9075 63.4663 21.5333V38.5333H21.5329C20.9071 38.5333 20.3996 39.0408 20.3996 39.6667C20.3996 40.2925 20.9071 40.8 21.5329 40.8H63.4663V61.2H18.1329V18.1333H66.8663C67.4922 18.1333 67.9996 17.6259 67.9996 17C67.9996 16.3741 67.4922 15.8667 66.8663 15.8667ZM25.6357 11.3333L27.1996 8.2056L28.7635 11.3333H25.6357ZM46.4663 4.53333H54.3996V6.8H46.4663C45.8404 6.8 45.3329 6.29255 45.3329 5.66667C45.3329 5.04079 45.8404 4.53333 46.4663 4.53333ZM45.3329 10.2C45.3329 9.57412 45.8404 9.06667 46.4663 9.06667H54.3996V11.3333H46.4663C45.8404 11.3333 45.3329 10.8259 45.3329 10.2ZM35.1329 2.26667V11.3333H31.3024L28.2084 5.15645C28.0142 4.77793 27.6246 4.53997 27.1996 4.53997C26.7746 4.53997 26.385 4.77793 26.1908 5.15645L23.7996 9.92773V2.26667H35.1329ZM21.5329 8.7944V11.3333H19.4135L21.5329 8.7944ZM58.9329 63.4667V64.6C58.9329 65.2259 58.4255 65.7333 57.7996 65.7333C57.1737 65.7333 56.6663 65.2259 56.6663 64.6V63.4667H58.9329ZM24.9329 63.4667V64.6C24.9329 65.2259 24.4255 65.7333 23.7996 65.7333C23.1737 65.7333 22.6663 65.2259 22.6663 64.6V63.4667H24.9329Z" fill="white"/>
<path d="M35.1324 20.3999C33.2548 20.3999 31.7324 21.9223 31.7324 23.7999C31.7324 25.6775 33.2548 27.1999 35.1324 27.1999H46.4658C48.3434 27.1999 49.8658 25.6775 49.8658 23.7999C49.8658 21.9223 48.3434 20.3999 46.4658 20.3999H35.1324ZM47.5991 23.7999C47.5991 24.4258 47.0916 24.9332 46.4658 24.9332H35.1324C34.5065 24.9332 33.9991 24.4258 33.9991 23.7999C33.9991 23.174 34.5065 22.6666 35.1324 22.6666H46.4658C47.0916 22.6666 47.5991 23.174 47.5991 23.7999Z" fill="white"/>
<path d="M35.1324 45.3336H46.4658C47.0916 45.3336 47.5991 44.8261 47.5991 44.2002C47.5991 43.5743 47.0916 43.0669 46.4658 43.0669H35.1324C33.2548 43.0669 31.7324 44.5893 31.7324 46.4669C31.7324 48.3445 33.2548 49.8669 35.1324 49.8669H46.4658C47.0916 49.8669 47.5991 49.3594 47.5991 48.7336C47.5991 48.1077 47.0916 47.6002 46.4658 47.6002H35.1324C34.5065 47.6002 33.9991 47.0928 33.9991 46.4669C33.9991 45.841 34.5065 45.3336 35.1324 45.3336Z" fill="white"/>
<path d="M17 65.7334H2.26667V47.6H12.4667C13.0925 47.6 13.6 47.0926 13.6 46.4667C13.6 45.8408 13.0925 45.3334 12.4667 45.3334H2.26667V27.2H12.4667C13.0925 27.2 13.6 26.6926 13.6 26.0667C13.6 25.4408 13.0925 24.9334 12.4667 24.9334H10.3245L11.3333 14.8468C11.3632 14.5269 11.2559 14.2099 11.0389 13.9741C10.8242 13.7367 10.5199 13.6006 10.2 13.6H9.38376L11.3333 5.93896C11.4833 5.31253 11.0981 4.68333 10.4723 4.53336C9.84583 4.38339 9.21663 4.76855 9.06667 5.39443L7.04958 13.6H5.49678L4.53333 7.75185C4.43317 7.12597 3.84437 6.69986 3.21849 6.80003C2.59261 6.90019 2.1665 7.48899 2.26667 8.11487L3.1958 13.6H2.26667C1.94681 13.6006 1.64245 13.7367 1.42773 13.9741C1.21081 14.2099 1.10345 14.5269 1.13333 14.8468L2.14216 24.9334H1.13333C0.507454 24.9334 0 25.4408 0 26.0667V66.8667C0 67.4926 0.507454 68 1.13333 68H17C17.6259 68 18.1333 67.4926 18.1333 66.8667C18.1333 66.2408 17.6259 65.7334 17 65.7334ZM3.51344 15.8667H8.95322L8.04678 24.9334H4.41989L3.51344 15.8667Z" fill="white"/>
<path d="M5.66602 53.2667C5.66602 55.1443 7.18838 56.6667 9.06602 56.6667C10.9437 56.6667 12.466 55.1443 12.466 53.2667C12.466 51.3891 10.9437 49.8667 9.06602 49.8667C7.18838 49.8667 5.66602 51.3891 5.66602 53.2667ZM10.1993 53.2667C10.1993 53.8926 9.69189 54.4 9.06602 54.4C8.44014 54.4 7.93268 53.8926 7.93268 53.2667C7.93268 52.6408 8.44014 52.1334 9.06602 52.1334C9.69189 52.1334 10.1993 52.6408 10.1993 53.2667Z" fill="white"/>
<path d="M5.66602 32.8668C5.66602 34.7444 7.18838 36.2668 9.06602 36.2668C10.9437 36.2668 12.466 34.7444 12.466 32.8668C12.466 30.9892 10.9437 29.4668 9.06602 29.4668C7.18838 29.4668 5.66602 30.9892 5.66602 32.8668ZM10.1993 32.8668C10.1993 33.4927 9.69189 34.0001 9.06602 34.0001C8.44014 34.0001 7.93268 33.4927 7.93268 32.8668C7.93268 32.2409 8.44014 31.7335 9.06602 31.7335C9.69189 31.7335 10.1993 32.2409 10.1993 32.8668Z" fill="white"/>
<path d="M32.8663 5.66654C32.8663 6.29242 32.3588 6.79987 31.7329 6.79987C31.1071 6.79987 30.5996 6.29242 30.5996 5.66654C30.5996 5.04066 31.1071 4.5332 31.7329 4.5332C32.3588 4.5332 32.8663 5.04066 32.8663 5.66654Z" fill="white"/>
</g>
<defs>
<clipPath id="clip0">
<rect width="68" height="68" fill="white"/>
</clipPath>
</defs>
</svg>
