<svg width="104" height="104" viewBox="0 0 104 104" fill="none" xmlns="http://www.w3.org/2000/svg">
<path d="M52 53.625C49.1075 53.625 46.2799 54.4827 43.8748 56.0898C41.4697 57.6968 39.5952 59.9809 38.4883 62.6533C37.3813 65.3256 37.0917 68.2662 37.656 71.1032C38.2203 73.9402 39.6132 76.5461 41.6586 78.5914C43.7039 80.6368 46.3098 82.0297 49.1468 82.594C51.9838 83.1583 54.9244 82.8687 57.5967 81.7617C60.2691 80.6548 62.5532 78.7803 64.1602 76.3752C65.7673 73.9701 66.625 71.1426 66.625 68.25C66.6207 64.3725 65.0785 60.6551 62.3367 57.9133C59.5949 55.1715 55.8775 53.6293 52 53.625ZM52 79.625C49.7502 79.625 47.551 78.9579 45.6804 77.708C43.8098 76.4581 42.3518 74.6815 41.4909 72.603C40.6299 70.5245 40.4047 68.2374 40.8436 66.0309C41.2825 63.8243 42.3658 61.7975 43.9567 60.2067C45.5475 58.6158 47.5743 57.5325 49.7809 57.0936C51.9874 56.6547 54.2745 56.8799 56.353 57.7409C58.4315 58.6018 60.2081 60.0598 61.458 61.9304C62.7079 63.801 63.375 66.0002 63.375 68.25C63.3716 71.2658 62.172 74.1571 60.0395 76.2895C57.9071 78.422 55.0158 79.6216 52 79.625Z" fill="white"/>
<path d="M52 60.125C50.393 60.125 48.8221 60.6015 47.486 61.4943C46.1498 62.3871 45.1084 63.656 44.4935 65.1407C43.8785 66.6254 43.7176 68.259 44.0311 69.8351C44.3446 71.4112 45.1185 72.859 46.2548 73.9953C47.3911 75.1316 48.8388 75.9054 50.4149 76.2189C51.991 76.5324 53.6247 76.3715 55.1093 75.7565C56.594 75.1416 57.8629 74.1002 58.7557 72.764C59.6485 71.4279 60.125 69.857 60.125 68.25C60.1224 66.0959 59.2656 64.0308 57.7424 62.5076C56.2192 60.9844 54.1541 60.1276 52 60.125ZM52 73.125C51.0358 73.125 50.0933 72.8391 49.2916 72.3034C48.4899 71.7677 47.8651 71.0064 47.4961 70.1156C47.1271 69.2248 47.0306 68.2446 47.2187 67.2989C47.4068 66.3533 47.8711 65.4846 48.5529 64.8029C49.2346 64.1211 50.1033 63.6568 51.0489 63.4687C51.9946 63.2806 52.9748 63.3771 53.8656 63.7461C54.7564 64.1151 55.5177 64.7399 56.0534 65.5416C56.5891 66.3433 56.875 67.2858 56.875 68.25C56.875 69.5429 56.3614 70.7829 55.4471 71.6972C54.5329 72.6114 53.2929 73.125 52 73.125Z" fill="white"/>
<path d="M99.125 60.125H82.875V58.5C82.875 58.1377 82.7539 57.7859 82.5311 57.5003C82.3082 57.2147 81.9963 57.0118 81.6449 56.9237L76.375 55.6075V40.625C76.375 39.3321 75.8614 38.0921 74.9471 37.1779C74.0329 36.2636 72.7929 35.75 71.5 35.75H32.5C31.2071 35.75 29.9671 36.2636 29.0529 37.1779C28.1386 38.0921 27.625 39.3321 27.625 40.625V55.6075L22.3551 56.9237C22.0037 57.0118 21.6918 57.2147 21.4689 57.5003C21.2461 57.7859 21.125 58.1377 21.125 58.5V60.125H4.875C4.44402 60.125 4.0307 60.2962 3.72595 60.601C3.4212 60.9057 3.25 61.319 3.25 61.75V74.75C3.25 75.181 3.4212 75.5943 3.72595 75.899C4.0307 76.2038 4.44402 76.375 4.875 76.375H21.125V78C21.125 78.3623 21.2461 78.7141 21.4689 78.9997C21.6918 79.2853 22.0037 79.4882 22.3551 79.5763L27.625 80.8925V95.875C27.625 97.1679 28.1386 98.4079 29.0529 99.3221C29.9671 100.236 31.2071 100.75 32.5 100.75H71.5C72.7929 100.75 74.0329 100.236 74.9471 99.3221C75.8614 98.4079 76.375 97.1679 76.375 95.875V80.8925L81.6449 79.5763C81.9963 79.4882 82.3082 79.2853 82.5311 78.9997C82.7539 78.7141 82.875 78.3623 82.875 78V76.375H99.125C99.556 76.375 99.9693 76.2038 100.274 75.899C100.579 75.5943 100.75 75.181 100.75 74.75V61.75C100.75 61.319 100.579 60.9057 100.274 60.601C99.9693 60.2962 99.556 60.125 99.125 60.125ZM73.125 40.625V51.3273L60.7978 39H71.5C71.931 39 72.3443 39.1712 72.649 39.476C72.9538 39.7807 73.125 40.194 73.125 40.625ZM6.5 73.125V63.375H21.125V73.125H6.5ZM24.375 76.7309V59.7691L27.625 58.9566V77.5434L24.375 76.7309ZM71.5 97.5H32.5C32.069 97.5 31.6557 97.3288 31.351 97.024C31.0462 96.7193 30.875 96.306 30.875 95.875V40.625C30.875 40.194 31.0462 39.7807 31.351 39.476C31.6557 39.1712 32.069 39 32.5 39H56.2022L73.125 55.9228V95.875C73.125 96.306 72.9538 96.7193 72.649 97.024C72.3443 97.3288 71.931 97.5 71.5 97.5ZM79.625 76.7309L76.375 77.5434V58.9566L79.625 59.7691V76.7309ZM97.5 73.125H82.875V63.375H97.5V73.125Z" fill="white"/>
</svg>
