<svg width="62" height="62" viewBox="0 0 62 62" fill="none" xmlns="http://www.w3.org/2000/svg">
<g clip-path="url(#clip0)">
<path d="M47.0168 0H5.68329C2.83128 0.00335835 0.51996 2.31468 0.516602 5.16669V38.2335C0.516343 40.5902 2.11078 42.6482 4.39265 43.2369L4.90932 41.2364C3.53976 40.8832 2.58276 39.6479 2.58328 38.2335V5.16669C2.58328 3.45458 3.97118 2.06668 5.68329 2.06668H47.0168C48.7289 2.06668 50.1168 3.45458 50.1168 5.16669V6.20003H52.1835V5.16669C52.1801 2.31468 49.8688 0.00335835 47.0168 0Z" fill="white"/>
<path d="M6.71707 4.1333H4.65039V6.19998H6.71707V4.1333Z" fill="white"/>
<path d="M10.8499 4.1333H8.7832V6.19998H10.8499V4.1333Z" fill="white"/>
<path d="M14.9837 4.1333H12.917V6.19998H14.9837V4.1333Z" fill="white"/>
<path d="M61.1804 57.1361L51.3792 47.3349C51.894 46.4159 52.3058 45.4428 52.6068 44.4333H54.2498V42.3666H53.0511C53.4403 39.8653 53.1402 37.3052 52.1831 34.9617V24.7999H50.1164V31.3802C49.5028 30.5963 48.8103 29.8775 48.0498 29.235V20.6666H45.9831V27.7904C45.3216 27.407 44.6305 27.077 43.9164 26.8035V16.5332H41.8497V26.1763C41.1688 26.0293 40.4781 25.9323 39.7831 25.8859V18.5999H37.7164V25.8859C37.0213 25.9323 36.3307 26.0293 35.6497 26.1763V22.7332H33.583V26.8035C32.869 27.077 32.178 27.407 31.5164 27.7904V21.6999H29.4497V29.235C28.6892 29.8775 27.9967 30.5963 27.383 31.3802V23.7666H25.3163V34.9617C24.3592 37.3052 24.0592 39.8653 24.4483 42.3666H10.8496V44.4333H24.8927C27.159 52.0777 35.1932 56.4373 42.8375 54.171C44.3438 53.7243 45.7673 53.0348 47.0516 52.1296L56.6192 61.6973C57.0228 62.1007 57.6769 62.1007 58.0804 61.6973L61.1804 58.5973C61.5838 58.1938 61.5838 57.5397 61.1804 57.1361ZM38.7497 52.7C31.9044 52.6927 26.357 47.1453 26.3497 40.3C26.3497 33.4517 31.9014 27.8999 38.7497 27.8999C45.598 27.8999 51.1498 33.4517 51.1498 40.3C51.1498 47.1483 45.598 52.7 38.7497 52.7ZM57.3498 59.5056L48.6574 50.8131C49.2205 50.281 49.7406 49.705 50.2125 49.0906L58.9887 57.8667L57.3498 59.5056Z" fill="white"/>
<path d="M38.7504 29.9668C33.0434 29.9668 28.417 34.5932 28.417 40.3002C28.417 46.0072 33.0434 50.6336 38.7504 50.6336C44.4574 50.6336 49.0837 46.0072 49.0837 40.3002C49.0775 34.5958 44.4548 29.973 38.7504 29.9668ZM38.7504 48.5669C35.8007 48.5631 33.0766 46.9879 31.6017 44.4335H45.899C44.4242 46.9879 41.7 48.5631 38.7504 48.5669ZM30.7554 42.3669C29.924 39.2203 31.0342 35.8801 33.5837 33.8573V40.3002H35.6504V32.6421C36.313 32.374 37.0078 32.1934 37.717 32.1048V40.3002H39.7837V32.1048C40.493 32.1934 41.1878 32.374 41.8504 32.6421V40.3002H43.9171V33.8573C46.4666 35.8801 47.5767 39.2203 46.7453 42.3669H30.7554Z" fill="white"/>
<path d="M53.217 8.2666H11.8835C9.03147 8.26996 6.72016 10.5813 6.7168 13.4333V46.5001C6.72016 49.3521 9.03147 51.6634 11.8835 51.6668H25.3169V49.6001H11.8835C10.1714 49.6001 8.78347 48.2122 8.78347 46.5001V13.4333C8.78347 11.7212 10.1714 10.3333 11.8835 10.3333H53.217C54.9291 10.3333 56.317 11.7212 56.317 13.4333V46.5001C56.3169 47.2551 56.0414 47.984 55.542 48.5502L57.092 49.9173C57.9249 48.9739 58.3842 47.7586 58.3837 46.5001V13.4333C58.3803 10.5813 56.069 8.26996 53.217 8.2666Z" fill="white"/>
<path d="M12.9163 12.3999H10.8496V14.4666H12.9163V12.3999Z" fill="white"/>
<path d="M17.0501 12.3999H14.9834V14.4666H17.0501V12.3999Z" fill="white"/>
<path d="M21.1839 12.3999H19.1172V14.4666H21.1839V12.3999Z" fill="white"/>
<path d="M14.9837 34.1001H12.917V40.3001H14.9837V34.1001Z" fill="white"/>
<path d="M19.1165 27.8999H17.0498V40.3H19.1165V27.8999Z" fill="white"/>
<path d="M23.2503 31H21.1836V40.3H23.2503V31Z" fill="white"/>
</g>
<defs>
<clipPath id="clip0">
<rect width="62" height="62" fill="white"/>
</clipPath>
</defs>
</svg>
