<svg width="50" height="50" viewBox="0 0 50 50" fill="none" xmlns="http://www.w3.org/2000/svg">
<path d="M5.83496 39.582C4.4543 39.582 3.33496 40.7014 3.33496 42.082C3.33496 43.4627 4.4542 44.582 5.83496 44.582C7.21572 44.582 8.33496 43.4628 8.33496 42.082C8.3335 40.702 7.21504 39.5836 5.83496 39.582ZM5.83496 42.9154C5.37471 42.9154 5.00166 42.5424 5.00166 42.0821C5.00166 41.6219 5.37471 41.2488 5.83496 41.2488C6.29522 41.2488 6.66826 41.6219 6.66826 42.0821C6.66787 42.5421 6.29502 42.9149 5.83496 42.9154Z" fill="white"/>
<path d="M28.335 42.082C28.335 43.4627 29.4542 44.582 30.835 44.582C32.2157 44.582 33.335 43.4628 33.335 42.082C33.335 40.7013 32.2156 39.582 30.835 39.582C29.4549 39.5836 28.3365 40.702 28.335 42.082ZM31.6684 42.082C31.6684 42.5423 31.2953 42.9153 30.8351 42.9153C30.3748 42.9153 30.0018 42.5423 30.0018 42.082C30.0018 41.6218 30.3748 41.2487 30.8351 41.2487C31.295 41.2492 31.6679 41.622 31.6684 42.082Z" fill="white"/>
<path d="M11.6667 22.082C11.8877 22.0821 12.0997 21.9943 12.2561 21.838C12.4123 21.6817 12.5001 21.4697 12.5001 21.2486V20.4153C12.5001 19.9551 12.1271 19.582 11.6668 19.582C11.2065 19.582 10.8335 19.9551 10.8335 20.4153V21.2486C10.8334 21.4696 10.9212 21.6816 11.0775 21.838C11.2336 21.9943 11.4456 22.0821 11.6667 22.082Z" fill="white"/>
<path d="M11.6667 26.25C11.8877 26.2501 12.0997 26.1623 12.2561 26.006C12.4123 25.8497 12.5001 25.6377 12.5001 25.4166V24.5833C12.5001 24.123 12.1271 23.75 11.6668 23.75C11.2065 23.75 10.8335 24.123 10.8335 24.5833V25.4166C10.8334 25.6376 10.9212 25.8496 11.0775 26.006C11.2336 26.1623 11.4456 26.2501 11.6667 26.25Z" fill="white"/>
<path d="M49.485 15.4802C49.3841 15.4381 49.276 15.4163 49.1667 15.416H36.8083C36.5872 15.416 36.3751 15.5038 36.2187 15.6602L29.0629 22.824C28.0558 22.3373 26.9519 22.0839 25.8333 22.0826V18.9259C25.8333 18.8864 25.8239 18.8485 25.8212 18.8095C25.8228 18.7885 25.8333 18.7706 25.8333 18.7492C25.8305 18.614 25.7939 18.4816 25.727 18.3641C25.7132 18.3259 25.706 18.2859 25.6893 18.2487L20.5857 6.76543L20.579 6.75029L19.3147 3.90557C19.0471 3.30391 18.4503 2.91611 17.7917 2.91602H1.6667C0.746582 2.91699 0.00107422 3.6626 0 4.58262V27.0826C0.00195312 28.9228 1.49316 30.414 3.3333 30.4159H4.1666V37.0826C1.8666 37.0854 0.00273438 38.9492 0 41.2493V42.916C0.00273438 45.2161 1.8666 47.08 4.1667 47.0827H32.5C34.8001 47.08 36.664 45.2161 36.6667 42.916V41.2493C36.664 39.2703 35.2719 37.5653 33.3334 37.1669V29.5827C33.3321 28.4642 33.0788 27.3603 32.5921 26.3531L38.5368 20.416H45V34.3375L37.6322 45.7985C37.4672 46.055 37.4555 46.3811 37.6016 46.6487C37.7477 46.9164 38.0283 47.0828 38.3333 47.0827H45.8333C48.1334 47.08 49.9973 45.2161 50 42.916V16.2493C49.9987 15.9126 49.7958 15.6095 49.485 15.4802ZM25.8333 23.7493C28.7317 23.753 31.1893 25.8811 31.6072 28.7493H25.8333V23.7493ZM31.6667 30.416V37.0827H22.5V30.416H31.6667ZM19.2732 7.91602L23.7178 17.916H14.1666V7.91602H19.2732ZM1.6667 7.91602H9.1667L9.16787 17.916H1.6667V7.91602ZM3.3333 28.7493C2.41328 28.7482 1.66768 28.0026 1.6666 27.0826V19.5826H9.1666C10.0866 19.5815 10.8322 18.836 10.8333 17.9159V7.91592C10.8322 6.9959 10.0866 6.25029 9.1666 6.24922H1.6666V4.58262H17.7917L18.5325 6.24932H14.1667C13.2467 6.25039 12.5011 6.9959 12.5 7.91602V17.916C12.5011 18.836 13.2466 19.5816 14.1667 19.5827H24.1668L24.1672 22.9136L24.1667 22.916V28.7493H12.5C12.5 28.2891 12.127 27.916 11.6667 27.916C11.2064 27.916 10.8334 28.2892 10.8334 28.7493H3.3333ZM14.1667 34.5826V32.9159H20.8334V34.5826H14.1667ZM20.8333 36.2493V37.0826H14.1666V36.2493H20.8333ZM14.1667 31.2493V30.416H20.8334V31.2493H14.1667ZM12.5 30.416V37.0827H5.8333V30.416H12.5ZM35 41.2493V42.916C34.9985 44.2961 33.8801 45.4145 32.5 45.416H4.1667C2.78662 45.4145 1.66816 44.2961 1.6667 42.916V41.2493C1.66816 39.8692 2.78662 38.7508 4.1667 38.7493H32.5C33.8801 38.7508 34.9985 39.8692 35 41.2493ZM31.6848 24.9032C31.3383 24.4708 30.9452 24.0778 30.5129 23.7312L36.4877 17.7495L37.2724 19.3228L31.6848 24.9032ZM38.849 18.7493L38.0179 17.0826H47.155L45.4883 18.7493H38.849ZM48.3333 42.916C48.3318 44.2961 47.2134 45.4145 45.8333 45.416H39.8596L46.2882 35.416H48.3333V42.916ZM48.3333 33.7493H46.6666V19.9277L48.3333 18.261V33.7493Z" fill="white"/>
<path d="M4.16714 12.0824C4.38824 12.0827 4.60025 11.9948 4.7563 11.8383L5.58961 11.005C5.91002 10.6787 5.90757 10.1553 5.58433 9.83194C5.26109 9.5086 4.73755 9.50626 4.41128 9.82667L3.57798 10.66C3.3397 10.8983 3.26851 11.2566 3.39742 11.568C3.52632 11.8794 3.83013 12.0824 4.16714 12.0824Z" fill="white"/>
<path d="M6.07709 12.3267L3.57709 14.8267C3.36341 15.0365 3.27875 15.3449 3.35541 15.6344C3.43207 15.9239 3.65814 16.15 3.94769 16.2267C4.23724 16.3033 4.54554 16.2187 4.75541 16.005L7.25541 13.505C7.57582 13.1787 7.57338 12.6553 7.25014 12.3319C6.92689 12.0086 6.40326 12.0063 6.07709 12.3267Z" fill="white"/>
</svg>
