<svg width="64" height="64" viewBox="0 0 64 64" fill="none" xmlns="http://www.w3.org/2000/svg">
<g clip-path="url(#clip0)">
<path d="M47.8199 8.5249C47.6652 8.03023 47.1388 7.7545 46.6445 7.90925C46.1498 8.06376 45.8742 8.59008 46.0288 9.08463C46.0433 9.1313 47.3829 13.5323 45.3242 16.3886C44.2079 15.9014 41.7288 14.457 41.1116 11.0624C41.019 10.5526 40.531 10.2138 40.0206 10.3072C39.5108 10.3999 39.1726 10.8884 39.2653 11.3982C40.2734 16.9431 45.1687 18.3479 45.3765 18.405C45.4587 18.4275 45.5422 18.4385 45.625 18.4385C45.8827 18.4385 46.1334 18.3321 46.3134 18.1377C47.7119 16.6274 48.4122 14.4737 48.3388 11.9094C48.2853 10.0328 47.8389 8.58546 47.8199 8.5249Z" fill="white"/>
<path d="M50.95 7.75049C50.208 7.75049 49.6045 8.354 49.6045 9.09589C49.6045 9.83789 50.208 10.4414 50.95 10.4414C51.6919 10.4414 52.2954 9.83789 52.2954 9.09589C52.2954 8.354 51.6918 7.75049 50.95 7.75049Z" fill="white"/>
<path d="M7.31833 26.6568C6.37578 28.5363 5.94916 30.6215 6.08077 32.7364C6.08828 32.8569 6.09704 32.9785 6.10705 33.1007C6.22102 34.4964 5.91063 36.1523 5.18413 38.0222C4.99647 38.5052 5.23593 39.0489 5.71897 39.2366C5.83069 39.28 5.94553 39.3005 6.05851 39.3005C6.43433 39.3005 6.78913 39.0732 6.93338 38.7017C7.76346 36.5649 8.11464 34.629 7.97727 32.9476C7.96826 32.8377 7.96038 32.7285 7.95375 32.6202C7.82839 30.6065 8.30342 28.6249 9.32742 26.8897C9.5695 26.4797 9.46591 25.9534 9.08659 25.6655C5.9399 23.277 4.22419 20.2231 3.33893 18.0819C0.65089 11.5801 3.88065 3.86527 4.55547 2.38475C4.57336 2.34547 4.5855 2.31845 4.59175 2.30368C4.74614 1.94638 5.16262 1.78049 5.52017 1.93549C5.87723 2.08963 6.04262 2.50573 5.88748 2.86616C5.87973 2.8843 5.11332 4.70211 4.66256 7.28919C4.57361 7.79975 4.9154 8.28566 5.42597 8.37461C5.9359 8.46357 6.42244 8.12177 6.51139 7.61121C6.92112 5.25908 7.6077 3.6168 7.61271 3.60479C8.17506 2.2983 7.57017 0.77663 6.26431 0.212649C4.95669 -0.352083 3.43352 0.252558 2.86966 1.55817L2.84777 1.60646C2.3641 2.66762 1.46809 4.86449 0.901103 7.65425C0.0473748 11.8548 0.284077 15.6044 1.60483 18.7988C2.89268 21.9139 4.85911 24.6149 7.31833 26.6568Z" fill="white"/>
<path d="M63.5543 11.9844C63.5844 11.6743 63.6005 11.3626 63.6005 11.0512C63.6005 10.6725 63.3728 10.3307 63.0231 10.1851L61.2691 9.45419C61.2689 9.45407 61.2686 9.45407 61.2683 9.45394L55.6269 7.10344L53.3915 4.14541C51.4297 1.5497 48.316 0 45.0621 0C41.7479 0 38.7781 1.97494 37.4962 5.03142L32.4484 17.0686L16.0957 0.36919C15.7332 -0.00137616 15.139 -0.0073813 14.769 0.355303C14.3986 0.717863 14.3924 1.31199 14.7551 1.68219L31.661 18.9464L31.2401 19.9499H18.2029C15.9935 19.9499 13.8502 20.5409 11.9668 21.6641C9.70701 20.2385 8.09739 18.3983 7.1786 16.1873C6.56045 14.6992 6.23505 13.0105 6.21153 11.1684C6.20502 10.6543 5.78629 10.2421 5.2736 10.2421C5.2696 10.2421 5.26534 10.2421 5.26134 10.2422C4.74315 10.2489 4.32842 10.6742 4.33518 11.1924C4.36182 13.2748 4.73539 15.1976 5.44575 16.9074C6.58947 19.6599 8.62796 21.9042 11.5047 23.578C11.8138 23.7579 12.1984 23.7464 12.4963 23.5482C14.1892 22.422 16.1625 21.8266 18.2029 21.8266H31.697L49.4049 28.3396V33.2128C49.4049 37.1157 46.2297 40.2909 42.3268 40.2909C41.8087 40.2909 41.3885 40.711 41.3885 41.2292V58.6737C41.3885 59.1919 41.8087 59.612 42.3268 59.612C43.8919 59.612 45.0189 60.1732 45.6762 61.2803C45.8471 61.5679 45.9675 61.8602 46.0523 62.1235H39.4234C37.7841 62.1235 36.4506 60.79 36.4506 59.1507V40.9302C36.4506 40.4119 36.0306 39.9919 35.5123 39.9919H20.0963C19.7652 39.9919 19.4585 40.1665 19.2894 40.4512C16.0243 45.9503 7.95414 48.5598 7.87345 48.5853C7.48311 48.7086 7.21764 49.0708 7.21764 49.4801V58.6735C7.21764 59.1916 7.63774 59.6118 8.15594 59.6118C9.72115 59.6118 10.8481 60.173 11.5054 61.2801C11.6763 61.5677 11.7967 61.8599 11.8815 62.1233H5.25271C3.61343 62.1233 2.27992 60.7898 2.27992 59.1505V49.2077C2.27992 47.4351 2.83465 45.728 3.88404 44.2707C4.34831 43.626 4.79795 42.9333 5.22043 42.2117C5.4824 41.7645 5.33203 41.1897 4.88489 40.9278C4.43801 40.6657 3.8629 40.8161 3.60105 41.2633C3.20809 41.9342 2.79098 42.5771 2.36124 43.174C1.0804 44.9526 0.40332 47.0389 0.40332 49.2076V59.1504C0.40332 61.8243 2.5788 63.9998 5.25271 63.9998H13.0173C13.5409 63.9998 13.9737 63.5514 13.955 63.028C13.9533 62.9783 13.7311 58.3427 9.09411 57.7888V50.1478C9.94271 49.8374 11.5131 49.2074 13.2886 48.2292V57.4069C13.2886 60.0809 15.464 62.2564 18.138 62.2564H25.9027C26.4265 62.2564 26.859 61.808 26.8404 61.2846C26.8386 61.2349 26.6163 56.5993 21.9795 56.0455V48.4039C23.7709 47.7478 28.7888 45.6646 32.1635 41.8681H34.5737V59.1504C34.5737 61.8243 36.7492 63.9998 39.4231 63.9998H47.1879C47.7114 63.9998 48.1442 63.5514 48.1255 63.028C48.1252 63.0155 48.1105 62.7119 48.0152 62.2564H52.8685C53.3922 62.2564 53.8248 61.8079 53.8061 61.2846C53.8044 61.2349 53.5822 56.5993 48.9454 56.0455V49.6713C48.9454 49.153 48.5254 48.733 48.0071 48.733C47.4888 48.733 47.0688 49.153 47.0688 49.6713V56.93C47.0688 57.4483 47.4888 57.8683 48.0071 57.8683C50.514 57.8683 51.42 59.3409 51.7473 60.3798H47.3151C46.6513 59.2144 45.4473 58.0495 43.2649 57.7888V42.1186C44.6508 41.9736 45.9432 41.5103 47.0688 40.8047V45.9183C47.0688 46.4365 47.4888 46.8566 48.0071 46.8566C48.5254 46.8566 48.9454 46.4365 48.9454 45.9183V39.2374C50.3956 37.6455 51.2812 35.5307 51.2812 33.2126V19.712H54.8281C57.4195 19.712 59.8538 18.6282 61.507 16.7383C62.6877 15.3884 63.3717 13.8028 63.5511 12.0158C63.5522 12.0054 63.5533 11.9949 63.5543 11.9844ZM20.7589 46.8419C20.3685 46.9651 20.1031 47.3273 20.1031 47.7366V56.9301C20.1031 57.4484 20.5231 57.8684 21.0414 57.8684C23.5482 57.8684 24.4543 59.341 24.7816 60.3799H18.1381C16.4989 60.3799 15.1653 59.0463 15.1653 57.407V47.0992C17.1631 45.7847 19.1946 44.0546 20.6173 41.8682H29.5175C25.7965 45.2162 20.8155 46.824 20.7589 46.8419ZM33.1087 20.3462L34.0388 18.1283L49.4048 23.903V26.34L33.1087 20.3462ZM60.0945 15.5029C58.7978 16.9852 56.8783 17.8355 54.8281 17.8355H50.3429C49.8246 17.8355 49.4046 18.2555 49.4046 18.7738V21.8983L34.765 16.3965L39.2267 5.75704C40.2154 3.39978 42.5059 1.8766 45.0621 1.8766C47.7311 1.8766 50.2853 3.14769 51.8944 5.277L54.2832 8.4377C54.3835 8.57044 54.5173 8.67403 54.6709 8.73796L60.0831 10.9931C60.2989 11.823 60.7697 12.5697 61.4258 13.122C61.1593 13.9964 60.7154 14.793 60.0945 15.5029Z" fill="white"/>
</g>
<defs>
<clipPath id="clip0">
<rect width="64" height="64" fill="white"/>
</clipPath>
</defs>
</svg>
