<svg width="78" height="78" viewBox="0 0 78 78" fill="none" xmlns="http://www.w3.org/2000/svg">
<path d="M3.65625 18.2813H12.1875V21.9376C12.1875 22.1934 12.2679 22.4427 12.4175 22.6502C12.567 22.8577 12.778 23.013 13.0207 23.0939L16.6769 24.3126C16.8012 24.3541 16.9314 24.3752 17.0625 24.3751H21.9375C21.9375 24.6983 22.0659 25.0083 22.2945 25.2369C22.523 25.4654 22.833 25.5938 23.1562 25.5938H28.0312C28.0312 25.896 28.1434 26.1874 28.3461 26.4115C28.5488 26.6356 28.8275 26.7764 29.1281 26.8066L40.2188 27.9157V30.4688C40.2188 30.7921 40.3472 31.1021 40.5757 31.3306C40.8043 31.5592 41.1143 31.6876 41.4375 31.6876H43.6552L42.6729 37.5809C42.6437 37.7555 42.653 37.9343 42.7 38.105C42.747 38.2756 42.8306 38.434 42.945 38.5691C43.0594 38.7041 43.2019 38.8127 43.3625 38.8871C43.5231 38.9615 43.698 39.0001 43.875 39.0001H48.3783L49.4873 50.0907C49.4873 50.0938 49.4895 50.0962 49.4898 50.0992L49.8412 53.6251H40.5062C39.8268 53.6229 39.1603 53.811 38.5823 54.1682C38.0044 54.5254 37.538 55.0374 37.2362 55.6461L33.3244 63.4695C32.5151 63.6515 31.7917 64.1032 31.2729 64.7504C30.754 65.3975 30.4704 66.2018 30.4688 67.0313V69.4688C30.4698 70.4382 30.8554 71.3676 31.5408 72.053C32.2263 72.7384 33.1556 73.124 34.125 73.1251H65.8125C66.7819 73.124 67.7112 72.7384 68.3967 72.053C69.0821 71.3676 69.4677 70.4382 69.4688 69.4688V67.0313C69.4664 66.2777 69.2309 65.5432 68.7945 64.9288C68.358 64.3143 67.7421 63.85 67.0312 63.5996V57.2813C67.0302 56.312 66.6446 55.3826 65.9592 54.6972C65.2737 54.0117 64.3444 53.6262 63.375 53.6251V34.466C63.3791 33.614 63.6791 32.79 64.2238 32.1348C64.7685 31.4797 65.524 31.0342 66.3609 30.8747L66.4534 30.8526L66.5296 30.8374C67.3576 30.6699 68.1024 30.2216 68.638 29.5683C69.1736 28.9149 69.467 28.0966 69.4688 27.2518V26.6893C70.8441 26.4067 72.0798 25.6585 72.9679 24.5709C73.8559 23.4833 74.3418 22.1229 74.3438 20.7188V10.9688C74.3419 9.35326 73.6992 7.80439 72.5568 6.662C71.4145 5.51961 69.8656 4.87698 68.25 4.87509H46.3125C45.9893 4.87509 45.6793 5.00349 45.4507 5.23205C45.2222 5.46061 45.0938 5.7706 45.0938 6.09384V7.31259H42.6562V6.09384C42.6562 5.92353 42.6204 5.75513 42.5513 5.59949C42.4821 5.44385 42.3812 5.30441 42.2549 5.19015C42.1286 5.0759 41.9798 4.98937 41.818 4.93613C41.6562 4.88288 41.4851 4.86412 41.3156 4.88103L29.1281 6.09978C28.8275 6.13 28.5488 6.27082 28.3461 6.49492C28.1434 6.71902 28.0312 7.01043 28.0312 7.31259V8.53134H23.1562C22.833 8.53134 22.523 8.65974 22.2945 8.8883C22.0659 9.11686 21.9375 9.42686 21.9375 9.75009H17.0625C16.9314 9.74999 16.8012 9.77108 16.6769 9.81255L13.0207 11.0313C12.778 11.1122 12.567 11.2674 12.4175 11.475C12.2679 11.6825 12.1875 11.9318 12.1875 12.1876V15.8438H3.65625C3.33302 15.8438 3.02302 15.9722 2.79446 16.2008C2.5659 16.4294 2.4375 16.7394 2.4375 17.0626C2.4375 17.3858 2.5659 17.6958 2.79446 17.9244C3.02302 18.1529 3.33302 18.2813 3.65625 18.2813ZM24.375 18.2813H28.0312V19.5001H24.375V18.2813ZM28.0312 15.8438H24.375V14.6251H28.0312V15.8438ZM24.375 23.1563V21.9376H28.0312V23.1563H24.375ZM46.1262 31.6876H48.75V36.5626H45.3139L46.1262 31.6876ZM50.9297 39.9656L53.625 41.0442V48.7501H51.8046L50.9297 39.9656ZM67.0312 69.4688C67.0308 69.7919 66.9023 70.1017 66.6738 70.3301C66.4453 70.5586 66.1356 70.6871 65.8125 70.6876H34.125C33.8019 70.6871 33.4922 70.5586 33.2637 70.3301C33.0352 70.1017 32.9067 69.7919 32.9062 69.4688V67.0313C32.9067 66.7082 33.0352 66.3985 33.2637 66.17C33.4922 65.9416 33.8019 65.813 34.125 65.8126H65.8125C66.1356 65.813 66.4453 65.9416 66.6738 66.17C66.9023 66.3985 67.0308 66.7082 67.0312 67.0313V69.4688ZM64.5938 57.2813V63.3751H36.0971L39.4165 56.7363C39.5171 56.5334 39.6725 56.3628 39.8651 56.2437C40.0577 56.1246 40.2798 56.0619 40.5062 56.0626H63.375C63.6981 56.063 64.0078 56.1916 64.2363 56.42C64.4648 56.6485 64.5933 56.9582 64.5938 57.2813ZM52.2902 53.6251L52.0475 51.1876H54.8438C55.167 51.1876 55.477 51.0592 55.7055 50.8306C55.9341 50.6021 56.0625 50.2921 56.0625 49.9688V40.2188C56.0624 39.9753 55.9894 39.7373 55.8529 39.5356C55.7164 39.3339 55.5227 39.1776 55.2967 39.0869L51.1875 37.4433V30.4688C51.1875 30.1456 51.0591 29.8356 50.8305 29.6071C50.602 29.3785 50.292 29.2501 49.9688 29.2501H42.6562V26.8126H52.4062V32.9063C52.4063 33.1212 52.4631 33.3322 52.5709 33.518C52.6788 33.7038 52.8338 33.8578 53.0203 33.9644L60.9375 38.4885V53.6251H52.2902ZM67.0312 27.2512C67.0272 27.5393 66.9229 27.8171 66.7361 28.0366C66.5494 28.2561 66.292 28.4036 66.0083 28.4538L65.9645 28.4643L65.8357 28.4902C64.4558 28.7694 63.2147 29.5166 62.3222 30.6053C61.4297 31.6941 60.9406 33.0576 60.9375 34.4654V35.6813L54.8438 32.1993V26.8126H67.0312V27.2512ZM47.5312 7.31259H49.9688V14.6251H52.4062V7.31259H54.8438V14.6251H57.2812V7.31259H68.25C69.2194 7.31368 70.1487 7.69924 70.8342 8.38468C71.5196 9.07012 71.9052 9.99947 71.9062 10.9688V20.7188C71.9052 21.6882 71.5196 22.6176 70.8342 23.303C70.1487 23.9884 69.2194 24.374 68.25 24.3751H47.5312V7.31259ZM45.0938 9.75009V24.3751H42.6562V9.75009H45.0938ZM40.2188 25.4659L37.7812 25.2221V7.68415L40.2188 7.4404V25.4659ZM30.4688 8.41525L35.3438 7.92775V24.9785L30.4688 24.491V8.41525ZM28.0312 10.9688V12.1876H24.375V10.9688H28.0312ZM14.625 13.066L17.2605 12.1876H21.9375V21.9376H17.2605L14.625 21.0592V13.066Z" fill="white"/>
<path d="M59.7188 14.625H62.1562V17.0625H59.7188V14.625Z" fill="white"/>
<path d="M59.7188 9.75H62.1562V12.1875H59.7188V9.75Z" fill="white"/>
<path d="M64.5938 9.75H67.0312V12.1875H64.5938V9.75Z" fill="white"/>
<path d="M64.5938 14.625H67.0312V17.0625H64.5938V14.625Z" fill="white"/>
<path d="M64.5938 19.5H67.0312V21.9375H64.5938V19.5Z" fill="white"/>
<path d="M59.7188 19.5H62.1562V21.9375H59.7188V19.5Z" fill="white"/>
</svg>
