<svg width="65" height="65" viewBox="0 0 65 65" fill="none" xmlns="http://www.w3.org/2000/svg">
<path d="M20.9842 33.1083C20.7565 32.8805 20.414 32.8123 20.1165 32.9357C19.819 33.0589 19.625 33.3493 19.625 33.6713V47.802C19.625 48.2418 19.9814 48.5982 20.4212 48.5982H34.5518C34.8739 48.5982 35.1642 48.4042 35.2875 48.1067C35.4107 47.8092 35.3425 47.4667 35.115 47.239L20.9842 33.1083ZM21.2175 47.0058V35.5935L32.6296 47.0058H21.2175Z" fill="white"/>
<path d="M61.1674 4.90505L57.0274 0.765103C56.7165 0.454139 56.2124 0.454284 55.9014 0.765103L31.9752 24.6913C31.8986 24.7679 31.8385 24.8593 31.7984 24.9597L29.1758 31.545L18.6224 20.9915L20.5163 19.0977C20.8273 18.7868 20.8273 18.2827 20.5163 17.9717C20.2053 17.6608 19.7013 17.6608 19.3903 17.9717L17.4964 19.8655L14.3196 16.6887V0.796228C14.3196 0.356421 13.9632 0 13.5234 0H4.39486C3.95505 0 3.59863 0.356421 3.59863 0.796228V64.2038C3.59863 64.6436 3.95505 65 4.39486 65H13.5234C13.9632 65 14.3196 64.6436 14.3196 64.2038V55.4961H50.875L53.0987 57.7197C53.2542 57.8752 53.4579 57.9529 53.6617 57.9529C53.8655 57.9529 54.0692 57.8752 54.2247 57.7197C54.5357 57.4088 54.5357 56.9047 54.2247 56.5937L30.3875 32.7565L36.9727 30.1339C37.0732 30.0938 37.1646 30.0337 37.2411 29.9573L61.1674 6.03107C61.3166 5.88181 61.4006 5.67928 61.4006 5.46806C61.4006 5.25684 61.3166 5.05431 61.1674 4.90505ZM12.727 63.4075H5.19109V61.9907H6.55872C6.99853 61.9907 7.35495 61.6343 7.35495 61.1945C7.35495 60.7547 6.99853 60.3982 6.55872 60.3982H5.19109V57.8914H6.55872C6.99853 57.8914 7.35495 57.535 7.35495 57.0952C7.35495 56.6554 6.99853 56.299 6.55872 56.299H5.19109V53.7923H6.55872C6.99853 53.7923 7.35495 53.4359 7.35495 52.9961C7.35495 52.5563 6.99853 52.1998 6.55872 52.1998H5.19109V49.693H6.55872C6.99853 49.693 7.35495 49.3366 7.35495 48.8968C7.35495 48.457 6.99853 48.1006 6.55872 48.1006H5.19109V45.5939H6.55872C6.99853 45.5939 7.35495 45.2375 7.35495 44.7977C7.35495 44.3579 6.99853 44.0014 6.55872 44.0014H5.19109V41.4946H6.55872C6.99853 41.4946 7.35495 41.1382 7.35495 40.6984C7.35495 40.2586 6.99853 39.9022 6.55872 39.9022H5.19109V37.3955H6.55872C6.99853 37.3955 7.35495 37.0391 7.35495 36.5993C7.35495 36.1595 6.99853 35.803 6.55872 35.803H5.19109V33.2962H6.55872C6.99853 33.2962 7.35495 32.9398 7.35495 32.5C7.35495 32.0602 6.99853 31.7038 6.55872 31.7038H5.19109V29.1971H6.55872C6.99853 29.1971 7.35495 28.8407 7.35495 28.4009C7.35495 27.9611 6.99853 27.6046 6.55872 27.6046H5.19109V25.0978H6.55872C6.99853 25.0978 7.35495 24.7414 7.35495 24.3016C7.35495 23.8618 6.99853 23.5054 6.55872 23.5054H5.19109V20.9987H6.55872C6.99853 20.9987 7.35495 20.6423 7.35495 20.2025C7.35495 19.7627 6.99853 19.4062 6.55872 19.4062H5.19109V16.8994H6.55872C6.99853 16.8994 7.35495 16.543 7.35495 16.1032C7.35495 15.6634 6.99853 15.307 6.55872 15.307H5.19109V12.8002H6.55872C6.99853 12.8002 7.35495 12.4437 7.35495 12.0039C7.35495 11.5641 6.99853 11.2077 6.55872 11.2077H5.19109V8.70104H6.55872C6.99853 8.70104 7.35495 8.34461 7.35495 7.90481C7.35495 7.465 6.99853 7.10858 6.55872 7.10858H5.19109V4.60176H6.55872C6.99853 4.60176 7.35495 4.24534 7.35495 3.80554C7.35495 3.36573 6.99853 3.00931 6.55872 3.00931H5.19109V1.59246H12.7272V63.4075H12.727ZM14.3195 53.9036V18.9405L18.1944 22.8154L15.9289 25.0809C15.6179 25.3919 15.6179 25.8959 15.9289 26.2069C16.0844 26.3624 16.288 26.4401 16.4919 26.4401C16.6957 26.4401 16.8994 26.3624 17.0549 26.2069L19.3204 23.9414L21.0929 25.714L18.8274 27.9795C18.5165 28.2904 18.5165 28.7945 18.8274 29.1055C18.9829 29.2609 19.1866 29.3387 19.3904 29.3387C19.5943 29.3387 19.798 29.2609 19.9534 29.1055L22.2189 26.84L23.9915 28.6125L21.726 30.878C21.415 31.189 21.415 31.6931 21.726 32.004C21.8815 32.1595 22.0852 32.2372 22.289 32.2372C22.4928 32.2372 22.6965 32.1595 22.852 32.004L25.1175 29.7385L26.89 31.5111L24.6246 33.7766C24.3136 34.0875 24.3136 34.5916 24.6246 34.9026C24.78 35.0581 24.9837 35.1358 25.1876 35.1358C25.3914 35.1358 25.5951 35.0581 25.7506 34.9026L28.0161 32.6371L29.7886 34.4096L27.5231 36.6751C27.2122 36.9861 27.2122 37.4902 27.5231 37.8011C27.6786 37.9566 27.8823 38.0344 28.0861 38.0344C28.29 38.0344 28.4936 37.9566 28.6491 37.8011L30.9146 35.5357L32.6872 37.3082L30.4217 39.5737C30.1107 39.8847 30.1107 40.3887 30.4217 40.6997C30.5772 40.8552 30.7808 40.9329 30.9847 40.9329C31.1885 40.9329 31.3922 40.8552 31.5477 40.6997L33.8132 38.4342L35.5857 40.2068L33.3202 42.4723C33.0093 42.7832 33.0093 43.2873 33.3202 43.5983C33.4757 43.7537 33.6794 43.8315 33.8832 43.8315C34.0871 43.8315 34.2908 43.7537 34.4462 43.5983L36.7117 41.3328L38.4843 43.1053L36.2188 45.3708C35.9078 45.6818 35.9078 46.1859 36.2188 46.4968C36.3743 46.6523 36.578 46.73 36.7818 46.73C36.9855 46.73 37.1893 46.6523 37.3448 46.4968L39.6103 44.2313L41.3828 46.0039L39.1174 48.2694C38.8064 48.5803 38.8064 49.0844 39.1174 49.3954C39.2728 49.5509 39.4765 49.6286 39.6804 49.6286C39.8842 49.6286 40.0879 49.5509 40.2434 49.3954L42.5088 47.1299L44.2814 48.9024L42.0159 51.1679C41.7049 51.4789 41.7049 51.983 42.0159 52.2939C42.1714 52.4494 42.3751 52.5272 42.5789 52.5272C42.7827 52.5272 42.9864 52.4494 43.1419 52.2939L45.4074 50.0285L49.2823 53.9033H14.3195V53.9036ZM35.7343 27.3242L55.5327 7.5258L56.4766 8.4697L36.6781 28.2681L35.7343 27.3242ZM34.6082 26.1982L33.6643 25.2543L53.4628 5.4559L54.4067 6.39979L34.6082 26.1982ZM32.8305 26.6726L35.2598 29.102L31.2225 30.7099L32.8305 26.6726ZM57.6027 7.34368L54.5889 4.32989L56.4646 2.45426L59.4784 5.46806L57.6027 7.34368Z" fill="white"/>
<path d="M56.1708 58.5389C55.8598 58.2279 55.3557 58.2279 55.0447 58.5389C54.7338 58.8499 54.7338 59.3539 55.0447 59.6649L57.5015 62.1216C57.657 62.2771 57.8607 62.3549 58.0645 62.3549C58.2682 62.3549 58.472 62.2771 58.6275 62.1216C58.9385 61.8107 58.9385 61.3066 58.6275 60.9956L56.1708 58.5389Z" fill="white"/>
<path d="M60.5709 62.94C60.26 62.6292 59.7559 62.6294 59.4449 62.9405C59.1341 63.2516 59.1342 63.7557 59.4454 64.0665L59.4954 64.1164C59.6509 64.2718 59.8545 64.3495 60.0583 64.3495C60.2621 64.3495 60.466 64.2716 60.6216 64.1161C60.9324 63.805 60.9323 63.3009 60.6212 62.9901L60.5709 62.94Z" fill="white"/>
<path d="M35.1037 4.18043C35.3076 4.18043 35.5114 4.10269 35.6669 3.94706L35.7939 3.8201C36.1047 3.50914 36.1047 3.00491 35.7937 2.69409C35.4827 2.38312 34.9785 2.38327 34.6677 2.69423L34.5407 2.82134C34.2299 3.1323 34.2299 3.63639 34.5409 3.94735C34.6963 4.10269 34.9 4.18043 35.1037 4.18043Z" fill="white"/>
<path d="M30.7005 8.58233C30.9042 8.58233 31.108 8.50459 31.2635 8.34911L33.7204 5.89238C34.0314 5.58142 34.0314 5.07733 33.7204 4.76637C33.4094 4.45555 32.9054 4.45541 32.5944 4.76637L30.1375 7.2231C29.8266 7.53406 29.8266 8.03815 30.1375 8.34911C30.293 8.50459 30.4968 8.58233 30.7005 8.58233Z" fill="white"/>
<path d="M26.2993 12.9838C26.503 12.9838 26.7068 12.906 26.8623 12.7505L29.3192 10.2938C29.6301 9.98284 29.6301 9.47876 29.3192 9.16779C29.0082 8.85683 28.5041 8.85683 28.1932 9.16779L25.7362 11.6245C25.4252 11.9355 25.4252 12.4396 25.7362 12.7505C25.8918 12.906 26.0955 12.9838 26.2993 12.9838Z" fill="white"/>
<path d="M21.8988 17.386C22.1026 17.386 22.3063 17.3083 22.4618 17.1528L24.9185 14.6961C25.2295 14.3851 25.2295 13.881 24.9185 13.5701C24.6075 13.2591 24.1033 13.2593 23.7925 13.5701L21.3358 16.027C21.0248 16.3379 21.0248 16.842 21.3358 17.153C21.4912 17.3084 21.6951 17.386 21.8988 17.386Z" fill="white"/>
</svg>
