<svg width="60" height="60" viewBox="0 0 60 60" fill="none" xmlns="http://www.w3.org/2000/svg">
<path d="M30 0C13.4314 0 0 13.4314 0 30C0 46.5686 13.4314 60 30 60C46.5686 60 60 46.5686 60 30C59.9813 13.4392 46.5608 0.01875 30 0ZM48.454 15.292C51.8023 19.4626 53.6259 24.6517 53.623 30C53.623 30.281 53.606 30.56 53.6 30.8411C52.8787 30.298 52.0807 29.8652 51.232 29.557C51.1512 25.2219 49.7285 21.0183 47.16 17.525C47.6951 16.8458 48.1308 16.0939 48.454 15.292ZM39.1339 41.709C36.8937 43.4777 34.1838 44.5504 31.3399 44.794V42.7C34.2183 42.4046 36.9086 41.1315 38.9619 39.0929V39.964C38.9633 40.5498 39.0209 41.1342 39.1339 41.709ZM15.177 31H17.2829C17.5061 34.0008 18.7917 36.8237 20.9089 38.9619H20.3769C19.6921 38.9644 19.0098 39.0442 18.3429 39.1999V39.1979C16.4816 36.8491 15.3776 33.9902 15.177 31ZM16.357 39.905C15.6483 40.2529 14.9875 40.6908 14.391 41.208C12.227 38.199 10.9771 34.6297 10.791 30.928C11.1545 30.9739 11.5206 30.998 11.887 31H13.177C13.3629 34.2115 14.4666 37.3022 16.357 39.905ZM19.283 31H23.651C23.8792 32.456 24.5991 33.7901 25.691 34.78C25.6015 36.3352 24.6989 37.7279 23.316 38.445C21.0052 36.6234 19.5465 33.9306 19.283 31ZM20.8661 18.292C23.2043 16.4625 26.0379 15.377 29 15.176V17.283C25.9992 17.5061 23.1762 18.7916 21.0381 20.9091V20.0381C21.0368 19.4518 20.9793 18.8672 20.8661 18.292ZM29.076 10.793C29.0289 11.1558 29.0034 11.5212 28.9999 11.8869V13.1759C25.8393 13.3607 22.7946 14.4322 20.215 16.2679C19.8906 15.5481 19.4741 14.8734 18.9759 14.2609C21.9415 12.1624 25.4468 10.9588 29.076 10.793ZM17.524 12.844C16.8449 12.3096 16.0934 11.8743 15.292 11.5509C19.4617 8.20043 24.651 6.375 30 6.37699C30.281 6.37699 30.561 6.39398 30.8411 6.405C30.2986 7.12664 29.8658 7.92457 29.557 8.77301C25.2218 8.85445 21.0182 10.2766 17.524 12.844ZM29 19.283V19.287V23.6299C27.6861 23.8368 26.4693 24.4473 25.518 25.377H25.472C23.9067 25.371 22.4613 24.5377 21.672 23.1859C23.4892 20.951 26.1313 19.5437 29 19.283ZM25.566 30C25.5782 27.5541 27.5686 25.5799 30.0145 25.588C32.4605 25.5961 34.4379 27.5834 34.4339 30.0293C34.4299 32.4752 32.4459 34.4559 30 34.4561C27.546 34.4477 25.5621 32.454 25.566 30ZM30.787 51.213C35.0032 51.069 39.0776 49.6546 42.476 47.1551C43.1554 47.6895 43.9068 48.1252 44.708 48.4491C40.5381 51.7992 35.3489 53.6245 30 53.623C29.831 53.623 29.659 53.612 29.4889 53.608C30.039 52.8791 30.4766 52.0718 30.787 51.213ZM31.27 49.197C31.3147 48.8373 31.3382 48.4753 31.3399 48.113V48.109V46.8C34.3799 46.5613 37.2984 45.5032 39.7849 43.738C40.11 44.4577 40.5268 45.1323 41.0249 45.745C38.1566 47.7785 34.779 48.9737 31.27 49.197ZM31.34 40.686V40.682V36.313C32.526 36.0577 33.6152 35.4717 34.4821 34.623H34.5281C36.0934 34.629 37.5388 35.4623 38.3282 36.814C36.5859 38.9584 34.0819 40.3459 31.34 40.686ZM39.092 21.038H39.962C40.5482 21.0368 41.1328 20.9793 41.708 20.8659C43.537 23.2045 44.6224 26.0379 44.824 28.9999H42.717C42.4939 25.9993 41.2087 23.1765 39.092 21.038ZM40.717 29H36.349C36.1453 27.6901 35.5426 26.4749 34.6229 25.52V25.4711C34.6289 23.9058 35.4622 22.4604 36.8139 21.671C39.0494 23.4882 40.4568 26.1309 40.717 29ZM43.732 20.215C44.4518 19.8906 45.1264 19.4741 45.739 18.9759C47.8373 21.9416 49.041 25.4468 49.207 29.076C48.8442 29.0289 48.4788 29.0034 48.113 28.9999H46.824C46.6391 25.8394 45.5675 22.7947 43.732 20.215ZM39.962 4.73496C43.845 4.82684 46.9448 8.00086 46.9448 11.8849C46.9448 15.769 43.8449 18.9431 39.962 19.0349V19.0379H39.057C36.006 19.043 33.3766 21.1866 32.757 24.1739C32.2008 23.9082 31.6089 23.725 31 23.6299V11.887C31.0038 7.9391 34.203 4.73941 38.151 4.73508H39.962V4.73496ZM30 2.00004C32.2993 1.9998 34.5899 2.28293 36.82 2.84309C35.334 3.06293 33.9255 3.64688 32.7199 4.54313C31.8172 4.43578 30.909 4.38035 29.9999 4.37707C23.6828 4.37156 17.5887 6.71262 12.8999 10.946C11.6505 10.8027 10.3849 10.9212 9.18387 11.2941C14.4854 5.37691 22.0554 1.99711 30 2.00004ZM4.73602 20.038C4.69277 17.4551 6.04605 15.0496 8.27602 13.7455C10.506 12.4414 13.266 12.4414 15.4959 13.7455C17.7259 15.0496 19.0792 17.4551 19.0359 20.038H19.0379V20.943C19.042 24.0001 21.1931 26.6338 24.188 27.2481C23.9263 27.8034 23.7455 28.3935 23.651 29H11.887C7.93945 28.9956 4.74047 25.7966 4.73602 21.849V20.038ZM2.00004 30C1.99969 27.7003 2.28316 25.4093 2.84402 23.179C3.06234 24.6669 3.64652 26.0774 4.54406 27.2839C4.43648 28.1854 4.3807 29.0921 4.37707 30C4.36441 36.4775 6.82699 42.7151 11.261 47.437C11.244 47.661 11.227 47.885 11.227 48.113C11.2291 49.181 11.4198 50.2402 11.79 51.242C5.57695 45.934 1.99945 38.1717 2.00004 30ZM11.786 44.99C8.28469 40.7801 6.37066 35.4756 6.37699 30C6.37699 29.718 6.39398 29.439 6.405 29.1589C7.12699 29.7015 7.92527 30.1342 8.77395 30.443C8.87543 34.8705 10.3574 39.1557 13.013 42.7C12.4965 43.4006 12.0833 44.1718 11.786 44.99ZM20.377 55.264C16.4748 55.1987 13.3457 52.0167 13.3457 48.114C13.3457 44.2113 16.4748 41.0293 20.377 40.9641H21.283C24.2807 40.9586 26.8784 38.8857 27.549 35.964C28.1207 36.2025 28.7239 36.3561 29.34 36.42V48.113C29.3355 52.0609 26.136 55.2601 22.188 55.264H20.377ZM30 58C27.7471 57.9993 25.5025 57.7263 23.315 57.1869C24.8548 56.9971 26.3202 56.4163 27.572 55.4999C28.401 55.5799 29.203 55.6269 30 55.6269C36.3173 55.632 42.4113 53.2907 47.1 49.0569C47.4369 49.0956 47.7758 49.1156 48.115 49.1169C49.0303 49.1175 49.9406 48.9799 50.815 48.7089C45.5134 54.6248 37.9438 58.0037 30 58ZM55.264 39.962C55.1987 43.8642 52.0167 46.9934 48.114 46.9934C44.2113 46.9934 41.0293 43.8642 40.9641 39.962H40.9621V39.056C40.9564 36.0005 38.8054 33.3691 35.812 32.756C36.0738 32.1993 36.2547 31.6079 36.349 31H48.113C52.0605 31.0044 55.2595 34.2034 55.264 38.151V39.962ZM57.156 36.82C56.9372 35.3337 56.3531 33.925 55.4559 32.7199C55.5636 31.8172 55.6194 30.909 55.6229 29.9999C55.6284 23.6828 53.2874 17.5887 49.054 12.8999C49.1973 11.6505 49.0788 10.3849 48.7059 9.18387C56.4334 16.1128 59.6868 26.7521 57.156 36.8178V36.82Z" fill="white"/>
</svg>
