<svg width="68" height="68" viewBox="0 0 68 68" fill="none" xmlns="http://www.w3.org/2000/svg">
<path d="M63.2043 44.5978H62.8543V32.197C62.8543 31.6469 62.4085 31.2009 61.8582 31.2009C61.3081 31.2009 60.8621 31.6469 60.8621 32.197V44.5978H51.711V27.0482H60.8621V28.8766C60.8621 29.4267 61.3081 29.8727 61.8582 29.8727C62.4085 29.8727 62.8543 29.4267 62.8543 28.8766V27.0482H63.2043C65.8484 27.0482 67.9997 24.897 67.9997 22.2528C67.9997 19.6085 65.8484 17.4574 63.2043 17.4574H62.8543V11.7833C62.8543 8.16199 59.908 5.21582 56.2866 5.21582C53.939 5.21582 51.8763 6.45456 50.7148 8.31194C48.1339 4.18493 42.1498 4.18931 39.5714 8.31194C36.9906 4.18506 31.0065 4.18918 28.4283 8.31194C25.8475 4.1852 19.8634 4.18905 17.2851 8.31194C16.1237 6.45456 14.061 5.21582 11.7134 5.21582C8.09198 5.21582 5.14581 8.16199 5.14581 11.7833V17.4575H4.79505C2.15103 17.4575 0 19.6087 0 22.2528C0 24.897 2.15103 27.0482 4.79519 27.0482H5.14594V39.6348C5.14594 40.1849 5.59193 40.6309 6.14204 40.6309C6.69214 40.6309 7.13813 40.1849 7.13813 39.6348V27.0482H16.289V44.5978H7.13813V42.9552C7.13813 42.4051 6.69214 41.9591 6.14204 41.9591C5.59193 41.9591 5.14594 42.4051 5.14594 42.9552V44.5978H4.79519C2.15103 44.5978 0 46.749 0 49.3932C0 52.0376 2.15103 54.1889 4.79519 54.1889H5.14594V59.7702C5.14594 61.4318 6.49757 62.7836 8.15919 62.7836C9.05394 62.7836 58.4039 62.7836 59.8412 62.7836C61.5028 62.7836 62.8546 61.4318 62.8546 59.7702V54.1889H63.2046C65.8487 54.1889 68 52.0374 68 49.3932C67.9999 46.749 65.8484 44.5978 63.2043 44.5978ZM51.7108 11.7833C51.7108 9.26048 53.7636 7.208 56.2866 7.208C58.8095 7.208 60.8621 9.26048 60.8621 11.7833V17.4575H51.711V11.7833H51.7108ZM40.5676 11.7833C40.5675 9.26048 42.6204 7.208 45.1434 7.208C47.6662 7.208 49.7187 9.26048 49.7187 11.7833V17.4575H40.5678V11.7833H40.5676ZM29.4246 11.7833C29.4246 9.26048 31.4772 7.208 33.9999 7.208C36.5228 7.208 38.5753 9.26048 38.5753 11.7833V17.4575H29.4246V11.7833ZM18.2813 11.7833C18.2813 9.26048 20.3338 7.208 22.8567 7.208C25.3798 7.208 27.4324 9.26048 27.4324 11.7833V17.4575H18.2815V11.7833H18.2813ZM7.13813 11.7833C7.13813 9.26048 9.19074 7.208 11.7135 7.208C14.2365 7.208 16.2892 9.26048 16.2892 11.7833V17.4575H7.13813V11.7833ZM4.79519 25.0558C3.24965 25.0558 1.99232 23.7985 1.99232 22.2528C1.99232 20.707 3.24965 19.4497 4.79519 19.4497H6.14204C8.20262 19.4497 60.2319 19.4497 63.2044 19.4497C64.7502 19.4497 66.0076 20.7072 66.0076 22.2528C66.0076 23.7985 64.7501 25.0558 63.2044 25.0558C62.031 25.0558 5.15258 25.0558 4.79519 25.0558ZM49.7187 27.0482V44.5978H40.5678V27.0482H49.7187ZM38.5753 27.0482V44.5978H29.4246V27.0482H38.5753ZM27.4324 27.0482V44.5978H18.2815V27.0482H27.4324ZM16.289 60.7911H8.15905C7.59606 60.7912 7.13813 60.3332 7.13813 59.7702V54.1889H16.289V60.7911ZM27.4324 60.7912H18.2815V54.189H27.4324V60.7912ZM38.5753 60.7912H29.4246V54.189H38.5752V60.7912H38.5753ZM49.7185 60.7912H40.5675V54.189H49.7184V60.7912H49.7185ZM59.8409 60.7912H51.7107V54.189H60.8619V59.7702H60.862C60.862 60.3332 60.4041 60.7912 59.8409 60.7912ZM63.2043 52.1967H61.8582C60.5305 52.1967 6.52002 52.1967 4.79505 52.1967C3.24952 52.1967 1.99218 50.9391 1.99218 49.3933C1.99218 47.8476 3.24952 46.5903 4.79505 46.5903C5.96885 46.5903 62.8469 46.5903 63.2044 46.5903C64.7502 46.5903 66.0076 47.8476 66.0076 49.3933C66.0076 50.939 64.7501 52.1967 63.2043 52.1967Z" fill="white"/>
<path d="M11.2099 23.3886C11.8366 23.3886 12.3447 22.8806 12.3447 22.2539C12.3447 21.6272 11.8366 21.1191 11.2099 21.1191C10.5832 21.1191 10.0752 21.6272 10.0752 22.2539C10.0752 22.8806 10.5832 23.3886 11.2099 23.3886Z" fill="white"/>
<path d="M56.2871 23.3886C56.9138 23.3886 57.4218 22.8806 57.4218 22.2539C57.4218 21.6272 56.9138 21.1191 56.2871 21.1191C55.6604 21.1191 55.1523 21.6272 55.1523 22.2539C55.1523 22.8806 55.6604 23.3886 56.2871 23.3886Z" fill="white"/>
<path d="M11.2098 50.528C11.8364 50.528 12.3444 50.02 12.3444 49.3934C12.3444 48.7668 11.8364 48.2588 11.2098 48.2588C10.5832 48.2588 10.0752 48.7668 10.0752 49.3934C10.0752 50.02 10.5832 50.528 11.2098 50.528Z" fill="white"/>
<path d="M56.2879 50.528C56.9146 50.528 57.4226 50.02 57.4226 49.3934C57.4226 48.7668 56.9146 48.2588 56.2879 48.2588C55.6613 48.2588 55.1533 48.7668 55.1533 49.3934C55.1533 50.02 55.6613 50.528 56.2879 50.528Z" fill="white"/>
</svg>
