<svg width="58" height="58" viewBox="0 0 58 58" fill="none" xmlns="http://www.w3.org/2000/svg">
<path d="M57.0333 7.73333C57.5672 7.73333 58 7.30051 58 6.76667V0.966667C58 0.432825 57.5672 0 57.0333 0H0.966667C0.432825 0 0 0.432825 0 0.966667V6.76667C0 7.30051 0.432825 7.73333 0.966667 7.73333H2.9V56.0667H0.966667C0.432825 56.0667 0 56.4995 0 57.0333C0 57.5672 0.432825 58 0.966667 58H57.0333C57.5672 58 58 57.5672 58 57.0333C58 56.4995 57.5672 56.0667 57.0333 56.0667H55.1V7.73333H57.0333ZM49.3 56.0667H8.7V50.2667H49.3V56.0667ZM49.3 48.3333H8.7V42.5333H49.3V48.3333ZM49.3 40.6H8.7V34.8H49.3V40.6ZM49.3 32.8667H8.7V27.0667H49.3V32.8667ZM49.3 25.1333H8.7V19.3333H49.3V25.1333ZM49.3 17.4H8.7V11.6H49.3V17.4ZM53.1667 56.0667H51.2333V10.6333C51.2333 10.0995 50.8005 9.66667 50.2667 9.66667H7.73333C7.19949 9.66667 6.76667 10.0995 6.76667 10.6333V56.0667H4.83333V7.73333H53.1667V56.0667ZM1.93333 5.8V1.93333H56.0667V5.8H1.93333Z" fill="white"/>
<path d="M26.1005 55.1003H31.9005C32.4343 55.1003 32.8671 54.6675 32.8671 54.1337C32.8671 53.5998 32.4343 53.167 31.9005 53.167H26.1005C25.5666 53.167 25.1338 53.5998 25.1338 54.1337C25.1338 54.6675 25.5666 55.1003 26.1005 55.1003Z" fill="white"/>
</svg>
