<svg width="74" height="74" viewBox="0 0 74 74" fill="none" xmlns="http://www.w3.org/2000/svg">
<g clip-path="url(#clip0)">
<path d="M36.9995 31.6279C36.3595 31.6279 35.8408 31.1092 35.8408 30.4692V26.1154C35.8408 25.4755 36.3594 24.9567 36.9995 24.9567C37.6395 24.9567 38.1582 25.4754 38.1582 26.1154V30.4692C38.1582 31.1092 37.6395 31.6279 36.9995 31.6279Z" fill="white"/>
<path d="M36.9995 49.043C36.3595 49.043 35.8408 48.5242 35.8408 47.8843V43.5304C35.8408 42.8906 36.3594 42.3717 36.9995 42.3717C37.6395 42.3717 38.1582 42.8904 38.1582 43.5304V47.8843C38.1582 48.5241 37.6395 49.043 36.9995 49.043Z" fill="white"/>
<path d="M36.9995 22.9209C36.3595 22.9209 35.8408 22.4022 35.8408 21.7622V17.4083C35.8408 16.7685 36.3594 16.2496 36.9995 16.2496C37.6395 16.2496 38.1582 16.7683 38.1582 17.4083V21.7622C38.1582 22.4022 37.6395 22.9209 36.9995 22.9209Z" fill="white"/>
<path d="M36.9995 57.751C36.3595 57.751 35.8408 57.2323 35.8408 56.5923V52.2384C35.8408 51.5986 36.3594 51.0797 36.9995 51.0797C37.6395 51.0797 38.1582 51.5984 38.1582 52.2384V56.5923C38.1582 57.2321 37.6395 57.751 36.9995 57.751Z" fill="white"/>
<path d="M21.7616 38.1592H17.4077C16.7677 38.1592 16.249 37.6405 16.249 37.0005C16.249 36.3605 16.7676 35.8418 17.4077 35.8418H21.7616C22.4016 35.8418 22.9203 36.3605 22.9203 37.0005C22.9203 37.6405 22.4016 38.1592 21.7616 38.1592Z" fill="white"/>
<path d="M30.4697 38.1592H26.1157C25.4758 38.1592 24.957 37.6405 24.957 37.0005C24.957 36.3605 25.4756 35.8418 26.1157 35.8418H30.4697C31.1097 35.8418 31.6284 36.3605 31.6284 37.0005C31.6284 37.6405 31.1097 38.1592 30.4697 38.1592Z" fill="white"/>
<path d="M39.1766 38.159H38.1584V39.1772C38.1584 39.8171 37.6398 40.3359 36.9997 40.3359C36.3597 40.3359 35.841 39.8172 35.841 39.1772V38.159H34.8228C34.1828 38.159 33.6641 37.6403 33.6641 37.0003C33.6641 36.3603 34.1826 35.8416 34.8228 35.8416H35.841V34.8234C35.841 34.1835 36.3596 33.6647 36.9997 33.6647C37.6397 33.6647 38.1584 34.1834 38.1584 34.8234V35.8416H39.1766C39.8166 35.8416 40.3353 36.3603 40.3353 37.0003C40.3353 37.6403 39.8165 38.159 39.1766 38.159Z" fill="white"/>
<path d="M56.5918 38.1592H52.2378C51.5978 38.1592 51.0791 37.6405 51.0791 37.0005C51.0791 36.3605 51.5977 35.8418 52.2378 35.8418H56.5918C57.2318 35.8418 57.7505 36.3605 57.7505 37.0005C57.7505 37.6405 57.2318 38.1592 56.5918 38.1592Z" fill="white"/>
<path d="M47.8846 38.1592H43.5308C42.8908 38.1592 42.3721 37.6405 42.3721 37.0005C42.3721 36.3605 42.8906 35.8418 43.5308 35.8418H47.8846C48.5246 35.8418 49.0433 36.3605 49.0433 37.0005C49.0433 37.6405 48.5246 38.1592 47.8846 38.1592Z" fill="white"/>
<path d="M63.5724 64.4219H10.4282C9.78825 64.4219 9.26953 63.9032 9.26953 63.2632V10.737C9.26953 10.0972 9.78811 9.57833 10.4282 9.57833H63.5724C64.2124 9.57833 64.7311 10.0971 64.7311 10.737V63.2632C64.7309 63.903 64.2124 64.4219 63.5724 64.4219ZM62.4137 38.1588H60.9461C60.3061 38.1588 59.7874 37.6401 59.7874 37.0001C59.7874 36.3601 60.306 35.8414 60.9461 35.8414H62.4137V11.8957H38.159V13.0545C38.159 13.6943 37.6404 14.2132 37.0003 14.2132C36.3603 14.2132 35.8416 13.6944 35.8416 13.0545V11.8957H11.5869V35.8414H13.0547C13.6946 35.8414 14.2134 36.3601 14.2134 37.0001C14.2134 37.6401 13.6948 38.1588 13.0547 38.1588H11.5869V62.1045H35.8416V60.9458C35.8416 60.3059 36.3602 59.787 37.0003 59.787C37.6403 59.787 38.159 60.3058 38.159 60.9458V62.1045H62.4137V38.1588Z" fill="white"/>
<path d="M63.5718 73.0732C62.9318 73.0732 62.4131 72.5545 62.4131 71.9145V66.9708C62.4131 66.331 62.9317 65.8121 63.5718 65.8121C64.2118 65.8121 64.7305 66.3309 64.7305 66.9708V71.9145C64.7304 72.5544 64.2118 73.0732 63.5718 73.0732Z" fill="white"/>
<path d="M72.8417 64.4219H67.898C67.258 64.4219 66.7393 63.9032 66.7393 63.2632C66.7393 62.6232 67.2578 62.1045 67.898 62.1045H72.8417C73.4816 62.1045 74.0004 62.6232 74.0004 63.2632C74.0004 63.9032 73.4818 64.4219 72.8417 64.4219Z" fill="white"/>
<path d="M10.4282 73.0732C9.78825 73.0732 9.26953 72.5545 9.26953 71.9145V66.9708C9.26953 66.331 9.78811 65.8121 10.4282 65.8121C11.0682 65.8121 11.5869 66.3309 11.5869 66.9708V71.9145C11.5869 72.5544 11.0684 73.0732 10.4282 73.0732Z" fill="white"/>
<path d="M6.10225 64.4219H1.15871C0.518578 64.4219 0 63.903 0 63.2632C0 62.6233 0.518578 62.1045 1.15871 62.1045H6.1024C6.74238 62.1045 7.26111 62.6232 7.26111 63.2632C7.26111 63.9032 6.74238 64.4219 6.10225 64.4219Z" fill="white"/>
<path d="M63.5718 8.1875C62.9318 8.1875 62.4131 7.66878 62.4131 7.02879V2.0851C62.4131 1.44526 62.9317 0.926392 63.5718 0.926392C64.2118 0.926392 64.7305 1.44511 64.7305 2.0851V7.02879C64.7304 7.66878 64.2118 8.1875 63.5718 8.1875Z" fill="white"/>
<path d="M72.8417 11.8955H67.898C67.258 11.8955 66.7393 11.3768 66.7393 10.7368C66.7393 10.0968 67.2578 9.57809 67.898 9.57809H72.8417C73.4816 9.57809 74.0004 10.0968 74.0004 10.7368C74.0004 11.3768 73.4818 11.8955 72.8417 11.8955Z" fill="white"/>
<path d="M10.4282 8.1875C9.78825 8.1875 9.26953 7.66878 9.26953 7.02879V2.0851C9.26953 1.44526 9.78811 0.926392 10.4282 0.926392C11.0682 0.926392 11.5869 1.44511 11.5869 2.0851V7.02879C11.5869 7.66878 11.0684 8.1875 10.4282 8.1875Z" fill="white"/>
<path d="M6.10225 11.8955H1.15871C0.518723 11.8955 0 11.3768 0 10.7368C0 10.0968 0.518578 9.57809 1.15871 9.57809H6.1024C6.74238 9.57809 7.26111 10.0968 7.26111 10.7368C7.26111 11.3768 6.74238 11.8955 6.10225 11.8955Z" fill="white"/>
</g>
<defs>
<clipPath id="clip0">
<rect width="74" height="74" fill="white" transform="matrix(1 0 0 -1 0 74)"/>
</clipPath>
</defs>
</svg>
