<svg width="72" height="72" viewBox="0 0 72 72" fill="none" xmlns="http://www.w3.org/2000/svg">
<g clip-path="url(#clip0)">
<path d="M35.7599 70.4119C33.2517 70.4119 30.7449 69.9064 28.4234 68.8967L17.3227 64.071C13.3067 62.3242 9.06047 61.2178 4.7021 60.7821L1.0567 60.4176C0.456515 60.3578 0 59.853 0 59.2501V47.8151C0 47.5613 0.0825755 47.3143 0.234971 47.1115C0.507537 46.747 7.04107 38.2115 17.0213 40.4323C22.6344 41.6797 27.1539 44.0139 29.9568 45.7527C31.9916 47.0148 34.3769 47.6815 36.8548 47.6815H47.9555C49.8688 47.6815 51.5506 48.6939 52.4911 50.2125L62.0517 39.1977C63.9053 36.7224 66.9378 35.2065 70.1126 35.2065H70.8269C71.2237 35.2065 71.5929 35.4066 71.8091 35.7382C72.0259 36.0699 72.0602 36.4895 71.901 36.852L63.2541 56.5036C61.3636 60.8016 57.5141 64.0482 52.9577 65.1875L51.4364 65.5675L42.5868 69.1075C40.4089 69.9782 38.0841 70.4119 35.7599 70.4119ZM2.34702 58.188L4.93573 58.4472C9.53645 58.907 14.019 60.0759 18.2592 61.9194L29.3593 66.745C33.2625 68.4422 37.7638 68.5086 41.716 66.9276L50.6382 63.3587C50.6879 63.3393 50.7382 63.3232 50.7899 63.3104L52.3884 62.9103C56.2466 61.9456 59.506 59.1971 61.1058 55.5584L68.9928 37.6341C66.9734 37.9315 65.1151 39.0198 63.8771 40.67L53.286 52.8764C53.2873 52.922 53.288 52.967 53.288 53.0133C53.288 55.9531 50.896 58.3451 47.9562 58.3451H32.4683C30.4549 58.3451 28.465 58.668 26.555 59.3045L26.124 58.2102L25.7595 57.0951L25.8193 57.0756C27.9629 56.3613 30.2018 55.9981 32.4683 55.9981H47.9562C49.6017 55.9981 50.9417 54.6588 50.9417 53.0126C50.9417 51.3665 49.6023 50.0272 47.9562 50.0272H36.8555C33.9398 50.0272 31.1269 49.2383 28.7208 47.7459C26.073 46.1031 21.8046 43.8991 16.5137 42.7223C8.95574 41.0459 3.51718 46.8463 2.34769 48.23V58.188H2.34702Z" fill="white"/>
<path d="M46.2083 34.9411C44.4037 34.9411 42.3803 34.3839 40.1528 33.2702C39.8829 33.1346 39.6748 32.8996 39.5728 32.6156C39.4821 32.3612 37.3855 26.3305 40.7174 21.8707C43.1389 18.6288 47.692 17.1686 54.2577 17.5345C54.8566 17.5674 55.3339 18.0474 55.3634 18.6476C55.3869 19.1135 55.871 30.1108 50.2632 33.7723C49.0709 34.5518 47.7162 34.9411 46.2083 34.9411ZM41.6492 31.387C44.7314 32.8325 47.1952 32.9741 48.981 31.808C52.3061 29.6362 53.0252 23.1893 53.0426 19.8339C47.8981 19.7083 44.3957 20.8677 42.5972 23.2745C40.4569 26.1405 41.2887 30.0826 41.6492 31.387Z" fill="white"/>
<path d="M28.2649 19.5683C26.1844 19.5683 23.7844 19.1225 21.6898 17.5885C18.137 14.985 16.5043 10.0285 16.836 2.85719C16.8642 2.25768 17.3395 1.77566 17.939 1.74008C18.4465 1.71121 30.4596 1.07007 34.5017 7.13769C36.3842 9.96203 36.2298 13.6611 34.0445 18.1343C33.9116 18.4062 33.6793 18.6163 33.3954 18.7204C33.2376 18.7788 31.0349 19.5683 28.2649 19.5683ZM32.9905 17.6194H33.0019H32.9905ZM19.1454 4.04883C19.044 9.79285 20.3646 13.7081 23.0761 15.6953C26.3227 18.0739 30.7556 17.0628 32.1493 16.6567C33.7438 13.1966 33.8787 10.434 32.5495 8.43875C30.0789 4.73024 22.8338 4.00519 19.1454 4.04883Z" fill="white"/>
<path d="M37.4286 49.615C37.3917 49.615 37.3548 49.613 37.3172 49.6096C36.6921 49.5506 36.2242 49.0101 36.2558 48.3824C36.3249 47.0021 36.4431 45.693 36.6035 44.4524C37.0916 36.1492 36.8398 16.8131 24.6147 11.4638C24.0212 11.204 23.75 10.5125 24.0098 9.91839C24.2689 9.32559 24.9624 9.05504 25.5552 9.31418C32.7594 12.4661 37.2916 20.3135 38.6592 32.0077C38.782 33.0556 38.874 34.0888 38.9425 35.0952C42.1623 26.9591 47.0879 24.0844 47.3813 23.92C47.9452 23.6011 48.6609 23.8038 48.9791 24.3671C49.2953 24.931 49.0966 25.6446 48.5347 25.9629C48.4105 26.0354 40.8572 30.5683 38.9613 44.547C38.8169 46.9384 38.6088 48.463 38.5894 48.6026C38.5081 49.188 38.008 49.615 37.4286 49.615Z" fill="white"/>
</g>
<defs>
<clipPath id="clip0">
<rect width="72" height="72" fill="white"/>
</clipPath>
</defs>
</svg>
