<svg width="70" height="70" viewBox="0 0 70 70" fill="none" xmlns="http://www.w3.org/2000/svg">
<path d="M34.9999 10.3701C22.8484 10.3701 12.9629 20.2557 12.9629 32.4072C12.9629 41.6264 18.6549 49.7931 27.2221 53.0183V64.8146C27.2221 65.5314 27.8016 66.1109 28.5184 66.1109H29.8147V68.7035C29.8147 69.4203 30.3942 69.9997 31.111 69.9997H38.8888C39.6057 69.9997 40.1851 69.4203 40.1851 68.7035V66.1109H41.4814C42.1983 66.1109 42.7777 65.5314 42.7777 64.8146V53.0183C51.3449 49.7931 57.037 41.6264 57.037 32.4072C57.037 20.2557 47.1514 10.3701 34.9999 10.3701ZM38.8888 63.5183C38.172 63.5183 37.5925 64.0977 37.5925 64.8146V67.4072H32.4073V64.8146C32.4073 64.0977 31.8279 63.5183 31.111 63.5183H29.8147V57.0368H40.1851V63.5183H38.8888ZM41.077 50.869C40.5442 51.044 40.1851 51.5418 40.1851 52.1005V54.4442H29.8147V52.1005C29.8147 51.5405 29.4557 51.044 28.9229 50.869C20.9286 48.2401 15.5555 40.8201 15.5555 32.4072C15.5555 21.6855 24.2783 12.9627 34.9999 12.9627C45.7216 12.9627 54.4444 21.6855 54.4444 32.4072C54.4444 40.8201 49.0712 48.2401 41.077 50.869Z" fill="white"/>
<path d="M35.0004 7.77778C35.7172 7.77778 36.2967 7.19833 36.2967 6.48148V1.2963C36.2967 0.579444 35.7172 0 35.0004 0C34.2835 0 33.7041 0.579444 33.7041 1.2963V6.48148C33.7041 7.19833 34.2835 7.77778 35.0004 7.77778Z" fill="white"/>
<path d="M66.1114 31.1113H60.9262C60.2093 31.1113 59.6299 31.6908 59.6299 32.4076C59.6299 33.1245 60.2093 33.7039 60.9262 33.7039H66.1114C66.8282 33.7039 67.4077 33.1245 67.4077 32.4076C67.4077 31.6908 66.8282 31.1113 66.1114 31.1113Z" fill="white"/>
<path d="M9.07425 31.1113H3.88907C3.17222 31.1113 2.59277 31.6908 2.59277 32.4076C2.59277 33.1245 3.17222 33.7039 3.88907 33.7039H9.07425C9.79111 33.7039 10.3706 33.1245 10.3706 32.4076C10.3706 31.6908 9.79111 31.1113 9.07425 31.1113Z" fill="white"/>
<path d="M56.0832 9.49196L52.4172 13.1579C51.9104 13.6647 51.9104 14.484 52.4172 14.9908C52.67 15.2436 53.0019 15.3707 53.3337 15.3707C53.6656 15.3707 53.9974 15.2436 54.2502 14.9908L57.9161 11.3249C58.423 10.8181 58.423 9.99881 57.9161 9.49196C57.4093 8.98511 56.5887 8.9864 56.0832 9.49196Z" fill="white"/>
<path d="M15.7502 49.8245L12.0842 53.4904C11.5774 53.9973 11.5774 54.8165 12.0842 55.3234C12.337 55.5761 12.6689 55.7032 13.0007 55.7032C13.3326 55.7032 13.6644 55.5761 13.9172 55.3234L17.5831 51.6574C18.09 51.1506 18.09 50.3313 17.5831 49.8245C17.0763 49.3176 16.257 49.3176 15.7502 49.8245Z" fill="white"/>
<path d="M54.2502 49.8245C53.7434 49.3176 52.9241 49.3176 52.4172 49.8245C51.9104 50.3313 51.9104 51.1506 52.4172 51.6574L56.0832 55.3234C56.336 55.5761 56.6678 55.7032 56.9997 55.7032C57.3315 55.7032 57.6634 55.5761 57.9161 55.3234C58.423 54.8165 58.423 53.9973 57.9161 53.4904L54.2502 49.8245Z" fill="white"/>
<path d="M15.7502 14.9904C16.0029 15.2431 16.3348 15.3702 16.6666 15.3702C16.9985 15.3702 17.3304 15.2431 17.5831 14.9904C18.09 14.4835 18.09 13.6642 17.5831 13.1574L13.9172 9.49147C13.4104 8.98462 12.5911 8.98462 12.0842 9.49147C11.5774 9.99832 11.5774 10.8176 12.0842 11.3244L15.7502 14.9904Z" fill="white"/>
<path d="M34.9999 16.8516C26.4223 16.8516 19.4443 23.8295 19.4443 32.4071C19.4443 33.124 20.0238 33.7034 20.7406 33.7034C21.4575 33.7034 22.0369 33.124 22.0369 32.4071C22.0369 25.2593 27.8521 19.4442 34.9999 19.4442C35.7167 19.4442 36.2962 18.8647 36.2962 18.1479C36.2962 17.431 35.7167 16.8516 34.9999 16.8516Z" fill="white"/>
</svg>
