<svg width="73" height="73" viewBox="0 0 73 73" fill="none" xmlns="http://www.w3.org/2000/svg">
<g clip-path="url(#clip0)">
<path d="M71.9263 37.2047L64.0814 29.3604C65.286 28.0859 65.9519 26.4294 65.9519 24.6685C65.9519 22.9076 65.286 21.2511 64.0814 19.9766L67.1266 16.9321V13.6099L57.0407 3.52407H53.7186L50.4962 6.74644C49.4873 6.18032 48.3453 5.87345 47.1568 5.87345C46.2896 5.87345 45.4499 6.03807 44.6663 6.34436L40.2486 1.98286C38.9552 0.703782 37.2402 0 35.4202 0C33.5854 0 31.86 0.714106 30.562 2.01212L27.0024 5.57175L31.7012 18.4933L30.7112 19.4833V29.8537L34.3362 33.4787L32.4319 35.383C27.5938 32.0516 21.5838 32.0688 18.101 35.5533C16.0792 37.5746 15.1591 40.4328 15.5119 43.6012C15.7562 45.794 16.6028 47.9518 17.9341 49.8808L17.6238 50.1911C12.8981 47.314 7.29937 47.5279 4.00473 50.8243C0.642409 54.186 0.541459 59.7739 3.37494 64.4399L1.49188 66.323L0 70.7986L2.2014 73L6.67704 71.5081L8.55436 69.6308C10.2963 70.6954 12.2006 71.3693 14.129 71.5844C14.5706 71.6338 15.0077 71.6573 15.4379 71.6573C18.0798 71.6573 20.4384 70.7338 22.1769 68.9941C25.4709 65.7007 25.686 60.1019 22.8101 55.3762L23.4055 54.7803C24.9375 55.597 26.5716 56.1293 28.2253 56.3134C28.6669 56.3628 29.104 56.3863 29.533 56.3863C32.1761 56.3863 34.5335 55.4628 36.272 53.7232C39.3779 50.6184 39.768 45.4321 37.3314 40.852L39.5202 38.6638L42.3147 41.4583C43.6081 42.7517 45.3277 43.4636 47.1568 43.4636C48.986 43.4636 50.7056 42.7517 51.9978 41.4583L58.9037 34.5524L66.7411 42.3898C67.4329 43.0815 68.354 43.4636 69.3337 43.4636C71.3556 43.4636 73 41.8191 73 39.7972C73 38.8176 72.618 37.897 71.9263 37.2047ZM54.6914 5.87345H56.068L64.7772 14.5827V15.9593L62.4278 18.3087L52.342 8.22283L54.6914 5.87345ZM29.7206 6.17516L32.222 3.67435C33.064 2.83233 34.2306 2.34938 35.4202 2.34938C36.6185 2.34938 37.7461 2.81341 38.5979 3.65313L42.6083 7.61312C42.5097 7.70145 42.4099 7.78462 42.3158 7.87869L40.696 9.49848L38.5898 7.39229L36.9288 9.05338L39.0349 11.1596L33.5337 16.6608L29.7206 6.17516ZM33.0605 21.1444H36.5846C37.2316 21.1444 37.7593 21.6721 37.7593 22.3191V27.0179C37.7593 27.6649 37.2316 28.1926 36.5846 28.1926H33.0605V21.1444ZM5.40828 69.4547L2.83578 70.3122L2.68779 70.1642L3.54529 67.5917L4.76358 66.3735C5.04406 66.7061 5.34117 67.0291 5.65607 67.344C5.96981 67.6577 6.29389 67.9537 6.62771 68.2353L5.40828 69.4547ZM20.5146 67.3331C19.009 68.8393 16.8323 69.5207 14.3877 69.2482C11.8444 68.966 9.33386 67.6996 7.31601 65.6817C3.22352 61.5892 2.48303 55.6687 5.66696 52.4854C8.07829 50.0723 12.2098 49.91 15.8933 51.9227L14.1479 53.6681C11.5777 52.5003 8.82796 52.6471 7.32862 54.1465C5.98874 55.4852 5.97555 57.3568 6.0874 58.3525C6.30823 60.3365 7.36074 62.4031 8.97824 64.0229C10.8177 65.8601 13.2244 66.9574 15.4178 66.9574C16.8254 66.9574 18.0138 66.5123 18.8524 65.672C20.1929 64.3332 20.2061 62.4617 20.0942 61.4659C19.9978 60.601 19.7397 59.7085 19.3411 58.8424L21.0773 57.1061C23.0912 60.7891 22.9277 64.9217 20.5146 67.3331ZM8.42129 58.0921C8.35648 57.5151 8.34501 56.4523 8.98856 55.807C9.48184 55.3137 10.2258 55.2105 10.7638 55.2105C11.2726 55.2105 11.8043 55.3034 12.3434 55.4714L8.65302 59.1618C8.54117 58.8039 8.4603 58.4454 8.42129 58.0921ZM17.5251 60.66C17.637 61.0191 17.7213 61.3776 17.7603 61.7263C17.8246 62.3033 17.8366 63.3662 17.193 64.0115C16.6992 64.5047 15.9558 64.608 15.4178 64.608C14.9056 64.608 14.3733 64.5116 13.8387 64.3459L17.5251 60.66ZM11.6448 63.2182C11.2961 62.9624 10.9577 62.6779 10.6393 62.3607C10.3233 62.0435 10.0353 61.7074 9.77953 61.3575L19.4214 51.7156C19.5327 51.8344 19.6359 51.9577 19.7512 52.0741C20.2657 52.5886 20.8146 53.0538 21.3796 53.4834L11.6448 63.2182ZM34.6109 52.0621C33.1053 53.5683 30.9263 54.2509 28.484 53.9773C25.9407 53.6951 23.4301 52.4286 21.4123 50.4107C17.3198 46.3183 16.5793 40.3978 19.7633 37.2144C22.3593 34.6184 26.9003 34.6264 30.7358 37.0802L29.0151 38.8009C27.6614 38.0295 26.2189 37.5912 24.8601 37.5912C23.4525 37.5912 22.2641 38.0363 21.4249 38.8766C20.085 40.2154 20.0718 42.087 20.1837 43.0827C20.4045 45.0673 21.457 47.1333 23.0745 48.7531C24.914 50.5891 27.3207 51.6864 29.5141 51.6864C30.9217 51.6864 32.1101 51.2413 32.9487 50.401C34.2892 49.0623 34.3023 47.1907 34.1905 46.1961C34.1257 45.6099 33.9639 45.018 33.758 44.4254L35.5745 42.6095C37.1708 46.0997 36.8416 49.8326 34.6109 52.0621ZM22.5176 42.8211C22.4528 42.2441 22.4413 41.1813 23.0849 40.536C23.577 40.0427 24.3221 39.9395 24.8589 39.9395C25.6304 39.9395 26.4598 40.158 27.2766 40.5372L23.0883 44.7254C22.7986 44.0945 22.587 43.4504 22.5176 42.8211ZM31.8354 46.3498C31.84 46.3848 31.8532 46.4204 31.8566 46.4553C31.9208 47.0324 31.9329 48.0952 31.2893 48.7405C30.7955 49.2338 30.0521 49.337 29.5141 49.337C29.3099 49.337 29.1006 49.3215 28.8906 49.2946L31.8354 46.3498ZM26.446 48.417C25.8432 48.0637 25.2627 47.6163 24.7368 47.0897C24.6192 46.9721 24.5274 46.8419 24.4184 46.7198L35.9984 35.1398L37.8614 37.0028L26.446 48.417ZM50.3368 39.7972C48.6378 41.4962 45.6753 41.4962 43.9769 39.7972L34.7216 30.542H36.5846C38.5273 30.542 40.1087 28.9606 40.1087 27.0179V22.3191C40.1087 20.3764 38.5273 18.795 36.5846 18.795H34.7216L43.9769 9.53977C45.6753 7.84083 48.6378 7.84083 50.3368 9.53977L62.2856 21.4886C63.135 22.338 63.6025 23.468 63.6025 24.6685C63.6025 25.869 63.135 26.999 62.2856 27.8484L50.3368 39.7972ZM69.3337 41.1142C68.9815 41.1142 68.6511 40.9765 68.4022 40.7287L60.5648 32.8913L62.4278 31.0284L70.2652 38.8657C70.513 39.1147 70.6506 39.4451 70.6506 39.7972C70.6506 40.5234 70.0599 41.1142 69.3337 41.1142Z" fill="white"/>
<path d="M50.6808 16.4453C46.1467 16.4453 42.458 20.134 42.458 24.6681C42.458 29.2023 46.1467 32.891 50.6808 32.891C55.215 32.891 58.9037 29.2023 58.9037 24.6681C58.9037 20.134 55.215 16.4453 50.6808 16.4453ZM50.6808 30.5416C47.4424 30.5416 44.8074 27.9066 44.8074 24.6681C44.8074 21.4297 47.4424 18.7947 50.6808 18.7947C53.9193 18.7947 56.5543 21.4297 56.5543 24.6681C56.5543 27.9066 53.9193 30.5416 50.6808 30.5416Z" fill="white"/>
<path d="M50.6808 21.1445C48.7381 21.1445 47.1567 22.7259 47.1567 24.6686C47.1567 26.6113 48.7381 28.1927 50.6808 28.1927C52.6235 28.1927 54.2049 26.6113 54.2049 24.6686C54.2049 22.7259 52.6235 21.1445 50.6808 21.1445ZM50.6808 25.8433C50.0332 25.8433 49.5061 25.3156 49.5061 24.6686C49.5061 24.0216 50.0332 23.4939 50.6808 23.4939C51.3278 23.4939 51.8555 24.0216 51.8555 24.6686C51.8555 25.3156 51.3278 25.8433 50.6808 25.8433Z" fill="white"/>
<path d="M33.4041 5.53023L35.0657 3.86914L37.4145 6.21795L35.7534 7.87904L33.4041 5.53023Z" fill="white"/>
</g>
<defs>
<clipPath id="clip0">
<rect width="73" height="73" fill="white"/>
</clipPath>
</defs>
</svg>
