<svg width="66" height="66" viewBox="0 0 66 66" fill="none" xmlns="http://www.w3.org/2000/svg">
<path d="M43.1811 0C30.881 0 20.874 10.007 20.874 22.3071C20.874 25.0416 21.3599 27.6989 22.3192 30.2223L0.989852 51.5532C0.684988 51.8582 0.513672 52.2716 0.513672 52.7027V64.3744C0.513672 65.2722 1.24148 66 2.13931 66H11.7578C12.1885 66 12.6015 65.8292 12.9063 65.5248L16.1477 62.2884C16.4532 61.9834 16.6248 61.5695 16.6248 61.1379V57.1578H20.5998C21.4977 57.1578 22.2255 56.43 22.2255 55.5322V53.9389H23.8189C24.7166 53.9389 25.4445 53.2111 25.4445 52.3133V48.8152H28.9425C29.3736 48.8152 29.787 48.6439 30.092 48.3391L35.2638 43.1672C37.7877 44.1274 40.4453 44.6139 43.1809 44.6139C55.481 44.6139 65.488 34.6069 65.488 22.3068C65.4881 10.007 55.4812 0 43.1811 0ZM43.1811 41.3627C40.5202 41.3627 37.9468 40.8253 35.532 39.7651C34.9075 39.4911 34.2043 39.6419 33.7439 40.0906C33.7389 40.0954 33.734 40.0993 33.7291 40.1043L28.2694 45.564H23.8191C22.9213 45.564 22.1935 46.2918 22.1935 47.1896V50.6876H20.6001C19.7024 50.6876 18.9745 51.4154 18.9745 52.3133V53.9065H14.9993C14.1015 53.9065 13.3736 54.6343 13.3736 55.5322V60.4637L11.0851 62.7486H3.7652V60.4514L23.6349 40.5818C24.2064 40.0103 24.2064 39.084 23.6349 38.5127C23.0635 37.9414 22.1374 37.9411 21.5656 38.5127L3.7652 56.3132V53.3762L25.3823 31.7576C25.3872 31.7527 25.3909 31.7482 25.3954 31.7434C25.8443 31.2834 25.9956 30.5802 25.7215 29.9552C24.6625 27.5406 24.1257 24.9672 24.1257 22.3072C24.1257 11.7998 32.6741 3.2514 43.1815 3.2514C53.6889 3.2514 62.2371 11.7997 62.2371 22.3072C62.2368 32.8144 53.6883 41.3627 43.1811 41.3627Z" fill="white"/>
<path d="M49.969 9.42871C46.6114 9.42871 43.8799 12.1602 43.8799 15.5179C43.8799 18.8755 46.6114 21.607 49.969 21.607C53.3266 21.607 56.0582 18.8755 56.0582 15.5179C56.0582 12.1602 53.3268 9.42871 49.969 9.42871ZM49.969 18.3557C48.4042 18.3557 47.1312 17.0826 47.1312 15.5179C47.1312 13.9531 48.4042 12.68 49.969 12.68C51.5338 12.68 52.8069 13.9531 52.8069 15.5179C52.8069 17.0826 51.5338 18.3557 49.969 18.3557Z" fill="white"/>
</svg>
