<svg width="64" height="64" viewBox="0 0 64 64" fill="none" xmlns="http://www.w3.org/2000/svg">
<g clip-path="url(#clip0)">
<path d="M1.93683 63.9999H10.8524C11.2796 63.9999 11.6527 63.7113 11.7601 63.2982L14.1243 54.1996H39.7435C39.7435 54.1996 37.5047 62.8144 37.5013 62.8266C37.3538 63.3939 37.7933 63.9999 38.409 63.9999H47.3245C47.7518 63.9999 48.1248 63.7113 48.2322 63.2982L62.9754 6.56924C63.7034 3.76602 62.0159 0.892968 59.2132 0.164941C56.4412 -0.555762 53.5291 1.15566 52.8089 3.92715L51.0272 10.7821H46.307C45.7889 10.7821 45.369 11.2021 45.369 11.7196C45.369 12.2377 45.7889 12.6571 46.307 12.6571H50.5399L49.265 17.5619H21.5423C20.1898 17.5619 19.0897 16.4618 19.0897 15.1098C19.0897 13.9267 19.932 12.9364 21.0487 12.7074C21.2078 12.6747 42.5565 12.6571 42.5565 12.6571C43.074 12.6571 43.494 12.2377 43.494 11.7196C43.494 11.2021 43.074 10.7821 42.5565 10.7821H25.408L26.5032 6.56924C27.2318 3.76602 25.5438 0.892968 22.741 0.164941C19.9695 -0.555762 17.057 1.15566 16.3367 3.92715C16.3367 3.92715 1.05402 62.7313 1.02961 62.8261C0.877264 63.4125 1.33283 63.9999 1.93683 63.9999ZM40.2308 52.3246H12.5057C11.1536 52.3246 10.0535 51.2245 10.0535 49.8725C10.0535 48.5199 11.1536 47.4198 12.5057 47.4198H19.8685C20.3861 47.4198 20.806 46.9999 20.806 46.4823C20.806 45.9643 20.3861 45.5448 19.8685 45.5448H16.3738L18.6419 36.8183H44.2606L41.993 45.5448H23.6185C23.1009 45.5448 22.681 45.9643 22.681 46.4823C22.681 46.9999 23.1009 47.4198 23.6185 47.4198H41.5057L40.2308 52.3246ZM46.0228 30.0385L44.7479 34.9433H17.0262C15.6741 34.9433 14.574 33.8432 14.574 32.4911C14.574 31.1386 15.6741 30.0385 17.0262 30.0385H46.0228ZM54.6238 4.39834C55.0848 2.62441 56.9705 1.51894 58.7415 1.97939C60.5433 2.44814 61.6287 4.29531 61.1605 6.09756L46.5994 62.1249H39.6214C39.6214 62.1249 54.6214 4.40713 54.6238 4.39834ZM46.5101 28.1635H20.8909L23.159 19.4374H48.7777L46.5101 28.1635ZM18.1517 4.39834C18.6126 2.62441 20.4979 1.51894 22.2694 1.97939C24.0716 2.44814 25.1566 4.29531 24.6883 6.09756L23.471 10.7821H21.5423C19.3528 10.7821 17.4588 12.4911 17.2371 14.6679C16.9988 17.0043 18.8797 19.2572 21.2244 19.4257L18.9534 28.1635H17.0262C14.64 28.1635 12.699 30.1044 12.6986 32.4906C12.6986 34.7079 14.5018 36.6405 16.7073 36.8065L14.4363 45.5443H12.5057C10.1195 45.5443 8.17853 47.4857 8.17805 49.872C8.17805 52.0971 9.97346 54.0258 12.1903 54.1884L10.1278 62.1244H3.14924C3.14924 62.1249 18.1341 4.46523 18.1517 4.39834Z" fill="white"/>
</g>
<defs>
<clipPath id="clip0">
<rect width="64" height="64" fill="white"/>
</clipPath>
</defs>
</svg>
