<svg width="67" height="67" viewBox="0 0 67 67" fill="none" xmlns="http://www.w3.org/2000/svg">
<path d="M57.7244 48.2775L53.491 47.2191C53.4609 46.7941 53.1809 46.4089 52.7518 46.2659L46.1217 44.0559C45.8737 43.662 45.5445 43.3125 45.1362 43.0403L43.4889 41.942C47.23 38.3479 49.6351 32.786 49.6351 26.554C49.6351 25.6457 49.5294 24.691 49.357 23.7296C49.3811 23.6604 49.3988 23.5878 49.4088 23.5122C49.4159 23.4581 50.1278 18.022 50.525 11.4903C50.6842 8.87453 49.8649 6.31739 48.2182 4.28988C46.5665 2.25629 44.2294 0.937855 41.6371 0.577531C38.8791 0.194343 36.1415 0 33.5001 0C31.3985 0 26.2315 0.345564 22.6604 3.473H22.2561C20.352 3.473 18.5164 4.27194 17.2197 5.66476C15.927 7.05338 15.2634 8.93415 15.3988 10.8249C15.7012 15.0469 16.2671 21.0415 17.2443 25.6228C17.2699 25.7426 17.3158 25.8527 17.3752 25.9523C17.3703 26.1526 17.3651 26.3527 17.3651 26.554C17.3651 32.786 19.7702 38.3479 23.5113 41.942L21.8638 43.0403C21.4556 43.3125 21.1264 43.662 20.8783 44.0559L14.2482 46.2659C13.8192 46.4089 13.5392 46.7942 13.5091 47.2192L9.27562 48.2776C5.17762 49.302 2.31543 52.9678 2.31543 57.1921V63.5994C2.31543 65.4745 3.84095 67 5.71608 67H61.2841C63.1592 67 64.6848 65.4745 64.6848 63.5994V57.1921C64.6848 52.9679 61.8226 49.302 57.7244 48.2775ZM45.3315 53.7823L47.2949 56.7276L43.1798 64.8294H40.3765C40.3565 63.2531 40.4517 59.8274 41.4955 57.0331C41.511 56.9918 41.5229 56.95 41.533 56.9082C41.542 56.8904 41.5509 56.8726 41.5601 56.8545L43.2451 53.4867C44.2597 51.457 45.4778 49.0197 46.2926 47.3887C46.436 47.1017 46.535 46.8029 46.5919 46.5005L51.0424 47.9839L50.02 51.1152L45.9715 52.1273C45.6291 52.2128 45.3497 52.4596 45.2223 52.7888C45.0949 53.1181 45.1357 53.4887 45.3315 53.7823ZM36.79 64.8294L35.846 57.3947C36.4783 56.9976 36.9007 56.2959 36.9007 55.4957V55.0862C37.6217 55.5967 38.407 56.2224 39.2191 56.9811C38.2801 59.9362 38.183 63.2115 38.2038 64.8294H36.79ZM28.8289 64.8294C28.8497 63.2072 28.7521 59.919 27.8061 56.9577C28.6094 56.2095 29.3859 55.5913 30.0994 55.086V55.4957C30.0994 56.2959 30.522 56.9976 31.1542 57.3947L30.2101 64.8294H28.8289ZM33.5 53.1786C33.7681 53.2854 34.1918 53.469 34.7301 53.7504V55.4957C34.7301 55.5356 34.6977 55.568 34.6578 55.568H32.3424C32.3025 55.568 32.2701 55.5356 32.2701 55.4957V53.7502C32.8087 53.4688 33.2325 53.2851 33.5 53.1786ZM33.2987 57.7387H33.7015L34.6019 64.8294H32.3983L33.2987 57.7387ZM44.3508 46.4186C42.3327 50.4575 40.8938 53.3361 40.1254 54.8716C38.2639 53.2348 36.5675 52.2305 35.4037 51.6538L42.8996 44.1579L43.9321 44.8463C44.4471 45.1895 44.6272 45.8655 44.3508 46.4186ZM47.3921 26.6264H43.8467V25.3963C43.8467 24.7969 43.3608 24.311 42.7614 24.311H35.8154C35.216 24.311 34.7301 24.7969 34.7301 25.3963V25.6998C34.3484 25.5512 33.9338 25.4687 33.5001 25.4687C33.0664 25.4687 32.6518 25.5512 32.2701 25.6998V25.3963C32.2701 24.7969 31.7841 24.311 31.1848 24.311H24.2388C23.6394 24.311 23.1534 24.7969 23.1534 25.3963V26.6264H19.6081C19.5839 26.6264 19.5603 26.6284 19.5365 26.63C19.5363 26.6046 19.5357 26.5795 19.5357 26.554C19.5357 22.8082 20.4681 19.2698 22.2392 16.2664C29.0709 18.3924 36.7342 18.3861 44.8318 18.3787L45.5037 18.3784C46.3373 20.4864 47.4645 23.839 47.4645 26.554C47.4645 26.5793 47.4637 26.6046 47.4637 26.63C47.4399 26.6284 47.4163 26.6264 47.3921 26.6264ZM17.5639 10.6696C17.47 9.35887 17.912 8.10671 18.8084 7.14368C19.7089 6.17645 20.9333 5.64363 22.2561 5.64363H23.0811C23.3598 5.64363 23.6278 5.5364 23.8295 5.34423C26.8371 2.47987 31.5944 2.17063 33.5001 2.17063C36.0418 2.17063 38.6791 2.35802 41.3384 2.72761C43.3844 3.01196 45.2293 4.05285 46.5333 5.65839C47.8362 7.26277 48.4844 9.2871 48.3583 11.3586C48.2013 13.9396 47.9948 16.3455 47.8029 18.3082C47.6129 17.8033 47.4218 17.3216 47.2365 16.876C47.0682 16.4713 46.6728 16.2073 46.2344 16.2073L44.8299 16.2081C36.5928 16.2157 28.8111 16.2218 22.1156 13.9437C21.6459 13.7839 21.128 13.9628 20.8571 14.3781C19.8234 15.9624 19.0126 17.6929 18.432 19.5254C18.0248 16.4073 17.7461 13.2135 17.5639 10.6696ZM19.6509 28.797H23.1534V28.8693C23.1534 29.4687 23.6394 29.9546 24.2388 29.9546C24.8381 29.9546 25.3241 29.4687 25.3241 28.8693V26.4816H26.6264V27.7117C26.6264 28.311 27.1124 28.797 27.7118 28.797C28.3111 28.797 28.7971 28.311 28.7971 27.7117V26.4816H30.0994V28.8693C30.0994 29.4687 30.5854 29.9546 31.1848 29.9546C31.7841 29.9546 32.2701 29.4687 32.2701 28.8693C32.2701 28.1911 32.8218 27.6393 33.5001 27.6393C34.1783 27.6393 34.7301 28.1911 34.7301 28.8693C34.7301 29.4687 35.216 29.9546 35.8154 29.9546C36.4148 29.9546 36.9007 29.4687 36.9007 28.8693V26.4816H38.2031V27.7117C38.2031 28.311 38.689 28.797 39.2884 28.797C39.8878 28.797 40.3737 28.311 40.3737 27.7117V26.4816H41.6761V28.8693C41.6761 29.4687 42.1621 29.9546 42.7614 29.9546C43.3608 29.9546 43.8467 29.4687 43.8467 28.8693V28.797H47.3493C46.4651 37.3565 40.5915 43.9914 33.5001 43.9914C26.4087 43.9914 20.5351 37.3565 19.6509 28.797ZM33.5001 46.162C35.4304 46.162 37.2822 45.7474 38.9993 44.9885L33.5001 50.4879L28.0009 44.9887C29.718 45.7474 31.5698 46.162 33.5001 46.162ZM23.0679 44.8463L24.1006 44.1579L31.5965 51.6538C30.4327 52.2305 28.7361 53.2348 26.8748 54.8716C26.0915 53.3061 24.625 50.3721 22.6496 46.4186C22.373 45.8655 22.553 45.1895 23.0679 44.8463ZM20.4085 46.5005C20.4653 46.8029 20.5643 47.1019 20.7077 47.3887C21.5226 49.0197 22.7404 51.457 23.7553 53.4867L25.4403 56.8545C25.4769 56.9274 25.5126 56.9983 25.5495 57.0666C26.5785 59.8471 26.6748 63.2573 26.6558 64.8294H23.821L19.7056 56.7274L21.669 53.7823C21.8648 53.4887 21.9056 53.1181 21.7783 52.7889C21.6509 52.4597 21.3715 52.213 21.0291 52.1274L16.9806 51.1154L15.9581 47.984L20.4085 46.5005ZM4.48606 63.5994V57.1921C4.48606 53.9657 6.67217 51.1657 9.80221 50.3833L14.1067 49.3071L15.1035 52.3594C15.2194 52.7144 15.5097 52.9848 15.872 53.0754L19.0086 53.8596L17.5474 56.0514C17.3301 56.3774 17.3053 56.7955 17.4828 57.1449L21.3863 64.8294H14.9051V61.284C14.9051 60.6846 14.4191 60.1987 13.8197 60.1987C13.2204 60.1987 12.7344 60.6846 12.7344 61.284V64.8294H5.71608C5.03783 64.8294 4.48606 64.2776 4.48606 63.5994ZM62.5141 63.5994C62.5141 64.2776 61.9624 64.8294 61.2841 64.8294H54.2658V61.284C54.2658 60.6846 53.7798 60.1987 53.1804 60.1987C52.5811 60.1987 52.0951 60.6846 52.0951 61.284V64.8294H45.6144L49.5174 57.1448C49.695 56.7953 49.6702 56.3774 49.4528 56.0512L47.9918 53.8596L51.1283 53.0754C51.4907 52.985 51.781 52.7144 51.8969 52.3594L52.8936 49.3069L57.1981 50.383C60.3282 51.1656 62.5143 53.9654 62.5143 57.1918V63.5994H62.5141Z" fill="white"/>
<path d="M28.2591 37.8381C29.5455 38.7134 31.4559 39.2156 33.5003 39.2156C35.5448 39.2156 37.4552 38.7134 38.7415 37.8381C39.2372 37.5008 39.3655 36.8257 39.0282 36.3303C38.6909 35.8346 38.0158 35.7066 37.5204 36.0436C36.5988 36.6706 35.096 37.045 33.5002 37.045C31.9044 37.045 30.4016 36.6706 29.48 36.0436C28.9846 35.7064 28.3095 35.8348 27.9722 36.3303C27.6352 36.8257 27.7635 37.5008 28.2591 37.8381Z" fill="white"/>
</svg>
