<svg width="12" height="12" viewBox="0 0 12 12" fill="none" xmlns="http://www.w3.org/2000/svg">
<path d="M11.4014 10.3577H3.37709C3.04637 10.3577 2.77832 10.0897 2.77832 9.75893C2.77832 9.42821 3.04637 9.16016 3.37709 9.16016H11.4012C11.732 9.16016 12 9.42821 12 9.75893C12 10.0897 11.7322 10.3577 11.4014 10.3577Z" fill="white"/>
<path d="M11.4014 6.59989H3.37709C3.04637 6.59989 2.77832 6.33184 2.77832 6.00112C2.77832 5.67039 3.04637 5.40234 3.37709 5.40234H11.4012C11.732 5.40234 12 5.67039 12 6.00112C12.0002 6.33184 11.7322 6.59989 11.4014 6.59989Z" fill="white"/>
<path d="M11.4014 2.84012H3.37709C3.04637 2.84012 2.77832 2.57207 2.77832 2.24135C2.77832 1.91063 3.04637 1.64258 3.37709 1.64258H11.4012C11.732 1.64258 12 1.91063 12 2.24135C12 2.57207 11.7322 2.84012 11.4014 2.84012Z" fill="white"/>
<path d="M0.804151 3.09268C1.24827 3.09268 1.6083 2.73265 1.6083 2.28853C1.6083 1.84441 1.24827 1.48438 0.804151 1.48438C0.360031 1.48438 0 1.84441 0 2.28853C0 2.73265 0.360031 3.09268 0.804151 3.09268Z" fill="white"/>
<path d="M0.804151 6.80557C1.24827 6.80557 1.6083 6.44554 1.6083 6.00142C1.6083 5.5573 1.24827 5.19727 0.804151 5.19727C0.360031 5.19727 0 5.5573 0 6.00142C0 6.44554 0.360031 6.80557 0.804151 6.80557Z" fill="white"/>
<path d="M0.804151 10.5165C1.24827 10.5165 1.6083 10.1565 1.6083 9.71235C1.6083 9.26823 1.24827 8.9082 0.804151 8.9082C0.360031 8.9082 0 9.26823 0 9.71235C0 10.1565 0.360031 10.5165 0.804151 10.5165Z" fill="white"/>
</svg>
