<svg width="66" height="66" viewBox="0 0 66 66" fill="none" xmlns="http://www.w3.org/2000/svg">
<path d="M9.58033 53.2256C7.23195 53.2256 5.32227 55.1353 5.32227 57.4837C5.32227 59.832 7.23195 61.7417 9.58033 61.7417C11.9287 61.7417 13.8384 59.832 13.8384 57.4837C13.8384 55.1353 11.9287 53.2256 9.58033 53.2256ZM9.58033 59.6127C8.40614 59.6127 7.4513 58.6578 7.4513 57.4837C7.4513 56.3095 8.40614 55.3546 9.58033 55.3546C10.7545 55.3546 11.7094 56.3095 11.7094 57.4837C11.7094 58.6578 10.7545 59.6127 9.58033 59.6127Z" fill="white"/>
<path d="M17.8165 6.3871C16.8674 2.72003 13.5398 0 9.58058 0C4.88486 0 1.06445 3.82041 1.06445 8.51613V57.4839C1.06445 62.1796 4.88486 66 9.58058 66H64.9354V6.3871H17.8165ZM62.8064 18.0968H60.6774V8.51613H62.8064V18.0968ZM24.4838 54.2903V63.871H22.3548V54.2903H24.4838ZM26.6128 54.2903H28.7419V63.871H26.6128V54.2903ZM30.8709 54.2903H32.9999V63.871H30.8709V54.2903ZM35.129 54.2903H37.258V63.871H35.129V54.2903ZM39.387 54.2903H41.5161V63.871H39.387V54.2903ZM43.6451 54.2903H45.7741V63.871H43.6451V54.2903ZM47.9032 54.2903H50.0322V63.871H47.9032V54.2903ZM52.1612 54.2903H54.2903V63.871H52.1612V54.2903ZM56.4193 54.2903H58.5483V63.871H56.4193V54.2903ZM18.0967 52.1613V50.0323H62.8064V52.1613H18.0967ZM6.38703 49.5946V45.4301C7.03416 45.1172 7.75199 44.8978 8.51607 44.7908V49.0421C7.77278 49.1351 7.05859 49.3222 6.38703 49.5946ZM10.6451 44.7897C11.4092 44.8968 12.127 45.1161 12.7741 45.4291V49.5936C12.1026 49.3212 11.3884 49.1336 10.6451 49.04V44.7897ZM14.9032 47.0965C15.5747 47.9386 15.9677 48.9475 15.9677 50.0323V51.8697C15.6418 51.4991 15.2873 51.1555 14.9032 50.8468V47.0965ZM18.0967 47.9032V24.4839H62.8064V47.9032H18.0967ZM18.0967 22.3548V20.2258H62.8064V22.3548H18.0967ZM56.4193 18.0968V8.51613H58.5483V18.0968H56.4193ZM54.2903 18.0968H52.1612V8.51613H54.2903V18.0968ZM50.0322 18.0968H47.9032V8.51613H50.0322V18.0968ZM45.7741 18.0968H43.6451V8.51613H45.7741V18.0968ZM41.5161 18.0968H39.387V8.51613H41.5161V18.0968ZM37.258 18.0968H35.129V8.51613H37.258V18.0968ZM32.9999 18.0968H30.8709V8.51613H32.9999V18.0968ZM28.7419 18.0968H26.6128V8.51613H28.7419V18.0968ZM24.4838 18.0968H22.3548V8.51613H24.4838V18.0968ZM20.2257 8.51613V18.0968H18.0967V8.51613H20.2257ZM15.9677 8.51613V10.2917C15.6418 10.062 15.2883 9.84989 14.9032 9.65965V4.99252C15.5747 6.00402 15.9677 7.21407 15.9677 8.51613ZM6.38703 2.99343C7.03416 2.61763 7.75199 2.35462 8.51607 2.22571V8.56083C7.76966 8.61645 7.05651 8.72924 6.38703 8.89401V2.99343ZM10.6451 2.22467C11.4092 2.35358 12.127 2.61763 12.7741 2.99239V8.89297C12.1047 8.7282 11.3915 8.61489 10.6451 8.55875V2.22467ZM4.258 4.99252V9.65861C3.87284 9.84885 3.51939 10.0609 3.19349 10.2907V8.51613C3.19349 7.21407 3.58644 6.00402 4.258 4.99252ZM9.58058 10.6452C13.3449 10.6452 15.9677 12.3282 15.9677 13.8387V15.3128C14.4063 13.7607 12.1249 12.7742 9.58058 12.7742C7.03624 12.7742 4.75491 13.7607 3.19349 15.3128V13.8387C3.19349 12.3282 5.81631 10.6452 9.58058 10.6452ZM9.58058 14.9032C13.1032 14.9032 15.9677 17.2911 15.9677 20.2258V40.0982C14.4187 39.0051 12.1535 38.3226 9.58058 38.3226C7.00766 38.3226 4.74244 39.0051 3.19349 40.0982V20.2258C3.19349 17.2911 6.05801 14.9032 9.58058 14.9032ZM9.58058 40.4516C13.3449 40.4516 15.9677 42.1347 15.9677 43.6452V45.1193C14.4063 43.5672 12.1249 42.5806 9.58058 42.5806C7.03624 42.5806 4.75491 43.5672 3.19349 45.1193V43.6452C3.19349 42.1347 5.81631 40.4516 9.58058 40.4516ZM3.19349 50.0323C3.19349 48.9475 3.58644 47.9386 4.258 47.0965V50.8468C3.87388 51.1555 3.51939 51.5001 3.19349 51.8697V50.0323ZM3.19349 57.4839C3.19349 53.9613 6.05801 51.0968 9.58058 51.0968C13.1032 51.0968 15.9677 53.9613 15.9677 57.4839C15.9677 61.0064 13.1032 63.871 9.58058 63.871C6.05801 63.871 3.19349 61.0064 3.19349 57.4839ZM18.0967 57.4839V54.2903H20.2257V63.871H15.1948C16.9693 62.3095 18.0967 60.0282 18.0967 57.4839ZM60.6774 63.871V54.2903H62.8064V63.871H60.6774Z" fill="white"/>
</svg>
