<svg width="68" height="68" viewBox="0 0 68 68" fill="none" xmlns="http://www.w3.org/2000/svg">
<path d="M64.7626 4.22461H53.668C53.1177 4.22461 52.6719 4.67046 52.6719 5.2207C52.6719 5.77094 53.1177 6.21679 53.668 6.21679H64.7626C65.4491 6.21679 66.0077 6.7754 66.0077 7.46217V44.6553H16.2695V6.21679H49.1287C49.679 6.21679 50.1248 5.77094 50.1248 5.2207C50.1248 4.67046 49.679 4.22461 49.1287 4.22461H3.23743C1.4523 4.22461 0 5.67691 0 7.46217V50.3284C0 52.7142 1.94092 54.6552 4.32676 54.6552H17.9178C18.4681 54.6552 18.9139 54.2093 18.9139 53.6591C18.9139 53.1088 18.4681 52.663 17.9178 52.663H4.32676C3.03954 52.663 1.99218 51.6156 1.99218 50.3284V46.6475H66.0077V50.3284C66.0077 51.6156 64.9603 52.663 63.6731 52.663H22.4571C21.9068 52.663 21.461 53.1088 21.461 53.6591C21.461 54.2093 21.9068 54.6552 22.4571 54.6552H28.3514C28.3079 54.7832 28.2634 54.9099 28.2166 55.0334C27.4778 56.9873 26.3735 58.3305 24.935 59.0251C24.0728 59.4404 23.5371 60.2829 23.5371 61.224V61.3462C23.5371 62.6858 24.6274 63.7755 25.9676 63.7755H33.5899C34.1402 63.7755 34.586 63.3297 34.586 62.7794C34.586 62.2292 34.1402 61.7833 33.5899 61.7833H25.9675C25.7259 61.7833 25.5292 61.5872 25.5292 61.3462V61.224C25.5292 61.0551 25.6326 60.9003 25.8002 60.8195C27.7147 59.8951 29.1547 58.1856 30.08 55.7382C30.2115 55.3909 30.3317 55.0277 30.4396 54.6553H37.5618C37.6699 55.0281 37.7901 55.3913 37.9213 55.738C38.847 58.1862 40.2871 59.8959 42.2012 60.8195C42.3676 60.8999 42.471 61.0548 42.471 61.224V61.3462C42.471 61.5872 42.2749 61.7833 42.034 61.7833H38.1292C37.579 61.7833 37.1331 62.2292 37.1331 62.7794C37.1331 63.3297 37.579 63.7755 38.1292 63.7755H42.034C43.3734 63.7755 44.4632 62.6858 44.4632 61.3462V61.224C44.4632 60.2837 43.9283 59.4412 43.067 59.0253C41.6281 58.331 40.5238 56.988 39.7847 55.0331C39.7381 54.9099 39.6935 54.7832 39.65 54.6552H63.6732C66.0591 54.6552 68 52.7142 68 50.3284V7.46217C67.9999 5.67691 66.5476 4.22461 64.7626 4.22461ZM14.2773 44.6553H1.99218V7.46217C1.99218 6.7754 2.55079 6.21679 3.23743 6.21679H14.2773V44.6553Z" fill="white"/>
<path d="M61.4803 11.1685H57.078C56.0743 11.1685 55.2578 11.985 55.2578 12.9888V40.0578C55.2578 40.608 55.7037 41.0539 56.2539 41.0539H62.3044C62.8547 41.0539 63.3005 40.608 63.3005 40.0578V12.9888C63.3005 11.985 62.484 11.1685 61.4803 11.1685ZM61.3085 39.0617H57.25V16.6901H61.3085V39.0617ZM61.3085 14.6979H57.25V13.1606H61.3085V14.6979Z" fill="white"/>
<path d="M59.5989 18.0513H58.957C58.4068 18.0513 57.9609 18.4971 57.9609 19.0474C57.9609 19.5976 58.4068 20.0435 58.957 20.0435H59.5989C60.1492 20.0435 60.595 19.5976 60.595 19.0474C60.595 18.4971 60.1492 18.0513 59.5989 18.0513Z" fill="white"/>
<path d="M59.5989 21.4883H58.957C58.4068 21.4883 57.9609 21.9341 57.9609 22.4844C57.9609 23.0346 58.4068 23.4805 58.957 23.4805H59.5989C60.1492 23.4805 60.595 23.0346 60.595 22.4844C60.595 21.9341 60.1492 21.4883 59.5989 21.4883Z" fill="white"/>
<path d="M59.5989 24.9253H58.957C58.4068 24.9253 57.9609 25.3711 57.9609 25.9214C57.9609 26.4716 58.4068 26.9175 58.957 26.9175H59.5989C60.1492 26.9175 60.595 26.4716 60.595 25.9214C60.595 25.3711 60.1492 24.9253 59.5989 24.9253Z" fill="white"/>
<path d="M59.5989 28.3623H58.957C58.4068 28.3623 57.9609 28.8082 57.9609 29.3584C57.9609 29.9086 58.4068 30.3545 58.957 30.3545H59.5989C60.1492 30.3545 60.595 29.9086 60.595 29.3584C60.595 28.8082 60.1492 28.3623 59.5989 28.3623Z" fill="white"/>
<path d="M59.5989 31.7993H58.957C58.4068 31.7993 57.9609 32.2452 57.9609 32.7954C57.9609 33.3456 58.4068 33.7915 58.957 33.7915H59.5989C60.1492 33.7915 60.595 33.3456 60.595 32.7954C60.595 32.2452 60.1492 31.7993 59.5989 31.7993Z" fill="white"/>
<path d="M59.5989 35.2363H58.957C58.4068 35.2363 57.9609 35.6822 57.9609 36.2324C57.9609 36.7827 58.4068 37.2285 58.957 37.2285H59.5989C60.1492 37.2285 60.595 36.7827 60.595 36.2324C60.595 35.6822 60.1492 35.2363 59.5989 35.2363Z" fill="white"/>
<path d="M6.83394 12.5479H5.4414C4.89116 12.5479 4.44531 12.9937 4.44531 13.5439C4.44531 14.0942 4.89116 14.54 5.4414 14.54H6.83394C7.38418 14.54 7.83003 14.0942 7.83003 13.5439C7.83003 12.9937 7.38418 12.5479 6.83394 12.5479Z" fill="white"/>
<path d="M10.8268 16.0679H5.4414C4.89116 16.0679 4.44531 16.5137 4.44531 17.064C4.44531 17.6142 4.89116 18.06 5.4414 18.06H10.8268C11.3771 18.06 11.8229 17.6142 11.8229 17.064C11.8229 16.5137 11.3771 16.0679 10.8268 16.0679Z" fill="white"/>
<path d="M10.8267 18.4971H5.4414C4.89116 18.4971 4.44531 18.9429 4.44531 19.4932C4.44531 20.0434 4.89116 20.4893 5.4414 20.4893H10.8268C11.3771 20.4893 11.8229 20.0434 11.8229 19.4932C11.8229 18.9429 11.3769 18.4971 10.8267 18.4971Z" fill="white"/>
<path d="M10.8267 20.9258H5.4414C4.89116 20.9258 4.44531 21.3716 4.44531 21.9219C4.44531 22.4721 4.89116 22.918 5.4414 22.918H10.8268C11.3771 22.918 11.8229 22.4721 11.8229 21.9219C11.8229 21.3716 11.3769 20.9258 10.8267 20.9258Z" fill="white"/>
<path d="M6.83394 27.354H5.4414C4.89116 27.354 4.44531 27.7999 4.44531 28.3501C4.44531 28.9003 4.89116 29.3462 5.4414 29.3462H6.83394C7.38418 29.3462 7.83003 28.9003 7.83003 28.3501C7.83003 27.7999 7.38418 27.354 6.83394 27.354Z" fill="white"/>
<path d="M10.8267 30.874H5.4414C4.89116 30.874 4.44531 31.3199 4.44531 31.8701C4.44531 32.4204 4.89116 32.8662 5.4414 32.8662H10.8268C11.3771 32.8662 11.8229 32.4204 11.8229 31.8701C11.8229 31.3199 11.3769 30.874 10.8267 30.874Z" fill="white"/>
<path d="M10.8267 33.3027H5.4414C4.89116 33.3027 4.44531 33.7486 4.44531 34.2988C4.44531 34.8491 4.89116 35.2949 5.4414 35.2949H10.8268C11.3771 35.2949 11.8229 34.8491 11.8229 34.2988C11.8229 33.7486 11.3769 33.3027 10.8267 33.3027Z" fill="white"/>
<path d="M10.8267 35.7319H5.4414C4.89116 35.7319 4.44531 36.1778 4.44531 36.728C4.44531 37.2783 4.89116 37.7241 5.4414 37.7241H10.8268C11.3771 37.7241 11.8229 37.2783 11.8229 36.728C11.8229 36.1778 11.3769 35.7319 10.8267 35.7319Z" fill="white"/>
<path d="M51.5077 24.781L46.5291 21.761C46.5266 21.7594 46.5241 21.7578 46.5215 21.7564L41.284 18.5794C41.2836 18.5791 41.2832 18.5788 41.2828 18.5786L36.3275 15.5728C36.01 15.38 35.6118 15.38 35.2944 15.5728L30.3397 18.5783C30.3386 18.5788 30.3377 18.5795 30.3366 18.5802L25.1012 21.756C25.098 21.7578 25.0948 21.7599 25.0916 21.7618L20.1142 24.781C19.8166 24.9615 19.6348 25.2845 19.6348 25.6326C19.6348 25.9807 19.8166 26.3037 20.1142 26.4842L35.2944 35.6924C35.4531 35.7888 35.632 35.8368 35.811 35.8368C35.9901 35.8368 36.1688 35.7888 36.3277 35.6924L51.5077 26.4842C51.8054 26.3037 51.9872 25.9807 51.9872 25.6326C51.9872 25.2845 51.8054 24.9615 51.5077 24.781ZM44.1009 22.618L41.0519 24.4676L37.7315 22.4535L40.7806 20.6039L44.1009 22.618ZM39.1312 25.6325L35.8109 27.6466L32.4906 25.6325L35.8109 23.6184L39.1312 25.6325ZM35.811 17.5894L38.8601 19.4389L35.811 21.2885L32.7619 19.4389L35.811 17.5894ZM30.8413 20.6039L33.8904 22.4535L30.5701 24.4675L27.5212 22.6179L30.8413 20.6039ZM22.5515 25.6325L25.6006 23.7829L28.6497 25.6325L25.6006 27.482L22.5515 25.6325ZM27.521 28.6469L30.5701 26.7974L33.8904 28.8115L30.8413 30.661L27.521 28.6469ZM35.811 33.6756L32.7619 31.8261L35.811 29.9765L38.8601 31.8261L35.811 33.6756ZM40.7806 30.661L37.7315 28.8115L41.0518 26.7974L44.1009 28.6469L40.7806 30.661ZM46.0214 27.482L42.9723 25.6325L46.0212 23.7829L49.0703 25.6325L46.0214 27.482Z" fill="white"/>
<path d="M43.8632 33.5889H42.9648C42.4146 33.5889 41.9688 34.0347 41.9688 34.585C41.9688 35.1352 42.4146 35.581 42.9648 35.581H43.8632C44.4134 35.581 44.8593 35.1352 44.8593 34.585C44.8593 34.0347 44.4134 33.5889 43.8632 33.5889Z" fill="white"/>
<path d="M48.6094 36.145H42.9648C42.4146 36.145 41.9688 36.5909 41.9688 37.1411C41.9688 37.6914 42.4146 38.1372 42.9648 38.1372H48.6094C49.1596 38.1372 49.6055 37.6914 49.6055 37.1411C49.6055 36.5909 49.1596 36.145 48.6094 36.145Z" fill="white"/>
</svg>
