<svg width="73" height="73" viewBox="0 0 73 73" fill="none" xmlns="http://www.w3.org/2000/svg">
<g clip-path="url(#clip0)">
<path d="M19.0503 47.374C18.0069 46.5496 16.6991 46.0955 15.368 46.0955C13.5589 46.0955 11.8743 46.8993 10.746 48.3011C9.75937 49.5283 9.31267 51.0636 9.48875 52.6238C9.66505 54.1874 10.445 55.5879 11.6848 56.5678C12.7282 57.3925 14.0355 57.8466 15.3664 57.8466C17.1768 57.8466 18.8617 57.0412 19.9891 55.638C20.9748 54.4128 21.4211 52.8794 21.2457 51.3198C21.0698 49.7562 20.2903 48.3548 19.0503 47.374ZM17.8886 53.9493C17.275 54.7133 16.3555 55.1517 15.3664 55.1517C14.6291 55.1517 13.9338 54.9103 13.3561 54.4537C12.6844 53.9228 12.2622 53.1657 12.1667 52.3217C12.072 51.4811 12.3132 50.6528 12.8457 49.9907C13.4595 49.228 14.3789 48.7905 15.368 48.7905C16.106 48.7905 16.8015 49.0319 17.379 49.4883C18.0505 50.0192 18.4725 50.7768 18.5675 51.6212C18.662 52.4612 18.4213 53.2877 17.8886 53.9493Z" fill="white"/>
<path d="M42.7457 33.5721C43.6346 33.5721 44.4941 33.3773 45.3024 32.9922C46.7312 32.3085 47.8045 31.1126 48.324 29.6245C48.8407 28.1458 48.7478 26.5546 48.0628 25.1453C47.0829 23.1254 44.9902 21.8201 42.7315 21.8201C41.8408 21.8201 40.9795 22.0155 40.1714 22.4011C38.7431 23.0825 37.6693 24.2775 37.1489 25.7661C36.6313 27.2459 36.724 28.8373 37.4101 30.2473C38.3931 32.267 40.4874 33.5721 42.7457 33.5721ZM39.6926 26.6557C39.9742 25.8505 40.5564 25.2033 41.3317 24.8334C41.7745 24.6222 42.2453 24.5151 42.7313 24.5151C43.9645 24.5151 45.1054 25.2241 45.6381 26.3226C46.0076 27.0826 46.0577 27.9394 45.7796 28.7358C45.4982 29.5414 44.9154 30.1895 44.141 30.5601C43.6997 30.7706 43.2301 30.877 42.7454 30.877C41.5111 30.877 40.3679 30.1669 39.833 29.068C39.464 28.3091 39.4141 27.4525 39.6926 26.6557Z" fill="white"/>
<path d="M28.0809 24.0487C28.5144 24.1467 28.958 24.1963 29.3993 24.1963C32.1734 24.1963 34.5435 22.3201 35.1633 19.6311C35.5117 18.1064 35.2437 16.5367 34.4096 15.2108C33.5685 13.8745 32.254 12.9456 30.7093 12.5957C30.274 12.4968 29.8287 12.4465 29.3853 12.4465C26.613 12.4465 24.2454 14.3248 23.6276 17.0133C23.2763 18.5369 23.5425 20.1068 24.3768 21.4336C25.2186 22.7717 26.5344 23.7006 28.0809 24.0487ZM26.2541 17.6179C26.589 16.1601 27.8768 15.1418 29.3853 15.1418C29.6277 15.1418 29.8723 15.1694 30.1128 15.224C30.9554 15.4149 31.6712 15.92 32.1285 16.6463C32.579 17.3621 32.7236 18.2088 32.5363 19.0281C32.2059 20.4612 30.8865 21.5012 29.399 21.5012C29.1574 21.5012 28.9137 21.4738 28.6739 21.4197C27.831 21.2299 27.1152 20.7253 26.6582 19.999C26.2086 19.2837 26.065 18.4383 26.2541 17.6179Z" fill="white"/>
<path d="M17.3737 27.4106C18.6121 26.4294 19.3907 25.0277 19.5668 23.4639C19.7422 21.9048 19.2968 20.3714 18.3107 19.144C17.1805 17.7428 15.4946 16.9392 13.6855 16.9392C12.3557 16.9392 11.0493 17.392 10.0056 18.2151C8.76703 19.1934 7.98794 20.5928 7.81119 22.1555C7.63466 23.7166 8.08114 25.2528 9.0691 26.4822C10.1983 27.8849 11.8845 28.6896 13.6956 28.6896C15.0265 28.6894 16.3329 28.2353 17.3737 27.4106ZM11.1694 24.7926C10.6358 24.1287 10.3944 23.2995 10.4896 22.4578C10.5848 21.6149 11.0066 20.8589 11.6759 20.33C12.2533 19.8746 12.9484 19.6338 13.6857 19.6338C14.6757 19.6338 15.5972 20.0718 16.2114 20.8333C16.7426 21.495 16.9833 22.3221 16.8888 23.1623C16.7938 24.0077 16.3716 24.7663 15.7003 25.2981C15.1256 25.7534 14.4323 25.9941 13.6958 25.9941C12.7047 25.9944 11.7839 25.556 11.1694 24.7926Z" fill="white"/>
<path d="M72.4846 14.2243C72.2517 13.9894 71.8362 13.7094 71.1806 13.7094C70.4118 13.7094 68.3697 13.7094 55.967 24.2632C55.7177 24.4752 55.4662 24.6901 55.2138 24.9066C52.9978 19.126 49.1043 13.9724 44.0872 10.2447C38.3347 5.97052 31.4847 3.71005 24.2786 3.70825C24.2764 3.70825 24.2748 3.70825 24.273 3.70825C19.4098 3.70825 13.4982 5.40748 8.84449 8.14364C3.13996 11.4972 -0.00112264 15.9822 3.00984e-07 20.772C0.001797 26.5547 3.26326 28.9735 5.88397 30.9168C8.02093 32.5017 9.7087 33.7534 9.7096 36.4965C9.71028 39.2394 8.0234 40.4899 5.88757 42.0732C3.26775 44.0155 0.00696252 46.4329 0.00875922 52.2163C0.0101067 57.0054 3.15321 61.4915 8.85886 64.848C13.5159 67.5875 19.4307 69.2903 24.2948 69.2917C24.2981 69.2917 24.3011 69.2917 24.3042 69.2917C33.1316 69.2917 41.4299 65.8845 47.6712 59.6973C53.833 53.5892 57.26 45.493 57.35 36.8655C59.4423 34.4846 61.4692 32.1182 63.3196 29.8882C66.4854 26.0734 68.9197 22.9256 70.5549 20.5326C72.7213 17.363 73.6699 15.4189 72.4846 14.2243ZM45.7741 57.7834C40.0406 63.4672 32.4168 66.5966 24.3044 66.5966C24.302 66.5966 24.2984 66.5966 24.2959 66.5966C15.6028 66.5942 2.70628 60.5546 2.70381 52.2154C2.70246 47.7894 5.02919 46.0644 7.4927 44.238C9.79539 42.5307 12.4053 40.5957 12.4044 36.4956C12.4031 32.3962 9.79247 30.46 7.4891 28.752C5.02448 26.9241 2.6964 25.1977 2.69505 20.7713C2.69393 15.6505 7.40309 12.1173 10.2104 10.4668C14.4098 7.99788 19.929 6.40308 24.273 6.40308C24.2746 6.40308 24.2764 6.40308 24.2777 6.40308C30.901 6.40488 37.1953 8.48142 42.4801 12.4077C47.3541 16.0291 51.0746 21.1129 53.0344 26.7923C47.1895 31.8958 40.8601 37.78 36.1465 42.5089C28.3176 43.5223 27.251 48.7399 26.4713 52.5729C25.8074 55.8366 25.3764 57.4146 22.8572 57.6167C22.2364 57.6666 21.7309 58.1351 21.6341 58.7502C21.5371 59.3651 21.8742 59.9666 22.4496 60.2049C22.6115 60.2718 26.4645 61.8462 30.9662 61.8464C30.9668 61.8464 30.9673 61.8464 30.9677 61.8464C34.1048 61.8464 36.7958 61.0859 38.9657 59.5864C41.6397 57.7385 43.4528 54.8087 44.3639 50.8798C47.4437 47.7638 50.9628 44.0065 54.4425 40.1362C53.6417 46.7997 50.6346 52.9651 45.7741 57.7834ZM41.6565 50.6246C40.2286 56.2833 36.6356 59.1518 30.9675 59.1516C30.9675 59.1516 30.9666 59.1516 30.9662 59.1516C29.4715 59.1516 28.0402 58.9476 26.8369 58.6934C28.2742 57.2275 28.7232 55.0216 29.112 53.1106C29.8524 49.4705 30.5527 46.0255 36.2815 45.2071L41.6565 50.6246ZM60.265 29.3427C54.9232 35.7068 48.4573 42.8537 43.1345 48.2876L42.3105 47.4571L38.6747 43.7924C43.5006 38.9885 49.6916 33.2604 55.4678 28.2474C56.1411 27.663 56.8101 27.086 57.4695 26.5237C64.1728 20.8068 67.6858 18.3188 69.4778 17.2361C68.4076 19.0388 65.9426 22.5786 60.265 29.3427Z" fill="white"/>
</g>
<defs>
<clipPath id="clip0">
<rect width="73" height="73" fill="white"/>
</clipPath>
</defs>
</svg>
