<svg width="67" height="67" viewBox="0 0 67 67" fill="none" xmlns="http://www.w3.org/2000/svg">
<path d="M65.8086 67H1.1914C0.53327 67 0 66.4667 0 65.8086V1.1914C0 0.53327 0.53327 0 1.1914 0H65.8086C66.4667 0 67 0.53327 67 1.1914V65.8086C67 66.4667 66.4667 67 65.8086 67ZM50.095 64.6172H64.6172V50.095L51.1468 63.5654C51.1449 63.5673 51.143 63.5697 51.1406 63.5716C51.1387 63.5735 51.1363 63.5759 51.1344 63.5778L50.095 64.6172ZM31.5492 64.6172H46.7257L48.6139 62.7291L41.0256 55.1408L31.5492 64.6172ZM14.2344 64.6172H28.1794L48.8917 43.905L41.9191 36.9324L19.9264 58.9252L14.2344 64.6172ZM2.3828 64.6172H10.8646L17.3992 58.0826L10.0783 50.7617L2.3828 58.4572V64.6172ZM42.7102 53.4557L50.2985 61.044L64.6172 46.7252V31.5492L51.4189 44.7475L42.7102 53.4557ZM11.7634 49.0766L19.0838 56.3975L55.6231 19.8582L48.3022 12.5373L33.9773 26.8627C33.9758 26.8637 33.9749 26.8646 33.9739 26.8656L11.7634 49.0766ZM2.3828 39.0822V55.087L9.22334 48.2459C9.22762 48.2421 9.23144 48.2378 9.23525 48.234C9.23906 48.2297 9.24335 48.2259 9.24716 48.2221L31.4463 26.0225L23.6111 18.1874L2.3828 39.0822ZM43.6038 35.2473L50.5763 42.2199L64.5824 28.2142C64.5939 28.2028 64.6058 28.1914 64.6172 28.1804V14.2339L43.6038 35.2473ZM2.3828 19.6381V35.7386L11.8177 26.4519L3.73289 18.3666L2.3828 19.6381ZM5.46805 16.732L13.5162 24.7801L36.1909 2.46191H20.6184L5.46805 16.732ZM25.3091 16.5157L33.1314 24.3379L55.087 2.3828H39.6679L25.3091 16.5157ZM49.9868 10.8527L57.3077 18.1736L64.6172 10.8641V2.3828H58.4567L49.9868 10.8527ZM2.3828 2.3828V16.3651L2.82838 15.9457C2.85364 15.9152 2.87985 15.8861 2.90844 15.8575C2.95419 15.8118 3.0028 15.7703 3.05379 15.7336L17.2267 2.3828H2.3828Z" fill="white"/>
</svg>
