<svg width="65" height="65" viewBox="0 0 65 65" fill="none" xmlns="http://www.w3.org/2000/svg">
<path d="M9.01367 42.2179V54.082C9.01367 55.1339 9.86614 55.9863 10.918 55.9863H22.7821L31.1467 64.4357C31.5042 64.7967 31.9917 65 32.5 65C33.0083 65 33.4958 64.7967 33.8533 64.4357L42.2179 55.9863H54.082C55.1339 55.9863 55.9863 55.1339 55.9863 54.082V42.2179L64.4357 33.8533C64.7967 33.4958 65 33.0083 65 32.5C65 31.9917 64.7967 31.5042 64.4357 31.1467L55.9863 22.7821V10.918C55.9863 9.86614 55.1339 9.01367 54.082 9.01367H42.2179L33.8533 0.564346C33.4958 0.203323 33.0083 0 32.5 0C31.9917 0 31.5042 0.203323 31.1467 0.564346L22.7821 9.01367H10.918C9.86614 9.01367 9.01367 9.86614 9.01367 10.918V22.7821L0.564346 31.1467C0.203323 31.5042 0 31.9917 0 32.5C0 33.0083 0.203323 33.4958 0.564346 33.8533L9.01367 42.2179ZM12.8223 52.1777V45.9883L13.2259 46.388C14.2589 47.421 15.5924 47.9749 16.9473 48.0498C17.0236 49.4572 17.6073 50.7693 18.6056 51.7671L19.0117 52.1777H12.8223ZM21.3118 15.9123L24.371 12.8223H28.6914C29.7412 12.8223 30.5957 13.6931 30.5957 14.7638V20.2852L27.9024 22.9785H25.6718L21.3053 18.612C20.5629 17.8696 20.5629 16.6616 21.3118 15.9123ZM43.6947 15.9192C44.4376 16.6616 44.4376 17.8696 43.6947 18.612L39.3282 22.9785H37.0976L34.4043 20.2852V14.7638C34.4043 13.6931 35.2588 12.8223 36.3086 12.8223H40.629L43.6947 15.9192ZM43.6882 49.0877L40.629 52.1777H36.3086C35.2588 52.1777 34.4043 51.3069 34.4043 50.2362V44.7148L37.0976 42.0215H39.3282L43.6947 46.388C44.0547 46.7475 44.2526 47.2256 44.2526 47.7344C44.2526 48.2432 44.0547 48.7212 43.6882 49.0877ZM21.3053 49.0808C20.9453 48.7212 20.7474 48.2432 20.7474 47.7344C20.7474 47.2256 20.9453 46.7475 21.3053 46.388L25.6718 42.0215H27.9024L30.5957 44.7148V50.2357C30.5957 51.3064 29.7412 52.1777 28.6914 52.1777H24.371L21.3053 49.0808ZM32.5 23.7675L34.9622 26.2292C35.3193 26.5868 35.8033 26.7871 36.3086 26.7871H38.2129V28.6914C38.2129 29.1962 38.4132 29.6807 38.7708 30.0378L41.2325 32.5L38.7708 34.9622C38.4132 35.3193 38.2129 35.8038 38.2129 36.3086V38.2129H36.3086C35.8033 38.2129 35.3193 38.4132 34.9622 38.7708L32.5 41.2325L30.0378 38.7708C29.6807 38.4132 29.1967 38.2129 28.6914 38.2129H26.7871V36.3086C26.7871 35.8038 26.5868 35.3193 26.2292 34.9622L23.7675 32.5L26.2292 30.0378C26.5868 29.6807 26.7871 29.1962 26.7871 28.6914V26.7871H28.6914C29.1967 26.7871 29.6807 26.5868 30.0378 26.2292L32.5 23.7675ZM42.0215 39.3282V37.0976L44.7148 34.4043H50.2362C51.3069 34.4043 52.1777 35.2588 52.1777 36.3086V40.629L49.0808 43.6947C48.3384 44.4371 47.1304 44.4371 46.388 43.6947L42.0215 39.3282ZM52.1777 28.6914C52.1777 29.7412 51.3069 30.5957 50.2362 30.5957H44.7148L42.0215 27.9024V25.6718L46.388 21.3053C47.1304 20.5629 48.3384 20.5629 49.0877 21.3118L52.1777 24.371V28.6914ZM22.9785 25.6718V27.9024L20.2852 30.5957H14.7638C13.6931 30.5957 12.8223 29.7412 12.8223 28.6914V24.371L15.9192 21.3053C16.6616 20.5629 17.8696 20.5629 18.612 21.3053L22.9785 25.6718ZM12.8223 36.3086C12.8223 35.2588 13.6931 34.4043 14.7638 34.4043H20.2852L22.9785 37.0976V39.3282L18.612 43.6947C17.8696 44.4371 16.6616 44.4371 15.9123 43.6882L12.8223 40.629V36.3086ZM32.5 60.389L28.1414 55.9863H28.6914C30.1534 55.9863 31.4883 55.4299 32.5 54.5174C33.5117 55.4299 34.8466 55.9863 36.3086 55.9863H36.8586L32.5 60.389ZM52.1777 52.1777H45.9883L46.388 51.7741C47.3922 50.7698 47.9764 49.4577 48.0527 48.0508C49.4061 47.9764 50.7376 47.4239 51.7671 46.3944L52.1777 45.9883V52.1777ZM60.389 32.5L55.9863 36.8586V36.3086C55.9863 34.8466 55.4299 33.5117 54.5174 32.5C55.4299 31.4883 55.9863 30.1534 55.9863 28.6914V28.1414L60.389 32.5ZM52.1777 12.8223V19.0117L51.7741 18.612C50.7703 17.6083 49.4587 17.0241 48.0527 16.9473C47.9759 15.5408 47.3922 14.2302 46.3944 13.2329L45.9883 12.8223H52.1777ZM32.5 4.61098L36.8586 9.01367H36.3086C34.8466 9.01367 33.5117 9.56909 32.5 10.4816C31.4883 9.56909 30.1534 9.01367 28.6914 9.01367H28.1414L32.5 4.61098ZM12.8223 12.8223H19.0117L18.612 13.2259C17.6083 14.2297 17.0241 15.5408 16.9477 16.9473C15.5413 17.0241 14.2302 17.6078 13.2329 18.6056L12.8223 19.0117V12.8223ZM9.01367 28.1414V28.6914C9.01367 30.1534 9.57008 31.4883 10.4826 32.5C9.57008 33.5117 9.01367 34.8466 9.01367 36.3086V36.8586L4.61098 32.5L9.01367 28.1414Z" fill="white"/>
</svg>
