<svg width="18" height="18" viewBox="0 0 18 18" fill="none" xmlns="http://www.w3.org/2000/svg">
<g clip-path="url(#clip0)">
<path d="M14.2264 11.1502C13.8579 10.7665 13.4134 10.5614 12.9423 10.5614C12.4751 10.5614 12.0268 10.7627 11.6431 11.1464L10.4426 12.3431C10.3438 12.2899 10.245 12.2405 10.1501 12.1911C10.0133 12.1228 9.88412 12.0582 9.77395 11.9898C8.64944 11.2756 7.6275 10.3448 6.64736 9.14053C6.17248 8.54029 5.85336 8.03502 5.62162 7.52215C5.93314 7.23722 6.22187 6.9409 6.50299 6.65597C6.60937 6.5496 6.71574 6.43943 6.82211 6.33305C7.61991 5.53526 7.61991 4.50193 6.82211 3.70413L5.78498 2.667C5.66721 2.54923 5.54564 2.42766 5.43167 2.30609C5.20373 2.07055 4.96439 1.82741 4.71745 1.59947C4.34895 1.23477 3.90826 1.04102 3.44478 1.04102C2.9813 1.04102 2.53301 1.23477 2.15311 1.59947C2.14931 1.60327 2.14931 1.60327 2.14551 1.60707L0.853845 2.91014C0.36757 3.39641 0.0902413 3.98906 0.0294569 4.67668C-0.0617197 5.786 0.264996 6.81933 0.515732 7.49556C1.13117 9.15573 2.05054 10.6943 3.42198 12.3431C5.08596 14.33 7.08804 15.899 9.37505 17.0045C10.2488 17.4186 11.4151 17.9087 12.7182 17.9923C12.798 17.9961 12.8816 17.9999 12.9575 17.9999C13.8351 17.9999 14.5721 17.6845 15.1496 17.0577C15.1534 17.0501 15.161 17.0463 15.1648 17.0387C15.3623 16.7994 15.5903 16.5828 15.8296 16.3511C15.993 16.1953 16.1601 16.032 16.3235 15.861C16.6996 15.4697 16.8971 15.0138 16.8971 14.5465C16.8971 14.0755 16.6958 13.6234 16.3121 13.2435L14.2264 11.1502ZM15.5865 15.1506C15.5827 15.1506 15.5827 15.1544 15.5865 15.1506C15.4383 15.3101 15.2863 15.4545 15.123 15.6141C14.876 15.8496 14.6253 16.0965 14.3898 16.3739C14.0061 16.7842 13.554 16.9779 12.9613 16.9779C12.9043 16.9779 12.8436 16.9779 12.7866 16.9741C11.6583 16.9019 10.6097 16.4613 9.82334 16.0851C7.67309 15.0442 5.78498 13.5664 4.21598 11.6935C2.92051 10.1321 2.05434 8.68845 1.48068 7.13845C1.12737 6.19249 0.998208 5.45548 1.05519 4.76026C1.09318 4.31577 1.26414 3.94727 1.57946 3.63195L2.87493 2.33648C3.06108 2.16173 3.25863 2.06675 3.45238 2.06675C3.69172 2.06675 3.88547 2.21111 4.00703 2.33268C4.01083 2.33648 4.01463 2.34028 4.01843 2.34408C4.25017 2.56062 4.47052 2.78477 4.70226 3.02411C4.82003 3.14567 4.94159 3.26724 5.06316 3.39261L6.1003 4.42974C6.50299 4.83244 6.50299 5.20475 6.1003 5.60744C5.99012 5.71761 5.88375 5.82778 5.77358 5.93416C5.45446 6.26087 5.15054 6.5648 4.82003 6.86112C4.81243 6.86872 4.80483 6.87252 4.80103 6.88011C4.47431 7.20683 4.5351 7.52595 4.60348 7.74249C4.60728 7.75389 4.61108 7.76529 4.61488 7.77668C4.88461 8.43012 5.26451 9.04556 5.84196 9.77877L5.84576 9.78257C6.89429 11.0742 7.99981 12.081 9.21929 12.8522C9.37506 12.951 9.53461 13.0307 9.68657 13.1067C9.82334 13.1751 9.95251 13.2397 10.0627 13.3081C10.0779 13.3157 10.0931 13.3271 10.1083 13.3347C10.2374 13.3992 10.359 13.4296 10.4844 13.4296C10.7997 13.4296 10.9972 13.2321 11.0618 13.1675L12.3611 11.8682C12.4903 11.7391 12.6954 11.5833 12.9347 11.5833C13.1703 11.5833 13.364 11.7315 13.4818 11.8606C13.4856 11.8644 13.4856 11.8644 13.4894 11.8682L15.5827 13.9615C15.974 14.349 15.974 14.7479 15.5865 15.1506Z" fill="white"/>
<path d="M9.72803 4.28205C10.7234 4.44921 11.6276 4.92029 12.3494 5.6421C13.0712 6.36392 13.5385 7.26809 13.7094 8.26343C13.7512 8.51417 13.9678 8.68892 14.2147 8.68892C14.2451 8.68892 14.2717 8.68512 14.3021 8.68132C14.5832 8.63573 14.7694 8.3698 14.7238 8.08868C14.5186 6.88439 13.9488 5.78647 13.0788 4.91649C12.2088 4.04652 11.1109 3.47666 9.90659 3.27151C9.62546 3.22593 9.36333 3.41208 9.31394 3.68941C9.26455 3.96674 9.44691 4.23647 9.72803 4.28205Z" fill="white"/>
<path d="M17.9791 7.94018C17.641 5.95709 16.7064 4.15255 15.2704 2.71652C13.8343 1.28049 12.0298 0.345932 10.0467 0.00781895C9.76939 -0.0415683 9.50725 0.148383 9.45787 0.425712C9.41228 0.706839 9.59843 0.968972 9.87956 1.01836C11.6499 1.31848 13.2645 2.15807 14.5486 3.43834C15.8326 4.72241 16.6684 6.33699 16.9685 8.10734C17.0103 8.35807 17.2269 8.53283 17.4738 8.53283C17.5042 8.53283 17.5308 8.52903 17.5612 8.52523C17.8385 8.48344 18.0285 8.21751 17.9791 7.94018Z" fill="white"/>
</g>
<defs>
<clipPath id="clip0">
<rect width="18" height="18" fill="white"/>
</clipPath>
</defs>
</svg>
