<svg width="64" height="64" viewBox="0 0 64 64" fill="none" xmlns="http://www.w3.org/2000/svg">
<g clip-path="url(#clip0)">
<path d="M61.8671 24.7305V6.2079C62.313 6.05643 62.7176 5.80337 63.049 5.4687C63.6615 4.87377 64.005 4.05484 64.0004 3.20097C64.0004 1.43365 62.5678 0.000982392 60.8004 0.000982392H43.7338C41.9706 -0.00235093 40.5386 1.42431 40.5353 3.18751C40.5327 4.54404 41.3877 5.75403 42.6671 6.2047V24.7305C41.0082 25.3085 40.1319 27.1218 40.7098 28.7806C41.0293 29.6976 41.7501 30.4185 42.6671 30.738V42.6675C42.6637 45.6115 40.2778 47.9974 37.3338 48.0009H34.1338C31.1898 47.9974 28.804 45.6115 28.8005 42.6675V30.7412C29.2464 30.5897 29.651 30.3366 29.9824 30.002C30.5949 29.407 30.9384 28.5881 30.9338 27.7342C30.9282 26.383 30.0745 25.1809 28.8005 24.7305V16.0009C28.7917 8.3463 22.5885 2.14311 14.9339 2.13431H6.2043C5.61843 0.471248 3.7955 -0.402083 2.13244 0.183649C0.852976 0.634314 -0.0020887 1.84431 0.000577959 3.20097V20.2676C-0.00582203 21.1124 0.330577 21.9237 0.932842 22.5161C1.52777 23.1287 2.34671 23.4721 3.20057 23.4676C4.55177 23.462 5.7539 22.6083 6.2043 21.3343H8.53389C9.12296 21.3343 9.60055 21.8119 9.60055 22.4009V24.7305C7.94162 25.3085 7.06536 27.1218 7.64323 28.7806C7.96269 29.6976 8.68349 30.4185 9.60055 30.738V45.8675C9.61175 55.8776 17.7237 63.9896 27.7338 64.0008H43.7338C53.7439 63.9896 61.8559 55.8776 61.8671 45.8675V30.7412C62.313 30.5897 62.7176 30.3366 63.049 30.002C63.6615 29.407 64.005 28.5881 64.0004 27.7342C63.9948 26.3829 63.141 25.1809 61.8671 24.7305ZM4.26723 20.2676C4.26723 20.8567 3.78963 21.3343 3.20057 21.3343C2.9131 21.3352 2.63817 21.2171 2.44111 21.0079C2.24204 20.8133 2.13111 20.5459 2.13391 20.2676V3.20097C2.13391 2.61191 2.6115 2.13431 3.20057 2.13431C3.78963 2.13431 4.26723 2.61191 4.26723 3.20097V20.2676ZM43.7338 2.13431H60.8004C61.3895 2.13431 61.8671 2.61191 61.8671 3.20097C61.868 3.48844 61.7499 3.76337 61.5407 3.96044C61.3462 4.15951 61.0787 4.27044 60.8004 4.26764H43.7338C43.1447 4.26764 42.6671 3.79004 42.6671 3.20097C42.6671 2.61191 43.1446 2.13431 43.7338 2.13431ZM59.7338 6.40097V24.5343H44.8005V6.40097H59.7338ZM8.53389 19.2009H6.40056V4.26764H14.9339C21.4108 4.27524 26.6596 9.52402 26.6672 16.0009V24.5343H11.7339V22.4009C11.7339 20.6336 10.3011 19.2009 8.53389 19.2009ZM9.60055 27.7342C9.60055 27.1452 10.0782 26.6676 10.6672 26.6676H27.7338C28.3229 26.6676 28.8005 27.1452 28.8005 27.7342C28.8014 28.0217 28.6833 28.2966 28.4741 28.4937C28.2796 28.6928 28.0121 28.8037 27.7338 28.8009H10.6672C10.078 28.8009 9.60055 28.3233 9.60055 27.7342ZM59.7338 45.8675C59.7238 54.6999 52.5662 61.8575 43.7338 61.8675H27.7338C18.9015 61.8575 11.7439 54.6999 11.7339 45.8675V30.9342H26.6672V42.6675C26.6718 46.7893 30.0121 50.1295 34.1338 50.1342H37.3338C41.4555 50.1295 44.7958 46.7893 44.8005 42.6675V30.9342H59.7338V45.8675ZM61.5407 28.4937C61.3462 28.6928 61.0787 28.8037 60.8004 28.8009H43.7338C43.1447 28.8009 42.6671 28.3233 42.6671 27.7342C42.6671 27.1452 43.1447 26.6676 43.7338 26.6676H60.8004C61.3895 26.6676 61.8671 27.1452 61.8671 27.7342C61.868 28.0216 61.7498 28.2965 61.5407 28.4937Z" fill="white"/>
</g>
<defs>
<clipPath id="clip0">
<rect width="64" height="64" fill="white"/>
</clipPath>
</defs>
</svg>
