<svg width="68" height="68" viewBox="0 0 68 68" fill="none" xmlns="http://www.w3.org/2000/svg">
<path d="M58.5703 0C57.2717 0 56.1645 0.832867 55.7534 1.99219H47.6133V0.996094C47.6133 0.445984 47.1673 0 46.6172 0C46.0671 0 45.6211 0.445984 45.6211 0.996094V1.99219H22.3789V0.996094C22.3789 0.445984 21.9329 0 21.3828 0C20.8327 0 20.3867 0.445984 20.3867 0.996094V1.99219H12.2466C11.8355 0.832867 10.7283 0 9.42969 0C7.78188 0 6.44141 1.34048 6.44141 2.98828V67.0039C6.44141 67.554 6.88739 68 7.4375 68H11.4219C11.972 68 12.418 67.554 12.418 67.0039V9.96094H20.3867V31.2109H19.3906C17.7428 31.2109 16.4023 32.5514 16.4023 34.1992C16.4023 35.847 17.7428 37.1875 19.3906 37.1875H20.3867V54.785C20.3867 55.3351 20.8327 55.7811 21.3828 55.7811H29.0195V61.0578L27.2653 64.5663C27.0192 65.0583 27.2187 65.6567 27.7108 65.9026C27.8538 65.9742 28.0058 66.0079 28.1555 66.0079C28.5208 66.0079 28.8726 65.8061 29.0472 65.4572L30.9065 61.7384C30.9757 61.6 31.0117 61.4477 31.0117 61.293V55.7811H36.9883V61.2928C36.9883 61.4476 37.0243 61.5999 37.0935 61.7383L38.9528 65.457C39.1274 65.8061 39.479 66.0078 39.8445 66.0078C39.9942 66.0078 40.1462 65.9739 40.2892 65.9025C40.7813 65.6565 40.9808 65.0582 40.7347 64.5661L38.9805 61.0578V55.7812H46.6172C46.8814 55.7812 47.1348 55.6763 47.3215 55.4895C47.5084 55.3027 47.6133 55.0493 47.6133 54.7852V37.1876H48.6094C50.2572 37.1876 51.5977 35.8472 51.5977 34.1994C51.5977 32.5515 50.2572 31.2111 48.6094 31.2111H47.6133V9.96094H55.582V67.0039C55.582 67.554 56.028 68 56.5781 68H60.5625C61.1126 68 61.5586 67.554 61.5586 67.0039V2.98828C61.5586 1.34048 60.2181 0 58.5703 0ZM10.4258 66.0078H8.43359V2.98828C8.43359 2.43897 8.88037 1.99219 9.42969 1.99219C9.979 1.99219 10.4258 2.43897 10.4258 2.98828V66.0078ZM20.3867 35.1953H19.3906C18.8413 35.1953 18.3945 34.7485 18.3945 34.1992C18.3945 33.6499 18.8413 33.2031 19.3906 33.2031H20.3867V35.1953ZM20.3867 7.96875H12.418V3.98438H20.3867V7.96875ZM22.3789 37.1875L27.0273 37.1876V44.4065C25.568 45.8446 24.6532 47.7549 24.4275 49.8047H22.3789V37.1875ZM29.0195 53.7889H22.3789V51.7969H29.0195V53.7889ZM36.9883 53.7891H31.0117V51.7969H36.9883V53.7891ZM37.9844 47.8125C37.4343 47.8125 36.9883 48.2585 36.9883 48.8086V49.8047H31.0117V48.8086C31.0117 48.2585 30.5657 47.8125 30.0156 47.8125C29.4655 47.8125 29.0195 48.2585 29.0195 48.8086V49.8047H26.4354C26.6499 48.2894 27.3474 46.8861 28.4313 45.8204H39.5687C40.6526 46.8861 41.3501 48.2894 41.5646 49.8047H38.9805V48.8086C38.9805 48.2585 38.5345 47.8125 37.9844 47.8125ZM29.0195 43.8283V36.1915C29.0195 35.2761 29.7642 34.5314 30.6797 34.5314H37.3203C38.2358 34.5314 38.9805 35.2761 38.9805 36.1915V43.8283H29.0195ZM45.6211 53.7891H38.9805V51.7969H45.6211V53.7891ZM45.6211 49.8047H43.5725C43.3468 47.7549 42.432 45.8446 40.9727 44.4065V37.1876H45.6211V49.8047ZM45.6211 35.1954H40.8335C40.3986 33.6644 38.9888 32.5392 37.3203 32.5392H30.6797C29.0112 32.5392 27.6014 33.6644 27.1665 35.1954L22.3789 35.1953V9.96094H45.6211V35.1954ZM45.6211 7.96875H22.3789V3.98438H45.6211V7.96875ZM48.6094 33.2033C49.1587 33.2033 49.6055 33.65 49.6055 34.1994C49.6055 34.7487 49.1587 35.1954 48.6094 35.1954H47.6133V33.2033H48.6094ZM55.582 7.96875H47.6133V3.98438H55.582V7.96875ZM59.5664 66.0078H57.5742V2.98828C57.5742 2.43897 58.021 1.99219 58.5703 1.99219C59.1196 1.99219 59.5664 2.43897 59.5664 2.98828V66.0078Z" fill="white"/>
<path d="M34 16.6016C30.1552 16.6016 27.0273 19.7294 27.0273 23.5742C27.0273 27.419 30.1552 30.5469 34 30.5469C37.8448 30.5469 40.9727 27.419 40.9727 23.5742C40.9727 19.7294 37.8448 16.6016 34 16.6016ZM34 18.5938C36.3853 18.5938 38.3835 20.2797 38.8677 22.5223C36.191 22.2567 33.7438 21.0333 31.922 19.0497C32.555 18.7579 33.2585 18.5938 34 18.5938ZM34 28.5548C31.2537 28.5548 29.0195 26.3207 29.0195 23.5744C29.0195 22.2909 29.5076 21.1194 30.3077 20.2356C32.5246 22.7329 35.5639 24.2524 38.8883 24.5253C38.4431 26.8182 36.421 28.5548 34 28.5548Z" fill="white"/>
</svg>
