<svg width="61" height="61" viewBox="0 0 61 61" fill="none" xmlns="http://www.w3.org/2000/svg">
<g clip-path="url(#clip0)">
<path d="M29.6002 50.6604C29.6071 50.639 30.1405 48.9152 30.5575 47.6321C32.2515 47.9021 34.047 47.3869 35.3501 46.0838C36.36 45.0739 36.9263 43.7289 36.9668 42.3313C38.3295 42.2913 39.6801 41.7543 40.7174 40.7164C41.7552 39.6786 42.2923 38.3281 42.3323 36.9659C43.7304 36.923 45.08 36.3539 46.0852 35.3491C47.3879 34.046 47.903 32.2505 47.6331 30.5565C48.9162 30.1395 50.64 29.6057 50.6614 29.5992C50.6698 29.5969 50.6777 29.5941 50.6861 29.5913C52.8916 28.8378 54.9193 27.5775 56.5505 25.9468C56.8995 25.5978 56.8995 25.0318 56.5505 24.6828C56.2014 24.3342 55.636 24.3342 55.2869 24.6828C53.8507 26.119 52.0641 27.2299 50.1206 27.8963C49.941 27.9517 48.3154 28.4553 47.0723 28.8597C46.8191 28.3771 46.4901 27.9242 46.0852 27.5194L43.3627 24.7968C43.487 24.7526 48.106 23.2345 48.502 23.1158C48.515 23.1121 48.5281 23.1075 48.5411 23.1033C49.739 22.6835 50.8378 21.9956 51.7188 21.1151C54.9826 17.8513 54.9826 12.5412 51.7188 9.27744C48.4555 6.01366 43.1449 6.01366 39.8811 9.27744C39.0025 10.1561 38.316 11.254 37.8962 12.4514C37.892 12.4644 37.8878 12.4775 37.8837 12.4905C37.765 12.8861 36.2445 17.5097 36.2003 17.6345L33.4769 14.9115C33.072 14.5066 32.6196 14.1775 32.1375 13.9248C32.5428 12.6799 33.0482 11.0506 33.1036 10.8723C33.7691 8.92887 34.8791 7.14363 36.3134 5.7093C41.5444 0.478305 50.0559 0.478305 55.2869 5.7093C59.5508 9.97367 60.4416 16.6106 57.4524 21.8495C57.2081 22.2781 57.3575 22.824 57.7856 23.0679C58.2142 23.3127 58.7601 23.1633 59.0045 22.7347C62.3916 16.7986 61.3826 9.27791 56.5505 4.44576C50.6228 -1.48192 40.9776 -1.48192 35.0499 4.44576C33.4206 6.07463 32.1617 8.1014 31.4087 10.3069C31.4059 10.3148 31.4031 10.3232 31.4003 10.3311C31.3938 10.3525 30.859 12.0786 30.4411 13.3631C28.7471 13.0932 26.9507 13.6079 25.6476 14.9115C24.6461 15.9125 24.0732 17.2659 24.0294 18.6639C22.6672 18.7039 21.3171 19.2415 20.2798 20.2788C19.2424 21.3166 18.7049 22.6672 18.6649 24.0294C17.2668 24.0722 15.9163 24.6423 14.9124 25.6466C13.6089 26.9497 13.0942 28.7461 13.3646 30.4402C12.0801 30.8581 10.3535 31.3928 10.3325 31.3993C10.3242 31.4021 10.3158 31.4049 10.3079 31.4077C8.10238 32.1607 6.07607 33.4196 4.44674 35.0485C-1.48094 40.9766 -1.48094 50.6218 4.44674 56.5495C4.79578 56.8985 5.36169 56.8985 5.71074 56.5495C6.05931 56.2009 6.05931 55.635 5.71074 55.286C0.479747 50.055 0.479747 41.5434 5.71074 36.3125C7.14461 34.8781 8.92984 33.7686 10.8738 33.1026C11.053 33.0473 12.6814 32.5423 13.9258 32.137C14.1785 32.6191 14.5075 33.0715 14.9124 33.4764L17.6354 36.1994C17.5107 36.2436 12.8871 37.7645 12.4915 37.8831C12.4784 37.8869 12.4654 37.8911 12.4529 37.8957C11.2549 38.3155 10.1571 39.0015 9.27842 39.8801C6.01464 43.1439 6.01464 48.4545 9.27842 51.7183C12.5422 54.9821 17.8523 54.9821 21.1161 51.7183C21.9971 50.8373 22.6845 49.7385 23.1042 48.5406C23.1089 48.5276 23.1131 48.5145 23.1168 48.5015C23.2364 48.1036 24.7541 43.486 24.7983 43.3622L27.5203 46.0843C27.9257 46.4896 28.3785 46.8186 28.8611 47.0718C28.4567 48.3149 27.9527 49.9405 27.8973 50.1197C27.2313 52.0636 26.1204 53.8502 24.6842 55.2864C20.3873 59.5829 13.7155 60.4537 8.45933 57.403C8.03257 57.155 7.48574 57.3006 7.23768 57.7269C7.03012 58.0853 7.09853 58.5279 7.37823 58.8071C7.43175 58.8606 7.49365 58.9086 7.56206 58.9486C13.5181 62.4055 21.0789 61.4189 25.9478 56.55C27.579 54.9188 28.8393 52.8911 29.5923 50.6851C29.595 50.6767 29.5978 50.6688 29.6002 50.6604ZM39.5893 13.0238C39.9216 12.0851 40.4591 11.227 41.1446 10.541C43.7117 7.97389 47.8886 7.97389 50.4552 10.541C53.0223 13.1081 53.0223 17.2845 50.4557 19.8516C49.7674 20.539 48.9083 21.0779 47.9687 21.4102C47.5191 21.5451 42.343 23.2634 41.967 23.4011L37.5956 19.0302C37.7343 18.6532 39.4548 13.4725 39.5893 13.0238ZM32.2133 16.175L44.8217 28.7829C46.2835 30.2447 46.2835 32.6233 44.8217 34.0856C44.0966 34.8102 43.1072 35.2002 42.095 35.1811C41.839 34.3411 41.3806 33.5499 40.7174 32.8867L39.1863 31.3556C38.8377 31.0065 38.2718 31.0065 37.9227 31.3556C37.5737 31.7046 37.5737 32.2701 37.9227 32.6191L39.4539 34.1502C40.9161 35.6125 40.9157 37.9911 39.4539 39.4529C37.9921 40.9147 35.6135 40.9147 34.1512 39.4529L21.5433 26.845C20.0815 25.3832 20.0815 23.0041 21.5433 21.5423C23.0051 20.0806 25.3842 20.0806 26.846 21.5423L35.4864 30.1828C35.8355 30.5318 36.4009 30.5318 36.75 30.1828C37.099 29.8337 37.099 29.2683 36.75 28.9193L28.1095 20.2788C27.4459 19.6152 26.6542 19.1563 25.8133 18.9008C25.7905 17.8821 26.1772 16.9085 26.9111 16.175C28.3729 14.7127 30.7515 14.7127 32.2133 16.175ZM21.4112 47.9677C21.0789 48.9068 20.5404 49.7664 19.8526 50.4543C17.2855 53.0214 13.1091 53.0214 10.542 50.4543C7.97486 47.8876 7.97486 43.7108 10.542 41.1437C11.2279 40.4581 12.0861 39.9206 13.0248 39.5888C13.4735 39.4538 18.6546 37.7333 19.0311 37.5951L23.4021 41.966C23.2643 42.342 21.5466 47.5167 21.4112 47.9677ZM16.176 32.2124C14.7137 30.7506 14.7137 28.372 16.176 26.9097C16.9001 26.1856 17.8905 25.7956 18.9027 25.8142C19.1582 26.6542 19.6166 27.4454 20.2798 28.1085L32.8877 40.7164C33.5509 41.3801 34.3425 41.8385 35.1825 42.094C35.203 43.1062 34.8149 44.0919 34.0861 44.8203C32.6243 46.2825 30.2457 46.2825 28.7839 44.8203L16.176 32.2124Z" fill="white" stroke="white" stroke-width="0.5"/>
</g>
<defs>
<clipPath id="clip0">
<rect width="61" height="61" fill="white"/>
</clipPath>
</defs>
</svg>
