<svg width="35" height="35" viewBox="0 0 35 35" fill="none" xmlns="http://www.w3.org/2000/svg">
<g filter="url(#filter0_d)">
<g clip-path="url(#clip0)">
<path d="M4.04144 11.031L4.04126 11.0308C3.86917 10.8625 3.80702 10.6112 3.88117 10.3824L3.88125 10.3822C3.95593 10.1531 4.15406 9.98594 4.3927 9.95112L4.39279 9.95111L13.0575 8.69188L16.9328 0.840259C17.0392 0.623527 17.2597 0.486719 17.5004 0.486719C17.7413 0.486719 17.9619 0.623258 18.068 0.840189C18.0681 0.840318 18.0682 0.840448 18.0682 0.840577L21.9429 8.69188L30.6081 9.95111L30.6081 9.95112C30.8469 9.98595 31.0443 10.1526 31.1195 10.3819L31.1197 10.3824C31.1937 10.6107 31.1326 10.8627 30.9594 11.031L4.04144 11.031ZM4.04144 11.031L10.3117 17.1422L8.83124 25.7722L4.04144 11.031ZM17.5004 2.55162L20.9553 9.55072L20.9554 9.55086C21.0477 9.7373 21.2255 9.86726 21.4322 9.89712L17.5004 2.55162ZM17.5004 2.55162L14.0455 9.55119L14.0455 9.55134C13.9532 9.7378 13.7753 9.86777 13.5686 9.89761C13.5686 9.89762 13.5685 9.89762 13.5685 9.89763L5.84441 11.0196L11.434 16.4682C11.434 16.4682 11.434 16.4682 11.434 16.4682C11.5829 16.6133 11.6512 16.8234 11.6158 17.0287C11.6158 17.0288 11.6158 17.0288 11.6158 17.0289L10.2961 24.7218L17.2055 21.0899C17.2056 21.0899 17.2056 21.0898 17.2057 21.0898C17.3903 20.9922 17.6103 20.9924 17.7954 21.0897L17.7954 21.0897L24.7043 24.7218L23.385 17.0289L17.5004 2.55162ZM24.6891 17.1432L30.9592 11.0312L8.8312 25.7724C8.79011 26.01 8.88776 26.25 9.08268 26.3918C9.19323 26.4724 9.32436 26.5128 9.45508 26.5128C9.55575 26.5128 9.65687 26.4887 9.74907 26.4407L9.7496 26.4404L17.5004 22.3663L25.2497 26.4401C25.2497 26.4402 25.2498 26.4402 25.2498 26.4402C25.4633 26.5535 25.7225 26.5353 25.9179 26.3921C26.1122 26.2503 26.2097 26.0104 26.1692 25.773L26.1692 25.7729L24.6891 17.1432ZM21.4323 9.89715L29.1564 11.0196L23.5669 16.4682L23.5666 16.4684C23.4181 16.6138 23.3496 16.8232 23.385 17.0287L21.4323 9.89715Z" fill="white" stroke="white" stroke-width="0.3"/>
</g>
</g>
<defs>
<filter id="filter0_d" x="0" y="0" width="35" height="35" filterUnits="userSpaceOnUse" color-interpolation-filters="sRGB">
<feFlood flood-opacity="0" result="BackgroundImageFix"/>
<feColorMatrix in="SourceAlpha" type="matrix" values="0 0 0 0 0 0 0 0 0 0 0 0 0 0 0 0 0 0 127 0"/>
<feOffset dy="4"/>
<feGaussianBlur stdDeviation="2"/>
<feColorMatrix type="matrix" values="0 0 0 0 0 0 0 0 0 0 0 0 0 0 0 0 0 0 0.25 0"/>
<feBlend mode="normal" in2="BackgroundImageFix" result="effect1_dropShadow"/>
<feBlend mode="normal" in="SourceGraphic" in2="effect1_dropShadow" result="shape"/>
</filter>
<clipPath id="clip0">
<rect x="4" width="27" height="27" fill="white"/>
</clipPath>
</defs>
</svg>
