<svg width="72" height="72" viewBox="0 0 72 72" fill="none" xmlns="http://www.w3.org/2000/svg">
<path d="M35.9997 35.3623C29.3723 35.3623 24 40.7342 24 47.362C24 53.9894 29.3723 59.3621 35.9997 59.3621C42.6271 59.3621 47.9994 53.9894 47.9994 47.362C47.9924 40.7377 42.624 35.3693 35.9997 35.3623ZM35.9997 56.9619C30.6977 56.9619 26.3999 52.664 26.3999 47.362C26.3999 42.06 30.6977 37.7622 35.9997 37.7622C41.3017 37.7622 45.5996 42.06 45.5996 47.362C45.5934 52.6609 41.2991 56.9561 35.9997 56.9619Z" fill="white"/>
<path d="M35.9999 34.1621C36.6626 34.1621 37.2001 33.625 37.2001 32.9624V31.7622C37.2001 31.1 36.6626 30.5625 35.9999 30.5625C35.3373 30.5625 34.7998 31.1 34.7998 31.7622V32.9624C34.7998 33.625 35.3373 34.1621 35.9999 34.1621Z" fill="white"/>
<path d="M46.1824 35.4823L45.3339 36.3309C44.8575 36.7915 44.8443 37.5513 45.3044 38.0277C45.765 38.504 46.5248 38.5172 47.0016 38.0571C47.0112 38.0479 47.0214 38.0378 47.0306 38.0277L47.8792 37.1791C48.3397 36.7023 48.3265 35.9429 47.8497 35.4823C47.3848 35.0332 46.6474 35.0332 46.1824 35.4823Z" fill="white"/>
<path d="M51.6 46.1621H50.3999C49.7372 46.1621 49.2002 46.7 49.2002 47.3627C49.2002 48.0254 49.7372 48.5628 50.3999 48.5628H51.6C52.2623 48.5628 52.7998 48.0254 52.7998 47.3627C52.7998 46.7 52.2623 46.1621 51.6 46.1621Z" fill="white"/>
<path d="M47.0303 56.695C46.5539 56.2349 45.7937 56.2481 45.3336 56.7249C44.8849 57.1903 44.8849 57.9272 45.3336 58.3922L46.1822 59.2407C46.6506 59.7092 47.4104 59.7096 47.8793 59.2412C48.3482 58.7727 48.3487 58.0129 47.8802 57.544L47.0303 56.695Z" fill="white"/>
<path d="M35.9999 60.5615C35.3373 60.5615 34.7998 61.099 34.7998 61.7617V62.9614C34.7998 63.6245 35.3373 64.162 35.9999 64.162C36.6626 64.162 37.2001 63.6245 37.2001 62.9614V61.7617C37.2001 61.099 36.6626 60.5615 35.9999 60.5615Z" fill="white"/>
<path d="M24.97 56.6954L24.1214 57.5445C23.6525 58.0129 23.6521 58.7727 24.121 59.2416C24.5894 59.7101 25.3497 59.711 25.8182 59.2425L26.6667 58.3935C27.1273 57.9171 27.1141 57.1577 26.6373 56.6972C26.1723 56.2481 25.4349 56.2481 24.97 56.6972V56.6954Z" fill="white"/>
<path d="M21.5995 46.1621H20.3994C19.7362 46.1621 19.1992 46.7 19.1992 47.3627C19.1992 48.0254 19.7362 48.5628 20.3994 48.5628H21.5995C22.2622 48.5628 22.7992 48.0254 22.7992 47.3627C22.7992 46.7 22.2622 46.1621 21.5995 46.1621Z" fill="white"/>
<path d="M24.9695 38.0289C25.4459 38.489 26.2061 38.4758 26.6663 37.9994C27.1149 37.5345 27.1149 36.7966 26.6663 36.3321L25.8177 35.484C25.3492 35.0147 24.5894 35.0147 24.1205 35.4827C23.6516 35.9516 23.6512 36.7118 24.1196 37.1803L24.9695 38.0289Z" fill="white"/>
<path d="M68.4 34.1618C66.4119 34.1618 64.8 35.7737 64.8 37.7623V38.962H54.5686C52.5186 34.4558 48.9063 30.8435 44.4001 28.7935V19.7623C44.4001 19.0991 43.8627 18.5621 43.2 18.5621H40.7997V11.3621H55.1997C57.1882 11.3621 58.7997 9.7502 58.7997 7.76211C58.7997 5.77402 57.1882 4.16211 55.1997 4.16211H16.7999C14.8118 4.16211 13.2003 5.77402 13.2003 7.76211C13.2003 9.7502 14.8118 11.3621 16.7999 11.3621H31.2003V18.5621H28.8C28.1373 18.5621 27.5999 19.0996 27.5999 19.7623V28.7935C23.0933 30.8435 19.4814 34.4558 17.4309 38.9624H7.2V37.7623C7.2 35.7742 5.58809 34.1627 3.6 34.1627C1.61191 34.1627 0 35.7737 0 37.7623V56.962C0 58.9505 1.61191 60.562 3.6 60.562C5.58809 60.562 7.2 58.9505 7.2 56.962V55.7623H17.4313C22.0518 66.0173 34.1108 70.5854 44.3663 65.9646C48.8979 63.9229 52.527 60.2939 54.5686 55.7623H64.8V56.962C64.8 58.9505 66.4119 60.562 68.4 60.562C70.3881 60.562 72 58.9505 72 56.962V37.7623C72 35.7737 70.3881 34.1618 68.4 34.1618ZM15.6001 7.76211C15.6001 7.09941 16.1372 6.56196 16.7999 6.56196H55.1997C55.8628 6.56196 56.3999 7.09941 56.3999 7.76211C56.3999 8.4248 55.8628 8.96182 55.1997 8.96182H16.7999C16.1372 8.96182 15.6001 8.4248 15.6001 7.76211ZM33.6001 11.3621H38.3999V18.5621H33.6001V11.3621ZM29.9997 20.962H42.0003V27.8658C38.0909 26.6612 33.9091 26.6612 29.9997 27.8658V20.962ZM4.79971 56.962C4.79971 57.6251 4.2627 58.1621 3.6 58.1621C2.9373 58.1621 2.39985 57.6251 2.39985 56.962V37.7623C2.39985 37.0991 2.9373 36.5621 3.6 36.5621C4.2627 36.5621 4.79971 37.0991 4.79971 37.7623V56.962ZM7.2 53.3624V41.3618H16.5037C15.2991 45.2712 15.2991 49.4526 16.5037 53.3624H7.2ZM36 65.3621C26.0591 65.3621 18 57.303 18 47.3621C18 37.4208 26.0591 29.3621 36 29.3621C45.9409 29.3621 54 37.4208 54 47.3621C53.989 57.2986 45.9365 65.3511 36 65.3621ZM55.4963 53.3624C56.7009 49.4526 56.7009 45.2712 55.4963 41.3618H64.8V53.3624H55.4963ZM69.6001 56.962C69.6001 57.6251 69.0627 58.1621 68.4 58.1621C67.7373 58.1621 67.2003 57.6251 67.2003 56.962V37.7623C67.2003 37.0991 67.7373 36.5621 68.4 36.5621C69.0627 36.5621 69.6001 37.0991 69.6001 37.7623V56.962Z" fill="white"/>
</svg>
