<svg width="77" height="77" viewBox="0 0 77 77" fill="none" xmlns="http://www.w3.org/2000/svg">
<path d="M77 45.4968H73.15V42.9301C73.15 42.2204 72.5763 41.6468 71.8667 41.6468H64.1667C63.457 41.6468 62.8833 42.2204 62.8833 42.9301V45.4968H46.6479L53.9077 38.2383C54.7021 38.8222 55.6363 39.1302 56.5796 39.1302C57.7397 39.1302 58.8999 38.6887 59.7828 37.8071L61.2663 36.3235C61.8939 35.6947 62.8089 35.4521 63.7034 35.6729C65.6451 36.1554 67.0734 35.9591 67.9486 35.0851L71.5266 31.5072C73.2924 29.7413 73.2924 26.8692 71.5266 25.1033L56.1522 9.72773C54.389 7.96315 51.5156 7.96315 49.7497 9.72773L46.1718 13.3057C45.3004 14.1771 45.1027 15.6041 45.5827 17.5509C45.8047 18.448 45.5622 19.3591 44.9333 19.988L43.4485 21.4728C41.8546 23.0667 41.7135 25.5551 42.9981 27.3248L23.8713 45.4968H14.1167V42.9301C14.1167 42.2204 13.543 41.6468 12.8333 41.6468H5.13333C4.42365 41.6468 3.85 42.2204 3.85 42.9301V45.4968H0V64.7468H3.85V67.3135C3.85 68.0231 4.42365 68.5968 5.13333 68.5968H12.8333C13.543 68.5968 14.1167 68.0231 14.1167 67.3135V64.7468H62.8833V67.3135C62.8833 68.0231 63.457 68.5968 64.1667 68.5968H71.8667C72.5763 68.5968 73.15 68.0231 73.15 67.3135V64.7468H77V45.4968ZM45.2632 23.2874L46.748 21.8026C48.0185 20.5334 48.5138 18.7123 48.0737 16.9349C47.7233 15.5104 47.9851 15.1229 47.9864 15.1203L51.5643 11.5424C51.9468 11.1599 52.4486 10.97 52.9516 10.97C53.4534 10.97 53.9552 11.1599 54.3376 11.5424L69.7119 26.9167C70.4768 27.6816 70.4768 28.9264 69.7119 29.6913L66.1353 33.2679C66.0621 33.3282 65.5527 33.4848 64.3207 33.1806C62.5394 32.7392 60.7222 33.2371 59.4517 34.5063L57.9682 35.9911C57.2033 36.756 55.9585 36.756 55.1936 35.9911L54.7662 35.5638L45.6918 26.4893L45.2632 26.0607C44.4983 25.2958 44.4983 24.0523 45.2632 23.2874ZM2.56667 62.1801V48.0635H3.85V62.1801H2.56667ZM11.55 66.0301H6.41667V64.7468V45.4968V44.2135H11.55V46.7801V63.4635V66.0301ZM14.1167 62.1801V48.0635H21.2854L19.626 49.7228C19.1242 50.2246 19.1242 51.0357 19.626 51.5374C19.8763 51.7877 20.2048 51.9135 20.5333 51.9135C20.8619 51.9135 21.1904 51.7877 21.4407 51.5374L25.2906 47.6874L44.7614 29.1895L52.0443 36.4724L42.6426 45.8728C42.5489 45.9665 42.4732 46.073 42.4142 46.1859L38.8773 49.7228C38.3755 50.2246 38.3755 51.0357 38.8773 51.5374C39.1275 51.7877 39.4561 51.9135 39.7846 51.9135C40.1131 51.9135 40.4417 51.7877 40.6919 51.5374L44.1659 48.0635H62.8833V62.1801H14.1167ZM70.5833 66.0301H65.45V63.4635V46.7801V44.2135H70.5833V45.4968V64.7468V66.0301ZM74.4333 62.1801H73.15V48.0635H74.4333V62.1801Z" fill="white"/>
</svg>
