<svg width="56" height="66" viewBox="0 0 56 66" fill="none" xmlns="http://www.w3.org/2000/svg">
<path d="M55.3951 13.4692C55.2297 12.9149 54.6469 12.5998 54.092 12.7648L50.5098 13.833C49.8338 12.9406 48.6559 12.5041 47.516 12.8288C38.6717 15.3559 33.6395 20.0732 30.7934 24.335V7.34518C30.7934 6.17562 30.07 5.17299 29.0478 4.75765V1.04736C29.0478 0.46883 28.5789 0 28.0004 0C27.4219 0 26.9531 0.46883 26.9531 1.04736V4.75765C25.9308 5.17299 25.2074 6.17536 25.2074 7.34518V24.3352C22.3613 20.0735 17.3291 15.3559 8.4846 12.829C8.23388 12.7572 7.97543 12.7211 7.71633 12.7211C6.82713 12.7211 6.00948 13.1511 5.49154 13.8335L1.9086 12.765C1.35431 12.5998 0.770883 12.9152 0.605497 13.4694C0.440111 14.0238 0.755672 14.6071 1.30984 14.7725L4.9455 15.8566C5.08007 16.9349 5.84113 17.8832 6.95011 18.1999C14.0065 20.2163 18.9822 24.0011 21.7384 29.4497C21.8128 29.5969 21.8856 29.7465 21.9572 29.8975C20.9699 30.3068 20.2733 31.28 20.2733 32.4136V35.6348V39.0795V63.2767C20.2733 64.7782 21.4949 66 22.9966 66H33.0047C34.5062 66 35.7279 64.7784 35.7279 63.2767V51.008C35.7279 50.4295 35.2591 49.9606 34.6806 49.9606C34.102 49.9606 33.6332 50.4295 33.6332 51.008V63.2769C33.6332 63.6235 33.3513 63.9053 33.0048 63.9053H22.9967C22.6502 63.9053 22.3683 63.6235 22.3683 63.2769V40.1268H33.6333V47.6561C33.6333 48.2346 34.1022 48.7034 34.6807 48.7034C35.2592 48.7034 35.7281 48.2346 35.7281 47.6561V39.0795V35.6347V32.4135C35.7281 31.2798 35.0312 30.3065 34.0439 29.8972C34.0935 29.7928 34.1432 29.6885 34.1943 29.5858C35.5094 26.9359 37.3634 24.6518 39.7047 22.7967C40.1582 22.4376 40.2345 21.7786 39.8753 21.3254C39.5159 20.8716 38.8571 20.7956 38.404 21.1547C35.8189 23.203 33.7713 25.7262 32.318 28.6547C32.15 28.9934 31.9893 29.3397 31.8373 29.6902H30.3256C30.3593 29.6066 30.3927 29.5228 30.4273 29.4396C30.4425 29.4033 30.4572 29.3668 30.4726 29.3304C30.5449 29.1591 30.6189 28.9888 30.6951 28.8201C30.8144 28.5551 30.9382 28.2926 31.0668 28.0335C33.2634 23.6074 38.0001 17.726 48.0914 14.8429C48.4627 14.7374 48.8492 14.9523 48.9551 15.3223C49.0609 15.6923 48.8459 16.0797 48.4755 16.1855C45.7778 16.9564 43.3255 17.987 41.1872 19.2492C40.6891 19.5434 40.5235 20.1855 40.8175 20.6836C41.1118 21.1821 41.754 21.3472 42.2518 21.0533C44.237 19.8818 46.5247 18.9217 49.0512 18.1996C50.1602 17.8827 50.9209 16.9346 51.0555 15.8563L54.6912 14.7721C55.2449 14.6071 55.5605 14.0235 55.3951 13.4692ZM27.302 7.34518C27.302 6.96014 27.6152 6.6469 28.0003 6.6469C28.3853 6.6469 28.6986 6.96014 28.6986 7.34518V28.1529C28.652 28.2585 28.609 28.3661 28.5639 28.4726C28.5145 28.5888 28.4645 28.7045 28.4167 28.8216C28.3532 28.9774 28.293 29.1344 28.2326 29.2914C28.1895 29.4031 28.1453 29.5141 28.1038 29.6264C28.0958 29.6478 28.087 29.6688 28.0792 29.6902H27.302V28.3756V7.34518ZM7.52542 16.1855C7.1552 16.0798 6.93993 15.6926 7.04563 15.3224C7.13096 15.024 7.40682 14.8155 7.7162 14.8155C7.78065 14.8155 7.84549 14.8248 7.90891 14.8429C18.0007 17.7261 22.7375 23.6074 24.9339 28.0333C25.026 28.2194 25.1177 28.4104 25.2072 28.6038V29.69H24.1625C23.9878 29.2856 23.802 28.8885 23.6073 28.5036C20.5769 22.5133 15.1662 18.3688 7.52542 16.1855ZM33.6327 38.0321H22.3676V36.6822H33.6327V38.0321ZM32.536 31.7849H33.0044C33.3509 31.7849 33.6328 32.0668 33.6328 32.4133V34.5872H22.3678V32.4133C22.3678 32.0668 22.6497 31.7849 22.9962 31.7849H23.4622H26.2546H28.8227H32.536Z" fill="white"/>
</svg>
