<svg width="66" height="66" viewBox="0 0 66 66" fill="none" xmlns="http://www.w3.org/2000/svg">
<path d="M42.4213 12.5017V1.05319C42.4213 0.471549 41.9498 0 41.3682 0H24.6322C24.0506 0 23.5791 0.471549 23.5791 1.05319V12.5017C16.6812 13.0405 11.2334 18.8254 11.2334 25.8592V52.1268C11.2334 57.101 15.0103 61.2083 19.8467 61.7349V64.9468C19.8467 65.5285 20.3182 66 20.8999 66H45.1005C45.6822 66 46.1537 65.5285 46.1537 64.9468V61.7349C50.9901 61.2083 54.767 57.101 54.767 52.1268V25.8592C54.767 18.8256 49.319 13.0406 42.4213 12.5017ZM40.315 2.10638V12.4604H34.0534V10.0642C35.1758 9.63754 35.9769 8.5536 35.9769 7.28345C35.9769 5.64202 34.6416 4.30671 33.0002 4.30671C31.3588 4.30671 30.0235 5.64202 30.0235 7.28345C30.0235 8.5536 30.8246 9.63754 31.947 10.0642V12.4605H25.6854V2.10638H40.315ZM33.0002 8.15367C32.5204 8.15367 32.1298 7.76329 32.1298 7.28331C32.1298 6.80334 32.5204 6.41295 33.0002 6.41295C33.48 6.41295 33.8706 6.80334 33.8706 7.28331C33.8706 7.76329 33.48 8.15367 33.0002 8.15367ZM24.6322 14.5668H41.3682C47.2396 14.5668 52.0767 19.0715 52.6098 24.806H20.7121C20.1305 24.806 19.6589 25.2776 19.6589 25.8592C19.6589 26.4409 20.1305 26.9124 20.7121 26.9124H52.6606V51.0736H13.3398V26.9124H16.4994C17.081 26.9124 17.5525 26.4409 17.5525 25.8592C17.5525 25.2776 17.081 24.806 16.4994 24.806H13.3906C13.9237 19.0716 18.7608 14.5668 24.6322 14.5668ZM21.9531 63.8936V61.7933H44.0473V63.8936H21.9531ZM45.1005 59.6869H20.8999C17.0887 59.6869 13.929 56.8517 13.4148 53.18H52.5856C52.0714 56.8517 48.9117 59.6869 45.1005 59.6869Z" fill="white"/>
<path d="M33.0006 48.9671C35.2626 48.9671 37.2388 48.1806 38.7154 46.6925C40.2433 45.1526 41.1096 42.9617 41.0921 40.6815C41.0594 36.4545 38.0627 32.6771 37.9352 32.5182C37.728 32.2607 37.4125 32.1158 37.0818 32.1252C36.7514 32.1353 36.445 32.3 36.2541 32.5699C36.2541 32.5699 36.1692 32.6901 36.0421 32.8697C35.5264 31.7458 34.7628 30.3751 33.7564 29.3382C33.5581 29.1338 33.2854 29.0186 33.0008 29.0186C32.7161 29.0186 32.4434 29.1338 32.2451 29.3382C31.2387 30.3751 30.4751 31.7458 29.9594 32.8697C29.8325 32.6901 29.7474 32.5699 29.7474 32.5699C29.5567 32.3 29.2501 32.1353 28.9197 32.1252C28.5906 32.1137 28.2733 32.2606 28.0663 32.5182C27.9388 32.6769 24.9422 36.4545 24.9094 40.6815C24.8919 42.9617 25.758 45.1526 27.2861 46.6925C28.7624 48.1805 30.7386 48.9671 33.0006 48.9671ZM28.9016 35.0223L29.1524 35.3769C29.4588 35.81 29.7009 36.1522 30.2884 36.1141C30.7026 36.0874 31.0623 35.8202 31.2074 35.4315C31.2105 35.4231 31.2189 35.3996 31.2314 35.362C31.42 34.7969 32.0259 33.124 33.0006 31.7313C33.9753 33.124 34.5811 34.7969 34.7698 35.362C34.7825 35.3998 34.7908 35.4232 34.7939 35.4315C34.9761 35.92 35.4887 36.2016 35.9986 36.0935C36.4023 36.0081 36.5423 35.8102 36.849 35.3767L37.0996 35.0223C37.8869 36.3073 38.9684 38.4738 38.9855 40.6977C38.9989 42.4205 38.3555 44.0646 37.2201 45.2088C36.1477 46.2895 34.6887 46.8607 33.0006 46.8607C31.3126 46.8607 29.8534 46.2895 28.7811 45.2088C27.6458 44.0646 27.0023 42.4205 27.0157 40.6977C27.0328 38.4735 28.1145 36.3071 28.9016 35.0223Z" fill="white"/>
</svg>
