<svg width="61" height="61" viewBox="0 0 61 61" fill="none" xmlns="http://www.w3.org/2000/svg">
<g clip-path="url(#clip0)">
<path d="M31.1534 11.1064C30.973 8.28969 28.723 6.03316 25.9107 5.83908C25.404 4.2059 23.879 3.01628 22.0814 3.01628C21.5556 3.01628 21.0447 3.1172 20.571 3.30985C19.2816 1.28636 17.013 0 14.5605 0C11.0357 0 8.10381 2.54377 7.53956 5.93344C7.33797 5.92546 7.13627 5.92808 6.93516 5.94142C4.15692 6.12776 1.92005 8.36284 1.73181 11.1408C1.71942 11.3247 1.71585 11.5098 1.72109 11.6909C1.80866 14.7391 4.26712 17.1268 7.31784 17.1268H25.5148C25.515 17.1268 25.5149 17.1268 25.5151 17.1268C28.5597 17.1268 31.0395 14.7448 31.1607 11.7037C31.1685 11.5055 31.166 11.3045 31.1534 11.1064ZM28.7795 11.6092C28.7095 13.367 27.2754 14.744 25.5148 14.7439H7.31772C5.56528 14.7439 4.15322 13.3727 4.10295 11.6219C4.09985 11.5166 4.10188 11.4085 4.10926 11.3013C4.21708 9.70794 5.50059 8.42586 7.09481 8.31899C7.16701 8.31411 7.23944 8.31161 7.31188 8.31161C7.51085 8.31161 7.71017 8.32984 7.90675 8.36617C7.94773 8.3738 7.98872 8.37916 8.0297 8.38238C8.28157 8.40716 8.79864 8.40323 9.24756 8.05224C9.5746 7.79668 9.77738 7.42294 9.82182 6.99641C9.82432 6.9758 9.82623 6.95519 9.82754 6.9347C9.82813 6.92564 9.82873 6.91671 9.82908 6.90765C9.9406 4.37044 12.0189 2.38281 14.5605 2.38281C16.5159 2.38281 18.2955 3.61222 18.9886 5.44211C19.1315 5.81907 19.4551 6.09809 19.8488 6.18411C20.2422 6.26978 20.6528 6.15123 20.9397 5.86803C21.246 5.56565 21.6514 5.39921 22.0812 5.39921C22.9728 5.39921 23.699 6.12097 23.7065 7.01095C23.706 7.02322 23.7058 7.03573 23.7055 7.04824C23.7022 7.3947 23.8498 7.72555 24.1101 7.95442C24.3703 8.18317 24.7162 8.2873 25.0607 8.23989C25.2788 8.20962 25.5007 8.20116 25.7195 8.21439C27.3568 8.31411 28.6705 9.62287 28.7752 11.2586V11.2587C28.7826 11.375 28.7841 11.493 28.7795 11.6092Z" fill="white"/>
<path d="M24.5827 40.0171C24.5672 39.9408 24.5446 39.8656 24.5148 39.7943C24.485 39.7229 24.4481 39.6538 24.4052 39.5882C24.3623 39.5238 24.3123 39.4619 24.2575 39.4071C24.2027 39.3523 24.1407 39.3022 24.0764 39.2593C24.011 39.2166 23.9419 39.1795 23.8703 39.1497C23.7989 39.12 23.7238 39.0974 23.6475 39.0818C23.4938 39.0508 23.3353 39.0508 23.1816 39.0818C23.1054 39.0974 23.0304 39.12 22.9589 39.1497C22.8875 39.1795 22.8184 39.2166 22.7528 39.2593C22.6884 39.3022 22.6265 39.3523 22.5717 39.4071C22.5169 39.4619 22.4668 39.524 22.424 39.5882C22.3811 39.6537 22.3442 39.7229 22.3144 39.7943C22.2846 39.8656 22.262 39.9408 22.2465 40.0171C22.231 40.0944 22.2227 40.172 22.2227 40.2494C22.2227 40.5627 22.3503 40.8701 22.5719 41.0916C22.6267 41.1464 22.6886 41.1964 22.753 41.2405C22.8184 41.2834 22.8875 41.3204 22.9591 41.3501C23.0304 41.3799 23.1055 41.4026 23.1817 41.418C23.2592 41.4334 23.3367 41.4407 23.4141 41.4407C23.4927 41.4407 23.5703 41.4335 23.6475 41.4182C23.7238 41.4027 23.7988 41.38 23.8703 41.3503C23.9417 41.3205 24.0108 41.2835 24.0764 41.2406C24.1408 41.1966 24.2027 41.1465 24.2575 41.0917C24.3123 41.0369 24.3623 40.9762 24.4052 40.9106C24.4481 40.8463 24.485 40.7772 24.5148 40.7057C24.5446 40.633 24.5672 40.5592 24.5827 40.4829C24.5982 40.4055 24.6065 40.328 24.6065 40.2494C24.6065 40.172 24.5982 40.0944 24.5827 40.0171Z" fill="white"/>
<path d="M8.1706 40.0171C8.15511 39.9408 8.1326 39.8657 8.10281 39.7943C8.07303 39.7229 8.03597 39.6538 7.9932 39.5882C7.94912 39.5238 7.89908 39.4619 7.84428 39.4071C7.78947 39.3523 7.72859 39.3022 7.66306 39.2593C7.59873 39.2166 7.52963 39.1795 7.45814 39.1497C7.38547 39.12 7.31041 39.0974 7.23535 39.0818C7.08166 39.0508 6.9232 39.0508 6.76951 39.0818C6.69326 39.0974 6.61832 39.12 6.54672 39.1497C6.47416 39.1795 6.40506 39.2166 6.34072 39.2593C6.2752 39.3022 6.21431 39.3523 6.15951 39.4071C6.10471 39.4619 6.05467 39.524 6.01189 39.5882C5.969 39.6537 5.93207 39.7229 5.90229 39.7943C5.8725 39.8657 5.84986 39.9408 5.83438 40.0171C5.81889 40.0944 5.81055 40.172 5.81055 40.2494C5.81055 40.328 5.81889 40.4055 5.83438 40.4829C5.84986 40.5592 5.8725 40.633 5.90229 40.7057C5.93207 40.7772 5.969 40.8463 6.01189 40.9106C6.05467 40.9762 6.10471 41.0369 6.15951 41.0917C6.21431 41.1465 6.2752 41.1966 6.34072 41.2407C6.40506 41.2835 6.47416 41.3205 6.54672 41.3503C6.6182 41.38 6.69326 41.4027 6.76951 41.4182C6.84576 41.4335 6.92439 41.4408 7.00183 41.4408C7.07939 41.4408 7.15791 41.4337 7.23523 41.4181C7.31029 41.4026 7.38535 41.3799 7.45802 41.3501C7.52951 41.3204 7.59861 41.2834 7.66295 41.2405C7.72847 41.1964 7.78935 41.1464 7.84416 41.0916C8.06576 40.8701 8.19324 40.5627 8.19324 40.2494C8.19324 40.172 8.18609 40.0944 8.1706 40.0171Z" fill="white"/>
<path d="M58.8893 48.341C58.7804 47.8888 58.4183 47.5413 57.962 47.4511C57.8027 47.4195 55.5691 46.9934 53.0732 47.2922V44.0088C53.0732 43.3509 52.5397 42.8174 51.8818 42.8174C51.6932 42.8174 51.4853 42.8174 51.2635 42.8209C50.6667 41.8115 49.9643 40.9423 49.3381 40.2643V31.9202C54.8173 30.4609 58.8658 25.4561 58.8658 19.5233C58.8658 16.0424 57.4522 12.7228 54.9652 10.3119C55.0185 9.9131 55.0455 9.50969 55.0455 9.10581C55.0455 4.13979 51.0055 0.0996094 46.0397 0.0996094C41.0738 0.0996094 37.0339 4.13979 37.0339 9.10581C37.0339 9.50969 37.0609 9.9131 37.1142 10.3119C34.6271 12.7228 33.2135 16.0425 33.2135 19.5233C33.2135 25.4556 37.2615 30.4602 42.7401 31.9198V35.4029L40.5562 33.7173C40.1267 33.3858 39.5277 33.3863 39.099 33.7182L35.7344 36.3224L32.3483 33.7163C31.9192 33.3862 31.3221 33.3865 30.8936 33.7174L27.5184 36.3225L24.143 33.7174C23.7141 33.3863 23.1159 33.3863 22.687 33.7174L19.3117 36.3225L15.9364 33.7174C15.5074 33.3863 14.9092 33.3863 14.4803 33.7174L11.1051 36.3225L7.72971 33.7174C7.3008 33.3863 6.7026 33.3863 6.27369 33.7174L2.17049 36.8844C1.87824 37.1101 1.70703 37.4583 1.70703 37.8275V59.8082C1.70703 60.4661 2.24054 60.9997 2.89844 60.9997H43.9315C44.0836 60.9997 44.229 60.9711 44.3627 60.9191C45.7079 60.8711 46.6761 60.6862 46.779 60.6658C46.8271 60.6563 46.8741 60.6439 46.9199 60.6289C46.9657 60.6439 47.0128 60.6563 47.0609 60.6658C47.1792 60.6893 48.4422 60.9306 50.1073 60.9306C52.3363 60.9306 55.2859 60.4981 57.1726 58.5321V58.5322C60.4684 55.0979 58.9553 48.6153 58.8893 48.341ZM8.19281 58.6168V45.0099C8.19281 44.352 7.6593 43.8185 7.0014 43.8185C6.34351 43.8185 5.81 44.352 5.81 45.0099V58.6168H4.08961V38.4129L7.0014 36.1654L9.91332 38.4129V58.6168H8.19281ZM12.2963 58.6168V38.4129L15.208 36.1654L18.12 38.4129V58.6168H12.2963ZM26.3266 58.6168H24.6061V45.0099C24.6061 44.352 24.0726 43.8185 23.4147 43.8185C22.7568 43.8185 22.2233 44.352 22.2233 45.0099V58.6168H20.5029V38.4129L23.4147 36.1654L26.3266 38.4129V58.6168ZM28.7094 58.6168V38.4129L31.6223 36.1647L34.5447 38.4139V58.6168H28.7094ZM35.5961 19.5233C35.5961 16.5038 36.9028 13.6332 39.1812 11.6472C39.5076 11.3626 39.6539 10.9232 39.5633 10.4996C39.4659 10.045 39.4166 9.57594 39.4166 9.10581C39.4166 5.45367 42.3877 2.48242 46.0396 2.48242C49.6914 2.48242 52.6625 5.45355 52.6625 9.10581C52.6625 9.57594 52.6132 10.045 52.5159 10.4996C52.4252 10.9232 52.5715 11.3626 52.8981 11.6472C55.1763 13.6332 56.483 16.504 56.483 19.5233C56.483 24.8793 52.4307 29.3066 47.2311 29.8997V23.8966C47.237 23.8915 47.2428 23.8863 47.2485 23.8809L51.7879 19.6988C52.272 19.253 52.3027 18.4993 51.8569 18.0154C51.4111 17.5313 50.6574 17.5005 50.1734 17.9464L47.2311 20.6571V17.5506L50.4377 14.5772C50.9202 14.1297 50.9486 13.3759 50.5012 12.8934C50.0536 12.4109 49.2998 12.3829 48.8174 12.8299L47.2311 14.3008V11.6215C47.2311 10.9636 46.6976 10.4301 46.0397 10.4301C45.3818 10.4301 44.8483 10.9636 44.8483 11.6215V20.6573L41.9059 17.9465C41.4218 17.5006 40.6682 17.5317 40.2225 18.0155C39.7766 18.4994 39.8075 19.2531 40.2914 19.699L44.8308 23.881C44.8367 23.8864 44.8425 23.8916 44.8483 23.8969V29.8998C39.6486 29.3066 35.5961 24.8793 35.5961 19.5233ZM46.9207 41.2026C47.395 41.6542 48.033 42.3228 48.6278 43.1439C48.0027 43.3213 47.4069 43.5951 46.9198 44.0176C46.4329 43.5954 45.8373 43.3217 45.2124 43.1443C45.8069 42.3256 46.446 41.6555 46.9207 41.2026ZM45.1227 39.6244V32.3176C45.4256 32.3391 45.7313 32.35 46.0395 32.35C46.3474 32.35 46.6527 32.3391 46.9552 32.3176V38.4249C46.6857 38.4168 46.414 38.4999 46.189 38.6744C46.1468 38.7071 45.7158 39.0448 45.1227 39.6244ZM36.9276 38.4118L39.8291 36.1661L42.74 38.4127V42.5501C42.6844 42.6392 42.6296 42.7294 42.5755 42.8208C42.3536 42.8172 42.1459 42.8172 41.9574 42.8172C41.6412 42.8172 41.338 42.9429 41.1145 43.1667C40.8911 43.3904 40.7656 43.6938 40.766 44.01L40.7696 47.2924C39.2596 47.1112 37.8452 47.1955 36.9276 47.2974V38.4118ZM45.5386 58.448C45.1016 58.5001 44.581 58.5401 44.0174 58.5498C43.989 58.5477 43.9603 58.5467 43.9313 58.5467C43.8938 58.5467 43.8566 58.5485 43.8198 58.5519C41.9488 58.5594 39.6686 58.2189 38.386 56.8824V56.8823C36.6723 55.0968 36.8138 51.5752 37.1172 49.669C39.032 49.4411 42.5489 49.4417 44.2698 51.2349C45.9835 53.0202 45.842 56.5419 45.5386 58.448ZM46.9196 50.8323C46.6632 50.3871 46.3559 49.967 45.9889 49.5847C45.1891 48.7514 44.1985 48.1937 43.1528 47.8276L43.15 45.2322C45.5204 45.3763 45.7184 45.9989 45.7275 46.9457C45.7339 47.5991 46.2672 48.1256 46.9208 48.1256C47.5744 48.1256 48.1058 47.5992 48.1122 46.9457C48.1212 45.9988 48.3194 45.3761 50.6904 45.2322V47.8263C49.6431 48.1924 48.6511 48.7504 47.8503 49.5847C47.4834 49.967 47.176 50.3872 46.9196 50.8323ZM55.453 56.8822C53.7393 58.6679 50.215 58.6707 48.2984 58.446C48.1961 57.8098 48.1118 56.9938 48.1093 56.1223C48.1094 56.089 48.1094 56.0557 48.1093 56.0222C48.1167 54.311 48.4453 52.4059 49.5694 51.2348C51.283 49.4492 54.8069 49.4459 56.724 49.6709C57.0303 51.5748 57.1743 55.0888 55.453 56.8822Z" fill="white"/>
</g>
<defs>
<clipPath id="clip0">
<rect width="61" height="61" fill="white"/>
</clipPath>
</defs>
</svg>
