<svg width="56" height="56" viewBox="0 0 56 56" fill="none" xmlns="http://www.w3.org/2000/svg">
<g clip-path="url(#clip0)">
<mask id="path-1-outside-1" maskUnits="userSpaceOnUse" x="-1" y="-0.78125" width="58" height="57" fill="black">
<rect fill="white" x="-1" y="-0.78125" width="58" height="57"/>
<path d="M56 8.80725V5.3551C56 4.36133 55.1917 3.55298 54.1979 3.55298H53.2225L52.7 1.65515C52.4667 0.809204 51.6917 0.21875 50.8141 0.21875H5.18591C4.30878 0.21875 3.53333 0.809204 3.30005 1.65515L2.77753 3.55298H1.80212C0.80835 3.55298 0 4.36133 0 5.3551V8.80725C0 9.74335 0.716919 10.5141 1.63037 10.6008V28.3452C1.63037 28.7977 1.99738 29.1647 2.44983 29.1647C2.90271 29.1647 3.26929 28.7977 3.26929 28.3452V10.6098H52.7307V47.2039H45.6218V31.5953C45.6218 29.4065 45.221 27.272 44.431 25.2507C44.2665 24.8294 43.791 24.6209 43.3698 24.7858C42.9481 24.9507 42.74 25.4258 42.9045 25.8471C43.6201 27.6779 43.9824 29.6116 43.9824 31.5953V47.2039H41.7633V31.9713C41.7633 24.4598 35.6524 18.3489 28.141 18.3489H27.859C20.3476 18.3489 14.2367 24.4598 14.2367 31.9713V47.2039H12.0172V31.5953C12.0172 22.8837 19.1047 15.7961 27.8167 15.7961H28.1833C33.3961 15.7961 38.271 18.3665 41.2233 22.6718C41.4792 23.0452 41.9893 23.1405 42.3623 22.8842C42.7357 22.6282 42.831 22.1185 42.5751 21.7451C39.3169 16.9937 33.9366 14.1572 28.1833 14.1572H27.8167C18.2011 14.1572 10.3782 21.9801 10.3782 31.5953V47.2039H3.26929V32.1216C3.26929 31.6692 2.90271 31.3022 2.44983 31.3022C1.99738 31.3022 1.63037 31.6692 1.63037 32.1216V47.2124C0.716919 47.2996 0 48.0703 0 49.0064V53.9924C0 54.9861 0.80835 55.7945 1.80212 55.7945H54.1979C55.1917 55.7945 56 54.9861 56 53.9924V49.0064C56 48.0703 55.2831 47.2996 54.3696 47.2124V10.6008C55.2831 10.5141 56 9.74335 56 8.80725ZM4.88 2.09052C4.91803 1.95337 5.04364 1.85767 5.18591 1.85767H50.8141C50.9564 1.85767 51.082 1.95337 51.12 2.09052L51.5054 3.4906H4.49463L4.88 2.09052ZM15.8756 31.9713C15.8756 25.3635 21.2516 19.9879 27.859 19.9879H28.141C34.7488 19.9879 40.1244 25.3635 40.1244 31.9713V47.2039H34.41C34.865 46.7702 35.3375 46.2417 35.7669 45.6107C38.209 42.0244 37.3503 38.0723 36.1997 35.3888C36.0181 34.965 35.637 34.6753 35.1799 34.6133C34.7227 34.5514 34.2784 34.7291 33.9904 35.0889L32.7411 36.6505C32.4694 34.7928 31.5752 31.9738 29.0908 28.1201C28.8511 27.7484 28.4431 27.5262 28 27.5262C27.5569 27.5262 27.1494 27.7484 26.9092 28.1205C24.4248 31.9738 23.5306 34.7928 23.2589 36.6505L22.0096 35.0889C21.7216 34.7291 21.2769 34.551 20.8201 34.6133C20.363 34.6753 19.9819 34.965 19.8003 35.3888C18.6497 38.0723 17.791 42.0244 20.2331 45.6107C20.6629 46.2417 21.135 46.7702 21.59 47.2039H15.8756V31.9713ZM25.8317 44.2191C25.8826 43.1848 26.4905 42.2068 27.6411 41.3109L28 41.0302L28.3585 41.3109C28.3589 41.3113 28.3597 41.3117 28.3602 41.3121C29.5056 42.2038 30.1136 43.1788 30.1674 44.2097C30.2375 45.5547 29.3685 46.7288 28.9579 47.2039H27.0425C26.6337 46.7283 25.7668 45.5543 25.8317 44.2191ZM31.8046 44.1392C31.7299 42.6067 30.91 41.2207 29.368 40.0197L28.9532 39.695C28.3918 39.2558 27.6078 39.2558 27.0468 39.695L26.6328 40.0189C25.09 41.2198 24.2697 42.6063 24.1949 44.1392C24.136 45.3488 24.5632 46.4147 25.0311 47.2039H24.2855C23.3054 46.6536 18.4233 43.4984 21.091 36.5641L22.4962 38.3206C22.8346 38.7435 23.3866 38.911 23.9031 38.7474C24.4193 38.5837 24.7739 38.1287 24.8068 37.5878C24.9781 34.7603 26.767 31.4398 28.0004 29.4603C30.5942 33.6136 31.1168 36.3215 31.1932 37.5878C31.2266 38.1287 31.5812 38.5837 32.0973 38.7474C32.6134 38.911 33.1654 38.7435 33.5042 38.3206L34.909 36.5641C37.578 43.5018 32.6899 46.6566 31.7149 47.2039H30.9689C31.4359 46.4147 31.8636 45.3488 31.8046 44.1392ZM54.3611 53.9924C54.3611 54.0821 54.2876 54.1556 54.1979 54.1556H1.80212C1.7124 54.1556 1.63892 54.0821 1.63892 53.9924V49.006C1.63892 48.9158 1.7124 48.8428 1.80212 48.8428H54.1979C54.2876 48.8428 54.3611 48.9158 54.3611 49.006V53.9924ZM54.3611 8.80725C54.3611 8.8974 54.2876 8.97089 54.1979 8.97089H1.80212C1.7124 8.97089 1.63892 8.8974 1.63892 8.80725V5.3551C1.63892 5.26495 1.7124 5.19189 1.80212 5.19189H54.1979C54.2876 5.19189 54.3611 5.26495 54.3611 5.3551V8.80725Z"/>
</mask>
<path d="M56 8.80725V5.3551C56 4.36133 55.1917 3.55298 54.1979 3.55298H53.2225L52.7 1.65515C52.4667 0.809204 51.6917 0.21875 50.8141 0.21875H5.18591C4.30878 0.21875 3.53333 0.809204 3.30005 1.65515L2.77753 3.55298H1.80212C0.80835 3.55298 0 4.36133 0 5.3551V8.80725C0 9.74335 0.716919 10.5141 1.63037 10.6008V28.3452C1.63037 28.7977 1.99738 29.1647 2.44983 29.1647C2.90271 29.1647 3.26929 28.7977 3.26929 28.3452V10.6098H52.7307V47.2039H45.6218V31.5953C45.6218 29.4065 45.221 27.272 44.431 25.2507C44.2665 24.8294 43.791 24.6209 43.3698 24.7858C42.9481 24.9507 42.74 25.4258 42.9045 25.8471C43.6201 27.6779 43.9824 29.6116 43.9824 31.5953V47.2039H41.7633V31.9713C41.7633 24.4598 35.6524 18.3489 28.141 18.3489H27.859C20.3476 18.3489 14.2367 24.4598 14.2367 31.9713V47.2039H12.0172V31.5953C12.0172 22.8837 19.1047 15.7961 27.8167 15.7961H28.1833C33.3961 15.7961 38.271 18.3665 41.2233 22.6718C41.4792 23.0452 41.9893 23.1405 42.3623 22.8842C42.7357 22.6282 42.831 22.1185 42.5751 21.7451C39.3169 16.9937 33.9366 14.1572 28.1833 14.1572H27.8167C18.2011 14.1572 10.3782 21.9801 10.3782 31.5953V47.2039H3.26929V32.1216C3.26929 31.6692 2.90271 31.3022 2.44983 31.3022C1.99738 31.3022 1.63037 31.6692 1.63037 32.1216V47.2124C0.716919 47.2996 0 48.0703 0 49.0064V53.9924C0 54.9861 0.80835 55.7945 1.80212 55.7945H54.1979C55.1917 55.7945 56 54.9861 56 53.9924V49.0064C56 48.0703 55.2831 47.2996 54.3696 47.2124V10.6008C55.2831 10.5141 56 9.74335 56 8.80725ZM4.88 2.09052C4.91803 1.95337 5.04364 1.85767 5.18591 1.85767H50.8141C50.9564 1.85767 51.082 1.95337 51.12 2.09052L51.5054 3.4906H4.49463L4.88 2.09052ZM15.8756 31.9713C15.8756 25.3635 21.2516 19.9879 27.859 19.9879H28.141C34.7488 19.9879 40.1244 25.3635 40.1244 31.9713V47.2039H34.41C34.865 46.7702 35.3375 46.2417 35.7669 45.6107C38.209 42.0244 37.3503 38.0723 36.1997 35.3888C36.0181 34.965 35.637 34.6753 35.1799 34.6133C34.7227 34.5514 34.2784 34.7291 33.9904 35.0889L32.7411 36.6505C32.4694 34.7928 31.5752 31.9738 29.0908 28.1201C28.8511 27.7484 28.4431 27.5262 28 27.5262C27.5569 27.5262 27.1494 27.7484 26.9092 28.1205C24.4248 31.9738 23.5306 34.7928 23.2589 36.6505L22.0096 35.0889C21.7216 34.7291 21.2769 34.551 20.8201 34.6133C20.363 34.6753 19.9819 34.965 19.8003 35.3888C18.6497 38.0723 17.791 42.0244 20.2331 45.6107C20.6629 46.2417 21.135 46.7702 21.59 47.2039H15.8756V31.9713ZM25.8317 44.2191C25.8826 43.1848 26.4905 42.2068 27.6411 41.3109L28 41.0302L28.3585 41.3109C28.3589 41.3113 28.3597 41.3117 28.3602 41.3121C29.5056 42.2038 30.1136 43.1788 30.1674 44.2097C30.2375 45.5547 29.3685 46.7288 28.9579 47.2039H27.0425C26.6337 46.7283 25.7668 45.5543 25.8317 44.2191ZM31.8046 44.1392C31.7299 42.6067 30.91 41.2207 29.368 40.0197L28.9532 39.695C28.3918 39.2558 27.6078 39.2558 27.0468 39.695L26.6328 40.0189C25.09 41.2198 24.2697 42.6063 24.1949 44.1392C24.136 45.3488 24.5632 46.4147 25.0311 47.2039H24.2855C23.3054 46.6536 18.4233 43.4984 21.091 36.5641L22.4962 38.3206C22.8346 38.7435 23.3866 38.911 23.9031 38.7474C24.4193 38.5837 24.7739 38.1287 24.8068 37.5878C24.9781 34.7603 26.767 31.4398 28.0004 29.4603C30.5942 33.6136 31.1168 36.3215 31.1932 37.5878C31.2266 38.1287 31.5812 38.5837 32.0973 38.7474C32.6134 38.911 33.1654 38.7435 33.5042 38.3206L34.909 36.5641C37.578 43.5018 32.6899 46.6566 31.7149 47.2039H30.9689C31.4359 46.4147 31.8636 45.3488 31.8046 44.1392ZM54.3611 53.9924C54.3611 54.0821 54.2876 54.1556 54.1979 54.1556H1.80212C1.7124 54.1556 1.63892 54.0821 1.63892 53.9924V49.006C1.63892 48.9158 1.7124 48.8428 1.80212 48.8428H54.1979C54.2876 48.8428 54.3611 48.9158 54.3611 49.006V53.9924ZM54.3611 8.80725C54.3611 8.8974 54.2876 8.97089 54.1979 8.97089H1.80212C1.7124 8.97089 1.63892 8.8974 1.63892 8.80725V5.3551C1.63892 5.26495 1.7124 5.19189 1.80212 5.19189H54.1979C54.2876 5.19189 54.3611 5.26495 54.3611 5.3551V8.80725Z" fill="white"/>
<path d="M56 8.80725V5.3551C56 4.36133 55.1917 3.55298 54.1979 3.55298H53.2225L52.7 1.65515C52.4667 0.809204 51.6917 0.21875 50.8141 0.21875H5.18591C4.30878 0.21875 3.53333 0.809204 3.30005 1.65515L2.77753 3.55298H1.80212C0.80835 3.55298 0 4.36133 0 5.3551V8.80725C0 9.74335 0.716919 10.5141 1.63037 10.6008V28.3452C1.63037 28.7977 1.99738 29.1647 2.44983 29.1647C2.90271 29.1647 3.26929 28.7977 3.26929 28.3452V10.6098H52.7307V47.2039H45.6218V31.5953C45.6218 29.4065 45.221 27.272 44.431 25.2507C44.2665 24.8294 43.791 24.6209 43.3698 24.7858C42.9481 24.9507 42.74 25.4258 42.9045 25.8471C43.6201 27.6779 43.9824 29.6116 43.9824 31.5953V47.2039H41.7633V31.9713C41.7633 24.4598 35.6524 18.3489 28.141 18.3489H27.859C20.3476 18.3489 14.2367 24.4598 14.2367 31.9713V47.2039H12.0172V31.5953C12.0172 22.8837 19.1047 15.7961 27.8167 15.7961H28.1833C33.3961 15.7961 38.271 18.3665 41.2233 22.6718C41.4792 23.0452 41.9893 23.1405 42.3623 22.8842C42.7357 22.6282 42.831 22.1185 42.5751 21.7451C39.3169 16.9937 33.9366 14.1572 28.1833 14.1572H27.8167C18.2011 14.1572 10.3782 21.9801 10.3782 31.5953V47.2039H3.26929V32.1216C3.26929 31.6692 2.90271 31.3022 2.44983 31.3022C1.99738 31.3022 1.63037 31.6692 1.63037 32.1216V47.2124C0.716919 47.2996 0 48.0703 0 49.0064V53.9924C0 54.9861 0.80835 55.7945 1.80212 55.7945H54.1979C55.1917 55.7945 56 54.9861 56 53.9924V49.0064C56 48.0703 55.2831 47.2996 54.3696 47.2124V10.6008C55.2831 10.5141 56 9.74335 56 8.80725ZM4.88 2.09052C4.91803 1.95337 5.04364 1.85767 5.18591 1.85767H50.8141C50.9564 1.85767 51.082 1.95337 51.12 2.09052L51.5054 3.4906H4.49463L4.88 2.09052ZM15.8756 31.9713C15.8756 25.3635 21.2516 19.9879 27.859 19.9879H28.141C34.7488 19.9879 40.1244 25.3635 40.1244 31.9713V47.2039H34.41C34.865 46.7702 35.3375 46.2417 35.7669 45.6107C38.209 42.0244 37.3503 38.0723 36.1997 35.3888C36.0181 34.965 35.637 34.6753 35.1799 34.6133C34.7227 34.5514 34.2784 34.7291 33.9904 35.0889L32.7411 36.6505C32.4694 34.7928 31.5752 31.9738 29.0908 28.1201C28.8511 27.7484 28.4431 27.5262 28 27.5262C27.5569 27.5262 27.1494 27.7484 26.9092 28.1205C24.4248 31.9738 23.5306 34.7928 23.2589 36.6505L22.0096 35.0889C21.7216 34.7291 21.2769 34.551 20.8201 34.6133C20.363 34.6753 19.9819 34.965 19.8003 35.3888C18.6497 38.0723 17.791 42.0244 20.2331 45.6107C20.6629 46.2417 21.135 46.7702 21.59 47.2039H15.8756V31.9713ZM25.8317 44.2191C25.8826 43.1848 26.4905 42.2068 27.6411 41.3109L28 41.0302L28.3585 41.3109C28.3589 41.3113 28.3597 41.3117 28.3602 41.3121C29.5056 42.2038 30.1136 43.1788 30.1674 44.2097C30.2375 45.5547 29.3685 46.7288 28.9579 47.2039H27.0425C26.6337 46.7283 25.7668 45.5543 25.8317 44.2191ZM31.8046 44.1392C31.7299 42.6067 30.91 41.2207 29.368 40.0197L28.9532 39.695C28.3918 39.2558 27.6078 39.2558 27.0468 39.695L26.6328 40.0189C25.09 41.2198 24.2697 42.6063 24.1949 44.1392C24.136 45.3488 24.5632 46.4147 25.0311 47.2039H24.2855C23.3054 46.6536 18.4233 43.4984 21.091 36.5641L22.4962 38.3206C22.8346 38.7435 23.3866 38.911 23.9031 38.7474C24.4193 38.5837 24.7739 38.1287 24.8068 37.5878C24.9781 34.7603 26.767 31.4398 28.0004 29.4603C30.5942 33.6136 31.1168 36.3215 31.1932 37.5878C31.2266 38.1287 31.5812 38.5837 32.0973 38.7474C32.6134 38.911 33.1654 38.7435 33.5042 38.3206L34.909 36.5641C37.578 43.5018 32.6899 46.6566 31.7149 47.2039H30.9689C31.4359 46.4147 31.8636 45.3488 31.8046 44.1392ZM54.3611 53.9924C54.3611 54.0821 54.2876 54.1556 54.1979 54.1556H1.80212C1.7124 54.1556 1.63892 54.0821 1.63892 53.9924V49.006C1.63892 48.9158 1.7124 48.8428 1.80212 48.8428H54.1979C54.2876 48.8428 54.3611 48.9158 54.3611 49.006V53.9924ZM54.3611 8.80725C54.3611 8.8974 54.2876 8.97089 54.1979 8.97089H1.80212C1.7124 8.97089 1.63892 8.8974 1.63892 8.80725V5.3551C1.63892 5.26495 1.7124 5.19189 1.80212 5.19189H54.1979C54.2876 5.19189 54.3611 5.26495 54.3611 5.3551V8.80725Z" stroke="white" stroke-width="0.4" mask="url(#path-1-outside-1)"/>
</g>
<defs>
<clipPath id="clip0">
<rect width="56" height="56" fill="white"/>
</clipPath>
</defs>
</svg>
