<svg width="62" height="62" viewBox="0 0 62 62" fill="none" xmlns="http://www.w3.org/2000/svg">
<path d="M14.4668 37.389H28.9335V27.0557H14.4668V37.389ZM16.5335 35.3223V32.2223H26.8668V35.3223H16.5335ZM26.8668 29.1223V30.1557H16.5335V29.1223H26.8668Z" fill="white"/>
<path d="M14.4668 41.5215V53.9215H28.9335V41.5215H14.4668ZM20.6668 43.5882V46.6882H16.5335V43.5882H20.6668ZM16.5335 48.7548H20.6668V51.8548H16.5335V48.7548ZM22.7335 51.8548V48.7548H26.8668V51.8548H22.7335ZM26.8668 46.6882H22.7335V43.5882H26.8668V46.6882Z" fill="white"/>
<path d="M33.0664 37.389H47.5331V27.0557H33.0664V37.389ZM35.1331 35.3223V34.289H45.4664V35.3223H35.1331ZM45.4664 29.1223V32.2223H35.1331V29.1223H45.4664Z" fill="white"/>
<path d="M60.9667 49.7885C60.3952 49.7885 59.9333 50.2514 59.9333 50.8218V51.8552H58.9V50.8218C58.9 50.2514 58.4381 49.7885 57.8667 49.7885C57.2952 49.7885 56.8333 50.2514 56.8333 50.8218V51.8552H55.8V30.9777C56.3384 31.2195 56.9088 31.3528 57.4802 31.3528C58.589 31.3528 59.6905 30.9023 60.5048 30.026C61.2901 29.1807 61.6879 28.0368 61.597 26.8867C61.505 25.7377 60.9315 24.6702 60.0243 23.9593L33.8127 3.45694L31 0.845703L28.2544 3.4001L1.97677 23.9593C1.06847 24.6702 0.494967 25.7377 0.404033 26.8867C0.3131 28.0368 0.710933 29.1807 1.49627 30.026C2.73007 31.3549 4.61797 31.6897 6.20103 30.9787V51.8562H5.16667V50.8229C5.16667 50.2525 4.70477 49.7895 4.13333 49.7895C3.5619 49.7895 3.1 50.2525 3.1 50.8229V51.8562H2.06667V50.8229C2.06667 50.2525 1.60477 49.7895 1.03333 49.7895C0.4619 49.7895 0 50.2525 0 50.8229V60.1229C0 60.6933 0.4619 61.1562 1.03333 61.1562C1.60477 61.1562 2.06667 60.6933 2.06667 60.1229V59.0895H3.1V60.1229C3.1 60.6933 3.5619 61.1562 4.13333 61.1562C4.70477 61.1562 5.16667 60.6933 5.16667 60.1229V59.0895H6.2V61.1562H33.0667H47.5333H55.8V59.0895H56.8333V60.1229C56.8333 60.6933 57.2952 61.1562 57.8667 61.1562C58.4381 61.1562 58.9 60.6933 58.9 60.1229V59.0895H59.9333V60.1229C59.9333 60.6933 60.3952 61.1562 60.9667 61.1562C61.5381 61.1562 62 60.6933 62 60.1229V50.8229C62 50.2514 61.5381 49.7885 60.9667 49.7885ZM3.00907 28.6186C2.61123 28.1898 2.418 27.6328 2.4645 27.05C2.511 26.4672 2.78897 25.9474 3.25087 25.5868L29.5947 4.9718L31.001 3.66464L32.4725 5.0276L58.7502 25.5868C59.211 25.9474 59.49 26.4672 59.5365 27.05C59.583 27.6328 59.3888 28.1908 58.992 28.6186C58.2604 29.406 57.0689 29.5052 56.2164 28.849L55.8 28.5287L31 9.41204L6.603 28.2187L6.60197 28.2197L5.7846 28.849C4.93107 29.5052 3.74067 29.406 3.00907 28.6186ZM2.06667 57.0218V53.9218H3.1V57.0218H2.06667ZM5.16667 57.0218V53.9218H6.2V57.0218H5.16667ZM35.1333 59.0885V43.5885H45.4667V59.0885H35.1333ZM53.7333 59.0885H47.5333V41.5218H33.0667V59.0885H8.26667V29.5445L31 12.0202L53.7333 29.5445V59.0885ZM55.8 57.0218V53.9218H56.8333V57.0218H55.8ZM58.9 57.0218V53.9218H59.9333V57.0218H58.9Z" fill="white"/>
</svg>
