<svg width="77" height="65" viewBox="0 0 77 65" fill="none" xmlns="http://www.w3.org/2000/svg">
<g clip-path="url(#clip0)">
<path d="M23.3936 65.0002C23.1908 65.0002 22.9879 64.9569 22.806 64.8663C22.3187 64.6262 22.1042 64.1282 22.2977 63.6794L34.4762 35.4163L19.7562 31.8713C19.3761 31.7808 19.0753 31.5328 18.9587 31.2139C18.8445 30.895 18.9261 30.5466 19.1826 30.2907L49.0401 0.34858C49.3945 -0.00768681 49.9961 -0.100198 50.4811 0.114349C50.9661 0.332833 51.2063 0.811137 51.0524 1.25598L42.4437 26.4643L57.243 30.029C57.6254 30.1195 57.9262 30.3695 58.0405 30.6903C58.1571 31.0112 58.0685 31.3615 57.8096 31.6154L24.2797 64.6577C24.0512 64.8801 23.7247 65.0002 23.3936 65.0002ZM22.1252 30.3951L36.3183 33.8101C36.6307 33.8849 36.8896 34.066 37.0388 34.3081C37.1857 34.5522 37.2067 34.8356 37.0948 35.0915L26.6813 59.2586L54.8554 31.4954L40.6809 28.0842C40.3825 28.0134 40.1306 27.8441 39.9791 27.6158C39.8275 27.3875 39.7925 27.1178 39.8788 26.8659L47.2936 5.1572L22.1252 30.3951Z" fill="white"/>
</g>
<defs>
<clipPath id="clip0">
<rect width="77" height="65" fill="white"/>
</clipPath>
</defs>
</svg>
