<svg width="72" height="45" viewBox="0 0 72 45" fill="none" xmlns="http://www.w3.org/2000/svg">
<path d="M70.8 14.2105H63.6C62.9373 14.2105 62.4 14.7408 62.4 15.3947V18.9474H46.2732L44.4891 12.7054C44.3432 12.1948 43.8709 11.8421 43.333 11.8421H39.6V7.10526H48C49.9881 7.10526 51.6 5.51456 51.6 3.55263C51.6 1.5907 49.9881 0 48 0H24C22.0119 0 20.4 1.5907 20.4 3.55263C20.4 5.51456 22.0119 7.10526 24 7.10526H32.4V11.8421H28.667C28.1291 11.8421 27.6568 12.1948 27.5109 12.7054L25.7268 18.9474H15.6C6.98848 18.9572 0.00996093 25.8439 0 34.3421V43.8158C0 44.4698 0.537305 45 1.2 45H15.6C16.2627 45 16.8 44.4698 16.8 43.8158V39.0789C16.8 37.117 18.4119 35.5263 20.4 35.5263H21.8062C22.8686 40.8992 28.1666 45 34.5334 45H37.4666C43.8357 45 49.1314 40.8992 50.1938 35.5263H62.4V39.0789C62.4 39.7329 62.9373 40.2632 63.6 40.2632H70.8C71.4627 40.2632 72 39.7329 72 39.0789V15.3947C72 14.7408 71.4627 14.2105 70.8 14.2105ZM22.8 3.55263C22.8 2.89866 23.3373 2.36842 24 2.36842H48C48.6627 2.36842 49.2 2.89866 49.2 3.55263C49.2 4.20661 48.6627 4.73684 48 4.73684H24C23.3373 4.73684 22.8 4.20661 22.8 3.55263ZM34.8 7.10526H37.2V11.8421H34.8V7.10526ZM14.4 39.0789V42.6316H2.4V34.3421C2.40879 27.1513 8.31328 21.3245 15.6 21.3158H25.05L21.6662 33.1579H20.4C17.0877 33.1619 14.4041 35.8102 14.4 39.0789ZM37.4666 42.6316H34.5334C28.7865 42.6316 24.0996 38.6441 24.0012 33.7107L29.5752 14.2105H42.4248L48 33.7107C47.9004 38.6441 43.2135 42.6316 37.4666 42.6316ZM50.3338 33.1579L46.95 21.3158H62.4V33.1579H50.3338ZM69.6 37.8947H64.8V16.5789H69.6V37.8947Z" fill="white"/>
</svg>
