<svg width="61" height="61" viewBox="0 0 61 61" fill="none" xmlns="http://www.w3.org/2000/svg">
<g clip-path="url(#clip0)">
<path d="M60.3605 37.6866C59.9729 37.5326 59.5303 37.6289 59.2422 37.9305L54.9001 42.4946V15.385H54.9052L59.0481 10.9116C59.4293 10.4997 59.4042 9.8561 58.9918 9.47495C58.9918 9.47495 58.9914 9.47448 58.9909 9.47401L57.4998 8.08621L59.5717 5.84953C59.9524 5.4372 59.9268 4.79402 59.5145 4.41333L55.0411 0.270403C54.6292 -0.110754 53.9861 -0.0860883 53.6049 0.32625L46.3764 8.13136H11.1834C11.1801 5.32504 8.90623 3.05113 6.09991 3.04787H5.08349C2.27717 3.05113 0.00325776 5.32504 0 8.13136V51.848C0 52.4093 0.455154 52.8645 1.01688 52.8645H16.407L14.2717 55.4283C13.9129 55.8602 13.9716 56.501 14.403 56.8599L19.0909 60.7631C19.5223 61.1224 20.1636 61.0638 20.5229 60.6323L20.5234 60.6319L25.7269 54.3802C26.0862 53.9474 26.3175 53.422 26.3938 52.8645H45.0231L38.9129 59.2808C38.5262 59.6876 38.5425 60.3312 38.9492 60.718C39.1382 60.8976 39.389 60.9981 39.6501 60.9977H59.9831C60.5448 60.9977 61 60.5425 61 59.9813V38.6314C61 38.2153 60.7468 37.8411 60.3605 37.6866ZM56.8654 10.2661L54.9001 12.392V10.8967L56.1199 9.575L56.8654 10.2661ZM52.8668 10.0851V10.0995L44.2687 19.392L41.2827 16.6294L51.6405 5.4358L54.6264 8.19837L52.8789 10.0851H52.8668ZM42.3159 20.3535L39.9773 21.0358L40.4766 18.6506L42.3159 20.3535ZM54.4031 2.45123L57.3876 5.21241L56.0063 6.70772L53.0213 3.94375L54.4031 2.45123ZM5.08349 5.08117H6.09991C7.78463 5.08117 9.15009 6.44663 9.15009 8.13136V46.7911C8.27515 46.1181 7.20335 45.7514 6.09991 45.7477H5.08349C3.97958 45.7514 2.90824 46.1181 2.0333 46.7911V8.13136C2.0333 6.44663 3.39877 5.08117 5.08349 5.08117ZM5.08349 47.781H6.09991C7.78463 47.781 9.15009 49.1469 9.15009 50.8312H2.0333C2.0333 49.1469 3.39877 47.781 5.08349 47.781ZM24.1651 53.0799L23.5145 53.8609L20.3893 51.2593L21.039 50.4775C21.3983 50.046 22.0392 49.9874 22.4706 50.3467C22.471 50.3467 22.471 50.3472 22.4715 50.3472L24.0338 51.6447C24.4657 52.0035 24.5248 52.6443 24.166 53.0762C24.1655 53.0767 24.1655 53.0767 24.1651 53.0771V53.0799ZM19.6117 58.5497L16.4861 55.9482L19.0881 52.8216L22.2132 55.4237L19.6117 58.5497ZM25.9666 50.8312C25.7977 50.5496 25.5841 50.2978 25.3341 50.0851L23.7718 48.7848C22.4771 47.707 20.5541 47.8824 19.4762 49.1772L18.0968 50.8312H11.1834V10.1647H44.4953L39.1 15.9951C39.0227 16.0821 38.9613 16.1827 38.919 16.2911C38.9069 16.3204 38.8976 16.3479 38.8873 16.3786C38.8775 16.4088 38.8622 16.4396 38.8547 16.4721L37.641 22.2751C37.5265 22.8247 37.8793 23.3632 38.4289 23.4777C38.5923 23.5117 38.7612 23.5051 38.9208 23.4586L44.6144 21.7995C44.641 21.7911 44.6633 21.7757 44.6884 21.7669C44.714 21.7576 44.7406 21.7446 44.768 21.7311C44.882 21.6794 44.9854 21.6063 45.0729 21.5165L52.8668 13.0934V44.6293L46.96 50.8312H25.9666ZM58.9667 58.9644H42.0217L58.9667 41.1729V58.9644Z" fill="white"/>
<path d="M47.8606 56.3035C48.0179 56.6833 48.3888 56.9309 48.8002 56.9309H55.9165C56.4782 56.9309 56.9334 56.4757 56.9334 55.9145V48.7977C56.9334 48.2359 56.4778 47.7812 55.9165 47.7812C55.6471 47.7812 55.3883 47.8883 55.1979 48.0791L48.0812 55.1954C47.7903 55.4863 47.7033 55.9238 47.8606 56.3035ZM54.9001 51.2517V54.8976H51.2542L54.9001 51.2517Z" fill="white"/>
<path d="M44.7331 38.6311H37.6168V27.4477C37.6154 27.1778 37.5079 26.919 37.3175 26.7277L31.2176 20.6278C30.8207 20.2308 30.177 20.2308 29.78 20.6278L23.6801 26.7277C23.4907 26.9195 23.3841 27.1782 23.3832 27.4477V38.6311H16.2669C15.7052 38.6311 15.25 39.0862 15.25 39.6475C15.25 40.2092 15.7052 40.6644 16.2669 40.6644H44.7336C45.2948 40.6644 45.75 40.2092 45.75 39.6475C45.75 39.0862 45.2948 38.6311 44.7331 38.6311ZM30.5 22.7849L34.1459 26.4308H26.8541L30.5 22.7849ZM25.4165 28.4641H35.5835V38.6311H25.4165V28.4641Z" fill="white"/>
<path d="M29.4834 16.2646H31.5172V18.298H29.4834V16.2646Z" fill="white"/>
<path d="M29.4834 42.6982H31.5172V44.7315H29.4834V42.6982Z" fill="white"/>
</g>
<defs>
<clipPath id="clip0">
<rect width="61" height="61" fill="white"/>
</clipPath>
</defs>
</svg>
