<svg width="395" height="395" viewBox="0 0 395 395" fill="none" xmlns="http://www.w3.org/2000/svg">
<g filter="url(#filter0_f)">
<circle cx="197.5" cy="197.5" r="184.5" fill="#0E243E" fill-opacity="0.1"/>
<circle cx="197.5" cy="197.5" r="184.5" stroke="#7BD7FF" stroke-width="6"/>
</g>
<g filter="url(#filter1_f)">
<circle cx="197.5" cy="197.5" r="184.5" fill="#0E243E" fill-opacity="0.1"/>
<circle cx="197.5" cy="197.5" r="183" stroke="white" stroke-width="3"/>
</g>
<g filter="url(#filter2_f)">
<path d="M157.848 230.666H157.858C157.867 230.666 157.875 230.664 157.884 230.664H276.334C279.25 230.664 281.814 228.73 282.615 225.926L308.748 134.461C309.311 132.489 308.917 130.369 307.683 128.732C306.448 127.096 304.517 126.133 302.467 126.133H142.781L138.111 105.116C137.446 102.127 134.795 100 131.732 100H92.5332C88.9246 100 86 102.925 86 106.533C86 110.142 88.9246 113.066 92.5332 113.066H126.492C127.319 116.791 148.841 213.642 150.08 219.214C143.137 222.232 138.266 229.155 138.266 237.197C138.266 248.004 147.058 256.797 157.865 256.797H276.334C279.943 256.797 282.867 253.872 282.867 250.264C282.867 246.655 279.943 243.73 276.334 243.73H157.865C154.263 243.73 151.332 240.799 151.332 237.197C151.332 233.601 154.253 230.674 157.848 230.666ZM293.805 139.199L271.405 217.598H163.105L145.684 139.199H293.805Z" fill="white"/>
<path d="M151.332 276.396C151.332 287.203 160.125 295.996 170.932 295.996C181.739 295.996 190.531 287.203 190.531 276.396C190.531 265.589 181.739 256.797 170.932 256.797C160.125 256.797 151.332 265.589 151.332 276.396ZM170.932 269.863C174.533 269.863 177.465 272.795 177.465 276.396C177.465 279.998 174.533 282.93 170.932 282.93C167.33 282.93 164.398 279.998 164.398 276.396C164.398 272.795 167.33 269.863 170.932 269.863Z" fill="white"/>
<path d="M243.668 276.396C243.668 287.203 252.461 295.996 263.268 295.996C274.075 295.996 282.867 287.203 282.867 276.396C282.867 265.589 274.075 256.797 263.268 256.797C252.461 256.797 243.668 265.589 243.668 276.396ZM263.268 269.863C266.869 269.863 269.801 272.795 269.801 276.396C269.801 279.998 266.869 282.93 263.268 282.93C259.666 282.93 256.734 279.998 256.734 276.396C256.734 272.795 259.666 269.863 263.268 269.863Z" fill="white"/>
</g>
<path d="M157.848 230.666H157.858C157.867 230.666 157.875 230.664 157.884 230.664H276.334C279.25 230.664 281.814 228.73 282.615 225.926L308.748 134.461C309.311 132.489 308.917 130.369 307.683 128.732C306.448 127.096 304.517 126.133 302.467 126.133H142.781L138.111 105.116C137.446 102.127 134.795 100 131.732 100H92.5332C88.9246 100 86 102.925 86 106.533C86 110.142 88.9246 113.066 92.5332 113.066H126.492C127.319 116.791 148.841 213.642 150.08 219.214C143.137 222.232 138.266 229.155 138.266 237.197C138.266 248.004 147.058 256.797 157.865 256.797H276.334C279.943 256.797 282.867 253.872 282.867 250.264C282.867 246.655 279.943 243.73 276.334 243.73H157.865C154.263 243.73 151.332 240.799 151.332 237.197C151.332 233.601 154.253 230.674 157.848 230.666ZM293.805 139.199L271.405 217.598H163.105L145.684 139.199H293.805Z" fill="white"/>
<path d="M151.332 276.396C151.332 287.203 160.125 295.996 170.932 295.996C181.739 295.996 190.531 287.203 190.531 276.396C190.531 265.589 181.739 256.797 170.932 256.797C160.125 256.797 151.332 265.589 151.332 276.396ZM170.932 269.863C174.533 269.863 177.465 272.795 177.465 276.396C177.465 279.998 174.533 282.93 170.932 282.93C167.33 282.93 164.398 279.998 164.398 276.396C164.398 272.795 167.33 269.863 170.932 269.863Z" fill="white"/>
<path d="M243.668 276.396C243.668 287.203 252.461 295.996 263.268 295.996C274.075 295.996 282.867 287.203 282.867 276.396C282.867 265.589 274.075 256.797 263.268 256.797C252.461 256.797 243.668 265.589 243.668 276.396ZM263.268 269.863C266.869 269.863 269.801 272.795 269.801 276.396C269.801 279.998 266.869 282.93 263.268 282.93C259.666 282.93 256.734 279.998 256.734 276.396C256.734 272.795 259.666 269.863 263.268 269.863Z" fill="white"/>
<defs>
<filter id="filter0_f" x="0" y="0" width="395" height="395" filterUnits="userSpaceOnUse" color-interpolation-filters="sRGB">
<feFlood flood-opacity="0" result="BackgroundImageFix"/>
<feBlend mode="normal" in="SourceGraphic" in2="BackgroundImageFix" result="shape"/>
<feGaussianBlur stdDeviation="5" result="effect1_foregroundBlur"/>
</filter>
<filter id="filter1_f" x="10" y="10" width="375" height="375" filterUnits="userSpaceOnUse" color-interpolation-filters="sRGB">
<feFlood flood-opacity="0" result="BackgroundImageFix"/>
<feBlend mode="normal" in="SourceGraphic" in2="BackgroundImageFix" result="shape"/>
<feGaussianBlur stdDeviation="1.5" result="effect1_foregroundBlur"/>
</filter>
<filter id="filter2_f" x="61" y="75" width="273" height="245.996" filterUnits="userSpaceOnUse" color-interpolation-filters="sRGB">
<feFlood flood-opacity="0" result="BackgroundImageFix"/>
<feBlend mode="normal" in="SourceGraphic" in2="BackgroundImageFix" result="shape"/>
<feGaussianBlur stdDeviation="12.5" result="effect1_foregroundBlur"/>
</filter>
</defs>
</svg>
