<svg width="55" height="55" viewBox="0 0 55 55" fill="none" xmlns="http://www.w3.org/2000/svg">
<g clip-path="url(#clip0)">
<path d="M0.174761 5.04545L3.84282 11.4642C3.96655 11.6811 4.17364 11.838 4.41582 11.8987L7.83793 12.7543L19.575 24.4914L20.8719 23.1949L8.9511 11.2744C8.83379 11.1567 8.68667 11.0734 8.5256 11.033L5.23739 10.208L2.11441 4.7399L4.7919 2.06241L10.2623 5.18841L11.0877 8.47662C11.1276 8.63807 11.2114 8.78556 11.3287 8.90287L23.2495 20.8237L24.546 19.5268L12.8089 7.7897L11.9534 4.36948C11.8926 4.12692 11.7357 3.91946 11.5188 3.79535L5.09971 0.127667C4.74173 -0.0760303 4.29133 -0.0156755 3.99937 0.275159L0.331684 3.94322C0.0366998 4.2333 -0.0274271 4.68445 0.174761 5.04545Z" fill="white"/>
<path d="M38.2972 18.0719L18.124 38.2454L16.8271 36.9486L37.0007 16.7754L38.2972 18.0719Z" fill="white"/>
<path d="M14.5933 38.9594C14.4273 38.6833 14.1293 38.5146 13.8072 38.5146H8.30547C7.98371 38.5146 7.68533 38.6833 7.51973 38.9594L4.76868 43.5441C4.59403 43.8345 4.59403 44.1978 4.76868 44.4886L7.51973 49.0733C7.68533 49.3491 7.98371 49.5181 8.30547 49.5181H13.8072C14.1293 49.5181 14.4273 49.3491 14.5933 49.0733L17.344 44.4886C17.5186 44.1978 17.5186 43.8345 17.344 43.5441L14.5933 38.9594ZM13.2885 47.684H8.82452L6.62384 44.0164L8.82452 40.3483H13.2885L15.4892 44.0164L13.2885 47.684Z" fill="white"/>
<path d="M44.0673 22.0091C50.1235 22.0295 55.0499 17.1362 55.0703 11.08C55.0733 10.1581 54.9602 9.23992 54.7335 8.34629C54.6112 7.85478 54.1137 7.55565 53.6222 7.67786C53.4607 7.71823 53.3136 7.80159 53.1959 7.91891L47.4879 13.6232L42.959 12.1139L41.4486 7.5862L47.1567 1.87701C47.5146 1.51866 47.5143 0.938119 47.1559 0.580139C47.0378 0.46207 46.8892 0.378328 46.7266 0.338343C40.8534 -1.14903 34.8869 2.40625 33.3995 8.27915C33.1736 9.17014 33.0608 10.086 33.0638 11.0053C33.0661 11.7273 33.1404 12.447 33.2867 13.1539L13.2048 33.2355C12.4979 33.0895 11.7782 33.0152 11.0566 33.0125C4.9792 33.0125 0.0527344 37.939 0.0527344 44.0164C0.0527344 50.0933 4.9792 55.0198 11.0566 55.0198C17.1335 55.0198 22.06 50.0933 22.06 44.0164C22.0577 43.2944 21.983 42.5746 21.8371 41.8677L26.6447 37.0601L28.7473 39.1627C29.1057 39.5207 29.6858 39.5207 30.0442 39.1627L30.5025 38.704C30.9046 38.3045 31.5546 38.3045 31.9567 38.704C32.3584 39.1046 32.3592 39.7549 31.9586 40.1567C31.9582 40.157 31.9574 40.1578 31.9567 40.1586L31.4984 40.6169C31.1404 40.9749 31.1404 41.5554 31.4984 41.9134L42.4369 52.8519C45.314 55.7554 49.9998 55.7765 52.9032 52.8995C55.8063 50.0224 55.8274 45.3362 52.9504 42.4332C52.9349 42.4173 52.919 42.4015 52.9032 42.3856L41.9646 31.4475C41.6067 31.0895 41.0261 31.0895 40.6681 31.4475L40.2098 31.9058C39.8073 32.3056 39.1578 32.3056 38.7553 31.9058C38.3539 31.5052 38.3528 30.8549 38.7534 30.4535C38.7541 30.4527 38.7549 30.4524 38.7553 30.4516L39.214 29.9929C39.5719 29.6349 39.5719 29.0544 39.214 28.6964L37.1114 26.5938L41.919 21.7862C42.6259 21.9322 43.3456 22.0068 44.0673 22.0091ZM47.6701 53.1861C47.0039 53.185 46.3434 53.0647 45.7198 52.8304L52.8813 45.6686C53.9621 48.5433 52.5079 51.7497 49.6331 52.8304C49.0058 53.0662 48.3408 53.1869 47.6701 53.1861ZM37.2819 29.3539C36.2664 30.5652 36.4256 32.3705 37.6368 33.3856C38.7013 34.2777 40.2528 34.277 41.3162 33.383L51.6067 43.6825C51.7184 43.7946 51.8228 43.9126 51.9239 44.0326L44.0839 51.8727C43.9635 51.7719 43.8454 51.6675 43.7334 51.5554L33.435 41.2563C34.4505 40.045 34.2913 38.2397 33.08 37.2246C32.0155 36.3321 30.4636 36.3332 29.4003 37.2268L27.9333 35.7598L35.8145 27.8903L37.2819 29.3539ZM40.9846 20.1313L20.183 40.9288C19.9547 41.1567 19.8631 41.4875 19.9408 41.8002C21.1988 46.7406 18.2135 51.7655 13.2727 53.0232C8.33229 54.2812 3.30737 51.2959 2.04935 46.3551C0.791704 41.4147 3.777 36.3898 8.7178 35.1318C10.2123 34.7515 11.7782 34.7515 13.2727 35.1318C13.5854 35.2083 13.9155 35.1167 14.1441 34.89L34.9408 14.0921C35.1687 13.8642 35.2603 13.5334 35.1819 13.2211C33.9325 8.33837 36.8779 3.3674 41.7606 2.11768C42.6832 1.88192 43.6376 1.79138 44.5882 1.85061L39.7511 6.68955C39.5056 6.93475 39.4196 7.29801 39.5293 7.62732L41.363 13.1294C41.4546 13.4029 41.6697 13.6179 41.9435 13.7088L47.4456 15.5428C47.7745 15.6526 48.1378 15.567 48.3834 15.3218L53.2204 10.4847C53.2314 10.6598 53.237 10.8329 53.237 11.0053C53.2627 16.0438 49.1993 20.1491 44.1608 20.1751C43.3818 20.1789 42.6055 20.083 41.8511 19.8899C41.5384 19.8118 41.2076 19.9031 40.9797 20.1309H40.9846V20.1313Z" fill="white"/>
<path d="M47.4673 46.1186L46.1704 47.4155L37.001 38.2461L38.2975 36.9492L47.4673 46.1186Z" fill="white"/>
</g>
<defs>
<clipPath id="clip0">
<rect width="55" height="55" fill="white"/>
</clipPath>
</defs>
</svg>
