<svg width="86" height="86" fill="none" xmlns="http://www.w3.org/2000/svg">
<g clip-path="url(#clip0)">
<mask id="path-1-outside-1" maskUnits="userSpaceOnUse" x="1.17493" y="1.30844" width="83.4386" height="83.4386" fill="black">
</mask>
<path d="M76.3784 43.4182L74.3367 41.3765L77.2716 38.4416C78.4213 37.292 78.4213 35.4213 77.2717 34.2717L50.3539 7.35388C49.2042 6.20422 47.3336 6.20422 46.1839 7.35388L43.2491 10.2887L41.3327 8.37236C40.9848 8.02441 40.4209 8.02441 40.073 8.37236C39.725 8.7203 39.725 9.28417 40.073 9.63212L41.9893 11.5485L39.0545 14.4833C37.9048 15.633 37.9048 17.5036 39.0544 18.6532L39.9675 19.5663L37.9599 21.5738C36.5805 22.9533 36.5805 25.1978 37.9599 26.5773C38.4117 27.0291 38.9566 27.332 39.5333 27.4878L36.5064 30.5147C35.127 31.8941 35.127 34.1387 36.5065 35.5182C37.886 36.8977 40.1306 36.8977 41.51 35.5183L48.7148 28.3136L51.1013 30.7001C51.4493 31.0481 52.0132 31.0481 52.3611 30.7001C52.709 30.3522 52.709 29.7883 52.3611 29.4404L51.4877 28.567C52.0981 28.4116 52.6757 28.0961 53.1525 27.6193L56.3199 24.4519C56.4755 25.0621 56.7916 25.6396 57.2682 26.1162C58.6831 27.5311 60.9853 27.5311 62.4002 26.1161L64.4983 24.018L76.012 35.5317C76.4669 35.9866 76.4669 36.7268 76.0119 37.1819L68.8823 44.3115C68.4274 44.7664 67.6871 44.7666 67.2321 44.3115L55.3006 32.3801C54.9527 32.0321 54.3888 32.0321 54.0409 32.3801C53.6929 32.728 53.6929 33.2919 54.0409 33.6398L65.9723 45.5713C67.122 46.721 68.9925 46.7208 70.1421 45.5711L73.0769 42.6364L75.1185 44.678C75.4598 45.0193 75.4599 45.5747 75.1186 45.9159L68.6912 52.3433C68.1332 52.9014 67.2587 53.0288 66.5644 52.6533L44.641 40.7928C43.8509 40.3653 42.8553 40.5103 42.22 41.1456L41.1149 42.2506L38.2938 39.4295C37.4075 38.5432 35.9653 38.5432 35.0789 39.4295L34.2114 40.297C33.399 41.1095 33.3336 42.3878 34.0106 43.2782L21.1841 53.7801C18.1302 56.2805 17.8891 60.8893 20.6913 63.6915C23.4824 66.4825 28.0923 66.265 30.6026 63.1987L34.2911 58.6941C34.6027 58.3135 34.5476 57.7525 34.1663 57.4405C33.7856 57.1288 33.2243 57.1847 32.9127 57.5653L29.2241 62.0701C27.3895 64.3109 24.0075 64.4877 21.9513 62.4315C19.9033 60.3836 20.0625 57.0007 22.3127 55.1586L35.2586 44.559L39.8237 49.1242L35.5591 54.3327C35.2476 54.7133 35.3012 55.2741 35.6842 55.5863C36.0647 55.898 36.6261 55.8421 36.9378 55.4613L41.0898 50.3903L41.2289 50.5294C42.1153 51.4158 43.5575 51.4157 44.4438 50.5294L45.3113 49.6619C46.1977 48.7755 46.1976 47.3333 45.3113 46.447L42.3747 43.5104L43.4798 42.4053C43.562 42.3231 43.6907 42.3045 43.793 42.3597L65.7166 54.2202C67.0986 54.968 68.8398 54.7141 69.9509 53.603L76.3783 47.1756C77.4145 46.1399 77.4144 44.4542 76.3784 43.4182ZM41.7033 25.3178C41.0185 26.0026 39.9043 26.0025 39.2195 25.3177C38.5347 24.6329 38.5347 23.5187 39.2195 22.8339L41.2271 20.8264L43.7109 23.3102L41.7033 25.3178ZM40.2501 34.2585C39.5653 34.9434 38.4511 34.9433 37.7662 34.2585C37.0815 33.5737 37.0814 32.4594 37.7662 31.7746C38.6441 30.8967 44.1511 25.3896 44.9709 24.5699L47.4548 27.0538L40.2501 34.2585ZM58.5281 24.8563C57.8078 24.1359 57.8078 22.964 58.5281 22.2438C58.876 21.8958 58.876 21.332 58.5281 20.984C58.1801 20.6361 57.6162 20.6361 57.2683 20.984L51.8927 26.3596C51.1725 27.0798 50.0006 27.0799 49.2804 26.3597C44.6719 21.7512 44.901 21.9803 40.3142 17.3935C39.8593 16.9386 39.8593 16.1983 40.3143 15.7433L47.4438 8.61381C47.8988 8.15887 48.639 8.1587 49.094 8.61373L63.2385 22.7582L61.1404 24.8563L61.1405 24.8563C60.4202 25.5764 59.2484 25.5765 58.5281 24.8563ZM44.0516 47.7068C44.2401 47.8953 44.24 48.2137 44.0516 48.4021L43.1841 49.2695C42.9958 49.4579 42.6773 49.4579 42.4889 49.2695C39.9387 46.7193 38.0514 44.832 35.4714 42.252C35.283 42.0636 35.283 41.7451 35.4714 41.5568L36.3389 40.6893C36.5272 40.5009 36.8457 40.5009 37.0341 40.6893L44.0516 47.7068Z" fill="white"/>
<path d="M26.394 57.9899L26.394 57.9899C26.8054 58.4012 26.8055 59.071 26.3939 59.4826C25.9824 59.8941 25.3127 59.894 24.9013 59.4826C24.4899 59.0711 24.4899 58.4013 24.9013 57.9899C25.3127 57.5784 25.9825 57.5784 26.394 57.9899ZM27.8658 56.5179C26.6425 55.2947 24.6524 55.2947 23.4291 56.5179C22.2058 57.7412 22.2059 59.7313 23.4292 60.9546C24.6525 62.1778 26.6424 62.1777 27.8656 60.9545C29.0889 59.7312 29.0891 57.7412 27.8658 56.5179Z" fill="white" stroke="white" stroke-width="0.3"/>
</g>
<defs>
<clipPath id="clip0">
<rect width="60.8112" height="60.8112" fill="white" transform="translate(43) rotate(45)"/>
</clipPath>
</defs>
</svg>
