<svg width="65" height="65" viewBox="0 0 65 65" fill="none" xmlns="http://www.w3.org/2000/svg">
<g clip-path="url(#clip0)">
<path d="M47.4781 39.1322L45.2371 40.3735C44.7769 40.6289 44.6107 41.2081 44.8656 41.6678C45.0392 41.9817 45.364 42.1588 45.6993 42.1588C45.855 42.1588 46.0137 42.1206 46.16 42.0397L48.401 40.798C48.8607 40.5431 49.0273 39.9634 48.7724 39.5037C48.5175 39.0435 47.9378 38.8773 47.4781 39.1322Z" fill="white"/>
<path d="M47.4783 36.4306L45.2373 37.6718C44.7771 37.9267 44.6104 38.5064 44.8658 38.9666C45.0394 39.2801 45.3642 39.4571 45.6995 39.4571C45.8552 39.4571 46.0139 39.4189 46.1597 39.3381L48.4012 38.0963C48.8609 37.8414 49.0275 37.2622 48.7726 36.802C48.5177 36.3418 47.938 36.1757 47.4783 36.4306Z" fill="white"/>
<path d="M63.2784 47.8381C63.3696 47.6893 63.4207 47.5143 63.4207 47.3392V38.9628C63.4207 38.4366 62.9942 38.0106 62.468 38.0106C61.9424 38.0106 61.5159 38.4366 61.5159 38.9628V45.8723L52.3599 41.7885V24.0953L61.5159 19.0227V34.8165C61.5159 35.3426 61.9424 35.7686 62.468 35.7686C62.9942 35.7686 63.4207 35.3426 63.4207 34.8165V17.4065C63.4207 17.0668 63.2273 16.7385 62.9297 16.5739L32.997 -0.00942212C32.7129 -0.16613 32.3583 -0.16613 32.0741 -0.00942212L2.1414 16.5739C1.8389 16.741 1.64648 17.0727 1.65045 17.4179V47.3392C1.65045 47.6794 1.84336 48.0072 2.1414 48.1723L15.3297 55.4791C15.7899 55.7335 16.3691 55.5674 16.624 55.1077C16.8789 54.6475 16.7123 54.0677 16.2526 53.8133L4.73353 47.4314L13.6168 43.4696L31.5832 53.423V62.3063L20.0289 55.9056C19.5692 55.6507 18.9895 55.8168 18.7346 56.277C18.4797 56.7367 18.6463 57.3164 19.106 57.5713L32.0741 64.7556C32.3568 64.9123 32.7143 64.9123 32.997 64.7556L46.5974 57.2202C47.0576 56.9653 47.2237 56.3861 46.9688 55.9259C46.7144 55.4662 46.1347 55.2996 45.6745 55.5545L33.4875 62.3063V53.423L51.4538 43.4696L60.3371 47.4314L49.4484 53.4642C48.9882 53.7191 48.822 54.2983 49.0769 54.7585C49.2505 55.0724 49.5753 55.2495 49.9106 55.2495C50.0663 55.2495 50.225 55.2108 50.3713 55.13L62.9297 48.1723C63.0706 48.0945 63.194 47.975 63.2784 47.8381ZM32.5353 14.1672L49.4429 23.5345L32.5353 32.9012L15.6282 23.5345L32.5353 14.1672ZM51.4077 22.4459L33.4875 12.5178V2.43939L60.5032 17.4065L51.4077 22.4459ZM31.5832 12.5178L13.6634 22.4459L4.5674 17.4065L31.5832 2.43939V12.5178ZM3.55475 19.0227L12.7108 24.0953V41.7885L3.55475 45.8723V19.0227ZM14.6156 25.1506L21.5271 28.9796L31.5832 34.5511V51.246L14.6156 41.8455V25.1506ZM33.4875 34.5511L50.4556 25.1506V41.8455L33.4875 51.246V34.5511Z" fill="white"/>
</g>
<defs>
<clipPath id="clip0">
<rect width="65" height="65" fill="white"/>
</clipPath>
</defs>
</svg>
