<svg width="74" height="74" viewBox="0 0 74 74" fill="none" xmlns="http://www.w3.org/2000/svg">
<path d="M36.6868 9.86621C34.6435 9.86621 32.9868 11.5229 32.9868 13.5662C32.9868 15.6095 34.6435 17.2662 36.6868 17.2662C38.7301 17.2662 40.3868 15.6095 40.3868 13.5662C40.3868 11.5229 38.7301 9.86621 36.6868 9.86621ZM36.6868 14.7995C36.0057 14.7995 35.4535 14.2473 35.4535 13.5662C35.4535 12.8851 36.0057 12.3329 36.6868 12.3329C37.3679 12.3329 37.9201 12.8851 37.9201 13.5662C37.9201 14.2473 37.3679 14.7995 36.6868 14.7995Z" fill="white"/>
<path d="M47.7868 24.667H25.5868C24.9057 24.667 24.3535 25.2192 24.3535 25.9003V35.767C24.3535 36.4481 24.9057 37.0003 25.5868 37.0003H47.7868C48.468 37.0003 49.0202 36.4481 49.0202 35.767V25.9003C49.0202 25.2192 48.468 24.667 47.7868 24.667ZM46.5535 34.5337H26.8202V27.1337H46.5535V34.5337Z" fill="white"/>
<path d="M29.2866 29.5996H31.7533V32.0663H29.2866V29.5996Z" fill="white"/>
<path d="M34.2202 29.5996H39.1535V32.0663H34.2202V29.5996Z" fill="white"/>
<path d="M41.6201 29.5996H44.0868V32.0663H41.6201V29.5996Z" fill="white"/>
<path d="M21.8867 11.0995V16.0329H24.3534V12.3329H26.8201V9.86621H23.1201C22.4389 9.86621 21.8867 10.4184 21.8867 11.0995Z" fill="white"/>
<path d="M72.4534 0H67.52C66.8389 0 66.2867 0.55223 66.2867 1.23333V30.8333C66.2867 31.5144 65.7345 32.0667 65.0534 32.0667H56.42V23.4333H60.12C60.8011 23.4333 61.3534 22.8811 61.3534 22.2V14.8C61.3534 14.1189 60.8011 13.5667 60.12 13.5667H56.42V11.1C56.4158 7.69569 53.6571 4.93755 50.2534 4.93333H47.7867V2.46667H45.32V4.93333H42.5818L41.5827 0.934635C41.446 0.385417 40.9528 0 40.3867 0H32.9867C32.4206 0 31.9274 0.385417 31.7901 0.934635L30.791 4.93333H28.0534V2.46667H25.5867V4.93333H23.12C19.7157 4.93755 16.9576 7.69569 16.9534 11.1V19.7333H13.2534C12.5722 19.7333 12.02 20.2856 12.02 20.9667V30.8333C12.02 31.5144 12.5722 32.0667 13.2534 32.0667H16.9534V66.6H13.2534C12.5722 66.6 12.02 67.1522 12.02 67.8333V72.7667C12.02 73.4478 12.5722 74 13.2534 74H28.0534C28.7345 74 29.2867 73.4478 29.2867 72.7667V67.8333C29.2867 67.1522 28.7345 66.6 28.0534 66.6H24.3534V60.1696C26.2606 61.1524 28.3743 61.6655 30.52 61.6667H31.7534V65.3667C31.7534 66.0478 32.3056 66.6 32.9867 66.6H40.3867C41.0678 66.6 41.62 66.0478 41.62 65.3667V61.6667H42.8534C44.9984 61.6655 47.1128 61.1524 49.02 60.1696V66.6H45.32C44.6389 66.6 44.0867 67.1522 44.0867 67.8333V72.7667C44.0867 73.4478 44.6389 74 45.32 74H60.12C60.8011 74 61.3534 73.4478 61.3534 72.7667V67.8333C61.3534 67.1522 60.8011 66.6 60.12 66.6H56.42V39.4667H65.0534C69.8187 39.4606 73.6807 35.5986 73.6867 30.8333V1.23333C73.6867 0.55223 73.1345 0 72.4534 0ZM58.8867 16.0333V20.9667H56.42V16.0333H58.8867ZM33.9496 2.46667H39.4231L40.0398 4.93333H33.333L33.9496 2.46667ZM19.42 11.1C19.42 9.05669 21.0767 7.4 23.12 7.4H50.2534C52.2967 7.4 53.9534 9.05669 53.9534 11.1V19.7333H19.42V11.1ZM14.4867 29.6V22.2H16.9534V29.6H14.4867ZM26.82 71.5333H14.4867V69.0667H26.82V71.5333ZM21.8867 66.6H19.42V55.8764C20.1192 56.8761 20.9484 57.7776 21.8867 58.5574V66.6ZM39.1534 64.1333H34.22V61.6667H39.1534V64.1333ZM58.8867 71.5333H46.5534V69.0667H58.8867V71.5333ZM53.9534 66.6H51.4867V58.5574C52.4243 57.7776 53.2542 56.8761 53.9534 55.8764V66.6ZM53.9534 48.1C53.9467 54.2275 48.9809 59.1934 42.8534 59.2H30.52C24.3925 59.1934 19.4266 54.2275 19.42 48.1V22.2H53.9534V48.1ZM71.22 30.8333C71.2158 34.2376 68.4571 36.9958 65.0534 37H56.42V34.5333H65.0534C67.0967 34.5333 68.7534 32.8766 68.7534 30.8333V2.46667H71.22V30.8333Z" fill="white"/>
<path d="M9.19232 8.27218L10.787 6.67752L13.615 9.50551L15.359 7.7615L11.659 4.06151C11.1772 3.58034 10.3967 3.58034 9.91498 4.06151L8.22878 5.7477L2.92568 1.50391L1.38281 3.42978L7.54948 8.36312C8.04028 8.75636 8.74789 8.71661 9.19232 8.27218Z" fill="white"/>
<path d="M0.462402 13.4799L6.62907 15.9466C7.08735 16.129 7.61007 16.0212 7.95876 15.6726L9.79611 13.8346L13.9351 15.9104L15.0378 13.7027L10.1044 11.2361C9.6299 10.9994 9.05659 11.0927 8.68141 11.4679L6.78926 13.3528L1.37777 11.1879L0.462402 13.4799Z" fill="white"/>
</svg>
