<svg width="59" height="59" viewBox="0 0 59 59" fill="none" xmlns="http://www.w3.org/2000/svg">
<path d="M49.9177 0C49.0707 0 48.3844 0.686506 48.3844 1.53329V55.9334H10.6164V3.06658H49.9177C50.7647 3.06658 51.451 2.38008 51.451 1.53329C51.451 0.686505 50.7647 0 49.9177 0H9.0831C8.23611 0 7.5498 0.686505 7.5498 1.53329V57.4667C7.5498 58.3135 8.23611 59 9.0831 59H49.9177C50.7647 59 51.451 58.3135 51.451 57.4667V1.53329C51.451 0.686505 50.7647 0 49.9177 0Z" fill="white"/>
<path d="M18.341 8.18026C18.341 7.33348 17.6547 6.64697 16.8077 6.64697C15.9607 6.64697 15.2744 7.33348 15.2744 8.18026V12.8826C15.2744 13.7293 15.9607 14.4158 16.8077 14.4158C17.6547 14.4158 18.341 13.7293 18.341 12.8826V8.18026Z" fill="white"/>
<path d="M31.0334 8.18026C31.0334 7.33348 30.3471 6.64697 29.5001 6.64697C28.6531 6.64697 27.9668 7.33348 27.9668 8.18026V12.8826C27.9668 13.7293 28.6531 14.4158 29.5001 14.4158C30.3471 14.4158 31.0334 13.7293 31.0334 12.8826V8.18026Z" fill="white"/>
<path d="M43.7258 8.18026C43.7258 7.33348 43.0395 6.64697 42.1925 6.64697C41.3455 6.64697 40.6592 7.33348 40.6592 8.18026V12.8826C40.6592 13.7293 41.3455 14.4158 42.1925 14.4158C43.0395 14.4158 43.7258 13.7293 43.7258 12.8826V8.18026Z" fill="white"/>
<path d="M18.341 34.2374C18.341 33.3906 17.6547 32.7041 16.8077 32.7041C15.9607 32.7041 15.2744 33.3906 15.2744 34.2374V38.9397C15.2744 39.7865 15.9607 40.473 16.8077 40.473C17.6547 40.473 18.341 39.7865 18.341 38.9397V34.2374Z" fill="white"/>
<path d="M31.0334 34.2374C31.0334 33.3906 30.3471 32.7041 29.5001 32.7041C28.6531 32.7041 27.9668 33.3906 27.9668 34.2374V38.9397C27.9668 39.7865 28.6531 40.473 29.5001 40.473C30.3471 40.473 31.0334 39.7865 31.0334 38.9397V34.2374Z" fill="white"/>
<path d="M43.7258 34.2374C43.7258 33.3906 43.0395 32.7041 42.1925 32.7041C41.3455 32.7041 40.6592 33.3906 40.6592 34.2374V38.9397C40.6592 39.7865 41.3455 40.473 42.1925 40.473C43.0395 40.473 43.7258 39.7865 43.7258 38.9397V34.2374Z" fill="white"/>
<path d="M18.341 21.7496C18.341 20.9028 17.6547 20.2163 16.8077 20.2163C15.9607 20.2163 15.2744 20.9028 15.2744 21.7496V26.4517C15.2744 27.2985 15.9607 27.985 16.8077 27.985C17.6547 27.985 18.341 27.2985 18.341 26.4517V21.7496Z" fill="white"/>
<path d="M31.0334 21.7496C31.0334 20.9028 30.3471 20.2163 29.5001 20.2163C28.6531 20.2163 27.9668 20.9028 27.9668 21.7496V26.4517C27.9668 27.2985 28.6531 27.985 29.5001 27.985C30.3471 27.985 31.0334 27.2985 31.0334 26.4517V21.7496Z" fill="white"/>
<path d="M43.7258 21.7496C43.7258 20.9028 43.0395 20.2163 42.1925 20.2163C41.3455 20.2163 40.6592 20.9028 40.6592 21.7496V26.4517C40.6592 27.2985 41.3455 27.985 42.1925 27.985C43.0395 27.985 43.7258 27.2985 43.7258 26.4517V21.7496Z" fill="white"/>
<path d="M16.8077 44.9473C15.9607 44.9473 15.2744 45.6338 15.2744 46.4806V51.1826C15.2744 52.0294 15.9607 52.7159 16.8077 52.7159C17.6547 52.7159 18.341 52.0294 18.341 51.1826V46.4806C18.341 45.6338 17.6547 44.9473 16.8077 44.9473Z" fill="white"/>
<path d="M29.5001 44.9473C28.6531 44.9473 27.9668 45.6338 27.9668 46.4806V51.1826C27.9668 52.0294 28.6531 52.7159 29.5001 52.7159C30.3471 52.7159 31.0334 52.0294 31.0334 51.1826V46.4806C31.0334 45.6338 30.3471 44.9473 29.5001 44.9473Z" fill="white"/>
<path d="M42.1925 44.9473C41.3455 44.9473 40.6592 45.6338 40.6592 46.4806V51.1826C40.6592 52.0294 41.3455 52.7159 42.1925 52.7159C43.0395 52.7159 43.7258 52.0294 43.7258 51.1826V46.4806C43.7258 45.6338 43.0395 44.9473 42.1925 44.9473Z" fill="white"/>
</svg>
