<svg width="395" height="395" viewBox="0 0 395 395" fill="none" xmlns="http://www.w3.org/2000/svg">
<g filter="url(#filter0_f)">
<circle cx="197.5" cy="197.5" r="184.5" fill="#0E243E" fill-opacity="0.1"/>
<circle cx="197.5" cy="197.5" r="184.5" stroke="#7BD7FF" stroke-width="6"/>
</g>
<g filter="url(#filter1_f)">
<circle cx="197.5" cy="197.5" r="184.5" fill="#0E243E" fill-opacity="0.1"/>
<circle cx="197.5" cy="197.5" r="183" stroke="white" stroke-width="3"/>
</g>
<g filter="url(#filter2_f)">
<path d="M133 211.728H189V171.728H133V211.728ZM141 203.728V191.728H181V203.728H141ZM181 179.728V183.728H141V179.728H181Z" fill="#7BD7FF"/>
<path d="M133 227.728V275.728H189V227.728H133ZM157 235.728V247.728H141V235.728H157ZM141 255.728H157V267.728H141V255.728ZM165 267.728V255.728H181V267.728H165ZM181 247.728H165V235.728H181V247.728Z" fill="#7BD7FF"/>
<path d="M204.999 211.728H260.999V171.728H204.999V211.728ZM212.999 203.728V199.728H252.999V203.728H212.999ZM252.999 179.728V191.728H212.999V179.728H252.999Z" fill="#7BD7FF"/>
<path d="M313 259.727C310.788 259.727 309 261.52 309 263.728V267.728H305V263.728C305 261.52 303.212 259.727 301 259.727C298.788 259.727 297 261.52 297 263.728V267.728H293V186.911C295.084 187.847 297.292 188.363 299.504 188.363C303.796 188.363 308.06 186.619 311.212 183.227C314.252 179.955 315.792 175.527 315.44 171.075C315.084 166.627 312.864 162.495 309.352 159.743L207.888 80.3795L197 70.2715L186.372 80.1595L84.652 159.743C81.136 162.495 78.916 166.627 78.564 171.075C78.212 175.527 79.752 179.955 82.792 183.227C87.568 188.371 94.876 189.667 101.004 186.915V267.732H97V263.732C97 261.523 95.212 259.731 93 259.731C90.788 259.731 89 261.523 89 263.732V267.732H85V263.732C85 261.523 83.212 259.731 81 259.731C78.788 259.731 77 261.523 77 263.732V299.732C77 301.939 78.788 303.732 81 303.732C83.212 303.732 85 301.939 85 299.732V295.732H89V299.732C89 301.939 90.788 303.732 93 303.732C95.212 303.732 97 301.939 97 299.732V295.732H101V303.732H205H261H293V295.732H297V299.732C297 301.939 298.788 303.732 301 303.732C303.212 303.732 305 301.939 305 299.732V295.732H309V299.732C309 301.939 310.788 303.732 313 303.732C315.212 303.732 317 301.939 317 299.732V263.732C317 261.52 315.212 259.727 313 259.727ZM88.648 177.779C87.108 176.119 86.36 173.963 86.54 171.707C86.72 169.451 87.796 167.439 89.584 166.043L191.56 86.2435L197.004 81.1835L202.7 86.4595L304.42 166.043C306.204 167.439 307.284 169.451 307.464 171.707C307.644 173.963 306.892 176.123 305.356 177.779C302.524 180.827 297.912 181.211 294.612 178.671L293 177.431L197 103.431L102.56 176.231L102.556 176.235L99.392 178.671C96.088 181.211 91.48 180.827 88.648 177.779ZM85 287.728V275.728H89V287.728H85ZM97 287.728V275.728H101V287.728H97ZM213 295.728V235.727H253V295.728H213ZM285 295.728H261V227.727H205V295.728H109V181.363L197 113.527L285 181.363V295.728ZM293 287.728V275.728H297V287.728H293ZM305 287.728V275.728H309V287.728H305Z" fill="#7BD7FF"/>
</g>
<path d="M133 211.728H189V171.728H133V211.728ZM141 203.728V191.728H181V203.728H141ZM181 179.728V183.728H141V179.728H181Z" fill="white"/>
<path d="M133 227.728V275.728H189V227.728H133ZM157 235.728V247.728H141V235.728H157ZM141 255.728H157V267.728H141V255.728ZM165 267.728V255.728H181V267.728H165ZM181 247.728H165V235.728H181V247.728Z" fill="white"/>
<path d="M204.999 211.728H260.999V171.728H204.999V211.728ZM212.999 203.728V199.728H252.999V203.728H212.999ZM252.999 179.728V191.728H212.999V179.728H252.999Z" fill="white"/>
<path d="M313 259.727C310.788 259.727 309 261.52 309 263.728V267.728H305V263.728C305 261.52 303.212 259.727 301 259.727C298.788 259.727 297 261.52 297 263.728V267.728H293V186.911C295.084 187.847 297.292 188.363 299.504 188.363C303.796 188.363 308.06 186.619 311.212 183.227C314.252 179.955 315.792 175.527 315.44 171.075C315.084 166.627 312.864 162.495 309.352 159.743L207.888 80.3795L197 70.2715L186.372 80.1595L84.652 159.743C81.136 162.495 78.916 166.627 78.564 171.075C78.212 175.527 79.752 179.955 82.792 183.227C87.568 188.371 94.876 189.667 101.004 186.915V267.732H97V263.732C97 261.523 95.212 259.731 93 259.731C90.788 259.731 89 261.523 89 263.732V267.732H85V263.732C85 261.523 83.212 259.731 81 259.731C78.788 259.731 77 261.523 77 263.732V299.732C77 301.939 78.788 303.732 81 303.732C83.212 303.732 85 301.939 85 299.732V295.732H89V299.732C89 301.939 90.788 303.732 93 303.732C95.212 303.732 97 301.939 97 299.732V295.732H101V303.732H205H261H293V295.732H297V299.732C297 301.939 298.788 303.732 301 303.732C303.212 303.732 305 301.939 305 299.732V295.732H309V299.732C309 301.939 310.788 303.732 313 303.732C315.212 303.732 317 301.939 317 299.732V263.732C317 261.52 315.212 259.727 313 259.727ZM88.648 177.779C87.108 176.119 86.36 173.963 86.54 171.707C86.72 169.451 87.796 167.439 89.584 166.043L191.56 86.2435L197.004 81.1835L202.7 86.4595L304.42 166.043C306.204 167.439 307.284 169.451 307.464 171.707C307.644 173.963 306.892 176.123 305.356 177.779C302.524 180.827 297.912 181.211 294.612 178.671L293 177.431L197 103.431L102.56 176.231L102.556 176.235L99.392 178.671C96.088 181.211 91.48 180.827 88.648 177.779ZM85 287.728V275.728H89V287.728H85ZM97 287.728V275.728H101V287.728H97ZM213 295.728V235.727H253V295.728H213ZM285 295.728H261V227.727H205V295.728H109V181.363L197 113.527L285 181.363V295.728ZM293 287.728V275.728H297V287.728H293ZM305 287.728V275.728H309V287.728H305Z" fill="white"/>
<defs>
<filter id="filter0_f" x="0" y="0" width="395" height="395" filterUnits="userSpaceOnUse" color-interpolation-filters="sRGB">
<feFlood flood-opacity="0" result="BackgroundImageFix"/>
<feBlend mode="normal" in="SourceGraphic" in2="BackgroundImageFix" result="shape"/>
<feGaussianBlur stdDeviation="5" result="effect1_foregroundBlur"/>
</filter>
<filter id="filter1_f" x="10" y="10" width="375" height="375" filterUnits="userSpaceOnUse" color-interpolation-filters="sRGB">
<feFlood flood-opacity="0" result="BackgroundImageFix"/>
<feBlend mode="normal" in="SourceGraphic" in2="BackgroundImageFix" result="shape"/>
<feGaussianBlur stdDeviation="1.5" result="effect1_foregroundBlur"/>
</filter>
<filter id="filter2_f" x="52" y="42" width="290" height="290" filterUnits="userSpaceOnUse" color-interpolation-filters="sRGB">
<feFlood flood-opacity="0" result="BackgroundImageFix"/>
<feBlend mode="normal" in="SourceGraphic" in2="BackgroundImageFix" result="shape"/>
<feGaussianBlur stdDeviation="12.5" result="effect1_foregroundBlur"/>
</filter>
</defs>
</svg>
