<svg width="240" height="240" viewBox="0 0 240 240" fill="none" xmlns="http://www.w3.org/2000/svg">
<path d="M56 144.728H112V104.728H56V144.728ZM64 136.728V124.728H104V136.728H64ZM104 112.728V116.728H64V112.728H104Z" fill="white"/>
<path d="M56 160.728V208.728H112V160.728H56ZM80 168.728V180.728H64V168.728H80ZM64 188.728H80V200.728H64V188.728ZM88 200.728V188.728H104V200.728H88ZM104 180.728H88V168.728H104V180.728Z" fill="white"/>
<path d="M127.999 144.728H183.999V104.728H127.999V144.728ZM135.999 136.728V132.728H175.999V136.728H135.999ZM175.999 112.728V124.728H135.999V112.728H175.999Z" fill="white"/>
<path d="M236 192.727C233.788 192.727 232 194.52 232 196.728V200.728H228V196.728C228 194.52 226.212 192.727 224 192.727C221.788 192.727 220 194.52 220 196.728V200.728H216V119.911C218.084 120.847 220.292 121.363 222.504 121.363C226.796 121.363 231.06 119.619 234.212 116.227C237.252 112.955 238.792 108.527 238.44 104.075C238.084 99.6275 235.864 95.4955 232.352 92.7435L130.888 13.3795L120 3.27148L109.372 13.1595L7.652 92.7435C4.136 95.4955 1.916 99.6275 1.564 104.075C1.212 108.527 2.752 112.955 5.792 116.227C10.568 121.371 17.876 122.667 24.004 119.915V200.732H20V196.732C20 194.523 18.212 192.731 16 192.731C13.788 192.731 12 194.523 12 196.732V200.732H8V196.732C8 194.523 6.212 192.731 4 192.731C1.788 192.731 0 194.523 0 196.732V232.732C0 234.939 1.788 236.732 4 236.732C6.212 236.732 8 234.939 8 232.732V228.732H12V232.732C12 234.939 13.788 236.732 16 236.732C18.212 236.732 20 234.939 20 232.732V228.732H24V236.732H128H184H216V228.732H220V232.732C220 234.939 221.788 236.732 224 236.732C226.212 236.732 228 234.939 228 232.732V228.732H232V232.732C232 234.939 233.788 236.732 236 236.732C238.212 236.732 240 234.939 240 232.732V196.732C240 194.52 238.212 192.727 236 192.727ZM11.648 110.779C10.108 109.119 9.36 106.963 9.54 104.707C9.72 102.451 10.796 100.439 12.584 99.0435L114.56 19.2435L120.004 14.1835L125.7 19.4595L227.42 99.0435C229.204 100.439 230.284 102.451 230.464 104.707C230.644 106.963 229.892 109.123 228.356 110.779C225.524 113.827 220.912 114.211 217.612 111.671L216 110.431L120 36.4315L25.56 109.231L25.556 109.235L22.392 111.671C19.088 114.211 14.48 113.827 11.648 110.779ZM8 220.728V208.728H12V220.728H8ZM20 220.728V208.728H24V220.728H20ZM136 228.728V168.727H176V228.728H136ZM208 228.728H184V160.727H128V228.728H32V114.363L120 46.5275L208 114.363V228.728ZM216 220.728V208.728H220V220.728H216ZM228 220.728V208.728H232V220.728H228Z" fill="white"/>
</svg>
