<svg width="82" height="82" viewBox="0 0 82 82" fill="none" xmlns="http://www.w3.org/2000/svg">
<path d="M6.13583 45.8588C6.2446 46.6168 6.8451 47.2098 7.60443 47.3085L18.6928 48.7551C19.6294 48.8775 20.4841 48.2183 20.6058 47.2837C20.7278 46.3492 20.069 45.4925 19.1343 45.3708L9.33038 44.0917L6.4346 23.9153L20.9647 17.5166L22.8872 30.9126L25.393 48.3712L25.3932 48.3719L25.8619 51.6372C25.9263 52.0852 26.1657 52.4894 26.5282 52.7608C26.8252 52.9834 27.1845 53.1015 27.5513 53.1015C27.6318 53.1015 27.7128 53.0958 27.7936 53.0842L35.9744 51.91C36.9073 51.776 37.5552 50.9111 37.4211 49.9784L37.1365 47.9951L53.7243 40.6899C54.4251 40.3813 54.8345 39.6434 54.7257 38.8854L52.4095 22.7473C52.2757 21.8141 51.4101 21.1676 50.4778 21.3005C49.5449 21.4343 48.8971 22.2995 49.0311 23.2322L51.1632 38.0881L36.6331 44.487L33.7381 24.3153L32.5243 15.858L49.5522 18.0796C50.4876 18.2034 51.3432 17.5428 51.4652 16.6083C51.5871 15.6737 50.9284 14.817 49.9936 14.6953L32.0208 12.3502L31.7361 10.3664C31.6717 9.91837 31.4323 9.51425 31.0698 9.24278C30.7073 8.97155 30.2522 8.85573 29.8042 8.91944L21.6234 10.0936C20.6905 10.2276 20.0426 11.0925 20.1767 12.0252L20.4613 14.0088L3.87333 21.3137C3.17248 21.6223 2.76312 22.3602 2.87189 23.1182L6.13583 45.8588ZM28.5998 12.5402L30.5615 26.2076L33.574 47.197L33.5742 47.1982L33.8004 48.7733L28.9982 49.4625L26.398 31.3459L24.0238 14.8061C24.0238 14.8061 24.0238 14.8056 24.0236 14.8054L23.7974 13.2294L28.5998 12.5402Z" fill="white"/>
<path d="M70.297 25.2334H57.9104C56.9679 25.2334 56.2038 25.9973 56.2038 26.94V55.4979C56.2038 55.4979 56.2036 55.5009 56.2036 55.5025C56.2036 56.4452 56.9677 57.2091 57.9102 57.2091H57.9104H78.3663C77.698 59.6188 75.5834 61.4333 73.0205 61.6558C71.7021 59.3196 69.1975 57.7377 66.329 57.7377C63.4508 57.7377 60.9389 59.3303 59.6239 61.6793H23.3723C22.0573 59.3301 19.5454 57.7377 16.6672 57.7377C13.7889 57.7377 11.277 59.3303 9.96204 61.6793H3.41322V57.2089H48.6228C49.5653 57.2089 50.3295 56.445 50.3295 55.5023C50.3295 54.5595 49.5653 53.7956 48.6228 53.7956H1.70661C0.764105 53.7956 0 54.5595 0 55.5023V63.3859C0 64.3286 0.764105 65.0925 1.70661 65.0925H8.99587C8.99132 65.2003 8.98768 65.3084 8.98768 65.4174C8.98768 69.6518 12.4328 73.0971 16.6674 73.0971C20.9021 73.0971 24.3471 69.6518 24.3471 65.4174C24.3471 65.3084 24.3435 65.2003 24.339 65.0925H58.6572C58.6527 65.2003 58.649 65.3084 58.649 65.4174C58.649 69.6518 62.0941 73.0971 66.3288 73.0971C70.5634 73.0971 74.0085 69.6518 74.0085 65.4174C74.0085 65.2679 74.0031 65.1196 73.9946 64.9721C78.526 64.248 82 60.3133 82 55.5812V55.5023V36.9364C82 30.4836 76.75 25.2334 70.297 25.2334ZM16.6674 69.6839C14.3148 69.6839 12.4009 67.77 12.4009 65.4174C12.4009 63.0648 14.3148 61.1509 16.6674 61.1509C19.02 61.1509 20.9339 63.0648 20.9339 65.4174C20.9339 67.77 19.0198 69.6839 16.6674 69.6839ZM66.3288 69.6839C63.9762 69.6839 62.0623 67.77 62.0623 65.4174C62.0623 63.0648 63.9762 61.1509 66.3288 61.1509C68.6814 61.1509 70.5953 63.0648 70.5953 65.4174C70.5953 67.77 68.6814 69.6839 66.3288 69.6839ZM78.5868 36.9366V39.5325H66.0641V28.6466H70.297C74.868 28.6466 78.5868 32.3654 78.5868 36.9366ZM59.617 53.7959V28.6466H62.6509V41.2391C62.6509 42.1818 63.415 42.9457 64.3575 42.9457H78.5868V53.7959H59.617Z" fill="white"/>
</svg>
