<svg viewBox="0 0 483 166" fill="none" xmlns="http://www.w3.org/2000/svg">
<g filter="url(#filter0_f)">
<line x1="310" y1="79" x2="332" y2="79" stroke="#7BD7FF" stroke-width="6"/>
</g>
<g filter="url(#filter1_f)">
<line x1="310" y1="80.5" x2="332" y2="80.5" stroke="white" stroke-width="3"/>
</g>
<g filter="url(#filter2_f)">
<line x1="151" y1="79" x2="173" y2="79" stroke="#7BD7FF" stroke-width="6"/>
</g>
<g filter="url(#filter3_f)">
<line x1="151" y1="80.5" x2="173" y2="80.5" stroke="white" stroke-width="3"/>
</g>
<g filter="url(#filter4_f)">
<circle cx="400" cy="83" r="70" fill="#0E243E" fill-opacity="0.1"/>
<circle cx="400" cy="83" r="70" stroke="#7BD7FF" stroke-width="6"/>
</g>
<g filter="url(#filter5_f)">
<circle cx="400" cy="83" r="70" fill="#0E243E" fill-opacity="0.1"/>
<circle cx="400" cy="83" r="68.5" stroke="white" stroke-width="3"/>
</g>
<path d="M365.696 110.718V118.96H366.879V122.444H365.761V120H359.378V122.444H358.26V118.96H358.975C359.287 118.423 359.581 117.82 359.859 117.153C360.145 116.486 360.396 115.788 360.613 115.06C360.829 114.323 361.007 113.587 361.146 112.85C361.284 112.113 361.371 111.403 361.406 110.718H365.696ZM364.539 111.771H362.433C362.398 112.274 362.311 112.841 362.173 113.474C362.043 114.107 361.874 114.757 361.666 115.424C361.466 116.083 361.241 116.72 360.99 117.335C360.747 117.95 360.487 118.492 360.21 118.96H364.539V111.771ZM370.966 112.902C371.564 112.902 372.075 113.032 372.5 113.292C372.933 113.552 373.263 113.92 373.488 114.397C373.722 114.865 373.839 115.415 373.839 116.048V116.737H369.068C369.085 117.526 369.285 118.128 369.666 118.544C370.056 118.951 370.598 119.155 371.291 119.155C371.733 119.155 372.123 119.116 372.461 119.038C372.808 118.951 373.163 118.83 373.527 118.674V119.675C373.172 119.831 372.821 119.944 372.474 120.013C372.127 120.091 371.716 120.13 371.239 120.13C370.58 120.13 369.995 119.996 369.484 119.727C368.981 119.458 368.587 119.06 368.301 118.531C368.024 117.994 367.885 117.339 367.885 116.568C367.885 115.805 368.011 115.151 368.262 114.605C368.522 114.059 368.882 113.639 369.341 113.344C369.809 113.049 370.351 112.902 370.966 112.902ZM370.953 113.838C370.407 113.838 369.974 114.016 369.653 114.371C369.341 114.718 369.155 115.203 369.094 115.827H372.643C372.634 115.238 372.496 114.761 372.227 114.397C371.958 114.024 371.534 113.838 370.953 113.838ZM378.928 112.902C379.786 112.902 380.475 113.201 380.995 113.799C381.523 114.397 381.788 115.298 381.788 116.503C381.788 117.69 381.523 118.592 380.995 119.207C380.475 119.822 379.781 120.13 378.915 120.13C378.377 120.13 377.931 120.03 377.576 119.831C377.229 119.623 376.956 119.385 376.757 119.116H376.679C376.696 119.263 376.713 119.45 376.731 119.675C376.748 119.9 376.757 120.095 376.757 120.26V123.12H375.613V113.032H376.549L376.705 113.981H376.757C376.965 113.678 377.238 113.422 377.576 113.214C377.914 113.006 378.364 112.902 378.928 112.902ZM378.72 113.864C378.009 113.864 377.506 114.063 377.212 114.462C376.926 114.861 376.774 115.467 376.757 116.282V116.503C376.757 117.361 376.895 118.024 377.173 118.492C377.459 118.951 377.983 119.181 378.746 119.181C379.17 119.181 379.517 119.064 379.786 118.83C380.063 118.596 380.267 118.28 380.397 117.881C380.535 117.474 380.605 117.01 380.605 116.49C380.605 115.693 380.449 115.056 380.137 114.579C379.833 114.102 379.361 113.864 378.72 113.864ZM386.25 112.915C387.099 112.915 387.728 113.101 388.135 113.474C388.542 113.847 388.746 114.44 388.746 115.255V120H387.914L387.693 119.012H387.641C387.338 119.393 387.017 119.675 386.679 119.857C386.35 120.039 385.89 120.13 385.301 120.13C384.668 120.13 384.144 119.965 383.728 119.636C383.312 119.298 383.104 118.774 383.104 118.063C383.104 117.37 383.377 116.837 383.923 116.464C384.469 116.083 385.31 115.875 386.445 115.84L387.628 115.801V115.385C387.628 114.804 387.502 114.401 387.251 114.176C387 113.951 386.644 113.838 386.185 113.838C385.821 113.838 385.474 113.894 385.145 114.007C384.816 114.111 384.508 114.232 384.222 114.371L383.871 113.513C384.174 113.348 384.534 113.21 384.95 113.097C385.366 112.976 385.799 112.915 386.25 112.915ZM387.615 116.594L386.588 116.633C385.721 116.668 385.119 116.806 384.781 117.049C384.452 117.292 384.287 117.634 384.287 118.076C384.287 118.466 384.404 118.752 384.638 118.934C384.881 119.116 385.188 119.207 385.561 119.207C386.15 119.207 386.64 119.047 387.03 118.726C387.42 118.397 387.615 117.894 387.615 117.218V116.594ZM395.708 113.994H393.433V120H392.302V113.994H390.053V113.032H395.708V113.994ZM398.16 113.032V117.283C398.16 117.387 398.155 117.543 398.147 117.751C398.138 117.959 398.125 118.167 398.108 118.375C398.099 118.583 398.09 118.748 398.082 118.869L401.813 113.032H403.217V120H402.151V115.892C402.151 115.753 402.151 115.571 402.151 115.346C402.159 115.121 402.168 114.9 402.177 114.683C402.185 114.458 402.194 114.289 402.203 114.176L398.498 120H397.081V113.032H398.16ZM407.267 112.902C408.064 112.902 408.697 113.062 409.165 113.383C409.642 113.695 409.88 114.146 409.88 114.735C409.88 115.16 409.763 115.498 409.529 115.749C409.295 115.992 408.974 116.169 408.567 116.282V116.334C408.844 116.412 409.1 116.52 409.334 116.659C409.568 116.798 409.754 116.98 409.893 117.205C410.04 117.43 410.114 117.721 410.114 118.076C410.114 118.657 409.871 119.146 409.386 119.545C408.909 119.935 408.16 120.13 407.137 120.13C406.634 120.13 406.179 120.087 405.772 120C405.365 119.922 405.027 119.814 404.758 119.675V118.648C405.053 118.787 405.399 118.912 405.798 119.025C406.205 119.138 406.647 119.194 407.124 119.194C407.644 119.194 408.082 119.107 408.437 118.934C408.801 118.752 408.983 118.444 408.983 118.011C408.983 117.231 408.32 116.841 406.994 116.841H406.058V115.905H406.812C407.41 115.905 407.887 115.827 408.242 115.671C408.606 115.506 408.788 115.229 408.788 114.839C408.788 114.51 408.649 114.263 408.372 114.098C408.103 113.933 407.713 113.851 407.202 113.851C406.821 113.851 406.483 113.89 406.188 113.968C405.902 114.037 405.586 114.146 405.239 114.293L404.836 113.383C405.564 113.062 406.374 112.902 407.267 112.902ZM414.446 112.915C415.295 112.915 415.924 113.101 416.331 113.474C416.738 113.847 416.942 114.44 416.942 115.255V120H416.11L415.889 119.012H415.837C415.534 119.393 415.213 119.675 414.875 119.857C414.546 120.039 414.086 120.13 413.497 120.13C412.864 120.13 412.34 119.965 411.924 119.636C411.508 119.298 411.3 118.774 411.3 118.063C411.3 117.37 411.573 116.837 412.119 116.464C412.665 116.083 413.506 115.875 414.641 115.84L415.824 115.801V115.385C415.824 114.804 415.698 114.401 415.447 114.176C415.196 113.951 414.84 113.838 414.381 113.838C414.017 113.838 413.67 113.894 413.341 114.007C413.012 114.111 412.704 114.232 412.418 114.371L412.067 113.513C412.37 113.348 412.73 113.21 413.146 113.097C413.562 112.976 413.995 112.915 414.446 112.915ZM415.811 116.594L414.784 116.633C413.917 116.668 413.315 116.806 412.977 117.049C412.648 117.292 412.483 117.634 412.483 118.076C412.483 118.466 412.6 118.752 412.834 118.934C413.077 119.116 413.384 119.207 413.757 119.207C414.346 119.207 414.836 119.047 415.226 118.726C415.616 118.397 415.811 117.894 415.811 117.218V116.594ZM425.971 122.418H424.853V120H419.094V113.032H420.238V119.038H423.839V113.032H424.983V119.051H425.971V122.418ZM428.387 113.032V117.283C428.387 117.387 428.383 117.543 428.374 117.751C428.365 117.959 428.352 118.167 428.335 118.375C428.326 118.583 428.318 118.748 428.309 118.869L432.04 113.032H433.444V120H432.378V115.892C432.378 115.753 432.378 115.571 432.378 115.346C432.387 115.121 432.395 114.9 432.404 114.683C432.413 114.458 432.421 114.289 432.43 114.176L428.725 120H427.308V113.032H428.387ZM436.091 120H434.765L436.754 117.075C436.485 117.006 436.225 116.897 435.974 116.75C435.722 116.594 435.519 116.382 435.363 116.113C435.207 115.836 435.129 115.493 435.129 115.086C435.129 114.419 435.354 113.912 435.805 113.565C436.255 113.21 436.853 113.032 437.599 113.032H440.719V120H439.575V117.231H437.885L436.091 120ZM436.234 115.099C436.234 115.498 436.381 115.797 436.676 115.996C436.979 116.187 437.399 116.282 437.937 116.282H439.575V113.981H437.716C437.187 113.981 436.806 114.085 436.572 114.293C436.346 114.501 436.234 114.77 436.234 115.099Z" fill="white"/>
<g clip-path="url(#clip0)">
<path d="M372.913 71.5776H370.33V74.1602H372.913V71.5776Z" fill="white"/>
<path d="M434.02 58.4037C433.912 58.2552 433.802 58.1086 433.688 57.964C428.311 51.0476 420.193 46.8098 411.444 46.3518C403.8 45.9655 396.234 48.041 389.858 52.2734L384.663 55.7366C380.204 53.5158 374.788 55.3308 372.567 59.7905C371.942 61.0453 371.619 62.4284 371.621 63.8302V63.8392C371.621 64.0316 371.636 64.2266 371.649 64.4125L363.197 70.0463C359.898 72.2459 359.007 76.7035 361.207 80.0024C362.538 81.9993 364.779 83.1987 367.18 83.199H421.352C423.332 83.1945 425.294 82.8115 427.131 82.0705C425.14 85.9316 421.16 88.3595 416.815 88.364H378.078C375.225 88.364 372.913 90.6765 372.913 93.5291C372.913 96.3816 375.225 98.6941 378.078 98.6941H420.689V96.1116H378.078C376.651 96.1116 375.495 94.9554 375.495 93.5291C375.495 92.1027 376.651 90.9466 378.078 90.9466H416.815C423.34 90.9345 429.019 86.4832 430.589 80.1504C437.542 75.0925 439.078 65.3563 434.02 58.4037ZM431.019 76.2882V68.9952H428.437V76.7427C428.432 77.3629 428.378 77.9815 428.275 78.5931C426.204 79.9055 423.804 80.6068 421.352 80.6165H367.18C364.641 80.6178 362.583 78.5615 362.582 76.0234C362.581 74.4853 363.349 73.0488 364.629 72.1962L372.248 67.119V67.1319C372.312 67.2946 372.385 67.4535 372.457 67.6123C372.503 67.7117 372.549 67.8111 372.598 67.9093C372.671 68.0552 372.751 68.1972 372.834 68.3405C372.897 68.449 372.963 68.5562 373.028 68.6634C373.092 68.7705 373.19 68.91 373.277 69.0314C373.363 69.1527 373.447 69.269 373.535 69.3839C373.623 69.4988 373.702 69.5918 373.793 69.6938C373.839 69.7467 373.88 69.8048 373.923 69.8565L373.932 69.85C374.043 69.9791 374.148 70.1083 374.269 70.2219L376.094 68.3961C375.895 68.1845 375.711 67.9596 375.542 67.7233C375.432 67.58 375.316 67.4418 375.22 67.2895C375.105 67.1008 375.001 66.906 374.908 66.7058C374.824 66.5392 374.731 66.3778 374.662 66.2048C374.582 65.9863 374.515 65.7634 374.46 65.5372C374.414 65.3732 374.354 65.2144 374.322 65.0466C374.245 64.6487 374.205 64.2445 374.204 63.8392V63.8302C374.204 60.2645 377.095 57.3739 380.66 57.3739C384.226 57.3739 387.117 60.2645 387.117 63.8302C387.113 64.2037 387.076 64.576 387.008 64.9433C386.99 65.0453 386.969 65.1473 386.947 65.248C386.874 65.5894 386.772 65.924 386.644 66.2487L386.603 66.3481C386.279 67.1124 385.811 67.8073 385.225 68.3948L387.051 70.2206C387.607 69.6618 388.089 69.0328 388.483 68.3496C388.498 68.3238 388.509 68.2954 388.523 68.2695C388.884 67.6325 389.165 66.9533 389.359 66.2474C389.379 66.179 389.394 66.1093 389.412 66.0395C389.483 65.7542 389.542 65.4662 389.584 65.1731C389.597 65.0866 389.613 65.0001 389.623 64.9148C389.67 64.5551 389.695 64.1929 389.699 63.8302C389.699 61.3763 388.698 59.0287 386.927 57.33L391.29 54.4221C397.202 50.497 404.217 48.5721 411.304 48.9304C419.307 49.3476 426.733 53.2233 431.652 59.5497C435.599 64.5212 435.331 71.6287 431.019 76.2882Z" fill="white"/>
<path d="M383.401 61.0918C382.674 60.3647 381.688 59.9561 380.66 59.9563C378.521 59.956 376.786 61.6901 376.786 63.8296C376.786 64.8576 377.194 65.8435 377.922 66.5701L379.747 64.743C379.243 64.2387 379.243 63.4212 379.747 62.9168C380.251 62.4124 381.069 62.4124 381.573 62.9165C382.078 63.4207 382.078 64.2383 381.574 64.7427C381.573 64.7428 381.573 64.7428 381.573 64.743L383.399 66.5701C384.912 65.0577 384.913 62.605 383.401 61.0918Z" fill="white"/>
<path d="M425.854 96.1116H423.271V98.6941H425.854V96.1116Z" fill="white"/>
</g>
<g filter="url(#filter6_f)">
<circle cx="241" cy="83" r="70" fill="#0E243E" fill-opacity="0.1"/>
<circle cx="241" cy="83" r="70" stroke="#7BD7FF" stroke-width="6"/>
</g>
<g filter="url(#filter7_f)">
<circle cx="241" cy="83" r="70" fill="#0E243E" fill-opacity="0.1"/>
<circle cx="241" cy="83" r="68.5" stroke="white" stroke-width="3"/>
</g>
<path d="M206.702 112.718V120.96H207.885V124.444H206.767V122H200.384V124.444H199.266V120.96H199.981C200.293 120.423 200.588 119.82 200.865 119.153C201.151 118.486 201.402 117.788 201.619 117.06C201.836 116.323 202.013 115.587 202.152 114.85C202.291 114.113 202.377 113.403 202.412 112.718H206.702ZM205.545 113.771H203.439C203.404 114.274 203.318 114.841 203.179 115.474C203.049 116.107 202.88 116.757 202.672 117.424C202.473 118.083 202.247 118.72 201.996 119.335C201.753 119.95 201.493 120.492 201.216 120.96H205.545V113.771ZM211.972 114.902C212.57 114.902 213.082 115.032 213.506 115.292C213.94 115.552 214.269 115.92 214.494 116.397C214.728 116.865 214.845 117.415 214.845 118.048V118.737H210.074C210.092 119.526 210.291 120.128 210.672 120.544C211.062 120.951 211.604 121.155 212.297 121.155C212.739 121.155 213.129 121.116 213.467 121.038C213.814 120.951 214.169 120.83 214.533 120.674V121.675C214.178 121.831 213.827 121.944 213.48 122.013C213.134 122.091 212.722 122.13 212.245 122.13C211.587 122.13 211.002 121.996 210.49 121.727C209.988 121.458 209.593 121.06 209.307 120.531C209.03 119.994 208.891 119.339 208.891 118.568C208.891 117.805 209.017 117.151 209.268 116.605C209.528 116.059 209.888 115.639 210.347 115.344C210.815 115.049 211.357 114.902 211.972 114.902ZM211.959 115.838C211.413 115.838 210.98 116.016 210.659 116.371C210.347 116.718 210.161 117.203 210.1 117.827H213.649C213.641 117.238 213.502 116.761 213.233 116.397C212.965 116.024 212.54 115.838 211.959 115.838ZM218.452 114.902C219.249 114.902 219.882 115.062 220.35 115.383C220.827 115.695 221.065 116.146 221.065 116.735C221.065 117.16 220.948 117.498 220.714 117.749C220.48 117.992 220.159 118.169 219.752 118.282V118.334C220.029 118.412 220.285 118.52 220.519 118.659C220.753 118.798 220.939 118.98 221.078 119.205C221.225 119.43 221.299 119.721 221.299 120.076C221.299 120.657 221.056 121.146 220.571 121.545C220.094 121.935 219.345 122.13 218.322 122.13C217.819 122.13 217.364 122.087 216.957 122C216.55 121.922 216.212 121.814 215.943 121.675V120.648C216.238 120.787 216.584 120.912 216.983 121.025C217.39 121.138 217.832 121.194 218.309 121.194C218.829 121.194 219.267 121.107 219.622 120.934C219.986 120.752 220.168 120.444 220.168 120.011C220.168 119.231 219.505 118.841 218.179 118.841H217.243V117.905H217.997C218.595 117.905 219.072 117.827 219.427 117.671C219.791 117.506 219.973 117.229 219.973 116.839C219.973 116.51 219.834 116.263 219.557 116.098C219.288 115.933 218.898 115.851 218.387 115.851C218.006 115.851 217.668 115.89 217.373 115.968C217.087 116.037 216.771 116.146 216.424 116.293L216.021 115.383C216.749 115.062 217.559 114.902 218.452 114.902ZM224.071 115.032V119.283C224.071 119.387 224.067 119.543 224.058 119.751C224.05 119.959 224.037 120.167 224.019 120.375C224.011 120.583 224.002 120.748 223.993 120.869L227.724 115.032H229.128V122H228.062V117.892C228.062 117.753 228.062 117.571 228.062 117.346C228.071 117.121 228.08 116.9 228.088 116.683C228.097 116.458 228.106 116.289 228.114 116.176L224.409 122H222.992V115.032H224.071ZM232.49 115.032V117.931H236.273V115.032H237.417V122H236.273V118.893H232.49V122H231.346V115.032H232.49ZM242.418 122.13C241.803 122.13 241.252 122.004 240.767 121.753C240.29 121.502 239.913 121.112 239.636 120.583C239.367 120.054 239.233 119.378 239.233 118.555C239.233 117.697 239.376 116.999 239.662 116.462C239.948 115.925 240.334 115.53 240.819 115.279C241.313 115.028 241.872 114.902 242.496 114.902C242.851 114.902 243.194 114.941 243.523 115.019C243.852 115.088 244.121 115.175 244.329 115.279L243.978 116.228C243.77 116.15 243.527 116.076 243.25 116.007C242.973 115.938 242.713 115.903 242.47 115.903C241.101 115.903 240.416 116.783 240.416 118.542C240.416 119.383 240.581 120.028 240.91 120.479C241.248 120.921 241.746 121.142 242.405 121.142C242.786 121.142 243.12 121.103 243.406 121.025C243.701 120.947 243.969 120.852 244.212 120.739V121.753C243.978 121.874 243.718 121.965 243.432 122.026C243.155 122.095 242.817 122.13 242.418 122.13ZM248.56 114.902C249.158 114.902 249.669 115.032 250.094 115.292C250.527 115.552 250.857 115.92 251.082 116.397C251.316 116.865 251.433 117.415 251.433 118.048V118.737H246.662C246.679 119.526 246.879 120.128 247.26 120.544C247.65 120.951 248.192 121.155 248.885 121.155C249.327 121.155 249.717 121.116 250.055 121.038C250.402 120.951 250.757 120.83 251.121 120.674V121.675C250.766 121.831 250.415 121.944 250.068 122.013C249.721 122.091 249.31 122.13 248.833 122.13C248.174 122.13 247.589 121.996 247.078 121.727C246.575 121.458 246.181 121.06 245.895 120.531C245.618 119.994 245.479 119.339 245.479 118.568C245.479 117.805 245.605 117.151 245.856 116.605C246.116 116.059 246.476 115.639 246.935 115.344C247.403 115.049 247.945 114.902 248.56 114.902ZM248.547 115.838C248.001 115.838 247.568 116.016 247.247 116.371C246.935 116.718 246.749 117.203 246.688 117.827H250.237C250.228 117.238 250.09 116.761 249.821 116.397C249.552 116.024 249.128 115.838 248.547 115.838ZM257.328 115.032H258.576L255.599 118.386L258.823 122H257.497L254.351 118.464V122H253.207V115.032H254.351V118.412L257.328 115.032ZM266.965 124.418H265.847V122H260.088V115.032H261.232V121.038H264.833V115.032H265.977V121.051H266.965V124.418ZM269.381 115.032V119.283C269.381 119.387 269.376 119.543 269.368 119.751C269.359 119.959 269.346 120.167 269.329 120.375C269.32 120.583 269.311 120.748 269.303 120.869L273.034 115.032H274.438V122H273.372V117.892C273.372 117.753 273.372 117.571 273.372 117.346C273.38 117.121 273.389 116.9 273.398 116.683C273.406 116.458 273.415 116.289 273.424 116.176L269.719 122H268.302V115.032H269.381ZM277.084 122H275.758L277.747 119.075C277.479 119.006 277.219 118.897 276.967 118.75C276.716 118.594 276.512 118.382 276.356 118.113C276.2 117.836 276.122 117.493 276.122 117.086C276.122 116.419 276.348 115.912 276.798 115.565C277.249 115.21 277.847 115.032 278.592 115.032H281.712V122H280.568V119.231H278.878L277.084 122ZM277.227 117.099C277.227 117.498 277.375 117.797 277.669 117.996C277.973 118.187 278.393 118.282 278.93 118.282H280.568V115.981H278.709C278.181 115.981 277.799 116.085 277.565 116.293C277.34 116.501 277.227 116.77 277.227 117.099Z" fill="white"/>
<g clip-path="url(#clip1)">
<path d="M258.785 67.9514L265.958 74.7832C266.183 74.998 266.482 75.1172 266.793 75.1172H270.789C271.458 75.1172 272 74.5751 272 73.9062C272 73.2379 271.458 72.6953 270.789 72.6953H267.277L259.999 65.7641C259.714 65.4921 259.313 65.3762 258.927 65.4533L251.072 67.0247C249.911 65.003 248.682 63.2647 247.446 61.8957C247.885 61.4937 248.258 61.0547 248.56 60.5864H255.531C255.719 60.5864 255.904 60.5424 256.073 60.4582L262.558 57.2157L265.574 60.2316C266.046 60.7047 266.813 60.7047 267.286 60.2316C267.759 59.7586 267.759 58.9919 267.286 58.5188L263.653 54.886C263.285 54.5175 262.722 54.4262 262.255 54.6594L255.246 58.1641H249.439C249.462 57.964 249.477 57.7625 249.477 57.5586C249.477 56.8964 249.352 56.1424 249.127 55.3524L254.668 54.2437C256.632 53.851 259.222 52.4102 260.06 49.6411C260.656 47.6757 260.502 44.4691 256.387 40.3548C255.914 39.8817 255.148 39.8817 254.675 40.3548C254.202 40.8278 254.202 41.5946 254.675 42.0676C257.26 44.6526 258.321 47.0291 257.743 48.9397C257.248 50.5716 255.604 51.5872 254.193 51.8691L248.229 53.062C246.798 50.1766 244.21 47.2656 241 47.2656C237.787 47.2656 235.2 50.1809 233.771 53.062L227.807 51.8691C226.397 51.5867 224.752 50.5716 224.258 48.9392C223.679 47.0286 224.74 44.6522 227.325 42.0671C227.798 41.5946 227.798 40.8278 227.325 40.3548C226.852 39.8817 226.086 39.8817 225.613 40.3548C221.499 44.4686 221.344 47.6753 221.94 49.6407C222.778 52.4102 225.368 53.851 227.332 54.2437L232.873 55.3524C232.647 56.1424 232.523 56.8964 232.523 57.5586C232.523 57.7625 232.538 57.964 232.561 58.1641H226.754L219.745 54.6594C219.278 54.4262 218.715 54.5175 218.347 54.886L214.714 58.5188C214.241 58.9919 214.241 59.7586 214.714 60.2316C215.187 60.7047 215.953 60.7042 216.426 60.2316L219.442 57.2157L225.927 60.4582C226.096 60.5424 226.281 60.5859 226.469 60.5859H233.439C233.741 61.0547 234.115 61.4937 234.554 61.8957C233.318 63.2647 232.089 65.003 230.928 67.0247L223.073 65.4533C222.686 65.3762 222.286 65.4921 222.001 65.7636L214.723 72.6953H211.211C210.542 72.6953 210 73.2374 210 73.9062C210 74.5751 210.542 75.1172 211.211 75.1172H215.207C215.518 75.1172 215.817 74.9975 216.042 74.7832L223.215 67.9514L229.733 69.255C228.944 70.8335 228.241 72.4616 227.639 74.0893L218.186 80.1525C217.918 80.3242 217.729 80.5938 217.659 80.9037L214.241 95.9453H211.211C210.542 95.9453 210 96.4874 210 97.1562C210 97.8251 210.542 98.3672 211.211 98.3672H215.207C215.772 98.3672 216.263 97.976 216.388 97.4245L219.911 81.9235L226.467 77.7183C225.688 80.5376 225.258 83.2357 225.258 85.5312C225.258 95.8313 233.878 102 241 102C248.003 102 256.742 95.9458 256.742 85.5312C256.742 83.2357 256.312 80.5376 255.533 77.7183L262.089 81.9235L265.612 97.4245C265.738 97.976 266.228 98.3672 266.793 98.3672H270.789C271.458 98.3672 272 97.8251 272 97.1562C272 96.4874 271.458 95.9453 270.789 95.9453H267.759L264.341 80.9037C264.27 80.5938 264.081 80.3242 263.814 80.1525L254.361 74.0893C253.759 72.4616 253.056 70.8335 252.267 69.255L258.785 67.9514ZM247.055 97.8932C245.498 98.748 243.806 99.309 242.211 99.5024V93.4023C242.211 92.7335 241.669 92.1914 241 92.1914C240.331 92.1914 239.789 92.7335 239.789 93.4023V99.5024C238.194 99.309 236.502 98.7475 234.945 97.8927V72.2332L239.789 74.655V82.5039C239.789 83.1728 240.331 83.7148 241 83.7148C241.669 83.7148 242.211 83.1728 242.211 82.5039V74.6546L247.055 72.2327V97.8932ZM241 72.5525L232.879 68.492C234.069 66.3861 235.353 64.5768 236.594 63.2557C237.913 63.8805 239.444 64.2188 241 64.2188C242.556 64.2188 244.087 63.8805 245.406 63.2557C246.647 64.5768 247.931 66.3861 249.121 68.492L241 72.5525ZM241 49.6875C244.033 49.6875 247.055 54.8609 247.055 57.5586C247.055 60.156 243.903 61.7969 241 61.7969C238.164 61.7969 234.945 60.1933 234.945 57.5586C234.945 54.8434 237.978 49.6875 241 49.6875ZM227.68 85.5312C227.68 81.3928 229.225 75.7771 231.751 70.6353L232.523 71.0218V96.2277C229.42 93.5887 227.68 89.7974 227.68 85.5312ZM249.477 96.2277V71.0218L250.249 70.6353C252.775 75.7771 254.32 81.3928 254.32 85.5312C254.32 89.7974 252.58 93.5887 249.477 96.2277Z" fill="white"/>
<path d="M242.211 87.9531C242.211 88.622 241.669 89.1641 241 89.1641C240.331 89.1641 239.789 88.622 239.789 87.9531C239.789 87.2843 240.331 86.7422 241 86.7422C241.669 86.7422 242.211 87.2843 242.211 87.9531Z" fill="white"/>
</g>
<g filter="url(#filter8_f)">
<circle cx="83" cy="83" r="70" fill="#0E243E" fill-opacity="0.1"/>
<circle cx="83" cy="83" r="70" stroke="#7BD7FF" stroke-width="6"/>
</g>
<g filter="url(#filter9_f)">
<circle cx="83" cy="83" r="70" fill="#0E243E" fill-opacity="0.1"/>
<circle cx="83" cy="83" r="68.5" stroke="white" stroke-width="3"/>
</g>
<path d="M47.6151 112.718V120.96H48.7981V124.444H47.6801V122H41.2971V124.444H40.1791V120.96H40.8941C41.2061 120.423 41.5007 119.82 41.7781 119.153C42.0641 118.486 42.3154 117.788 42.5321 117.06C42.7487 116.323 42.9264 115.587 43.0651 114.85C43.2037 114.113 43.2904 113.403 43.3251 112.718H47.6151ZM46.4581 113.771H44.3521C44.3174 114.274 44.2307 114.841 44.0921 115.474C43.9621 116.107 43.7931 116.757 43.5851 117.424C43.3857 118.083 43.1604 118.72 42.9091 119.335C42.6664 119.95 42.4064 120.492 42.1291 120.96H46.4581V113.771ZM52.8854 114.902C53.4834 114.902 53.9947 115.032 54.4194 115.292C54.8527 115.552 55.182 115.92 55.4074 116.397C55.6414 116.865 55.7584 117.415 55.7584 118.048V118.737H50.9874C51.0047 119.526 51.204 120.128 51.5854 120.544C51.9754 120.951 52.517 121.155 53.2104 121.155C53.6524 121.155 54.0424 121.116 54.3804 121.038C54.727 120.951 55.0824 120.83 55.4464 120.674V121.675C55.091 121.831 54.74 121.944 54.3934 122.013C54.0467 122.091 53.635 122.13 53.1584 122.13C52.4997 122.13 51.9147 121.996 51.4034 121.727C50.9007 121.458 50.5064 121.06 50.2204 120.531C49.943 119.994 49.8044 119.339 49.8044 118.568C49.8044 117.805 49.93 117.151 50.1814 116.605C50.4414 116.059 50.801 115.639 51.2604 115.344C51.7284 115.049 52.27 114.902 52.8854 114.902ZM52.8724 115.838C52.3264 115.838 51.893 116.016 51.5724 116.371C51.2604 116.718 51.074 117.203 51.0134 117.827H54.5624C54.5537 117.238 54.415 116.761 54.1464 116.397C53.8777 116.024 53.453 115.838 52.8724 115.838ZM59.3652 114.902C60.1626 114.902 60.7952 115.062 61.2632 115.383C61.7399 115.695 61.9782 116.146 61.9782 116.735C61.9782 117.16 61.8612 117.498 61.6272 117.749C61.3932 117.992 61.0726 118.169 60.6652 118.282V118.334C60.9426 118.412 61.1982 118.52 61.4322 118.659C61.6662 118.798 61.8526 118.98 61.9912 119.205C62.1386 119.43 62.2122 119.721 62.2122 120.076C62.2122 120.657 61.9696 121.146 61.4842 121.545C61.0076 121.935 60.2579 122.13 59.2352 122.13C58.7326 122.13 58.2776 122.087 57.8702 122C57.4629 121.922 57.1249 121.814 56.8562 121.675V120.648C57.1509 120.787 57.4976 120.912 57.8962 121.025C58.3036 121.138 58.7456 121.194 59.2222 121.194C59.7422 121.194 60.1799 121.107 60.5352 120.934C60.8992 120.752 61.0812 120.444 61.0812 120.011C61.0812 119.231 60.4182 118.841 59.0922 118.841H58.1562V117.905H58.9102C59.5082 117.905 59.9849 117.827 60.3402 117.671C60.7042 117.506 60.8862 117.229 60.8862 116.839C60.8862 116.51 60.7476 116.263 60.4702 116.098C60.2016 115.933 59.8116 115.851 59.3002 115.851C58.9189 115.851 58.5809 115.89 58.2862 115.968C58.0002 116.037 57.6839 116.146 57.3372 116.293L56.9342 115.383C57.6622 115.062 58.4726 114.902 59.3652 114.902ZM64.9843 115.032V119.283C64.9843 119.387 64.98 119.543 64.9713 119.751C64.9626 119.959 64.9496 120.167 64.9323 120.375C64.9236 120.583 64.915 120.748 64.9063 120.869L68.6373 115.032H70.0413V122H68.9753V117.892C68.9753 117.753 68.9753 117.571 68.9753 117.346C68.984 117.121 68.9926 116.9 69.0013 116.683C69.01 116.458 69.0186 116.289 69.0273 116.176L65.3223 122H63.9053V115.032H64.9843ZM73.4028 115.032V117.931H77.1858V115.032H78.3298V122H77.1858V118.893H73.4028V122H72.2588V115.032H73.4028ZM84.6962 112.12V114.928C85.3895 114.989 85.9918 115.171 86.5032 115.474C87.0232 115.777 87.4262 116.185 87.7122 116.696C87.9982 117.207 88.1412 117.814 88.1412 118.516C88.1412 119.565 87.8335 120.401 87.2182 121.025C86.6115 121.649 85.7708 122.009 84.6962 122.104V125.12H83.5782V122.104C82.8935 122.043 82.2912 121.866 81.7712 121.571C81.2512 121.268 80.8482 120.86 80.5622 120.349C80.2762 119.829 80.1332 119.218 80.1332 118.516C80.1332 117.459 80.4365 116.618 81.0432 115.994C81.6585 115.37 82.5165 115.015 83.6172 114.928V112.12H84.6962ZM83.6172 115.877C82.8198 115.955 82.2392 116.219 81.8752 116.67C81.5112 117.112 81.3292 117.727 81.3292 118.516C81.3292 119.305 81.5112 119.924 81.8752 120.375C82.2478 120.826 82.8285 121.09 83.6172 121.168V115.877ZM84.6962 115.89V121.168C85.4762 121.081 86.0482 120.813 86.4122 120.362C86.7762 119.911 86.9582 119.296 86.9582 118.516C86.9582 117.736 86.7718 117.125 86.3992 116.683C86.0352 116.241 85.4675 115.977 84.6962 115.89ZM92.6471 114.902C93.2451 114.902 93.7564 115.032 94.1811 115.292C94.6144 115.552 94.9437 115.92 95.1691 116.397C95.4031 116.865 95.5201 117.415 95.5201 118.048V118.737H90.7491C90.7664 119.526 90.9657 120.128 91.3471 120.544C91.7371 120.951 92.2787 121.155 92.9721 121.155C93.4141 121.155 93.8041 121.116 94.1421 121.038C94.4887 120.951 94.8441 120.83 95.2081 120.674V121.675C94.8527 121.831 94.5017 121.944 94.1551 122.013C93.8084 122.091 93.3967 122.13 92.9201 122.13C92.2614 122.13 91.6764 121.996 91.1651 121.727C90.6624 121.458 90.2681 121.06 89.9821 120.531C89.7047 119.994 89.5661 119.339 89.5661 118.568C89.5661 117.805 89.6917 117.151 89.9431 116.605C90.2031 116.059 90.5627 115.639 91.0221 115.344C91.4901 115.049 92.0317 114.902 92.6471 114.902ZM92.6341 115.838C92.0881 115.838 91.6547 116.016 91.3341 116.371C91.0221 116.718 90.8357 117.203 90.7751 117.827H94.3241C94.3154 117.238 94.1767 116.761 93.9081 116.397C93.6394 116.024 93.2147 115.838 92.6341 115.838ZM101.415 115.032H102.663L99.686 118.386L102.91 122H101.584L98.438 118.464V122H97.294V115.032H98.438V118.412L101.415 115.032ZM111.052 124.418H109.934V122H104.175V115.032H105.319V121.038H108.92V115.032H110.064V121.051H111.052V124.418ZM113.468 115.032V119.283C113.468 119.387 113.463 119.543 113.455 119.751C113.446 119.959 113.433 120.167 113.416 120.375C113.407 120.583 113.398 120.748 113.39 120.869L117.121 115.032H118.525V122H117.459V117.892C117.459 117.753 117.459 117.571 117.459 117.346C117.467 117.121 117.476 116.9 117.485 116.683C117.493 116.458 117.502 116.289 117.511 116.176L113.806 122H112.389V115.032H113.468ZM121.171 122H119.845L121.834 119.075C121.566 119.006 121.306 118.897 121.054 118.75C120.803 118.594 120.599 118.382 120.443 118.113C120.287 117.836 120.209 117.493 120.209 117.086C120.209 116.419 120.435 115.912 120.885 115.565C121.336 115.21 121.934 115.032 122.679 115.032H125.799V122H124.655V119.231H122.965L121.171 122ZM121.314 117.099C121.314 117.498 121.462 117.797 121.756 117.996C122.06 118.187 122.48 118.282 123.017 118.282H124.655V115.981H122.796C122.268 115.981 121.886 116.085 121.652 116.293C121.427 116.501 121.314 116.77 121.314 117.099Z" fill="white"/>
<g clip-path="url(#clip2)">
<path d="M81.8555 80.6792H70.7148C70.2134 80.6792 69.8066 81.086 69.8066 81.5874C69.8066 82.0893 70.2134 82.4956 70.7148 82.4956H81.8555C82.3573 82.4956 82.7637 82.0893 82.7637 81.5874C82.7637 81.086 82.3573 80.6792 81.8555 80.6792Z" fill="white"/>
<path d="M81.8555 86.3303H70.7148C70.2134 86.3303 69.8066 86.7371 69.8066 87.2385C69.8066 87.7404 70.2134 88.1467 70.7148 88.1467H81.8555C82.3573 88.1467 82.7637 87.7404 82.7637 87.2385C82.7637 86.7371 82.3573 86.3303 81.8555 86.3303Z" fill="white"/>
<path d="M80.0124 57.8429C78.6591 57.9125 77.3857 58.4224 76.329 59.3169C67.6197 66.6903 63.0105 76.2705 65.6855 87.4622C67.1911 93.76 72.761 98.1582 79.2305 98.1582H86.7553C91.2344 98.1582 94.1165 93.4057 92.048 89.4512C89.1176 83.8497 87.884 79.0755 87.5472 74.9654L86.6172 63.6129C86.4635 61.7397 85.499 60.0534 83.9702 58.9857C83.5586 58.6982 82.9924 58.7989 82.7053 59.21C82.4182 59.6215 82.5185 60.1872 82.93 60.4748C84.0298 61.2425 84.6963 62.4095 84.8069 63.7609L85.7369 75.1139C86.174 80.4477 87.9469 85.5308 90.4383 90.2932C91.8763 93.0415 89.8655 96.3418 86.7553 96.3418H79.2305C73.6048 96.3418 68.7615 92.5164 67.4522 87.0398C64.9532 76.5883 69.2682 67.6747 77.5025 60.7033C78.2532 60.068 79.1534 59.7062 80.106 59.657C80.607 59.631 80.992 59.2038 80.9665 58.7029C80.9405 58.202 80.511 57.8155 80.0124 57.8429Z" fill="white"/>
<path d="M105.262 91.235C104.768 91.235 104.363 91.6314 104.355 92.1276C104.253 98.0172 98.4561 103.184 91.9488 103.184H72.9276C66.8403 103.184 61.8026 98.2235 61.6976 92.1272C61.479 79.4241 65.0522 65.4128 71.5137 53.5957H94.5386C100.458 64.4175 103.93 76.8831 104.325 88.7583C104.342 89.2597 104.76 89.6518 105.263 89.6358C105.765 89.6192 106.157 89.1992 106.141 88.6982C105.744 76.7842 102.325 64.2945 96.4879 53.3819C96.6851 53.2149 96.8105 52.9661 96.8105 52.6875V49.61C96.8105 49.1086 96.4037 48.7018 95.9023 48.7018H94.6606V44.8415C94.6606 43.8259 93.8347 43 92.8196 43H73.2332C72.2176 43 71.3917 43.8259 71.3917 44.8415V48.7018H70.15C69.6481 48.7018 69.2418 49.1086 69.2418 49.61V52.6875C69.2418 52.9661 69.3671 53.2149 69.5644 53.3814C63.3768 64.9407 59.6513 78.7993 59.8812 92.1584C60.0041 99.2849 65.7954 105 72.9276 105H91.9488C99.0006 105 106.047 99.3611 106.171 92.1593C106.18 91.6537 105.773 91.235 105.262 91.235ZM73.2332 44.8164C93.6606 44.8282 92.8442 44.7918 92.8442 44.8415V48.7018H73.2081C73.2199 44.6367 73.1835 44.8164 73.2332 44.8164ZM71.0582 50.5182H94.9946V51.7793H71.0582V50.5182Z" fill="white"/>
<path d="M98.7615 83.6935C99.3731 82.8449 99.6172 81.809 99.4492 80.7769L97.8102 70.6963C97.6423 69.6642 97.0827 68.7588 96.2336 68.1477C93.4102 66.1141 89.5248 68.5332 90.081 71.9531L91.7201 82.0337C92.2787 85.4697 96.7275 86.5175 98.7615 83.6935ZM95.1722 69.6216C95.6272 69.9494 95.9276 70.4342 96.0175 70.9877L97.6565 81.0683C97.8424 82.2111 97.0638 83.2915 95.9214 83.4774C94.7739 83.6633 93.6987 82.8851 93.5128 81.7423L91.8738 71.6617C91.572 69.8061 93.6708 68.5398 95.1722 69.6216Z" fill="white"/>
</g>
<defs>
<filter id="filter0_f" x="300" y="66" width="42" height="26" filterUnits="userSpaceOnUse" color-interpolation-filters="sRGB">
<feFlood flood-opacity="0" result="BackgroundImageFix"/>
<feBlend mode="normal" in="SourceGraphic" in2="BackgroundImageFix" result="shape"/>
<feGaussianBlur stdDeviation="5" result="effect1_foregroundBlur"/>
</filter>
<filter id="filter1_f" x="307" y="76" width="28" height="9" filterUnits="userSpaceOnUse" color-interpolation-filters="sRGB">
<feFlood flood-opacity="0" result="BackgroundImageFix"/>
<feBlend mode="normal" in="SourceGraphic" in2="BackgroundImageFix" result="shape"/>
<feGaussianBlur stdDeviation="1.5" result="effect1_foregroundBlur"/>
</filter>
<filter id="filter2_f" x="141" y="66" width="42" height="26" filterUnits="userSpaceOnUse" color-interpolation-filters="sRGB">
<feFlood flood-opacity="0" result="BackgroundImageFix"/>
<feBlend mode="normal" in="SourceGraphic" in2="BackgroundImageFix" result="shape"/>
<feGaussianBlur stdDeviation="5" result="effect1_foregroundBlur"/>
</filter>
<filter id="filter3_f" x="148" y="76" width="28" height="9" filterUnits="userSpaceOnUse" color-interpolation-filters="sRGB">
<feFlood flood-opacity="0" result="BackgroundImageFix"/>
<feBlend mode="normal" in="SourceGraphic" in2="BackgroundImageFix" result="shape"/>
<feGaussianBlur stdDeviation="1.5" result="effect1_foregroundBlur"/>
</filter>
<filter id="filter4_f" x="317" y="0" width="166" height="166" filterUnits="userSpaceOnUse" color-interpolation-filters="sRGB">
<feFlood flood-opacity="0" result="BackgroundImageFix"/>
<feBlend mode="normal" in="SourceGraphic" in2="BackgroundImageFix" result="shape"/>
<feGaussianBlur stdDeviation="5" result="effect1_foregroundBlur"/>
</filter>
<filter id="filter5_f" x="327" y="10" width="146" height="146" filterUnits="userSpaceOnUse" color-interpolation-filters="sRGB">
<feFlood flood-opacity="0" result="BackgroundImageFix"/>
<feBlend mode="normal" in="SourceGraphic" in2="BackgroundImageFix" result="shape"/>
<feGaussianBlur stdDeviation="1.5" result="effect1_foregroundBlur"/>
</filter>
<filter id="filter6_f" x="158" y="0" width="166" height="166" filterUnits="userSpaceOnUse" color-interpolation-filters="sRGB">
<feFlood flood-opacity="0" result="BackgroundImageFix"/>
<feBlend mode="normal" in="SourceGraphic" in2="BackgroundImageFix" result="shape"/>
<feGaussianBlur stdDeviation="5" result="effect1_foregroundBlur"/>
</filter>
<filter id="filter7_f" x="168" y="10" width="146" height="146" filterUnits="userSpaceOnUse" color-interpolation-filters="sRGB">
<feFlood flood-opacity="0" result="BackgroundImageFix"/>
<feBlend mode="normal" in="SourceGraphic" in2="BackgroundImageFix" result="shape"/>
<feGaussianBlur stdDeviation="1.5" result="effect1_foregroundBlur"/>
</filter>
<filter id="filter8_f" x="0" y="0" width="166" height="166" filterUnits="userSpaceOnUse" color-interpolation-filters="sRGB">
<feFlood flood-opacity="0" result="BackgroundImageFix"/>
<feBlend mode="normal" in="SourceGraphic" in2="BackgroundImageFix" result="shape"/>
<feGaussianBlur stdDeviation="5" result="effect1_foregroundBlur"/>
</filter>
<filter id="filter9_f" x="10" y="10" width="146" height="146" filterUnits="userSpaceOnUse" color-interpolation-filters="sRGB">
<feFlood flood-opacity="0" result="BackgroundImageFix"/>
<feBlend mode="normal" in="SourceGraphic" in2="BackgroundImageFix" result="shape"/>
<feGaussianBlur stdDeviation="1.5" result="effect1_foregroundBlur"/>
</filter>
<clipPath id="clip0">
<rect width="77" height="77" fill="white" transform="translate(360 34)"/>
</clipPath>
<clipPath id="clip1">
<rect width="62" height="62" fill="white" transform="translate(210 40)"/>
</clipPath>
<clipPath id="clip2">
<rect width="62" height="62" fill="white" transform="translate(52 43)"/>
</clipPath>
</defs>
</svg>
