<svg width="395" height="395" viewBox="0 0 395 395" fill="none" xmlns="http://www.w3.org/2000/svg">

<g filter="url(#filter1_f)">
<circle cx="197.5" cy="197.5" r="184.5" fill="#0E243E" fill-opacity="0.1"/>
</g>
<g filter="url(#filter2_f)">
<path d="M300.963 163.7C300.63 157.939 293.778 153.438 280.076 150.004C280.537 148.994 280.797 147.944 280.8 146.853V123.3H280.743C279.538 103.679 199.135 103.1 189.9 103.1C180.665 103.1 100.263 103.679 99.0572 123.3H99V123.737V146.863C99.0168 153.26 107.272 158.266 119.553 161.993C119.385 162.552 119.284 163.121 119.25 163.7H119.2V164.137V187.223C105.969 190.63 99.3602 195.067 99.0337 200.733H99V201.171V224.296C99.0101 228.75 103.027 232.528 109.598 235.676C109.349 236.359 109.194 237.056 109.151 237.77H109.1V238.207V261.333C109.127 272.53 134.34 279.483 162.354 282.728C162.559 282.769 162.748 282.853 162.967 282.853C163.031 282.853 163.085 282.819 163.148 282.816C168.549 283.425 174.036 283.9 179.467 284.24C179.581 284.253 179.682 284.307 179.8 284.307C179.864 284.307 179.914 284.273 179.975 284.27C186.87 284.688 193.654 284.9 200 284.9C206.346 284.9 213.13 284.688 220.025 284.267C220.086 284.27 220.139 284.304 220.2 284.304C220.318 284.304 220.419 284.246 220.533 284.236C225.964 283.896 231.451 283.425 236.852 282.812C236.915 282.812 236.969 282.846 237.033 282.846C237.252 282.846 237.441 282.762 237.646 282.721C265.66 279.476 290.87 272.52 290.9 261.319V237.766H290.846C290.61 233.639 287.092 230.195 280.143 227.316C280.568 226.343 280.8 225.333 280.8 224.286V202.282C292.886 198.565 300.983 193.592 301 187.253V163.7H300.963ZM273.703 225.38L272.555 226.387C270.788 227.946 267.842 229.518 263.967 231.033V214.981C267.97 213.587 271.377 212.042 274.067 210.348V224.279C274.067 224.626 273.939 224.997 273.703 225.38ZM198.404 241.025C197.913 241.039 197.418 241.045 196.923 241.056C195.721 241.079 194.489 241.086 193.27 241.096V224.279C194.196 224.269 195.122 224.256 196.048 224.239C196.226 224.236 196.404 224.232 196.583 224.229C199.973 224.165 203.363 224.061 206.737 223.906V240.715C206.016 240.753 205.292 240.786 204.562 240.816C202.535 240.907 200.488 240.975 198.404 241.025ZM183.702 241.072C182.16 241.045 180.625 241.008 179.1 240.961C178.911 240.955 178.723 240.948 178.534 240.941C176.699 240.88 174.878 240.803 173.07 240.715V223.909C176.443 224.067 179.834 224.172 183.224 224.232C183.402 224.236 183.581 224.239 183.756 224.242C184.682 224.259 185.607 224.273 186.533 224.283V241.109C185.88 241.103 185.227 241.103 184.577 241.093C184.281 241.086 183.995 241.076 183.702 241.072ZM122.893 233.396C122.782 233.363 122.678 233.332 122.567 233.302V217.038C125.711 217.886 129.091 218.66 132.667 219.364V235.797C129.576 235.14 126.725 234.45 124.129 233.743C123.718 233.625 123.294 233.514 122.893 233.396ZM193.856 261.276C194.782 261.293 195.707 261.306 196.633 261.316V278.146C191.981 278.102 187.489 277.968 183.167 277.756V260.946C186.54 261.104 189.93 261.208 193.321 261.269C193.499 261.269 193.677 261.272 193.856 261.276ZM206.679 261.266C210.07 261.202 213.46 261.097 216.833 260.942V277.752C212.511 277.964 208.019 278.099 203.367 278.143V261.313C204.292 261.303 205.218 261.289 206.144 261.272C206.323 261.272 206.501 261.269 206.679 261.266ZM233.667 259.744V276.463C230.431 276.803 227.065 277.102 223.567 277.348V260.559C226.98 260.336 230.354 260.064 233.667 259.744ZM240.4 259.017C243.871 258.599 247.241 258.124 250.5 257.596V274.126C247.329 274.685 243.959 275.2 240.4 275.668V259.017ZM257.233 256.394C260.809 255.69 264.189 254.916 267.333 254.068V270.332C264.334 271.197 260.957 272.036 257.233 272.827V256.394ZM142.767 256.394V272.827C139.043 272.036 135.666 271.197 132.667 270.332V254.068C135.811 254.916 139.191 255.694 142.767 256.394ZM149.5 257.599C152.759 258.128 156.129 258.603 159.6 259.02V275.672C156.041 275.204 152.671 274.688 149.5 274.13V257.599ZM166.333 259.744C169.646 260.064 173.02 260.336 176.433 260.562V277.352C172.935 277.106 169.569 276.806 166.333 276.466V259.744ZM157.981 239.611C157.637 239.578 157.297 239.54 156.957 239.507C156.715 239.483 156.476 239.453 156.233 239.429V222.714C159.546 223.034 162.92 223.306 166.333 223.532V240.308C163.505 240.106 160.711 239.877 157.981 239.611ZM149.5 221.983V238.635C145.941 238.167 142.571 237.652 139.4 237.093V220.563C142.659 221.091 146.029 221.569 149.5 221.983ZM215.709 240.15C214.968 240.207 214.221 240.264 213.467 240.318V223.529C216.88 223.303 220.254 223.034 223.567 222.711V239.429C221.486 239.648 219.358 239.854 217.173 240.032C216.685 240.076 216.197 240.113 215.709 240.15ZM230.3 238.635V221.983C233.771 221.566 237.141 221.091 240.4 220.563V237.093C237.229 237.652 233.859 238.17 230.3 238.635ZM247.133 219.361C250.709 218.657 254.089 217.883 257.233 217.034V233.299C254.234 234.164 250.857 235.002 247.133 235.793V219.361ZM201.094 203.982C198.562 203.918 196.088 203.82 193.657 203.702C193.526 203.696 193.395 203.689 193.267 203.686V186.876C196.64 187.034 200.03 187.138 203.421 187.199C203.599 187.202 203.777 187.206 203.952 187.209C204.878 187.226 205.804 187.239 206.73 187.249V204.059C205.09 204.042 203.437 204.036 201.838 203.999C201.592 203.992 201.34 203.989 201.094 203.982ZM122.567 155.869V139.604C125.711 140.453 129.091 141.227 132.667 141.931V158.363C132.253 158.276 131.825 158.188 131.421 158.101C129.63 157.707 127.883 157.296 126.213 156.862C124.94 156.535 123.732 156.202 122.567 155.869ZM183.756 146.809C184.682 146.826 185.607 146.839 186.533 146.849V163.659C182.002 163.615 177.497 163.498 173.067 163.275V146.479C176.44 146.637 179.83 146.742 183.221 146.802C183.399 146.802 183.577 146.806 183.756 146.809ZM196.579 146.799C199.97 146.735 203.36 146.631 206.733 146.476V163.272C206.161 163.299 205.612 163.339 205.037 163.366C204.989 163.37 204.942 163.37 204.892 163.373C202.633 163.474 200.33 163.548 197.997 163.602C197.633 163.612 197.27 163.615 196.906 163.626C195.707 163.649 194.482 163.652 193.267 163.666V146.849C194.192 146.839 195.118 146.826 196.044 146.809C196.223 146.806 196.401 146.802 196.579 146.799ZM273.296 148.489L273.201 148.469L271.976 149.422C270.198 150.805 267.468 152.206 263.967 153.559V137.544C267.97 136.15 271.377 134.605 274.067 132.911V146.843C274.067 147.354 273.797 147.907 273.296 148.489ZM230.3 161.181V144.55C233.771 144.133 237.141 143.658 240.4 143.129V159.633C237.208 160.198 233.848 160.717 230.3 161.181ZM247.133 158.337V141.931C250.709 141.227 254.089 140.453 257.233 139.604V155.832C254.217 156.71 250.82 157.549 247.133 158.337ZM223.567 145.277V161.976C220.314 162.319 216.948 162.619 213.467 162.868V146.095C216.88 145.87 220.254 145.597 223.567 145.277ZM156.233 161.983V145.277C159.546 145.597 162.92 145.87 166.333 146.095V162.855C162.906 162.609 159.526 162.329 156.233 161.983ZM149.5 144.55V161.185C148.833 161.097 148.14 161.026 147.48 160.936C147.049 160.875 146.638 160.811 146.214 160.75C144.268 160.471 142.366 160.171 140.501 159.858C140.127 159.794 139.767 159.727 139.4 159.663V143.133C142.659 143.658 146.029 144.136 149.5 144.55ZM185.698 203.221C185.244 203.187 184.786 203.154 184.335 203.12C182.18 202.952 180.076 202.766 178.022 202.561C177.581 202.517 177.14 202.47 176.703 202.426C176.612 202.416 176.524 202.403 176.433 202.396V185.677C179.746 185.997 183.12 186.27 186.533 186.495V203.275C186.261 203.255 185.971 203.241 185.698 203.221ZM163.455 200.706C162.122 200.494 160.869 200.265 159.6 200.043V183.533C162.859 184.061 166.229 184.536 169.7 184.953V201.605C167.64 201.332 165.623 201.049 163.687 200.746C163.61 200.73 163.532 200.716 163.455 200.706ZM152.867 182.327V198.733C149.146 197.935 145.773 197.087 142.767 196.205V180.001C145.911 180.849 149.291 181.627 152.867 182.327ZM136.033 177.944V193.939C130.741 191.895 127.327 189.808 126.216 187.95L125.991 187.573C125.97 187.468 125.937 187.357 125.933 187.253V173.311C128.623 175.005 132.03 176.55 136.033 177.944ZM216.779 187.199C220.17 187.135 223.56 187.031 226.933 186.876V203.669C222.51 203.888 218.012 204.009 213.467 204.056V187.249C214.392 187.239 215.318 187.226 216.244 187.209C216.423 187.206 216.601 187.202 216.779 187.199ZM260.287 200.117C258.809 200.373 257.317 200.625 255.786 200.857C254.907 200.992 254.008 201.12 253.106 201.248C252.254 201.369 251.369 201.474 250.503 201.585V184.95C253.974 184.533 257.344 184.058 260.603 183.529V200.06C260.496 200.08 260.391 200.1 260.287 200.117ZM237.491 202.992C236.235 203.096 234.939 203.164 233.667 203.255V186.495C237.08 186.27 240.454 186 243.767 185.677V202.379C241.811 202.585 239.858 202.79 237.848 202.958C237.727 202.968 237.612 202.982 237.491 202.992ZM275.965 196.679C274.289 197.147 272.515 197.585 270.703 198.013C269.865 198.208 269.01 198.403 268.135 198.592C267.875 198.649 267.599 198.699 267.337 198.757V182.331C270.912 181.627 274.292 180.853 277.437 180.004V196.269C276.952 196.403 276.464 196.541 275.965 196.679ZM294.23 163.918C293.92 166.204 288.739 169.245 279.49 172.103C267.579 175.783 248.941 179.153 225.321 180.196C224.112 180.247 222.907 180.297 221.675 180.338C220.668 180.371 219.658 180.402 218.631 180.429C215.844 180.489 213.016 180.533 210.1 180.533C207.184 180.533 204.356 180.489 201.569 180.425C200.545 180.402 199.535 180.368 198.525 180.334C197.29 180.297 196.085 180.243 194.879 180.193C171.259 179.149 152.618 175.779 140.71 172.099C131.535 169.265 126.364 166.248 125.98 163.972C125.997 163.908 125.997 163.854 126.038 163.774C126.267 163.831 126.523 163.878 126.755 163.935C128.071 164.248 129.421 164.551 130.795 164.841C137.484 166.282 144.898 167.464 152.796 168.366C152.823 168.366 152.843 168.379 152.867 168.379C152.873 168.379 152.88 168.376 152.883 168.376C158.263 168.989 163.845 169.47 169.575 169.81C169.619 169.81 169.656 169.834 169.7 169.834C169.724 169.834 169.74 169.82 169.764 169.82C173.888 170.063 178.066 170.241 182.295 170.335C184.884 170.399 187.425 170.433 189.9 170.433C191.667 170.433 193.479 170.413 195.307 170.379C219.769 170.002 242.44 167.093 258.216 162.585C258.944 162.38 259.654 162.168 260.354 161.956C260.782 161.824 261.219 161.696 261.634 161.565C262.852 161.175 264.021 160.774 265.148 160.357C265.344 160.282 265.529 160.208 265.724 160.134C266.677 159.774 267.593 159.4 268.468 159.02C268.72 158.909 268.98 158.801 269.225 158.69C270.158 158.269 271.06 157.838 271.895 157.39C272.272 157.192 272.599 156.986 272.952 156.784C273.356 156.552 273.76 156.317 274.134 156.077C274.346 155.943 274.599 155.815 274.801 155.68C289.873 158.949 293.846 162.525 294.23 163.918ZM189.9 109.833C245.413 109.833 273.491 118.573 274.016 123.589C273.609 125.865 268.441 128.871 259.29 131.699C247.379 135.379 228.741 138.749 205.121 139.793C203.912 139.843 202.707 139.894 201.475 139.934C200.468 139.968 199.458 139.998 198.431 140.025C195.644 140.089 192.816 140.133 189.9 140.133C186.984 140.133 184.156 140.089 181.369 140.025C180.345 140.002 179.335 139.968 178.325 139.934C177.09 139.897 175.885 139.843 174.679 139.793C151.059 138.749 132.418 135.379 120.51 131.699C111.356 128.871 106.191 125.865 105.784 123.589C106.309 118.573 134.387 109.833 189.9 109.833ZM105.733 146.853V132.911C108.423 134.605 111.83 136.15 115.833 137.544V153.664C109.285 151.209 105.74 148.748 105.733 146.853ZM122.041 193.444C122.092 193.498 122.169 193.545 122.22 193.599C126.829 198.252 136.373 201.908 148.254 204.635C148.527 204.699 148.817 204.759 149.093 204.823C149.965 205.019 150.85 205.211 151.746 205.396C162.657 207.719 175.683 209.399 189.873 210.23C189.883 210.23 189.89 210.234 189.897 210.234C189.903 210.234 189.907 210.23 189.91 210.23C194.469 210.496 199.131 210.681 203.892 210.762C205.999 210.806 208.073 210.833 210.1 210.833C212.423 210.833 214.807 210.806 217.231 210.749C221.634 210.658 225.974 210.476 230.253 210.227C230.27 210.227 230.283 210.237 230.3 210.237C230.33 210.237 230.354 210.22 230.384 210.22C244.612 209.382 257.961 207.685 269.249 205.244C266.805 206.524 263.458 207.847 259.29 209.136C246.716 213.021 226.634 216.56 201.111 217.381C200.353 217.405 199.606 217.432 198.839 217.452C198.014 217.472 197.175 217.485 196.337 217.502C194.219 217.536 192.088 217.566 189.9 217.566C186.984 217.566 184.156 217.522 181.369 217.459C180.345 217.435 179.335 217.401 178.325 217.368C177.09 217.331 175.885 217.277 174.679 217.226C151.059 216.183 132.418 212.813 120.51 209.133C111.251 206.271 106.07 203.228 105.77 200.942C106.144 199.676 109.548 196.508 122.041 193.444ZM105.733 224.286V210.345C108.423 212.038 111.83 213.584 115.833 214.977V231.033L113.911 230.286L113.871 230.326C108.585 228.134 105.74 225.983 105.733 224.286ZM115.833 261.319V247.378C118.523 249.072 121.93 250.617 125.933 252.011V268.13C119.385 265.676 115.84 263.215 115.833 261.319ZM274.067 268.13V252.014C278.07 250.62 281.477 249.075 284.167 247.381V261.313C284.163 263.208 280.615 265.673 274.067 268.13ZM284.123 238.025C283.756 240.305 278.585 243.328 269.39 246.169C257.479 249.849 238.841 253.219 215.221 254.263C214.012 254.313 212.807 254.364 211.575 254.404C210.568 254.438 209.558 254.468 208.531 254.495C205.744 254.556 202.916 254.6 200 254.6C197.084 254.6 194.253 254.556 191.462 254.492C190.449 254.468 189.449 254.435 188.449 254.401C187.207 254.361 185.995 254.31 184.779 254.26C161.159 253.216 142.521 249.846 130.61 246.166C121.705 243.416 116.561 240.493 115.914 238.238C116.917 238.588 117.958 238.928 119.025 239.261C119.133 239.295 119.24 239.328 119.348 239.359C120.257 239.638 121.186 239.907 122.139 240.17C122.499 240.271 122.863 240.372 123.23 240.47C123.769 240.614 124.321 240.753 124.873 240.894C137.134 244.035 152.786 246.26 169.683 247.26C169.69 247.26 169.693 247.264 169.7 247.264C169.703 247.264 169.707 247.26 169.71 247.26C174.928 247.57 180.258 247.762 185.645 247.826C187.079 247.853 188.503 247.866 189.9 247.866C191.755 247.866 193.654 247.843 195.576 247.809C200.488 247.728 205.336 247.546 210.076 247.264C210.087 247.264 210.093 247.27 210.103 247.27C210.12 247.27 210.13 247.26 210.147 247.26C215.921 246.913 221.51 246.419 226.879 245.803C226.9 245.803 226.916 245.813 226.937 245.813C227.011 245.813 227.071 245.776 227.145 245.769C233.125 245.079 238.794 244.23 244.056 243.244C245.14 243.045 246.208 242.84 247.265 242.628C247.5 242.581 247.736 242.533 247.972 242.483C257.913 240.443 266.519 237.8 272.424 234.524C272.747 234.349 273.05 234.167 273.356 233.989C273.73 233.767 274.087 233.541 274.434 233.312C274.757 233.103 275.131 232.901 275.427 232.689C282.073 235.059 283.904 237.18 284.123 238.025ZM284.167 194.064V177.947C288.17 176.554 291.577 175.008 294.267 173.315V187.246C294.263 189.142 290.715 191.606 284.167 194.064Z" fill="#7BD7FF"/>
</g>
<path d="M300.963 163.7C300.63 157.939 293.778 153.438 280.076 150.004C280.537 148.994 280.797 147.944 280.8 146.853V123.3H280.743C279.538 103.679 199.135 103.1 189.9 103.1C180.665 103.1 100.263 103.679 99.0572 123.3H99V123.737V146.863C99.0168 153.26 107.272 158.266 119.553 161.993C119.385 162.552 119.284 163.121 119.25 163.7H119.2V164.137V187.223C105.969 190.63 99.3602 195.067 99.0337 200.733H99V201.171V224.296C99.0101 228.75 103.027 232.528 109.598 235.676C109.349 236.359 109.194 237.056 109.151 237.77H109.1V238.207V261.333C109.127 272.53 134.34 279.483 162.354 282.728C162.559 282.769 162.748 282.853 162.967 282.853C163.031 282.853 163.085 282.819 163.148 282.816C168.549 283.425 174.036 283.9 179.467 284.24C179.581 284.253 179.682 284.307 179.8 284.307C179.864 284.307 179.914 284.273 179.975 284.27C186.87 284.688 193.654 284.9 200 284.9C206.346 284.9 213.13 284.688 220.025 284.267C220.086 284.27 220.139 284.304 220.2 284.304C220.318 284.304 220.419 284.246 220.533 284.236C225.964 283.896 231.451 283.425 236.852 282.812C236.915 282.812 236.969 282.846 237.033 282.846C237.252 282.846 237.441 282.762 237.646 282.721C265.66 279.476 290.87 272.52 290.9 261.319V237.766H290.846C290.61 233.639 287.092 230.195 280.143 227.316C280.568 226.343 280.8 225.333 280.8 224.286V202.282C292.886 198.565 300.983 193.592 301 187.253V163.7H300.963ZM273.703 225.38L272.555 226.387C270.788 227.946 267.842 229.518 263.967 231.033V214.981C267.97 213.587 271.377 212.042 274.067 210.348V224.279C274.067 224.626 273.939 224.997 273.703 225.38ZM198.404 241.025C197.913 241.039 197.418 241.045 196.923 241.056C195.721 241.079 194.489 241.086 193.27 241.096V224.279C194.196 224.269 195.122 224.256 196.048 224.239C196.226 224.236 196.404 224.232 196.583 224.229C199.973 224.165 203.363 224.061 206.737 223.906V240.715C206.016 240.753 205.292 240.786 204.562 240.816C202.535 240.907 200.488 240.975 198.404 241.025ZM183.702 241.072C182.16 241.045 180.625 241.008 179.1 240.961C178.911 240.955 178.723 240.948 178.534 240.941C176.699 240.88 174.878 240.803 173.07 240.715V223.909C176.443 224.067 179.834 224.172 183.224 224.232C183.402 224.236 183.581 224.239 183.756 224.242C184.682 224.259 185.607 224.273 186.533 224.283V241.109C185.88 241.103 185.227 241.103 184.577 241.093C184.281 241.086 183.995 241.076 183.702 241.072ZM122.893 233.396C122.782 233.363 122.678 233.332 122.567 233.302V217.038C125.711 217.886 129.091 218.66 132.667 219.364V235.797C129.576 235.14 126.725 234.45 124.129 233.743C123.718 233.625 123.294 233.514 122.893 233.396ZM193.856 261.276C194.782 261.293 195.707 261.306 196.633 261.316V278.146C191.981 278.102 187.489 277.968 183.167 277.756V260.946C186.54 261.104 189.93 261.208 193.321 261.269C193.499 261.269 193.677 261.272 193.856 261.276ZM206.679 261.266C210.07 261.202 213.46 261.097 216.833 260.942V277.752C212.511 277.964 208.019 278.099 203.367 278.143V261.313C204.292 261.303 205.218 261.289 206.144 261.272C206.323 261.272 206.501 261.269 206.679 261.266ZM233.667 259.744V276.463C230.431 276.803 227.065 277.102 223.567 277.348V260.559C226.98 260.336 230.354 260.064 233.667 259.744ZM240.4 259.017C243.871 258.599 247.241 258.124 250.5 257.596V274.126C247.329 274.685 243.959 275.2 240.4 275.668V259.017ZM257.233 256.394C260.809 255.69 264.189 254.916 267.333 254.068V270.332C264.334 271.197 260.957 272.036 257.233 272.827V256.394ZM142.767 256.394V272.827C139.043 272.036 135.666 271.197 132.667 270.332V254.068C135.811 254.916 139.191 255.694 142.767 256.394ZM149.5 257.599C152.759 258.128 156.129 258.603 159.6 259.02V275.672C156.041 275.204 152.671 274.688 149.5 274.13V257.599ZM166.333 259.744C169.646 260.064 173.02 260.336 176.433 260.562V277.352C172.935 277.106 169.569 276.806 166.333 276.466V259.744ZM157.981 239.611C157.637 239.578 157.297 239.54 156.957 239.507C156.715 239.483 156.476 239.453 156.233 239.429V222.714C159.546 223.034 162.92 223.306 166.333 223.532V240.308C163.505 240.106 160.711 239.877 157.981 239.611ZM149.5 221.983V238.635C145.941 238.167 142.571 237.652 139.4 237.093V220.563C142.659 221.091 146.029 221.569 149.5 221.983ZM215.709 240.15C214.968 240.207 214.221 240.264 213.467 240.318V223.529C216.88 223.303 220.254 223.034 223.567 222.711V239.429C221.486 239.648 219.358 239.854 217.173 240.032C216.685 240.076 216.197 240.113 215.709 240.15ZM230.3 238.635V221.983C233.771 221.566 237.141 221.091 240.4 220.563V237.093C237.229 237.652 233.859 238.17 230.3 238.635ZM247.133 219.361C250.709 218.657 254.089 217.883 257.233 217.034V233.299C254.234 234.164 250.857 235.002 247.133 235.793V219.361ZM201.094 203.982C198.562 203.918 196.088 203.82 193.657 203.702C193.526 203.696 193.395 203.689 193.267 203.686V186.876C196.64 187.034 200.03 187.138 203.421 187.199C203.599 187.202 203.777 187.206 203.952 187.209C204.878 187.226 205.804 187.239 206.73 187.249V204.059C205.09 204.042 203.437 204.036 201.838 203.999C201.592 203.992 201.34 203.989 201.094 203.982ZM122.567 155.869V139.604C125.711 140.453 129.091 141.227 132.667 141.931V158.363C132.253 158.276 131.825 158.188 131.421 158.101C129.63 157.707 127.883 157.296 126.213 156.862C124.94 156.535 123.732 156.202 122.567 155.869ZM183.756 146.809C184.682 146.826 185.607 146.839 186.533 146.849V163.659C182.002 163.615 177.497 163.498 173.067 163.275V146.479C176.44 146.637 179.83 146.742 183.221 146.802C183.399 146.802 183.577 146.806 183.756 146.809ZM196.579 146.799C199.97 146.735 203.36 146.631 206.733 146.476V163.272C206.161 163.299 205.612 163.339 205.037 163.366C204.989 163.37 204.942 163.37 204.892 163.373C202.633 163.474 200.33 163.548 197.997 163.602C197.633 163.612 197.27 163.615 196.906 163.626C195.707 163.649 194.482 163.652 193.267 163.666V146.849C194.192 146.839 195.118 146.826 196.044 146.809C196.223 146.806 196.401 146.802 196.579 146.799ZM273.296 148.489L273.201 148.469L271.976 149.422C270.198 150.805 267.468 152.206 263.967 153.559V137.544C267.97 136.15 271.377 134.605 274.067 132.911V146.843C274.067 147.354 273.797 147.907 273.296 148.489ZM230.3 161.181V144.55C233.771 144.133 237.141 143.658 240.4 143.129V159.633C237.208 160.198 233.848 160.717 230.3 161.181ZM247.133 158.337V141.931C250.709 141.227 254.089 140.453 257.233 139.604V155.832C254.217 156.71 250.82 157.549 247.133 158.337ZM223.567 145.277V161.976C220.314 162.319 216.948 162.619 213.467 162.868V146.095C216.88 145.87 220.254 145.597 223.567 145.277ZM156.233 161.983V145.277C159.546 145.597 162.92 145.87 166.333 146.095V162.855C162.906 162.609 159.526 162.329 156.233 161.983ZM149.5 144.55V161.185C148.833 161.097 148.14 161.026 147.48 160.936C147.049 160.875 146.638 160.811 146.214 160.75C144.268 160.471 142.366 160.171 140.501 159.858C140.127 159.794 139.767 159.727 139.4 159.663V143.133C142.659 143.658 146.029 144.136 149.5 144.55ZM185.698 203.221C185.244 203.187 184.786 203.154 184.335 203.12C182.18 202.952 180.076 202.766 178.022 202.561C177.581 202.517 177.14 202.47 176.703 202.426C176.612 202.416 176.524 202.403 176.433 202.396V185.677C179.746 185.997 183.12 186.27 186.533 186.495V203.275C186.261 203.255 185.971 203.241 185.698 203.221ZM163.455 200.706C162.122 200.494 160.869 200.265 159.6 200.043V183.533C162.859 184.061 166.229 184.536 169.7 184.953V201.605C167.64 201.332 165.623 201.049 163.687 200.746C163.61 200.73 163.532 200.716 163.455 200.706ZM152.867 182.327V198.733C149.146 197.935 145.773 197.087 142.767 196.205V180.001C145.911 180.849 149.291 181.627 152.867 182.327ZM136.033 177.944V193.939C130.741 191.895 127.327 189.808 126.216 187.95L125.991 187.573C125.97 187.468 125.937 187.357 125.933 187.253V173.311C128.623 175.005 132.03 176.55 136.033 177.944ZM216.779 187.199C220.17 187.135 223.56 187.031 226.933 186.876V203.669C222.51 203.888 218.012 204.009 213.467 204.056V187.249C214.392 187.239 215.318 187.226 216.244 187.209C216.423 187.206 216.601 187.202 216.779 187.199ZM260.287 200.117C258.809 200.373 257.317 200.625 255.786 200.857C254.907 200.992 254.008 201.12 253.106 201.248C252.254 201.369 251.369 201.474 250.503 201.585V184.95C253.974 184.533 257.344 184.058 260.603 183.529V200.06C260.496 200.08 260.391 200.1 260.287 200.117ZM237.491 202.992C236.235 203.096 234.939 203.164 233.667 203.255V186.495C237.08 186.27 240.454 186 243.767 185.677V202.379C241.811 202.585 239.858 202.79 237.848 202.958C237.727 202.968 237.612 202.982 237.491 202.992ZM275.965 196.679C274.289 197.147 272.515 197.585 270.703 198.013C269.865 198.208 269.01 198.403 268.135 198.592C267.875 198.649 267.599 198.699 267.337 198.757V182.331C270.912 181.627 274.292 180.853 277.437 180.004V196.269C276.952 196.403 276.464 196.541 275.965 196.679ZM294.23 163.918C293.92 166.204 288.739 169.245 279.49 172.103C267.579 175.783 248.941 179.153 225.321 180.196C224.112 180.247 222.907 180.297 221.675 180.338C220.668 180.371 219.658 180.402 218.631 180.429C215.844 180.489 213.016 180.533 210.1 180.533C207.184 180.533 204.356 180.489 201.569 180.425C200.545 180.402 199.535 180.368 198.525 180.334C197.29 180.297 196.085 180.243 194.879 180.193C171.259 179.149 152.618 175.779 140.71 172.099C131.535 169.265 126.364 166.248 125.98 163.972C125.997 163.908 125.997 163.854 126.038 163.774C126.267 163.831 126.523 163.878 126.755 163.935C128.071 164.248 129.421 164.551 130.795 164.841C137.484 166.282 144.898 167.464 152.796 168.366C152.823 168.366 152.843 168.379 152.867 168.379C152.873 168.379 152.88 168.376 152.883 168.376C158.263 168.989 163.845 169.47 169.575 169.81C169.619 169.81 169.656 169.834 169.7 169.834C169.724 169.834 169.74 169.82 169.764 169.82C173.888 170.063 178.066 170.241 182.295 170.335C184.884 170.399 187.425 170.433 189.9 170.433C191.667 170.433 193.479 170.413 195.307 170.379C219.769 170.002 242.44 167.093 258.216 162.585C258.944 162.38 259.654 162.168 260.354 161.956C260.782 161.824 261.219 161.696 261.634 161.565C262.852 161.175 264.021 160.774 265.148 160.357C265.344 160.282 265.529 160.208 265.724 160.134C266.677 159.774 267.593 159.4 268.468 159.02C268.72 158.909 268.98 158.801 269.225 158.69C270.158 158.269 271.06 157.838 271.895 157.39C272.272 157.192 272.599 156.986 272.952 156.784C273.356 156.552 273.76 156.317 274.134 156.077C274.346 155.943 274.599 155.815 274.801 155.68C289.873 158.949 293.846 162.525 294.23 163.918ZM189.9 109.833C245.413 109.833 273.491 118.573 274.016 123.589C273.609 125.865 268.441 128.871 259.29 131.699C247.379 135.379 228.741 138.749 205.121 139.793C203.912 139.843 202.707 139.894 201.475 139.934C200.468 139.968 199.458 139.998 198.431 140.025C195.644 140.089 192.816 140.133 189.9 140.133C186.984 140.133 184.156 140.089 181.369 140.025C180.345 140.002 179.335 139.968 178.325 139.934C177.09 139.897 175.885 139.843 174.679 139.793C151.059 138.749 132.418 135.379 120.51 131.699C111.356 128.871 106.191 125.865 105.784 123.589C106.309 118.573 134.387 109.833 189.9 109.833ZM105.733 146.853V132.911C108.423 134.605 111.83 136.15 115.833 137.544V153.664C109.285 151.209 105.74 148.748 105.733 146.853ZM122.041 193.444C122.092 193.498 122.169 193.545 122.22 193.599C126.829 198.252 136.373 201.908 148.254 204.635C148.527 204.699 148.817 204.759 149.093 204.823C149.965 205.019 150.85 205.211 151.746 205.396C162.657 207.719 175.683 209.399 189.873 210.23C189.883 210.23 189.89 210.234 189.897 210.234C189.903 210.234 189.907 210.23 189.91 210.23C194.469 210.496 199.131 210.681 203.892 210.762C205.999 210.806 208.073 210.833 210.1 210.833C212.423 210.833 214.807 210.806 217.231 210.749C221.634 210.658 225.974 210.476 230.253 210.227C230.27 210.227 230.283 210.237 230.3 210.237C230.33 210.237 230.354 210.22 230.384 210.22C244.612 209.382 257.961 207.685 269.249 205.244C266.805 206.524 263.458 207.847 259.29 209.136C246.716 213.021 226.634 216.56 201.111 217.381C200.353 217.405 199.606 217.432 198.839 217.452C198.014 217.472 197.175 217.485 196.337 217.502C194.219 217.536 192.088 217.566 189.9 217.566C186.984 217.566 184.156 217.522 181.369 217.459C180.345 217.435 179.335 217.401 178.325 217.368C177.09 217.331 175.885 217.277 174.679 217.226C151.059 216.183 132.418 212.813 120.51 209.133C111.251 206.271 106.07 203.228 105.77 200.942C106.144 199.676 109.548 196.508 122.041 193.444ZM105.733 224.286V210.345C108.423 212.038 111.83 213.584 115.833 214.977V231.033L113.911 230.286L113.871 230.326C108.585 228.134 105.74 225.983 105.733 224.286ZM115.833 261.319V247.378C118.523 249.072 121.93 250.617 125.933 252.011V268.13C119.385 265.676 115.84 263.215 115.833 261.319ZM274.067 268.13V252.014C278.07 250.62 281.477 249.075 284.167 247.381V261.313C284.163 263.208 280.615 265.673 274.067 268.13ZM284.123 238.025C283.756 240.305 278.585 243.328 269.39 246.169C257.479 249.849 238.841 253.219 215.221 254.263C214.012 254.313 212.807 254.364 211.575 254.404C210.568 254.438 209.558 254.468 208.531 254.495C205.744 254.556 202.916 254.6 200 254.6C197.084 254.6 194.253 254.556 191.462 254.492C190.449 254.468 189.449 254.435 188.449 254.401C187.207 254.361 185.995 254.31 184.779 254.26C161.159 253.216 142.521 249.846 130.61 246.166C121.705 243.416 116.561 240.493 115.914 238.238C116.917 238.588 117.958 238.928 119.025 239.261C119.133 239.295 119.24 239.328 119.348 239.359C120.257 239.638 121.186 239.907 122.139 240.17C122.499 240.271 122.863 240.372 123.23 240.47C123.769 240.614 124.321 240.753 124.873 240.894C137.134 244.035 152.786 246.26 169.683 247.26C169.69 247.26 169.693 247.264 169.7 247.264C169.703 247.264 169.707 247.26 169.71 247.26C174.928 247.57 180.258 247.762 185.645 247.826C187.079 247.853 188.503 247.866 189.9 247.866C191.755 247.866 193.654 247.843 195.576 247.809C200.488 247.728 205.336 247.546 210.076 247.264C210.087 247.264 210.093 247.27 210.103 247.27C210.12 247.27 210.13 247.26 210.147 247.26C215.921 246.913 221.51 246.419 226.879 245.803C226.9 245.803 226.916 245.813 226.937 245.813C227.011 245.813 227.071 245.776 227.145 245.769C233.125 245.079 238.794 244.23 244.056 243.244C245.14 243.045 246.208 242.84 247.265 242.628C247.5 242.581 247.736 242.533 247.972 242.483C257.913 240.443 266.519 237.8 272.424 234.524C272.747 234.349 273.05 234.167 273.356 233.989C273.73 233.767 274.087 233.541 274.434 233.312C274.757 233.103 275.131 232.901 275.427 232.689C282.073 235.059 283.904 237.18 284.123 238.025ZM284.167 194.064V177.947C288.17 176.554 291.577 175.008 294.267 173.315V187.246C294.263 189.142 290.715 191.606 284.167 194.064Z" fill="white"/>
<defs>
<filter id="filter0_f" x="0" y="0" width="395" height="395" filterUnits="userSpaceOnUse" color-interpolation-filters="sRGB">
<feFlood flood-opacity="0" result="BackgroundImageFix"/>
<feBlend mode="normal" in="SourceGraphic" in2="BackgroundImageFix" result="shape"/>
<feGaussianBlur stdDeviation="5" result="effect1_foregroundBlur"/>
</filter>
<filter id="filter1_f" x="10" y="10" width="375" height="375" filterUnits="userSpaceOnUse" color-interpolation-filters="sRGB">
<feFlood flood-opacity="0" result="BackgroundImageFix"/>
<feBlend mode="normal" in="SourceGraphic" in2="BackgroundImageFix" result="shape"/>
<feGaussianBlur stdDeviation="1.5" result="effect1_foregroundBlur"/>
</filter>
<filter id="filter2_f" x="74" y="68" width="252" height="252" filterUnits="userSpaceOnUse" color-interpolation-filters="sRGB">
<feFlood flood-opacity="0" result="BackgroundImageFix"/>
<feBlend mode="normal" in="SourceGraphic" in2="BackgroundImageFix" result="shape"/>
<feGaussianBlur stdDeviation="12.5" result="effect1_foregroundBlur"/>
</filter>
</defs>
</svg>
