<svg width="72" height="72" viewBox="0 0 72 72" fill="none" xmlns="http://www.w3.org/2000/svg">
<g clip-path="url(#clip0)">
<path d="M36.0001 18.7371L44.5493 11.6129H55.7421V0H27.8711V11.6129H36.0001V18.7371ZM30.1937 9.29032V2.32258H53.4195V9.29032H43.709L38.3227 13.779V9.29032H30.1937Z" fill="white"/>
<path d="M32.5161 4.64551H34.8387V6.96809H32.5161V4.64551Z" fill="white"/>
<path d="M37.1611 4.64551H46.4515V6.96809H37.1611V4.64551Z" fill="white"/>
<path d="M48.7744 4.64551H51.097V6.96809H48.7744V4.64551Z" fill="white"/>
<path d="M59.1152 69.677L58.1762 60.2761C62.0536 59.6632 65.0323 56.3057 65.0323 52.2577V37.1609H60.3871V35.5562C60.3871 33.9775 59.5195 32.5599 58.1246 31.833C59.5116 30.5589 60.3871 28.737 60.3871 26.7093V24.3867C60.3871 20.5439 57.2622 17.4189 53.4194 17.4189C49.5765 17.4189 46.4516 20.5439 46.4516 24.3867V26.7093C46.4516 29.7157 48.3688 32.2753 51.0423 33.2506L44.8095 39.4835H38.2971C38.1672 37.5476 36.8375 35.8601 34.9538 35.3214L30.1935 33.9628V31.8886C31.6151 30.6122 32.5161 28.767 32.5161 26.7093V24.3867C32.5161 20.5439 29.3912 17.4189 25.5484 17.4189C21.7056 17.4189 18.5806 20.5439 18.5806 24.3867V26.7093C18.5806 28.7659 19.4817 30.611 20.9032 31.8886V33.9639L16.143 35.3225C14.1595 35.8879 12.7742 37.7251 12.7742 39.7891V44.1286H8.12903V51.0964H10.4516V69.677H0V71.9996H72V69.677H59.1152ZM48.7742 51.0964V45.7708L57.003 37.5419C57.5978 36.9471 57.9517 36.1482 58.0311 35.3146C58.0413 35.3957 58.0645 35.4722 58.0645 35.5562V49.9351C58.0645 51.8556 56.5012 53.4189 54.5806 53.4189H45.2903V51.0964H48.7742ZM45.2903 60.3867H51.2073L52.1362 69.677H45.2903V60.3867ZM53.5413 60.3867H55.8525L56.7813 69.677H54.4701L53.5413 60.3867ZM60.3871 49.9351V39.4835H62.7097V52.2577C62.7097 55.4591 60.1047 58.0641 56.9032 58.0641H45.2903V55.7415H54.5806C57.7821 55.7415 60.3871 53.1366 60.3871 49.9351ZM48.7742 26.7093V24.3867C48.7742 21.8248 50.8575 19.7415 53.4194 19.7415C55.9812 19.7415 58.0645 21.8248 58.0645 24.3867V26.7093C58.0645 29.2711 55.9812 31.3544 53.4194 31.3544C50.8575 31.3544 48.7742 29.2711 48.7742 26.7093ZM45.7712 41.806L53.5191 34.0581C53.7618 33.8154 54.0975 33.677 54.44 33.677C55.1579 33.677 55.7419 34.2611 55.7419 34.9789C55.7419 35.3214 55.6036 35.6571 55.3609 35.8998L47.1321 44.1286H34.8387C34.198 44.1286 33.6774 43.6081 33.6774 42.9673C33.6774 42.3266 34.198 41.806 34.8387 41.806H45.7712ZM20.9032 24.3867C20.9032 21.8248 22.9865 19.7415 25.5484 19.7415C28.1103 19.7415 30.1935 21.8248 30.1935 24.3867V26.7093C30.1935 29.2711 28.1103 31.3544 25.5484 31.3544C22.9865 31.3544 20.9032 29.2711 20.9032 26.7093V24.3867ZM25.5484 33.677C26.3638 33.677 27.1429 33.5284 27.871 33.2704V34.5179C27.5829 34.9625 26.7828 35.9996 25.5484 35.9996C24.3139 35.9996 23.5139 34.9625 23.2258 34.5179V33.2704C23.9539 33.5284 24.733 33.677 25.5484 33.677ZM15.0968 39.7891C15.0968 38.7565 15.7903 37.8391 16.7809 37.5555L21.565 36.189C22.2386 37.0668 23.5496 38.3222 25.5484 38.3222C27.5472 38.3222 28.8582 37.0668 29.5318 36.1878L34.3159 37.5544C35.2056 37.809 35.8259 38.5824 35.9501 39.4823H34.8387C32.9182 39.4823 31.3548 41.0456 31.3548 42.9662C31.3548 43.375 31.4382 43.7629 31.5686 44.1275H15.0968V39.7891ZM10.4516 46.4512H46.4516V48.7738H10.4516V46.4512ZM12.7742 55.7415H16.2581V53.4189H12.7742V51.0964H42.9677V53.4189H18.5806V55.7415H42.9677V69.677H40.2017L37.8792 65.0319H17.8628L15.5402 69.677H12.7742V55.7415ZM37.6047 69.677H18.1372L19.2985 67.3544H36.4434L37.6047 69.677Z" fill="white"/>
</g>
<defs>
<clipPath id="clip0">
<rect width="72" height="72" fill="white"/>
</clipPath>
</defs>
</svg>
