<svg width="70" height="70" viewBox="0 0 70 70" fill="none" xmlns="http://www.w3.org/2000/svg">
<g clip-path="url(#clip0)">
<path d="M31.9352 36.292H27.8063C27.1392 36.292 26.5986 36.8327 26.5986 37.4996C26.5986 38.1665 27.1392 38.7073 27.8063 38.7073H31.9352C32.6024 38.7073 33.1428 38.1665 33.1428 37.4996C33.1428 36.8327 32.6022 36.292 31.9352 36.292Z" fill="white"/>
<path d="M56.5802 3.50619H38.7655V1.20767C38.7655 0.832513 38.591 0.478548 38.2935 0.250091C37.9957 0.0214971 37.6089 -0.0560224 37.2465 0.0409112L13.1094 6.47749C12.5807 6.61845 12.2129 7.09724 12.2129 7.64439V11.5451C12.2129 12.212 12.7535 12.7528 13.4205 12.7528C14.0876 12.7528 14.6282 12.212 14.6282 11.5451V8.5723L36.35 2.77966V67.3193L14.6282 62.9749V15.6155C14.6282 14.9486 14.0876 14.4079 13.4205 14.4079C12.7535 14.4079 12.2129 14.9486 12.2129 15.6155V63.965C12.2129 64.5407 12.6191 65.0363 13.1837 65.1491L37.3209 69.9767C37.3995 69.9924 37.4787 70.0002 37.5577 70.0002C37.8345 70.0002 38.1055 69.905 38.3233 69.7265C38.603 69.4971 38.7653 69.1543 38.7653 68.7925V66.4943H49.8949C50.5621 66.4943 51.1025 65.9536 51.1025 65.2867C51.1025 64.6198 50.562 64.079 49.8949 64.079H38.7653V60.6333H50.7188C51.386 60.6333 51.9264 60.0926 51.9264 59.4257V10.575C51.9264 9.90804 51.3858 9.36732 50.7188 9.36732H38.7653V5.92146H55.3723V64.0785H53.6493C52.9821 64.0785 52.4417 64.6192 52.4417 65.2861C52.4417 65.953 52.9823 66.4938 53.6493 66.4938H56.5799C57.2471 66.4938 57.7875 65.953 57.7875 65.2861V4.71382C57.7878 4.04691 57.2471 3.50619 56.5802 3.50619ZM49.5113 11.7826V58.2176H38.7656V11.7826H49.5113Z" fill="white"/>
</g>
<defs>
<clipPath id="clip0">
<rect width="70" height="70" fill="white"/>
</clipPath>
</defs>
</svg>
