<svg width="66" height="66" viewBox="0 0 66 66" fill="none" xmlns="http://www.w3.org/2000/svg">
<path d="M12.1 19.8004H53.9C54.5075 19.8004 55 19.3079 55 18.7004V5.50039C55 4.89292 54.5075 4.40039 53.9 4.40039H12.1C11.4925 4.40039 11 4.89292 11 5.50039V18.7004C11 19.3079 11.4925 19.8004 12.1 19.8004ZM13.2 6.60039H52.8V17.6004H13.2V6.60039Z" fill="white"/>
<path d="M58.2996 0H7.69961C7.09214 0 6.59961 0.492529 6.59961 1.1V51.7C6.59961 52.3075 7.09214 52.8 7.69961 52.8H9.89961V64.9C9.89961 65.5075 10.3921 66 10.9996 66H54.9996C55.6071 66 56.0996 65.5075 56.0996 64.9V52.8H58.2996C58.9071 52.8 59.3996 52.3075 59.3996 51.7V1.1C59.3996 0.492529 58.9071 0 58.2996 0ZM53.8996 63.8H12.0996V52.8H53.8996V63.8ZM57.1996 50.6H8.79961V2.2H57.1996V50.6Z" fill="white"/>
<path d="M30.7998 11H35.1998V13.2H30.7998V11Z" fill="white"/>
<path d="M37.4004 11H41.8004V13.2H37.4004V11Z" fill="white"/>
<path d="M24.2002 11H28.6002V13.2H24.2002V11Z" fill="white"/>
<path d="M15.4 31.8996H50.6C53.0299 31.8996 55 29.9295 55 27.4996C55 25.0697 53.0299 23.0996 50.6 23.0996H15.4C12.9701 23.0996 11 25.0697 11 27.4996C11 29.9295 12.9701 31.8996 15.4 31.8996ZM15.4 25.2996H50.6C51.8149 25.2996 52.8 26.2847 52.8 27.4996C52.8 28.7146 51.8149 29.6996 50.6 29.6996H15.4C14.1851 29.6996 13.2 28.7146 13.2 27.4996C13.2 26.2847 14.1851 25.2996 15.4 25.2996Z" fill="white"/>
<path d="M15.4004 26.4004H50.6004V28.6004H15.4004V26.4004Z" fill="white"/>
<path d="M31.9004 35.2002H34.1004V48.4002H31.9004V35.2002Z" fill="white"/>
<path d="M36.2998 35.2002H38.4998V48.4002H36.2998V35.2002Z" fill="white"/>
<path d="M40.7002 35.2002H42.9002V48.4002H40.7002V35.2002Z" fill="white"/>
<path d="M45.0996 35.2002H47.2996V48.4002H45.0996V35.2002Z" fill="white"/>
<path d="M49.5 35.2002H51.7V48.4002H49.5V35.2002Z" fill="white"/>
<path d="M27.5 35.2002H29.7V48.4002H27.5V35.2002Z" fill="white"/>
<path d="M23.0996 35.2002H25.2996V48.4002H23.0996V35.2002Z" fill="white"/>
<path d="M18.7002 35.2002H20.9002V48.4002H18.7002V35.2002Z" fill="white"/>
<path d="M14.2998 35.2002H16.4998V48.4002H14.2998V35.2002Z" fill="white"/>
<path d="M26.3998 62.7004H30.7998C31.4073 62.7004 31.8998 62.2079 31.8998 61.6004V55.0004C31.8998 54.3929 31.4073 53.9004 30.7998 53.9004H26.3998C25.7923 53.9004 25.2998 54.3929 25.2998 55.0004V61.6004C25.2998 62.2079 25.7923 62.7004 26.3998 62.7004ZM27.4998 56.1004H29.6998V60.5004H27.4998V56.1004Z" fill="white"/>
<path d="M17.6 62.7004H22C22.6075 62.7004 23.1 62.2079 23.1 61.6004V55.0004C23.1 54.3929 22.6075 53.9004 22 53.9004H17.6C16.9925 53.9004 16.5 54.3929 16.5 55.0004V61.6004C16.5 62.2079 16.9925 62.7004 17.6 62.7004ZM18.7 56.1004H20.9V60.5004H18.7V56.1004Z" fill="white"/>
<path d="M35.1996 62.7004H39.5996C40.2071 62.7004 40.6996 62.2079 40.6996 61.6004V55.0004C40.6996 54.3929 40.2071 53.9004 39.5996 53.9004H35.1996C34.5921 53.9004 34.0996 54.3929 34.0996 55.0004V61.6004C34.0996 62.2079 34.5921 62.7004 35.1996 62.7004ZM36.2996 56.1004H38.4996V60.5004H36.2996V56.1004Z" fill="white"/>
<path d="M44.0004 62.7004H48.4004C49.0079 62.7004 49.5004 62.2079 49.5004 61.6004V55.0004C49.5004 54.3929 49.0079 53.9004 48.4004 53.9004H44.0004C43.3929 53.9004 42.9004 54.3929 42.9004 55.0004V61.6004C42.9004 62.2079 43.3929 62.7004 44.0004 62.7004ZM45.1004 56.1004H47.3004V60.5004H45.1004V56.1004Z" fill="white"/>
</svg>
