<svg width="223" height="196" viewBox="0 0 223 196" fill="none" xmlns="http://www.w3.org/2000/svg">
<path d="M71.8482 130.666H71.8584C71.8669 130.666 71.8754 130.664 71.8839 130.664H190.334C193.25 130.664 195.814 128.73 196.615 125.926L222.748 34.4609C223.311 32.4891 222.917 30.3692 221.683 28.7325C220.448 27.0958 218.517 26.1328 216.467 26.1328H56.781L52.1108 5.11597C51.4456 2.12669 48.7949 0 45.7324 0H6.5332C2.92463 0 0 2.92463 0 6.5332C0 10.1418 2.92463 13.0664 6.5332 13.0664H40.4922C41.3191 16.7907 62.8412 113.642 64.0798 119.214C57.1366 122.232 52.2656 129.155 52.2656 137.197C52.2656 148.004 61.0582 156.797 71.8652 156.797H190.334C193.943 156.797 196.867 153.872 196.867 150.264C196.867 146.655 193.943 143.73 190.334 143.73H71.8652C68.2635 143.73 65.332 140.799 65.332 137.197C65.332 133.601 68.2533 130.674 71.8482 130.666ZM207.805 39.1992L185.405 117.598H77.1054L59.6835 39.1992H207.805Z" fill="white"/>
<path d="M65.332 176.396C65.332 187.203 74.1246 195.996 84.9316 195.996C95.7386 195.996 104.531 187.203 104.531 176.396C104.531 165.589 95.7386 156.797 84.9316 156.797C74.1246 156.797 65.332 165.589 65.332 176.396ZM84.9316 169.863C88.5334 169.863 91.4648 172.795 91.4648 176.396C91.4648 179.998 88.5334 182.93 84.9316 182.93C81.3299 182.93 78.3984 179.998 78.3984 176.396C78.3984 172.795 81.3299 169.863 84.9316 169.863Z" fill="white"/>
<path d="M157.668 176.396C157.668 187.203 166.461 195.996 177.268 195.996C188.075 195.996 196.867 187.203 196.867 176.396C196.867 165.589 188.075 156.797 177.268 156.797C166.461 156.797 157.668 165.589 157.668 176.396ZM177.268 169.863C180.869 169.863 183.801 172.795 183.801 176.396C183.801 179.998 180.869 182.93 177.268 182.93C173.666 182.93 170.734 179.998 170.734 176.396C170.734 172.795 173.666 169.863 177.268 169.863Z" fill="white"/>
</svg>
