<svg width="71" height="71" viewBox="0 0 71 71" fill="none" xmlns="http://www.w3.org/2000/svg">
<g clip-path="url(#clip0)">
<path d="M21.5715 71.0002C21.3844 71.0002 21.1974 70.9529 21.0297 70.854C20.5803 70.5917 20.3825 70.0478 20.561 69.5575L31.7905 38.6855L18.2174 34.8133C17.867 34.7144 17.5896 34.4435 17.4821 34.0952C17.3768 33.7469 17.452 33.3663 17.6885 33.0868L45.2195 0.380757C45.5463 -0.00839636 46.101 -0.109447 46.5482 0.124905C46.9954 0.363557 47.2169 0.886011 47.075 1.37191L39.1371 28.9072L52.7833 32.8009C53.1359 32.8998 53.4132 33.1728 53.5186 33.5233C53.6261 33.8737 53.5444 34.2564 53.3057 34.5338L22.3885 70.6261C22.1778 70.8691 21.8768 71.0002 21.5715 71.0002ZM20.4019 33.2008L33.489 36.931C33.7771 37.0127 34.0158 37.2105 34.1534 37.475C34.2888 37.7416 34.3082 38.0512 34.205 38.3307L24.603 64.7286L50.5816 34.4026L37.5117 30.6766C37.2365 30.5992 37.0043 30.4143 36.8645 30.1649C36.7248 29.9155 36.6925 29.621 36.7721 29.3458L43.6091 5.63325L20.4019 33.2008Z" fill="white"/>
</g>
<defs>
<clipPath id="clip0">
<rect width="71" height="71" fill="white"/>
</clipPath>
</defs>
</svg>
