<svg width="76" height="76" viewBox="0 0 76 76" fill="none" xmlns="http://www.w3.org/2000/svg">
<path d="M74.712 65.4653H58.4993V57.7774C62.0396 57.3012 65.1774 55.0901 67.002 51.738C69.4262 51.1838 71.6284 49.7804 73.2575 47.738C75.026 45.5208 76 42.6871 76 39.7589C76 35.3045 73.7191 31.1816 70.1303 29.0401C69.7564 21.6119 64.0302 15.6889 57.0561 15.6889C54.8609 15.6889 52.6888 16.2864 50.7749 17.4167C50.1793 17.7684 49.9816 18.5361 50.3333 19.1315C50.6851 19.7272 51.4529 19.9247 52.0482 19.5731C53.5768 18.6703 55.3084 18.1932 57.0561 18.1932C62.8842 18.1932 67.6345 23.3964 67.6455 29.792C67.6464 30.2632 67.9117 30.6942 68.3322 30.907C71.469 32.4946 73.4956 35.969 73.4956 39.7588C73.4956 44.5417 70.2565 48.6828 65.961 49.3913C65.5588 49.4578 65.2141 49.7156 65.037 50.083C63.6937 52.8689 61.2664 54.7521 58.4993 55.2424V44.1623L64.6618 38.4954C65.1708 38.0273 65.204 37.2352 64.7358 36.7262C64.2675 36.2172 63.4756 36.1838 62.9666 36.6521L58.4993 40.7601V32.4013C58.4993 31.7098 57.9386 31.1491 57.247 31.1491C56.5555 31.1491 55.9948 31.7098 55.9948 32.4013V47.5568L51.5275 43.4488C51.0185 42.9805 50.2263 43.0139 49.7582 43.5228C49.2901 44.0318 49.3233 44.8239 49.8323 45.2921L55.995 50.959V55.301C53.0423 54.9206 50.4382 52.9669 49.041 50.0106C48.874 49.6572 48.5514 49.402 48.1692 49.3209C44.0142 48.4382 40.9985 44.4169 40.9985 39.7588C40.9985 36.0858 42.8507 32.7616 45.8322 31.0838C46.2312 30.8592 46.4758 30.4348 46.4702 29.9772C46.4699 29.9425 46.4687 29.908 46.4675 29.8737C46.4668 29.8539 46.466 29.8341 46.466 29.8144C46.466 27.2059 47.2358 24.7412 48.6922 22.6872C49.0922 22.1229 48.959 21.3413 48.395 20.9415C47.8308 20.5413 47.0491 20.6748 46.6494 21.2387C44.9903 23.5787 44.0694 26.3507 43.9708 29.2858C40.5749 31.5003 38.4944 35.4447 38.4944 39.7589C38.4944 45.3704 42.0569 50.2585 47.05 51.6253C48.9294 55.1648 52.2535 57.4553 55.9953 57.8219V65.4653H55.2022C55.0177 62.1882 52.7776 59.3373 49.6582 58.3747C48.6794 56.2923 46.7782 54.7824 44.5426 54.2929C43.8096 50.9612 40.8104 48.4768 37.3155 48.4768C34.6205 48.4768 32.1767 49.9252 30.8741 52.2308C28.3086 52.3283 26.002 53.6988 24.6771 55.8221C23.8513 53.5504 21.7361 51.8963 19.2596 51.7185V48.4263C22.6399 47.9564 25.6332 45.842 27.3821 42.6435C29.7053 42.1068 31.8151 40.7589 33.3771 38.8008C35.0779 36.6688 36.0146 33.9439 36.0146 31.1283C36.0146 26.8551 33.8312 22.8988 30.3936 20.8351C30.0205 13.7085 24.5208 8.03076 17.8242 8.03076C15.2555 8.03076 12.7847 8.85919 10.6789 10.4268C10.1243 10.8396 10.0093 11.6243 10.4221 12.179C10.8349 12.7335 11.6194 12.8486 12.1742 12.4358C13.8444 11.1922 15.7982 10.535 17.8242 10.535C23.3744 10.535 27.8985 15.4926 27.909 21.5862C27.9099 22.0575 28.1752 22.4884 28.5957 22.7013C31.5811 24.2122 33.5098 27.5201 33.5098 31.1283C33.5098 35.6816 30.428 39.6237 26.3411 40.2978C25.939 40.3643 25.5941 40.6221 25.4171 40.9895C24.1487 43.6198 21.8658 45.4052 19.2593 45.8891V35.3679L25.1421 29.9584C25.6511 29.4902 25.6842 28.6981 25.2162 28.1891C24.7482 27.68 23.956 27.6467 23.447 28.1151L19.2593 31.9658V24.0847C19.2593 23.3931 18.6986 22.8325 18.0071 22.8325C17.3155 22.8325 16.7549 23.3931 16.7549 24.0847V38.4729L12.5673 34.6221C12.0581 34.1538 11.2661 34.1872 10.7981 34.6962C10.3299 35.2052 10.3631 35.9974 10.8721 36.4654L16.7547 41.8749V45.9477C13.9706 45.5668 11.519 43.7142 10.1987 40.9209C10.0317 40.5675 9.70913 40.3123 9.3269 40.2313C5.37358 39.3909 2.50414 35.5629 2.50414 31.1283C2.50414 27.631 4.26683 24.4663 7.1045 22.8694C7.5032 22.645 7.74783 22.2214 7.74249 21.7639C7.74219 21.73 7.74115 21.6962 7.73996 21.6625C7.73952 21.6442 7.73863 21.6261 7.73863 21.6076C7.73863 20.0588 8.02407 18.561 8.58694 17.1561C8.75438 16.7387 8.9472 16.3287 9.16051 15.9371C9.49122 15.3297 9.26708 14.5694 8.65968 14.2387C8.05227 13.9077 7.29183 14.132 6.96126 14.7394C6.70135 15.2168 6.46622 15.7164 6.26257 16.2246C5.64566 17.7641 5.30381 19.3921 5.24399 21.0719C1.99158 23.2045 0 26.9896 0 31.1283C0 36.5162 3.41673 41.2111 8.20798 42.5343C10.0097 45.9119 13.1817 48.1035 16.7549 48.4703V52.0519C15.3845 52.5308 14.2117 53.4775 13.4572 54.7492C10.4163 54.9221 7.9592 57.1679 7.48302 60.1299C5.24028 61.1259 3.57288 63.1013 2.95895 65.465H1.25222C0.560647 65.465 0 66.0256 0 66.7172C0 67.4088 0.560647 67.9694 1.25222 67.9694H3.99534H32.2628H53.9117H74.712C75.4036 67.9694 75.9642 67.4088 75.9642 66.7172C75.9642 66.0256 75.4034 65.4653 74.712 65.4653ZM5.58525 65.4653C6.18256 63.9431 7.43908 62.7305 9.03983 62.212C9.54347 62.0489 9.89007 61.5868 9.90566 61.0577C9.96875 58.9186 11.6949 57.2429 13.8355 57.2429C13.9213 57.2429 14.0151 57.2469 14.1305 57.2554C14.6669 57.2941 15.1688 56.9877 15.3771 56.4917C15.9607 55.1032 17.3107 54.2059 18.8165 54.2059C20.75 54.2059 22.3823 55.7143 22.5325 57.64C22.5806 58.2546 23.0688 58.743 23.6836 58.7911C24.025 58.8177 24.3551 58.8926 24.6677 59.0069C24.6691 59.0074 24.6703 59.0081 24.6716 59.0086C24.7296 59.0299 24.7868 59.0529 24.8435 59.077C24.8557 59.0822 24.868 59.0874 24.8802 59.0927C24.9331 59.1157 24.9855 59.1399 25.0371 59.1653C25.0546 59.1741 25.0718 59.1831 25.0892 59.192C25.1606 59.2285 25.2305 59.2674 25.299 59.3083C25.3365 59.3307 25.3742 59.3523 25.4107 59.3761C25.4384 59.3939 25.4651 59.413 25.4922 59.4313C25.5333 59.4594 25.5741 59.4879 25.6142 59.5175C25.6369 59.5345 25.6593 59.5514 25.6814 59.5688C25.7298 59.6065 25.7776 59.6454 25.8241 59.6856C25.837 59.6966 25.8499 59.7071 25.8627 59.7182C25.986 59.8275 26.1022 59.9452 26.2105 60.0702C26.2204 60.0818 26.2302 60.0933 26.24 60.1051C26.2856 60.1589 26.3295 60.2143 26.3721 60.2709C26.3803 60.2817 26.3887 60.2924 26.3967 60.3034C26.494 60.4358 26.5826 60.5753 26.6621 60.7209C26.6727 60.7402 26.6826 60.76 26.693 60.7796C26.7212 60.8334 26.7481 60.8884 26.7738 60.944C26.784 60.966 26.7943 60.988 26.8041 61.0101C26.8357 61.0822 26.8657 61.1554 26.8928 61.2298C26.8939 61.2324 26.8947 61.2348 26.8958 61.2375C27.0426 61.643 27.3879 61.9445 27.8094 62.0353C27.9213 62.0594 28.031 62.0888 28.1389 62.1219C28.1741 62.1327 28.2083 62.1459 28.2432 62.1577C28.315 62.1817 28.3865 62.2062 28.4565 62.2341C28.4968 62.2503 28.5362 62.2685 28.5758 62.2859C28.6383 62.3132 28.7005 62.341 28.7613 62.3713C28.8023 62.3916 28.8421 62.4136 28.8822 62.4352C28.9398 62.4663 28.9968 62.4983 29.0524 62.532C29.0921 62.5559 29.1311 62.5807 29.1698 62.6059C29.2239 62.6411 29.2772 62.6778 29.3294 62.7155C29.3667 62.7423 29.4035 62.7692 29.4397 62.7973C29.4915 62.8373 29.5417 62.8791 29.5914 62.9214C29.6251 62.95 29.6592 62.9785 29.692 63.0082C29.743 63.0545 29.7916 63.1028 29.8402 63.1513C29.8688 63.1799 29.8985 63.208 29.9263 63.2377C29.9809 63.2957 30.0326 63.3563 30.0838 63.4171C30.1028 63.4399 30.123 63.4612 30.1415 63.4842C30.2098 63.5694 30.275 63.657 30.3364 63.7474C30.3493 63.7663 30.3605 63.7865 30.3729 63.8055C30.4203 63.8776 30.4664 63.9505 30.5093 64.0254C30.5286 64.0594 30.546 64.0948 30.5644 64.1293C30.5977 64.1914 30.6303 64.2536 30.6604 64.3173C30.6792 64.3569 30.6958 64.3974 30.7131 64.4375C30.7396 64.4985 30.7651 64.5595 30.7886 64.6219C30.8046 64.6646 30.8193 64.7078 30.834 64.7511C30.8549 64.8129 30.8745 64.8751 30.8926 64.938C30.9054 64.9826 30.9172 65.0274 30.9287 65.0724C30.9446 65.1362 30.9585 65.2005 30.9714 65.2652C30.9805 65.3103 30.9892 65.3554 30.9968 65.4012C31.0004 65.4224 31.0022 65.4439 31.0053 65.4653H5.58525ZM33.5302 65.4654V65.4653C33.5291 65.4534 33.5266 65.4417 33.5257 65.43C33.5113 65.2805 33.4928 65.1319 33.4683 64.9851C33.4668 64.9765 33.4649 64.9679 33.4634 64.9593C33.4379 64.8095 33.4074 64.6612 33.3718 64.5145C33.3703 64.5082 33.3691 64.5018 33.3675 64.4957C33.3317 64.3504 33.2903 64.2071 33.2452 64.0655C33.2403 64.0504 33.2358 64.0348 33.2308 64.0197C33.1863 63.8834 33.1367 63.7492 33.0834 63.6165C33.0757 63.5973 33.0682 63.5781 33.0604 63.5591C33.0069 63.4292 32.9492 63.3015 32.8877 63.1758C32.8781 63.1559 32.8685 63.1362 32.8585 63.1164C32.7959 62.9914 32.7297 62.8685 32.6596 62.748C32.6489 62.7297 32.6382 62.7118 32.6274 62.6935C32.5553 62.5719 32.4797 62.4526 32.4 62.3361C32.3903 62.3218 32.3802 62.308 32.3704 62.2941C32.2873 62.1744 32.2011 62.057 32.1105 61.9432C32.1049 61.936 32.0988 61.9292 32.0932 61.9219C31.9985 61.8038 31.9002 61.6886 31.7976 61.5771C31.7964 61.5759 31.7954 61.5746 31.7944 61.5734C31.6928 61.4633 31.587 61.3568 31.4782 61.2535C31.4687 61.2445 31.4595 61.2351 31.45 61.2262C31.3453 61.1281 31.237 61.0337 31.1259 60.9423C31.1111 60.9301 31.0964 60.9176 31.0814 60.9053C30.9722 60.817 30.8599 60.7322 30.7449 60.6507C30.7271 60.6381 30.7093 60.6255 30.6915 60.613C30.5766 60.5332 30.4589 60.4569 30.3386 60.3843C30.3198 60.373 30.3008 60.3617 30.2819 60.3506C30.1601 60.2786 30.036 60.2102 29.9094 60.1459C29.892 60.137 29.8743 60.1288 29.8568 60.1202C29.7262 60.0556 29.5935 59.9943 29.458 59.9382C29.4459 59.9332 29.4338 59.9289 29.4217 59.924C29.2797 59.8662 29.1356 59.8123 28.9886 59.7644C28.9882 59.7643 28.9876 59.764 28.987 59.7637C28.9806 59.7507 28.9733 59.7387 28.9669 59.726C28.9163 59.6246 28.8633 59.525 28.8075 59.427C28.779 59.377 28.7486 59.3281 28.7189 59.2789C28.6828 59.2196 28.6465 59.1606 28.6086 59.1025C28.5722 59.0466 28.5348 58.9916 28.4965 58.937C28.4633 58.8897 28.4291 58.8431 28.3947 58.7966C28.3514 58.738 28.3079 58.6796 28.2624 58.6226C28.2357 58.5892 28.2077 58.5572 28.1804 58.5245C28.0748 58.3976 27.9645 58.2751 27.8492 58.157C27.8293 58.1366 27.8103 58.1156 27.7903 58.0955C27.733 58.0385 27.6737 57.9839 27.6144 57.9291C27.5801 57.8975 27.5459 57.866 27.5109 57.8352C27.4542 57.7853 27.3966 57.7363 27.3378 57.6882C27.2951 57.6532 27.2516 57.6195 27.2079 57.5855C27.1535 57.5435 27.0994 57.501 27.0435 57.4607C26.9648 57.4037 26.8844 57.3493 26.803 57.296C26.7813 57.2818 26.7607 57.2661 26.7387 57.2521C27.6513 55.7104 29.3218 54.7303 31.1675 54.7303C31.2805 54.7303 31.4031 54.7355 31.5533 54.7465C32.089 54.7864 32.5915 54.4787 32.7997 53.9828C33.5658 52.1597 35.3384 50.9817 37.3155 50.9817C39.8542 50.9817 41.9972 52.9624 42.1943 55.4909C42.2423 56.1056 42.7306 56.5939 43.3454 56.6419C45.2554 56.7908 46.9111 58.0517 47.5636 59.8545C47.7104 60.26 48.0557 60.5615 48.4772 60.6524C50.7875 61.1502 52.5014 63.1369 52.6939 65.4659H33.5302V65.4654Z" fill="white"/>
</svg>
