<svg width="68" height="68" viewBox="0 0 68 68" fill="none" xmlns="http://www.w3.org/2000/svg">
<path d="M17.549 6.5809C17.549 5.97517 17.058 5.48413 16.4522 5.48413C15.8465 5.48413 15.3555 5.97517 15.3555 6.5809C15.3555 7.18664 15.8465 7.67768 16.4522 7.67768C17.058 7.67768 17.549 7.18664 17.549 6.5809Z" fill="white"/>
<path d="M3.38913 25.6538L3.21364 62.7248C3.15575 64.3294 4.28728 65.7321 5.86784 66.0151C12.8091 67.1961 19.8971 67.2294 26.8491 66.1138C28.4031 65.824 29.5314 64.4701 29.5362 62.8893L29.7117 25.7196C31.3122 24.6747 32.1012 22.75 31.6946 20.8823C31.2879 19.0147 29.7701 17.5922 27.8801 17.3073L26.0704 17.099C25.3749 14.4484 23.4178 12.3109 20.8388 11.3848V4.38735C20.841 3.52727 20.5064 2.70051 19.9065 2.08412C18.733 0.910571 17.6362 1.09702 15.3549 1.09702C13.5377 1.09702 12.0646 2.57015 12.0646 4.38735V11.3957C9.51295 12.3175 7.56147 14.4119 6.82203 17.0222C5.05622 17.2086 3.41106 17.1757 2.06203 18.9196C1.2557 19.9595 0.93891 21.2976 1.19334 22.5887C1.44778 23.8797 2.24853 24.9975 3.38913 25.6538ZM27.3427 62.8235C27.3524 63.3564 26.9776 63.8191 26.4543 63.9202C19.7662 64.9778 12.951 64.9444 6.27364 63.8215C5.7591 63.7112 5.39549 63.2509 5.40719 62.7248L5.57171 26.1912H6.05429C13.1242 25.3247 20.277 25.3837 27.3317 26.3667C27.5949 26.3228 27.5291 23.4493 27.3427 62.8235ZM14.2582 4.38735C14.2582 3.78161 14.7492 3.29057 15.3549 3.29057C17.713 3.29057 17.9104 3.2138 18.3272 3.63057C18.5272 3.83215 18.6412 4.10343 18.6453 4.38735V10.968H14.2582V4.38735ZM14.4336 13.1615H18.4588C20.742 13.251 22.7601 14.6723 23.6136 16.7919C18.8296 16.3806 14.019 16.3806 9.23493 16.7919C10.1073 14.6583 12.1518 13.2366 14.4556 13.1615H14.4336ZM27.0575 24.1293C12.3059 22.2099 6.2188 24.4364 4.90268 23.899C3.86852 23.5565 3.20592 22.5475 3.30266 21.4624C3.3994 20.3773 4.23005 19.5014 5.30848 19.3473C12.7078 18.3547 20.2066 18.3547 27.6059 19.3473C28.2471 19.4298 28.826 19.773 29.2059 20.2961C29.5858 20.8193 29.7331 21.4759 29.613 22.1112C29.5444 22.7189 29.2358 23.2739 28.7559 23.6529C28.276 24.0318 27.6645 24.2034 27.0575 24.1293Z" fill="white"/>
<path d="M13.7109 35.5027C10.4425 40.5807 8.77539 44.1562 8.77539 46.1743C8.77539 52.9194 17.0451 56.2317 21.8489 51.5704C23.2993 50.1755 24.1223 48.2523 24.1302 46.2401C24.1302 44.222 22.507 40.6246 19.2825 35.5246C18.6841 34.5642 17.6343 33.9786 16.5027 33.9741C15.3712 33.9697 14.3168 34.547 13.7109 35.5027ZM16.4528 51.5485C15.0139 51.566 13.6272 51.0105 12.5984 50.0043C11.5697 48.9982 10.9834 47.6241 10.9689 46.1852C10.9689 44.6607 12.647 41.1949 15.5644 36.6872C15.7644 36.3645 16.117 36.1682 16.4967 36.1682C16.8763 36.1682 17.229 36.3645 17.4289 36.6872C20.2915 41.2388 21.9367 44.7046 21.9367 46.2291C21.8886 49.2112 19.435 51.5912 16.4528 51.5485Z" fill="white"/>
<path d="M63.6137 1.09717H48.2588C47.4471 1.10201 46.6659 1.40669 46.0653 1.95265C45.4646 1.40669 44.6834 1.10201 43.8717 1.09717H28.5169C26.6997 1.09717 25.2266 2.5703 25.2266 4.38749V10.9681C25.2266 12.7853 26.6997 14.2585 28.5169 14.2585H35.295C35.0098 15.0701 35.0975 14.8288 35.0975 21.9359C35.1005 22.31 35.1673 22.6809 35.295 23.0327H35.0975C34.4918 23.0327 34.0008 23.5237 34.0008 24.1294C34.0008 24.7352 34.4918 25.2262 35.0975 25.2262H43.8717C44.4775 25.2262 44.9685 25.7172 44.9685 26.323V32.9036C44.9685 33.5094 44.4775 34.0004 43.8717 34.0004H32.904C32.2983 34.0004 31.8072 34.4914 31.8072 35.0972C31.8072 35.7029 32.2983 36.1939 32.904 36.1939H35.295C35.0098 37.0056 35.0975 36.7643 35.0975 43.8714C35.1005 44.2455 35.1673 44.6164 35.295 44.9681H32.904C32.2983 44.9681 31.8072 45.4592 31.8072 46.0649C31.8072 46.6706 32.2983 47.1617 32.904 47.1617H43.8717C44.4775 47.1617 44.9685 47.6527 44.9685 48.2585V54.8391C44.9685 55.4448 44.4775 55.9359 43.8717 55.9359H32.904C32.2983 55.9359 31.8072 56.4269 31.8072 57.0327C31.8072 57.6384 32.2983 58.1294 32.904 58.1294H43.8717C44.6834 58.1246 45.4646 57.8199 46.0653 57.2739C46.6659 57.8199 47.4471 58.1246 48.2588 58.1294H63.6137C65.4309 58.1294 66.904 56.6563 66.904 54.8391V48.2585C66.9011 47.1316 66.3217 46.0846 65.3685 45.4836C65.6539 44.9941 65.8052 44.438 65.8072 43.8714C65.8072 36.852 65.9608 36.7204 65.3685 35.6785C66.3217 35.0775 66.9011 34.0305 66.904 32.9036V26.323C66.9011 25.1961 66.3217 24.1491 65.3685 23.5481C65.6539 23.0586 65.8052 22.5025 65.8072 21.9359C65.8072 14.9165 65.9608 14.7849 65.3685 13.743C66.3217 13.142 66.9011 12.095 66.904 10.9681V4.38749C66.904 2.5703 65.4309 1.09717 63.6137 1.09717ZM48.2588 3.29072H63.6137C64.2194 3.29072 64.7104 3.78176 64.7104 4.38749V10.9681C64.7104 11.5739 64.2194 12.0649 63.6137 12.0649H48.2588C47.6531 12.0649 47.162 11.5739 47.162 10.9681V4.38749C47.162 3.78176 47.6531 3.29072 48.2588 3.29072ZM63.6137 15.3552V21.9359C63.6137 22.5416 63.1226 23.0327 62.5169 23.0327H58.1298C57.5241 23.0327 57.033 22.5416 57.033 21.9359V15.3552C57.033 14.7495 57.5241 14.2585 58.1298 14.2585H62.5169C63.1226 14.2585 63.6137 14.7495 63.6137 15.3552ZM63.6137 25.2262C64.2194 25.2262 64.7104 25.7172 64.7104 26.323V32.9036C64.7104 33.5094 64.2194 34.0004 63.6137 34.0004H48.2588C47.6531 34.0004 47.162 33.5094 47.162 32.9036V26.323C47.162 25.7172 47.6531 25.2262 48.2588 25.2262H63.6137ZM63.6137 37.2907V43.8714C63.6137 44.4771 63.1226 44.9681 62.5169 44.9681H58.1298C57.5241 44.9681 57.033 44.4771 57.033 43.8714V37.2907C57.033 36.685 57.5241 36.1939 58.1298 36.1939H62.5169C63.1226 36.1939 63.6137 36.685 63.6137 37.2907ZM27.4201 10.9681V4.38749C27.4201 3.78176 27.9112 3.29072 28.5169 3.29072H43.8717C44.4775 3.29072 44.9685 3.78176 44.9685 4.38749V10.9681C44.9685 11.5739 44.4775 12.0649 43.8717 12.0649H28.5169C27.9112 12.0649 27.4201 11.5739 27.4201 10.9681ZM38.3879 23.0327C37.7821 23.0327 37.2911 22.5416 37.2911 21.9359V15.3552C37.2911 14.7495 37.7821 14.2585 38.3879 14.2585H53.7427C54.3484 14.2585 54.8395 14.7495 54.8395 15.3552V21.9359C54.8395 22.5416 54.3484 23.0327 53.7427 23.0327H38.3879ZM38.3879 44.9681C37.7821 44.9681 37.2911 44.4771 37.2911 43.8714V37.2907C37.2911 36.685 37.7821 36.1939 38.3879 36.1939H53.7427C54.3484 36.1939 54.8395 36.685 54.8395 37.2907V43.8714C54.8395 44.4771 54.3484 44.9681 53.7427 44.9681H38.3879ZM64.7104 54.8391C64.7104 55.4448 64.2194 55.9359 63.6137 55.9359H48.2588C47.6531 55.9359 47.162 55.4448 47.162 54.8391V48.2585C47.162 47.6527 47.6531 47.1617 48.2588 47.1617H63.6137C64.2194 47.1617 64.7104 47.6527 64.7104 48.2585V54.8391Z" fill="white"/>
</svg>
