<svg width="110" height="110" viewBox="0 0 110 110" fill="none" xmlns="http://www.w3.org/2000/svg">
<path d="M93.8908 42.9129C83.5025 32.5246 69.691 26.8037 55 26.8037C40.309 26.8037 26.4972 32.5246 16.1092 42.9129C5.72093 53.3012 0 67.1127 0 81.8037C0 82.5726 0.623565 83.1961 1.39241 83.1961H108.608C109.376 83.1961 110 82.5726 110 81.8037C110 67.1127 104.279 53.3012 93.8908 42.9129ZM68.3439 80.4113H56.3924V55.348H68.3439V80.4113ZM53.6076 80.4113H41.6561V55.348H53.6076V80.4113ZM71.1287 80.4113V53.9556C71.1287 53.1868 70.5051 52.5632 69.7363 52.5632H40.2637C39.4949 52.5632 38.8713 53.1868 38.8713 53.9556V80.4113H2.80291C3.15171 66.9853 8.54473 54.4153 18.0781 44.882C27.9402 35.0198 41.0527 29.5885 55 29.5885C68.9473 29.5885 82.0595 35.0198 91.9217 44.882C101.455 54.4156 106.848 66.9853 107.197 80.4113H71.1287Z" fill="white"/>
<path d="M69.7361 42.5845H40.2635C39.4947 42.5845 38.8711 43.208 38.8711 43.9769V49.3144C38.8711 50.0833 39.4947 50.7068 40.2635 50.7068H69.7361C70.5049 50.7068 71.1285 50.0833 71.1285 49.3144V43.9769C71.1285 43.208 70.5049 42.5845 69.7361 42.5845ZM68.3437 47.922H41.6559V45.3693H68.3437V47.922Z" fill="white"/>
<path d="M27.2385 64.6309H17.2596C16.4908 64.6309 15.8672 65.2544 15.8672 66.0233V73.2174C15.8672 73.9862 16.4908 74.6098 17.2596 74.6098H27.2385C28.0073 74.6098 28.6309 73.9862 28.6309 73.2174V66.0233C28.6309 65.2544 28.0073 64.6309 27.2385 64.6309ZM18.652 67.4157H20.8566V71.825H18.652V67.4157ZM25.8461 71.825H23.6414V67.4157H25.8461V71.825Z" fill="white"/>
<path d="M81.3691 66.0233V73.2174C81.3691 73.9862 81.9927 74.6098 82.7615 74.6098H92.7404C93.5093 74.6098 94.1329 73.9862 94.1329 73.2174V66.0233C94.1329 65.2544 93.5093 64.6309 92.7404 64.6309H82.7615C81.9927 64.6309 81.3691 65.2544 81.3691 66.0233ZM91.348 71.825H89.1434V67.4157H91.348V71.825ZM84.1539 67.4157H86.3586V71.825H84.1539V67.4157Z" fill="white"/>
</svg>
