<svg width="48" height="48" viewBox="0 0 48 48" fill="none" xmlns="http://www.w3.org/2000/svg">
<g clip-path="url(#clip0)">
<path d="M13.5996 27.1992H15.1996V28.7992H13.5996V27.1992Z" fill="white"/>
<path d="M16.8008 27.1992H18.4008V28.7992H16.8008V27.1992Z" fill="white"/>
<path d="M19.9995 27.1992H21.5995V28.7992H19.9995V27.1992Z" fill="white"/>
<path d="M13.5996 30.4004H15.1996V32.0004H13.5996V30.4004Z" fill="white"/>
<path d="M16.8008 30.4004H18.4008V32.0004H16.8008V30.4004Z" fill="white"/>
<path d="M19.9995 30.4004H21.5995V32.0004H19.9995V30.4004Z" fill="white"/>
<path d="M23.1997 30.4004H24.7997V32.0004H23.1997V30.4004Z" fill="white"/>
<path d="M26.3984 30.4004H27.9984V32.0004H26.3984V30.4004Z" fill="white"/>
<path d="M13.5996 33.5996H15.1996V35.1996H13.5996V33.5996Z" fill="white"/>
<path d="M16.8008 33.5996H18.4008V35.1996H16.8008V33.5996Z" fill="white"/>
<path d="M19.9995 33.5996H21.5995V35.1996H19.9995V33.5996Z" fill="white"/>
<path d="M23.1997 33.5996H24.7997V35.1996H23.1997V33.5996Z" fill="white"/>
<path d="M26.3984 33.5996H27.9984V35.1996H26.3984V33.5996Z" fill="white"/>
<path d="M13.5996 36.8008H15.1996V38.4008H13.5996V36.8008Z" fill="white"/>
<path d="M16.8008 36.7988H18.4008V38.3988H16.8008V36.7988Z" fill="white"/>
<path d="M19.9995 36.8008H21.5995V38.4008H19.9995V36.8008Z" fill="white"/>
<path d="M23.1997 36.8008H24.7997V38.4008H23.1997V36.8008Z" fill="white"/>
<path d="M26.3984 36.7988H27.9984V38.3988H26.3984V36.7988Z" fill="white"/>
<path d="M13.5996 40H15.1996V41.6H13.5996V40Z" fill="white"/>
<path d="M16.8008 40H18.4008V41.6H16.8008V40Z" fill="white"/>
<path d="M19.9995 40H21.5995V41.6H19.9995V40Z" fill="white"/>
<path d="M23.1997 40H24.7997V41.6H23.1997V40Z" fill="white"/>
<path d="M26.3984 40H27.9984V41.6H26.3984V40Z" fill="white"/>
<path d="M13.5996 43.1992H15.1996V44.7992H13.5996V43.1992Z" fill="white"/>
<path d="M16.8008 43.1992H18.4008V44.7992H16.8008V43.1992Z" fill="white"/>
<path d="M19.9995 43.1992H21.5995V44.7992H19.9995V43.1992Z" fill="white"/>
<path d="M23.1997 43.1992H24.7997V44.7992H23.1997V43.1992Z" fill="white"/>
<path d="M26.3984 43.1992H27.9984V44.7992H26.3984V43.1992Z" fill="white"/>
<path d="M47.1996 2.39998H41.5997V0.799994C41.5997 0.3582 41.2415 0 40.7997 0H32.7998C32.358 0 31.9998 0.3582 31.9998 0.799994V2.39998H0.799994C0.3582 2.39998 0 2.75818 0 3.19998V6.39995C0 6.84214 0.3582 7.19995 0.799994 7.19995H3.19998V22.3998C3.19998 22.842 3.55818 23.1998 3.99997 23.1998C4.44176 23.1998 4.79996 23.558 4.79996 23.9998C4.79996 24.442 4.44176 24.7998 3.99997 24.7998C3.55818 24.7998 3.19998 24.442 3.19998 23.9998H1.59999C1.60233 24.5854 1.81991 25.1498 2.21209 25.585L0.160155 28.3201L0.170311 28.3279C0.0632807 28.4623 0.00351559 28.6283 0 28.7998V31.9998C0 32.2123 0.0843744 32.4154 0.234373 32.5654L1.83436 34.1654C1.98436 34.3154 2.18787 34.3998 2.39998 34.3998H5.59996C5.81207 34.3998 6.01558 34.3154 6.16558 34.1654L7.76557 32.5654C7.91557 32.4154 7.99994 32.2123 7.99994 31.9998V28.7998C7.99642 28.6283 7.93666 28.4623 7.82963 28.3279L7.83979 28.3201L5.78785 25.585C6.32222 24.9912 6.52378 24.1694 6.32495 23.3959C6.12652 22.6225 5.55386 21.9998 4.79996 21.737V7.19995H31.9998V7.99994C31.9998 8.44213 32.358 8.79994 32.7998 8.79994H34.3997V46.3997H31.1998V14.3999H29.5998V17.5999H24.7998V15.9999H23.1998V17.5999H18.3999V16.7999H16.7999V17.5999H11.9999V15.1999H22.3998V13.5999H11.9999V10.3999H10.3999V46.3997H9.13118L5.36558 42.6345C5.05309 42.322 4.54684 42.322 4.23434 42.6345L0.468746 46.3997H0V47.9997H47.9996V46.3997H47.3758C47.9387 45.7852 48.1387 44.9204 47.9028 44.1208C47.6672 43.3216 47.0301 42.7036 46.2235 42.4927C46.6301 41.4899 46.3161 40.3396 45.4559 39.6829C44.5961 39.0263 43.4032 39.0263 42.5434 39.6829C41.6833 40.3396 41.3692 41.4899 41.7759 42.4927C40.9692 42.7036 40.3321 43.3216 40.0966 44.1208C39.8606 44.9204 40.0606 45.7852 40.6235 46.3997H39.1997V8.79994H40.7997C41.2415 8.79994 41.5997 8.44213 41.5997 7.99994V7.19995H47.1996C47.6414 7.19995 47.9996 6.84214 47.9996 6.39995V3.19998C47.9996 2.75818 47.6414 2.39998 47.1996 2.39998ZM4.39997 26.3998L5.59996 27.9998H2.39998L3.59997 26.3998H4.39997ZM6.39995 31.6689L5.26871 32.7998H2.73123L1.59999 31.6689V29.5998H6.39995V31.6689ZM43.7598 3.99997L41.5997 5.4402V3.99997H43.7598ZM33.5997 1.59999H36.7997V4.79997H33.5997V1.59999ZM11.9999 4.16013L14.16 5.59996H9.83977L11.9999 4.16013ZM7.19995 5.4402L5.03981 3.99997H9.36009L7.19995 5.4402ZM14.6397 3.99997H18.96L16.7999 5.4402L14.6397 3.99997ZM21.5998 4.16013L23.76 5.59996H19.4397L21.5998 4.16013ZM24.2397 3.99997H28.5599L26.3998 5.4402L24.2397 3.99997ZM1.59999 3.99997H2.16014L4.56012 5.59996H1.59999V3.99997ZM29.0396 5.59996L31.4396 3.99997H31.9998V5.59996H29.0396ZM37.5997 43.7598L36.1599 41.5997L37.5997 39.4399V43.7598ZM37.5997 24.56L36.1599 22.3998L37.5997 20.2401V24.56ZM35.9997 25.0401L37.4396 27.1998L35.9997 29.3599V25.0401ZM35.9997 19.76V15.4401L37.4396 17.5999L35.9997 19.76ZM35.9997 34.64L37.4396 36.7997L35.9997 38.9599V34.64ZM37.5997 34.1552L36.1599 31.9998L37.5997 29.84V34.1552ZM36.1599 12.7999L37.5997 10.6402V14.96L36.1599 12.7999ZM35.9997 10.1601V8.79994H36.9052L35.9997 10.1601ZM29.5998 19.1999V27.1998H24.7998V19.1999H29.5998ZM23.1998 19.1999V26.0799L21.36 24.2615C21.2108 24.1143 21.0096 24.0311 20.7998 24.0303H18.3999V19.1999H23.1998ZM16.7999 19.1999V20.5334H11.9999V19.1999H16.7999ZM4.79996 44.3309L6.8687 46.3997H2.73123L4.79996 44.3309ZM11.9999 46.3997V22.1334H16.7999V24.8334C16.7999 25.2756 17.1581 25.6334 17.5999 25.6334H20.4709L23.4397 28.5689C23.5889 28.7162 23.7901 28.7994 23.9998 28.7998H29.5998V46.3997H11.9999ZM35.9997 44.2399L37.4396 46.3997H35.9997V44.2399ZM45.5997 45.5997C45.1579 45.5997 44.7997 45.2419 44.7997 44.7997C44.7997 44.3579 45.1579 43.9997 45.5997 43.9997C46.0415 43.9997 46.3997 44.3579 46.3997 44.7997C46.3997 45.2419 46.0415 45.5997 45.5997 45.5997ZM43.9997 40.7997C44.4415 40.7997 44.7997 41.1579 44.7997 41.5997C44.7997 42.0419 44.4415 42.3997 43.9997 42.3997C43.5579 42.3997 43.1997 42.0419 43.1997 41.5997C43.1997 41.1579 43.5579 40.7997 43.9997 40.7997ZM42.3997 43.9997C42.8415 43.9997 43.1997 44.3579 43.1997 44.7997C43.1997 45.2419 42.8415 45.5997 42.3997 45.5997C41.9579 45.5997 41.5997 45.2419 41.5997 44.7997C41.5997 44.3579 41.9579 43.9997 42.3997 43.9997ZM39.9997 7.19995H33.5997V6.39995H37.5997C38.0415 6.39995 38.3997 6.04214 38.3997 5.59996V1.59999H39.9997V7.19995ZM44.2395 5.59996L46.3997 4.16013V5.59996H44.2395Z" fill="white"/>
</g>
<defs>
<clipPath id="clip0">
<rect width="48" height="48" fill="white"/>
</clipPath>
</defs>
</svg>
