<svg width="51" height="51" viewBox="0 0 51 51" fill="none" xmlns="http://www.w3.org/2000/svg">
<path d="M11.8989 30.7539H23.7989V22.2539H11.8989V30.7539ZM13.5989 29.0539V26.5039H22.0989V29.0539H13.5989ZM22.0989 23.9539V24.8039H13.5989V23.9539H22.0989Z" fill="white"/>
<path d="M11.8989 34.1543V44.3543H23.7989V34.1543H11.8989ZM16.9989 35.8543V38.4043H13.5989V35.8543H16.9989ZM13.5989 40.1043H16.9989V42.6543H13.5989V40.1043ZM18.6989 42.6543V40.1043H22.0989V42.6543H18.6989ZM22.0989 38.4043H18.6989V35.8543H22.0989V38.4043Z" fill="white"/>
<path d="M27.1987 30.7539H39.0987V22.2539H27.1987V30.7539ZM28.8987 29.0539V28.2039H37.3987V29.0539H28.8987ZM37.3987 23.9539V26.5039H28.8987V23.9539H37.3987Z" fill="white"/>
<path d="M50.15 40.9547C49.68 40.9547 49.3 41.3355 49.3 41.8047V42.6547H48.45V41.8047C48.45 41.3355 48.0701 40.9547 47.6 40.9547C47.13 40.9547 46.75 41.3355 46.75 41.8047V42.6547H45.9V25.4813C46.3428 25.6802 46.812 25.7899 47.2821 25.7899C48.1941 25.7899 49.1003 25.4193 49.7701 24.6985C50.4161 24.0032 50.7433 23.0622 50.6685 22.1162C50.5929 21.171 50.1211 20.2929 49.3748 19.7081L27.8137 2.84326L25.5 0.695312L23.2416 2.79651L1.62605 19.7081C0.8789 20.2929 0.40715 21.171 0.33235 22.1162C0.25755 23.0622 0.5848 24.0032 1.2308 24.6985C2.2457 25.7916 3.79865 26.067 5.10085 25.4822V42.6556H4.25V41.8056C4.25 41.3364 3.87005 40.9556 3.4 40.9556C2.92995 40.9556 2.55 41.3364 2.55 41.8056V42.6556H1.7V41.8056C1.7 41.3364 1.32005 40.9556 0.85 40.9556C0.37995 40.9556 0 41.3364 0 41.8056V49.4556C0 49.9248 0.37995 50.3056 0.85 50.3056C1.32005 50.3056 1.7 49.9248 1.7 49.4556V48.6056H2.55V49.4556C2.55 49.9248 2.92995 50.3056 3.4 50.3056C3.87005 50.3056 4.25 49.9248 4.25 49.4556V48.6056H5.1V50.3056H27.2H39.1H45.9V48.6056H46.75V49.4556C46.75 49.9248 47.13 50.3056 47.6 50.3056C48.0701 50.3056 48.45 49.9248 48.45 49.4556V48.6056H49.3V49.4556C49.3 49.9248 49.68 50.3056 50.15 50.3056C50.6201 50.3056 51 49.9248 51 49.4556V41.8056C51 41.3355 50.6201 40.9547 50.15 40.9547ZM2.4752 23.5408C2.14795 23.188 1.989 22.7299 2.02725 22.2505C2.0655 21.7711 2.29415 21.3435 2.6741 21.0469L24.344 4.08936L25.5009 3.01411L26.7113 4.13526L48.3268 21.0469C48.7059 21.3435 48.9354 21.7711 48.9736 22.2505C49.0119 22.7299 48.8521 23.1889 48.5257 23.5408C47.9239 24.1885 46.9438 24.2701 46.2425 23.7303L45.9 23.4668L25.5 7.74181L5.4315 23.2118L5.43065 23.2127L4.7583 23.7303C4.0562 24.2701 3.077 24.1885 2.4752 23.5408ZM1.7 46.9047V44.3547H2.55V46.9047H1.7ZM4.25 46.9047V44.3547H5.1V46.9047H4.25ZM28.9 48.6047V35.8547H37.4V48.6047H28.9ZM44.2 48.6047H39.1V34.1547H27.2V48.6047H6.8V24.3024L25.5 9.88721L44.2 24.3024V48.6047ZM45.9 46.9047V44.3547H46.75V46.9047H45.9ZM48.45 46.9047V44.3547H49.3V46.9047H48.45Z" fill="white"/>
</svg>
