<svg width="78" height="78" viewBox="0 0 78 78" fill="none" xmlns="http://www.w3.org/2000/svg">
<path d="M71.4997 3.9H64.9996C64.2196 3.9 63.6997 4.41995 63.6997 5.19995H55.7802L55.8997 3.9C55.8997 1.68995 54.2097 0 51.9997 0H25.9998C23.9198 0 22.0998 1.68995 22.0998 4.02995L22.2079 5.19995H14.2998C14.2998 4.41995 13.7798 3.9 12.9998 3.9H6.49975C3.6398 3.9 1.2998 6.24 1.2998 9.09995C1.2998 11.9599 3.6398 14.2999 6.49975 14.2999H12.9998C13.7798 14.2999 14.2998 13.7799 14.2998 12.9999H22.9285L24.3098 27.9499C24.6223 30.5542 26.438 32.7397 28.8862 33.5059L30.6798 43.5499C31.0161 45.2315 32.2235 46.4275 33.7998 46.7255V54.6C33.7998 55.9106 34.2921 57.1111 35.0997 58.0282V72.8C35.0997 73.0601 35.2297 73.32 35.3598 73.58L37.9598 77.48C38.2197 77.74 38.6097 78 38.9997 78C39.5197 78 39.9097 77.74 40.0398 77.48L42.6398 73.58C42.7698 73.32 42.8999 73.0601 42.8999 72.8V58.0282C43.7074 57.1111 44.1998 55.9106 44.1998 54.6V46.6975C45.712 46.3594 46.8628 45.1849 47.1899 43.5499L48.9694 33.5846C51.5519 32.9003 53.4739 30.6503 53.6899 27.9499L55.0638 12.9999H63.7C63.7 13.7799 64.2199 14.2999 64.9999 14.2999H71.5C74.3599 14.2999 76.6999 11.9599 76.6999 9.09995C76.6999 6.24 74.3598 3.9 71.4997 3.9ZM6.49975 11.7C5.0697 11.7 3.8997 10.53 3.8997 9.09995C3.8997 7.6699 5.0697 6.4999 6.49975 6.4999H11.6997V11.7H6.49975ZM14.2998 10.4001V7.8H22.448L22.6883 10.4001H14.2998ZM41.5998 54.6C41.5998 55.3023 41.3166 55.9408 40.86 56.4098C40.801 56.4498 40.744 56.4958 40.6897 56.55C40.4788 56.7608 40.0113 57.0573 39.4258 57.1617C39.415 57.1635 39.4042 57.165 39.3934 57.1667C39.3359 57.1761 39.2771 57.1834 39.2176 57.1889C39.1455 57.195 39.0731 57.2001 38.9996 57.2001C38.9286 57.2001 38.8588 57.195 38.7892 57.1894C38.1246 57.1277 37.6633 56.786 37.3096 56.5502C37.25 56.4906 37.1871 56.4379 37.1221 56.391C36.676 55.9236 36.3997 55.2932 36.3997 54.6002V46.8002H41.5996V54.6H41.5998ZM40.2997 72.41L38.9997 74.36L37.6998 72.41V59.67C38.4798 59.93 39.5198 59.93 40.2998 59.67V72.41H40.2997ZM44.7198 43.1601C44.5898 43.8101 44.0697 44.2001 43.4198 44.2001H42.8997H35.0997H34.7097C34.0597 44.2001 33.5397 43.8101 33.4098 43.1601L31.7198 33.8001H46.4099L44.7198 43.1601ZM51.2197 27.69C50.9942 29.3815 49.7902 30.7786 48.1175 31.1197C47.9852 31.0871 47.8475 31.0701 47.7097 31.0701H47.5797C47.4498 31.0701 47.3197 31.0701 47.1897 31.0701H30.6798C30.5498 31.0701 30.4197 31.0701 30.2898 31.0701H30.1598C30.0591 31.0701 29.9586 31.079 29.8601 31.0964C28.236 30.7331 27.0192 29.4423 26.9099 27.69L25.4442 11.9128C25.467 11.8007 25.4798 11.6855 25.4798 11.5701L24.9599 6.3701C24.9478 6.31008 24.9314 6.25158 24.9129 6.19399L24.6997 3.9C24.6997 3.12 25.2196 2.60005 25.9996 2.60005H51.9997C52.7797 2.60005 53.2996 3.2501 53.2996 3.77005L51.2197 27.69ZM55.3797 10.4001L55.472 8.55486L55.5413 7.8H63.6997V10.4001H55.3797ZM71.4997 11.7H66.2997V6.50005H71.4997C72.9297 6.50005 74.0997 7.67005 74.0997 9.1001C74.0997 10.5302 72.9297 11.7 71.4997 11.7Z" fill="white"/>
<path d="M40.2999 26H37.6999C36.9199 26 36.3999 26.5199 36.3999 27.2999C36.3999 28.0799 36.9199 28.5999 37.6999 28.5999H40.2999C41.0799 28.5999 41.5999 28.0799 41.5999 27.2999C41.5999 26.5199 41.0799 26 40.2999 26Z" fill="white"/>
<path d="M42.8998 20.7998H35.0998C34.3198 20.7998 33.7998 21.3198 33.7998 22.0998C33.7998 22.8798 34.3198 23.3997 35.0998 23.3997H42.8998C43.6798 23.3997 44.1997 22.8798 44.1997 22.0998C44.1997 21.3199 43.6798 20.7998 42.8998 20.7998Z" fill="white"/>
<path d="M45.4996 15.5996H32.4997C31.7197 15.5996 31.1997 16.1196 31.1997 16.8996C31.1997 17.6796 31.7197 18.1995 32.4997 18.1995H45.4996C46.2796 18.1995 46.7996 17.6796 46.7996 16.8996C46.7996 16.1196 46.2796 15.5996 45.4996 15.5996Z" fill="white"/>
</svg>
