<svg width="68" height="68" viewBox="0 0 68 68" fill="none" xmlns="http://www.w3.org/2000/svg">
<path d="M32.8662 53.2666H35.1329V55.5333H32.8662V53.2666Z" fill="white"/>
<path d="M38.8086 51.7442L40.4112 50.1416L42.0138 51.7442L40.4112 53.3468L38.8086 51.7442Z" fill="white"/>
<path d="M41.9336 44.2002H44.2003V46.4669H41.9336V44.2002Z" fill="white"/>
<path d="M23.7998 44.2002H26.0665V46.4669H23.7998V44.2002Z" fill="white"/>
<path d="M25.9854 51.7442L27.5885 50.1416L29.1911 51.7442L27.5885 53.3474L25.9854 51.7442Z" fill="white"/>
<path d="M56.667 62.333H58.9337V64.5997H56.667V62.333Z" fill="white"/>
<path d="M62.6084 60.8116L64.211 59.209L65.8142 60.8116L64.211 62.4147L62.6084 60.8116Z" fill="white"/>
<path d="M65.7334 53.2666H68.0001V55.5333H65.7334V53.2666Z" fill="white"/>
<path d="M47.5996 53.2666H49.8663V55.5333H47.5996V53.2666Z" fill="white"/>
<path d="M49.7852 60.8112L51.3883 59.208L52.9909 60.8112L51.3883 62.4138L49.7852 60.8112Z" fill="white"/>
<path d="M9.06641 57.7998H11.3331V60.0665H9.06641V57.7998Z" fill="white"/>
<path d="M2.18555 56.278L3.78815 54.6748L5.39076 56.278L3.78815 57.8806L2.18555 56.278Z" fill="white"/>
<path d="M0 48.7334H2.26667V51.0001H0V48.7334Z" fill="white"/>
<path d="M18.1338 48.7334H20.4005V51.0001H18.1338V48.7334Z" fill="white"/>
<path d="M15.0088 56.2784L16.6114 54.6758L18.2146 56.2784L16.6114 57.8815L15.0088 56.2784Z" fill="white"/>
<path d="M66.8667 3.40039H1.13333C0.507454 3.40039 0 3.90784 0 4.53372V9.06706C0 9.69294 0.507454 10.2004 1.13333 10.2004H9.06667V39.6671H7.93333C7.30745 39.6671 6.8 40.1745 6.8 40.8004V45.3337V45.3586C4.84655 46.8207 4.04801 49.3696 4.81888 51.6849C5.58919 53.9997 7.75514 55.5619 10.1956 55.5619C12.6354 55.5619 14.802 53.9997 15.5723 51.6849C16.3426 49.3696 15.5446 46.8207 13.5911 45.3586C13.5911 45.3498 13.5911 45.3426 13.5911 45.3337V40.8004C13.5911 40.1745 13.0837 39.6671 12.4578 39.6671H11.3333V10.2004H32.8667V35.1337H31.7333C31.1075 35.1337 30.6 35.6412 30.6 36.2671V40.8004V40.8253C28.6465 42.2873 27.848 44.8362 28.6189 47.1516C29.3892 49.4664 31.5551 51.0286 33.9956 51.0286C36.4354 51.0286 38.602 49.4664 39.3723 47.1516C40.1426 44.8362 39.3446 42.2873 37.3911 40.8253C37.3911 40.8164 37.3911 40.8092 37.3911 40.8004V36.2671C37.3911 35.6412 36.8837 35.1337 36.2578 35.1337H35.1333V10.2004H56.6667V44.2004H55.5333C54.9075 44.2004 54.4 44.7078 54.4 45.3337V49.8671V49.892C52.4465 51.354 51.648 53.9029 52.4189 56.2183C53.1892 58.5331 55.3551 60.0953 57.7956 60.0953C60.2354 60.0953 62.402 58.5331 63.1723 56.2183C63.9426 53.9029 63.1446 51.354 61.1911 49.892C61.1911 49.8831 61.1911 49.8759 61.1911 49.8671V45.3337C61.1911 44.7078 60.6837 44.2004 60.0578 44.2004H58.9333V10.2004H66.8667C67.4925 10.2004 68 9.69294 68 9.06706V4.53372C68 3.90784 67.4925 3.40039 66.8667 3.40039ZM10.2 53.2671C8.32236 53.2671 6.8 51.7447 6.8 49.8671C6.8 47.9894 8.32236 46.4671 10.2 46.4671C12.0776 46.4671 13.6 47.9894 13.6 49.8671C13.6 51.7447 12.0776 53.2671 10.2 53.2671ZM9.06667 44.2004V41.9337H11.3333V44.2004H9.06667ZM34 48.7337C32.1224 48.7337 30.6 47.2114 30.6 45.3337C30.6 43.4561 32.1224 41.9337 34 41.9337C35.8776 41.9337 37.4 43.4561 37.4 45.3337C37.4 47.2114 35.8776 48.7337 34 48.7337ZM32.8667 39.6671V37.4004H35.1333V39.6671H32.8667ZM57.8 57.8004C55.9224 57.8004 54.4 56.278 54.4 54.4004C54.4 52.5227 55.9224 51.0004 57.8 51.0004C59.6776 51.0004 61.2 52.5227 61.2 54.4004C61.2 56.278 59.6776 57.8004 57.8 57.8004ZM56.6667 48.7337V46.4671H58.9333V48.7337H56.6667ZM65.7333 7.93372H2.26667V5.66706H65.7333V7.93372Z" fill="white"/>
</svg>
