<svg width="60" height="59" viewBox="0 0 60 59" fill="none" xmlns="http://www.w3.org/2000/svg">
<path d="M0 5.1833C0 3.79823 0.548401 2.49599 1.54449 1.5165C3.60077 -0.505501 6.94702 -0.505501 9.00284 1.5165L11.6451 4.11513C14.0913 3.05416 16.8311 2.65759 19.4939 3.00014C22.7124 3.41382 25.6293 4.82814 27.9295 7.09007L36.216 15.2384C37.6909 16.6883 38.7836 18.3736 39.4968 20.1719C41.3846 20.8952 43.0655 21.9742 44.5029 23.3872L52.7898 31.536C55.09 33.7979 56.5283 36.6661 56.949 39.831C57.2974 42.4499 56.8941 45.1435 55.8151 47.549L58.4578 50.1472C60.5141 52.1692 60.5141 55.4592 58.4578 57.4812C57.4617 58.4607 56.1374 59 54.7289 59C53.3199 59 51.9955 58.4607 50.9999 57.4812L48.3586 54.884C46.4868 55.6956 44.4438 56.1178 42.394 56.1178C41.7645 56.1178 41.1342 56.0782 40.5084 55.9976C37.2899 55.5839 34.373 54.1696 32.0732 51.9077L23.7863 43.7589C22.3119 42.309 21.2187 40.6242 20.5055 38.8259C18.6177 38.1025 16.9363 37.0235 15.4994 35.6106L7.21252 27.4618C4.91226 25.1999 3.47397 22.3316 3.05328 19.1667C2.70493 16.5478 3.10822 13.8542 4.18716 11.4487L1.54449 8.85054C0.548401 7.87105 0 6.56881 0 5.1833ZM23.7863 23.3872C24.7787 22.4113 25.8893 21.5956 27.1033 20.9452L21.1578 15.0989C21.1771 15.2794 21.1871 15.4621 21.1871 15.6458C21.1871 17.0313 20.6387 18.3335 19.6426 19.313C18.6465 20.2925 17.3222 20.8318 15.9137 20.8318C15.7265 20.8318 15.5406 20.8214 15.3571 20.803L21.2997 26.6466C21.9511 25.4767 22.7797 24.377 23.7863 23.3872ZM40.3596 39.6847C41.3557 38.7052 42.6801 38.1655 44.0891 38.1655C44.2763 38.1655 44.4617 38.1759 44.6452 38.1948L38.7025 32.3512C38.0511 33.521 37.2226 34.6207 36.2164 35.6101C35.2235 36.5865 34.1135 37.4021 32.899 38.0526L38.8481 43.9025C38.6861 42.3977 39.1891 40.8357 40.3596 39.6847ZM33.7303 17.6831L25.4434 9.53429C22.5211 6.66064 18.2291 5.66674 14.3747 6.79883L17.4321 9.80527C19.5076 9.75981 21.4815 10.5277 22.9573 11.979L31.2442 20.1278C31.3129 20.1953 31.3728 20.2677 31.4278 20.3429C31.4328 20.3483 31.4378 20.3528 31.4429 20.3582C34.2252 23.3242 34.1377 27.8759 31.2447 30.7212C31.2222 30.7433 30.9961 31.0336 30.9778 31.0557C29.9405 32.3169 29.7862 34.0072 30.4784 35.3779C31.6919 34.8386 32.7823 34.0981 33.7303 33.1659C38.0713 28.8973 38.0713 21.9517 33.7303 17.6831ZM50.3041 33.9806L42.0172 25.8319C41.5379 25.3606 41.022 24.9388 40.4732 24.5665C40.5592 25.993 40.4315 27.4294 40.0891 28.8252L47.818 36.4253C49.2943 37.877 50.0752 39.8189 50.0285 41.8584L53.0859 44.8649C54.2372 41.0743 53.2265 36.8543 50.3041 33.9806ZM53.4856 55.0366C54.1708 55.7104 55.2859 55.7109 55.9717 55.0366C56.6574 54.3627 56.6574 53.2657 55.9717 52.5919L45.3319 42.1294C44.9995 41.8026 44.5583 41.623 44.0886 41.623C43.6194 41.623 43.1776 41.8026 42.8458 42.1294C42.1605 42.8033 42.1605 43.8998 42.8458 44.5741L53.4856 55.0366ZM26.272 41.3147L34.5589 49.4635C37.4817 52.3371 41.7728 53.331 45.6281 52.1989L42.5702 49.1925C40.5006 49.2384 38.5213 48.47 37.045 47.0188L28.7581 38.87C26.0257 36.1831 25.789 31.9298 28.1932 28.9441C28.2097 28.9229 28.5732 28.4584 28.7581 28.2765C30.0366 27.0198 30.2934 25.1409 29.5116 23.6244C28.3031 24.1632 27.2173 24.9028 26.272 25.8319C21.9315 30.1005 21.9315 37.0461 26.272 41.3147ZM9.69864 25.0171L17.9855 33.1659C18.4648 33.6372 18.9803 34.059 19.5291 34.4312C19.4435 33.0047 19.5708 31.5684 19.9136 30.1725L12.1843 22.5724C10.708 21.1208 9.92706 19.1784 9.97421 17.1393L6.91635 14.1329C5.76508 17.923 6.77582 22.1435 9.69864 25.0171ZM4.03061 6.40586L14.6704 16.8683C15.3561 17.5422 16.4708 17.5426 17.1565 16.8683C17.4889 16.542 17.6715 16.1076 17.6715 15.6462C17.6715 15.1844 17.4889 14.7505 17.1565 14.4237L6.51672 3.96118C6.17386 3.62448 5.72388 3.45568 5.27344 3.45568C4.82346 3.45568 4.37347 3.62448 4.03061 3.96118C3.34534 4.63503 3.34534 5.73201 4.03061 6.40586Z" fill="white"/>
</svg>
