<svg width="72" height="72" viewBox="0 0 72 72" fill="none" xmlns="http://www.w3.org/2000/svg">
<g clip-path="url(#clip0)">
<path d="M-2.25551e-06 12.0001L-1.57361e-07 60.0001C-7.0459e-08 61.9882 1.61191 63.6001 3.6 63.6001L68.4 63.6001C70.3881 63.6001 72 61.9882 72 60.0001L72 12.0001C72 10.012 70.3881 8.40009 68.4 8.40009L3.6 8.4001C1.61191 8.4001 -2.34241e-06 10.012 -2.25551e-06 12.0001ZM68.4 10.8001C69.0627 10.8001 69.6 11.3374 69.6 12.0001L69.6 60.0001C69.6 60.6628 69.0627 61.2001 68.4 61.2001L3.6 61.2001C2.9373 61.2001 2.4 60.6628 2.4 60.0001L2.4 12.0001C2.4 11.3374 2.9373 10.8001 3.6 10.8001L68.4 10.8001Z" fill="white"/>
<path d="M4.7998 14.3998L4.7998 57.5998C4.7998 58.2625 5.33711 58.7998 5.9998 58.7998L65.9998 58.7998C66.6625 58.7998 67.1998 58.2625 67.1998 57.5998L67.1998 14.3998C67.1998 13.7371 66.6625 13.1998 65.9998 13.1998L5.9998 13.1998C5.33711 13.1998 4.7998 13.7371 4.7998 14.3998ZM64.7998 15.5998L64.7998 56.3998L7.1998 56.3998L7.1998 15.5998L64.7998 15.5998Z" fill="white"/>
<path d="M20.794 52.8438C20.794 52.5256 20.6674 52.2203 20.4424 51.9953L11.9557 43.5086C11.6545 43.1969 11.2086 43.0715 10.7891 43.1817C10.3696 43.2912 10.0414 43.6188 9.93187 44.0389C9.82171 44.4584 9.9471 44.9043 10.2588 45.2055L18.7456 53.6922C19.0889 54.035 19.6045 54.1375 20.0528 53.9518C20.5016 53.7666 20.794 53.3289 20.794 52.8438Z" fill="white"/>
<path d="M62.4423 28.4917C62.9105 28.0229 62.9105 27.2635 62.4423 26.7948L53.9556 18.3081C53.4851 17.8534 52.7362 17.8598 52.2733 18.3227C51.8104 18.7856 51.804 19.5344 52.2587 20.0049L60.7454 28.4917C61.2142 28.9598 61.9735 28.9598 62.4423 28.4917Z" fill="white"/>
<path d="M48.8481 48.8483C49.3163 48.3796 49.3163 47.6202 48.8481 47.1515L24.8481 23.1515C24.377 22.6968 23.6288 22.7032 23.1659 23.1661C22.703 23.629 22.6966 24.3772 23.1513 24.8483L47.1513 48.8483C47.62 49.3165 48.3794 49.3165 48.8481 48.8483Z" fill="white"/>
</g>
<defs>
<clipPath id="clip0">
<rect width="72" height="72" fill="white" transform="translate(0 72) rotate(-90)"/>
</clipPath>
</defs>
</svg>
