<svg width="53" height="43" viewBox="0 0 53 43" fill="none" xmlns="http://www.w3.org/2000/svg">
<path d="M52.1169 10.6H51.2336C51.2336 10.07 50.8803 9.71674 50.3503 9.71674C49.8203 9.71674 49.467 10.07 49.467 10.6V17.6668H48.5837V14.1335C48.5837 13.6035 48.2304 13.2502 47.7004 13.2502H44.1671C43.6371 13.2502 43.2838 13.6035 43.2838 14.1335V17.6668H41.6052V15.9001C41.6052 15.8118 41.5169 15.7234 41.5169 15.6351L37.2768 3.53331C36.4818 1.4133 34.4501 0 32.2418 0H24.3801C22.0834 0 20.0518 1.4133 19.3451 3.53331L15.2218 15.3017C15.1079 15.4338 15.0368 15.6063 15.0206 15.809C15.017 15.8394 15.0168 15.8697 15.0168 15.9002V17.6669H13.2501V6.18332C13.2501 5.65332 12.8968 5.30002 12.3668 5.30002H8.83333H4.41672C4.24002 5.30002 3.97502 5.38832 3.79842 5.56502L0.265001 9.09834C0.0882992 9.27504 0 9.45174 0 9.71674V19.4335C0 21.3768 1.59001 22.9668 3.53331 22.9668H7.95003V34.4291C6.8716 35.2278 6.18332 36.5117 6.18332 37.9835C6.18332 40.4568 8.12663 42.4002 10.6 42.4002C13.0734 42.4002 15.0168 40.4569 15.0168 37.9835C15.0168 36.5117 14.3285 35.2278 13.2501 34.4291V19.4334H15.0168V21.2001C15.0168 21.523 15.1484 21.7797 15.3707 21.9314L21.4651 31.8884C22.0834 32.9484 23.2318 33.5667 24.4684 33.5667H32.0651C33.3018 33.5667 34.4501 32.9484 35.2451 31.8884L41.5169 21.6417C41.5169 21.5534 41.6052 21.3767 41.6052 21.2V19.4333H43.2835V34.429C42.205 35.2277 41.5168 36.5116 41.5168 37.9834C41.5168 40.4567 43.4601 42.4001 45.9335 42.4001C48.4068 42.4001 50.3502 40.4568 50.3502 37.9834C50.3502 36.5116 49.6619 35.2277 48.5835 34.429V19.4334H49.4668V26.5001C49.4668 27.0301 49.8201 27.3834 50.3501 27.3834C50.8801 27.3834 51.2334 27.0301 51.2334 26.5001V12.3668H52.1167C52.6467 12.3668 53 12.0135 53 11.4835C53 10.9534 52.6469 10.6 52.1169 10.6ZM3.53331 21.2001C2.56161 21.2001 1.7666 20.4051 1.7666 19.4334V18.5501H3.53331C4.06331 18.5501 4.41662 18.1968 4.41662 17.6668C4.41662 17.1368 4.06331 16.7835 3.53331 16.7835H1.76671V15.0168H3.53342C4.06342 15.0168 4.41672 14.6635 4.41672 14.1335C4.41672 13.6035 4.06342 13.2502 3.53342 13.2502H1.76671V10.0701L4.77002 7.06684H7.95003V21.2001H3.53331ZM10.6 40.6335C9.09834 40.6335 7.95003 39.4852 7.95003 37.9835C7.95003 37.0856 8.36078 36.3143 9.012 35.839C9.12101 35.8128 9.21717 35.7752 9.27504 35.7752C10.1583 35.2451 11.0417 35.2451 11.925 35.7752C12.0294 35.8447 12.1476 35.8858 12.2685 35.9006C12.8727 36.3795 13.2501 37.1232 13.2501 37.9835C13.2501 39.4852 12.1017 40.6335 10.6 40.6335ZM10.6 33.5668C10.2967 33.5668 10.0015 33.5964 9.71674 33.6522V22.0834V7.06673H11.4834V33.6522C11.1986 33.5964 10.9033 33.5668 10.6 33.5668ZM16.7834 16.7834H39.7502V20.3167H16.7834V16.7834ZM21.0234 4.15172C21.5534 2.73841 22.8784 1.76671 24.3801 1.76671H32.2418C33.7435 1.76671 35.0685 2.73841 35.5985 4.15172L39.3812 15.0168H17.1603L21.0234 4.15172ZM33.5668 30.9168C33.2135 31.4468 32.6835 31.8001 32.0651 31.8001H24.4684C23.8501 31.8001 23.3201 31.4468 22.9667 30.9168L17.4947 22.0835H39.0388L33.5668 30.9168ZM45.9335 40.6335C44.4318 40.6335 43.2835 39.4852 43.2835 37.9835C43.2835 37.1232 43.6608 36.3795 44.265 35.9006C44.386 35.8858 44.5041 35.8447 44.6085 35.7752C45.4918 35.2451 46.3752 35.2451 47.2585 35.7752C47.3776 35.8348 47.457 35.8538 47.55 35.8601C48.1846 36.337 48.5835 37.0988 48.5835 37.9835C48.5835 39.4852 47.4352 40.6335 45.9335 40.6335ZM46.7902 33.6476C46.5284 33.5676 46.19 33.5667 45.9335 33.5667C45.6771 33.5667 45.3386 33.5675 45.0768 33.6476C45.068 33.6492 45.059 33.6505 45.0501 33.6522V15.0168H46.8168V33.6522C46.808 33.6505 46.799 33.6492 46.7902 33.6476Z" fill="white"/>
</svg>
