<svg width="62" height="62" viewBox="0 0 62 62" fill="none" xmlns="http://www.w3.org/2000/svg">
<g clip-path="url(#clip0)">
<path d="M31 16.7109C31.3183 16.7109 31.631 16.5813 31.8562 16.3562C32.0813 16.131 32.2109 15.8183 32.2109 15.5C32.2109 15.1817 32.0813 14.869 31.8562 14.6438C31.631 14.4187 31.3183 14.2891 31 14.2891C30.6817 14.2891 30.369 14.4187 30.1438 14.6438C29.9187 14.869 29.7891 15.1817 29.7891 15.5C29.7891 15.8183 29.9187 16.131 30.1438 16.3562C30.369 16.5813 30.6817 16.7109 31 16.7109Z" fill="white"/>
<path d="M60.7891 54.7335H59.3359V51.1007C59.3359 50.4319 58.7939 49.8898 58.125 49.8898H57.3984V47.9726C57.3984 46.6614 56.5986 45.5342 55.4609 45.0526V40.969C55.4609 40.3002 54.9189 39.7581 54.25 39.7581C53.5811 39.7581 53.0391 40.3002 53.0391 40.969V44.8038H50.6172V27.6085H53.0391V31.5266C53.0391 32.1954 53.5811 32.7375 54.25 32.7375C54.9189 32.7375 55.4609 32.1954 55.4609 31.5266V27.3597C56.5986 26.8782 57.3984 25.7505 57.3984 24.4397V22.5226H58.125C58.7939 22.5226 59.3359 21.9805 59.3359 21.3116V16.7101H59.457C60.0185 16.7101 60.5057 16.3246 60.6353 15.7782C60.7649 15.2324 60.5019 14.6685 60.0005 14.4169L31.5435 0.127804C31.2015 -0.0439034 30.7985 -0.0439034 30.4565 0.127804L1.99947 14.4169C1.49806 14.669 1.23506 15.2324 1.36467 15.7782C1.49428 16.3246 1.98149 16.7101 2.54297 16.7101H2.66406V21.3116C2.66406 21.9805 3.20615 22.5226 3.875 22.5226H4.60156V24.4397C4.60156 25.7505 5.40144 26.8782 6.53906 27.3592V45.0526C5.40144 45.5342 4.60156 46.6614 4.60156 47.9721V49.8898H3.875C3.20615 49.8898 2.66406 50.4319 2.66406 51.1007V54.7335H1.21094C0.542084 54.7335 0 55.2756 0 55.9445V60.7882C0 61.4571 0.542084 61.9991 1.21094 61.9991H60.7891C61.4579 61.9991 62 61.4571 62 60.7882V55.9445C62 55.2756 61.4579 54.7335 60.7891 54.7335ZM54.2297 47.2257C54.6417 47.2257 54.9766 47.5606 54.9766 47.9726V49.8898H48.6797V47.9726C48.6797 47.5606 49.0146 47.2257 49.4266 47.2257H54.2297ZM43.5129 49.8898V47.9726C43.5129 46.6619 42.713 45.5342 41.5754 45.0526V27.3597C42.713 26.8782 43.5129 25.7505 43.5129 24.4397V22.5226H46.2578V24.4397C46.2578 25.7505 47.0577 26.8782 48.1953 27.3592V45.0526C47.0577 45.5342 46.2578 46.6614 46.2578 47.9721V49.8898H43.5129ZM29.6278 49.8898V47.9726C29.6278 46.6614 28.8274 45.5342 27.6903 45.0526V27.3597C28.8274 26.8782 29.6278 25.7505 29.6278 24.4397V22.5226H32.3727V24.4397C32.3727 25.7505 33.1726 26.8782 34.3102 27.3592V45.0526C33.1726 45.5342 32.3727 46.6614 32.3727 47.9721V49.8898H29.6278ZM15.7422 49.8898V47.9726C15.7422 46.6614 14.9423 45.5342 13.8047 45.0526V27.3597C14.9423 26.8782 15.7422 25.7505 15.7422 24.4397V22.5226H18.4871V24.4397C18.4871 25.7505 19.287 26.8782 20.4246 27.3592V45.0526C19.287 45.5342 18.4871 46.6614 18.4871 47.9721V49.8898H15.7422ZM8.96094 27.6085H11.3828V44.8038H8.96094V27.6085ZM22.8465 27.6085H25.2684V44.8038H22.8465V27.6085ZM27.2059 24.4397C27.2059 24.8517 26.871 25.1866 26.459 25.1866H21.6554C21.2439 25.1866 20.9085 24.8517 20.9085 24.4397V22.5226H27.2054V24.4397H27.2059ZM20.909 47.9726C20.909 47.5606 21.2439 47.2257 21.6559 47.2257H26.459C26.8705 47.2257 27.2059 47.5606 27.2059 47.9726V49.8898H20.909V47.9726ZM36.7316 27.6085H39.1535V44.8038H36.7316V27.6085ZM41.091 24.4397C41.091 24.8517 40.7561 25.1866 40.3441 25.1866H35.541C35.1295 25.1866 34.7941 24.8517 34.7941 24.4397V22.5226H41.091V24.4397ZM34.7941 47.9726C34.7941 47.5606 35.129 47.2257 35.541 47.2257H40.3446C40.7561 47.2257 41.0915 47.5606 41.0915 47.9726V49.8898H34.7946V47.9726H34.7941ZM54.9766 24.4397C54.9766 24.8517 54.6417 25.1866 54.2297 25.1866H49.4261C49.0146 25.1866 48.6797 24.8517 48.6797 24.4397V22.5226H54.9766V24.4397ZM24.9855 16.7101C25.6544 16.7101 26.1965 16.168 26.1965 15.4991C26.1965 14.8303 25.6544 14.2882 24.9855 14.2882H7.65303L31 2.56529L54.347 14.2882H37.418C36.7491 14.2882 36.207 14.8303 36.207 15.4991C36.207 16.168 36.7491 16.7101 37.418 16.7101H56.9141V20.1007H5.08594V16.7101H24.9855ZM13.3203 22.5226V24.4397C13.3203 24.8517 12.9854 25.1866 12.5734 25.1866H7.77034C7.35834 25.1866 7.02344 24.8517 7.02344 24.4397V22.5226H13.3203ZM7.02344 47.9726C7.02344 47.5606 7.35834 47.2257 7.77034 47.2257H12.5739C12.9854 47.2257 13.3203 47.5606 13.3203 47.9726V49.8898H7.02344V47.9726ZM5.08594 52.3116H56.9141V54.7335H5.08594V52.3116ZM59.5781 59.5773H2.42188V57.1554H59.5781V59.5773Z" fill="white"/>
<path d="M54.25 34.9961C53.9317 34.9961 53.619 35.1257 53.3938 35.3509C53.1687 35.576 53.0391 35.8887 53.0391 36.207C53.0391 36.5254 53.1687 36.838 53.3938 37.0632C53.619 37.2884 53.9317 37.418 54.25 37.418C54.5683 37.418 54.881 37.2884 55.1062 37.0632C55.3313 36.838 55.4609 36.5254 55.4609 36.207C55.4609 35.8887 55.3313 35.576 55.1062 35.3509C54.881 35.1257 54.5683 34.9961 54.25 34.9961Z" fill="white"/>
</g>
<defs>
<clipPath id="clip0">
<rect width="62" height="62" fill="white"/>
</clipPath>
</defs>
</svg>
