<svg width="59" height="59" viewBox="0 0 59 59" fill="none" xmlns="http://www.w3.org/2000/svg">
<g clip-path="url(#clip0)">
<path d="M42.1931 49.1532C42.3129 49.372 42.5199 49.5295 42.7626 49.5862C42.8287 49.6015 42.8954 49.6087 42.962 49.6087C43.1402 49.6087 43.3162 49.5543 43.4652 49.4503C49.9679 44.8895 53.8503 37.4317 53.8503 29.5003C53.8503 16.0733 42.9269 5.14941 29.5003 5.14941C26.2899 5.14941 23.1669 5.7661 20.2189 6.98236C19.9885 7.07734 19.8098 7.26595 19.7269 7.50092C19.6437 7.73589 19.6648 7.99471 19.7846 8.21303L42.1931 49.1532ZM37.0324 36.075L27.4449 18.5594L37.0324 13.3158V36.075ZM29.5003 6.90179C41.9604 6.90179 52.0979 17.0393 52.0979 29.5003C52.0979 36.5332 48.8083 43.1655 43.2501 47.4341L38.7847 39.2768V39.1652C42.3304 37.275 44.5924 33.5425 44.5924 29.5003C44.5924 28.0757 44.3227 26.6897 43.7907 25.3816C43.6088 24.9333 43.0975 24.7177 42.6491 24.8995C42.2008 25.0823 41.9852 25.5932 42.1675 26.0415C42.614 27.1394 42.8404 28.303 42.8404 29.5003C42.8404 32.5711 41.2852 35.429 38.7852 37.1225V21.8751C39.3974 22.2887 39.9596 22.7749 40.4642 23.3321C40.637 23.523 40.8751 23.6202 41.1137 23.6202C41.3235 23.6202 41.5341 23.5455 41.7016 23.3934C42.0604 23.0688 42.0878 22.5147 41.7628 22.1559C40.9031 21.2062 39.9033 20.4265 38.7852 19.8323V11.8375C38.7852 11.5283 38.6218 11.2415 38.3557 11.084C38.0893 10.926 37.7598 10.9206 37.4883 11.0691L26.6036 17.0222L21.8016 8.24814C24.2647 7.35417 26.8499 6.90179 29.5003 6.90179Z" fill="white"/>
<path d="M50.3597 8.64033C44.7879 3.06857 37.3796 0 29.5 0C21.6204 0 14.2121 3.06857 8.64033 8.64033C3.06857 14.2121 0 21.6204 0 29.5C0 32.303 0.392517 35.0754 1.16675 37.7406C1.30179 38.2051 1.78793 38.4725 2.25292 38.3375C2.71746 38.2024 2.98484 37.7163 2.8498 37.2518C2.12148 34.7454 1.75237 32.1373 1.75237 29.5C1.75237 22.0885 4.63863 15.1205 9.87955 9.87955C15.1205 4.63863 22.0885 1.75237 29.5 1.75237C36.9115 1.75237 43.8795 4.63863 49.1205 9.87955C54.3614 15.1205 57.2476 22.0885 57.2476 29.5C57.2476 36.9115 54.3614 43.8795 49.1205 49.1205C43.8795 54.3614 36.9115 57.2476 29.5 57.2476C18.3934 57.2476 8.3824 50.6532 3.99584 40.4482C3.80453 40.0034 3.28958 39.7982 2.8444 39.989C2.39967 40.1803 2.1944 40.6953 2.38526 41.14C7.0491 51.9896 17.6921 59 29.5 59C37.3796 59 44.7879 55.9314 50.3597 50.3597C55.9314 44.7879 59 37.3796 59 29.5C59 21.6204 55.9314 14.2121 50.3597 8.64033Z" fill="white"/>
<path d="M16.2366 9.41436C15.9944 9.3581 15.7387 9.40716 15.5344 9.5503C9.0313 14.1111 5.14844 21.5689 5.14844 29.4998C5.14844 42.9273 16.0723 53.8512 29.4998 53.8512C32.7102 53.8512 35.8327 53.2345 38.7807 52.0178C39.0111 51.9228 39.1898 51.7342 39.2727 51.4997C39.3559 51.2647 39.3348 51.0054 39.2151 50.7871L16.8065 9.84694C16.6867 9.62818 16.4792 9.47108 16.2366 9.41436ZM29.4998 52.0984C17.0387 52.0984 6.90126 41.9609 6.90126 29.4998C6.90126 22.4669 10.1908 15.8351 15.7491 11.566L19.5689 18.5444H19.2606C16.5846 18.5444 14.4077 20.7217 14.4077 23.3978V35.6018C14.4077 38.2779 16.5846 40.4552 19.2606 40.4552H23.8173L34.8704 46.5L37.198 50.7525C34.7349 51.646 32.1497 52.0984 29.4998 52.0984ZM24.9179 28.3164L33.3102 43.6493L24.9179 39.0593V28.3164ZM23.1651 38.7028H19.2606C17.551 38.7028 16.1601 37.3114 16.1601 35.6018V23.3978C16.1601 21.6882 17.551 20.2968 19.2606 20.2968H20.5282L23.1651 25.1146V38.7028Z" fill="white"/>
</g>
<defs>
<clipPath id="clip0">
<rect width="59" height="59" fill="white"/>
</clipPath>
</defs>
</svg>
