<svg width="66" height="66" viewBox="0 0 66 66" fill="none" xmlns="http://www.w3.org/2000/svg">
<path d="M19.8817 15.4516C23.5289 16.1273 28.1877 16.5 33 16.5C37.8123 16.5 42.4711 16.1273 46.1183 15.4516C51.1697 14.5148 53.625 13.1716 53.625 11.3438C53.625 7.27366 40.6604 6.1875 33 6.1875C25.3396 6.1875 12.375 7.27366 12.375 11.3438C12.375 13.1716 14.8303 14.5148 19.8817 15.4516ZM33 8.25C44.4309 8.25 51.1316 10.2701 51.5539 11.3309C51.4551 11.4881 50.6324 12.5168 45.7426 13.423C42.2152 14.0775 37.69 14.4375 33 14.4375C28.31 14.4375 23.7847 14.0775 20.2574 13.4234C15.3545 12.5143 14.5388 11.4809 14.4472 11.3559C14.9031 10.26 21.5967 8.25 33 8.25Z" fill="white"/>
<path d="M63.9375 16.5C63.9375 16.2265 63.8288 15.9642 63.6355 15.7708C63.4421 15.5774 63.1798 15.4688 62.9062 15.4688H59.8125V11.3438C59.8125 5.31532 45.9979 2.0625 33 2.0625C20.0021 2.0625 6.1875 5.31532 6.1875 11.3438V15.4688H3.09375C2.82025 15.4688 2.55794 15.5774 2.36455 15.7708C2.17115 15.9642 2.0625 16.2265 2.0625 16.5V21.6562C2.06481 27.0664 3.48721 32.3812 6.1875 37.0693V54.6562C6.1875 60.6847 20.0021 63.9375 33 63.9375C45.9979 63.9375 59.8125 60.6847 59.8125 54.6562V37.0693C62.5128 32.3812 63.9352 27.0664 63.9375 21.6562V16.5ZM23.7188 49.5H42.2812V51.5625H23.7188V49.5ZM44.2922 48.2109C44.238 47.9915 44.1123 47.7963 43.9349 47.6563C43.7575 47.5162 43.5385 47.4393 43.3125 47.4375H22.6875C22.4615 47.4393 22.2425 47.5162 22.0651 47.6563C21.8877 47.7963 21.762 47.9915 21.7078 48.2109C16.1033 45.8196 11.3945 41.7236 8.25 36.5043V15.0532C9.26166 15.9047 10.6433 16.6886 12.375 17.3919V36.0938C12.375 37.7348 13.0269 39.3086 14.1873 40.469C15.3477 41.6294 16.9215 42.2812 18.5625 42.2812C20.2035 42.2812 21.7773 41.6294 22.9377 40.469C24.0981 39.3086 24.75 37.7348 24.75 36.0938V29.9062C24.75 29.0857 25.0759 28.2988 25.6561 27.7186C26.2363 27.1384 27.0232 26.8125 27.8438 26.8125C28.6643 26.8125 29.4512 27.1384 30.0314 27.7186C30.6116 28.2988 30.9375 29.0857 30.9375 29.9062V31.9688C30.9375 33.6098 31.5894 35.1836 32.7498 36.344C33.9102 37.5044 35.484 38.1562 37.125 38.1562C38.766 38.1562 40.3398 37.5044 41.5002 36.344C42.6606 35.1836 43.3125 33.6098 43.3125 31.9688V29.9062C43.3134 29.086 43.6397 28.2996 44.2197 27.7197C44.7996 27.1397 45.586 26.8134 46.4062 26.8125C47.7733 26.8109 49.0839 26.2671 50.0505 25.3005C51.0171 24.3339 51.5609 23.0233 51.5625 21.6562V18.1479C54.2895 17.275 56.3637 16.2445 57.75 15.086V36.5043C54.6055 41.7236 49.8967 45.8196 44.2922 48.2109ZM33 20.625C39.0396 20.625 44.8259 19.9547 49.5 18.7374V21.6562C49.4991 22.4765 49.1728 23.2629 48.5928 23.8428C48.0129 24.4228 47.2265 24.7491 46.4062 24.75C45.0392 24.7516 43.7286 25.2954 42.762 26.262C41.7954 27.2286 41.2516 28.5392 41.25 29.9062V31.9688C41.25 33.0628 40.8154 34.112 40.0418 34.8856C39.2682 35.6592 38.219 36.0938 37.125 36.0938C36.031 36.0938 34.9818 35.6592 34.2082 34.8856C33.4346 34.112 33 33.0628 33 31.9688V29.9062C33 28.5387 32.4568 27.2272 31.4898 26.2602C30.5228 25.2932 29.2113 24.75 27.8438 24.75C26.4762 24.75 25.1647 25.2932 24.1977 26.2602C23.2307 27.2272 22.6875 28.5387 22.6875 29.9062V36.0938C22.6875 37.1878 22.2529 38.237 21.4793 39.0106C20.7057 39.7842 19.6565 40.2188 18.5625 40.2188C17.4685 40.2188 16.4193 39.7842 15.6457 39.0106C14.8721 38.237 14.4375 37.1878 14.4375 36.0938V18.1358C19.3669 19.7201 26.0123 20.625 33 20.625ZM33 4.125C47.5855 4.125 57.75 7.92928 57.75 11.3438C57.75 13.0869 54.8713 15.0256 50.2377 16.4023C45.5462 17.7951 39.4247 18.5625 33 18.5625C25.5778 18.5625 18.568 17.5323 13.7678 15.7366C10.3125 14.4446 8.25 12.8019 8.25 11.3438C8.25 7.92928 18.4145 4.125 33 4.125ZM4.125 17.5312H6.1875V32.337C4.82925 28.9397 4.12933 25.3151 4.125 21.6562V17.5312ZM33 61.875C18.4145 61.875 8.25 58.0707 8.25 54.6562V40.1711C11.6856 44.7611 16.3261 48.3093 21.6562 50.4217V52.5938C21.6562 52.8673 21.7649 53.1296 21.9583 53.323C22.1517 53.5163 22.414 53.625 22.6875 53.625H43.3125C43.586 53.625 43.8483 53.5163 44.0417 53.323C44.2351 53.1296 44.3438 52.8673 44.3438 52.5938V50.4217C49.6739 48.3093 54.3144 44.7611 57.75 40.1711V54.6562C57.75 58.0707 47.5855 61.875 33 61.875ZM61.875 21.6562C61.8707 25.3151 61.1708 28.9398 59.8125 32.3372V17.5312H61.875V21.6562Z" fill="white"/>
</svg>
