<svg width="66" height="66" viewBox="0 0 66 66" fill="none" xmlns="http://www.w3.org/2000/svg">
<g clip-path="url(#clip0)">
<path d="M64.8997 51.7003C65.5072 51.7003 65.9996 51.2077 65.9996 50.6003C65.9996 49.9928 65.5071 49.5004 64.8997 49.5004H63.7998C63.7998 48.8929 63.3074 48.4004 62.6998 48.4004C62.0923 48.4004 61.5999 48.8929 61.5999 49.5004H44.0001C44.0001 48.8929 43.5076 48.4004 42.9002 48.4004C42.2927 48.4004 41.8002 48.8929 41.8002 49.5004H40.7003C40.0928 49.5004 39.6004 49.9929 39.6004 50.6003C39.6004 51.2078 40.0928 51.7003 40.7003 51.7003H41.8002V55.0002H40.7003C40.0928 55.0002 39.6004 55.4926 39.6004 56.1001C39.6004 56.7077 40.0928 57.2001 40.7003 57.2001H41.8002V58.3H40.7003C40.0928 58.3 39.6004 58.7926 39.6004 59.3999C39.6004 60.0073 40.0928 60.4999 40.7003 60.4999H41.8002V63.7998H23.1004V54.6992C24.7276 55.6161 26.5634 56.0986 28.4311 56.1C34.6778 56.01 39.6735 50.882 39.6001 44.635C39.634 40.2919 37.2087 36.3029 33.3369 34.3346C34.6115 32.5993 35.2945 30.5001 35.285 28.347C35.3233 23.5952 31.99 19.4821 27.3332 18.5352C28.5115 15.9367 28.309 12.9206 26.7938 10.5032C25.2786 8.08559 22.6526 6.58837 19.8003 6.51606C19.7677 6.51606 19.7363 6.5207 19.7038 6.52108C19.1182 2.73556 15.8379 -0.0430949 12.0077 0.0015059C8.17744 0.0461067 4.96296 2.90056 4.46565 6.69871C1.68029 7.23263 -0.242571 9.79705 0.0254208 12.6206C0.293412 15.4441 2.66447 17.6008 5.50075 17.6009H11.9126C12.0118 17.9172 12.1295 18.2275 12.265 18.53C7.60846 19.4802 4.2768 23.5948 4.31586 28.3471C4.30645 30.5002 4.98938 32.5994 6.26386 34.3347C2.39223 36.3032 -0.0331016 40.292 0.000800185 44.6352C-0.0726751 50.882 4.92313 56.0102 11.1698 56.1001C13.0375 56.0987 14.8734 55.6164 16.5005 54.6993V63.8H1.10087C0.493342 63.8 0.00092908 64.2924 0.00092908 64.8999C0.00092908 65.5074 0.493342 65.9998 1.10087 65.9998H64.8997C65.5072 65.9998 65.9996 65.5074 65.9996 64.8999C65.9996 64.2924 65.5071 63.8 64.8997 63.8H63.7998V60.5H64.8997C65.5072 60.5 65.9996 60.0076 65.9996 59.4001C65.9996 58.7925 65.5071 58.3001 64.8997 58.3001H63.7998V57.2002H64.8997C65.5072 57.2002 65.9996 56.7078 65.9996 56.1003C65.9996 55.4927 65.5071 55.0003 64.8997 55.0003H63.7998V51.7004H64.8997V51.7003ZM11.5082 15.0206C11.5082 15.1484 11.5226 15.2739 11.5283 15.4009H5.50075C3.6783 15.4009 2.2008 13.9235 2.2008 12.101C2.2008 10.2784 3.6783 8.80101 5.50075 8.80101C5.79246 8.80114 6.07231 8.68525 6.27868 8.47888C6.48493 8.27263 6.60081 7.99278 6.60081 7.70094C6.59514 4.83025 8.80237 2.44011 11.6644 2.21762C14.5265 1.99501 17.0766 4.01532 17.5149 6.85237C13.9272 7.94818 11.4849 11.2695 11.5082 15.0206ZM20.9005 63.8001H18.7005V53.0824C19.0947 52.7152 19.4623 52.3205 19.8005 51.9012C20.1386 52.3205 20.5062 52.7152 20.9004 53.0822V63.8001H20.9005ZM21.0341 49.8223L28.2781 42.5781C28.701 42.1474 28.6978 41.4565 28.2711 41.0297C27.8445 40.6029 27.1534 40.5998 26.7227 41.0228L20.9005 46.8448V35.656L26.0781 30.4784C26.5029 30.0481 26.5009 29.3555 26.0732 28.9278C25.6456 28.5002 24.953 28.4981 24.5226 28.9229L20.9004 32.5451V27.5007C20.9004 26.8932 20.4079 26.4008 19.8005 26.4008C19.1929 26.4008 18.7005 26.8933 18.7005 27.5007V32.5451L15.0783 28.9229C14.648 28.4981 13.9554 28.5002 13.5277 28.9278C13.1 29.3554 13.098 30.048 13.5228 30.4784L18.7004 35.6561V46.845L12.8782 41.0228C12.4479 40.5979 11.7553 40.6001 11.3276 41.0276C10.9 41.4552 10.8978 42.148 11.3227 42.5782L18.5667 49.8223C16.9563 52.3525 14.1688 53.8892 11.1696 53.9003C6.1374 53.8117 2.12578 49.6677 2.20055 44.6353C2.15388 40.6556 4.66932 37.0963 8.43628 35.8118C8.80043 35.6918 9.07577 35.3908 9.16291 35.0174C9.25005 34.6439 9.13623 34.2522 8.86282 33.9834C7.35078 32.4991 6.50414 30.4659 6.51574 28.3471C6.44381 24.1499 9.76322 20.6764 13.9594 20.5581C14.4136 20.5982 14.8476 20.3631 15.0621 19.9607C15.2496 19.591 15.2129 19.1472 14.9671 18.8135C14.1518 17.7168 13.7104 16.3871 13.7081 15.0205C13.6544 11.5991 16.3792 8.77948 19.8003 8.71606C23.2216 8.77948 25.9463 11.5991 25.8926 15.0205C25.8903 16.3871 25.4489 17.7168 24.6336 18.8135C24.3928 19.1501 24.3626 19.5936 24.5557 19.9597C24.7501 20.3311 25.135 20.5634 25.5542 20.5623C29.7808 20.6384 33.149 24.1202 33.0849 28.3471C33.0965 30.4659 32.2497 32.4991 30.7378 33.9834C30.4643 34.2522 30.3506 34.6439 30.4377 35.0174C30.5249 35.3908 30.8002 35.6918 31.1644 35.8118C35.3891 37.289 37.9644 41.5638 37.2957 45.989C36.6269 50.4143 32.9037 53.7373 28.4311 53.9003C25.4319 53.8892 22.6445 52.3525 21.0341 49.8223ZM61.5998 63.8001H44.0001V60.5001H61.5998V63.8001ZM61.5998 58.3001H44.0001V57.2002H61.5998V58.3001ZM61.5998 55.0002H44.0001V51.7003H61.5998V55.0002Z" fill="white"/>
<path d="M47.3 27.5H60.4998C63.336 27.4999 65.707 25.3432 65.9751 22.5197C66.2431 19.6962 64.3203 17.1318 61.5348 16.598C61.0314 12.7657 57.7651 9.90039 53.8999 9.90039C50.0347 9.90039 46.7684 12.7657 46.2651 16.598C43.4796 17.1318 41.5567 19.6962 41.8247 22.5197C42.0927 25.3432 44.4638 27.4999 47.3 27.5ZM47.3 18.7002C47.5917 18.7003 47.8716 18.5844 48.078 18.378C48.2842 18.1718 48.4001 17.8919 48.4001 17.6001C48.4001 14.5626 50.8626 12.1001 53.9001 12.1001C56.9375 12.1001 59.4 14.5625 59.4 17.6001C59.3999 17.8918 59.5158 18.1716 59.7221 18.378C59.9284 18.5843 60.2082 18.7002 60.5001 18.7002C62.3225 18.7002 63.8 20.1776 63.8 22.0001C63.8 23.8225 62.3226 25.3 60.5001 25.3H47.3003C45.4778 25.3 44.0003 23.8227 44.0003 22.0001C44.0003 20.1775 45.4775 18.7002 47.3 18.7002Z" fill="white"/>
</g>
<defs>
<clipPath id="clip0">
<rect width="66" height="66" fill="white"/>
</clipPath>
</defs>
</svg>
