<svg width="71" height="71" viewBox="0 0 71 71" fill="none" xmlns="http://www.w3.org/2000/svg">
<g clip-path="url(#clip0)">
<path d="M65.2933 57.8967H56.2927V47.9129C56.2927 47.3387 55.8268 46.8729 55.2526 46.8729H39.7419V30.8785C39.7419 30.3043 39.2766 29.8384 38.7019 29.8384C38.1277 29.8384 37.6619 30.3043 37.6619 30.8785V46.8729H28.7186V21.3789H37.6619V26.7183C37.6619 27.2925 38.1277 27.7584 38.7019 27.7584C39.2766 27.7584 39.7419 27.2925 39.7419 26.7183V20.3389C39.7419 19.7641 39.2766 19.2988 38.7019 19.2988H5.61621C5.04148 19.2988 4.57617 19.7641 4.57617 20.3389C4.57671 21.3215 4.58971 50.8553 4.59134 55.2371C4.59134 55.8118 5.05719 56.2771 5.63138 56.2771C6.20611 56.2771 6.67142 55.8118 6.67142 55.2371V43.4261H15.6147V68.9201H6.67142V59.3972C6.67142 58.8225 6.20611 58.3572 5.63138 58.3572C5.05719 58.3572 4.59134 58.8225 4.59134 59.3972V69.9601C4.59134 70.5348 5.05719 71.0001 5.63138 71.0001H65.2933C65.868 71.0001 66.3334 70.5348 66.3334 69.9601V58.9368C66.3334 58.362 65.868 57.8967 65.2933 57.8967ZM54.2126 48.9529V57.8967H28.7186V48.9529H54.2126ZM17.6947 57.8967V32.4028H26.6385V57.8967H17.6947ZM6.65625 21.3789H26.6385V30.3227H6.65625V21.3789ZM6.65625 41.346V32.4028H15.6152V41.346H6.65625ZM17.6947 59.9768H43.1892V68.9201H17.6947V59.9768ZM64.2533 68.9201H45.2693V59.9768H64.2533V68.9201Z" fill="white"/>
<path d="M65.2928 0H37.7188C37.1446 0 36.6787 0.465309 36.6787 1.04004V12.0634C36.6787 12.6381 37.1446 13.1034 37.7188 13.1034H53.2294V39.6374C53.2294 40.2121 53.6947 40.6774 54.2695 40.6774H65.2928C65.8675 40.6774 66.3328 40.2121 66.3328 39.6374V1.04004C66.3328 0.465309 65.8675 0 65.2928 0ZM38.7588 2.08008H64.2527V11.0233H38.7588V2.08008ZM64.2527 38.5974H55.3095V13.1034H64.2527V38.5974Z" fill="white"/>
</g>
<defs>
<clipPath id="clip0">
<rect width="71" height="71" fill="white"/>
</clipPath>
</defs>
</svg>
