<svg width="262" height="210" viewBox="0 0 262 210" fill="none" xmlns="http://www.w3.org/2000/svg">
<path d="M257.635 52.4002H253.268C253.268 49.7802 251.522 48.0337 248.902 48.0337C246.281 48.0337 244.535 49.7802 244.535 52.4002V87.3339H240.168V69.8673C240.168 67.2473 238.422 65.5008 235.802 65.5008H218.335C215.715 65.5008 213.969 67.2473 213.969 69.8673V87.3339H205.671V78.6003C205.671 78.1638 205.234 77.7268 205.234 77.2903L184.274 17.4666C180.344 6.98653 170.301 0 159.384 0H120.52C109.167 0 99.1239 6.98653 95.6304 17.4666L75.2475 75.6426C74.6841 76.2955 74.3331 77.1481 74.2527 78.15C74.2348 78.3005 74.2338 78.4504 74.2338 78.6008V87.3344H65.5003V30.5666C65.5003 27.9466 63.7538 26.2001 61.1337 26.2001H43.6667H21.8336C20.9601 26.2001 19.6501 26.6366 18.7771 27.5101L1.31001 44.9767C0.436498 45.8502 0 46.7237 0 48.0337V96.0674C0 105.674 7.86003 113.534 17.4666 113.534H39.3002V170.197C33.9691 174.145 30.5666 180.492 30.5666 187.767C30.5666 199.994 40.1732 209.601 52.4002 209.601C64.6268 209.601 74.2338 199.994 74.2338 187.767C74.2338 180.492 70.8314 174.145 65.5003 170.197V96.0669H74.2338V104.8C74.2338 106.396 74.8847 107.666 75.9834 108.416L106.11 157.637C109.167 162.877 114.844 165.934 120.957 165.934H158.511C164.624 165.934 170.301 162.877 174.231 157.637L205.234 106.983C205.234 106.547 205.671 105.673 205.671 104.8V96.0664H213.967V170.196C208.636 174.144 205.234 180.491 205.234 187.767C205.234 199.993 214.84 209.6 227.067 209.6C239.294 209.6 248.901 199.994 248.901 187.767C248.901 180.491 245.499 174.144 240.167 170.196V96.0669H244.534V131.001C244.534 133.621 246.28 135.367 248.9 135.367C251.52 135.367 253.267 133.621 253.267 131.001V61.1338H257.633C260.254 61.1338 262 59.3873 262 56.7673C262 54.1472 260.255 52.4002 257.635 52.4002ZM17.4666 104.8C12.663 104.8 8.73303 100.87 8.73303 96.0669V91.7004H17.4666C20.0866 91.7004 21.8331 89.9539 21.8331 87.3339C21.8331 84.7139 20.0866 82.9674 17.4666 82.9674H8.73354V74.2338H17.4671C20.0871 74.2338 21.8336 72.4873 21.8336 69.8673C21.8336 67.2473 20.0871 65.5008 17.4671 65.5008H8.73354V49.7807L23.5801 34.9342H39.3002V104.8H17.4666ZM52.4002 200.867C44.9767 200.867 39.3002 195.191 39.3002 187.767C39.3002 183.329 41.3307 179.516 44.5499 177.166C45.0887 177.037 45.5641 176.851 45.8502 176.851C50.2167 174.231 54.5837 174.231 58.9502 176.851C59.466 177.195 60.0504 177.398 60.6481 177.471C63.635 179.838 65.5003 183.515 65.5003 187.767C65.5003 195.191 59.8237 200.867 52.4002 200.867ZM52.4002 165.934C50.9009 165.934 49.4414 166.081 48.0337 166.356V109.167V34.9337H56.7672V166.356C55.359 166.081 53.8996 165.934 52.4002 165.934ZM82.9668 82.9668H196.501V100.433H82.9668V82.9668ZM103.927 20.5236C106.547 13.5371 113.097 8.73354 120.52 8.73354H159.384C166.808 8.73354 173.358 13.5371 175.978 20.5236L194.677 74.2338H84.83L103.927 20.5236ZM165.934 152.834C164.188 155.454 161.568 157.201 158.511 157.201H120.957C117.9 157.201 115.28 155.454 113.533 152.834L86.4834 109.167H192.984L165.934 152.834ZM227.067 200.867C219.644 200.867 213.967 195.191 213.967 187.767C213.967 183.515 215.833 179.838 218.819 177.471C219.418 177.398 220.002 177.195 220.517 176.851C224.884 174.231 229.251 174.231 233.617 176.851C234.206 177.145 234.599 177.24 235.058 177.271C238.196 179.628 240.167 183.394 240.167 187.767C240.167 195.191 234.491 200.867 227.067 200.867ZM231.302 166.333C230.008 165.938 228.335 165.934 227.067 165.934C225.8 165.934 224.127 165.937 222.832 166.333C222.789 166.342 222.744 166.348 222.7 166.356V74.2338H231.434V166.356C231.39 166.348 231.346 166.342 231.302 166.333Z" fill="white"/>
</svg>
