<svg width="69" height="69" viewBox="0 0 69 69" fill="none" xmlns="http://www.w3.org/2000/svg">
<path d="M65.7656 7.54688H3.23438C2.94844 7.54688 2.67421 7.66046 2.47203 7.86265C2.26984 8.06484 2.15625 8.33906 2.15625 8.625V57.1406C2.15625 57.4266 2.26984 57.7008 2.47203 57.903C2.67421 58.1052 2.94844 58.2187 3.23438 58.2187H40.0894C40.3091 58.8487 40.7194 59.3947 41.2633 59.7811C41.8072 60.1675 42.4579 60.375 43.1251 60.375C43.7923 60.375 44.4429 60.1675 44.9868 59.7811C45.5308 59.3947 45.941 58.8487 46.1607 58.2187H65.7656C66.0516 58.2187 66.3258 58.1052 66.528 57.903C66.7302 57.7008 66.8438 57.4266 66.8438 57.1406V8.625C66.8438 8.33906 66.7302 8.06484 66.528 7.86265C66.3258 7.66046 66.0516 7.54688 65.7656 7.54688ZM46.3594 46.3594V45.5901L50.5957 38.8125H59.2969V46.3594H46.3594ZM50.6719 52.8551C49.7432 52.1436 48.6073 51.7555 47.4375 51.75C47.1517 51.7496 46.8777 51.6359 46.6756 51.4338C46.4735 51.2317 46.3598 50.9577 46.3594 50.6719V48.5156H50.6719V52.8551ZM29.1094 38.8125C29.3953 38.8125 29.6695 38.6989 29.8717 38.4967C30.0739 38.2945 30.1875 38.0203 30.1875 37.7344C30.1875 37.4484 30.0739 37.1742 29.8717 36.972C29.6695 36.7698 29.3953 36.6562 29.1094 36.6562H23.7188C23.1469 36.6562 22.5984 36.4291 22.1941 36.0247C21.7897 35.6203 21.5625 35.0719 21.5625 34.5C21.5625 33.9281 21.7897 33.3797 22.1941 32.9753C22.5984 32.5709 23.1469 32.3437 23.7188 32.3437H29.1094C29.3953 32.3437 29.6695 32.2302 29.8717 32.028C30.0739 31.8258 30.1875 31.5516 30.1875 31.2656C30.1875 30.9797 30.0739 30.7055 29.8717 30.5033C29.6695 30.3011 29.3953 30.1875 29.1094 30.1875C28.5375 30.1875 27.9891 29.9603 27.5847 29.5559C27.1803 29.1516 26.9531 28.6031 26.9531 28.0312C26.9531 27.4594 27.1803 26.9109 27.5847 26.5065C27.9891 26.1022 28.5375 25.875 29.1094 25.875H41.1608L37.7334 31.2608C37.7322 30.9758 37.6181 30.703 37.4163 30.5019C37.2144 30.3008 36.9412 30.1877 36.6562 30.1875H33.4219C33.1359 30.1875 32.8617 30.3011 32.6595 30.5033C32.4573 30.7055 32.3438 30.9797 32.3438 31.2656C32.3438 31.5516 32.4573 31.8258 32.6595 32.028C32.8617 32.2302 33.1359 32.3437 33.4219 32.3437H36.6562C36.8154 32.3416 36.972 32.3036 37.1145 32.2326L34.6685 36.0768C34.5583 36.2499 34.4998 36.451 34.5 36.6562H33.4219C33.1359 36.6562 32.8617 36.7698 32.6595 36.972C32.4573 37.1742 32.3438 37.4484 32.3438 37.7344C32.3438 38.0203 32.4573 38.2945 32.6595 38.4967C32.8617 38.6989 33.1359 38.8125 33.4219 38.8125H35.6543L37.0019 40.9687H29.1094C28.5377 40.9682 27.9896 40.7408 27.5853 40.3366C27.1811 39.9323 26.9537 39.3842 26.9531 38.8125H29.1094ZM4.3125 26.9531V19.4062H7.54688V26.9531H4.3125ZM9.70312 19.4062H24.7969V26.9531H9.70312V19.4062ZM42.0469 19.4062V23.7187H29.1094C28.35 23.7231 27.6056 23.9302 26.9531 24.3187V19.4062H42.0469ZM59.2969 19.4062V26.9531H45.7753L44.2031 24.4825V19.4062H59.2969ZM64.6875 19.4062V26.9531H61.4531V19.4062H64.6875ZM64.6875 36.6562H52.8281V29.1094H64.6875V36.6562ZM40.4409 42.4012L36.8542 36.6593L42.0469 28.499V41.167C41.3934 41.3962 40.8306 41.8288 40.4409 42.4012ZM50.6719 34.6482L47.1473 29.1094H50.6719V34.6482ZM45.8099 42.4028C45.4202 41.8298 44.8571 41.3968 44.2031 41.1674V28.4994L49.399 36.6642L45.8099 42.4028ZM42.0469 44.2031C42.0469 43.9172 42.1605 43.643 42.3626 43.4408C42.5648 43.2386 42.8391 43.125 43.125 43.125C43.4109 43.125 43.6852 43.2386 43.8874 43.4408C44.0895 43.643 44.2031 43.9172 44.2031 44.2031V49.5937H42.0469V44.2031ZM61.4531 38.8125H64.6875V46.3594H61.4531V38.8125ZM64.6875 17.25H52.8281V9.70312H64.6875V17.25ZM50.6719 17.25H35.5781V9.70312H50.6719V17.25ZM33.4219 17.25H18.3281V9.70312H33.4219V17.25ZM4.3125 9.70312H16.1719V17.25H4.3125V9.70312ZM4.3125 29.1094H24.9368C25.0333 29.487 25.1809 29.8497 25.3754 30.1875H23.7188C22.575 30.1875 21.4781 30.6418 20.6694 31.4506C19.8606 32.2593 19.4062 33.3563 19.4062 34.5C19.4062 35.6437 19.8606 36.7406 20.6694 37.5494C21.4781 38.3581 22.575 38.8125 23.7188 38.8125H24.7969C24.7982 39.9558 25.2529 41.052 26.0614 41.8605C26.8699 42.6689 27.966 43.1237 29.1094 43.125H38.3497L39.8906 45.5903V56.0625H4.3125V29.1094ZM43.125 58.2187C42.8392 58.2184 42.5652 58.1046 42.3631 57.9025C42.161 57.7004 42.0473 57.4264 42.0469 57.1406V51.75H44.2031V57.1406C44.2027 57.4264 44.089 57.7004 43.8869 57.9025C43.6848 58.1046 43.4108 58.2184 43.125 58.2187ZM46.3594 56.0625V53.7075C46.7046 53.8354 47.0694 53.9026 47.4375 53.9062C48.2929 53.9066 49.1135 54.2445 49.7211 54.8465C50.0624 55.1908 50.3237 55.6059 50.4866 56.0625H46.3594ZM64.6875 56.0625H52.8281V48.5156H64.6875V56.0625Z" fill="white"/>
</svg>
