<svg width="62" height="62" viewBox="0 0 62 62" fill="none" xmlns="http://www.w3.org/2000/svg">
<g clip-path="url(#clip0)">
<path d="M20.8125 17.7421C21.8569 16.386 23.803 16.1329 25.1596 17.1773L36.119 25.6118C37.9747 22.5092 39.0565 19.0056 39.2717 15.3969C40.2552 5.56322 41.1719 0 48.5666 0H60.9664C61.5374 0 62 0.462616 62 1.03355V60.9664C62 61.5374 61.5374 62 60.9664 62H19.6333C19.1286 62 18.6981 61.6358 18.6144 61.1382C18.3164 59.1481 18.1494 57.1411 18.1149 55.1293L17.0208 56.5508C16.5213 57.2045 15.7805 57.6312 14.9645 57.7352C14.8297 57.7527 14.694 57.7612 14.5582 57.7617C13.8756 57.7617 13.2125 57.5347 12.6727 57.117L1.20905 48.2932C-0.146164 47.2478 -0.398758 45.3028 0.643784 43.9457L20.8125 17.7421ZM20.5325 59.9334H23.5083C23.0551 57.8956 22.7954 55.82 22.7335 53.7335C22.7335 53.1625 23.1961 52.6999 23.7665 52.6999C24.3375 52.6999 24.8001 53.1625 24.8001 53.7335C24.8753 55.8214 25.1511 57.8975 25.6227 59.9334H59.9334V2.06664H48.5666C43.414 2.06664 42.3932 4.95065 41.3284 15.6041C40.837 20.479 39.6558 24.0835 37.5462 27.1908C38.0187 28.2286 37.8815 29.4419 37.1895 30.3482L20.2014 52.418C20.1167 54.9278 20.2274 57.4405 20.5325 59.9334ZM2.4706 46.6566L13.9333 55.4799C14.386 55.8275 15.0345 55.7429 15.3827 55.2906L35.5514 29.0866C35.8996 28.6344 35.8154 27.9859 35.3636 27.6378L23.8995 18.814C23.4468 18.4668 22.7983 18.5515 22.4501 19.0037L2.28044 45.2072C1.93372 45.6599 2.01839 46.3084 2.47012 46.6566H2.4706Z" fill="white"/>
<path d="M17.3426 30.7195C18.0389 29.8156 19.3364 29.6472 20.2408 30.343L21.5014 28.7063C22.1698 27.8374 23.1561 27.2698 24.2436 27.1283C25.3306 26.9869 26.4294 27.283 27.2983 27.9518L28.1171 28.5824C28.417 28.8052 28.5731 29.1722 28.5258 29.5426C28.4781 29.9135 28.2345 30.2295 27.8887 30.3695C27.5424 30.5095 27.1474 30.4522 26.8556 30.219L26.0373 29.5885C25.6026 29.255 25.0534 29.107 24.5099 29.177C23.9659 29.2465 23.4725 29.5308 23.1395 29.9665L21.8784 31.6041C22.3132 31.938 22.597 32.4314 22.6674 32.9753C22.7384 33.5188 22.5903 34.068 22.2559 34.5027L14.0613 45.1467C13.0164 46.5014 11.0722 46.755 9.71466 45.7138L9.71372 45.7129C8.35993 44.6666 8.10733 42.722 9.1494 41.3649L17.3426 30.7195ZM10.9753 44.0753C11.4275 44.423 12.0765 44.3388 12.4246 43.8866L20.6178 33.2421L18.9802 31.9811L10.7875 42.625C10.4389 43.0777 10.5231 43.7267 10.9753 44.0753Z" fill="white"/>
<path d="M43.8595 14.9478C43.9035 12.9847 44.1022 11.0283 44.4541 9.09693C45.6612 3.05738 54.5191 4.09094 54.8951 4.14108C55.265 4.1827 55.5843 4.41969 55.7305 4.76216C55.8766 5.10463 55.8274 5.49913 55.6013 5.79524C55.3752 6.09135 55.0077 6.24272 54.6387 6.19163C54.563 6.18264 47.3154 5.326 46.48 9.50279C46.1508 11.3315 45.9649 13.1834 45.9242 15.0414C45.7956 17.8469 45.674 20.4958 44.3245 23.1949C44.1594 23.5251 43.8306 23.7422 43.4622 23.7644C43.0937 23.7866 42.7413 23.6102 42.5379 23.3023C42.3345 22.9939 42.3108 22.6008 42.4759 22.2706C43.6296 19.9637 43.7365 17.6388 43.8595 14.9478Z" fill="white"/>
</g>
<defs>
<clipPath id="clip0">
<rect width="62" height="62" transform="matrix(-1 0 0 1 62 0)" fill="white"/>
</clipPath>
</defs>
</svg>
