<svg width="66" height="66" viewBox="0 0 66 66" fill="none" xmlns="http://www.w3.org/2000/svg">
<path d="M46.2004 15.4004C44.381 15.4004 42.9004 16.881 42.9004 18.7004V47.3004C42.9004 49.1198 44.381 50.6004 46.2004 50.6004C48.0198 50.6004 49.5004 49.1198 49.5004 47.3004V18.7004C49.5004 16.881 48.0198 15.4004 46.2004 15.4004ZM47.3004 47.3004C47.3004 47.9076 46.8076 48.4004 46.2004 48.4004C45.5932 48.4004 45.1004 47.9076 45.1004 47.3004V18.7004C45.1004 18.0932 45.5932 17.6004 46.2004 17.6004C46.8076 17.6004 47.3004 18.0932 47.3004 18.7004V47.3004Z" fill="white"/>
<path d="M35.2004 15.4004C33.381 15.4004 31.9004 16.881 31.9004 18.7004V47.3004C31.9004 49.1198 33.381 50.6004 35.2004 50.6004C37.0198 50.6004 38.5004 49.1198 38.5004 47.3004V18.7004C38.5004 16.881 37.0198 15.4004 35.2004 15.4004ZM36.3004 47.3004C36.3004 47.9076 35.8076 48.4004 35.2004 48.4004C34.5932 48.4004 34.1004 47.9076 34.1004 47.3004V18.7004C34.1004 18.0932 34.5932 17.6004 35.2004 17.6004C35.8076 17.6004 36.3004 18.0932 36.3004 18.7004V47.3004Z" fill="white"/>
<path d="M13.2004 15.4004C11.381 15.4004 9.90039 16.881 9.90039 18.7004V47.3004C9.90039 49.1198 11.381 50.6004 13.2004 50.6004C15.0198 50.6004 16.5004 49.1198 16.5004 47.3004V18.7004C16.5004 16.881 15.0198 15.4004 13.2004 15.4004ZM14.3004 47.3004C14.3004 47.9076 13.8076 48.4004 13.2004 48.4004C12.5932 48.4004 12.1004 47.9076 12.1004 47.3004V18.7004C12.1004 18.0932 12.5932 17.6004 13.2004 17.6004C13.8076 17.6004 14.3004 18.0932 14.3004 18.7004V47.3004Z" fill="white"/>
<path d="M24.2004 15.4004C22.381 15.4004 20.9004 16.881 20.9004 18.7004V47.3004C20.9004 49.1198 22.381 50.6004 24.2004 50.6004C26.0198 50.6004 27.5004 49.1198 27.5004 47.3004V18.7004C27.5004 16.881 26.0198 15.4004 24.2004 15.4004ZM25.3004 47.3004C25.3004 47.9076 24.8076 48.4004 24.2004 48.4004C23.5932 48.4004 23.1004 47.9076 23.1004 47.3004V18.7004C23.1004 18.0932 23.5932 17.6004 24.2004 17.6004C24.8076 17.6004 25.3004 18.0932 25.3004 18.7004V47.3004Z" fill="white"/>
<path d="M63.25 18.7004C64.7669 18.7004 66 17.4673 66 15.9504V12.6504C66 11.1335 64.7669 9.90039 63.25 9.90039C61.7331 9.90039 60.5 11.1335 60.5 12.6504V13.2004H59.4V9.90039H56.1V8.80039C56.1 6.37379 54.1266 4.40039 51.7 4.40039C49.2734 4.40039 47.3 6.37379 47.3 8.80039V9.90039C47.3 10.5076 46.8072 11.0004 46.2 11.0004C45.5928 11.0004 45.1 10.5076 45.1 9.90039V8.80039C45.1 6.37379 43.1266 4.40039 40.7 4.40039C38.2734 4.40039 36.3 6.37379 36.3 8.80039V9.90039C36.3 10.5076 35.8072 11.0004 35.2 11.0004C34.5928 11.0004 34.1 10.5076 34.1 9.90039V8.80039C34.1 6.37379 32.1266 4.40039 29.7 4.40039C27.2734 4.40039 25.3 6.37379 25.3 8.80039V9.90039C25.3 10.5076 24.8072 11.0004 24.2 11.0004C23.5928 11.0004 23.1 10.5076 23.1 9.90039V8.80039C23.1 6.37379 21.1266 4.40039 18.7 4.40039C16.2734 4.40039 14.3 6.37379 14.3 8.80039V9.90039C14.3 10.5076 13.8072 11.0004 13.2 11.0004C12.5928 11.0004 12.1 10.5076 12.1 9.90039V8.80039C12.1 6.37379 10.1266 4.40039 7.7 4.40039C5.2734 4.40039 3.3 6.37379 3.3 8.80039V11.0004H0V18.7004H3.3V47.3004H0V55.0004H3.3V57.2004C3.3 59.627 5.2734 61.6004 7.7 61.6004C10.1266 61.6004 12.1 59.627 12.1 57.2004V56.1004C12.1 55.4932 12.5928 55.0004 13.2 55.0004C13.8072 55.0004 14.3 55.4932 14.3 56.1004V57.2004C14.3 59.627 16.2734 61.6004 18.7 61.6004C21.1266 61.6004 23.1 59.627 23.1 57.2004V56.1004C23.1 55.4932 23.5928 55.0004 24.2 55.0004C24.8072 55.0004 25.3 55.4932 25.3 56.1004V57.2004C25.3 59.627 27.2734 61.6004 29.7 61.6004C32.1266 61.6004 34.1 59.627 34.1 57.2004V56.1004C34.1 55.4932 34.5928 55.0004 35.2 55.0004C35.8072 55.0004 36.3 55.4932 36.3 56.1004V57.2004C36.3 59.627 38.2734 61.6004 40.7 61.6004C43.1266 61.6004 45.1 59.627 45.1 57.2004V56.1004C45.1 55.4932 45.5928 55.0004 46.2 55.0004C46.8072 55.0004 47.3 55.4932 47.3 56.1004V57.2004C47.3 59.627 49.2734 61.6004 51.7 61.6004C54.1266 61.6004 56.1 59.627 56.1 57.2004V55.0004H59.4V53.9004H66V48.4004H59.4V47.3004H56.1V18.7004H59.4V15.4004H60.5V15.9504C60.5 17.4673 61.7331 18.7004 63.25 18.7004ZM2.2 16.5004V13.2004H3.3V16.5004H2.2ZM2.2 52.8004V49.5004H3.3V52.8004H2.2ZM63.8 50.6004V51.7004H59.4V50.6004H63.8ZM57.2 49.5004V52.8004H56.1V49.5004H57.2ZM53.9 47.3004V55.0004V57.2004C53.9 58.4137 52.9133 59.4004 51.7 59.4004C50.4867 59.4004 49.5 58.4137 49.5 57.2004V56.1004C49.5 54.281 48.0194 52.8004 46.2 52.8004C44.3806 52.8004 42.9 54.281 42.9 56.1004V57.2004C42.9 58.4137 41.9133 59.4004 40.7 59.4004C39.4867 59.4004 38.5 58.4137 38.5 57.2004V56.1004C38.5 54.281 37.0194 52.8004 35.2 52.8004C33.3806 52.8004 31.9 54.281 31.9 56.1004V57.2004C31.9 58.4137 30.9133 59.4004 29.7 59.4004C28.4867 59.4004 27.5 58.4137 27.5 57.2004V56.1004C27.5 54.281 26.0194 52.8004 24.2 52.8004C22.3806 52.8004 20.9 54.281 20.9 56.1004V57.2004C20.9 58.4137 19.9133 59.4004 18.7 59.4004C17.4867 59.4004 16.5 58.4137 16.5 57.2004V56.1004C16.5 54.281 15.0194 52.8004 13.2 52.8004C11.3806 52.8004 9.9 54.281 9.9 56.1004V57.2004C9.9 58.4137 8.9133 59.4004 7.7 59.4004C6.4867 59.4004 5.5 58.4137 5.5 57.2004V55.0004V47.3004V18.7004V11.0004V8.80039C5.5 7.58709 6.4867 6.60039 7.7 6.60039C8.9133 6.60039 9.9 7.58709 9.9 8.80039V9.90039C9.9 11.7198 11.3806 13.2004 13.2 13.2004C15.0194 13.2004 16.5 11.7198 16.5 9.90039V8.80039C16.5 7.58709 17.4867 6.60039 18.7 6.60039C19.9133 6.60039 20.9 7.58709 20.9 8.80039V9.90039C20.9 11.7198 22.3806 13.2004 24.2 13.2004C26.0194 13.2004 27.5 11.7198 27.5 9.90039V8.80039C27.5 7.58709 28.4867 6.60039 29.7 6.60039C30.9133 6.60039 31.9 7.58709 31.9 8.80039V9.90039C31.9 11.7198 33.3806 13.2004 35.2 13.2004C37.0194 13.2004 38.5 11.7198 38.5 9.90039V8.80039C38.5 7.58709 39.4867 6.60039 40.7 6.60039C41.9133 6.60039 42.9 7.58709 42.9 8.80039V9.90039C42.9 11.7198 44.3806 13.2004 46.2 13.2004C48.0194 13.2004 49.5 11.7198 49.5 9.90039V8.80039C49.5 7.58709 50.4867 6.60039 51.7 6.60039C52.9133 6.60039 53.9 7.58709 53.9 8.80039V9.90039V18.7004V47.3004ZM57.2 16.5004H56.1V12.1004H57.2V16.5004ZM62.7 12.6504C62.7 12.3479 62.9475 12.1004 63.25 12.1004C63.5525 12.1004 63.8 12.3479 63.8 12.6504V15.9504C63.8 16.2529 63.5525 16.5004 63.25 16.5004C62.9475 16.5004 62.7 16.2529 62.7 15.9504V12.6504Z" fill="white"/>
</svg>
