<svg width="70" height="70" viewBox="0 0 70 70" fill="none" xmlns="http://www.w3.org/2000/svg">
<path d="M68.7349 10.1201H1.26506C0.566426 10.1201 0 10.6864 0 11.3852V51.8671C0 56.2849 3.59434 59.8791 8.01199 59.8791C10.8428 59.8791 13.3334 58.4021 14.7589 56.1797C16.1846 58.4022 18.6752 59.8791 21.5059 59.8791C24.3365 59.8791 26.8272 58.4021 28.2528 56.1797C29.6784 58.4022 32.1691 59.8791 34.9997 59.8791C37.8304 59.8791 40.3212 58.4021 41.7467 56.1797C43.1721 58.4022 45.663 59.8791 48.4936 59.8791C51.3244 59.8791 53.8151 58.4021 55.2405 56.1797C56.666 58.4022 59.1568 59.8791 61.9875 59.8791C66.4053 59.8791 69.9995 56.2847 69.9995 51.8671V11.3852C70 10.6864 69.4337 10.1201 68.7349 10.1201ZM49.7591 12.6502H60.723V16.4454C60.723 19.4683 58.2638 21.9273 55.2411 21.9273C52.2184 21.9273 49.7592 19.4681 49.7592 16.4454V12.6502H49.7591ZM48.494 20.7581C49.7027 22.6425 51.6771 23.9902 53.9759 24.3565V28.2526C53.9759 31.2754 51.5167 33.7345 48.494 33.7345C45.4713 33.7345 43.0121 31.2753 43.0121 28.2526V24.3565C45.3109 23.9902 47.2853 22.6426 48.494 20.7581ZM36.2651 12.6502H47.229V16.4454C47.229 19.4683 44.7698 21.9273 41.7471 21.9273C38.7242 21.9273 36.2652 19.4681 36.2652 16.4454V12.6502H36.2651ZM35 20.7581C36.2087 22.6425 38.1831 23.9902 40.4819 24.3565V28.2526C40.4819 31.2754 38.0227 33.7345 35 33.7345C31.9773 33.7345 29.5181 31.2753 29.5181 28.2526V24.3565C31.8168 23.9902 33.7911 22.6426 35 20.7581ZM22.7711 12.6502H33.7349V16.4454C33.7349 19.4683 31.2756 21.9273 28.2531 21.9273C25.2304 21.9273 22.7712 19.4681 22.7712 16.4454V12.6502H22.7711ZM21.506 20.7581C22.7149 22.6425 24.6892 23.9902 26.9879 24.3565V28.2526C26.9879 31.2754 24.5286 33.7345 21.506 33.7345C18.4834 33.7345 16.0241 31.2753 16.0241 28.2526V24.3565C18.3228 23.9902 20.2973 22.6426 21.506 20.7581ZM9.27705 12.6502H20.2409V16.4454C20.2409 19.4683 17.7816 21.9273 14.7591 21.9273C11.7363 21.9273 9.27719 19.4681 9.27719 16.4454V12.6502H9.27705ZM2.53012 12.6502H6.74693V16.4454C6.74693 19.0328 4.94471 21.2056 2.53012 21.7784V12.6502ZM2.53012 24.3566C4.82877 23.9902 6.80313 22.6426 8.01199 20.7582C9.22086 22.6426 11.1952 23.9904 13.4939 24.3566V28.2527C13.4939 31.2756 11.0346 33.7346 8.01199 33.7346C4.98941 33.7346 2.53012 31.2754 2.53012 28.2527V24.3566ZM2.53012 34.0877C3.67309 35.1622 5.12955 35.9062 6.74693 36.1638V40.0599C6.74693 42.6474 4.94471 44.82 2.53012 45.3929V34.0877ZM13.494 51.8671C13.494 54.8899 11.0347 57.3489 8.01213 57.3489C4.98955 57.3489 2.53025 54.8898 2.53025 51.8671V47.971C4.82891 47.6046 6.80326 46.2569 8.01213 44.3724C9.221 46.2568 11.1954 47.6046 13.494 47.9708V51.8671ZM14.7591 45.5418C11.7363 45.5418 9.27719 43.0826 9.27719 40.0599V36.1638C11.5758 35.7974 13.5503 34.4498 14.7591 32.5654C15.9678 34.4498 17.9423 35.7975 20.2409 36.1638V40.0599C20.2409 43.0827 17.7816 45.5418 14.7591 45.5418ZM26.988 51.8671C26.988 54.8899 24.5287 57.3489 21.5061 57.3489C18.4836 57.3489 16.0243 54.8898 16.0243 51.8671V47.971C18.3229 47.6046 20.2974 46.2569 21.5061 44.3724C22.715 46.2568 24.6894 47.6046 26.988 47.9708V51.8671ZM28.2531 45.5418C25.2304 45.5418 22.7712 43.0826 22.7712 40.0599V36.1638C25.0698 35.7974 27.0442 34.4498 28.2531 32.5654C29.4619 34.4498 31.4363 35.7975 33.7349 36.1638V40.0599C33.7349 43.0827 31.2756 45.5418 28.2531 45.5418ZM40.4819 51.8671C40.4819 54.8899 38.0227 57.3489 35 57.3489C31.9773 57.3489 29.5181 54.8898 29.5181 51.8671V47.971C31.8168 47.6046 33.7911 46.2569 35 44.3724C36.2087 46.2568 38.1831 47.6046 40.4819 47.9708V51.8671ZM41.7469 45.5418C38.7241 45.5418 36.2651 43.0826 36.2651 40.0599V36.1638C38.564 35.7974 40.5382 34.4498 41.7469 32.5654C42.9557 34.4498 44.93 35.7975 47.2288 36.1638V40.0599C47.229 43.0827 44.7698 45.5418 41.7469 45.5418ZM53.9759 51.8671C53.9759 54.8899 51.5167 57.3489 48.494 57.3489C45.4713 57.3489 43.0121 54.8898 43.0121 51.8671V47.971C45.3111 47.6046 47.2853 46.2569 48.494 44.3724C49.7027 46.2568 51.6771 47.6046 53.9759 47.9708V51.8671ZM55.2409 45.5418C52.2181 45.5418 49.7591 43.0826 49.7591 40.0599V36.1638C52.058 35.7974 54.0322 34.4498 55.2409 32.5654C56.4497 34.4498 58.424 35.7975 60.7228 36.1638V40.0599C60.723 43.0827 58.2638 45.5418 55.2409 45.5418ZM67.4699 51.8671C67.4699 54.8899 65.0107 57.3489 61.988 57.3489C58.9653 57.3489 56.5061 54.8898 56.5061 51.8671V47.971C58.8051 47.6046 60.7793 46.2569 61.988 44.3724C63.1967 46.2568 65.1711 47.6046 67.4699 47.9708V51.8671ZM67.4699 45.3927C65.0553 44.8199 63.2531 42.6472 63.2531 40.0597V36.1638C64.8705 35.9062 66.3271 35.1622 67.4699 34.0876V45.3927ZM67.4699 28.2527C67.4699 31.2756 65.0107 33.7346 61.988 33.7346C58.9653 33.7346 56.5061 31.2754 56.5061 28.2527V24.3566C58.8051 23.9902 60.7793 22.6426 61.988 20.7582C63.1967 22.6426 65.1711 23.9904 67.4699 24.3566V28.2527ZM67.4699 21.7784C65.0553 21.2056 63.2531 19.033 63.2531 16.4454V12.6502H67.4699V21.7784Z" fill="white"/>
</svg>
