<svg width="67" height="67" viewBox="0 0 67 67" fill="none" xmlns="http://www.w3.org/2000/svg">
<g clip-path="url(#clip0)">
<path d="M1.95839 67.1285H65.0306C66.1148 67.1285 66.9935 66.2493 66.9935 65.1656V52.2949C66.9935 51.498 66.512 50.7808 65.7749 50.4787C65.2448 50.2615 64.7331 49.9895 64.2546 49.6706C60.016 46.8448 54.5383 46.8448 50.3002 49.6706C47.3845 51.6146 43.6162 51.614 40.7005 49.6706C36.4618 46.8448 30.9847 46.8448 26.746 49.6706C23.8303 51.6146 20.0625 51.614 17.1468 49.6706C15.0735 48.2884 12.6158 47.5579 10.0385 47.5579C7.46164 47.5579 5.00343 48.2884 2.93064 49.6706C2.58151 49.9032 2.20937 50.0335 1.79431 50.0683C0.777588 50.1536 0.00878906 51.0037 0.00878906 52.0245V65.1656C0.00878906 66.2493 0.874711 67.1285 1.95839 67.1285ZM3.92128 53.5606C4.33328 53.3975 4.72995 53.189 5.10822 52.9369C8.01115 51.0017 12.0663 51.0017 14.9692 52.9369C19.2078 55.7627 24.6855 55.7627 28.9236 52.9369C31.8393 50.993 35.6077 50.993 38.5234 52.9369C42.7615 55.7627 48.2392 55.7627 52.4778 52.9369C55.3935 50.993 59.1614 50.993 62.0771 52.9369C62.3976 53.1506 62.7416 53.35 63.081 53.5335V63.2028H3.92128V53.5606Z" fill="white"/>
<path d="M14.002 55.2207H9.94531C8.86163 55.2207 7.98242 56.0999 7.98242 57.1836C7.98242 58.2678 8.86163 59.1465 9.94531 59.1465H14.002C15.0861 59.1465 15.9648 58.2678 15.9648 57.1836C15.9648 56.0999 15.0861 55.2207 14.002 55.2207Z" fill="white"/>
<path d="M57.1841 55.2207H53.2588C52.1746 55.2207 51.2959 56.0999 51.2959 57.1836C51.2959 58.2678 52.1746 59.1465 53.2588 59.1465H57.1841C58.2683 59.1465 59.147 58.2678 59.147 57.1836C59.147 56.0999 58.2683 55.2207 57.1841 55.2207Z" fill="white"/>
<path d="M35.5928 55.2207H31.667C30.5828 55.2207 29.7041 56.0999 29.7041 57.1836C29.7041 58.2678 30.5828 59.1465 31.667 59.1465H35.5928C36.6765 59.1465 37.5557 58.2678 37.5557 57.1836C37.5557 56.0999 36.6765 55.2207 35.5928 55.2207Z" fill="white"/>
<path d="M46.0093 38.2361L38.6312 30.5625C40.5282 28.3074 41.5676 25.4701 41.5676 22.5162C41.5676 15.6149 35.9527 10 29.0514 10C22.15 10 16.5352 15.6149 16.5352 22.5162C16.5352 29.4176 22.15 35.0325 29.0514 35.0325C31.6423 35.0325 34.1112 34.251 36.2221 32.7676L43.6562 40.4994C43.9669 40.8221 44.3849 41 44.8327 41C45.2567 41 45.6588 40.8384 45.9641 40.5445C46.6128 39.9203 46.6334 38.8853 46.0093 38.2361ZM29.0514 13.2651C34.1526 13.2651 38.3025 17.4151 38.3025 22.5162C38.3025 27.6174 34.1526 31.7674 29.0514 31.7674C23.9502 31.7674 19.8003 27.6174 19.8003 22.5162C19.8003 17.4151 23.9502 13.2651 29.0514 13.2651Z" fill="white"/>
</g>
<defs>
<clipPath id="clip0">
<rect width="67" height="67" fill="white"/>
</clipPath>
</defs>
</svg>
