<svg width="182" height="166" viewBox="0 0 182 166" fill="none" xmlns="http://www.w3.org/2000/svg">
<path d="M176.668 155.337H162.448V128.323H167.78C170.725 128.323 173.112 125.934 173.112 122.991V51.5429C173.112 49.1893 171.569 47.1148 169.316 46.4372L163.514 44.6917V5.33191C163.514 3.62677 162.698 2.023 161.319 1.02047C159.939 0.0165448 158.163 -0.265331 156.54 0.259541L88.7811 22.2014L15.7559 0.226216C14.141 -0.259777 12.3914 0.0470927 11.039 1.0524C9.68513 2.0591 8.88811 3.64621 8.88811 5.33191V122.991C8.88811 125.934 11.275 128.323 14.2201 128.323H19.5522V155.337H5.33203C2.38692 155.337 0 157.725 0 160.669C0 163.614 2.38692 166.001 5.33203 166.001H176.668C179.613 166.001 182 163.614 182 160.669C182 157.725 179.613 155.337 176.668 155.337ZM151.784 155.337H141.12V128.323H151.784V155.337ZM120.858 128.323H130.456V155.337H120.858V128.323ZM152.85 12.6635V41.4814L106.723 27.6015L152.85 12.6635ZM19.5522 106.995H44.4336C47.3787 106.995 49.7656 104.608 49.7656 101.663C49.7656 98.7174 47.3787 96.3305 44.4336 96.3305H19.5522V85.6665H44.4336C47.3787 85.6665 49.7656 83.2795 49.7656 80.3344C49.7656 77.3907 47.3787 75.0024 44.4336 75.0024H19.5522V64.3383H44.4336C47.3787 64.3383 49.7656 61.9514 49.7656 59.0077C49.7656 56.0626 47.3787 53.6757 44.4336 53.6757H19.5522V42.9935C19.6702 43.0019 19.7868 43.0116 19.9076 43.0116H44.4197C47.3634 43.0116 49.7504 40.6233 49.7504 37.6796C49.7504 34.7345 47.3634 32.3475 44.4197 32.3475H19.9076C19.7868 32.3475 19.6702 32.3573 19.5522 32.3656V12.5052L162.448 55.5058V75.0038H137.565C134.621 75.0038 132.234 77.3907 132.234 80.3358C132.234 83.2795 134.621 85.6678 137.565 85.6678H162.448V96.3305H137.565C134.621 96.3305 132.234 98.7188 132.234 101.663C132.234 104.608 134.621 106.995 137.565 106.995H162.448V117.659H120.858V80.3358C120.858 77.3907 118.471 75.0038 115.526 75.0038H67.5391C64.5939 75.0038 62.207 77.3907 62.207 80.3358V117.659H19.5522V106.995ZM62.207 128.323V155.337H51.543V128.323H62.207ZM30.2162 128.323H40.8803V155.337H30.2162V128.323ZM96.8652 155.337V132.944C96.8652 129.999 94.4769 127.612 91.5332 127.612C88.5881 127.612 86.2012 129.999 86.2012 132.944V155.337H72.8711V85.6665H110.195V155.337H96.8652Z" fill="white"/>
</svg>
