<svg width="64" height="64" viewBox="0 0 64 64" fill="none" xmlns="http://www.w3.org/2000/svg">
<g clip-path="url(#clip0)">
<path d="M63.5215 56.9683C61.8022 50.3154 55.7944 45.6689 48.9121 45.6689C48.3721 45.6689 47.835 45.6973 47.3032 45.7539L50.8286 38.5439L50.834 38.5469C51.0107 38.6333 51.1973 38.6738 51.3818 38.6738C51.8442 38.6738 52.2891 38.416 52.5059 37.9722C52.8086 37.352 52.5513 36.6035 51.9312 36.3008L47.2251 34.0015L48.5737 31.2432C48.7197 30.9453 48.7407 30.6015 48.6333 30.2881C48.5254 29.9746 48.2979 29.7163 47.9995 29.5708L47.7002 29.4248L56.3032 11.8266C56.5117 11.8242 56.7217 11.8135 56.9321 11.793C58.9175 11.6006 60.6953 10.3681 61.5713 8.57664L61.7231 8.26561C61.7998 8.28025 61.877 8.28709 61.9531 8.28709C62.416 8.28709 62.8608 8.02928 63.0771 7.58543C63.3804 6.96531 63.123 6.21678 62.5029 5.91356L51.4248 0.501933C50.8042 0.199198 50.0557 0.456522 49.7529 1.07664C49.5005 1.59324 49.6367 2.19871 50.0479 2.56199L49.8965 2.87205C49.02 4.66404 49.1392 6.82322 50.2075 8.50779C50.3198 8.68455 50.4385 8.85496 50.5635 9.01951L41.959 26.6201L41.6592 26.4731C41.0391 26.1704 40.2905 26.4272 39.9873 27.0473L38.6382 29.8066L33.9307 27.5073C33.3101 27.2046 32.562 27.4619 32.2588 28.082C31.9561 28.7021 32.2129 29.4507 32.8335 29.7539L32.8374 29.7558L27.979 39.6914C25.4194 40.041 22.9629 40.9321 20.7671 42.3188C18.2007 43.9399 16.085 46.1709 14.6064 48.8066C14.2485 48.7778 13.8921 48.7637 13.5391 48.7637C8.20898 48.7637 3.35693 51.9062 1.17725 56.7695C0.395996 58.5132 0 60.373 0 62.2969C0 62.6284 0.131836 62.9463 0.366211 63.1807C0.600586 63.415 0.918457 63.5469 1.25 63.5469H62.6616C63.2983 63.5469 63.8335 63.0684 63.9038 62.4355C63.9678 61.8628 64 61.2959 64 60.7495C64 59.4692 63.8389 58.1973 63.5215 56.9683ZM59.3252 7.47801C58.8276 8.4951 57.8184 9.19481 56.6909 9.30418C54.938 9.47459 53.2622 8.65574 52.3188 7.16893C51.7124 6.21287 51.6445 4.98729 52.1421 3.9702L52.2744 3.69969L59.457 7.20848L59.3252 7.47801ZM52.4912 10.769C52.8862 11.0127 53.3042 11.2173 53.7388 11.3794L45.4541 28.3271L44.2056 27.7173L52.4912 10.769ZM41.6846 29.2681L45.7788 31.2681L44.9785 32.9043L40.8848 30.9043L41.6846 29.2681ZM48.5825 37.4468L44.3823 46.0356C41.0298 42.0361 36.0752 39.6416 30.8423 39.5278L35.0845 30.853L48.5825 37.4468ZM61.4961 61.0469H2.56934C2.66602 60.1855 2.86328 59.3442 3.15918 58.5308H12.876C13.5659 58.5308 14.126 57.9712 14.126 57.2808C14.126 56.5903 13.5659 56.0308 12.876 56.0308H4.45117C6.78125 52.6626 10.8726 50.7642 15.1343 51.3804C15.668 51.457 16.1904 51.1836 16.4312 50.7012C19.103 45.3491 24.4751 42.0239 30.4517 42.0239C35.4497 42.0239 40.1904 44.4438 43.1333 48.4966C43.4619 48.9487 44.0503 49.1279 44.5752 48.9355C44.8516 48.8345 45.1299 48.7432 45.4116 48.6616C45.4209 48.6592 45.4307 48.6562 45.4399 48.6538C46.5635 48.332 47.7275 48.1689 48.9121 48.1689C54.0986 48.1689 58.6895 51.3306 60.5864 56.0312H29.0801C28.3896 56.0312 27.8301 56.5908 27.8301 57.2812C27.8301 57.9712 28.3896 58.5312 29.0801 58.5312H61.3047C61.4346 59.2603 61.5 60.0029 61.5 60.7495C61.5 60.8477 61.4985 60.9468 61.4961 61.0469Z" fill="white" stroke="white" stroke-width="0.5"/>
<path d="M40.1514 51.9097C39.7642 51.9097 39.3833 51.731 39.1387 51.394C37.1211 48.6157 33.8735 46.957 30.4512 46.957C29.7607 46.957 29.2012 46.3975 29.2012 45.707C29.2012 45.0166 29.7607 44.457 30.4512 44.457C34.6719 44.457 38.6753 46.501 41.1616 49.9248C41.5674 50.4839 41.4434 51.2651 40.8848 51.6709C40.6626 51.832 40.4058 51.9097 40.1514 51.9097Z" fill="white" stroke="white" stroke-width="0.5"/>
<path d="M24.8438 58.5312C24.7627 58.5312 24.6802 58.5224 24.6001 58.5058C24.52 58.4897 24.4414 58.4657 24.3662 58.4345C24.29 58.4032 24.2173 58.3647 24.1499 58.3197C24.0811 58.2748 24.0176 58.2221 23.96 58.165C23.7275 57.932 23.5938 57.6098 23.5938 57.2812C23.5938 57.1996 23.6025 57.1171 23.6187 57.036C23.6348 56.9569 23.6587 56.8783 23.6899 56.8022C23.7212 56.727 23.7598 56.6547 23.8052 56.5873C23.8501 56.5185 23.9023 56.4545 23.96 56.3969C24.0176 56.3398 24.0811 56.287 24.1499 56.2406C24.2173 56.1957 24.29 56.1571 24.3662 56.1259C24.4414 56.0956 24.52 56.0707 24.6001 56.0546C25.0063 55.9735 25.4375 56.1073 25.7275 56.3969C25.7852 56.4545 25.8374 56.5185 25.8823 56.5873C25.9277 56.6547 25.9663 56.727 25.9976 56.8022C26.0288 56.8783 26.0537 56.9569 26.0698 57.036C26.0864 57.1171 26.0938 57.1996 26.0938 57.2812C26.0938 57.6098 25.96 57.932 25.7275 58.165C25.4951 58.3974 25.1724 58.5312 24.8438 58.5312Z" fill="white" stroke="white" stroke-width="0.5"/>
</g>
<defs>
<clipPath id="clip0">
<rect width="64" height="64" fill="white"/>
</clipPath>
</defs>
</svg>
