<svg width="73" height="73" viewBox="0 0 73 73" fill="none" xmlns="http://www.w3.org/2000/svg">
<path d="M30.7969 14.2578C30.7969 18.3498 25.9653 21.6719 22.8125 21.6719C19.6679 21.6719 17.1094 18.3458 17.1094 14.2578C17.1094 10.1698 19.6679 6.84375 22.8125 6.84375C25.9653 6.84375 30.7969 10.1658 30.7969 14.2578ZM19.3906 14.2578C19.3906 16.9919 20.9896 19.3906 22.8125 19.3906C24.9071 19.3906 28.5156 16.8543 28.5156 14.2578C28.5156 11.6613 24.9071 9.125 22.8125 9.125C20.9896 9.125 19.3906 11.5237 19.3906 14.2578Z" fill="white"/>
<path d="M42.2031 14.2578C42.2031 10.1658 47.0347 6.84375 50.1875 6.84375C53.3321 6.84375 55.8906 10.1698 55.8906 14.2578C55.8906 18.3458 53.3321 21.6719 50.1875 21.6719C47.0347 21.6719 42.2031 18.3498 42.2031 14.2578ZM53.6094 14.2578C53.6094 11.5237 52.0104 9.125 50.1875 9.125C48.0929 9.125 44.4844 11.6613 44.4844 14.2578C44.4844 16.8543 48.0929 19.3906 50.1875 19.3906C52.0104 19.3906 53.6094 16.9919 53.6094 14.2578Z" fill="white"/>
<path d="M42.2031 36.5C42.2031 32.0923 47.0347 28.5156 50.1875 28.5156C53.2792 28.5156 55.8906 32.172 55.8906 36.5C55.8906 40.828 53.2792 44.4844 50.1875 44.4844C47.0347 44.4844 42.2031 40.9077 42.2031 36.5ZM53.6094 36.5C53.6094 33.2881 51.7701 30.7969 50.1875 30.7969C48.0421 30.7969 44.4844 33.5593 44.4844 36.5C44.4844 39.4407 48.0421 42.2031 50.1875 42.2031C51.7701 42.2031 53.6094 39.7119 53.6094 36.5Z" fill="white"/>
<path d="M30.7969 58.7422C30.7969 62.8342 25.9653 66.1562 22.8125 66.1562C19.6679 66.1562 17.1094 62.8302 17.1094 58.7422C17.1094 54.6542 19.6679 51.3281 22.8125 51.3281C25.9653 51.3281 30.7969 54.6502 30.7969 58.7422ZM19.3906 58.7422C19.3906 61.4763 20.9896 63.875 22.8125 63.875C24.9071 63.875 28.5156 61.3387 28.5156 58.7422C28.5156 56.1457 24.9071 53.6094 22.8125 53.6094C20.9896 53.6094 19.3906 56.0081 19.3906 58.7422Z" fill="white"/>
<path d="M30.7969 36.5C30.7969 40.9077 25.9653 44.4844 22.8125 44.4844C19.7208 44.4844 17.1094 40.828 17.1094 36.5C17.1094 32.172 19.7208 28.5156 22.8125 28.5156C25.9653 28.5156 30.7969 32.0923 30.7969 36.5ZM19.3906 36.5C19.3906 39.7119 21.2299 42.2031 22.8125 42.2031C24.9579 42.2031 28.5156 39.4407 28.5156 36.5C28.5156 33.5593 24.9579 30.7969 22.8125 30.7969C21.2299 30.7969 19.3906 33.2881 19.3906 36.5Z" fill="white"/>
<path d="M50.1875 51.3281C53.3321 51.3281 55.8906 54.6542 55.8906 58.7422C55.8906 62.8302 53.3321 66.1562 50.1875 66.1562C47.0347 66.1562 42.2031 62.8342 42.2031 58.7422C42.2031 54.6502 47.0347 51.3281 50.1875 51.3281ZM50.1875 63.875C52.0104 63.875 53.6094 61.4763 53.6094 58.7422C53.6094 56.0081 52.0104 53.6094 50.1875 53.6094C48.0929 53.6094 44.4844 56.1457 44.4844 58.7422C44.4844 61.3387 48.0929 63.875 50.1875 63.875Z" fill="white"/>
<path d="M32.1103 17.9363C32.4212 17.3492 32.8844 16.8566 33.4515 16.5104C34.0185 16.1641 34.6683 15.977 35.3326 15.9687L37.667 15.9687C38.3313 15.977 38.9811 16.1641 39.5482 16.5104C40.1152 16.8566 40.5784 17.3492 40.8893 17.9363C42.1953 20.3306 44.5294 21.748 46.2566 22.5149C46.7457 22.743 47.1602 23.1049 47.4521 23.5587C47.744 24.0126 47.9014 24.5398 47.9061 25.0794C47.9109 25.619 47.7627 26.1489 47.4787 26.6078C47.1948 27.0666 46.7867 27.4357 46.3017 27.6723C44.6415 28.4448 42.3797 29.8733 41.0319 32.2918C40.7183 32.8688 40.2564 33.3516 39.6938 33.6903C39.1313 34.0291 38.4885 34.2115 37.8318 34.2187L35.1673 34.2187C34.5108 34.2114 33.8682 34.029 33.3057 33.6903C32.7433 33.3516 32.2814 32.869 31.9677 32.2922C30.62 29.8734 28.3581 28.4449 26.6973 27.6718C26.2125 27.4352 25.8046 27.0661 25.5207 26.6073C25.2369 26.1485 25.0888 25.6187 25.0935 25.0793C25.0982 24.5398 25.2556 24.0127 25.5474 23.5589C25.8392 23.1051 26.2535 22.7432 26.7424 22.5151C28.4702 21.7482 30.8043 20.3308 32.1103 17.9363ZM38.8861 19.029C38.7729 18.8006 38.5996 18.6073 38.3848 18.47C38.17 18.3327 37.9219 18.2566 37.667 18.2499L35.3322 18.2499C35.0773 18.2566 34.8291 18.3327 34.6143 18.47C34.3996 18.6073 34.2263 18.8006 34.1131 19.029C33.8185 19.5576 33.4795 20.0602 33.0997 20.5312L39.8995 20.5312C39.5197 20.0602 39.1807 19.5577 38.8861 19.0292L38.8861 19.029ZM33.9604 31.1818C34.0748 31.4049 34.2474 31.5929 34.4598 31.7259C34.6723 31.8589 34.9167 31.932 35.1673 31.9375L37.8318 31.9375C38.0825 31.9321 38.3269 31.859 38.5394 31.7259C38.7519 31.5929 38.9244 31.4049 39.0388 31.1818C39.3428 30.6462 39.6897 30.136 40.0759 29.6562L32.923 29.6562C33.3093 30.136 33.6562 30.6462 33.9604 31.1818ZM27.6676 24.5999C27.3217 24.7547 27.3167 25.4431 27.6603 25.6035C28.6982 26.0878 29.6814 26.6817 30.5931 27.375L42.4059 27.375C43.3175 26.682 44.3005 26.0885 45.3383 25.6045C45.4261 25.553 45.4987 25.4792 45.549 25.3907C45.5993 25.3022 45.6253 25.2021 45.6246 25.1003C45.6239 24.9985 45.5963 24.8987 45.5448 24.8109C45.4933 24.7232 45.4195 24.6505 45.331 24.6003C44.2232 24.1089 43.1738 23.4948 42.2027 22.7697L42.2027 22.8125L30.7965 22.8125L30.7965 22.7697C29.8252 23.4949 28.7757 24.1089 27.6676 24.6003L27.6676 24.5999Z" fill="white"/>
<path d="M50.1875 2.28125C55.8479 2.28125 60.4531 7.65416 60.4531 14.2578C60.4531 18.8393 58.237 22.9579 54.75 24.969L54.75 25.277C58.2365 27.3817 60.4531 31.7002 60.4531 36.5C60.4531 41.2997 58.2365 45.6183 54.75 47.723L54.75 48.031C58.237 50.0421 60.4531 54.1607 60.4531 58.7422C60.4531 65.3458 55.8479 70.7187 50.1875 70.7187C47.3322 70.7187 44.2793 69.3828 41.905 67.2969L31.0952 67.2969C28.7207 69.3828 25.6679 70.7187 22.8125 70.7187C17.1521 70.7187 12.5469 65.3458 12.5469 58.7422C12.5469 54.1607 14.763 50.0421 18.25 48.031L18.25 47.723C14.7635 45.6183 12.5469 41.2997 12.5469 36.5C12.5469 31.7002 14.7635 27.3817 18.25 25.277L18.25 24.969C14.763 22.9579 12.5469 18.8393 12.5469 14.2578C12.5469 7.65416 17.1522 2.28125 22.8125 2.28125C25.6334 2.28125 28.6958 3.62248 31.0789 5.70312L41.9212 5.70312C44.3043 3.62248 47.3666 2.28125 50.1875 2.28125ZM34.1224 9.4776C34.2349 9.70802 34.4083 9.90325 34.6238 10.0422C34.8394 10.1811 35.0888 10.2583 35.3451 10.2656L37.6549 10.2656C37.9112 10.2584 38.1606 10.1812 38.3762 10.0424C38.5918 9.90361 38.7653 9.70849 38.8779 9.47816C39.1522 8.95811 39.4643 8.45884 39.8115 7.98437L33.1888 7.98437C33.536 8.45866 33.848 8.95773 34.1224 9.4776ZM38.7322 63.2362C38.6509 63.0707 38.5739 62.9034 38.5011 62.7344L34.4989 62.7344C34.4259 62.9032 34.3489 63.0706 34.2678 63.2367C33.9579 63.8596 33.5951 64.4548 33.1832 65.0156L39.8171 65.0156C39.4052 64.4546 39.0423 63.8593 38.7322 63.2362ZM14.8281 14.2578C14.8281 18.245 16.8131 21.776 19.8852 23.2545C20.0788 23.3476 20.2421 23.4935 20.3563 23.6753C20.4706 23.8572 20.5313 24.0676 20.5313 24.2823L20.5313 25.9481C20.5312 26.1589 20.4728 26.3657 20.3624 26.5453C20.2519 26.7249 20.0939 26.8704 19.9058 26.9657C16.8214 28.5279 14.8281 32.2706 14.8281 36.5C14.8281 40.7294 16.8214 44.4721 19.9058 46.0343C20.0939 46.1296 20.2519 46.2751 20.3624 46.4547C20.4728 46.6343 20.5312 46.8411 20.5313 47.0519L20.5313 48.7177C20.5312 48.9324 20.4705 49.1427 20.3563 49.3245C20.242 49.5063 20.0787 49.6521 19.8852 49.7452C16.8131 51.224 14.8281 54.755 14.8281 58.7422C14.8281 64.0889 18.4098 68.4375 22.8125 68.4375C26.3802 68.4375 30.5117 65.7118 32.2194 62.2325C32.3804 61.9046 32.521 61.567 32.6404 61.2218C32.7178 60.9974 32.8633 60.8028 33.0565 60.665C33.2498 60.5272 33.4812 60.4531 33.7186 60.4531L39.2814 60.4531C39.5188 60.4531 39.7502 60.5272 39.9435 60.665C40.1367 60.8028 40.2822 60.9974 40.3596 61.2218C40.4789 61.5669 40.6195 61.9043 40.7806 62.2321C42.4883 65.7118 46.6198 68.4375 50.1875 68.4375C54.5902 68.4375 58.1719 64.0889 58.1719 58.7422C58.1719 54.755 56.1869 51.224 53.1148 49.7455C52.9212 49.6524 52.7579 49.5065 52.6437 49.3247C52.5294 49.1428 52.4687 48.9324 52.4688 48.7177L52.4688 47.0519C52.4688 46.8411 52.5272 46.6343 52.6376 46.4547C52.7481 46.2751 52.9061 46.1296 53.0942 46.0343C56.1786 44.4721 58.1719 40.7294 58.1719 36.5C58.1719 32.2706 56.1786 28.5279 53.0942 26.9657C52.9061 26.8704 52.7481 26.7249 52.6376 26.5453C52.5272 26.3657 52.4688 26.1589 52.4688 25.9481L52.4688 24.2823C52.4688 24.0676 52.5295 23.8573 52.6437 23.6755C52.758 23.4937 52.9213 23.3479 53.1148 23.2548C56.1869 21.776 58.1719 18.245 58.1719 14.2578C58.1719 8.91113 54.5902 4.5625 50.1875 4.5625C46.7384 4.5625 42.6577 7.18736 40.8971 10.5391C40.5918 11.1381 40.1281 11.642 39.5565 11.9959C38.9849 12.3499 38.3272 12.5405 37.6549 12.5469L35.3451 12.5469C34.6727 12.5405 34.0149 12.3499 33.4432 11.9958C32.8716 11.6417 32.4079 11.1377 32.1026 10.5385C30.3423 7.18736 26.2616 4.5625 22.8125 4.5625C18.4098 4.5625 14.8281 8.91113 14.8281 14.2578Z" fill="white"/>
<path d="M31.9671 40.7085C32.2806 40.1315 32.7424 39.6488 33.3049 39.31C33.8674 38.9712 34.5101 38.7887 35.1667 38.7814L37.8306 38.7814C38.4953 38.789 39.1455 38.9769 39.7118 39.3251C40.2781 39.6733 40.7392 40.1687 41.0459 40.7585C42.0767 42.6655 43.8312 44.1982 46.2611 45.3143C46.7529 45.5443 47.1688 45.9099 47.46 46.368C47.7513 46.8262 47.9057 47.3579 47.9053 47.9008C47.9048 48.4437 47.7494 48.9752 47.4574 49.4328C47.1654 49.8905 46.7489 50.2553 46.2567 50.4845C44.5289 51.252 42.1948 52.6688 40.8882 55.0637C40.5773 55.6508 40.1141 56.1434 39.5471 56.4896C38.98 56.8359 38.3302 57.023 37.6659 57.0312L35.3311 57.0312C34.6667 57.023 34.0169 56.8359 33.4499 56.4896C32.8829 56.1434 32.4196 55.6508 32.1088 55.0637C30.8028 52.6694 28.4686 51.252 26.7414 50.4851C26.2524 50.257 25.8379 49.8951 25.546 49.4413C25.2541 48.9874 25.0966 48.4602 25.0919 47.9206C25.0872 47.381 25.2354 46.8511 25.5194 46.3922C25.8033 45.9334 26.2114 45.5643 26.6964 45.3277C28.3577 44.5558 30.6193 43.1267 31.9671 40.7085ZM39.0303 41.8278C38.9179 41.6039 38.7471 41.4146 38.5359 41.2799C38.3247 41.1452 38.081 41.0701 37.8306 41.0626L35.1667 41.0626C34.9161 41.0681 34.6716 41.1412 34.4591 41.2742C34.2466 41.4072 34.0741 41.5952 33.9597 41.8183C33.6557 42.3539 33.3088 42.8641 32.9226 43.3439L40.0246 43.3439C39.6528 42.8662 39.3203 42.3592 39.0303 41.8278ZM34.1124 53.971C34.2256 54.1994 34.3989 54.3927 34.6137 54.53C34.8285 54.6673 35.0767 54.7434 35.3315 54.7501L37.6664 54.7501C37.9212 54.7434 38.1694 54.6673 38.3842 54.53C38.599 54.3927 38.7723 54.1994 38.8854 53.971C39.1801 53.4425 39.5192 52.94 39.899 52.4689L33.0991 52.4689C33.4789 52.9399 33.8179 53.4424 34.1124 53.971ZM27.6602 47.3957C27.3149 47.5578 27.3199 48.2456 27.6675 48.3998C28.7753 48.8913 29.8247 49.5053 30.7958 50.2304L30.7958 50.1876L42.2021 50.1876L42.2021 50.2304C43.1733 49.505 44.2228 48.8907 45.3309 48.3991C45.4224 48.3517 45.4985 48.2793 45.5504 48.1903C45.6023 48.1013 45.6278 47.9994 45.6239 47.8964C45.6254 47.7903 45.5966 47.686 45.5407 47.5958C45.4848 47.5056 45.4043 47.4332 45.3087 47.3873C44.2562 46.9104 43.2592 46.3195 42.3356 45.6251L30.5926 45.6251C29.681 46.3181 28.698 46.9116 27.6602 47.3957Z" fill="white"/>
</svg>
