<svg width="62" height="62" viewBox="0 0 62 62" fill="none" xmlns="http://www.w3.org/2000/svg">
<g clip-path="url(#clip0)">
<path d="M54.1691 6.05469H48.4091C47.9072 6.05469 47.5009 6.46101 47.5009 6.96289C47.5009 7.46477 47.9072 7.87109 48.4091 7.87109H54.1289V21.1914H23.0078V7.87109H45.0185C45.5204 7.87109 45.9267 7.46477 45.9267 6.96289C45.9267 6.46101 45.5204 6.05469 45.0185 6.05469H7.83089C6.85126 6.05469 6.05469 6.85126 6.05469 7.83089V54.1691C6.05469 55.1487 6.85126 55.9453 7.83089 55.9453H54.1691C55.1487 55.9453 55.9453 55.1487 55.9453 54.1691V7.83089C55.9453 6.85126 55.1487 6.05469 54.1691 6.05469ZM38.9922 23.0078V38.9922H23.0078V23.0078H38.9922ZM7.87109 40.8086H14.5312C15.0331 40.8086 15.4395 40.4023 15.4395 39.9004C15.4395 39.3985 15.0331 38.9922 14.5312 38.9922H7.87109V7.87109H21.1914V38.9922H17.9219C17.42 38.9922 17.0137 39.3985 17.0137 39.9004C17.0137 40.4023 17.42 40.8086 17.9219 40.8086H38.9922V54.1289H7.87109V40.8086ZM40.8086 54.1289V23.0078H54.1289V54.1289H40.8086Z" fill="white"/>
<path d="M60.0223 0H1.97771C0.88739 0 0 0.88739 0 1.97771V60.0223C0 61.1126 0.88739 62 1.97771 62H60.0223C61.1126 62 62 61.1126 62 60.0223V1.97771C62 0.88739 61.1126 0 60.0223 0V0ZM60.1836 60.0223C60.1836 60.1112 60.1112 60.1836 60.0223 60.1836H1.97771C1.88878 60.1836 1.81641 60.1112 1.81641 60.0223V1.97771C1.81641 1.88878 1.88878 1.81641 1.97771 1.81641H60.0223C60.1112 1.81641 60.1836 1.88878 60.1836 1.97771V60.0223Z" fill="white"/>
</g>
<defs>
<clipPath id="clip0">
<rect width="62" height="62" fill="white"/>
</clipPath>
</defs>
</svg>
