<svg width="62" height="62" viewBox="0 0 62 62" fill="none" xmlns="http://www.w3.org/2000/svg">
<g clip-path="url(#clip0)">
<path d="M40.4003 18.3574H40.4003V18.3555C40.4003 17.9045 40.2798 17.3238 40.0711 16.6533C39.8618 15.9812 39.5618 15.2124 39.1982 14.3828C38.4708 12.7237 37.486 10.8161 36.4554 8.94495C34.3939 5.20239 32.145 1.59937 31.3943 0.410768L31.3944 0.410681L31.3911 0.406027C31.1707 0.0975769 30.8148 -0.0853516 30.4358 -0.0853516C30.0566 -0.0853516 29.701 0.097726 29.4805 0.405987L29.4803 0.40589L29.4772 0.410781C29.0172 1.1394 26.7686 4.72393 24.6348 8.57214C23.568 10.4961 22.5289 12.4876 21.7562 14.2219C21.3699 15.089 21.0496 15.8933 20.8256 16.5937C20.6022 17.2923 20.4723 17.8947 20.4722 18.3555L20.4723 18.3574C20.5737 23.7636 25.0296 28.0687 30.4359 27.984C35.8425 28.0691 40.299 23.7639 40.4003 18.3574ZM30.4379 25.7173L30.4379 25.7172L30.4338 25.7173C26.2785 25.8018 22.8378 22.5093 22.7392 18.3544C22.7394 18.1136 22.8057 17.7774 22.9334 17.3572C23.0608 16.9381 23.2469 16.4423 23.4817 15.8856C23.9511 14.7725 24.6123 13.4218 25.3783 11.9647C26.8842 9.10051 28.792 5.83114 30.4359 3.15906C32.0797 5.83115 33.9879 9.10051 35.494 11.9647C36.2601 13.4218 36.9215 14.7725 37.391 15.8856C37.6258 16.4423 37.812 16.9381 37.9394 17.3572C38.0671 17.7775 38.1335 18.1137 38.1337 18.3544C38.0349 22.5096 34.5936 25.8021 30.4379 25.7173Z" fill="white" stroke="white" stroke-width="0.2"/>
<path d="M56.9345 36.2503C59.7014 36.2017 61.9654 34.0119 62.0952 31.2361L62.0952 31.2358C62.1566 29.832 61.6353 28.465 60.6545 27.4586C59.5967 26.351 58.1333 25.7222 56.6017 25.7174H56.6014L40.799 25.7174L40.798 25.7174C39.9593 25.7258 39.1561 26.0567 38.5552 26.6417C33.9892 30.9202 26.8863 30.9206 22.3198 26.6428C21.7188 26.0573 20.9152 25.7259 20.076 25.7174V25.7174H20.075H5.16572H5.16567V25.8174L56.9345 36.2503ZM56.9345 36.2503V56.8188V56.8189C56.931 59.7263 54.5751 62.0823 51.6677 62.0857H51.6676H10.3326H10.3325C7.42509 62.0823 5.06912 59.7263 5.06567 56.8189V56.8188V36.2223C3.65595 36.1401 2.32758 35.5294 1.34682 34.5103L56.9345 36.2503ZM54.6678 56.7187L54.6677 56.8186C54.6659 58.4748 53.3237 59.817 51.6675 59.8188H10.3327C8.67647 59.817 7.33422 58.4748 7.33246 56.8186V53.4356C10.6111 52.2529 14.0791 51.6822 17.5642 51.7518L17.5663 51.7518C20.0357 51.7474 22.4958 52.0525 24.8892 52.6599L24.8902 52.6602C28.2426 53.475 31.6844 53.8642 35.1341 53.8185C38.14 53.8237 41.1272 53.3474 43.9824 52.4075C47.4395 51.3125 51.0419 50.7465 54.6678 50.7281L54.6678 56.7187ZM43.3474 50.2314L43.3459 50.2319C40.6976 51.1118 37.9244 51.5575 35.1338 51.5519L35.1321 51.5519C31.8511 51.6001 28.5774 51.2295 25.3902 50.4493C22.8331 49.8017 20.2047 49.4777 17.5668 49.4851C14.0941 49.437 10.637 49.9569 7.33258 51.0239V45.1686C10.6112 43.986 14.0793 43.4153 17.5643 43.4848L17.5665 43.4848C20.0358 43.4805 22.4959 43.7856 24.8894 44.393L24.8903 44.3933C28.2427 45.2081 31.6845 45.5973 35.1342 45.5516C38.1401 45.5568 41.1273 45.0804 43.9826 44.1406C47.4396 43.0455 51.042 42.4795 54.6679 42.4612V48.4619C50.8274 48.4836 47.0116 49.0799 43.3474 50.2314ZM43.3474 41.9643L43.3459 41.9649C40.6976 42.8448 37.9244 43.2905 35.1338 43.2848L35.1321 43.2848C31.8511 43.333 28.5774 42.9625 25.3902 42.1823C22.8331 41.5347 20.2047 41.2107 17.5669 41.218C14.0941 41.1699 10.637 41.6898 7.33258 42.7568V36.2512H54.6678V40.1948C50.8273 40.2165 47.0116 40.8129 43.3474 41.9643ZM59.8307 31.1287L59.8306 31.1287V31.1306C59.7558 32.7299 58.4359 33.9874 56.8347 33.9843H56.8345L5.39918 33.9843C5.3991 33.9843 5.39902 33.9843 5.39894 33.9843C4.48699 33.9806 3.61598 33.6056 2.98657 32.9456L2.98658 32.9456L2.98541 32.9444C2.43443 32.3856 2.13918 31.6239 2.16944 30.8399C2.20625 30.0977 2.51524 29.3951 3.03752 28.8665C3.60249 28.3027 4.36758 27.9855 5.16571 27.9842H20.0732C20.3305 27.9929 20.5747 28.1 20.7554 28.2834L20.7554 28.2835L20.7582 28.2861C26.1997 33.3952 34.6752 33.3949 40.1165 28.2856L40.1165 28.2857L40.1192 28.2829C40.2997 28.0998 40.5436 27.9929 40.8005 27.9843H56.601C57.513 27.988 58.384 28.363 59.0134 29.023L59.0146 29.0242C59.5657 29.5828 59.8611 30.3445 59.8307 31.1287Z" fill="white" stroke="white" stroke-width="0.2"/>
</g>
<defs>
<clipPath id="clip0">
<rect width="62" height="62" fill="white"/>
</clipPath>
</defs>
</svg>
