<svg width="61" height="61" viewBox="0 0 61 61" fill="none" xmlns="http://www.w3.org/2000/svg">
<g clip-path="url(#clip0)">
<path d="M30.5927 61.0002C30.3892 61.0002 30.1847 60.9361 30.013 60.8085L0.754964 39.1213C0.501932 38.9341 0.355909 38.6353 0.361482 38.3204C0.366498 38.0055 0.524782 37.7124 0.784503 37.5351L4.22774 35.1759C4.6725 34.8722 5.27777 34.9864 5.58208 35.429C5.88527 35.8732 5.77269 36.479 5.32849 36.7833L3.01274 38.37L30.5927 58.8132L58.196 38.3533L55.9148 36.7237C55.4779 36.4104 55.3759 35.8024 55.6885 35.3654C56.0012 34.9279 56.6104 34.8259 57.0468 35.1386L60.417 37.5463C60.6706 37.7269 60.8222 38.0189 60.825 38.3299C60.8278 38.642 60.6812 38.9357 60.4309 39.1213L31.1723 60.8079C31.0012 60.9361 30.7967 61.0002 30.5927 61.0002Z" fill="white"/>
<path d="M30.5927 56.0901C30.3892 56.0901 30.1847 56.026 30.013 55.8984L0.754964 34.2107C0.501932 34.0223 0.355909 33.7247 0.361482 33.4092C0.366498 33.0943 0.524782 32.8017 0.784503 32.6239L3.97471 30.4392C4.42114 30.136 5.02474 30.2497 5.32905 30.6922C5.6328 31.1364 5.51966 31.7422 5.07601 32.0471L3.01274 33.4594L30.5927 53.9031L58.1966 33.4421L56.2336 32.0398C55.7961 31.7277 55.6941 31.1191 56.0068 30.6816C56.3194 30.2447 56.9292 30.1427 57.3656 30.4553L60.4181 32.6356C60.6717 32.8162 60.8233 33.1077 60.8261 33.4193C60.8289 33.7303 60.6823 34.0251 60.4321 34.2107L31.1734 55.8984C31.0012 56.026 30.7967 56.0901 30.5927 56.0901Z" fill="white"/>
<path d="M49.2353 21.9085C49.0396 21.9085 48.8412 21.8499 48.6701 21.7268L38.8922 14.7433C38.4546 14.4312 38.3532 13.8226 38.6659 13.3851C38.9785 12.9476 39.5877 12.8461 40.0241 13.1588L49.8021 20.1423C50.2396 20.4544 50.3416 21.063 50.0289 21.5005C49.8389 21.7669 49.5396 21.9085 49.2353 21.9085Z" fill="white"/>
<path d="M20.6315 43.7956C20.4303 43.7956 20.2275 43.7338 20.0524 43.6045L10.4495 36.4867C10.0176 36.1662 9.92727 35.5565 10.2466 35.1235C10.5682 34.6915 11.1768 34.6018 11.6099 34.9211L21.2134 42.0389C21.6453 42.3594 21.7351 42.9691 21.4157 43.4016C21.2245 43.6597 20.9291 43.7956 20.6315 43.7956Z" fill="white"/>
<path d="M24.8324 26.1168C24.746 26.1168 24.6585 26.1057 24.5727 26.0817L11.3448 22.4233C10.9797 22.3225 10.7061 22.0193 10.6442 21.6453C10.5818 21.2713 10.7417 20.8946 11.0538 20.6805L30.6583 7.25368C30.9966 7.02238 31.4419 7.0274 31.7746 7.26538L40.0254 13.1587C40.2768 13.3387 40.4284 13.6257 40.4334 13.9351C40.4384 14.2444 40.2963 14.537 40.0511 14.7248L25.4248 25.9162C25.2526 26.0472 25.0436 26.1168 24.8324 26.1168ZM13.8835 21.1041L24.6256 24.0747L37.8217 13.978L31.1972 9.24672L13.8835 21.1041Z" fill="white"/>
<path d="M11.0295 36.6784C10.8261 36.6784 10.6215 36.6143 10.4499 36.4867L0.754964 29.3003C0.501932 29.112 0.355909 28.8143 0.361482 28.4995C0.366498 28.184 0.524782 27.8914 0.784503 27.7136L11.0524 20.6805C11.4977 20.3762 12.1024 20.4922 12.4067 20.9341C12.7104 21.3783 12.5973 21.9842 12.1537 22.2885L3.01274 28.5491L11.0206 34.4847L24.2401 24.3696C24.6665 24.043 25.2801 24.1238 25.6056 24.5513C25.9328 24.9782 25.8508 25.5901 25.4239 25.9162L11.622 36.4772C11.4475 36.6115 11.238 36.6784 11.0295 36.6784Z" fill="white"/>
<path d="M30.5931 51.1787C30.3897 51.1787 30.1851 51.1152 30.0134 50.9876L20.0532 43.6045C19.808 43.4217 19.6614 43.1346 19.6592 42.8292C19.6575 42.5227 19.798 42.2334 20.0415 42.0478L33.9115 31.4355C34.1807 31.2288 34.539 31.1769 34.8556 31.3018C35.1722 31.4244 35.4018 31.7036 35.4614 32.038L37.8374 45.3746C37.9026 45.7391 37.756 46.108 37.4589 46.3288L31.1738 50.9876C31.0016 51.1152 30.7971 51.1787 30.5931 51.1787ZM22.2525 42.8092L30.5931 48.9917L35.8148 45.1227L33.8245 33.9542L22.2525 42.8092Z" fill="white"/>
<path d="M36.8801 46.52C36.5813 46.52 36.2871 46.3846 36.0965 46.126C35.7765 45.6935 35.8668 45.0837 36.2988 44.7633L58.1972 28.5319L49.2575 22.1459L35.0949 32.9828C34.6697 33.3099 34.056 33.2291 33.73 32.8011C33.4028 32.3742 33.4842 31.7622 33.9117 31.4362L48.6455 20.1618C48.9838 19.9015 49.4548 19.8926 49.8031 20.1428L60.4187 27.7254C60.6723 27.906 60.8239 28.1975 60.8267 28.509C60.8295 28.8206 60.6829 29.1149 60.4327 29.3004L37.4592 46.3288C37.2841 46.4581 37.0813 46.52 36.8801 46.52Z" fill="white"/>
<path d="M25.5313 7.26167C25.2822 7.26167 25.0331 7.16637 24.8425 6.97631L21.7582 3.89144C21.3775 3.51078 21.3775 2.89436 21.7582 2.51426C22.1383 2.13359 22.7547 2.13359 23.1353 2.51426L26.2202 5.59857C26.6003 5.97923 26.6003 6.59565 26.2202 6.97631C26.0296 7.16637 25.7805 7.26167 25.5313 7.26167Z" fill="white"/>
<path d="M36.8841 7.26167C36.6344 7.26167 36.3858 7.16637 36.1952 6.97631C35.8151 6.59565 35.8151 5.97923 36.1952 5.59857L39.2801 2.51426C39.6602 2.13359 40.2766 2.13359 40.6573 2.51426C41.0374 2.89436 41.0374 3.51078 40.6573 3.89144L37.5724 6.97631C37.3824 7.16637 37.1332 7.26167 36.8841 7.26167Z" fill="white"/>
<path d="M30.3678 5.84426C29.8294 5.84426 29.3936 5.40842 29.3936 4.87003V0.974229C29.3936 0.435839 29.8294 0 30.3678 0C30.9056 0 31.3415 0.435839 31.3415 0.974229V4.87003C31.3415 5.40898 30.9062 5.84426 30.3678 5.84426Z" fill="white"/>
</g>
<defs>
<clipPath id="clip0">
<rect width="61" height="61" fill="white"/>
</clipPath>
</defs>
</svg>
