<svg width="64" height="64" viewBox="0 0 64 64" fill="none" xmlns="http://www.w3.org/2000/svg">
<g clip-path="url(#clip0)">
<path d="M60.3519 48.3279C59.0227 47.3924 57.4887 46.89 55.9392 46.808C50.0991 42.9837 46.2736 40.1132 44.0401 37.8797L37.1791 31.0188L41.3425 26.3584C42.1316 26.8038 42.9791 27.0973 43.8268 27.2183C44.4665 27.3249 44.8929 27.3249 45.3194 27.3249C46.1724 27.3249 46.3855 27.3249 47.2385 28.0712C46.812 28.391 46.5988 28.9241 46.5988 29.4571C46.5988 29.9901 46.812 30.6299 47.2385 31.0563L50.97 34.7878C51.5031 35.4275 52.3559 35.7473 53.2088 35.7473C54.0618 35.7473 54.9146 35.4275 55.4477 34.6812L63.0173 27.1116C63.657 26.5785 63.9768 25.7257 63.9768 24.8728C63.9768 24.0198 63.657 23.2736 63.0173 22.6339L59.2858 18.9024C58.8594 18.476 58.3263 18.2627 57.7932 18.2627C57.26 18.2627 56.7271 18.5825 56.3005 18.9024C55.4476 18.1561 55.4476 17.9429 55.4476 17.0899C55.4476 16.6635 55.4476 16.1304 55.2343 15.4907C55.021 13.9981 54.2748 12.5056 53.102 11.3328L49.2639 7.49473C47.0251 5.25585 45.959 4.18976 43.0804 2.91041C36.8969 0.0318515 30.6067 0.564959 21.4379 4.72287C20.9048 4.93614 20.6917 5.36255 20.7982 5.89566C20.9048 6.42877 21.3313 6.7486 21.8643 6.7486H23.2502C27.9413 6.7486 30.3933 6.7486 34.6579 11.0131C36.5252 12.8804 36.5791 15.7436 34.906 17.8502C34.6805 17.8841 34.5088 17.9853 34.3381 18.1561L29.6022 23.442L26.0222 19.862C22.0875 15.9272 19.3198 12.2045 17.1898 8.0592C17.078 5.96163 16.2363 3.99911 14.7213 2.48412C12.9089 0.67178 10.3502 -0.181166 7.79151 0.0321016C7.47167 0.138673 7.15183 0.351941 7.04526 0.565209C6.83199 0.885048 6.83199 1.31146 7.04526 1.6313L10.0304 6.962C9.3907 8.34793 7.89808 9.20087 6.40558 9.0943L3.31375 3.97675C3.20718 3.65691 2.78065 3.44364 2.46081 3.44364C2.14097 3.33707 1.82113 3.55021 1.60786 3.87005C-0.950854 7.70812 0.00866419 12.8256 3.84674 15.4908C5.16907 16.4354 6.65883 16.9606 8.16757 17.0683C8.18443 17.0754 8.2003 17.0842 8.21779 17.09C12.3757 19.2223 16.1072 21.9942 20.0518 25.939L23.951 29.7494L1.28815 55.0445C0.4352 55.8974 0.00878906 57.0701 0.00878906 58.2429C0.00878906 59.4157 0.4352 60.4818 1.28815 61.3347L2.78077 62.8273C3.63372 63.5736 4.69981 64.0001 5.7659 64.0001C6.83199 64.0001 8.00478 63.5737 8.85772 62.7208L31.4947 37.3819L38.0697 43.9568C40.3064 46.1936 43.1817 50.1331 47.0144 55.8813C47.1519 57.9332 47.9916 59.8489 49.4773 61.3347C51.0765 62.9339 53.2088 63.7868 55.4477 63.7868C55.7675 63.7868 56.0874 63.7868 56.3007 63.7868C56.6205 63.7868 56.9403 63.5736 57.1536 63.2537C57.3669 62.9339 57.3669 62.5075 57.1536 62.1876L54.0618 56.9636C54.808 55.5777 56.1941 54.7248 57.7933 54.8313L60.7784 59.9488C60.885 60.2686 61.3115 60.4819 61.6314 60.4819C62.0578 60.3753 62.3776 60.2686 62.5909 59.9488C65.1495 56.1106 64.0832 50.9931 60.3519 48.3279ZM36.0441 9.30745C32.6324 6.00248 30.0737 4.93626 27.1951 4.61643C33.2721 2.69739 37.7498 2.80396 42.2276 4.82969C44.7863 5.89578 45.6393 6.74873 47.8781 8.98761L51.7162 12.8257C52.5692 13.6786 53.1021 14.7447 53.2088 15.8108C53.3154 16.3439 53.3154 16.7703 53.3154 17.0902C53.3154 18.2629 53.422 19.1158 54.7013 20.3951C55.1277 20.8215 55.7674 21.0348 56.3005 21.0348C56.9402 21.0348 57.4733 20.8215 57.7932 20.3951L61.5247 24.1266C61.7379 24.3399 61.8445 24.553 61.8445 24.8729C61.8445 25.1927 61.7379 25.406 61.5247 25.6191L53.9551 33.1887C53.5287 33.6151 52.889 33.6151 52.4625 33.1887L48.731 29.4572C49.1574 29.1374 49.3706 28.6043 49.2641 27.9646C49.2641 27.4315 49.0508 26.7918 48.6244 26.3654C47.345 25.086 46.4921 24.9795 45.3194 24.9795C44.9996 24.9795 44.5732 24.9795 44.0401 24.8729C42.8673 24.7663 41.9078 24.2332 41.0549 23.3803L36.4706 18.7959C38.8159 15.9175 38.6028 11.8662 36.0441 9.30745ZM2.5675 6.74873L4.80638 10.5868C5.01965 10.9066 5.33949 11.1199 5.65933 11.1199H6.19243C8.64458 11.2265 10.8835 9.94712 11.9495 7.81494L12.1628 7.28184C12.3761 6.962 12.3761 6.64216 12.1628 6.32232L9.81724 2.27098C11.0966 2.48425 12.2694 3.12392 13.2289 4.08344C14.3281 5.27422 15.0319 6.78021 15.0735 8.3979C15.0529 8.47999 15.0412 8.56832 15.0412 8.66789C15.0412 9.16164 14.9816 9.64328 14.8713 10.1075C14.4692 11.6513 13.5048 12.9972 12.1627 13.892C10.0304 15.2779 7.15183 15.2779 5.01965 13.7854C2.78077 12.186 1.82125 9.30745 2.5675 6.74873ZM21.5446 24.4465C18.3462 21.1415 15.1478 18.5828 11.7362 16.5571C12.2693 16.3438 12.9089 16.0239 13.4419 15.7041C15.0411 14.638 16.1072 13.252 16.7469 11.5462C18.7725 14.9579 21.3312 18.1563 24.5296 21.3546L28.1915 25.0166L25.3198 28.2218L21.5446 24.4465ZM7.3651 61.1214C6.51215 61.9744 5.12622 62.081 4.27327 61.228L2.78065 59.8421C2.35424 59.4157 2.14097 58.8826 2.14097 58.3494C2.14097 57.7098 2.35424 57.1767 2.88722 56.6437L3.49104 55.9681L5.01952 57.4966C5.23279 57.7099 5.44593 57.8165 5.76577 57.8165C6.08561 57.8165 6.29888 57.7099 6.51202 57.4966C6.93844 57.0702 6.93844 56.4305 6.51202 56.004L4.89983 54.3918L6.30875 52.8155L8.00465 54.5114C8.21792 54.7246 8.43106 54.8312 8.7509 54.8312C9.07074 54.8312 9.28401 54.7246 9.49715 54.5114C9.92356 54.085 9.92356 53.4453 9.49715 53.0188L7.71779 51.2393L35.1408 20.558L39.6185 25.0358L35.2189 29.9582C35.0932 30.0114 34.982 30.0928 34.8713 30.2036L30.6068 35.0012C30.485 35.123 30.3993 35.2624 30.3471 35.409L7.3651 61.1214ZM32.9535 35.7488L35.8712 32.4829L42.7606 39.3724C44.6796 41.398 47.9846 43.9567 52.7822 47.1551C52.1425 47.3683 51.5028 47.6882 50.8631 48.1146C49.5404 48.9413 48.6036 50.0891 47.9508 51.358C47.9412 51.3761 47.9324 51.3946 47.9229 51.4128C47.8841 51.4891 47.8464 51.5659 47.8097 51.6431C47.7571 51.7524 47.7071 51.863 47.6592 51.9747C47.6265 52.0502 47.5939 52.1258 47.563 52.2019C47.5587 52.2129 47.5544 52.2239 47.55 52.2349C47.5164 52.3184 47.4831 52.4018 47.4516 52.4858C46.846 51.5976 46.2634 50.7594 45.7031 49.9698L47.1318 48.5411C47.5582 48.1147 47.5582 47.475 47.1318 47.0485C46.7053 46.6221 46.0657 46.6221 45.6391 47.0485L44.4506 48.237C44.0076 47.6358 43.5797 47.0687 43.1669 46.5356L44.1466 45.5559C44.573 45.1295 44.573 44.4898 44.1466 44.0632C43.7202 43.6368 43.0805 43.6368 42.654 44.0632L41.8402 44.8771C41.0566 43.9327 40.3338 43.129 39.6689 42.4641L32.9535 35.7488ZM61.5245 57.0701L59.2857 53.232C59.0724 52.9122 58.7525 52.6989 58.4327 52.6989H57.8996C55.4475 52.4856 53.2086 53.8717 52.1425 56.0039L51.9292 56.537C51.716 56.8568 51.716 57.1767 51.9292 57.4965L54.2747 61.5478C52.9953 61.3346 51.8225 60.6949 50.863 59.7354C49.7847 58.5671 49.0877 57.0955 49.0221 55.5129C49.0403 55.4349 49.0505 55.3512 49.0505 55.2576C49.0505 53.9071 49.4793 52.6426 50.2266 51.5715C50.6857 50.9325 51.2599 50.3732 51.9291 49.9271C52.9952 49.1808 54.168 48.861 55.4473 48.861C56.7267 48.861 58.006 49.2874 59.0721 50.0338C61.3114 51.6328 62.2709 54.5114 61.5245 57.0701Z" fill="white"/>
</g>
<defs>
<clipPath id="clip0">
<rect width="64" height="64" fill="white"/>
</clipPath>
</defs>
</svg>
