<svg width="74" height="74" viewBox="0 0 74 74" fill="none" xmlns="http://www.w3.org/2000/svg">
<path d="M52.6094 25.5874C52.4774 25.5109 52.3316 25.4614 52.1804 25.4415C52.0292 25.4216 51.8755 25.4319 51.7283 25.4716C51.5811 25.5114 51.4432 25.5799 51.3225 25.6732C51.2019 25.7665 51.1009 25.8827 51.0253 26.0152L44.0878 38.0286C43.9921 38.2065 43.9406 38.4048 43.9375 38.6068V70.5308C43.9375 70.8375 44.0593 71.1316 44.2762 71.3484C44.493 71.5653 44.7871 71.6871 45.0938 71.6871C45.4004 71.6871 45.6945 71.5653 45.9113 71.3484C46.1282 71.1316 46.25 70.8375 46.25 70.5308V38.919L53.0372 27.1715C53.1136 27.0395 53.1632 26.8937 53.1831 26.7425C53.203 26.5913 53.1927 26.4376 53.153 26.2904C53.1132 26.1432 53.0447 26.0052 52.9514 25.8846C52.8581 25.7639 52.7419 25.6629 52.6094 25.5874Z" fill="white"/>
<path d="M29.912 26.015C29.8361 25.8829 29.7349 25.7671 29.6142 25.6741C29.4935 25.5811 29.3556 25.5128 29.2085 25.473C29.0615 25.4333 28.908 25.423 28.7569 25.4425C28.6058 25.4621 28.46 25.5113 28.3279 25.5872C28.1958 25.6631 28.08 25.7643 27.987 25.885C27.894 26.0057 27.8257 26.1435 27.7859 26.2906C27.7462 26.4377 27.7358 26.5912 27.7554 26.7423C27.775 26.8934 27.8242 27.0392 27.9001 27.1713L34.6873 38.9188V41.3585L34.1092 41.0694C33.9334 40.9679 33.734 40.9145 33.531 40.9145C33.3281 40.9145 33.1287 40.9679 32.9529 41.0694C31.2635 42.0473 29.3717 42.6233 27.4239 42.7527C25.4762 42.882 23.5248 42.5614 21.7209 41.8154C19.917 41.0695 18.309 39.9184 17.0214 38.4512C15.7338 36.984 14.8012 35.2402 14.2959 33.3547C13.7905 31.4692 13.7259 29.4927 14.1071 27.5782C14.4883 25.6638 15.305 23.8627 16.4941 22.3146C17.6831 20.7665 19.2125 19.5128 20.9639 18.6507C22.7152 17.7886 24.6415 17.3412 26.5935 17.3431C26.7473 17.359 26.9027 17.3439 27.0505 17.2987C27.1984 17.2535 27.3356 17.1791 27.4542 17.08C27.5728 16.9808 27.6703 16.8588 27.7409 16.7213C27.8115 16.5838 27.8539 16.4335 27.8654 16.2794C28.1667 13.1303 29.6308 10.2064 31.9718 8.07866C34.3129 5.9509 37.3628 4.77195 40.5264 4.77195C43.6899 4.77195 46.7398 5.9509 49.0809 8.07866C51.4219 10.2064 52.886 13.1303 53.1873 16.2794C53.2106 16.5697 53.3426 16.8406 53.557 17.0378C53.7714 17.235 54.0523 17.3441 54.3435 17.3431C54.6502 17.3431 54.9443 17.2213 55.1611 17.0045C55.378 16.7876 55.4998 16.4936 55.4998 16.1869C55.5172 16.0719 55.5172 15.955 55.4998 15.84C55.2014 12.1451 53.5483 8.69083 50.858 6.14069C48.1676 3.59055 44.6299 2.12445 40.9243 2.02407C37.2188 1.92369 33.6069 3.1961 30.7824 5.59684C27.958 7.99759 26.1202 11.3573 25.6223 15.0306C23.3939 15.1805 21.2269 15.8251 19.2789 16.9174C17.3309 18.0098 15.6508 19.5226 14.3607 21.3457C13.0707 23.1689 12.2031 25.2566 11.8211 27.4571C11.4391 29.6576 11.5523 31.9156 12.1524 34.0669C12.7525 36.2182 13.8245 38.2087 15.2904 39.8937C16.7562 41.5787 18.5792 42.9159 20.6267 43.808C22.6742 44.7001 24.8948 45.1248 27.127 45.0511C29.3591 44.9774 31.5469 44.4072 33.531 43.3819C33.8895 43.5669 34.2826 43.7288 34.6873 43.9022V70.5306C34.6873 70.8373 34.8091 71.1314 35.0259 71.3482C35.2428 71.5651 35.5369 71.6869 35.8435 71.6869C36.1502 71.6869 36.4443 71.5651 36.6611 71.3482C36.878 71.1314 36.9998 70.8373 36.9998 70.5306V38.6066C36.9967 38.4046 36.9452 38.2063 36.8495 38.0285L29.912 26.015Z" fill="white"/>
<path d="M48.6202 23.2866C48.3565 23.1303 48.0415 23.0851 47.7444 23.161C47.4474 23.2369 47.1926 23.4276 47.0362 23.6913L40.4687 34.6873L33.9012 23.6451C33.7383 23.4045 33.4909 23.2341 33.2081 23.1677C32.9253 23.1013 32.6278 23.1437 32.3749 23.2866C32.1112 23.4431 31.9205 23.6978 31.8446 23.9949C31.7687 24.2919 31.8139 24.607 31.9702 24.8707L39.5321 37.5894C39.6345 37.762 39.78 37.9049 39.9543 38.0042C40.1287 38.1035 40.3259 38.1557 40.5265 38.1557C40.7271 38.1557 40.9243 38.1035 41.0986 38.0042C41.273 37.9049 41.4185 37.762 41.5209 37.5894L49.0827 24.8707C49.1578 24.7367 49.2054 24.589 49.2228 24.4363C49.2401 24.2837 49.2269 24.1291 49.1838 23.9816C49.1408 23.8342 49.0688 23.6967 48.972 23.5774C48.8752 23.4581 48.7556 23.3592 48.6202 23.2866Z" fill="white"/>
<path d="M65.8139 53.2795C65.5725 51.9466 64.8707 50.7407 63.831 49.8724C62.7913 49.004 61.4797 48.5283 60.1251 48.5283C58.7705 48.5283 57.4589 49.004 56.4192 49.8724C55.3795 50.7407 54.6777 51.9466 54.4364 53.2795C53.0127 53.5372 51.7374 54.3192 50.8622 55.4713C49.9871 56.6233 49.5757 58.0617 49.7093 59.5023C49.8429 60.9429 50.5118 62.281 51.5839 63.2525C52.656 64.2239 54.0534 64.7581 55.5001 64.7495C55.8068 64.7495 56.1009 64.6277 56.3177 64.4109C56.5345 64.194 56.6564 63.8999 56.6564 63.5933C56.6564 63.2866 56.5345 62.9925 56.3177 62.7757C56.1009 62.5589 55.8068 62.437 55.5001 62.437C54.5801 62.437 53.6978 62.0716 53.0473 61.4211C52.3968 60.7705 52.0314 59.8883 52.0314 58.9683C52.0314 58.0483 52.3968 57.166 53.0473 56.5155C53.6978 55.865 54.5801 55.4995 55.5001 55.4995C55.8068 55.4995 56.1009 55.3777 56.3177 55.1609C56.5345 54.944 56.6564 54.6499 56.6564 54.3433C56.6564 53.4233 57.0218 52.541 57.6723 51.8905C58.3229 51.24 59.2051 50.8745 60.1251 50.8745C61.0451 50.8745 61.9274 51.24 62.5779 51.8905C63.2284 52.541 63.5939 53.4233 63.5939 54.3433C63.5939 54.6499 63.7157 54.944 63.9325 55.1609C64.1494 55.3777 64.4435 55.4995 64.7501 55.4995C65.6701 55.4995 66.5524 55.865 67.2029 56.5155C67.8534 57.166 68.2189 58.0483 68.2189 58.9683C68.2189 59.8883 67.8534 60.7705 67.2029 61.4211C66.5524 62.0716 65.6701 62.437 64.7501 62.437C64.4435 62.437 64.1494 62.5589 63.9325 62.7757C63.7157 62.9925 63.5939 63.2866 63.5939 63.5933C63.5939 63.8999 63.7157 64.194 63.9325 64.4109C64.1494 64.6277 64.4435 64.7495 64.7501 64.7495C66.1969 64.7581 67.5942 64.2239 68.6663 63.2525C69.7384 62.281 70.4073 60.9429 70.5409 59.5023C70.6745 58.0617 70.2631 56.6233 69.388 55.4713C68.5128 54.3192 67.2375 53.5372 65.8139 53.2795Z" fill="white"/>
<path d="M63.2583 56.9905C63.1509 56.8821 63.023 56.7961 62.8821 56.7374C62.7412 56.6787 62.59 56.6484 62.4374 56.6484C62.2848 56.6484 62.1336 56.6787 61.9927 56.7374C61.8518 56.7961 61.724 56.8821 61.6165 56.9905L60.1249 58.4936L58.6333 57.002C58.4135 56.8109 58.1297 56.7098 57.8385 56.719C57.5474 56.7281 57.2704 56.8468 57.063 57.0513C56.8556 57.2558 56.733 57.531 56.7197 57.822C56.7064 58.113 56.8035 58.3982 56.9915 58.6208L58.9687 60.6211V70.5301C58.9687 70.8368 59.0905 71.1309 59.3073 71.3477C59.5242 71.5646 59.8182 71.6864 60.1249 71.6864C60.4316 71.6864 60.7257 71.5646 60.9425 71.3477C61.1593 71.1309 61.2812 70.8368 61.2812 70.5301V60.598L63.2583 58.6323C63.3667 58.5248 63.4527 58.397 63.5114 58.2561C63.5701 58.1152 63.6004 57.964 63.6004 57.8114C63.6004 57.6588 63.5701 57.5076 63.5114 57.3667C63.4527 57.2258 63.3667 57.0979 63.2583 56.9905Z" fill="white"/>
<path d="M30.1666 47.0358C30.0276 47.0972 29.902 47.1854 29.7972 47.2954C29.6923 47.4053 29.6101 47.5349 29.5553 47.6766C29.5006 47.8184 29.4743 47.9696 29.478 48.1215C29.4817 48.2734 29.5153 48.4231 29.5769 48.562C29.8988 49.2904 30.0643 50.0782 30.0625 50.8745C30.0625 52.4078 29.4534 53.8783 28.3692 54.9625C27.285 56.0467 25.8145 56.6558 24.2812 56.6558C23.2623 56.6519 22.2634 56.3722 21.3906 55.8464C21.2144 55.7465 21.015 55.6947 20.8125 55.6961V52.0308C20.8125 51.7241 20.6907 51.43 20.4738 51.2132C20.257 50.9963 19.9629 50.8745 19.6562 50.8745C19.3496 50.8745 19.0555 50.9963 18.8387 51.2132C18.6218 51.43 18.5 51.7241 18.5 52.0308V70.5308C18.5 70.8374 18.6218 71.1315 18.8387 71.3484C19.0555 71.5652 19.3496 71.687 19.6562 71.687C19.9629 71.687 20.257 71.5652 20.4738 71.3484C20.6907 71.1315 20.8125 70.8374 20.8125 70.5308V58.1589C21.8926 58.6878 23.0786 58.9645 24.2812 58.9683C25.6261 58.968 26.9497 58.6327 28.1324 57.9925C29.3152 57.3524 30.3198 56.4276 31.0554 55.3018C31.791 54.1759 32.2345 52.8845 32.3458 51.5443C32.4571 50.204 32.2327 48.8572 31.6928 47.6254C31.6314 47.4864 31.5432 47.3609 31.4332 47.256C31.3232 47.1512 31.1937 47.069 31.0519 47.0142C30.9102 46.9595 30.759 46.9332 30.6071 46.9369C30.4552 46.9406 30.3055 46.9742 30.1666 47.0358Z" fill="white"/>
<path d="M16.2568 50.8747C16.1049 50.8653 15.9527 50.886 15.8088 50.9356C15.6649 50.9852 15.5322 51.0627 15.4184 51.1636C15.3045 51.2646 15.2117 51.3871 15.1452 51.524C15.0788 51.6609 15.0401 51.8096 15.0312 51.9616L14.7768 56.0084L14.4531 55.8466C14.2773 55.7451 14.0779 55.6916 13.875 55.6916C13.672 55.6916 13.4726 55.7451 13.2968 55.8466C12.4241 56.3724 11.4252 56.6521 10.4062 56.6559C8.87293 56.6559 7.40245 56.0468 6.31825 54.9626C5.23406 53.8784 4.62496 52.408 4.62496 50.8747C4.62496 49.3414 5.23406 47.8709 6.31825 46.7867C7.40245 45.7025 8.87293 45.0934 10.4062 45.0934C10.7129 45.0934 11.007 44.9716 11.2238 44.7548C11.4406 44.5379 11.5625 44.2438 11.5625 43.9372C11.5686 42.9341 11.8355 41.9499 12.3372 41.0812C12.4208 40.9496 12.477 40.8025 12.5023 40.6486C12.5276 40.4947 12.5215 40.3373 12.4844 40.1859C12.4473 40.0344 12.38 39.892 12.2864 39.7672C12.1928 39.6425 12.075 39.5379 11.94 39.4599C11.805 39.3819 11.6556 39.3319 11.5008 39.3131C11.346 39.2943 11.189 39.307 11.0392 39.3505C10.8895 39.3939 10.75 39.4672 10.6293 39.566C10.5086 39.6647 10.4091 39.7868 10.3368 39.925C9.81306 40.8247 9.47127 41.8187 9.3309 42.8503C7.29208 43.1189 5.43196 44.1536 4.12838 45.7441C2.8248 47.3345 2.17551 49.3616 2.3124 51.4135C2.44929 53.4654 3.36209 55.3882 4.8654 56.7914C6.3687 58.1946 8.34978 58.973 10.4062 58.9684V61.2809C10.4062 61.4816 10.4585 61.6788 10.5578 61.8531C10.6572 62.0275 10.8002 62.173 10.9728 62.2753L14.2681 64.2525L13.875 70.4616C13.8656 70.6135 13.8863 70.7657 13.9359 70.9096C13.9854 71.0535 14.0629 71.1862 14.1639 71.3C14.2649 71.4139 14.3874 71.5067 14.5243 71.5732C14.6612 71.6396 14.8099 71.6783 14.9618 71.6872H15.0312C15.3262 71.6877 15.6103 71.5755 15.8252 71.3734C16.0402 71.1714 16.1698 70.8948 16.1875 70.6003L17.3437 52.1003C17.3531 51.9484 17.3324 51.7961 17.2828 51.6523C17.2332 51.5084 17.1557 51.3757 17.0548 51.2618C16.9538 51.1479 16.8313 51.0551 16.6944 50.9887C16.5575 50.9223 16.4088 50.8835 16.2568 50.8747ZM12.7187 60.6219V58.61C13.1142 58.4869 13.5006 58.3362 13.875 58.1591C14.1178 58.2747 14.3721 58.3672 14.6265 58.4597L14.43 61.6509L12.7187 60.6219Z" fill="white"/>
<path d="M69.3749 30.0624C69.3761 27.1366 68.5234 24.2741 66.9214 21.8259C65.3194 19.3777 63.0377 17.4502 60.3562 16.2799C60.2158 16.2095 60.0627 16.1685 59.906 16.1592C59.7493 16.15 59.5923 16.1727 59.4447 16.2261C59.2971 16.2795 59.1619 16.3624 59.0473 16.4697C58.9328 16.577 58.8413 16.7065 58.7784 16.8503C58.7155 16.9942 58.6826 17.1493 58.6816 17.3063C58.6806 17.4632 58.7116 17.6187 58.7727 17.7633C58.8338 17.9079 58.9237 18.0386 59.0369 18.1473C59.1501 18.2561 59.2842 18.3406 59.4312 18.3958C62.1151 19.5611 64.3152 21.6162 65.6605 24.2146C67.0058 26.8129 67.4141 29.7957 66.8165 32.66C66.2189 35.5243 64.652 38.095 62.38 39.9387C60.1079 41.7823 57.2696 42.7863 54.3437 42.7812C52.8995 42.7741 51.4675 42.5159 50.1118 42.018C49.9683 41.9667 49.8161 41.9443 49.664 41.952C49.5118 41.9598 49.3627 41.9975 49.2252 42.063C49.0876 42.1286 48.9644 42.2206 48.8626 42.334C48.7608 42.4473 48.6823 42.5796 48.6318 42.7233C48.5312 43.0102 48.5476 43.325 48.6775 43.5999C48.8073 43.8747 49.0401 44.0873 49.3255 44.1918C50.9332 44.7813 52.6313 45.0865 54.3437 45.0937C56.3176 45.0937 58.2722 44.7049 60.0959 43.9495C61.9195 43.1941 63.5766 42.0869 64.9724 40.6911C66.3681 39.2953 67.4753 37.6383 68.2307 35.8146C68.9861 33.9909 69.3749 32.0363 69.3749 30.0624Z" fill="white"/>
</svg>
