<svg width="68" height="68" viewBox="0 0 68 68" fill="none" xmlns="http://www.w3.org/2000/svg">
<path d="M68 43.6331H64.6V41.3664C64.6 40.7397 64.0934 40.2331 63.4667 40.2331H56.6667C56.0399 40.2331 55.5333 40.7397 55.5333 41.3664V43.6331H52.1333V37.9664C52.1333 37.3397 51.6267 36.8331 51 36.8331H48.7333V34.5664C48.7333 33.9397 48.2267 33.4331 47.6 33.4331H40.8V25.4997C40.8 24.873 40.2934 24.3664 39.6667 24.3664H37.4V16.4331H38.5333V18.6997C38.5333 19.3265 39.0399 19.8331 39.6667 19.8331H47.8879C51.4783 19.8331 54.4 16.9113 54.4 13.3209V8.21187C54.4 4.62147 51.4783 1.69974 47.8879 1.69974H41.9333C40.256 1.69974 38.6183 2.36047 37.4 3.51081V1.69974C37.4 1.07301 36.8934 0.566406 36.2667 0.566406H31.7333C31.1066 0.566406 30.6 1.07301 30.6 1.69974V3.51081C29.3817 2.36047 27.744 1.69974 26.0667 1.69974H20.1121C16.5217 1.69974 13.6 4.62147 13.6 8.21187V13.3209C13.6 16.9113 16.5217 19.8331 20.1121 19.8331H28.3333C28.9601 19.8331 29.4667 19.3265 29.4667 18.6997V16.4331H30.6V24.3664H28.3333C27.7066 24.3664 27.2 24.873 27.2 25.4997V33.4331H20.4C19.7733 33.4331 19.2667 33.9397 19.2667 34.5664V36.8331H17C16.3733 36.8331 15.8667 37.3397 15.8667 37.9664V43.6331H12.4667V41.3664C12.4667 40.7397 11.9601 40.2331 11.3333 40.2331H4.53333C3.9066 40.2331 3.4 40.7397 3.4 41.3664V43.6331H0V64.0331H3.4V66.2997C3.4 66.9265 3.9066 67.4331 4.53333 67.4331H11.3333C11.9601 67.4331 12.4667 66.9265 12.4667 66.2997V64.0331H55.5333V66.2997C55.5333 66.9265 56.0399 67.4331 56.6667 67.4331H63.4667C64.0934 67.4331 64.6 66.9265 64.6 66.2997V64.0331H68V43.6331ZM35.1333 2.83307V4.92747C35.0948 4.93767 35.0574 4.95241 35.0189 4.96261C34.9157 4.98867 34.8126 5.01021 34.7095 5.02834C34.4817 5.06687 34.2516 5.09634 34.0193 5.09747C34.0068 5.09747 33.9943 5.09747 33.9819 5.09747C33.7495 5.09634 33.5195 5.06687 33.2917 5.02834C33.1885 5.01021 33.0854 4.98867 32.9823 4.96261C32.9426 4.95354 32.9052 4.93767 32.8667 4.92747V2.83307H35.1333ZM28.3333 14.1664C27.7066 14.1664 27.2 14.673 27.2 15.2997V17.5664H20.1121C17.7718 17.5664 15.8667 15.6613 15.8667 13.3209V8.21187C15.8667 5.87154 17.7718 3.96641 20.1121 3.96641H26.0667C27.2091 3.96641 28.3265 4.42881 29.1346 5.23687L29.3295 5.43181C30.3801 6.48241 31.7764 7.14541 33.2452 7.31767C33.269 7.32107 33.2928 7.32561 33.3166 7.32901C33.5421 7.35281 33.7711 7.36641 34 7.36641C34.2289 7.36641 34.4579 7.35281 34.6845 7.32901C34.7083 7.32674 34.7321 7.32107 34.7559 7.31767C36.2247 7.14541 37.6199 6.48241 38.6705 5.43181L38.8654 5.23687C39.6735 4.42881 40.7909 3.96641 41.9333 3.96641H47.8879C50.2282 3.96641 52.1333 5.87154 52.1333 8.21187V13.3209C52.1333 15.6613 50.2282 17.5664 47.8879 17.5664H40.8V15.2997C40.8 14.673 40.2934 14.1664 39.6667 14.1664H36.2667H31.7333H28.3333ZM32.8667 16.4331H35.1333V24.3664H32.8667V16.4331ZM29.4667 26.6331H31.7333H36.2667H38.5333V33.4331H29.4667V26.6331ZM21.5333 35.6997H28.3333H39.6667H46.4667V36.8331H21.5333V35.6997ZM18.1333 39.0997H20.4H47.6H49.8667V43.6331H18.1333V39.0997ZM2.26667 61.7664V45.8997H3.4V61.7664H2.26667ZM10.2 65.1664H5.66667V64.0331V43.6331V42.4997H10.2V65.1664ZM12.4667 61.7664V45.8997H17H51H55.5333V61.7664H12.4667ZM62.3333 65.1664H57.8V64.0331V43.6331V42.4997H62.3333V43.6331V64.0331V65.1664ZM65.7333 61.7664H64.6V45.8997H65.7333V61.7664Z" fill="white"/>
</svg>
