<svg width="70" height="70" viewBox="0 0 70 70" fill="none" xmlns="http://www.w3.org/2000/svg">
<g clip-path="url(#clip0)">
<path d="M58.3789 0H11.7124C8.49205 0.00373841 5.88264 2.61314 5.87891 5.83351V61.8332C5.87891 63.7665 7.44583 65.3334 9.37912 65.3334V68.8331C9.37912 69.4777 9.90143 70 10.5455 70H59.5458C60.1899 70 60.7122 69.4777 60.7122 68.8331V65.3334C62.645 65.3334 64.2124 63.7665 64.2124 61.8332V5.83351C64.2082 2.61314 61.5993 0.00373841 58.3789 0V0ZM11.7124 2.3333H58.3789C60.3117 2.3333 61.8791 3.90022 61.8791 5.83351V14.0003H8.2122V5.83351C8.2122 3.90022 9.77913 2.3333 11.7124 2.3333ZM58.3789 67.6667H11.7124V65.3334H58.3789V67.6667ZM60.7122 63.0001H9.37912C8.73451 63.0001 8.2122 62.4778 8.2122 61.8332V16.3331H61.8791V61.8332C61.8791 62.4778 61.3568 63.0001 60.7122 63.0001Z" fill="white"/>
<path d="M11.7128 11.6669H25.7126C26.3572 11.6669 26.8795 11.1446 26.8795 10.5005V5.83391C26.8795 5.1893 26.3572 4.66699 25.7126 4.66699H11.7128C11.0682 4.66699 10.5459 5.1893 10.5459 5.83391V10.5005C10.5459 11.1446 11.0682 11.6669 11.7128 11.6669ZM12.8792 7.00029H24.5462V9.33359H12.8792V7.00029Z" fill="white"/>
<path d="M32.7126 11.6669C34.6459 11.6669 36.2128 10.1 36.2128 8.16721C36.2128 6.23392 34.6459 4.66699 32.7126 4.66699C30.7798 4.66699 29.2129 6.23392 29.2129 8.16721C29.2129 10.1 30.7798 11.6669 32.7126 11.6669ZM32.7126 7.00029C33.3572 7.00029 33.8795 7.5226 33.8795 8.16721C33.8795 8.81128 33.3572 9.33359 32.7126 9.33359C32.0685 9.33359 31.5462 8.81128 31.5462 8.16721C31.5462 7.5226 32.0685 7.00029 32.7126 7.00029Z" fill="white"/>
<path d="M42.0456 11.6669C43.9789 11.6669 45.5458 10.1 45.5458 8.16721C45.5458 6.23392 43.9789 4.66699 42.0456 4.66699C40.1128 4.66699 38.5459 6.23392 38.5459 8.16721C38.5459 10.1 40.1128 11.6669 42.0456 11.6669ZM42.0456 7.00029C42.6902 7.00029 43.2125 7.5226 43.2125 8.16721C43.2125 8.81128 42.6902 9.33359 42.0456 9.33359C41.4015 9.33359 40.8792 8.81128 40.8792 8.16721C40.8792 7.5226 41.4015 7.00029 42.0456 7.00029Z" fill="white"/>
<path d="M49.0458 9.3333H51.3791C52.0232 9.3333 52.5455 8.81099 52.5455 8.16692C52.5455 7.52231 52.0232 7 51.3791 7H49.0458C48.4012 7 47.8789 7.52231 47.8789 8.16692C47.8789 8.81099 48.4012 9.3333 49.0458 9.3333Z" fill="white"/>
<path d="M56.0458 9.3333H58.3791C59.0237 9.3333 59.546 8.81099 59.546 8.16692C59.546 7.52231 59.0237 7 58.3791 7H56.0458C55.4012 7 54.8789 7.52231 54.8789 8.16692C54.8789 8.81099 55.4012 9.3333 56.0458 9.3333Z" fill="white"/>
<path d="M35.0453 21C24.7364 21 16.3789 29.3569 16.3789 39.6664C16.3789 49.9758 24.7364 58.3333 35.0453 58.3333C45.3547 58.3333 53.7122 49.9758 53.7122 39.6664C53.6999 29.3623 45.3499 21.0123 35.0453 21ZM35.0453 56C26.0251 56 18.7122 48.6871 18.7122 39.6664C18.7122 30.6456 26.0251 23.3333 35.0453 23.3333C44.0661 23.3333 51.3789 30.6456 51.3789 39.6664C51.3693 48.6829 44.0623 55.9904 35.0453 56Z" fill="white"/>
<path d="M35.0456 24.5001C26.678 24.4921 19.8875 31.2688 19.8789 39.6364C19.8773 41.6193 20.2645 43.5836 21.0191 45.4176C21.0261 45.4411 21.0191 45.4651 21.0282 45.4886C21.0378 45.5121 21.0597 45.534 21.0715 45.5612C24.3207 53.2746 33.2079 56.8934 40.9213 53.6442C45.2376 51.8257 48.4702 48.114 49.6793 43.5895C49.6857 43.5703 49.6905 43.5505 49.6943 43.5307C51.8609 35.4729 47.0849 27.1843 39.0265 25.0182C37.7287 24.6694 36.3898 24.4948 35.0456 24.5001ZM35.0456 26.8334C42.1165 26.8169 47.8625 32.5356 47.879 39.6059C47.8812 40.5608 47.777 41.5125 47.5677 42.4434C46.9594 42.6447 46.3623 42.8787 45.7791 43.1435C44.2656 43.9291 42.5844 44.3372 40.8791 44.3334C39.427 44.3724 37.9925 44.0087 36.7338 43.2835C35.1498 42.4017 33.3585 41.959 31.5459 42.0001C28.5824 42.1208 25.6521 42.6709 22.8472 43.6333C20.648 36.9041 24.3201 29.6666 31.0493 27.4679C32.3395 27.046 33.6886 26.8318 35.0456 26.8334ZM35.0456 52.5002C30.3427 52.497 26.0174 49.9229 23.7711 45.7909C26.2801 44.9369 28.8981 44.4461 31.5459 44.3334C32.998 44.295 34.4325 44.6581 35.6908 45.3834C37.2753 46.2651 39.0665 46.7084 40.8791 46.6667C42.8386 46.6774 44.7735 46.2304 46.5295 45.3615C44.3671 49.7279 39.9184 52.4938 35.0456 52.5002Z" fill="white"/>
</g>
<defs>
<clipPath id="clip0">
<rect width="70" height="70" fill="white"/>
</clipPath>
</defs>
</svg>
