<svg width="102" height="103" viewBox="0 0 102 103" fill="none" xmlns="http://www.w3.org/2000/svg">
<g clip-path="url(#clip0)">
<path d="M84.9133 32.2259L86.0789 30.2071C86.7968 28.9636 84.9165 27.8754 84.1975 29.1208L83.0319 31.1396C82.314 32.3831 84.1943 33.4713 84.9133 32.2259Z" fill="white"/>
<path d="M74.3683 46.1464L73.2027 48.1652C72.4848 49.4087 74.3653 50.4964 75.0841 49.2514L76.2497 47.2326C76.9679 45.9887 75.0873 44.901 74.3683 46.1464Z" fill="white"/>
<path d="M90.3235 44.0991L88.3043 42.9333C87.0608 42.2154 85.9731 44.0959 87.218 44.8147L89.2373 45.9805C90.4808 46.6985 91.5685 44.8179 90.3235 44.0991Z" fill="white"/>
<path d="M87.7628 38.1346L90.5426 37.3894C91.9294 37.0182 91.3695 34.9192 89.9801 35.2915L87.2006 36.0362C85.8135 36.4079 86.3737 38.5064 87.7628 38.1346Z" fill="white"/>
<path d="M70.9913 40.3793L68.7396 40.9826C67.3525 41.3543 67.9128 43.4528 69.3014 43.0807L71.5535 42.4777C72.9406 42.106 72.3799 40.0072 70.9913 40.3793Z" fill="white"/>
<path d="M76.8558 31.7582C77.6865 32.2379 78.6993 31.4741 78.4482 30.5368L77.8444 28.2849C77.4732 26.8981 75.3742 27.458 75.7467 28.8469C76.3577 30.7987 76.2095 31.3851 76.8558 31.7582Z" fill="white"/>
<path d="M82.7911 46.7461C82.4195 45.359 80.3204 45.9189 80.6927 47.3083C81.4469 49.7714 81.284 50.3663 81.944 50.7473C82.7743 51.2267 83.7871 50.4629 83.5359 49.5256L82.7911 46.7461Z" fill="white"/>
<path d="M70.4649 29.0644L60.309 21.0071C59.5585 20.4122 58.4857 20.4922 57.8307 21.1734L57.8032 21.1575C49.6804 16.4678 39.2566 19.2608 34.5669 27.3837L29.5732 36.033L26.6892 34.368C25.6038 33.7413 24.211 34.1149 23.5843 35.2003L21.777 38.3306C21.1739 39.3753 21.4967 40.7041 22.4892 41.3616L12.5899 58.5076C11.872 59.7511 13.7518 60.839 14.4708 59.5936L24.3679 42.4514L29.3854 45.3483C30.6289 46.0662 31.7171 44.186 30.4717 43.4669L23.6949 39.5543C23.6468 39.5266 23.6299 39.4651 23.6577 39.4171L25.4652 36.2863C25.493 36.2382 25.5549 36.2216 25.603 36.2494L38.765 43.8484C38.8131 43.8762 38.8296 43.9381 38.8019 43.9862C36.9775 47.0589 37.0252 47.2506 36.8568 47.1534L34.234 45.6391C32.9905 44.9212 31.9023 46.8014 33.1477 47.5205L34.0114 48.0191L19.9579 72.3606C19.557 73.0549 18.6661 73.2937 17.9722 72.893L10.8465 68.779C10.1521 68.3781 9.91343 67.4872 10.3143 66.7929L12.2927 63.3662C13.0106 62.1227 11.1306 61.0353 10.4118 62.2803L8.4334 65.7069C7.43387 67.4382 8.02932 69.6604 9.76056 70.6599L16.8857 74.7737C18.6175 75.7735 20.8392 75.1778 21.8388 73.4465L28.2796 62.2906L32.9341 62.3509C33.9685 62.3645 34.9331 61.8157 35.4505 60.9196L37.7822 56.881C38.5715 55.5139 38.1013 53.7592 36.7342 52.9699L34.4293 51.6391L35.8946 49.1011C36.9602 49.632 38.2724 49.2472 38.8752 48.2029L40.6828 45.0722C41.3095 43.9867 40.9364 42.5942 39.8509 41.9675L36.967 40.3025L41.961 31.6526C44.2966 27.6072 49.488 26.2161 53.534 28.5521L53.5693 28.5725C53.306 29.483 53.7766 30.4528 54.6684 30.8029L66.7351 35.5417C67.5796 35.8729 68.5572 35.5305 69.0098 34.7443L70.9171 31.4316C71.3702 30.6457 71.1754 29.6277 70.4649 29.0644ZM35.6479 54.8513C35.9782 55.0419 36.0916 55.4653 35.9012 55.7951L33.5696 59.8337C33.4446 60.0501 33.2118 60.1826 32.9619 60.179L29.5245 60.1344L33.3433 53.52L35.6482 54.8508L35.6479 54.8513ZM40.0801 30.5667L35.0863 39.216L31.4541 37.119L36.4478 28.4696C40.5354 21.3896 49.6167 18.9513 56.7001 23.0285L54.6067 26.6635C49.5263 23.7395 43.0121 25.4883 40.0801 30.5667ZM55.8142 28.9192L59.255 22.9437L68.895 30.5913L67.2678 33.4166L55.8142 28.9192Z" fill="white"/>
<path d="M85.4803 40.7157C84.6617 39.2177 82.476 35.5716 79.8776 34.0714C77.6694 32.7965 75.1047 33.3925 73.9122 35.4579C72.7194 37.5238 73.4857 40.0429 75.6939 41.3178C78.2922 42.818 82.5428 42.8878 84.2493 42.8478C85.3302 42.8228 85.9977 41.6621 85.4803 40.7157ZM76.7801 39.4364C75.6068 38.759 75.201 37.5695 75.7931 36.5439C76.3852 35.5183 77.6184 35.275 78.7917 35.9524C80.4601 36.9156 82.0402 39.1901 82.9468 40.674C81.2084 40.6309 78.4486 40.3997 76.7801 39.4364Z" fill="white"/>
</g>
<defs>
<clipPath id="clip0">
<rect width="74.2692" height="74.2692" fill="white" transform="translate(37.1348 0.705078) rotate(30)"/>
</clipPath>
</defs>
</svg>
