<svg width="62" height="62" viewBox="0 0 62 62" fill="none" xmlns="http://www.w3.org/2000/svg">
<g clip-path="url(#clip0)">
<path d="M59.352 55.687H58.7233V34.5587C58.7233 34.0713 58.3283 33.6763 57.8409 33.6763C57.3535 33.6763 56.9585 34.0713 56.9585 34.5587V55.687H53.9408V5.66464C53.9408 5.19818 53.5788 4.81734 53.1206 4.78538C53.111 4.78465 53.1014 4.78429 53.0919 4.78392C53.0807 4.78356 53.0698 4.78223 53.0586 4.78223H8.94071C8.93005 4.78223 8.91964 4.78344 8.90898 4.7838C8.89663 4.78429 8.88428 4.78465 8.87193 4.78562C8.84638 4.78755 8.82131 4.79082 8.79649 4.79494C8.78862 4.79627 8.78075 4.797 8.773 4.79857C8.73873 4.80511 8.70518 4.81359 8.67249 4.824C8.67031 4.82473 8.66825 4.8257 8.66607 4.8263C8.63568 4.83623 8.60625 4.84798 8.57743 4.86106C8.56968 4.86457 8.56217 4.86832 8.55454 4.87208C8.5302 4.88395 8.50647 4.8969 8.48334 4.91095C8.47862 4.91373 8.47365 4.91579 8.46905 4.91882C8.46651 4.92052 8.46421 4.92245 8.46166 4.92415C8.43272 4.94292 8.40475 4.96278 8.37835 4.98457C8.37738 4.98542 8.37654 4.98627 8.37569 4.987C8.35098 5.0077 8.32761 5.02986 8.30533 5.05311C8.29831 5.06038 8.29165 5.06813 8.28487 5.07564C8.26852 5.0938 8.25302 5.11257 8.23825 5.13207C8.23231 5.13994 8.22626 5.14757 8.22069 5.15556C8.20264 5.18099 8.18581 5.20727 8.17055 5.23463C8.16959 5.23633 8.1685 5.2379 8.16753 5.2396C8.15094 5.26975 8.13641 5.30111 8.12333 5.33332C8.12091 5.33938 8.11897 5.34555 8.11667 5.35161C8.10698 5.37716 8.09838 5.4032 8.091 5.42996C8.08845 5.43904 8.08615 5.44824 8.08397 5.45745C8.07792 5.48239 8.0732 5.5077 8.06932 5.53337C8.06799 5.54257 8.06617 5.55166 8.06508 5.56086C8.06109 5.59489 8.05842 5.6294 8.05842 5.66452V55.6869H5.04077V34.5623C5.04077 34.0749 4.64576 33.6799 4.15836 33.6799C3.67095 33.6799 3.27595 34.0749 3.27595 34.5623V55.687H2.64723C1.56295 55.687 0.680664 56.5693 0.680664 57.6536V60.0333C0.680664 61.1176 1.56295 61.9999 2.64723 61.9999H59.3519C60.4362 61.9999 61.3185 61.1176 61.3185 60.0333V57.6536C61.3187 56.5693 60.4364 55.687 59.352 55.687ZM52.173 7.06V55.687H50.9871L39.8886 51.5382V12.8885L52.173 7.06ZM49.1369 6.54705L39.0432 11.3362C38.4761 11.6053 38.1238 12.1413 38.1238 12.7352V51.7037C38.1238 52.3468 38.5388 52.9176 39.1812 53.158L45.9471 55.687H16.049L22.815 53.1578C23.4573 52.9177 23.8723 52.347 23.8723 51.7037V12.7353C23.8723 12.1416 23.5202 11.6055 22.9531 11.3363L12.8591 6.54705H49.1369ZM9.823 7.06L22.1074 12.8885V51.5385L11.0089 55.6871H9.823V7.06ZM59.3522 60.2352H2.64735C2.53606 60.2352 2.44548 60.1446 2.44548 60.0333V57.6536C2.44548 57.5423 2.53606 57.4517 2.64735 57.4517H4.15836H8.94071H11.1685H50.8275H53.0553H53.0586H57.841H59.352C59.4633 57.4517 59.5539 57.5423 59.5539 57.6536V60.0333C59.554 60.1446 59.4634 60.2352 59.3522 60.2352Z" fill="white" stroke="white" stroke-width="0.3"/>
<path d="M56.4404 0H5.55947C4.30046 0 3.27637 1.02421 3.27637 2.28322V30.3138C3.27637 30.8012 3.67138 31.1962 4.15878 31.1962C4.64618 31.1962 5.04119 30.8012 5.04119 30.3138V2.28322C5.04119 1.99732 5.27381 1.7647 5.55971 1.7647H56.4406C56.7265 1.7647 56.9592 1.99732 56.9592 2.28322V30.3603C56.9592 30.8477 57.3542 31.2427 57.8416 31.2427C58.329 31.2427 58.724 30.8477 58.724 30.3603V2.28322C58.7237 1.02421 57.6995 0 56.4404 0Z" fill="white" stroke="white" stroke-width="0.3"/>
<path d="M49.3005 11.2656C49.1344 11.2656 48.9687 11.3046 48.8215 11.3781L42.6597 14.4603C42.3094 14.6354 42.0918 14.9837 42.0918 15.3691V30.1565C42.0917 30.7261 42.5727 31.1928 43.1636 31.1966L49.3179 31.2364C49.3199 31.2364 49.3235 31.2364 49.3255 31.2364C49.9118 31.2364 50.3887 30.7733 50.3887 30.204V12.3202C50.3887 11.7387 49.9006 11.2656 49.3005 11.2656ZM48.6237 29.4672L43.8563 29.4365V15.8347L48.6237 13.4502V29.4672Z" fill="white" stroke="white" stroke-width="0.3"/>
<path d="M49.3152 32.4834L43.1601 32.5453C42.5711 32.5516 42.0918 33.0186 42.0918 33.5863V49.1302C42.0917 49.5467 42.3463 49.9174 42.7416 50.0751L48.9026 52.5226C49.0291 52.5729 49.1627 52.5983 49.3 52.5983C49.9003 52.5983 50.3887 52.1248 50.3887 51.543V33.5151C50.3887 32.9462 49.9122 32.4834 49.3152 32.4834ZM48.6238 50.5129L43.8564 48.619V34.3031L48.6238 34.255V50.5129Z" fill="white" stroke="white" stroke-width="0.3"/>
<path d="M18.8365 32.5453L12.6708 32.4834C12.0849 32.4834 11.6084 32.9462 11.6084 33.5151V51.543C11.6083 52.1248 12.0966 52.5983 12.6969 52.5983C12.8342 52.5983 12.9678 52.5727 13.0941 52.5226L19.2558 50.0749C19.6503 49.918 19.9051 49.5471 19.9051 49.1303V33.5863C19.9051 33.0186 19.4258 32.5516 18.8365 32.5453ZM18.1404 48.6193L13.373 50.5131V34.2552L18.1404 34.3032V48.6193Z" fill="white" stroke="white" stroke-width="0.3"/>
<path d="M19.3377 14.4603L13.1755 11.3781C13.0283 11.3046 12.8627 11.2656 12.6965 11.2656C12.0965 11.2656 11.6084 11.7387 11.6084 12.3202V30.2041C11.6084 30.7733 12.0854 31.2365 12.6715 31.2365C12.6734 31.2365 12.6769 31.2365 12.6789 31.2365L18.8333 31.1967C19.4244 31.1929 19.9053 30.7262 19.9053 30.1565V15.3691C19.9053 14.9841 19.688 14.6359 19.3377 14.4603ZM18.1406 29.4365L13.3731 29.4672V13.4502L18.1406 15.8347V29.4365Z" fill="white" stroke="white" stroke-width="0.3"/>
</g>
<defs>
<clipPath id="clip0">
<rect width="62" height="62" fill="white"/>
</clipPath>
</defs>
</svg>
