<svg width="64" height="64" viewBox="0 0 64 64" fill="none" xmlns="http://www.w3.org/2000/svg">
<g clip-path="url(#clip0)">
<path d="M34.7804 31.4743C34.6061 31.2165 34.3153 31.0623 34.0042 31.0623H31.3808L32.8706 27.3379C33.0629 26.8571 32.8291 26.3115 32.3483 26.1193C31.8674 25.9265 31.3219 26.1608 31.1297 26.6415L29.1257 31.6517C29.0102 31.9405 29.0453 32.2679 29.2198 32.5254C29.3942 32.783 29.685 32.9373 29.996 32.9373H32.6194L31.1297 36.6617C30.9373 37.1424 31.1712 37.6881 31.6519 37.8803C31.7662 37.9261 31.8839 37.9477 31.9998 37.9477C32.3719 37.9477 32.7239 37.7247 32.8706 37.3582L34.8746 32.348C34.9901 32.0592 34.9549 31.7318 34.7804 31.4743Z" fill="white"/>
<path d="M58.8312 5.37018C55.5016 1.98805 51.0633 0.0817945 46.3339 0.00254431C41.6147 -0.0779559 37.1096 1.75417 33.6492 5.15705C30.0953 8.65181 28.0572 13.4871 28.0572 18.4227V22.0442H24.9867C23.3646 22.0442 22.0451 23.3638 22.0451 24.9857V39.0139C22.0451 40.6359 23.3648 41.9554 24.9867 41.9554H28.0572V46.028C28.0572 48.8563 26.8533 51.5744 24.754 53.4853C22.6279 55.4207 19.8729 56.3374 16.9979 56.0668C11.8894 55.5859 7.88787 51.0345 7.88787 45.7051C7.88787 45.1874 7.46812 44.7676 6.95037 44.7676C6.43261 44.7676 6.01286 45.1874 6.01286 45.7051C6.01286 48.7286 7.10274 51.6453 9.08162 53.9178C11.0924 56.2268 13.8414 57.6529 16.8221 57.9334C17.2136 57.9703 17.6029 57.9885 17.9896 57.9885C20.9698 57.9885 23.7845 56.9033 26.0163 54.8718C28.5049 52.6063 29.9323 49.3829 29.9323 46.028V41.9554H34.0694V45.5769C34.0694 50.0133 32.2354 54.3612 29.0377 57.5057C25.9385 60.5533 21.9136 62.1929 17.699 62.1223C13.4641 62.0514 9.48912 60.3438 6.50662 57.314C3.52048 54.2808 1.87611 50.2726 1.87611 46.0279V33.0019C1.87611 32.9662 1.90498 32.9374 1.94061 32.9374H5.94861C5.98424 32.9374 6.01311 32.9662 6.01311 33.0019V41.6443C6.01311 42.162 6.43286 42.5818 6.95062 42.5818C7.46837 42.5818 7.88812 42.162 7.88812 41.6443V33.0019C7.88812 31.9324 7.01812 31.0624 5.94861 31.0624H4.88199V25.9877C4.88199 25.47 4.46224 25.0502 3.94448 25.0502C3.42673 25.0502 3.00698 25.47 3.00698 25.9877V31.0624H1.94048C0.870978 31.0624 0.000976562 31.9324 0.000976562 33.0019V46.0279C0.000976562 50.768 1.83686 55.2434 5.17036 58.6294C8.49999 62.0115 12.9383 63.9179 17.6676 63.997C17.7656 63.9987 17.863 63.9995 17.9608 63.9995C22.5733 63.9995 26.9638 62.1749 30.3523 58.8425C33.9062 55.3478 35.9443 50.5125 35.9443 45.5769V41.9554H39.0148C40.6368 41.9554 41.9563 40.6357 41.9563 39.0139V24.9858C41.9563 23.3638 40.6367 22.0443 39.0148 22.0443H35.9443V17.9717C35.9443 15.1434 37.1482 12.4253 39.2474 10.5144C41.3736 8.57906 44.1284 7.66256 47.0036 7.93294C52.1121 8.41381 56.1136 12.9652 56.1136 18.2946C56.1136 18.8123 56.5333 19.2321 57.0511 19.2321C57.5688 19.2321 57.9886 18.8123 57.9886 18.2946C57.9886 15.2711 56.8987 12.3544 54.9198 10.0819C52.9091 7.77293 50.1601 6.34681 47.1793 6.06631C43.7712 5.74556 40.5066 6.83281 37.9852 9.12794C35.4966 11.3934 34.0692 14.6168 34.0692 17.9717V22.0443H29.9319V18.4228C29.9319 13.9864 31.7659 9.63856 34.9637 6.49406C38.0628 3.44643 42.0882 1.8078 46.3023 1.87742C50.5372 1.9483 54.5122 3.65593 57.4947 6.68568C60.4809 9.71894 62.1252 13.7271 62.1252 17.9718V30.9979C62.1252 31.0335 62.0964 31.0624 62.0607 31.0624H58.0527C58.0171 31.0624 57.9882 31.0335 57.9882 30.9979V22.3555C57.9882 21.8377 57.5685 21.418 57.0507 21.418C56.533 21.418 56.1132 21.8377 56.1132 22.3555V30.9979C56.1132 32.0674 56.9832 32.9374 58.0527 32.9374H59.1192V38.012C59.1192 38.5297 59.539 38.9495 60.0567 38.9495C60.5745 38.9495 60.9942 38.5297 60.9942 38.012V32.9374H62.0607C63.1302 32.9374 64.0002 32.0674 64.0002 30.9979V17.9717C64.0006 13.2316 62.1647 8.75644 58.8312 5.37018ZM39.0148 23.9193C39.6028 23.9193 40.0813 24.3978 40.0813 24.9858V39.014C40.0813 39.6021 39.6028 40.0805 39.0148 40.0805H24.9867C24.3985 40.0805 23.9201 39.602 23.9201 39.014V24.9858C23.9201 24.3977 24.3987 23.9193 24.9867 23.9193H39.0148Z" fill="white"/>
<path d="M2.77822 22.5626L1.77622 20.5586C1.54472 20.0954 0.981595 19.9076 0.518469 20.1393C0.055343 20.3708 -0.132407 20.9339 0.0992182 21.3971L1.10122 23.4011C1.26547 23.7296 1.59647 23.9195 1.94047 23.9195C2.08135 23.9195 2.22435 23.8876 2.35897 23.8203C2.8221 23.5888 3.00985 23.0257 2.77822 22.5626Z" fill="white"/>
<path d="M7.36868 20.1393C6.90556 19.9075 6.34243 20.0955 6.11093 20.5585L5.10893 22.5626C4.87743 23.0257 5.06505 23.5888 5.52818 23.8203C5.66281 23.8877 5.80581 23.9194 5.94668 23.9194C6.29056 23.9194 6.62168 23.7294 6.78593 23.4011L7.78793 21.397C8.01956 20.9339 7.83181 20.3708 7.36868 20.1393Z" fill="white"/>
<path d="M63.9003 42.6036L62.8983 40.5996C62.6668 40.1364 62.1038 39.9486 61.6405 40.1803C61.1774 40.4118 60.9897 40.975 61.2213 41.4381L62.2233 43.4421C62.3875 43.7706 62.7185 43.9605 63.0625 43.9605C63.2034 43.9605 63.3464 43.9286 63.481 43.8613C63.9442 43.6298 64.1319 43.0667 63.9003 42.6036Z" fill="white"/>
<path d="M58.4713 40.1803C58.0081 39.9486 57.4451 40.1366 57.2135 40.5996L56.2115 42.6036C55.9799 43.0667 56.1676 43.6298 56.6308 43.8613C56.7654 43.9287 56.9084 43.9604 57.0493 43.9604C57.3931 43.9604 57.7243 43.7704 57.8885 43.4421L58.8905 41.4381C59.1221 40.9749 58.9344 40.4118 58.4713 40.1803Z" fill="white"/>
</g>
<defs>
<clipPath id="clip0">
<rect width="64" height="64" fill="white"/>
</clipPath>
</defs>
</svg>
