<svg width="62" height="62" viewBox="0 0 62 62" fill="none" xmlns="http://www.w3.org/2000/svg">
<g clip-path="url(#clip0)">
<path d="M27.5359 -0.0426665L27.5361 -0.0439802L27.5444 -0.0429389L27.5474 -0.0425258L27.5491 -0.0422581L27.5501 -0.0420864L27.5526 -0.0415611L27.5566 -0.0404188C27.5575 -0.0401256 27.5596 -0.0393928 27.5623 -0.0381516C27.5636 -0.0375293 27.5659 -0.0363819 27.5686 -0.0346204C27.5707 -0.0331919 27.5761 -0.0294664 27.581 -0.0228873C27.5862 -0.0159116 27.5941 -0.000986521 27.5897 0.0183453C27.5855 0.0362433 27.5735 0.0455915 27.5682 0.0489908C27.559 0.054963 27.5501 0.0562668 27.5491 0.0564104C27.5491 0.0564159 27.5491 0.0564197 27.549 0.056422C27.5449 0.0571 27.5415 0.0570829 27.541 0.0570803C27.541 0.0570802 27.541 0.0570801 27.5409 0.0570801V0.0574472L27.5349 0.0567156L27.5251 0.0554164L27.5244 0.0553327L27.5244 0.0553285L27.5228 0.0551103L27.523 0.0537242M27.5359 -0.0426665C27.536 -0.0426672 27.536 -0.042668 27.536 -0.0426687C27.5366 -0.042728 27.5371 -0.0427734 27.5376 -0.0428082L27.5303 0.00567627L27.5245 0.0543056C27.5241 0.0541568 27.5236 0.0539665 27.523 0.0537328C27.523 0.0537299 27.523 0.0537271 27.523 0.0537242M27.5359 -0.0426665L27.523 0.0537242M27.5359 -0.0426665C27.535 -0.0425715 27.534 -0.0424413 27.5329 -0.0422629C27.5329 -0.0422606 27.5328 -0.0422569 27.5328 -0.0422514C27.5318 -0.0421083 27.5229 -0.0408051 27.5137 -0.0348331C27.5085 -0.031434 27.4964 -0.0220861 27.4922 -0.00418849C27.4878 0.015143 27.4957 0.0300678 27.5009 0.0370431C27.5059 0.0436218 27.5112 0.047347 27.5134 0.0487751C27.516 0.0505361 27.5183 0.0516831 27.5196 0.052305C27.5209 0.052888 27.522 0.0533587 27.523 0.0537242" fill="white" stroke="white" stroke-width="0.1"/>
<path d="M27.5358 -0.0411323L27.536 -0.0425632C27.5326 -0.0431007 27.5275 -0.0438864 27.522 -0.0443739L27.5176 -0.0447626V-0.0445679C27.5176 -0.0445679 27.5176 -0.0445679 27.5175 -0.044568C27.5171 -0.04457 27.5142 -0.0445835 27.5106 -0.0440798C27.5106 -0.0440794 27.5106 -0.0440785 27.5106 -0.0440769C27.5101 -0.0440185 27.5019 -0.0430779 27.4932 -0.0382023C27.4891 -0.0359291 27.4746 -0.0271468 27.4693 -0.00754485C27.4632 0.0151029 27.4743 0.0318913 27.4798 0.03824C27.4853 0.0444714 27.4909 0.0477784 27.4928 0.0488709C27.4954 0.0503357 27.4976 0.0512691 27.4988 0.0517569C27.5012 0.0527392 27.5031 0.0533114 27.5039 0.053533L27.5075 0.0544048L27.5096 0.0547993L27.5104 0.0549267L27.5119 0.055125L27.5145 0.0554532L27.5215 0.0563704L27.5216 0.055267M27.5358 -0.0411323C27.5358 -0.041134 27.5358 -0.0411356 27.5358 -0.0411373C27.5355 -0.0412536 27.5352 -0.0413634 27.5349 -0.0414666L27.5283 0.00683594L27.5207 0.0553349C27.521 0.0553163 27.5213 0.0552942 27.5216 0.0552679C27.5216 0.0552676 27.5216 0.0552673 27.5216 0.055267M27.5358 -0.0411323L27.5216 0.055267M27.5358 -0.0411323C27.536 -0.0410535 27.5362 -0.0409717 27.5364 -0.0408868C27.5376 -0.0403993 27.5398 -0.0394663 27.5423 -0.0380019C27.5443 -0.0369098 27.5499 -0.033603 27.5553 -0.027372C27.5608 -0.0210236 27.572 -0.00423552 27.5659 0.018412C27.5606 0.0380137 27.5461 0.0467958 27.542 0.0490687C27.5333 0.0539449 27.5251 0.0548845 27.5246 0.0549422C27.5246 0.0549437 27.5245 0.0549446 27.5245 0.054945C27.5235 0.0550921 27.5225 0.0551951 27.5216 0.055267" fill="white" stroke="white" stroke-width="0.1"/>
<path d="M9.84321 1.86678H11.1662C13.7973 26.8168 11.6397 40.7432 9.84321 47.3718V18.6792C9.84321 18.1498 9.41432 17.7209 8.88489 17.7209C8.35546 17.7209 7.92656 18.1499 7.92656 18.6792V61.0917C7.92656 61.6211 8.35559 62.05 8.88489 62.05H27.4291C27.9585 62.05 28.3874 61.621 28.3874 61.0917V49.9878C28.3874 49.4584 27.9584 49.0295 27.4291 49.0295C26.8997 49.0295 26.4708 49.4585 26.4708 49.9878V60.1333H23.57C23.7645 56.9857 24.5023 46.8825 26.4708 36.3492V46.3547C26.4708 46.8841 26.8998 47.313 27.4291 47.313C27.9585 47.313 28.3874 46.884 28.3874 46.3547V6.62336L28.3875 3.7659L28.3875 1.80219L28.3876 1.15471L28.3876 0.973072L28.3876 0.92511L28.3877 0.912781L28.3877 0.910702L28.3879 0.908447H28.3877C28.3877 0.906521 28.3876 0.904667 28.3875 0.902962C28.3874 0.900429 28.3873 0.898224 28.3872 0.896599L28.3868 0.891121C28.3868 0.891083 28.3868 0.891041 28.3868 0.891003M9.84321 1.86678L28.334 0.836765C28.3348 0.846252 28.3354 0.85574 28.3359 0.865246C28.3363 0.87418 28.3366 0.883129 28.3368 0.892105L28.3868 0.891003M9.84321 1.86678V15.0461C9.84321 15.5752 9.41432 16.0044 8.88489 16.0044C8.35546 16.0044 7.92656 15.5754 7.92656 15.0461V0.908569C7.92656 0.379269 8.35546 -0.0497551 8.88489 -0.0497551H12.0249C12.0259 -0.0498123 12.0272 -0.0498734 12.0286 -0.0498734L12.0312 -0.0497551C12.0328 -0.0497551 12.0341 -0.0496445 12.0334 -0.0496941L12.0317 -0.0497551H15.5969L21.5691 -0.0459404L25.6748 -0.0433197L27.0279 -0.0424538L27.4071 -0.0422134L27.507 -0.0421486L27.5412 -0.0421257V-0.042511L27.5474 -0.0417442C27.5674 -0.039257 27.5883 -0.0363121 27.6093 -0.0322609C27.6233 -0.0295906 27.6368 -0.0263329 27.6491 -0.0233765L27.6509 -0.022934L27.6515 -0.0227814C27.6647 -0.0195999 27.6791 -0.0161324 27.6935 -0.0119743C27.7104 -0.00715256 27.7267 -0.00175095 27.7422 0.00350189L27.7425 0.00362778L27.7496 0.00582886L9.84321 1.86678ZM28.3868 0.891003C28.3864 0.871429 28.3854 0.852074 28.3839 0.832836L28.3839 0.832451C28.3831 0.824104 28.3824 0.815369 28.3815 0.806499C28.3811 0.802128 28.3806 0.797722 28.3801 0.793316L28.38 0.793037C28.3789 0.784069 28.3777 0.775204 28.3763 0.766464C28.3751 0.758553 28.3737 0.75074 28.3724 0.743046M28.3868 0.891003L28.3724 0.743046M28.2196 0.461613C28.2282 0.476749 28.236 0.492252 28.2437 0.507996M28.2196 0.461613C28.2145 0.452614 28.209 0.443851 28.2035 0.43507L28.1996 0.428795L28.1956 0.422436C28.1886 0.411335 28.1816 0.400219 28.1741 0.389442M28.2196 0.461613L28.2631 0.43692M28.2196 0.461613L28.2631 0.437012L28.2631 0.43692M28.2437 0.507996L28.1247 0.250484L28.1248 0.250622L28.1276 0.253609C28.138 0.264648 28.1494 0.276722 28.1601 0.289417L28.122 0.321747M28.2437 0.507996C28.2487 0.518288 28.2539 0.528336 28.2585 0.53875L28.2437 0.507996ZM28.1741 0.389442C28.1656 0.377213 28.1564 0.365345 28.1472 0.353477C28.1388 0.342701 28.1307 0.332043 28.122 0.321747M28.1741 0.389442L28.2151 0.360821M28.1741 0.389442L28.2152 0.360962C28.2151 0.360916 28.2151 0.360867 28.2151 0.360821M28.122 0.321747L28.1602 0.289433C28.1698 0.300777 28.1787 0.312576 28.1867 0.322842L28.187 0.323223C28.196 0.334766 28.2058 0.347504 28.2151 0.360821M28.122 0.321747L28.2151 0.360821M28.2631 0.43692C28.2725 0.453457 28.2808 0.470123 28.2886 0.485912L28.2887 0.486271C28.2907 0.490437 28.2933 0.495518 28.2959 0.50095C28.2987 0.506611 28.3016 0.51265 28.3042 0.51844C28.312 0.536148 28.3189 0.553856 28.3253 0.570705L28.3255 0.571136C28.3263 0.57354 28.3273 0.57613 28.3284 0.578854C28.3314 0.586952 28.3349 0.596218 28.3379 0.605156C28.3437 0.622513 28.3486 0.639828 28.353 0.656441L28.3531 0.656769L28.2631 0.43692ZM28.3724 0.743046C28.3698 0.728306 28.367 0.71273 28.3635 0.697102C28.3634 0.697067 28.3634 0.69701 28.3634 0.696976L28.3724 0.743046ZM27.8333 0.0405006L27.8331 0.0404205C27.8145 0.0317421 27.7954 0.0234451 27.7757 0.0158539C27.7756 0.0158081 27.7755 0.0157623 27.7754 0.0157166L27.7713 0.0138969C27.7701 0.0133743 27.7686 0.0126724 27.7668 0.0119057L27.8333 0.0405006ZM27.8333 0.0405006L27.834 0.0408325C27.844 0.0455322 27.8546 0.0505142 27.8651 0.0557823L27.8657 0.0560722L27.8333 0.0405006ZM27.9504 0.105022L27.9504 0.105007C27.9378 0.0968895 27.9252 0.0894089 27.9132 0.0823898C27.9132 0.0823631 27.9131 0.0823402 27.9131 0.0823135L27.8878 0.125454L27.9504 0.105022ZM27.9504 0.105022C27.9633 0.113369 27.9756 0.122131 27.9868 0.130135L27.9873 0.130516M27.9504 0.105022L27.9873 0.130516M27.9873 0.130516C27.9873 0.130535 27.9874 0.13055 27.9874 0.130569L27.9873 0.130516ZM28.028 0.161011C28.0281 0.161045 28.0281 0.161079 28.0282 0.161114L27.9968 0.20005L28.028 0.161011ZM28.0578 0.18631C28.0707 0.197506 28.0845 0.209595 28.0979 0.222687L28.0578 0.186291C28.0578 0.186298 28.0578 0.186302 28.0578 0.18631ZM26.4707 14.5268C23.4531 29.2381 20.2756 54.6242 19.6009 60.1333H21.6498C21.8861 56.2604 23.0071 40.7851 26.4707 27.4559V14.5268ZM19.8131 14.225L19.853 14.1948L19.8131 14.225C19.3213 13.5763 19.027 12.6502 18.8688 11.5873C18.7105 10.5235 18.6879 9.31757 18.7435 8.1049C18.8529 5.7133 19.2665 3.28967 19.5471 1.8669H16.7052C18.2041 12.3292 18.9145 21.915 18.8169 30.3745C18.7358 37.4016 18.0999 43.6779 16.9264 49.0287C15.649 54.8526 14.0093 58.3252 12.9382 60.1335H17.6699C18.0058 57.3784 19.1367 48.2537 20.5859 38.1991C22.89 22.2109 24.8695 11.5354 26.4708 6.46416V5.93898C26.2392 6.4948 25.9955 7.06861 25.7446 7.64265C24.3642 10.8014 23.4037 12.5482 22.6878 13.5206C22.3296 14.0071 22.0312 14.3019 21.77 14.4826C21.5078 14.6642 21.2849 14.7294 21.0809 14.7597C20.5879 14.8331 20.1253 14.6367 19.8131 14.225ZM16.9025 30.1255C16.9845 21.7485 16.2663 12.2448 14.7681 1.8669H13.0931C14.2631 13.0668 15.1345 28.7204 13.0036 41.74C11.856 48.7519 10.3045 52.1456 9.84297 53.0425V60.1333H10.6621C11.7183 58.72 13.7093 54.8837 15.1106 48.3569C16.232 43.1338 16.8351 37 16.9025 30.1255ZM26.0394 1.8669H21.5008C21.1447 3.58654 20.8165 5.7358 20.6877 7.72055C20.6227 8.7206 20.6085 9.67801 20.6665 10.5172C20.7217 11.3159 20.8422 12.0044 21.0449 12.52C21.518 11.9133 22.4736 10.3794 24.1327 6.54321C24.9045 4.75857 25.5988 3.00624 26.0394 1.8669Z" fill="white" stroke="white" stroke-width="0.1"/>
<path d="M27.5219 -0.0453626L27.5145 0.054334L27.4233 0.0498444L27.4258 -0.0500951C27.423 -0.0500951 27.4207 -0.0497733 27.4216 -0.0498774C27.4216 -0.0498782 27.4216 -0.0498799 27.4216 -0.0498824C27.422 -0.0499339 27.4252 -0.0503357 27.4289 -0.0503357C27.4603 -0.0503357 27.4913 -0.04839 27.5219 -0.0453626Z" fill="white" stroke="white" stroke-width="0.1"/>
<path d="M41.6176 44.3492C41.374 44.0236 41.0142 43.8405 40.6295 43.8405C40.5665 43.8405 40.503 43.8454 40.4393 43.8554C40.4393 43.8554 40.4393 43.8554 40.4393 43.8554L40.447 43.9048L41.6176 44.3492ZM41.6176 44.3492C41.6968 44.4551 41.7991 44.5919 41.897 44.8637C41.9944 45.134 42.0869 45.5363 42.1511 46.1742C42.2793 47.4497 42.2945 49.6744 42.0009 53.6844C41.8124 56.2585 41.5537 58.7633 41.4039 60.1333M41.6176 44.3492L41.4039 60.1333M41.4039 60.1333H43.0118C43.2334 58.4773 43.701 54.4838 43.7329 50.0744C43.7651 45.624 43.3531 40.7586 41.8024 37.4438C41.5532 36.9111 41.3359 36.5973 41.1699 36.4191C41.087 36.33 41.0177 36.2757 40.9646 36.2447C40.9098 36.2127 40.8776 36.2086 40.8669 36.2099C40.8599 36.2107 40.5182 36.2565 39.9134 37.1569C39.3091 38.0563 38.4471 39.8015 37.3973 43.1833C36.3725 46.4845 35.6551 49.7938 35.5297 50.3843V52.5917C35.7166 52.1086 35.9109 51.6146 36.1094 51.1206L41.4039 60.1333ZM35.5297 60.1333H39.4758C39.6161 58.8641 39.8817 56.3334 40.0773 53.7075C40.3712 49.7589 40.3545 47.6836 40.2693 46.6001C39.1677 48.5351 37.2765 53.097 35.5297 58.1338V60.1333ZM35.5631 42.6269L35.6109 42.6417L40.6489 34.3561L40.643 34.3064C40.643 34.3064 40.643 34.3064 40.643 34.3064C40.7257 34.2966 40.8073 34.2918 40.8884 34.2918C41.93 34.2919 42.8181 35.092 43.5383 36.6318C45.1488 40.0743 45.8442 45.2744 45.6108 52.0821C45.4904 55.594 45.1499 58.5912 44.9469 60.1333H49.142C48.5825 57.258 47.0812 49.2841 45.6874 39.6249C44.1187 28.754 42.3784 13.5201 42.8412 1.86678H40.5111C40.9299 11.4536 39.5984 20.6698 38.3824 26.7998C37.1385 33.0703 35.8028 37.3311 35.5296 38.1751V42.7354C35.5407 42.6992 35.5519 42.6631 35.5631 42.6269ZM52.1573 50.4616C51.8713 49.6867 50.779 46.4498 49.7353 39.6598C47.8266 27.2428 47.5462 12.434 47.6656 1.86678H44.759C43.9226 22.4041 50.0423 54.7522 51.0953 60.1333H52.1573V50.4616ZM53.1156 62.05H50.3094H50.3094H50.3094H50.3093H50.3093H50.3093H50.3092H50.3092H50.3092H50.3092H50.3091H50.3091H50.3091H50.3091H50.309H50.309H50.309H50.309H50.3089H50.3089H50.3089H50.3089H50.3088H50.3088H50.3088H50.3088H50.3087H50.3087H50.3087H50.3087H50.3086H50.3086H50.3086H50.3086H50.3085H50.3085H50.3085H50.3085H50.3084H50.3084H50.3084H50.3083H50.3083H50.3083H50.3083H50.3082H50.3082H50.3082H50.3082H50.3081H50.3081H50.3081H50.3081H50.308H50.308H50.308H50.308H50.3079H50.3079H50.3079H50.3079H50.3078H50.3078H50.3078H50.3077H50.3077H50.3077H50.3077H50.3076H50.3076H50.3076H50.3076H50.3075H50.3075H50.3075H50.3075H50.3074H50.3074H50.3074H50.3074H50.3073H50.3073H50.3073H50.3072H50.3072H50.3072H50.3072H50.3071H50.3071H50.3071H50.3071H50.307H50.307H50.307H50.307H50.3069H50.3069H50.3069H50.3069H50.3068H50.3068H50.3068H50.3067H50.3067H50.3067H50.3067H50.3066H50.3066H50.3066H50.3066H50.3065H50.3065H50.3065H50.3065H50.3064H50.3064H50.3064H50.3063H50.3063H50.3063H50.3063H50.3062H50.3062H50.3062H50.3062H50.3061H50.3061H50.3061H50.3061H50.306H50.306H50.306H50.306H50.3059H50.3059H50.3059H50.3058H50.3058H50.3058H50.3058H50.3057H50.3057H50.3057H50.3057H50.3056H50.3056H50.3056H50.3055H50.3055H50.3055H50.3055H50.3054H50.3054H50.3054H50.3054H50.3053H50.3053H50.3053H50.3053H50.3052H50.3052H50.3052H50.3051H50.3051H50.3051H50.3051H50.305H50.305H50.305H50.305H50.3049H50.3049H50.3049H50.3049H50.3048H50.3048H50.3048H50.3048H50.3047H50.3047H50.3047H50.3047H50.3046H50.3046H50.3046H50.3045H50.3045H50.3045H50.3045H50.3044H50.3044H50.3044H50.3044H50.3043H50.3043H50.3043H50.3043H50.3042H50.3042H50.3042H50.3041H50.3041H50.3041H50.3041H50.304H50.304H50.304H50.304H50.3039H50.3039H50.3039H50.3038H50.3038H50.3038H50.3038H50.3037H50.3037H50.3037H50.3037H50.3036H50.3036H50.3036H50.3036H50.3035H50.3035H50.3035H50.3035H50.3034H50.3034H50.3034H50.3033H50.3033H50.3033H50.3033H50.3033H50.3032H50.3032H50.3032H50.3031H50.3031H50.3031H50.3031H50.303H50.303H50.303H50.303H50.3029H50.3029H50.3029H50.3029H50.3028H50.3028H50.3028H50.3028H50.3027H50.3027H50.3027H50.3026H50.3026H40.3194H40.3194H40.3194H40.3194H40.3194H40.3194H40.3193H40.3193H40.3193H40.3193H40.3193H40.3193H40.3193H40.3193H40.3193H40.3193H40.3193H40.3193H40.3193H40.3193H40.3192H40.3192H40.3192H40.3192H40.3192H40.3192H40.3192H40.3192H40.3192H40.3192H40.3192H40.3192H40.3192H40.3192H40.3191H40.3191H40.3191H40.3191H40.3191H40.3191H40.3191H40.3191H40.3191H40.3191H40.3191H40.3191H40.3191H40.3191H40.319H40.319H40.319H40.319H40.319H40.319H40.319H40.319H40.319H40.319H40.319H40.319H40.319H40.319H40.3189H40.3189H40.3189H40.3189H40.3189H40.3189H40.3189H40.3189H40.3189H40.3189H40.3189H40.3189H40.3189H40.3189H40.3188H40.3188H40.3188H40.3188H40.3188H40.3188H40.3188H40.3188H40.3188H40.3188H40.3188H40.3188H40.3188H40.3188H40.3187H40.3187H40.3187H40.3187H40.3187H40.3187H40.3187H40.3187H40.3187H40.3187H40.3187H40.3187H40.3187H40.3187H40.3186H40.3186H40.3186H40.3186H40.3186H40.3186H40.3186H40.3186H40.3186H40.3186H40.3186H40.3186H40.3186H40.3186H40.3185H40.3185H40.3185H40.3185H40.3185H40.3185H40.3185H40.3185H40.3185H40.3185H40.3185H40.3185H40.3185H40.3185H40.3184H40.3184H40.3184H40.3184H40.3184H40.3184H40.3184H40.3184H40.3184H40.3184H40.3184H40.3184H40.3184H40.3184H40.3183H40.3183H40.3183H40.3183H40.3183H40.3183H40.3183H40.3183H40.3183H40.3183H40.3183H40.3183H40.3183H40.3183H40.3182H40.3182H40.3182H40.3182H40.3182H40.3182H40.3182H40.3182H40.3182H40.3182H40.3182H40.3182H40.3182H40.3182H40.3181H40.3181H40.3181H40.3181H40.3181H40.3181H40.3181H40.3181H40.3181H40.3181H40.3181H40.3181H40.3181H40.3181H40.318H40.318H40.318H40.318H40.318H40.318H40.318H40.318H40.318H40.318H40.318H40.318H40.318H40.318H40.3179H40.3179H40.3179H40.3179H40.3179H40.3179H40.3179H40.3179H40.3179H40.3179H40.3179H40.3179H40.3179H40.3179H40.3178H40.3178H40.3178H40.3178H40.3178H40.3178H40.3178H40.3178H40.3178H40.3178H40.3178H40.3178H40.3178H40.3178H40.3177H40.3177H40.3177H40.3177H40.3177H40.3177H40.3177H40.3177H40.3177H40.3177H40.3177H40.3177H40.3177H40.3176H40.3176H40.3176H40.3176H40.3176H40.3176H40.3176H40.3176H40.3176H40.3176H40.3176H40.3176H40.3176H40.3176H40.3175H40.3175H40.3175H40.3175H40.3175H40.3175H40.3175H40.3175H40.3175H40.3175H40.3175H40.3175H40.3175H40.3175H40.3174H40.3174H40.3174H40.3174H40.3174H40.3174H40.3174H40.3174H40.3174H40.3174H40.3174H40.3174H40.3174H40.3173H40.3173H40.3173H40.3173H40.3173H40.3173H40.3173H40.3173H40.3173H40.3173H40.3173H40.3173H40.3173H40.3173H40.3172H40.3172H40.3172H40.3172H40.3172H40.3172H40.3172H40.3172H40.3172H40.3172H40.3172H40.3172H40.3172H40.3172H40.3171H40.3171H40.3171H40.3171H40.3171H40.3171H40.3171H40.3171H40.3171H40.3171H40.3171H40.3171H40.3171H40.317H40.317H40.317H40.317H40.317H40.317H40.317H40.317H40.317H40.317H40.317H40.317H40.317H40.317H40.3169H40.3169H40.3169H40.3169H40.3169H40.3169H40.3169H40.3169H40.3169H40.3169H40.3169H40.3169H40.3169H40.3168H40.3168H40.3168H40.3168H40.3168H40.3168H40.3168H40.3168H40.3168H40.3168H40.3168H40.3168H40.3168H40.3168H40.3167H40.3167H40.3167H40.3167H40.3167H40.3167H40.3167H40.3167H40.3167H40.3167H40.3167H40.3167H40.3167H40.3166H40.3166H40.3166H40.3166H40.3166H40.3166H40.3166H40.3166H40.3166H40.3166H40.3166H40.3166H40.3166H40.3165H40.3165H40.3165H40.3165H40.3165H40.3165H40.3165H40.3165H40.3165H40.3165H40.3165H40.3165H40.3165H40.3165H40.3164H40.3164H40.3164H40.3164H40.3164H40.3164H40.3164H40.3164H40.3164H40.3164H40.3164H40.3164H40.3164H40.3163H40.3163H40.3163H40.3163H40.3163H40.3163H40.3163H40.3163H40.3163H40.3163H40.3163H40.3163H40.3163H40.3162H40.3162H40.3162H40.3162H40.3162H40.3162H40.3162H40.3162H40.3162H40.3162H40.3162H40.3162H40.3162H40.3161H40.3161H40.3161H40.3161H40.3161H40.3161H40.3161H40.3161H40.3161H40.3161H40.3161H40.3161H40.3161H40.316H40.316H40.316H40.316H40.316H40.316H40.316H40.316H40.316H40.316H40.316H40.316H40.316H40.3159H40.3159H40.3159H40.3159H40.3159H40.3159H40.3159H40.3159H40.3159H40.3159H40.3159H40.3159H40.3159H40.3158H40.3158H40.3158H40.3158H40.3158H40.3158H40.3158H40.3158H40.3158H40.3158H40.3158H40.3158H40.3158H40.3157H40.3157H40.3157H40.3157H40.3157H40.3157H40.3157H40.3157H40.3157H40.3157H40.3157H40.3157H40.3157H40.3156H40.3156H40.3156H34.5714C34.0421 62.05 33.6131 61.6211 33.6131 61.0917V50.2889V50.2889V50.2888V50.2888V50.2888V50.2888V50.2888V50.2888V50.2887V50.2887V50.2887V50.2887V50.2887V50.2886V50.2886V50.2886V50.2886V50.2886V50.2886V50.2885V50.2885V50.2885V50.2885V50.2885V50.2885V50.2884V50.2884V50.2884V50.2884V50.2884V50.2883V50.2883V50.2883V50.2883V50.2883V50.2883V50.2882V50.2882V50.2882V50.2882V50.2882V50.2882V50.2881V50.2881V50.2881V50.2881V50.2881V50.288V50.288V50.288V50.288V50.288V50.288V50.2879V50.2879V50.2879V50.2879V50.2879V50.2879V50.2878V50.2878V50.2878V50.2878V50.2878V50.2877V50.2877V50.2877V50.2877V50.2877V50.2877V50.2876V50.2876V50.2876V50.2876V50.2876V50.2875V50.2875V50.2875V50.2875V50.2875V50.2875V50.2874V50.2874V50.2874V50.2874V50.2874V50.2874V50.2873V50.2873V50.2873V50.2873V50.2873V50.2872V50.2872V50.2872V50.2872V50.2872V50.2872V50.2871V50.2871V50.2871V50.2871V50.2871V50.2871V50.287V50.287V50.287V50.287V50.287V50.2869V50.2869V50.2869V50.2869V50.2869V50.2869V50.2868V50.2868V50.2868V50.2868V50.2868V50.2867V50.2867V50.2867V50.2867V50.2867V50.2867V50.2866V50.2866V50.2866V50.2866V50.2866V50.2866V50.2865V50.2865V50.2865V50.2865V50.2865V50.2864V50.2864V50.2864V50.2864V50.2864V50.2864V50.2863V50.2863V50.2863V50.2863V50.2863V50.2863V50.2862V50.2862V50.2862V50.2862V50.2862V50.2861V50.2861V50.2861V50.2861V50.2861V50.2861V50.286V50.286V50.286V50.286V50.286V50.2859V50.2859V50.2859V50.2859V50.2859V50.2859V50.2858V50.2858V50.2858V50.2858V50.2858V50.2858V50.2857V50.2857V50.2857V50.2857V50.2857V50.2856V50.2856V50.2856V50.2856V50.2856V50.2856V50.2855V50.2855V50.2855V50.2855V50.2855V50.2854V50.2854V50.2854V50.2854V50.2854V50.2854V50.2853V50.2853V50.2853V50.2853V50.2853V50.2853V50.2852V50.2852V50.2852V50.2852V50.2852V50.2851V50.2851V50.2851V50.2851V50.2851V50.2851V50.285V50.285V50.285V50.285V50.285V50.285V50.2849V50.2849V50.2849V50.2849V50.2849V50.2848V50.2848V50.2848V50.2848V50.2848V50.2848V50.2847V50.2847V50.2847V50.2847V50.2847V50.2846V50.2846V50.2846V50.2846V50.2846V50.2846V50.2845V50.2845V50.2845V50.2845V50.2845V50.2844V50.2844V50.2844V50.2844V50.2844V50.2844V50.2843V50.2843V50.2843V50.2843V50.2843V50.2843V50.2842V50.2842V50.2842V50.2842V50.2842V50.2841V50.2841V50.2841V50.2841V50.2841V50.2841V50.284V50.284V50.284V50.284V50.284V50.2839V50.2839V50.2839V50.2839V50.2839V50.2839V50.2838V50.2838V50.2838V50.2838V50.2838V50.2837V50.2837V50.2837V50.2837V50.2837V50.2837V50.2836V50.2836V50.2836V50.2836V50.2836V50.2836V50.2835V50.2835V50.2835V50.2835V50.2835V50.2834V50.2834V50.2834V50.2834V50.2834V50.2834V50.2833V50.2833V50.2833V50.2833V50.2833V50.2832V50.2832V50.2832V50.2832V50.2832V50.2832V50.2831V50.2831V50.2831V50.2831V50.2831V50.283V50.283V50.283V50.283V50.283V50.283V50.2829V50.2829V50.2829V50.2829V50.2829V50.2828V50.2828V50.2828V50.2828V50.2828V50.2828V50.2827V50.2827V50.2827V50.2827V50.2827V50.2827V50.2826V50.2826V50.2826V50.2826V50.2826V50.2825V50.2825V50.2825V50.2825V50.2825V50.2825V50.2824V50.2824V50.2824V50.2824V50.2824V50.2823V50.2823V50.2823V50.2823V50.2823V50.2823V50.2822V50.2822V50.2822V50.2822V50.2822V50.2821V50.2821V50.2821V50.2821V50.2821V50.2821V50.282V50.282V50.282V50.282V50.282V50.2819V50.2819V50.2819V50.2819V50.2819V50.2819V50.2818V50.2818V50.2818V50.2818V50.2818V50.2817V50.2817V50.2817V50.2817V50.2817V50.2817V50.2816V50.2816V50.2816V50.2816V50.2816V50.2815V50.2815V50.2815V50.2815V50.2815V50.2815V50.2814V50.2814V50.2814V50.2814V50.2814V50.2813V50.2813V50.2813V50.2813V50.2813V50.2813V50.2812V50.2812V50.2812V50.2812V50.2812V50.2811V50.2811V50.2811V50.2811V50.2811V50.2811V50.281V50.281V50.281V50.281V50.281V50.2809V50.2809V50.2809V50.2809V50.2809V50.2809V50.2808V50.2808V50.2808V50.2808V50.2808V50.2807V50.2807V50.2807V50.2807V50.2807V50.2807V50.2806V50.2806V50.2806V50.2806V50.2806V50.2805V50.2805V50.2805V50.2805V50.2805V50.2804V50.2804V50.2804V50.2804V50.2804V50.2804V50.2803V50.2803V50.2803V50.2803V50.2803V50.2802V50.2802V50.2802V50.2802V50.2802V50.2802V50.2801V50.2801V50.2801V50.2801V50.2801V50.28V50.28V50.28V50.28V50.28V50.28V50.2799V50.2799V50.2799V50.2799V50.2799V50.2798V50.2798V50.2798V50.2798V50.2798V50.2797V50.2797V50.2797V50.2797V50.2797V38.0081V38.0081V38.0081V38.0081V38.008V38.008V38.008V38.008V38.008V38.0079V38.0079V38.0079V38.0079V38.0079V38.0078V38.0078V38.0078V38.0078V38.0078V38.0077V38.0077V38.0077V38.0077V38.0076V38.0076V38.0076V38.0076V38.0076V38.0075V38.0075V38.0075V38.0075V38.0075V38.0074V38.0074V38.0074V38.0074V38.0074V38.0073V38.0073V38.0073V38.0073V38.0072V38.0072V38.0072V38.0072V38.0072V38.0071V38.0071V38.0071V38.0071V38.0071V38.007V38.007V38.007V38.007V38.007V38.0069V38.0069V38.0069V38.0069V38.0069V38.0068V38.0068V38.0068V38.0068V38.0067V38.0067V38.0067V38.0067V38.0067V38.0066V38.0066V38.0066V38.0066V38.0066V38.0065V38.0065V38.0065V38.0065V38.0065V38.0064V38.0064V38.0064V38.0064V38.0064V38.0063V38.0063V38.0063V38.0063V38.0063V38.0062V38.0062V38.0062V38.0062V38.0061V38.0061V38.0061V38.0061V38.0061V38.006V38.006V38.006V38.006V38.006V38.0059V38.0059V38.0059V38.0059V38.0059V38.0058V38.0058V38.0058V38.0058V38.0058V38.0057V38.0057V38.0057V38.0057V38.0057V38.0056V38.0056V38.0056V38.0056V38.0056V38.0055V38.0055V38.0055V38.0055V38.0054V38.0054V38.0054V38.0054V38.0054V38.0053V38.0053V38.0053V38.0053V38.0053V38.0052V38.0052V38.0052V38.0052V38.0052V38.0051V38.0051V38.0051V38.0051V38.0051V38.005V38.005V38.005V38.005V38.005V38.0049V38.0049V38.0049V38.0049V38.0049V38.0048V38.0048V38.0048V38.0048V38.0047V38.0047V38.0047V38.0047V38.0047V38.0046V38.0046V38.0046V38.0046V38.0046V38.0045V38.0045V38.0045V38.0045V38.0045V38.0044V38.0044V38.0044V38.0044V38.0044V38.0043V38.0043V38.0043V38.0043V38.0043V38.0042V38.0042V38.0042V38.0042V38.0041V38.0041V38.0041V38.0041V38.0041V38.004V38.004V38.004V38.004V38.004V38.0039V38.0039V38.0039V38.0039V38.0039V38.0038V38.0038V38.0038V38.0038V38.0038V38.0037V38.0037V38.0037V38.0037V38.0036V38.0036V38.0036V38.0036V38.0036V38.0035V38.0035V38.0035V38.0035V38.0035V38.0034V38.0034V38.0034V38.0034V38.0034V38.0033V38.0033V38.0033V38.0033V38.0033V38.0032V38.0032V38.0032V38.0032V38.0031V38.0031V38.0031V38.0031V38.0031V38.003V38.003V38.003V38.003V38.003V38.0029V38.0029V38.0029V38.0029V38.0028V38.0028V38.0028V0.908447C33.6131 0.379147 34.042 -0.0498734 34.5714 -0.0498734H53.1156C53.6449 -0.0498734 54.074 0.379017 54.074 0.908447V13.8162C54.074 14.3455 53.6451 14.7745 53.1156 14.7745C52.5863 14.7745 52.1573 14.3457 52.1573 13.8162V1.8669H49.5824C49.4638 12.3128 49.7367 26.9532 51.6079 39.2256C51.7908 40.4254 51.9757 41.5128 52.1574 42.4938V17.4493C52.1574 16.92 52.5863 16.491 53.1158 16.491C53.6451 16.491 54.0741 16.9198 54.0741 17.4493V50.2938V50.2939V50.2939V50.2939V50.2939V50.2939V50.294V50.294V50.294V50.294V50.294V50.294V50.2941V50.2941V50.2941V50.2941V50.2941V50.2942V50.2942V50.2942V50.2942V50.2942V50.2943V50.2943V50.2943V50.2943V50.2943V50.2943V50.2944V50.2944V50.2944V50.2944V50.2944V50.2945V50.2945V50.2945V50.2945V50.2945V50.2946V50.2946V50.2946V50.2946V50.2946V50.2946V50.2947V50.2947V50.2947V50.2947V50.2947V50.2948V50.2948V50.2948V50.2948V50.2948V50.2949V50.2949V50.2949V50.2949V50.2949V50.295V50.295V50.295V50.295V50.295V50.295V50.2951V50.2951V50.2951V50.2951V50.2951V50.2952V50.2952V50.2952V50.2952V50.2952V50.2953V50.2953V50.2953V50.2953V50.2953V50.2953V50.2954V50.2954V50.2954V50.2954V50.2954V50.2955V50.2955V50.2955V50.2955V50.2955V50.2956V50.2956V50.2956V50.2956V50.2956V50.2957V50.2957V50.2957V50.2957V50.2957V50.2957V50.2958V50.2958V50.2958V50.2958V50.2958V50.2959V50.2959V50.2959V50.2959V50.2959V50.296V50.296V50.296V50.296V50.296V50.2961V50.2961V50.2961V50.2961V50.2961V50.2962V50.2962V50.2962V50.2962V50.2962V50.2962V50.2963V50.2963V50.2963V50.2963V50.2963V50.2964V50.2964V50.2964V50.2964V50.2964V50.2965V50.2965V50.2965V50.2965V50.2965V50.2966V50.2966V50.2966V50.2966V50.2966V50.2966V50.2967V50.2967V50.2967V50.2967V50.2967V50.2968V50.2968V50.2968V50.2968V50.2968V50.2969V50.2969V50.2969V50.2969V50.2969V50.297V50.297V50.297V50.297V50.297V50.2971V50.2971V50.2971V50.2971V50.2971V50.2971V50.2972V50.2972V50.2972V50.2972V50.2972V50.2973V50.2973V50.2973V50.2973V50.2973V50.2974V50.2974V50.2974V50.2974V50.2974V50.2975V50.2975V50.2975V50.2975V50.2975V50.2975V50.2976V50.2976V50.2976V50.2976V50.2976V50.2977V50.2977V50.2977V50.2977V50.2977V50.2978V50.2978V50.2978V50.2978V50.2978V50.2978V50.2979V50.2979V50.2979V50.2979V50.2979V50.298V50.298V50.298V50.298V50.298V50.2981V50.2981V50.2981V50.2981V50.2981V50.2981V50.2982V50.2982V50.2982V50.2982V50.2982V50.2983V50.2983V50.2983V50.2983V50.2983V50.2984V50.2984V50.2984V50.2984V50.2984V50.2984V50.2985V50.2985V50.2985V50.2985V50.2985V50.2986V50.2986V50.2986V50.2986V50.2986V50.2987V50.2987V50.2987V61.0917C54.074 61.6211 53.6451 62.05 53.1156 62.05ZM35.5297 30.8577C37.1294 24.0974 39.0997 13.1702 38.5927 1.86678H35.5297V30.8577Z" fill="white" stroke="white" stroke-width="0.1"/>
</g>
<defs>
<clipPath id="clip0">
<rect width="62" height="62" fill="white" transform="matrix(1 0 0 -1 0 62)"/>
</clipPath>
</defs>
</svg>
