<svg width="64" height="64" viewBox="0 0 64 64" fill="none" xmlns="http://www.w3.org/2000/svg">
<g clip-path="url(#clip0)">
<path d="M64.0001 61.9355H61.9355V64.0001H64.0001V61.9355Z" fill="white" stroke="white" stroke-width="0.3"/>
<path d="M54.7097 16.5161H59.0059L62.9677 15.1959V0H36.129V15.1959L40.0908 16.5161H44.3871V18.5806H22.3422C24.4521 16.8764 25.8064 14.272 25.8064 11.3548V10.3226V8.25806C25.8064 4.53368 22.9729 1.45858 19.3486 1.07458C18.9966 0.437677 18.3267 0 17.5484 0H15.4839C14.7055 0 14.0356 0.437677 13.6836 1.07458C10.0594 1.45858 7.22581 4.53368 7.22581 8.25806V10.3226V11.3548C7.22581 14.272 8.58013 16.8764 10.6901 18.5806H9.29032C4.16826 18.5806 0 22.7479 0 27.871V38.1935C0 41.6093 2.77781 44.3871 6.19355 44.3871V61.9355H0V64H6.19355H26.8387H44.3871H54.7097H59.871V61.9355H54.7097V16.5161ZM19.6129 3.20103C21.9654 3.68 23.7419 5.76516 23.7419 8.25806H19.6129V3.20103ZM15.4839 2.06452H17.5484V8.25806H15.4839V2.06452ZM15.4839 10.3226H17.5484H19.6129H21.7208C20.5523 10.8738 18.8645 11.3548 16.5161 11.3548C14.1357 11.3548 12.4408 10.8748 11.2774 10.3226H13.4194H15.4839ZM13.4194 3.20103V8.25806H9.29032C9.29032 5.76516 11.0668 3.68 13.4194 3.20103ZM9.30064 11.5675C10.7221 12.481 13.024 13.4194 16.5161 13.4194C20.0083 13.4194 22.3102 12.481 23.7316 11.5675C23.617 15.4529 20.4284 18.5806 16.5161 18.5806C12.6039 18.5806 9.41523 15.4529 9.30064 11.5675ZM18.048 20.6452L16.5161 24.2178L14.9843 20.6452H18.048ZM10.3226 24.7742V20.6452H12.7391L15.4839 27.0503V32H8.25806V27.681C9.45652 27.2537 10.3226 26.1182 10.3226 24.7742ZM8.25806 40.2581V38.1935H15.4839V40.2581H8.25806ZM10.3226 42.3226V43.3548C10.3226 44.4934 9.39664 45.4194 8.25806 45.4194V42.3226H10.3226ZM8.25806 36.129V34.0645H15.4839V36.129H8.25806ZM6.19355 42.3226C4.672 42.3226 3.35484 41.4865 2.63845 40.2581H6.19355V42.3226ZM7.22581 25.8064H6.19355V38.1935H2.06452V27.871C2.06452 24.2385 4.76181 21.2315 8.25806 20.7277V24.7742C8.25806 25.344 7.79458 25.8064 7.22581 25.8064ZM15.4839 61.9355H8.25806V59.871H15.4839V61.9355ZM24.7742 61.9355H17.5484V59.871H24.7742V61.9355ZM24.7742 57.8064H17.5484V46.4516H15.4839V57.8064H8.25806V47.4839C10.5352 47.4839 12.3871 45.632 12.3871 43.3548V42.3226H20.6452V43.3548C20.6452 45.632 22.497 47.4839 24.7742 47.4839V57.8064ZM24.7742 45.4194C23.6356 45.4194 22.7097 44.4934 22.7097 43.3548V42.3226H24.7742V45.4194ZM24.7742 40.2581H17.5484V38.1935H24.7742V40.2581ZM24.7742 36.129H17.5484V34.0645H24.7742V36.129ZM24.7742 32H17.5484V27.0503L20.2932 20.6452H22.7097V24.7742C22.7097 26.1182 23.5757 27.2537 24.7742 27.681V32ZM25.8064 25.8064C25.2377 25.8064 24.7742 25.344 24.7742 24.7742V20.6452H39.2258V25.8064H25.8064ZM44.3871 61.9355H26.8387V27.871H44.3871V61.9355ZM44.3871 25.8064H41.2903V20.6452H44.3871V25.8064ZM52.6452 18.975L49.087 20.7546L50.0108 22.6013L52.6452 21.2831V31.3621L49.087 33.1417L50.0108 34.9884L52.6452 33.6702V43.7492L49.087 45.5288L50.0108 47.3755L52.6452 46.0573V56.1363L49.087 57.9159L50.0108 59.7626L52.6452 58.4444V61.9355H46.4516V54.3154L50.0098 52.5357L49.0859 50.689L46.4516 52.0072V41.9283L50.0098 40.1486L49.0859 38.3019L46.4516 39.6201V29.5412L50.0098 27.7615L49.0859 25.9148L46.4516 27.233V16.5161H52.6452V18.975ZM52.6452 10.3226V14.4516H50.5806V10.3226H48.5161V14.4516H46.4516V10.3226H44.3871V14.4516H42.3226V10.3226H40.2581V14.3959L38.1935 13.7074V6.19355H56.7742V4.12903H38.1935V2.06452H60.9032V4.12903H58.8387V6.19355H60.9032V13.7074L58.8387 14.3959V10.3226H56.7742V14.4516H54.7097V10.3226H52.6452Z" fill="white" stroke="white" stroke-width="0.3"/>
<path d="M37.1611 56.7744V58.8389H37.3377C38.9449 58.8389 40.4561 59.4645 41.5926 60.601L43.0522 59.1414C41.5255 57.6147 39.4961 56.7744 37.3377 56.7744H37.1611Z" fill="white" stroke="white" stroke-width="0.3"/>
<path d="M40.0845 53.7305L40.4314 54.2508L42.149 53.106L41.8022 52.5857C40.5356 50.6843 38.4143 49.5488 36.1289 49.5488V51.6133C37.7217 51.6133 39.2009 52.4051 40.0845 53.7305Z" fill="white" stroke="white" stroke-width="0.3"/>
<path d="M61.936 56.7744H61.7595C59.6011 56.7744 57.5716 57.6147 56.0449 59.1414L57.5045 60.601C58.6411 59.4645 60.1523 58.8389 61.7595 58.8389H61.936V56.7744Z" fill="white" stroke="white" stroke-width="0.3"/>
<path d="M57.2951 52.5847L56.9482 53.105L58.6659 54.2497L59.0128 53.7295C59.8964 52.4051 61.3756 51.6133 62.9684 51.6133V49.5488C60.683 49.5488 58.5617 50.6843 57.2951 52.5847Z" fill="white" stroke="white" stroke-width="0.3"/>
</g>
<defs>
<clipPath id="clip0">
<rect width="64" height="64" fill="white"/>
</clipPath>
</defs>
</svg>
