<svg width="66" height="52" viewBox="0 0 66 52" fill="none" xmlns="http://www.w3.org/2000/svg">
<path d="M4.93893 30.0765C5.02648 30.6866 5.5098 31.1639 6.12097 31.2434L15.0458 32.4076C15.7996 32.5062 16.4875 31.9756 16.5855 31.2234C16.6837 30.4712 16.1535 29.7817 15.4011 29.6837L7.51015 28.6542L5.1794 12.4146L16.8743 7.26452L18.4217 18.0466L20.4386 32.0987L20.4388 32.0992L20.816 34.7274C20.8679 35.088 21.0605 35.4133 21.3523 35.6318C21.5913 35.8109 21.8805 35.906 22.1757 35.906C22.2406 35.906 22.3058 35.9014 22.3708 35.892L28.9553 34.947C29.7062 34.8391 30.2277 34.143 30.1198 33.3923L29.8907 31.7959L43.2418 25.9161C43.8059 25.6678 44.1354 25.0738 44.0478 24.4638L42.1836 11.4745C42.0759 10.7235 41.3792 10.2031 40.6288 10.3101C39.8779 10.4178 39.3565 11.1141 39.4644 11.8648L41.1805 23.822L29.4855 28.9723L27.1553 12.7366L26.1784 5.92955L39.8838 7.71763C40.6367 7.81726 41.3253 7.28558 41.4235 6.53339C41.5217 5.7812 40.9915 5.09165 40.2391 4.99366L25.7731 3.10614L25.544 1.50945C25.4922 1.14883 25.2995 0.823563 25.0078 0.605067C24.716 0.386755 24.3497 0.293533 23.9891 0.344814L17.4045 1.28986C16.6536 1.39773 16.1322 2.09388 16.2401 2.8446L16.4692 4.44111L3.11789 10.3207C2.55379 10.5691 2.22431 11.163 2.31185 11.7731L4.93893 30.0765ZM23.0197 3.25907L24.5986 14.2597L27.0233 31.1536L27.0235 31.1545L27.2055 32.4223L23.3404 32.9771L21.2475 18.3953L19.3366 5.08286C19.3366 5.08286 19.3366 5.08249 19.3364 5.08231L19.1543 3.81382L23.0197 3.25907Z" fill="white"/>
<path d="M56.5805 13.4756H46.6108C45.8522 13.4756 45.2372 14.0904 45.2372 14.8492V37.8348C45.2372 37.8348 45.237 37.8372 45.237 37.8385C45.237 38.5973 45.8521 39.2121 46.6107 39.2121H46.6108H63.0753C62.5374 41.1517 60.8354 42.6121 58.7726 42.7912C57.7114 40.9108 55.6955 39.6376 53.3868 39.6376C51.0701 39.6376 49.0484 40.9194 47.9899 42.8101H18.8119C17.7535 40.9192 15.7317 39.6376 13.4151 39.6376C11.0984 39.6376 9.07664 40.9194 8.01823 42.8101H2.74722V39.2119H39.1355C39.8941 39.2119 40.5091 38.5971 40.5091 37.8383C40.5091 37.0795 39.8941 36.4647 39.1355 36.4647H1.37361C0.615011 36.4647 0 37.0795 0 37.8383V44.1837C0 44.9425 0.615011 45.5573 1.37361 45.5573H7.24058C7.23692 45.6441 7.23399 45.7311 7.23399 45.8188C7.23399 49.227 10.0068 52.0001 13.4152 52.0001C16.8236 52.0001 19.5965 49.227 19.5965 45.8188C19.5965 45.7311 19.5936 45.6441 19.5899 45.5573H47.2119C47.2083 45.6441 47.2053 45.7311 47.2053 45.8188C47.2053 49.227 49.9782 52.0001 53.3866 52.0001C56.795 52.0001 59.5678 49.227 59.5678 45.8188C59.5678 45.6985 59.5634 45.5791 59.5567 45.4604C63.2039 44.8776 66 41.7106 66 37.9019V37.8383V22.8951C66 17.7014 61.7744 13.4756 56.5805 13.4756ZM13.4152 49.2528C11.5217 49.2528 9.98121 47.7124 9.98121 45.8188C9.98121 43.9253 11.5217 42.3848 13.4152 42.3848C15.3088 42.3848 16.8493 43.9253 16.8493 45.8188C16.8493 47.7124 15.3086 49.2528 13.4152 49.2528ZM53.3866 49.2528C51.493 49.2528 49.9526 47.7124 49.9526 45.8188C49.9526 43.9253 51.493 42.3848 53.3866 42.3848C55.2802 42.3848 56.8206 43.9253 56.8206 45.8188C56.8206 47.7124 55.2802 49.2528 53.3866 49.2528ZM63.2528 22.8953V24.9846H53.1736V16.2228H56.5805C60.2596 16.2228 63.2528 19.216 63.2528 22.8953ZM47.9844 36.4649V16.2228H50.4264V26.3582C50.4264 27.117 51.0414 27.7318 51.8 27.7318H63.2528V36.4649H47.9844Z" fill="white"/>
</svg>
