<svg width="68" height="68" viewBox="0 0 68 68" fill="none" xmlns="http://www.w3.org/2000/svg">
<path d="M66.8476 58.5743H52.3414V51.6957C55.5091 51.2696 58.3167 49.2913 59.9492 46.292C62.1181 45.7962 64.0885 44.5404 65.5462 42.7131C67.1285 40.7293 68 38.1939 68 35.5739C68 31.5883 65.9592 27.8995 62.7482 25.9834C62.4137 19.3371 57.2902 14.0376 51.0502 14.0376C49.0861 14.0376 47.1426 14.5722 45.4302 15.5835C44.8973 15.8982 44.7204 16.5851 45.035 17.1178C45.3498 17.6508 46.0368 17.8275 46.5694 17.5129C47.9371 16.7051 49.4865 16.2783 51.0502 16.2783C56.2648 16.2783 60.5151 20.9337 60.5249 26.6561C60.5257 27.0778 60.7631 27.4633 61.1393 27.6538C63.9459 29.0742 65.7592 32.1829 65.7592 35.5738C65.7592 39.8532 62.8611 43.5584 59.0178 44.1923C58.6579 44.2518 58.3495 44.4825 58.191 44.8112C56.9891 47.3039 54.8173 48.9889 52.3414 49.4275V39.5138L57.8553 34.4434C58.3107 34.0245 58.3404 33.3158 57.9215 32.8604C57.5025 32.405 56.794 32.3751 56.3386 32.7941L52.3414 36.4697V28.9908C52.3414 28.372 51.8398 27.8704 51.221 27.8704C50.6023 27.8704 50.1006 28.372 50.1006 28.9908V42.5509L46.1035 38.8753C45.6481 38.4563 44.9393 38.4862 44.5205 38.9416C44.1016 39.397 44.1314 40.1057 44.5868 40.5246L50.1008 45.595V49.48C47.4589 49.1396 45.1289 47.3915 43.8788 44.7464C43.7294 44.4302 43.4408 44.2019 43.0988 44.1294C39.3811 43.3396 36.6829 39.7415 36.6829 35.5738C36.6829 32.2875 38.3401 29.3131 41.0078 27.812C41.3648 27.611 41.5836 27.2313 41.5786 26.8218C41.5783 26.7908 41.5773 26.7599 41.5762 26.7293C41.5755 26.7115 41.5749 26.6938 41.5749 26.6761C41.5749 24.3422 42.2636 22.137 43.5667 20.2992C43.9246 19.7943 43.8055 19.095 43.3008 18.7373C42.796 18.3792 42.0966 18.4986 41.7389 19.0032C40.2545 21.0968 39.4305 23.5771 39.3423 26.2032C36.3038 28.1846 34.4423 31.7138 34.4423 35.5739C34.4423 40.5947 37.6298 44.9682 42.0974 46.1912C43.7789 49.3581 46.7531 51.4075 50.101 51.7355V58.5743H49.3914C49.2263 55.6422 47.2221 53.0914 44.431 52.2301C43.5552 50.3669 41.8542 49.016 39.8539 48.5779C39.1981 45.597 36.5146 43.3741 33.3875 43.3741C30.9762 43.3741 28.7897 44.6701 27.6242 46.7329C25.3288 46.8202 23.265 48.0464 22.0795 49.9462C21.3407 47.9136 19.4481 46.4337 17.2323 46.2746V43.3289C20.2568 42.9084 22.9349 41.0167 24.4997 38.1548C26.5784 37.6746 28.4662 36.4687 29.8638 34.7166C31.3855 32.809 32.2236 30.371 32.2236 27.8518C32.2236 24.0284 30.27 20.4886 27.1942 18.6421C26.8605 12.2656 21.9397 7.18555 15.948 7.18555C13.6496 7.18555 11.439 7.92677 9.55478 9.3294C9.05859 9.69875 8.95566 10.4008 9.32501 10.8971C9.69436 11.3933 10.3963 11.4962 10.8927 11.1269C12.3871 10.0142 14.1352 9.42622 15.948 9.42622C20.9139 9.42622 24.9618 13.8619 24.9712 19.3141C24.972 19.7358 25.2094 20.1213 25.5856 20.3118C28.2567 21.6637 29.9825 24.6234 29.9825 27.8518C29.9825 31.9258 27.225 35.4529 23.5683 36.056C23.2085 36.1155 22.9 36.3462 22.7416 36.6749C21.6067 39.0283 19.5642 40.6258 17.232 41.0588V31.645L22.4956 26.805C22.951 26.3861 22.9806 25.6774 22.5619 25.222C22.1431 24.7664 21.4343 24.7367 20.9789 25.1557L17.232 28.6011V21.5496C17.232 20.9308 16.7304 20.4292 16.1116 20.4292C15.4928 20.4292 14.9912 20.9308 14.9912 21.5496V34.4232L11.2444 30.9778C10.7889 30.5588 10.0802 30.5887 9.66143 31.0441C9.24254 31.4995 9.27229 32.2083 9.7277 32.6271L14.991 37.4671V41.1112C12.5 40.7704 10.3065 39.1128 9.12513 36.6136C8.97572 36.2973 8.68712 36.069 8.34512 35.9965C4.80794 35.2447 2.24054 31.8196 2.24054 27.8518C2.24054 24.7226 3.81769 21.891 6.35666 20.4623C6.71339 20.2614 6.93227 19.8824 6.92749 19.4731C6.92722 19.4428 6.92629 19.4125 6.92523 19.3824C6.92483 19.366 6.92403 19.3498 6.92403 19.3332C6.92403 17.9475 7.17943 16.6074 7.68306 15.3503C7.83287 14.9768 8.00539 14.61 8.19624 14.2597C8.49215 13.7162 8.2916 13.0359 7.74813 12.74C7.20467 12.4438 6.52427 12.6445 6.2285 13.188C5.99594 13.6151 5.78557 14.0622 5.60335 14.5169C5.05138 15.8943 4.74551 17.351 4.69199 18.8539C1.78194 20.762 0 24.1487 0 27.8518C0 32.6725 3.05707 36.8732 7.34399 38.0571C8.95606 41.0792 11.7941 43.0401 14.9912 43.3682V46.5729C13.7651 47.0013 12.7157 47.8484 12.0406 48.9862C9.31983 49.1409 7.12139 51.1504 6.69533 53.8005C4.68867 54.6917 3.19679 56.4591 2.64748 58.5741H1.1204C0.501632 58.5741 0 59.0757 0 59.6945C0 60.3132 0.501632 60.8149 1.1204 60.8149H3.57477H28.8667H48.2367H66.8476C67.4664 60.8149 67.968 60.3132 67.968 59.6945C67.968 59.0757 67.4662 58.5743 66.8476 58.5743ZM4.99733 58.5743C5.53176 57.2123 6.65602 56.1274 8.08827 55.6635C8.5389 55.5175 8.84901 55.1041 8.86296 54.6307C8.9194 52.7168 10.4639 51.2174 12.3792 51.2174C12.4559 51.2174 12.5399 51.221 12.6431 51.2286C13.123 51.2633 13.5721 50.9891 13.7584 50.5453C14.2806 49.303 15.4886 48.5001 16.8358 48.5001C18.5658 48.5001 20.0262 49.8498 20.1606 51.5727C20.2037 52.1227 20.6405 52.5597 21.1906 52.6027C21.4961 52.6265 21.7914 52.6935 22.0711 52.7958C22.0723 52.7962 22.0734 52.7969 22.0746 52.7972C22.1265 52.8164 22.1777 52.837 22.2284 52.8585C22.2393 52.8631 22.2503 52.8678 22.2612 52.8726C22.3086 52.8931 22.3555 52.9148 22.4016 52.9375C22.4172 52.9453 22.4327 52.9534 22.4482 52.9614C22.5121 52.9941 22.5746 53.0289 22.636 53.0654C22.6695 53.0854 22.7032 53.1048 22.7359 53.1261C22.7607 53.142 22.7846 53.1592 22.8088 53.1755C22.8456 53.2006 22.8821 53.2261 22.9179 53.2527C22.9383 53.2678 22.9583 53.2829 22.9781 53.2985C23.0214 53.3322 23.0642 53.367 23.1057 53.403C23.1173 53.4128 23.1289 53.4223 23.1403 53.4322C23.2506 53.53 23.3546 53.6353 23.4515 53.7471C23.4604 53.7575 23.4691 53.7678 23.4779 53.7783C23.5187 53.8265 23.558 53.8761 23.5961 53.9267C23.6034 53.9364 23.611 53.9459 23.6181 53.9558C23.7051 54.0742 23.7844 54.1991 23.8556 54.3294C23.865 54.3466 23.8739 54.3643 23.8832 54.3818C23.9085 54.43 23.9325 54.4792 23.9555 54.529C23.9646 54.5486 23.9738 54.5683 23.9826 54.5881C24.0109 54.6526 24.0377 54.7181 24.062 54.7847C24.0629 54.787 24.0637 54.7892 24.0646 54.7916C24.196 55.1544 24.5049 55.4241 24.8821 55.5054C24.9823 55.5269 25.0804 55.5532 25.177 55.5829C25.2084 55.5925 25.239 55.6044 25.2702 55.6149C25.3345 55.6364 25.3985 55.6583 25.461 55.6833C25.4972 55.6977 25.5324 55.7141 25.5678 55.7296C25.6237 55.754 25.6794 55.7789 25.7338 55.806C25.7705 55.8242 25.8061 55.8438 25.8419 55.8632C25.8935 55.891 25.9445 55.9197 25.9943 55.9498C26.0297 55.9712 26.0647 55.9934 26.0993 56.016C26.1477 56.0474 26.1954 56.0802 26.2421 56.114C26.2754 56.138 26.3084 56.162 26.3408 56.1871C26.3871 56.223 26.432 56.2603 26.4765 56.2982C26.5067 56.3238 26.5372 56.3493 26.5666 56.3759C26.6121 56.4173 26.6557 56.4605 26.6991 56.5039C26.7247 56.5295 26.7513 56.5546 26.7761 56.5812C26.825 56.6331 26.8712 56.6873 26.9171 56.7418C26.9341 56.7621 26.9521 56.7812 26.9687 56.8018C27.0298 56.878 27.0881 56.9564 27.1431 57.0373C27.1547 57.0541 27.1646 57.0722 27.1758 57.0892C27.2181 57.1538 27.2594 57.219 27.2978 57.286C27.3151 57.3165 27.3306 57.3481 27.3471 57.379C27.3769 57.4345 27.4061 57.4902 27.433 57.5471C27.4498 57.5826 27.4646 57.6189 27.4802 57.6547C27.5038 57.7093 27.5267 57.7639 27.5477 57.8197C27.562 57.8579 27.5751 57.8966 27.5883 57.9354C27.607 57.9906 27.6245 58.0463 27.6408 58.1026C27.6522 58.1424 27.6628 58.1825 27.673 58.2228C27.6872 58.2799 27.6997 58.3374 27.7113 58.3953C27.7194 58.4357 27.7272 58.476 27.734 58.5169C27.7372 58.5359 27.7388 58.5552 27.7416 58.5743H4.99733ZM30.0007 58.5744V58.5743C29.9998 58.5637 29.9975 58.5532 29.9967 58.5427C29.9838 58.409 29.9672 58.276 29.9453 58.1447C29.944 58.137 29.9423 58.1293 29.9409 58.1216C29.9181 57.9876 29.8909 57.8549 29.859 57.7237C29.8577 57.7179 29.8566 57.7122 29.8551 57.7068C29.8231 57.5768 29.7861 57.4486 29.7457 57.3219C29.7413 57.3083 29.7373 57.2944 29.7328 57.2809C29.693 57.1589 29.6486 57.0389 29.6009 56.9201C29.594 56.903 29.5874 56.8857 29.5803 56.8687C29.5325 56.7525 29.4809 56.6383 29.4259 56.5258C29.4172 56.508 29.4086 56.4904 29.3997 56.4727C29.3437 56.3609 29.2844 56.2509 29.2217 56.1431C29.2122 56.1267 29.2026 56.1106 29.1929 56.0943C29.1284 55.9855 29.0608 55.8788 28.9895 55.7745C28.9808 55.7618 28.9718 55.7494 28.963 55.7369C28.8887 55.6299 28.8115 55.5248 28.7305 55.4229C28.7254 55.4166 28.72 55.4105 28.7149 55.404C28.6302 55.2982 28.5423 55.1952 28.4505 55.0954C28.4494 55.0944 28.4485 55.0932 28.4476 55.0921C28.3567 54.9936 28.262 54.8983 28.1647 54.8059C28.1562 54.7978 28.148 54.7894 28.1395 54.7815C28.0458 54.6937 27.9489 54.6092 27.8495 54.5274C27.8363 54.5165 27.8231 54.5053 27.8097 54.4943C27.7119 54.4153 27.6115 54.3395 27.5086 54.2666C27.4927 54.2553 27.4767 54.244 27.4608 54.2328C27.358 54.1614 27.2527 54.0931 27.1451 54.0282C27.1282 54.0181 27.1112 54.008 27.0944 53.998C26.9853 53.9336 26.8743 53.8724 26.761 53.8149C26.7455 53.8069 26.7297 53.7996 26.714 53.7919C26.5971 53.7341 26.4784 53.6793 26.3571 53.6291C26.3464 53.6245 26.3355 53.6207 26.3247 53.6163C26.1976 53.5646 26.0687 53.5164 25.9372 53.4735C25.9368 53.4734 25.9362 53.4731 25.9357 53.4729C25.93 53.4613 25.9235 53.4506 25.9178 53.4391C25.8725 53.3484 25.8251 53.2593 25.7751 53.1716C25.7496 53.1269 25.7224 53.0832 25.6959 53.0391C25.6636 52.9861 25.631 52.9333 25.5972 52.8813C25.5646 52.8312 25.5312 52.7821 25.4969 52.7332C25.4671 52.6909 25.4366 52.6492 25.4058 52.6076C25.367 52.5551 25.3281 52.5029 25.2875 52.4519C25.2635 52.4221 25.2384 52.3934 25.214 52.3641C25.1196 52.2506 25.0209 52.141 24.9177 52.0353C24.8999 52.0171 24.8829 51.9983 24.865 51.9803C24.8137 51.9293 24.7607 51.8804 24.7076 51.8314C24.6769 51.8032 24.6464 51.775 24.615 51.7474C24.5643 51.7027 24.5128 51.6589 24.4602 51.6159C24.4219 51.5845 24.383 51.5544 24.344 51.524C24.2952 51.4864 24.2469 51.4484 24.1968 51.4123C24.1264 51.3613 24.0544 51.3127 23.9816 51.265C23.9622 51.2522 23.9438 51.2382 23.9241 51.2257C24.7407 49.8463 26.2353 48.9693 27.8867 48.9693C27.9878 48.9693 28.0975 48.974 28.2319 48.9838C28.7112 49.0195 29.1608 48.7442 29.3471 48.3005C30.0326 46.6693 31.6186 45.6153 33.3875 45.6153C35.659 45.6153 37.5764 47.3875 37.7528 49.6499C37.7957 50.1998 38.2327 50.6368 38.7828 50.6797C40.4917 50.8129 41.973 51.9411 42.5569 53.5541C42.6882 53.917 42.9972 54.1867 43.3744 54.268C45.4414 54.7135 46.9749 56.491 47.1472 58.5748H30.0007V58.5744Z" fill="white"/>
</svg>
