<svg width="58" height="58" viewBox="0 0 58 58" fill="none" xmlns="http://www.w3.org/2000/svg">
<g clip-path="url(#clip0)">
<path d="M46.2908 13.6504H11.71C10.7714 13.6504 10.0107 14.4111 10.0107 15.3496V28.0902C10.0107 29.0283 10.7714 29.7894 11.71 29.7894H46.2908C47.2294 29.7894 47.9901 29.0283 47.9901 28.0902V15.3496C47.9901 14.4111 47.2294 13.6504 46.2908 13.6504ZM44.5916 26.391H13.4092V17.0488H44.5916V26.391Z" fill="white"/>
<path d="M56.3008 15.4704H53.4497V6.2495C53.4497 2.80327 50.6465 0 47.2002 0H10.7993C7.35355 0 4.54984 2.80327 4.54984 6.2495V15.4704H1.69922C0.760666 15.4704 0 16.2311 0 17.1696V26.2697C0 27.2083 0.760666 27.969 1.69922 27.969H4.54984V33.5503C4.54984 40.0808 7.09335 46.221 11.7113 50.8389C16.3293 55.4569 22.4691 58 29 58C35.5305 58 41.6707 55.4569 46.2882 50.8389C50.9066 46.221 53.4497 40.0808 53.4497 33.5503V27.969H56.3008C57.2393 27.969 58 27.2083 58 26.2697V17.1696C58 16.2311 57.2393 15.4704 56.3008 15.4704ZM3.39844 24.5705V18.8689H4.54984V24.5705H3.39844ZM50.0513 33.5503C50.0513 45.1581 40.6078 54.6016 29 54.6016C17.3922 54.6016 7.94827 45.1581 7.94827 33.5503V6.2495C7.94827 4.67728 9.22755 3.39844 10.7993 3.39844H47.2002C48.7724 3.39844 50.0513 4.67728 50.0513 6.2495V33.5503ZM54.6016 24.5705H53.4497V18.8689H54.6016V24.5705Z" fill="white"/>
<path d="M29 31.8516C28.5526 31.8516 28.1154 32.0325 27.7982 32.3485C27.4822 32.6649 27.3008 33.103 27.3008 33.5508C27.3008 33.9982 27.4822 34.4353 27.7982 34.7513C28.1154 35.0686 28.5526 35.25 29 35.25C29.4474 35.25 29.8846 35.0686 30.2018 34.7513C30.5178 34.4353 30.6992 33.9982 30.6992 33.5508C30.6992 33.103 30.5178 32.6649 30.2018 32.3485C29.8846 32.0325 29.4474 31.8516 29 31.8516Z" fill="white"/>
<path d="M39.9199 31.8516C39.4725 31.8516 39.034 32.0325 38.7181 32.3485C38.4021 32.6649 38.2207 33.103 38.2207 33.5508C38.2207 33.9982 38.4021 34.4353 38.7181 34.7513C39.034 35.0686 39.4725 35.25 39.9199 35.25C40.3677 35.25 40.8049 35.0686 41.1222 34.7513C41.4382 34.4353 41.6191 33.9968 41.6191 33.5508C41.6191 33.103 41.4382 32.6649 41.1222 32.3485C40.8058 32.0325 40.3677 31.8516 39.9199 31.8516Z" fill="white"/>
<path d="M18.0801 31.8516C17.6323 31.8516 17.1942 32.0325 16.8778 32.3485C16.5618 32.6649 16.3809 33.103 16.3809 33.5508C16.3809 33.9982 16.5618 34.4353 16.8778 34.7513C17.1951 35.0686 17.6323 35.25 18.0801 35.25C18.5275 35.25 18.9646 35.0686 19.2819 34.7513C19.5979 34.4353 19.7793 33.9982 19.7793 33.5508C19.7793 33.103 19.5979 32.6649 19.2819 32.3485C18.966 32.0325 18.5275 31.8516 18.0801 31.8516Z" fill="white"/>
<path d="M29 8.8584C29.4474 8.8584 29.8846 8.67741 30.2018 8.36102C30.5178 8.04419 30.6992 7.60655 30.6992 7.15918C30.6992 6.71181 30.5178 6.27328 30.2018 5.95734C29.8846 5.64139 29.4474 5.45996 29 5.45996C28.5526 5.45996 28.1154 5.64139 27.7982 5.95734C27.4822 6.27461 27.3008 6.71181 27.3008 7.15918C27.3008 7.60655 27.4822 8.04419 27.7982 8.36102C28.1141 8.67741 28.5526 8.8584 29 8.8584Z" fill="white"/>
<path d="M39.9199 8.8584C40.3677 8.8584 40.8049 8.67741 41.1222 8.36102C41.4382 8.04419 41.6191 7.60655 41.6191 7.15918C41.6191 6.71181 41.4382 6.27328 41.1222 5.95734C40.8058 5.64139 40.3677 5.45996 39.9199 5.45996C39.4725 5.45996 39.034 5.64139 38.7181 5.95734C38.4021 6.27328 38.2207 6.71181 38.2207 7.15918C38.2207 7.60655 38.4021 8.04507 38.7181 8.36102C39.034 8.67741 39.4725 8.8584 39.9199 8.8584Z" fill="white"/>
<path d="M18.0801 8.8584C18.5275 8.8584 18.9646 8.67741 19.2819 8.36102C19.5979 8.04419 19.7793 7.60655 19.7793 7.15918C19.7793 6.71181 19.5979 6.27461 19.2819 5.95734C18.9646 5.64139 18.5275 5.45996 18.0801 5.45996C17.6323 5.45996 17.1951 5.64139 16.8778 5.95734C16.5618 6.27461 16.3809 6.71181 16.3809 7.15918C16.3809 7.60655 16.5618 8.04419 16.8778 8.36102C17.1951 8.67741 17.6323 8.8584 18.0801 8.8584Z" fill="white"/>
</g>
<defs>
<clipPath id="clip0">
<rect width="58" height="58" fill="white"/>
</clipPath>
</defs>
</svg>
