<svg width="70" height="70" viewBox="0 0 70 70" fill="none" xmlns="http://www.w3.org/2000/svg">
<g clip-path="url(#clip0)">
<path d="M31.0265 34.9384C31.8845 32.5132 31.8577 30.5311 31.8317 28.614L31.8316 28.6076L31.8316 28.6071C31.7966 26.0609 31.7605 23.4287 33.8098 20.1259L31.0265 34.9384ZM31.0265 34.9384C29.6859 38.7314 16.0221 40.0691 7.61544 40.0281L31.0265 34.9384ZM39.1606 43.4286C39.0222 43.8429 38.8751 44.241 38.7189 44.6219C38.4949 45.1686 38.2454 45.6985 37.9772 46.1961L37.9059 46.3283L38.0382 46.3994L39.7073 47.2958L39.8393 47.3667L39.9103 47.2347C40.2149 46.6691 40.4968 46.0711 40.7497 45.4542C40.9239 45.0292 41.0881 44.586 41.2423 44.1225L41.2423 44.1224C41.4421 43.5199 41.6165 42.8998 41.7596 42.2811L41.7933 42.1353L41.6475 42.1013L39.8026 41.6711L39.6563 41.637L39.6224 41.7833C39.4941 42.3373 39.339 42.8903 39.1606 43.4286ZM39.1606 43.4286C39.1607 43.4285 39.1607 43.4285 39.1607 43.4284L39.303 43.4759M39.1606 43.4286C39.1606 43.4287 39.1606 43.4287 39.1606 43.4287L39.303 43.4759M39.303 43.4759C39.4769 42.9511 39.6288 42.4125 39.7556 41.8726C39.7599 41.8541 39.7643 41.8357 39.7685 41.8172L39.9147 41.851C39.9146 41.8511 39.9146 41.8512 39.9146 41.8512L41.6134 42.2473C41.6081 42.2705 41.6027 42.2937 41.5972 42.3169L41.5794 42.3934L41.5791 42.3934C41.4438 42.9589 41.2826 43.5245 41.0999 44.0752C40.9468 44.5355 40.7837 44.9755 40.6109 45.3973C40.3796 45.9615 40.1239 46.5097 39.8488 47.0312L39.8492 47.0315L39.7953 47.1319C39.7896 47.1425 39.7839 47.1531 39.7783 47.1636L38.2414 46.3382C38.2413 46.3383 38.2413 46.3384 38.2413 46.3384L38.1092 46.2673C38.1168 46.2531 38.1244 46.239 38.132 46.2249C38.3942 45.7348 38.6381 45.2146 38.8577 44.6788C39.0153 44.2944 39.1635 43.8931 39.303 43.4759ZM44.9443 14.1021C39.7834 14.8622 35.5497 17.0363 33.6824 20.0468C31.6099 23.3869 31.6466 26.0557 31.6816 28.6059L31.6816 28.6096L31.6816 28.6096L31.6817 28.6108C31.7076 30.5288 31.7342 32.4885 30.8851 34.8883L30.8851 34.8884C30.7294 35.3286 30.3895 35.745 29.8799 36.1359C29.3707 36.5265 28.7006 36.8853 27.8997 37.2125C26.2978 37.867 24.1938 38.3871 21.8623 38.7875C17.2005 39.5881 11.6565 39.906 7.46647 39.8772L7.31573 39.8762L7.31544 40.0269L7.31175 41.9094L7.31145 42.0586L7.46066 42.0597C8.64207 42.0682 14.4297 42.063 20.2042 41.2644C23.0907 40.8652 25.9818 40.2667 28.2948 39.3688C30.5987 38.4745 32.3721 37.2667 32.9542 35.6209L32.9542 35.6209C33.9337 32.8507 33.9017 30.576 33.8736 28.5887C33.8399 26.1082 33.812 23.9999 35.5488 21.1996C37.1094 18.6845 40.8938 16.8302 45.6051 16.216C50.3069 15.6031 55.8936 16.232 61.0128 18.6407L61.1485 18.7046L61.2124 18.5689L62.0138 16.866L62.0778 16.7302L61.9418 16.6664C56.2427 13.9916 50.1126 13.3409 44.9443 14.1021ZM63.6958 25.3614L63.8338 25.4164L63.8901 25.2789L64.6033 23.5388L64.6606 23.399L64.5203 23.3427L64.4645 23.482C64.5203 23.3427 64.5202 23.3427 64.5201 23.3426L64.5197 23.3425L64.5183 23.3419L64.5131 23.3399L64.4933 23.3321C64.4759 23.3254 64.4503 23.3155 64.4167 23.3029C64.3496 23.2778 64.2508 23.2416 64.1233 23.1973C63.8681 23.1087 63.4976 22.9875 63.0347 22.8564C62.109 22.5944 60.812 22.2924 59.3266 22.1329C56.3597 21.8144 52.6175 22.0621 49.5885 24.3615C48.4685 25.2115 47.785 26.1783 47.4496 27.2329C47.1146 28.2859 47.1305 29.4144 47.3888 30.583C47.9042 32.9145 49.392 35.4359 51.0498 37.9019C53.2767 41.2148 53.8012 46.2099 52.3678 50.6244C51.1005 54.5255 47.7649 59.8597 39.0406 63.04L38.8988 63.0918L38.9514 63.2333L39.6098 65.0022L39.6618 65.1419L39.8018 65.0908C49.3299 61.6158 53.0032 55.6697 54.4246 51.2916C56.0533 46.2765 55.4106 40.5318 52.8135 36.6682C50.5692 33.3299 49.5689 31.0834 49.3929 29.4745C49.3054 28.6751 49.422 28.0368 49.6883 27.4991C49.9553 26.9597 50.3784 26.5103 50.9213 26.0982C53.428 24.1959 56.6112 24.0038 59.1879 24.297C60.4739 24.4433 61.6022 24.7098 62.409 24.9399C62.8123 25.0548 63.1349 25.1606 63.3563 25.2374C63.4669 25.2758 63.5523 25.307 63.6097 25.3285C63.6384 25.3392 63.6602 25.3475 63.6746 25.3531L63.6908 25.3594L63.6947 25.361L63.6956 25.3613L63.6958 25.3614ZM24.4615 53.0217L24.324 53.0124L24.3032 53.1486L24.0183 55.0084L23.9954 55.158L24.1451 55.1796L24.1492 55.1802C24.2338 55.1927 25.2319 55.3396 26.7193 55.2792L26.8699 55.2731L26.8631 55.1225L26.7771 53.2407L26.7703 53.0916L26.6211 53.0977C25.4175 53.1469 24.6013 53.0399 24.4776 53.0237C24.4683 53.0225 24.4629 53.0218 24.4615 53.0217ZM39.8383 32.0219L39.6886 32.0402L39.7078 32.1899C39.904 33.7205 40.0972 35.3524 40.1119 37.0612L40.1132 37.2104L40.2624 37.2099L42.1543 37.2032L42.3051 37.2027L42.3038 37.0519C42.2883 35.2189 42.0867 33.5101 41.8818 31.9223L41.8627 31.7746L41.7148 31.7926L39.8383 32.0219ZM42.9586 23.3326L43.0679 23.2288L42.9635 23.12L41.6539 21.7555L41.5506 21.6478L41.4424 21.7506C40.7342 22.423 40.2142 23.1761 39.8552 24.052C39.501 24.9163 39.313 25.8873 39.2753 27.0205L39.2703 27.1698L39.4196 27.1754L41.3114 27.2458L41.462 27.2515L41.4669 27.1009C41.4959 26.2217 41.6342 25.4985 41.8859 24.8844C42.1262 24.2978 42.4758 23.7913 42.9586 23.3326ZM31.2016 52.1961L31.0601 52.249L31.114 52.3901L31.7871 54.153L31.8403 54.2921L31.9798 54.24C33.7105 53.5934 35.267 52.6602 36.6085 51.4638L36.7211 51.3634L36.6201 51.2514L35.3534 49.8466L35.2536 49.7359L35.1422 49.8351C34.0043 50.8492 32.6793 51.6439 31.2016 52.1961ZM48.9018 18.7155L48.8709 18.5698L48.725 18.5996C47.8676 18.7746 47.0647 18.9746 46.3373 19.1927L46.1927 19.2361L46.2369 19.3803L46.7891 21.183L46.8327 21.3254L46.9754 21.2828C47.6393 21.085 48.3803 20.9009 49.1753 20.7373L49.323 20.7069L49.2918 20.5593L48.9018 18.7155Z" fill="white" stroke="white" stroke-width="0.3"/>
</g>
<g clip-path="url(#clip1)">
<path d="M26.2081 29.4486L26.2082 29.4484C26.5063 28.9662 26.5334 28.3772 26.2794 27.8676L15.6391 6.58923L15.639 6.58905C15.3632 6.03561 14.8075 5.69192 14.187 5.69192C13.5665 5.69192 13.0108 6.03561 12.7347 6.58908L12.7347 6.58922L2.09427 27.8695C1.84053 28.377 1.86732 28.966 2.1657 29.4501L26.2081 29.4486ZM26.2081 29.4486C25.9152 29.9238 25.385 30.219 24.8274 30.219M26.2081 29.4486L24.8274 30.219M24.8274 30.219H3.5466M24.8274 30.219H3.5466M3.5466 30.219C2.98896 30.219 2.45878 29.9238 2.16582 29.4503L3.5466 30.219ZM28.1343 26.9423L28.1343 26.9422L17.4939 5.66194C16.8678 4.40917 15.5877 3.61855 14.187 3.61855C12.7862 3.61855 11.5064 4.40919 10.8801 5.66192L0.239671 26.9422L0.239632 26.9423C-0.332649 28.0885 -0.27119 29.4495 0.402048 30.5396L0.4021 30.5396C1.07535 31.6281 2.26496 32.2923 3.5466 32.2923H24.8274C26.109 32.2923 27.2984 31.6281 27.9719 30.5397L27.9719 30.5395C28.6451 29.4493 28.7066 28.0885 28.1343 26.9423ZM14.187 10.712C13.1255 10.712 12.2636 11.5741 12.2636 12.6354V21.5022C12.2636 22.5635 13.1257 23.4255 14.187 23.4255C15.2483 23.4255 16.1103 22.5635 16.1103 21.5022V12.6354C16.1103 11.5741 15.2483 10.712 14.187 10.712ZM14.187 24.8989C13.1255 24.8989 12.2636 25.761 12.2636 26.8222C12.2636 27.8835 13.1257 28.7456 14.187 28.7456C15.2483 28.7456 16.1103 27.8835 16.1103 26.8222C16.1103 25.7609 15.2483 24.8989 14.187 24.8989Z" fill="white" stroke="white" stroke-width="0.3"/>
</g>
<defs>
<clipPath id="clip0">
<rect width="52.9791" height="52.9791" fill="white" transform="translate(20.9785) rotate(22.2867)"/>
</clipPath>
<clipPath id="clip1">
<rect width="28.3738" height="28.3738" fill="white" transform="translate(0 3.76855)"/>
</clipPath>
</defs>
</svg>
