<svg width="395" height="395" viewBox="0 0 395 395" fill="none" xmlns="http://www.w3.org/2000/svg">
<g filter="url(#filter0_f)">
<circle cx="197.5" cy="197.5" r="184.5" fill="#0E243E" fill-opacity="0.1"/>
<circle cx="197.5" cy="197.5" r="184.5" stroke="#7BD7FF" stroke-width="6"/>
</g>
<g filter="url(#filter1_f)">
<circle cx="197.5" cy="197.5" r="184.5" fill="#0E243E" fill-opacity="0.1"/>
<circle cx="197.5" cy="197.5" r="183" stroke="white" stroke-width="3"/>
</g>
<g filter="url(#filter2_f)">
<path d="M283.668 269.337H269.448V242.323H274.78C277.725 242.323 280.112 239.934 280.112 236.991V165.543C280.112 163.189 278.569 161.115 276.316 160.437L270.514 158.692V119.332C270.514 117.627 269.698 116.023 268.319 115.02C266.939 114.017 265.163 113.735 263.54 114.26L195.781 136.201L122.756 114.226C121.141 113.74 119.391 114.047 118.039 115.052C116.685 116.059 115.888 117.646 115.888 119.332V236.991C115.888 239.934 118.275 242.323 121.22 242.323H126.552V269.337H112.332C109.387 269.337 107 271.725 107 274.669C107 277.614 109.387 280.001 112.332 280.001H283.668C286.613 280.001 289 277.614 289 274.669C289 271.725 286.613 269.337 283.668 269.337ZM258.784 269.337H248.12V242.323H258.784V269.337ZM227.858 242.323H237.456V269.337H227.858V242.323ZM259.85 126.663V155.481L213.723 141.601L259.85 126.663ZM126.552 220.995H151.434C154.379 220.995 156.766 218.608 156.766 215.663C156.766 212.717 154.379 210.331 151.434 210.331H126.552V199.666H151.434C154.379 199.666 156.766 197.28 156.766 194.334C156.766 191.391 154.379 189.002 151.434 189.002H126.552V178.338H151.434C154.379 178.338 156.766 175.951 156.766 173.008C156.766 170.063 154.379 167.676 151.434 167.676H126.552V156.994C126.67 157.002 126.787 157.012 126.908 157.012H151.42C154.363 157.012 156.75 154.623 156.75 151.68C156.75 148.734 154.363 146.348 151.42 146.348H126.908C126.787 146.348 126.67 146.357 126.552 146.366V126.505L269.448 169.506V189.004H244.565C241.621 189.004 239.234 191.391 239.234 194.336C239.234 197.28 241.621 199.668 244.565 199.668H269.448V210.331H244.565C241.621 210.331 239.234 212.719 239.234 215.663C239.234 218.608 241.621 220.995 244.565 220.995H269.448V231.659H227.858V194.336C227.858 191.391 225.471 189.004 222.526 189.004H174.539C171.594 189.004 169.207 191.391 169.207 194.336V231.659H126.552V220.995ZM169.207 242.323V269.337H158.543V242.323H169.207ZM137.216 242.323H147.88V269.337H137.216V242.323ZM203.865 269.337V246.944C203.865 243.999 201.477 241.612 198.533 241.612C195.588 241.612 193.201 243.999 193.201 246.944V269.337H179.871V199.666H217.195V269.337H203.865Z" fill="white"/>
</g>
<path d="M283.668 269.337H269.448V242.323H274.78C277.725 242.323 280.112 239.934 280.112 236.991V165.543C280.112 163.189 278.569 161.115 276.316 160.437L270.514 158.692V119.332C270.514 117.627 269.698 116.023 268.319 115.02C266.939 114.017 265.163 113.735 263.54 114.26L195.781 136.201L122.756 114.226C121.141 113.74 119.391 114.047 118.039 115.052C116.685 116.059 115.888 117.646 115.888 119.332V236.991C115.888 239.934 118.275 242.323 121.22 242.323H126.552V269.337H112.332C109.387 269.337 107 271.725 107 274.669C107 277.614 109.387 280.001 112.332 280.001H283.668C286.613 280.001 289 277.614 289 274.669C289 271.725 286.613 269.337 283.668 269.337ZM258.784 269.337H248.12V242.323H258.784V269.337ZM227.858 242.323H237.456V269.337H227.858V242.323ZM259.85 126.663V155.481L213.723 141.601L259.85 126.663ZM126.552 220.995H151.434C154.379 220.995 156.766 218.608 156.766 215.663C156.766 212.717 154.379 210.331 151.434 210.331H126.552V199.666H151.434C154.379 199.666 156.766 197.28 156.766 194.334C156.766 191.391 154.379 189.002 151.434 189.002H126.552V178.338H151.434C154.379 178.338 156.766 175.951 156.766 173.008C156.766 170.063 154.379 167.676 151.434 167.676H126.552V156.994C126.67 157.002 126.787 157.012 126.908 157.012H151.42C154.363 157.012 156.75 154.623 156.75 151.68C156.75 148.734 154.363 146.348 151.42 146.348H126.908C126.787 146.348 126.67 146.357 126.552 146.366V126.505L269.448 169.506V189.004H244.565C241.621 189.004 239.234 191.391 239.234 194.336C239.234 197.28 241.621 199.668 244.565 199.668H269.448V210.331H244.565C241.621 210.331 239.234 212.719 239.234 215.663C239.234 218.608 241.621 220.995 244.565 220.995H269.448V231.659H227.858V194.336C227.858 191.391 225.471 189.004 222.526 189.004H174.539C171.594 189.004 169.207 191.391 169.207 194.336V231.659H126.552V220.995ZM169.207 242.323V269.337H158.543V242.323H169.207ZM137.216 242.323H147.88V269.337H137.216V242.323ZM203.865 269.337V246.944C203.865 243.999 201.477 241.612 198.533 241.612C195.588 241.612 193.201 243.999 193.201 246.944V269.337H179.871V199.666H217.195V269.337H203.865Z" fill="white"/>
<defs>
<filter id="filter0_f" x="0" y="0" width="395" height="395" filterUnits="userSpaceOnUse" color-interpolation-filters="sRGB">
<feFlood flood-opacity="0" result="BackgroundImageFix"/>
<feBlend mode="normal" in="SourceGraphic" in2="BackgroundImageFix" result="shape"/>
<feGaussianBlur stdDeviation="5" result="effect1_foregroundBlur"/>
</filter>
<filter id="filter1_f" x="10" y="10" width="375" height="375" filterUnits="userSpaceOnUse" color-interpolation-filters="sRGB">
<feFlood flood-opacity="0" result="BackgroundImageFix"/>
<feBlend mode="normal" in="SourceGraphic" in2="BackgroundImageFix" result="shape"/>
<feGaussianBlur stdDeviation="1.5" result="effect1_foregroundBlur"/>
</filter>
<filter id="filter2_f" x="77" y="84" width="242" height="226.001" filterUnits="userSpaceOnUse" color-interpolation-filters="sRGB">
<feFlood flood-opacity="0" result="BackgroundImageFix"/>
<feBlend mode="normal" in="SourceGraphic" in2="BackgroundImageFix" result="shape"/>
<feGaussianBlur stdDeviation="15" result="effect1_foregroundBlur"/>
</filter>
</defs>
</svg>
