<svg viewBox="0 0 483 301" fill="none" xmlns="http://www.w3.org/2000/svg">
<g filter="url(#filter0_f)">
<line x1="272.466" y1="144.291" x2="283.514" y2="160.237" stroke="#7BD7FF" stroke-width="6"/>
</g>
<g filter="url(#filter1_f)">
<line x1="271.233" y1="145.146" x2="282.281" y2="161.091" stroke="white" stroke-width="3"/>
</g>
<g filter="url(#filter2_f)">
<line x1="114.471" y1="144.291" x2="125.519" y2="160.237" stroke="#7BD7FF" stroke-width="6"/>
</g>
<g filter="url(#filter3_f)">
<line x1="113.238" y1="145.146" x2="124.286" y2="161.091" stroke="white" stroke-width="3"/>
</g>
<g filter="url(#filter4_f)">
<line y1="-3" x2="19.3984" y2="-3" transform="matrix(0.569516 -0.82198 -0.82198 -0.569516 201 161.945)" stroke="#7BD7FF" stroke-width="6"/>
</g>
<g filter="url(#filter5_f)">
<line y1="-1.5" x2="19.3984" y2="-1.5" transform="matrix(0.569516 -0.82198 -0.82198 -0.569516 201 161.945)" stroke="white" stroke-width="3"/>
</g>
<g filter="url(#filter6_f)">
<line y1="-3" x2="19.3984" y2="-3" transform="matrix(0.569516 -0.82198 -0.82198 -0.569516 364 161.945)" stroke="#7BD7FF" stroke-width="6"/>
</g>
<g filter="url(#filter7_f)">
<line y1="-1.5" x2="19.3984" y2="-1.5" transform="matrix(0.569516 -0.82198 -0.82198 -0.569516 364 161.945)" stroke="white" stroke-width="3"/>
</g>
<g filter="url(#filter8_f)">
<circle cx="322" cy="218" r="70" fill="#0E243E" fill-opacity="0.1"/>
<circle cx="322" cy="218" r="70" stroke="#7BD7FF" stroke-width="6"/>
</g>
<g filter="url(#filter9_f)">
<circle cx="322" cy="218" r="70" fill="#0E243E" fill-opacity="0.1"/>
<circle cx="322" cy="218" r="68.5" stroke="white" stroke-width="3"/>
</g>
<path d="M282.263 247.718L279.299 254.361C279.022 254.976 278.74 255.492 278.454 255.908C278.177 256.315 277.848 256.623 277.466 256.831C277.085 257.03 276.6 257.13 276.01 257.13C275.768 257.13 275.538 257.113 275.321 257.078C275.113 257.043 274.923 256.996 274.749 256.935V255.778C274.923 255.856 275.109 255.921 275.308 255.973C275.508 256.016 275.716 256.038 275.932 256.038C276.418 256.038 276.799 255.934 277.076 255.726C277.362 255.518 277.627 255.15 277.869 254.621L274.294 247.718H275.581L278.168 252.827C278.212 252.914 278.264 253.026 278.324 253.165C278.385 253.295 278.437 253.421 278.48 253.542H278.532C278.567 253.447 278.61 253.334 278.662 253.204C278.714 253.065 278.758 252.953 278.792 252.866L281.028 247.718H282.263ZM283.005 252.814C283.005 251.289 283.234 250.101 283.694 249.252C284.153 248.394 284.894 247.857 285.917 247.64C286.48 247.519 287.03 247.41 287.568 247.315C288.105 247.22 288.608 247.133 289.076 247.055L289.271 248.056C288.967 248.099 288.625 248.156 288.244 248.225C287.862 248.286 287.485 248.351 287.113 248.42C286.74 248.481 286.419 248.541 286.151 248.602C285.587 248.723 285.141 249.018 284.812 249.486C284.482 249.945 284.296 250.665 284.253 251.644H284.331C284.452 251.479 284.617 251.31 284.825 251.137C285.041 250.964 285.297 250.816 285.592 250.695C285.895 250.574 286.237 250.513 286.619 250.513C287.52 250.513 288.2 250.803 288.66 251.384C289.119 251.965 289.349 252.719 289.349 253.646C289.349 254.417 289.214 255.063 288.946 255.583C288.677 256.103 288.304 256.493 287.828 256.753C287.351 257.004 286.796 257.13 286.164 257.13C285.202 257.13 284.435 256.762 283.863 256.025C283.291 255.288 283.005 254.218 283.005 252.814ZM286.255 256.181C286.818 256.181 287.273 255.999 287.62 255.635C287.966 255.271 288.14 254.647 288.14 253.763C288.14 253.052 288.005 252.493 287.737 252.086C287.477 251.67 287.043 251.462 286.437 251.462C286.055 251.462 285.709 251.549 285.397 251.722C285.085 251.887 284.825 252.077 284.617 252.294C284.409 252.511 284.261 252.693 284.175 252.84C284.175 253.265 284.205 253.676 284.266 254.075C284.326 254.474 284.43 254.833 284.578 255.154C284.734 255.466 284.946 255.717 285.215 255.908C285.492 256.09 285.839 256.181 286.255 256.181ZM297.209 253.503C297.209 254.656 296.914 255.548 296.325 256.181C295.744 256.814 294.956 257.13 293.959 257.13C293.344 257.13 292.793 256.991 292.308 256.714C291.831 256.428 291.454 256.016 291.177 255.479C290.9 254.933 290.761 254.274 290.761 253.503C290.761 252.35 291.051 251.462 291.632 250.838C292.213 250.214 293.001 249.902 293.998 249.902C294.631 249.902 295.185 250.045 295.662 250.331C296.147 250.608 296.524 251.016 296.793 251.553C297.07 252.082 297.209 252.732 297.209 253.503ZM291.944 253.503C291.944 254.326 292.104 254.981 292.425 255.466C292.754 255.943 293.274 256.181 293.985 256.181C294.687 256.181 295.203 255.943 295.532 255.466C295.861 254.981 296.026 254.326 296.026 253.503C296.026 252.68 295.861 252.034 295.532 251.566C295.203 251.098 294.683 250.864 293.972 250.864C293.261 250.864 292.746 251.098 292.425 251.566C292.104 252.034 291.944 252.68 291.944 253.503ZM302.337 249.902C303.195 249.902 303.884 250.201 304.404 250.799C304.933 251.397 305.197 252.298 305.197 253.503C305.197 254.69 304.933 255.592 304.404 256.207C303.884 256.822 303.191 257.13 302.324 257.13C301.787 257.13 301.34 257.03 300.985 256.831C300.638 256.623 300.365 256.385 300.166 256.116H300.088C300.105 256.263 300.123 256.45 300.14 256.675C300.157 256.9 300.166 257.095 300.166 257.26V260.12H299.022V250.032H299.958L300.114 250.981H300.166C300.374 250.678 300.647 250.422 300.985 250.214C301.323 250.006 301.774 249.902 302.337 249.902ZM302.129 250.864C301.418 250.864 300.916 251.063 300.621 251.462C300.335 251.861 300.183 252.467 300.166 253.282V253.503C300.166 254.361 300.305 255.024 300.582 255.492C300.868 255.951 301.392 256.181 302.155 256.181C302.58 256.181 302.926 256.064 303.195 255.83C303.472 255.596 303.676 255.28 303.806 254.881C303.945 254.474 304.014 254.01 304.014 253.49C304.014 252.693 303.858 252.056 303.546 251.579C303.243 251.102 302.77 250.864 302.129 250.864ZM311.141 250.032H312.389L309.412 253.386L312.636 257H311.31L308.164 253.464V257H307.02V250.032H308.164V253.412L311.141 250.032ZM316.54 249.915C317.389 249.915 318.018 250.101 318.425 250.474C318.832 250.847 319.036 251.44 319.036 252.255V257H318.204L317.983 256.012H317.931C317.628 256.393 317.307 256.675 316.969 256.857C316.64 257.039 316.18 257.13 315.591 257.13C314.958 257.13 314.434 256.965 314.018 256.636C313.602 256.298 313.394 255.774 313.394 255.063C313.394 254.37 313.667 253.837 314.213 253.464C314.759 253.083 315.6 252.875 316.735 252.84L317.918 252.801V252.385C317.918 251.804 317.792 251.401 317.541 251.176C317.29 250.951 316.934 250.838 316.475 250.838C316.111 250.838 315.764 250.894 315.435 251.007C315.106 251.111 314.798 251.232 314.512 251.371L314.161 250.513C314.464 250.348 314.824 250.21 315.24 250.097C315.656 249.976 316.089 249.915 316.54 249.915ZM317.905 253.594L316.878 253.633C316.011 253.668 315.409 253.806 315.071 254.049C314.742 254.292 314.577 254.634 314.577 255.076C314.577 255.466 314.694 255.752 314.928 255.934C315.171 256.116 315.478 256.207 315.851 256.207C316.44 256.207 316.93 256.047 317.32 255.726C317.71 255.397 317.905 254.894 317.905 254.218V253.594ZM329.76 253.503C329.76 254.656 329.465 255.548 328.876 256.181C328.295 256.814 327.506 257.13 326.51 257.13C325.894 257.13 325.344 256.991 324.859 256.714C324.382 256.428 324.005 256.016 323.728 255.479C323.45 254.933 323.312 254.274 323.312 253.503C323.312 252.35 323.602 251.462 324.183 250.838C324.763 250.214 325.552 249.902 326.549 249.902C327.181 249.902 327.736 250.045 328.213 250.331C328.698 250.608 329.075 251.016 329.344 251.553C329.621 252.082 329.76 252.732 329.76 253.503ZM324.495 253.503C324.495 254.326 324.655 254.981 324.976 255.466C325.305 255.943 325.825 256.181 326.536 256.181C327.238 256.181 327.753 255.943 328.083 255.466C328.412 254.981 328.577 254.326 328.577 253.503C328.577 252.68 328.412 252.034 328.083 251.566C327.753 251.098 327.233 250.864 326.523 250.864C325.812 250.864 325.296 251.098 324.976 251.566C324.655 252.034 324.495 252.68 324.495 253.503ZM335.733 247.12V249.928C336.426 249.989 337.028 250.171 337.54 250.474C338.06 250.777 338.463 251.185 338.749 251.696C339.035 252.207 339.178 252.814 339.178 253.516C339.178 254.565 338.87 255.401 338.255 256.025C337.648 256.649 336.807 257.009 335.733 257.104V260.12H334.615V257.104C333.93 257.043 333.328 256.866 332.808 256.571C332.288 256.268 331.885 255.86 331.599 255.349C331.313 254.829 331.17 254.218 331.17 253.516C331.17 252.459 331.473 251.618 332.08 250.994C332.695 250.37 333.553 250.015 334.654 249.928V247.12H335.733ZM334.654 250.877C333.856 250.955 333.276 251.219 332.912 251.67C332.548 252.112 332.366 252.727 332.366 253.516C332.366 254.305 332.548 254.924 332.912 255.375C333.284 255.826 333.865 256.09 334.654 256.168V250.877ZM335.733 250.89V256.168C336.513 256.081 337.085 255.813 337.449 255.362C337.813 254.911 337.995 254.296 337.995 253.516C337.995 252.736 337.808 252.125 337.436 251.683C337.072 251.241 336.504 250.977 335.733 250.89ZM342.072 250.032V254.283C342.072 254.387 342.067 254.543 342.059 254.751C342.05 254.959 342.037 255.167 342.02 255.375C342.011 255.583 342.002 255.748 341.994 255.869L345.725 250.032H347.129V257H346.063V252.892C346.063 252.753 346.063 252.571 346.063 252.346C346.071 252.121 346.08 251.9 346.089 251.683C346.097 251.458 346.106 251.289 346.115 251.176L342.41 257H340.993V250.032H342.072ZM352.141 257.13C351.526 257.13 350.976 257.004 350.49 256.753C350.014 256.502 349.637 256.112 349.359 255.583C349.091 255.054 348.956 254.378 348.956 253.555C348.956 252.697 349.099 251.999 349.385 251.462C349.671 250.925 350.057 250.53 350.542 250.279C351.036 250.028 351.595 249.902 352.219 249.902C352.575 249.902 352.917 249.941 353.246 250.019C353.576 250.088 353.844 250.175 354.052 250.279L353.701 251.228C353.493 251.15 353.251 251.076 352.973 251.007C352.696 250.938 352.436 250.903 352.193 250.903C350.824 250.903 350.139 251.783 350.139 253.542C350.139 254.383 350.304 255.028 350.633 255.479C350.971 255.921 351.47 256.142 352.128 256.142C352.51 256.142 352.843 256.103 353.129 256.025C353.424 255.947 353.693 255.852 353.935 255.739V256.753C353.701 256.874 353.441 256.965 353.155 257.026C352.878 257.095 352.54 257.13 352.141 257.13ZM361.65 253.503C361.65 254.656 361.356 255.548 360.766 256.181C360.186 256.814 359.397 257.13 358.4 257.13C357.785 257.13 357.235 256.991 356.749 256.714C356.273 256.428 355.896 256.016 355.618 255.479C355.341 254.933 355.202 254.274 355.202 253.503C355.202 252.35 355.493 251.462 356.073 250.838C356.654 250.214 357.443 249.902 358.439 249.902C359.072 249.902 359.627 250.045 360.103 250.331C360.589 250.608 360.966 251.016 361.234 251.553C361.512 252.082 361.65 252.732 361.65 253.503ZM356.385 253.503C356.385 254.326 356.546 254.981 356.866 255.466C357.196 255.943 357.716 256.181 358.426 256.181C359.128 256.181 359.644 255.943 359.973 255.466C360.303 254.981 360.467 254.326 360.467 253.503C360.467 252.68 360.303 252.034 359.973 251.566C359.644 251.098 359.124 250.864 358.413 250.864C357.703 250.864 357.187 251.098 356.866 251.566C356.546 252.034 356.385 252.68 356.385 253.503ZM369.066 251.787C369.066 252.22 368.936 252.558 368.676 252.801C368.416 253.044 368.083 253.208 367.675 253.295V253.347C368.109 253.408 368.486 253.564 368.806 253.815C369.127 254.058 369.287 254.439 369.287 254.959C369.287 255.548 369.066 256.038 368.624 256.428C368.191 256.809 367.472 257 366.466 257H363.463V250.032H366.453C366.947 250.032 367.389 250.088 367.779 250.201C368.178 250.305 368.49 250.487 368.715 250.747C368.949 250.998 369.066 251.345 369.066 251.787ZM367.909 251.93C367.909 251.601 367.788 251.362 367.545 251.215C367.311 251.059 366.926 250.981 366.388 250.981H364.607V252.892H366.18C367.333 252.892 367.909 252.571 367.909 251.93ZM368.104 254.959C368.104 254.56 367.953 254.274 367.649 254.101C367.346 253.928 366.9 253.841 366.31 253.841H364.607V256.077H366.336C366.908 256.077 367.346 255.995 367.649 255.83C367.953 255.657 368.104 255.366 368.104 254.959Z" fill="white"/>
<g clip-path="url(#clip0)">
<path d="M342.478 194.642C339.913 194.642 337.827 196.728 337.827 199.294V199.954C337.827 201.004 338.68 201.857 339.728 201.857H341.548V206.78C341.548 207.215 341.194 207.568 340.759 207.568H338.633C338.348 206.373 337.526 205.384 336.437 204.872C336.437 204.872 336.437 204.871 336.438 204.871C336.823 204.315 337.05 203.642 337.05 202.916C337.05 200.993 337.05 177.292 337.05 176.436C337.05 174.541 335.509 173 333.615 173H311.405C309.51 173 307.969 174.541 307.969 176.436V202.916C307.969 203.642 308.196 204.315 308.582 204.871C308.582 204.871 308.582 204.872 308.582 204.872C307.493 205.384 306.672 206.373 306.387 207.568H304.261C303.825 207.568 303.472 207.215 303.472 206.78V201.857H305.291C306.339 201.857 307.193 201.004 307.193 199.954V199.294C307.193 196.728 305.107 194.642 302.541 194.642C299.977 194.642 297.891 196.728 297.891 199.294V199.954C297.891 201.004 298.744 201.857 299.792 201.857H301.611V206.78C301.611 208.24 302.8 209.429 304.261 209.429H306.387C306.808 211.191 308.395 212.505 310.284 212.505H312.178C312.692 212.505 313.108 212.089 313.108 211.575C313.108 211.061 312.692 210.645 312.178 210.645H310.284C309.144 210.645 308.149 209.74 308.137 208.494C308.14 207.312 309.102 206.351 310.284 206.351H334.735C335.905 206.351 336.882 207.299 336.882 208.503C336.879 209.685 335.917 210.645 334.735 210.645H315.899C315.385 210.645 314.969 211.061 314.969 211.575C314.969 212.089 315.385 212.505 315.899 212.505H318.045V216.238C318.045 218.381 319.562 220.175 321.58 220.605V223.281L312.551 225.43C310.914 225.82 309.771 227.268 309.771 228.95V229.478C308.387 229.879 307.373 231.159 307.373 232.671C307.373 234.507 308.866 236 310.701 236C312.536 236 314.029 234.507 314.029 232.671C314.029 231.159 313.015 229.879 311.632 229.478V228.95C311.632 228.133 312.187 227.429 312.982 227.24L321.58 225.193V229.478C320.195 229.879 319.182 231.159 319.182 232.671C319.182 234.507 320.674 236 322.51 236C324.345 236 325.837 234.507 325.837 232.671C325.837 231.159 324.824 229.879 323.44 229.478V225.193L332.038 227.24C332.833 227.429 333.388 228.133 333.388 228.95V229.478C332.004 229.879 330.991 231.159 330.991 232.671C330.991 234.507 332.484 236 334.318 236C336.154 236 337.646 234.507 337.646 232.671C337.646 231.159 336.633 229.879 335.248 229.478V228.95C335.248 227.268 334.105 225.82 332.469 225.43L323.44 223.281V220.605C325.458 220.175 326.974 218.381 326.974 216.238V212.505H334.735C336.624 212.505 338.212 211.191 338.633 209.429H340.759C342.22 209.429 343.408 208.24 343.408 206.78V201.857H345.228C346.275 201.857 347.129 201.004 347.129 199.954V199.294C347.129 196.728 345.043 194.642 342.478 194.642ZM299.792 199.997C299.769 199.997 299.751 199.978 299.751 199.954V199.294C299.751 197.754 301.002 196.503 302.541 196.503C304.081 196.503 305.332 197.754 305.332 199.294V199.954C305.332 199.978 305.313 199.997 305.291 199.997C303.327 199.997 301.801 199.997 299.792 199.997ZM335.19 202.916C335.19 203.784 334.484 204.491 333.616 204.491H311.404C310.536 204.491 309.83 203.784 309.83 202.916V199.921H335.19V202.916ZM335.19 198.06H309.83V193.711H335.19V198.06ZM335.19 191.851H309.83V187.501H335.19V191.851ZM335.19 179.431H331.224C330.71 179.431 330.294 179.847 330.294 180.361C330.294 180.875 330.71 181.291 331.224 181.291H335.19V185.641H309.83V181.291H327.503C328.016 181.291 328.433 180.875 328.433 180.361C328.433 179.847 328.016 179.431 327.503 179.431H309.83V176.436C309.83 175.567 310.536 174.861 311.405 174.861H333.615C334.483 174.861 335.19 175.567 335.19 176.436V179.431ZM312.168 232.671C312.168 233.481 311.51 234.139 310.701 234.139C309.892 234.139 309.234 233.481 309.234 232.671C309.234 231.863 309.892 231.204 310.701 231.204C311.51 231.204 312.168 231.863 312.168 232.671ZM334.318 231.204C335.128 231.204 335.785 231.863 335.785 232.671C335.785 233.481 335.128 234.139 334.318 234.139C333.509 234.139 332.851 233.481 332.851 232.671C332.851 231.863 333.509 231.204 334.318 231.204ZM323.977 232.671C323.977 233.481 323.319 234.139 322.51 234.139C321.701 234.139 321.043 233.481 321.043 232.671C321.043 231.863 321.701 231.204 322.51 231.204C323.319 231.204 323.977 231.863 323.977 232.671ZM325.114 216.238C325.114 217.674 323.946 218.842 322.51 218.842C321.073 218.842 319.905 217.674 319.905 216.238V212.506H325.114V216.238ZM345.268 199.954C345.268 199.978 345.25 199.997 345.228 199.997C343.264 199.997 341.737 199.997 339.728 199.997C339.706 199.997 339.687 199.978 339.687 199.954V199.294C339.687 197.754 340.939 196.503 342.478 196.503C344.017 196.503 345.268 197.754 345.268 199.294V199.954Z" fill="white"/>
</g>
<g filter="url(#filter10_f)">
<circle cx="162" cy="218" r="70" fill="#0E243E" fill-opacity="0.1"/>
<circle cx="162" cy="218" r="70" stroke="#7BD7FF" stroke-width="6"/>
</g>
<g filter="url(#filter11_f)">
<circle cx="162" cy="218" r="70" fill="#0E243E" fill-opacity="0.1"/>
<circle cx="162" cy="218" r="68.5" stroke="white" stroke-width="3"/>
</g>
<path d="M122.376 253V243.718H129.344V253H128.187V244.745H123.546V253H122.376ZM137.787 249.503C137.787 250.656 137.492 251.548 136.903 252.181C136.322 252.814 135.533 253.13 134.537 253.13C133.921 253.13 133.371 252.991 132.886 252.714C132.409 252.428 132.032 252.016 131.755 251.479C131.477 250.933 131.339 250.274 131.339 249.503C131.339 248.35 131.629 247.462 132.21 246.838C132.79 246.214 133.579 245.902 134.576 245.902C135.208 245.902 135.763 246.045 136.24 246.331C136.725 246.608 137.102 247.016 137.371 247.553C137.648 248.082 137.787 248.732 137.787 249.503ZM132.522 249.503C132.522 250.326 132.682 250.981 133.003 251.466C133.332 251.943 133.852 252.181 134.563 252.181C135.265 252.181 135.78 251.943 136.11 251.466C136.439 250.981 136.604 250.326 136.604 249.503C136.604 248.68 136.439 248.034 136.11 247.566C135.78 247.098 135.26 246.864 134.55 246.864C133.839 246.864 133.323 247.098 133.003 247.566C132.682 248.034 132.522 248.68 132.522 249.503ZM144.904 253H143.747V246.981H141.693C141.58 248.446 141.424 249.629 141.225 250.53C141.025 251.423 140.761 252.073 140.432 252.48C140.102 252.887 139.686 253.091 139.184 253.091C139.071 253.091 138.958 253.082 138.846 253.065C138.742 253.056 138.655 253.035 138.586 253V252.142C138.638 252.159 138.694 252.172 138.755 252.181C138.815 252.19 138.876 252.194 138.937 252.194C139.405 252.194 139.777 251.696 140.055 250.699C140.341 249.702 140.557 248.147 140.705 246.032H144.904V253ZM148.194 246.032V250.283C148.194 250.387 148.19 250.543 148.181 250.751C148.173 250.959 148.16 251.167 148.142 251.375C148.134 251.583 148.125 251.748 148.116 251.869L151.847 246.032H153.251V253H152.185V248.892C152.185 248.753 152.185 248.571 152.185 248.346C152.194 248.121 152.203 247.9 152.211 247.683C152.22 247.458 152.229 247.289 152.237 247.176L148.532 253H147.115V246.032H148.194ZM162.944 246.032V253H161.917V248.554C161.917 248.372 161.921 248.181 161.93 247.982C161.947 247.783 161.964 247.588 161.982 247.397H161.943L159.668 253H158.706L156.496 247.397H156.457C156.483 247.787 156.496 248.186 156.496 248.593V253H155.469V246.032H156.99L159.187 251.635L161.423 246.032H162.944ZM167.859 245.902C168.457 245.902 168.968 246.032 169.393 246.292C169.826 246.552 170.156 246.92 170.381 247.397C170.615 247.865 170.732 248.415 170.732 249.048V249.737H165.961C165.978 250.526 166.178 251.128 166.559 251.544C166.949 251.951 167.491 252.155 168.184 252.155C168.626 252.155 169.016 252.116 169.354 252.038C169.701 251.951 170.056 251.83 170.42 251.674V252.675C170.065 252.831 169.714 252.944 169.367 253.013C169.02 253.091 168.609 253.13 168.132 253.13C167.473 253.13 166.888 252.996 166.377 252.727C165.874 252.458 165.48 252.06 165.194 251.531C164.917 250.994 164.778 250.339 164.778 249.568C164.778 248.805 164.904 248.151 165.155 247.605C165.415 247.059 165.775 246.639 166.234 246.344C166.702 246.049 167.244 245.902 167.859 245.902ZM167.846 246.838C167.3 246.838 166.867 247.016 166.546 247.371C166.234 247.718 166.048 248.203 165.987 248.827H169.536C169.527 248.238 169.389 247.761 169.12 247.397C168.851 247.024 168.427 246.838 167.846 246.838ZM175.821 245.902C176.679 245.902 177.368 246.201 177.888 246.799C178.417 247.397 178.681 248.298 178.681 249.503C178.681 250.69 178.417 251.592 177.888 252.207C177.368 252.822 176.675 253.13 175.808 253.13C175.271 253.13 174.824 253.03 174.469 252.831C174.122 252.623 173.849 252.385 173.65 252.116H173.572C173.589 252.263 173.607 252.45 173.624 252.675C173.641 252.9 173.65 253.095 173.65 253.26V256.12H172.506V246.032H173.442L173.598 246.981H173.65C173.858 246.678 174.131 246.422 174.469 246.214C174.807 246.006 175.258 245.902 175.821 245.902ZM175.613 246.864C174.902 246.864 174.4 247.063 174.105 247.462C173.819 247.861 173.667 248.467 173.65 249.282V249.503C173.65 250.361 173.789 251.024 174.066 251.492C174.352 251.951 174.876 252.181 175.639 252.181C176.064 252.181 176.41 252.064 176.679 251.83C176.956 251.596 177.16 251.28 177.29 250.881C177.429 250.474 177.498 250.01 177.498 249.49C177.498 248.693 177.342 248.056 177.03 247.579C176.727 247.102 176.254 246.864 175.613 246.864ZM181.648 246.032V248.931H185.431V246.032H186.575V253H185.431V249.893H181.648V253H180.504V246.032H181.648ZM194.839 249.503C194.839 250.656 194.545 251.548 193.955 252.181C193.375 252.814 192.586 253.13 191.589 253.13C190.974 253.13 190.424 252.991 189.938 252.714C189.462 252.428 189.085 252.016 188.807 251.479C188.53 250.933 188.391 250.274 188.391 249.503C188.391 248.35 188.682 247.462 189.262 246.838C189.843 246.214 190.632 245.902 191.628 245.902C192.261 245.902 192.816 246.045 193.292 246.331C193.778 246.608 194.155 247.016 194.423 247.553C194.701 248.082 194.839 248.732 194.839 249.503ZM189.574 249.503C189.574 250.326 189.735 250.981 190.055 251.466C190.385 251.943 190.905 252.181 191.615 252.181C192.317 252.181 192.833 251.943 193.162 251.466C193.492 250.981 193.656 250.326 193.656 249.503C193.656 248.68 193.492 248.034 193.162 247.566C192.833 247.098 192.313 246.864 191.602 246.864C190.892 246.864 190.376 247.098 190.055 247.566C189.735 248.034 189.574 248.68 189.574 249.503ZM199.343 245.902C199.941 245.902 200.453 246.032 200.877 246.292C201.311 246.552 201.64 246.92 201.865 247.397C202.099 247.865 202.216 248.415 202.216 249.048V249.737H197.445C197.463 250.526 197.662 251.128 198.043 251.544C198.433 251.951 198.975 252.155 199.668 252.155C200.11 252.155 200.5 252.116 200.838 252.038C201.185 251.951 201.54 251.83 201.904 251.674V252.675C201.549 252.831 201.198 252.944 200.851 253.013C200.505 253.091 200.093 253.13 199.616 253.13C198.958 253.13 198.373 252.996 197.861 252.727C197.359 252.458 196.964 252.06 196.678 251.531C196.401 250.994 196.262 250.339 196.262 249.568C196.262 248.805 196.388 248.151 196.639 247.605C196.899 247.059 197.259 246.639 197.718 246.344C198.186 246.049 198.728 245.902 199.343 245.902ZM199.33 246.838C198.784 246.838 198.351 247.016 198.03 247.371C197.718 247.718 197.532 248.203 197.471 248.827H201.02C201.012 248.238 200.873 247.761 200.604 247.397C200.336 247.024 199.911 246.838 199.33 246.838ZM137.567 262.032V269H136.423V263.007H132.822V269H131.678V262.032H137.567ZM145.848 265.503C145.848 266.656 145.553 267.548 144.964 268.181C144.383 268.814 143.595 269.13 142.598 269.13C141.983 269.13 141.432 268.991 140.947 268.714C140.47 268.428 140.093 268.016 139.816 267.479C139.539 266.933 139.4 266.274 139.4 265.503C139.4 264.35 139.69 263.462 140.271 262.838C140.852 262.214 141.64 261.902 142.637 261.902C143.27 261.902 143.824 262.045 144.301 262.331C144.786 262.608 145.163 263.016 145.432 263.553C145.709 264.082 145.848 264.732 145.848 265.503ZM140.583 265.503C140.583 266.326 140.743 266.981 141.064 267.466C141.393 267.943 141.913 268.181 142.624 268.181C143.326 268.181 143.842 267.943 144.171 267.466C144.5 266.981 144.665 266.326 144.665 265.503C144.665 264.68 144.5 264.034 144.171 263.566C143.842 263.098 143.322 262.864 142.611 262.864C141.9 262.864 141.385 263.098 141.064 263.566C140.743 264.034 140.583 264.68 140.583 265.503ZM151.782 262.032H153.03L150.053 265.386L153.277 269H151.951L148.805 265.464V269H147.661V262.032H148.805V265.412L151.782 262.032ZM157.857 261.902C158.715 261.902 159.404 262.201 159.924 262.799C160.453 263.397 160.717 264.298 160.717 265.503C160.717 266.69 160.453 267.592 159.924 268.207C159.404 268.822 158.711 269.13 157.844 269.13C157.307 269.13 156.86 269.03 156.505 268.831C156.158 268.623 155.885 268.385 155.686 268.116H155.608C155.625 268.263 155.643 268.45 155.66 268.675C155.677 268.9 155.686 269.095 155.686 269.26V272.12H154.542V262.032H155.478L155.634 262.981H155.686C155.894 262.678 156.167 262.422 156.505 262.214C156.843 262.006 157.294 261.902 157.857 261.902ZM157.649 262.864C156.938 262.864 156.436 263.063 156.141 263.462C155.855 263.861 155.703 264.467 155.686 265.282V265.503C155.686 266.361 155.825 267.024 156.102 267.492C156.388 267.951 156.912 268.181 157.675 268.181C158.1 268.181 158.446 268.064 158.715 267.83C158.992 267.596 159.196 267.28 159.326 266.881C159.465 266.474 159.534 266.01 159.534 265.49C159.534 264.693 159.378 264.056 159.066 263.579C158.763 263.102 158.29 262.864 157.649 262.864ZM162.54 269V262.032H163.684V264.892H165.491C166.392 264.892 167.06 265.057 167.493 265.386C167.926 265.715 168.143 266.209 168.143 266.868C168.143 267.518 167.931 268.038 167.506 268.428C167.081 268.809 166.392 269 165.439 269H162.54ZM169.3 269V262.032H170.444V269H169.3ZM163.684 268.077H165.335C165.829 268.077 166.232 267.995 166.544 267.83C166.856 267.657 167.012 267.358 167.012 266.933C167.012 266.508 166.869 266.222 166.583 266.075C166.297 265.919 165.885 265.841 165.348 265.841H163.684V268.077ZM177.468 262.994H175.193V269H174.062V262.994H171.813V262.032H177.468V262.994ZM179.92 262.032V266.283C179.92 266.387 179.916 266.543 179.907 266.751C179.898 266.959 179.885 267.167 179.868 267.375C179.859 267.583 179.851 267.748 179.842 267.869L183.573 262.032H184.977V269H183.911V264.892C183.911 264.753 183.911 264.571 183.911 264.346C183.92 264.121 183.928 263.9 183.937 263.683C183.946 263.458 183.954 263.289 183.963 263.176L180.258 269H178.841V262.032H179.92ZM189.885 261.902C190.483 261.902 190.995 262.032 191.419 262.292C191.853 262.552 192.182 262.92 192.407 263.397C192.641 263.865 192.758 264.415 192.758 265.048V265.737H187.987C188.005 266.526 188.204 267.128 188.585 267.544C188.975 267.951 189.517 268.155 190.21 268.155C190.652 268.155 191.042 268.116 191.38 268.038C191.727 267.951 192.082 267.83 192.446 267.674V268.675C192.091 268.831 191.74 268.944 191.393 269.013C191.047 269.091 190.635 269.13 190.158 269.13C189.5 269.13 188.915 268.996 188.403 268.727C187.901 268.458 187.506 268.06 187.22 267.531C186.943 266.994 186.804 266.339 186.804 265.568C186.804 264.805 186.93 264.151 187.181 263.605C187.441 263.059 187.801 262.639 188.26 262.344C188.728 262.049 189.27 261.902 189.885 261.902ZM189.872 262.838C189.326 262.838 188.893 263.016 188.572 263.371C188.26 263.718 188.074 264.203 188.013 264.827H191.562C191.554 264.238 191.415 263.761 191.146 263.397C190.878 263.024 190.453 262.838 189.872 262.838Z" fill="white"/>
<g clip-path="url(#clip1)">
<path d="M181.364 199.815C181.126 199.096 180.453 198.609 179.695 198.609H144.305C143.547 198.609 142.874 199.096 142.636 199.815L132.089 231.69C131.912 232.226 132.002 232.814 132.333 233.272C132.663 233.729 133.194 234 133.758 234H190.242C190.807 234 191.337 233.729 191.667 233.272C191.998 232.814 192.088 232.226 191.911 231.69L181.364 199.815ZM181.954 212.789H163.758V202.125H178.426L181.954 212.789ZM145.575 202.125H160.242V212.789H142.046L145.575 202.125ZM140.883 216.305H160.242V230.484H136.191L140.883 216.305ZM163.758 230.484V216.305H183.117L187.809 230.484H163.758Z" fill="white"/>
<path d="M170.789 189.82C170.789 190.791 171.576 191.578 172.547 191.578C173.518 191.578 174.305 190.791 174.305 189.82C174.305 186.913 176.67 184.547 179.578 184.547C180.549 184.547 181.336 183.76 181.336 182.789C181.336 181.818 180.549 181.031 179.578 181.031C176.67 181.031 174.305 178.666 174.305 175.758C174.305 174.787 173.518 174 172.547 174C171.576 174 170.789 174.787 170.789 175.758C170.789 178.666 168.423 181.031 165.516 181.031C164.545 181.031 163.758 181.818 163.758 182.789C163.758 183.76 164.545 184.547 165.516 184.547C168.423 184.547 170.789 186.913 170.789 189.82ZM172.547 181.026C173.049 181.694 173.643 182.288 174.31 182.789C173.642 183.291 173.049 183.885 172.547 184.552C172.046 183.884 171.451 183.291 170.784 182.789C171.451 182.288 172.046 181.694 172.547 181.026Z" fill="white"/>
<path d="M144.422 188.062C147.33 188.062 149.695 190.428 149.695 193.336C149.695 194.307 150.482 195.094 151.453 195.094C152.424 195.094 153.211 194.307 153.211 193.336C153.211 190.428 155.577 188.062 158.484 188.062C159.455 188.062 160.242 187.276 160.242 186.305C160.242 185.334 159.455 184.547 158.484 184.547C155.577 184.547 153.211 182.181 153.211 179.273C153.211 178.303 152.424 177.516 151.453 177.516C150.482 177.516 149.695 178.303 149.695 179.273C149.695 182.181 147.33 184.547 144.422 184.547C143.451 184.547 142.664 185.334 142.664 186.305C142.664 187.276 143.451 188.062 144.422 188.062ZM151.453 184.541C151.955 185.209 152.549 185.803 153.216 186.305C152.549 186.806 151.955 187.401 151.453 188.068C150.952 187.4 150.358 186.806 149.69 186.305C150.358 185.803 150.952 185.209 151.453 184.541Z" fill="white"/>
</g>
<g filter="url(#filter12_f)">
<circle cx="400" cy="83" r="70" fill="#0E243E" fill-opacity="0.1"/>
<circle cx="400" cy="83" r="70" stroke="#7BD7FF" stroke-width="6"/>
</g>
<g filter="url(#filter13_f)">
<circle cx="400" cy="83" r="70" fill="#0E243E" fill-opacity="0.1"/>
<circle cx="400" cy="83" r="68.5" stroke="white" stroke-width="3"/>
</g>
<path d="M385.646 110.718L382.682 117.361C382.405 117.976 382.123 118.492 381.837 118.908C381.56 119.315 381.231 119.623 380.849 119.831C380.468 120.03 379.983 120.13 379.393 120.13C379.151 120.13 378.921 120.113 378.704 120.078C378.496 120.043 378.306 119.996 378.132 119.935V118.778C378.306 118.856 378.492 118.921 378.691 118.973C378.891 119.016 379.099 119.038 379.315 119.038C379.801 119.038 380.182 118.934 380.459 118.726C380.745 118.518 381.01 118.15 381.252 117.621L377.677 110.718H378.964L381.551 115.827C381.595 115.914 381.647 116.026 381.707 116.165C381.768 116.295 381.82 116.421 381.863 116.542H381.915C381.95 116.447 381.993 116.334 382.045 116.204C382.097 116.065 382.141 115.953 382.175 115.866L384.411 110.718H385.646ZM386.387 115.814C386.387 114.289 386.617 113.101 387.076 112.252C387.536 111.394 388.277 110.857 389.299 110.64C389.863 110.519 390.413 110.41 390.95 110.315C391.488 110.22 391.99 110.133 392.458 110.055L392.653 111.056C392.35 111.099 392.008 111.156 391.626 111.225C391.245 111.286 390.868 111.351 390.495 111.42C390.123 111.481 389.802 111.541 389.533 111.602C388.97 111.723 388.524 112.018 388.194 112.486C387.865 112.945 387.679 113.665 387.635 114.644H387.713C387.835 114.479 387.999 114.31 388.207 114.137C388.424 113.964 388.68 113.816 388.974 113.695C389.278 113.574 389.62 113.513 390.001 113.513C390.903 113.513 391.583 113.803 392.042 114.384C392.502 114.965 392.731 115.719 392.731 116.646C392.731 117.417 392.597 118.063 392.328 118.583C392.06 119.103 391.687 119.493 391.21 119.753C390.734 120.004 390.179 120.13 389.546 120.13C388.584 120.13 387.817 119.762 387.245 119.025C386.673 118.288 386.387 117.218 386.387 115.814ZM389.637 119.181C390.201 119.181 390.656 118.999 391.002 118.635C391.349 118.271 391.522 117.647 391.522 116.763C391.522 116.052 391.388 115.493 391.119 115.086C390.859 114.67 390.426 114.462 389.819 114.462C389.438 114.462 389.091 114.549 388.779 114.722C388.467 114.887 388.207 115.077 387.999 115.294C387.791 115.511 387.644 115.693 387.557 115.84C387.557 116.265 387.588 116.676 387.648 117.075C387.709 117.474 387.813 117.833 387.96 118.154C388.116 118.466 388.329 118.717 388.597 118.908C388.875 119.09 389.221 119.181 389.637 119.181ZM400.592 116.503C400.592 117.656 400.297 118.548 399.708 119.181C399.127 119.814 398.338 120.13 397.342 120.13C396.726 120.13 396.176 119.991 395.691 119.714C395.214 119.428 394.837 119.016 394.56 118.479C394.282 117.933 394.144 117.274 394.144 116.503C394.144 115.35 394.434 114.462 395.015 113.838C395.595 113.214 396.384 112.902 397.381 112.902C398.013 112.902 398.568 113.045 399.045 113.331C399.53 113.608 399.907 114.016 400.176 114.553C400.453 115.082 400.592 115.732 400.592 116.503ZM395.327 116.503C395.327 117.326 395.487 117.981 395.808 118.466C396.137 118.943 396.657 119.181 397.368 119.181C398.07 119.181 398.585 118.943 398.915 118.466C399.244 117.981 399.409 117.326 399.409 116.503C399.409 115.68 399.244 115.034 398.915 114.566C398.585 114.098 398.065 113.864 397.355 113.864C396.644 113.864 396.128 114.098 395.808 114.566C395.487 115.034 395.327 115.68 395.327 116.503ZM405.72 112.902C406.578 112.902 407.267 113.201 407.787 113.799C408.315 114.397 408.58 115.298 408.58 116.503C408.58 117.69 408.315 118.592 407.787 119.207C407.267 119.822 406.573 120.13 405.707 120.13C405.169 120.13 404.723 120.03 404.368 119.831C404.021 119.623 403.748 119.385 403.549 119.116H403.471C403.488 119.263 403.505 119.45 403.523 119.675C403.54 119.9 403.549 120.095 403.549 120.26V123.12H402.405V113.032H403.341L403.497 113.981H403.549C403.757 113.678 404.03 113.422 404.368 113.214C404.706 113.006 405.156 112.902 405.72 112.902ZM405.512 113.864C404.801 113.864 404.298 114.063 404.004 114.462C403.718 114.861 403.566 115.467 403.549 116.282V116.503C403.549 117.361 403.687 118.024 403.965 118.492C404.251 118.951 404.775 119.181 405.538 119.181C405.962 119.181 406.309 119.064 406.578 118.83C406.855 118.596 407.059 118.28 407.189 117.881C407.327 117.474 407.397 117.01 407.397 116.49C407.397 115.693 407.241 115.056 406.929 114.579C406.625 114.102 406.153 113.864 405.512 113.864ZM414.524 113.032H415.772L412.795 116.386L416.019 120H414.693L411.547 116.464V120H410.403V113.032H411.547V116.412L414.524 113.032ZM419.923 112.915C420.772 112.915 421.4 113.101 421.808 113.474C422.215 113.847 422.419 114.44 422.419 115.255V120H421.587L421.366 119.012H421.314C421.01 119.393 420.69 119.675 420.352 119.857C420.022 120.039 419.563 120.13 418.974 120.13C418.341 120.13 417.817 119.965 417.401 119.636C416.985 119.298 416.777 118.774 416.777 118.063C416.777 117.37 417.05 116.837 417.596 116.464C418.142 116.083 418.982 115.875 420.118 115.84L421.301 115.801V115.385C421.301 114.804 421.175 114.401 420.924 114.176C420.672 113.951 420.317 113.838 419.858 113.838C419.494 113.838 419.147 113.894 418.818 114.007C418.488 114.111 418.181 114.232 417.895 114.371L417.544 113.513C417.847 113.348 418.207 113.21 418.623 113.097C419.039 112.976 419.472 112.915 419.923 112.915ZM421.288 116.594L420.261 116.633C419.394 116.668 418.792 116.806 418.454 117.049C418.124 117.292 417.96 117.634 417.96 118.076C417.96 118.466 418.077 118.752 418.311 118.934C418.553 119.116 418.861 119.207 419.234 119.207C419.823 119.207 420.313 119.047 420.703 118.726C421.093 118.397 421.288 117.894 421.288 117.218V116.594ZM372.382 129.032H373.63L370.653 132.386L373.877 136H372.551L369.405 132.464V136H368.261V129.032H369.405V132.412L372.382 129.032ZM380.946 132.503C380.946 133.656 380.651 134.548 380.062 135.181C379.481 135.814 378.692 136.13 377.696 136.13C377.08 136.13 376.53 135.991 376.045 135.714C375.568 135.428 375.191 135.016 374.914 134.479C374.636 133.933 374.498 133.274 374.498 132.503C374.498 131.35 374.788 130.462 375.369 129.838C375.949 129.214 376.738 128.902 377.735 128.902C378.367 128.902 378.922 129.045 379.399 129.331C379.884 129.608 380.261 130.016 380.53 130.553C380.807 131.082 380.946 131.732 380.946 132.503ZM375.681 132.503C375.681 133.326 375.841 133.981 376.162 134.466C376.491 134.943 377.011 135.181 377.722 135.181C378.424 135.181 378.939 134.943 379.269 134.466C379.598 133.981 379.763 133.326 379.763 132.503C379.763 131.68 379.598 131.034 379.269 130.566C378.939 130.098 378.419 129.864 377.709 129.864C376.998 129.864 376.482 130.098 376.162 130.566C375.841 131.034 375.681 131.68 375.681 132.503ZM387.442 129.994H385.167V136H384.036V129.994H381.787V129.032H387.442V129.994ZM393.624 129.994H391.349V136H390.218V129.994H387.969V129.032H393.624V129.994ZM397.561 128.902C398.159 128.902 398.67 129.032 399.095 129.292C399.528 129.552 399.858 129.92 400.083 130.397C400.317 130.865 400.434 131.415 400.434 132.048V132.737H395.663C395.68 133.526 395.88 134.128 396.261 134.544C396.651 134.951 397.193 135.155 397.886 135.155C398.328 135.155 398.718 135.116 399.056 135.038C399.403 134.951 399.758 134.83 400.122 134.674V135.675C399.767 135.831 399.416 135.944 399.069 136.013C398.722 136.091 398.311 136.13 397.834 136.13C397.175 136.13 396.59 135.996 396.079 135.727C395.576 135.458 395.182 135.06 394.896 134.531C394.619 133.994 394.48 133.339 394.48 132.568C394.48 131.805 394.606 131.151 394.857 130.605C395.117 130.059 395.477 129.639 395.936 129.344C396.404 129.049 396.946 128.902 397.561 128.902ZM397.548 129.838C397.002 129.838 396.569 130.016 396.248 130.371C395.936 130.718 395.75 131.203 395.689 131.827H399.238C399.229 131.238 399.091 130.761 398.822 130.397C398.553 130.024 398.129 129.838 397.548 129.838ZM407.382 129.032V135.038H408.396V138.418H407.291V136H402.442V138.418H401.35V135.038H401.909C402.507 134.215 402.953 133.279 403.248 132.23C403.551 131.173 403.707 130.107 403.716 129.032H407.382ZM406.277 129.929H404.73C404.695 130.518 404.604 131.129 404.457 131.762C404.31 132.386 404.119 132.984 403.885 133.556C403.66 134.128 403.395 134.622 403.092 135.038H406.277V129.929ZM418.121 129.032L415.248 132.412L418.368 136H417.068L414.052 132.464V136H412.986V132.464L409.97 136H408.67L411.79 132.412L408.917 129.032H410.165L412.986 132.412V129.032H414.052V132.412L416.886 129.032H418.121ZM421.949 128.902C422.547 128.902 423.058 129.032 423.483 129.292C423.916 129.552 424.245 129.92 424.471 130.397C424.705 130.865 424.822 131.415 424.822 132.048V132.737H420.051C420.068 133.526 420.267 134.128 420.649 134.544C421.039 134.951 421.58 135.155 422.274 135.155C422.716 135.155 423.106 135.116 423.444 135.038C423.79 134.951 424.146 134.83 424.51 134.674V135.675C424.154 135.831 423.803 135.944 423.457 136.013C423.11 136.091 422.698 136.13 422.222 136.13C421.563 136.13 420.978 135.996 420.467 135.727C419.964 135.458 419.57 135.06 419.284 134.531C419.006 133.994 418.868 133.339 418.868 132.568C418.868 131.805 418.993 131.151 419.245 130.605C419.505 130.059 419.864 129.639 420.324 129.344C420.792 129.049 421.333 128.902 421.949 128.902ZM421.936 129.838C421.39 129.838 420.956 130.016 420.636 130.371C420.324 130.718 420.137 131.203 420.077 131.827H423.626C423.617 131.238 423.478 130.761 423.21 130.397C422.941 130.024 422.516 129.838 421.936 129.838ZM427.675 129.032V133.283C427.675 133.387 427.67 133.543 427.662 133.751C427.653 133.959 427.64 134.167 427.623 134.375C427.614 134.583 427.605 134.748 427.597 134.869L431.328 129.032H432.732V136H431.666V131.892C431.666 131.753 431.666 131.571 431.666 131.346C431.674 131.121 431.683 130.9 431.692 130.683C431.7 130.458 431.709 130.289 431.718 130.176L428.013 136H426.596V129.032H427.675ZM432.238 126.146C432.177 126.796 431.956 127.29 431.575 127.628C431.202 127.957 430.604 128.122 429.781 128.122C428.931 128.122 428.329 127.957 427.974 127.628C427.627 127.299 427.432 126.805 427.389 126.146H428.455C428.498 126.614 428.619 126.93 428.819 127.095C429.027 127.251 429.356 127.329 429.807 127.329C430.205 127.329 430.517 127.247 430.743 127.082C430.977 126.909 431.115 126.597 431.159 126.146H432.238Z" fill="white"/>
<g clip-path="url(#clip2)">
<path d="M385.723 95.8533C385.297 93.3847 383.139 91.5 380.55 91.5C378.482 91.5 376.691 92.7012 375.835 94.4421C375.666 94.3213 375.486 94.2142 375.3 94.1176V76.8C375.3 76.2204 374.829 75.75 374.25 75.75C373.67 75.75 373.2 76.2204 373.2 76.8V93.5999C370.884 93.5999 369 95.4836 369 97.8C369 100.116 370.884 102 373.2 102H384.75C386.487 102 387.9 100.587 387.9 98.85C387.9 97.4524 386.985 96.2649 385.723 95.8533ZM384.75 99.8999H373.2C372.042 99.8999 371.1 98.9581 371.1 97.7999C371.1 96.6416 372.042 95.7 373.2 95.7C374.18 95.7 375.05 96.2691 375.366 97.1175C375.544 97.5932 376.035 97.8735 376.537 97.7831C377.037 97.6928 377.4 97.2581 377.4 96.7499C377.4 95.0132 378.813 93.5999 380.55 93.5999C382.287 93.5999 383.7 95.0132 383.7 96.7499C383.7 97.3295 384.17 97.7999 384.75 97.7999C385.328 97.7999 385.8 98.2713 385.8 98.8498C385.8 99.4284 385.329 99.8999 384.75 99.8999Z" fill="white"/>
<path d="M430.95 47.4H411C410.42 47.4 409.95 47.8705 409.95 48.45C409.95 49.0296 410.42 49.5 411 49.5H429.9V72.1653L401.242 43.5077C401.036 43.3018 400.767 43.2001 400.497 43.2001C400.227 43.2001 399.957 43.302 399.751 43.5077L371.1 72.1642V49.5H382.65C383.23 49.5 383.7 49.0296 383.7 48.45V44.25C383.7 43.6705 383.23 43.2001 382.65 43.2001H381.6V41.1H387.9V43.2001H386.85C386.27 43.2001 385.8 43.6705 385.8 44.25V48.45C385.8 49.0296 386.27 49.5 386.85 49.5H390C390.58 49.5 391.05 49.0296 391.05 48.45C391.05 47.8705 390.58 47.4 390 47.4H387.9V45.3H388.95C389.53 45.3 390 44.8296 390 44.25V40.05C390 39.4704 389.53 39 388.95 39H380.55C379.97 39 379.5 39.4704 379.5 40.05V44.2499C379.5 44.8295 379.97 45.2999 380.55 45.2999H381.6V47.3999H370.05C369.772 47.3999 369.504 47.5102 369.308 47.7075C369.11 47.904 369 48.1718 369 48.45L369.004 74.7C369.004 75.1252 369.26 75.5074 369.653 75.6702C369.783 75.7237 369.919 75.75 370.054 75.75C370.328 75.75 370.597 75.643 370.797 75.4424L400.497 45.7315L430.208 75.4423C430.408 75.6429 430.677 75.7499 430.95 75.7499C431.085 75.7499 431.222 75.7237 431.352 75.6701C431.744 75.5073 432 75.1241 432 74.6998V48.45C432 47.8705 431.53 47.4 430.95 47.4Z" fill="white"/>
<path d="M427.8 93.5999V76.8C427.8 76.2204 427.33 75.75 426.75 75.75C426.171 75.75 425.7 76.2204 425.7 76.8V94.1176C425.515 94.2142 425.334 94.3212 425.165 94.4421C424.309 92.7012 422.518 91.5 420.45 91.5C417.861 91.5 415.703 93.3847 415.277 95.8533C414.015 96.2649 413.1 97.4524 413.1 98.85C413.1 99.2206 413.176 99.5703 413.294 99.8999H395.25C394.671 99.8999 394.2 100.37 394.2 100.95C394.2 101.529 394.671 102 395.25 102H416.25H420.45H427.8C430.116 102 432 100.116 432 97.8C432 95.4838 430.116 93.5999 427.8 93.5999ZM427.8 99.8999H420.45H416.25C415.672 99.8999 415.2 99.4285 415.2 98.85C415.2 98.2714 415.672 97.8 416.25 97.8C416.83 97.8 417.3 97.3296 417.3 96.75C417.3 95.0134 418.713 93.6 420.45 93.6C422.187 93.6 423.6 95.0134 423.6 96.75C423.6 97.2582 423.964 97.6929 424.463 97.7833C424.962 97.8746 425.457 97.5932 425.634 97.1176C425.95 96.2692 426.821 95.7001 427.8 95.7001C428.958 95.7001 429.9 96.6419 429.9 97.8001C429.9 98.9584 428.958 99.8999 427.8 99.8999Z" fill="white"/>
<path d="M404.7 60C404.7 57.6837 402.816 55.8 400.5 55.8C398.183 55.8 396.3 57.6838 396.3 60C396.3 62.3162 398.183 64.2 400.5 64.2C402.816 64.2 404.7 62.3162 404.7 60ZM398.4 60C398.4 58.8419 399.342 57.9 400.5 57.9C401.658 57.9 402.6 58.8418 402.6 60C402.6 61.1581 401.658 62.1 400.5 62.1C399.342 62.0999 398.4 61.1581 398.4 60Z" fill="white"/>
<path d="M420.45 74.7H412.05C411.471 74.7 411 75.1704 411 75.7499V87.2999H409.95C409.371 87.2999 408.9 87.7704 408.9 88.3499C408.9 88.9295 409.371 89.3999 409.95 89.3999H422.55C423.13 89.3999 423.6 88.9295 423.6 88.3499C423.6 87.7704 423.13 87.2999 422.55 87.2999H421.5V75.7499C421.5 75.1704 421.03 74.7 420.45 74.7ZM419.4 87.2999H413.1V83.1H419.4V87.2999ZM419.4 81H413.1V76.8H419.4V81Z" fill="white"/>
<path d="M411 96.7501C411 96.1705 410.529 95.7001 409.95 95.7001H406.8V75.7502C406.8 75.1706 406.329 74.7002 405.75 74.7002H395.25C394.67 74.7002 394.2 75.1706 394.2 75.7502V95.7001H391.05C390.47 95.7001 390 96.1705 390 96.7501V100.95C390 101.53 390.47 102 391.05 102C391.63 102 392.1 101.53 392.1 100.95V97.8H409.95C410.529 97.8002 411 97.3298 411 96.7501ZM404.7 85.2002H403.65C403.07 85.2002 402.6 85.6706 402.6 86.2501C402.6 86.8297 403.07 87.3001 403.65 87.3001H404.7V95.7001H396.3V76.8001H404.7V85.2002Z" fill="white"/>
<path d="M388.95 74.7H380.55C379.971 74.7 379.5 75.1704 379.5 75.7499V87.3H378.45C377.871 87.3 377.4 87.7704 377.4 88.3499C377.4 88.9295 377.871 89.4 378.45 89.4H391.05C391.63 89.4 392.1 88.9296 392.1 88.35C392.1 87.7705 391.63 87.3001 391.05 87.3001H390V75.75C390 75.1704 389.53 74.7 388.95 74.7ZM387.9 87.3H381.6V83.1H387.9V87.3ZM387.9 81H381.6V76.8H387.9V81Z" fill="white"/>
</g>
<g filter="url(#filter14_f)">
<circle cx="241" cy="83" r="70" fill="#0E243E" fill-opacity="0.1"/>
<circle cx="241" cy="83" r="70" stroke="#7BD7FF" stroke-width="6"/>
</g>
<g filter="url(#filter15_f)">
<circle cx="241" cy="83" r="70" fill="#0E243E" fill-opacity="0.1"/>
<circle cx="241" cy="83" r="68.5" stroke="white" stroke-width="3"/>
</g>
<path d="M226.646 112.718L223.682 119.361C223.405 119.976 223.123 120.492 222.837 120.908C222.56 121.315 222.231 121.623 221.849 121.831C221.468 122.03 220.983 122.13 220.393 122.13C220.151 122.13 219.921 122.113 219.704 122.078C219.496 122.043 219.306 121.996 219.132 121.935V120.778C219.306 120.856 219.492 120.921 219.691 120.973C219.891 121.016 220.099 121.038 220.315 121.038C220.801 121.038 221.182 120.934 221.459 120.726C221.745 120.518 222.01 120.15 222.252 119.621L218.677 112.718H219.964L222.551 117.827C222.595 117.914 222.647 118.026 222.707 118.165C222.768 118.295 222.82 118.421 222.863 118.542H222.915C222.95 118.447 222.993 118.334 223.045 118.204C223.097 118.065 223.141 117.953 223.175 117.866L225.411 112.718H226.646ZM227.387 117.814C227.387 116.289 227.617 115.101 228.076 114.252C228.536 113.394 229.277 112.857 230.299 112.64C230.863 112.519 231.413 112.41 231.95 112.315C232.488 112.22 232.99 112.133 233.458 112.055L233.653 113.056C233.35 113.099 233.008 113.156 232.626 113.225C232.245 113.286 231.868 113.351 231.495 113.42C231.123 113.481 230.802 113.541 230.533 113.602C229.97 113.723 229.524 114.018 229.194 114.486C228.865 114.945 228.679 115.665 228.635 116.644H228.713C228.835 116.479 228.999 116.31 229.207 116.137C229.424 115.964 229.68 115.816 229.974 115.695C230.278 115.574 230.62 115.513 231.001 115.513C231.903 115.513 232.583 115.803 233.042 116.384C233.502 116.965 233.731 117.719 233.731 118.646C233.731 119.417 233.597 120.063 233.328 120.583C233.06 121.103 232.687 121.493 232.21 121.753C231.734 122.004 231.179 122.13 230.546 122.13C229.584 122.13 228.817 121.762 228.245 121.025C227.673 120.288 227.387 119.218 227.387 117.814ZM230.637 121.181C231.201 121.181 231.656 120.999 232.002 120.635C232.349 120.271 232.522 119.647 232.522 118.763C232.522 118.052 232.388 117.493 232.119 117.086C231.859 116.67 231.426 116.462 230.819 116.462C230.438 116.462 230.091 116.549 229.779 116.722C229.467 116.887 229.207 117.077 228.999 117.294C228.791 117.511 228.644 117.693 228.557 117.84C228.557 118.265 228.588 118.676 228.648 119.075C228.709 119.474 228.813 119.833 228.96 120.154C229.116 120.466 229.329 120.717 229.597 120.908C229.875 121.09 230.221 121.181 230.637 121.181ZM241.592 118.503C241.592 119.656 241.297 120.548 240.708 121.181C240.127 121.814 239.338 122.13 238.342 122.13C237.726 122.13 237.176 121.991 236.691 121.714C236.214 121.428 235.837 121.016 235.56 120.479C235.282 119.933 235.144 119.274 235.144 118.503C235.144 117.35 235.434 116.462 236.015 115.838C236.595 115.214 237.384 114.902 238.381 114.902C239.013 114.902 239.568 115.045 240.045 115.331C240.53 115.608 240.907 116.016 241.176 116.553C241.453 117.082 241.592 117.732 241.592 118.503ZM236.327 118.503C236.327 119.326 236.487 119.981 236.808 120.466C237.137 120.943 237.657 121.181 238.368 121.181C239.07 121.181 239.585 120.943 239.915 120.466C240.244 119.981 240.409 119.326 240.409 118.503C240.409 117.68 240.244 117.034 239.915 116.566C239.585 116.098 239.065 115.864 238.355 115.864C237.644 115.864 237.128 116.098 236.808 116.566C236.487 117.034 236.327 117.68 236.327 118.503ZM246.72 114.902C247.578 114.902 248.267 115.201 248.787 115.799C249.315 116.397 249.58 117.298 249.58 118.503C249.58 119.69 249.315 120.592 248.787 121.207C248.267 121.822 247.573 122.13 246.707 122.13C246.169 122.13 245.723 122.03 245.368 121.831C245.021 121.623 244.748 121.385 244.549 121.116H244.471C244.488 121.263 244.505 121.45 244.523 121.675C244.54 121.9 244.549 122.095 244.549 122.26V125.12H243.405V115.032H244.341L244.497 115.981H244.549C244.757 115.678 245.03 115.422 245.368 115.214C245.706 115.006 246.156 114.902 246.72 114.902ZM246.512 115.864C245.801 115.864 245.298 116.063 245.004 116.462C244.718 116.861 244.566 117.467 244.549 118.282V118.503C244.549 119.361 244.687 120.024 244.965 120.492C245.251 120.951 245.775 121.181 246.538 121.181C246.962 121.181 247.309 121.064 247.578 120.83C247.855 120.596 248.059 120.28 248.189 119.881C248.327 119.474 248.397 119.01 248.397 118.49C248.397 117.693 248.241 117.056 247.929 116.579C247.625 116.102 247.153 115.864 246.512 115.864ZM255.524 115.032H256.772L253.795 118.386L257.019 122H255.693L252.547 118.464V122H251.403V115.032H252.547V118.412L255.524 115.032ZM260.923 114.915C261.772 114.915 262.4 115.101 262.808 115.474C263.215 115.847 263.419 116.44 263.419 117.255V122H262.587L262.366 121.012H262.314C262.01 121.393 261.69 121.675 261.352 121.857C261.022 122.039 260.563 122.13 259.974 122.13C259.341 122.13 258.817 121.965 258.401 121.636C257.985 121.298 257.777 120.774 257.777 120.063C257.777 119.37 258.05 118.837 258.596 118.464C259.142 118.083 259.982 117.875 261.118 117.84L262.301 117.801V117.385C262.301 116.804 262.175 116.401 261.924 116.176C261.672 115.951 261.317 115.838 260.858 115.838C260.494 115.838 260.147 115.894 259.818 116.007C259.488 116.111 259.181 116.232 258.895 116.371L258.544 115.513C258.847 115.348 259.207 115.21 259.623 115.097C260.039 114.976 260.472 114.915 260.923 114.915ZM262.288 118.594L261.261 118.633C260.394 118.668 259.792 118.806 259.454 119.049C259.124 119.292 258.96 119.634 258.96 120.076C258.96 120.466 259.077 120.752 259.311 120.934C259.553 121.116 259.861 121.207 260.234 121.207C260.823 121.207 261.313 121.047 261.703 120.726C262.093 120.397 262.288 119.894 262.288 119.218V118.594ZM220.694 131.032H221.942L218.965 134.386L222.189 138H220.863L217.717 134.464V138H216.573V131.032H217.717V134.412L220.694 131.032ZM229.057 132.787C229.057 133.22 228.927 133.558 228.667 133.801C228.407 134.044 228.073 134.208 227.666 134.295V134.347C228.099 134.408 228.476 134.564 228.797 134.815C229.118 135.058 229.278 135.439 229.278 135.959C229.278 136.548 229.057 137.038 228.615 137.428C228.182 137.809 227.462 138 226.457 138H223.454V131.032H226.444C226.938 131.032 227.38 131.088 227.77 131.201C228.169 131.305 228.481 131.487 228.706 131.747C228.94 131.998 229.057 132.345 229.057 132.787ZM227.9 132.93C227.9 132.601 227.779 132.362 227.536 132.215C227.302 132.059 226.916 131.981 226.379 131.981H224.598V133.892H226.171C227.324 133.892 227.9 133.571 227.9 132.93ZM228.095 135.959C228.095 135.56 227.943 135.274 227.64 135.101C227.337 134.928 226.89 134.841 226.301 134.841H224.598V137.077H226.327C226.899 137.077 227.337 136.995 227.64 136.83C227.943 136.657 228.095 136.366 228.095 135.959ZM233.583 130.915C234.433 130.915 235.061 131.101 235.468 131.474C235.876 131.847 236.079 132.44 236.079 133.255V138H235.247L235.026 137.012H234.974C234.671 137.393 234.35 137.675 234.012 137.857C233.683 138.039 233.224 138.13 232.634 138.13C232.002 138.13 231.477 137.965 231.061 137.636C230.645 137.298 230.437 136.774 230.437 136.063C230.437 135.37 230.71 134.837 231.256 134.464C231.802 134.083 232.643 133.875 233.778 133.84L234.961 133.801V133.385C234.961 132.804 234.836 132.401 234.584 132.176C234.333 131.951 233.978 131.838 233.518 131.838C233.154 131.838 232.808 131.894 232.478 132.007C232.149 132.111 231.841 132.232 231.555 132.371L231.204 131.513C231.508 131.348 231.867 131.21 232.283 131.097C232.699 130.976 233.133 130.915 233.583 130.915ZM234.948 134.594L233.921 134.633C233.055 134.668 232.452 134.806 232.114 135.049C231.785 135.292 231.62 135.634 231.62 136.076C231.62 136.466 231.737 136.752 231.971 136.934C232.214 137.116 232.522 137.207 232.894 137.207C233.484 137.207 233.973 137.047 234.363 136.726C234.753 136.397 234.948 135.894 234.948 135.218V134.594ZM241.546 130.902C242.404 130.902 243.093 131.201 243.613 131.799C244.142 132.397 244.406 133.298 244.406 134.503C244.406 135.69 244.142 136.592 243.613 137.207C243.093 137.822 242.4 138.13 241.533 138.13C240.996 138.13 240.55 138.03 240.194 137.831C239.848 137.623 239.575 137.385 239.375 137.116H239.297C239.315 137.263 239.332 137.45 239.349 137.675C239.367 137.9 239.375 138.095 239.375 138.26V141.12H238.231V131.032H239.167L239.323 131.981H239.375C239.583 131.678 239.856 131.422 240.194 131.214C240.532 131.006 240.983 130.902 241.546 130.902ZM241.338 131.864C240.628 131.864 240.125 132.063 239.83 132.462C239.544 132.861 239.393 133.467 239.375 134.282V134.503C239.375 135.361 239.514 136.024 239.791 136.492C240.077 136.951 240.602 137.181 241.364 137.181C241.789 137.181 242.136 137.064 242.404 136.83C242.682 136.596 242.885 136.28 243.015 135.881C243.154 135.474 243.223 135.01 243.223 134.49C243.223 133.693 243.067 133.056 242.755 132.579C242.452 132.102 241.98 131.864 241.338 131.864ZM250.913 131.994H248.638V138H247.507V131.994H245.258V131.032H250.913V131.994ZM253.364 131.032V135.283C253.364 135.387 253.36 135.543 253.351 135.751C253.343 135.959 253.33 136.167 253.312 136.375C253.304 136.583 253.295 136.748 253.286 136.869L257.017 131.032H258.421V138H257.355V133.892C257.355 133.753 257.355 133.571 257.355 133.346C257.364 133.121 257.373 132.9 257.381 132.683C257.39 132.458 257.399 132.289 257.407 132.176L253.702 138H252.285V131.032H253.364ZM263.954 130.902C264.812 130.902 265.501 131.201 266.021 131.799C266.549 132.397 266.814 133.298 266.814 134.503C266.814 135.69 266.549 136.592 266.021 137.207C265.501 137.822 264.807 138.13 263.941 138.13C263.403 138.13 262.957 138.03 262.602 137.831C262.255 137.623 261.982 137.385 261.783 137.116H261.705C261.722 137.263 261.739 137.45 261.757 137.675C261.774 137.9 261.783 138.095 261.783 138.26V141.12H260.639V131.032H261.575L261.731 131.981H261.783C261.991 131.678 262.264 131.422 262.602 131.214C262.94 131.006 263.39 130.902 263.954 130.902ZM263.746 131.864C263.035 131.864 262.532 132.063 262.238 132.462C261.952 132.861 261.8 133.467 261.783 134.282V134.503C261.783 135.361 261.921 136.024 262.199 136.492C262.485 136.951 263.009 137.181 263.772 137.181C264.196 137.181 264.543 137.064 264.812 136.83C265.089 136.596 265.293 136.28 265.423 135.881C265.561 135.474 265.631 135.01 265.631 134.49C265.631 133.693 265.475 133.056 265.163 132.579C264.859 132.102 264.387 131.864 263.746 131.864Z" fill="white"/>
<g clip-path="url(#clip3)">
<path d="M274.808 101.614H274.205C274.338 101.241 274.41 100.84 274.41 100.421C274.41 99.537 274.088 98.7036 273.52 98.0596C273.583 97.792 273.615 97.5172 273.615 97.2411C273.615 95.6862 272.618 94.3604 271.23 93.8681V51.9156C271.23 51.2567 270.696 50.7228 270.037 50.7228H252.145V39.1928C252.145 38.5339 251.611 38 250.953 38H215.965C215.306 38 214.772 38.5339 214.772 39.1928V93.868C213.384 94.3604 212.387 95.6861 212.387 97.2409C212.387 97.517 212.419 97.792 212.482 98.0595C211.913 98.7036 211.591 99.5367 211.591 100.421C211.591 100.84 211.664 101.241 211.797 101.614H211.194C210.535 101.614 210.001 102.148 210.001 102.807C210.001 103.466 210.535 104 211.194 104H274.808C275.467 104 276.001 103.466 276.001 102.807C276.001 102.148 275.467 101.614 274.808 101.614ZM252.145 53.1083H268.844V93.8686C268.708 93.9169 268.575 93.9726 268.447 94.0372C267.956 93.7926 267.413 93.6629 266.856 93.6629C266.3 93.6629 265.757 93.7927 265.266 94.0372C264.775 93.7926 264.232 93.6629 263.676 93.6629C263.119 93.6629 262.576 93.7927 262.085 94.0372C261.595 93.7926 261.051 93.6629 260.495 93.6629C259.938 93.6629 259.395 93.7927 258.905 94.0372C258.414 93.7926 257.871 93.6629 257.314 93.6629C256.758 93.6629 256.215 93.7927 255.724 94.0372C255.233 93.7926 254.69 93.6629 254.134 93.6629C253.577 93.6629 253.034 93.7927 252.543 94.0372C252.414 93.9728 252.281 93.9169 252.146 93.8686V53.1083H252.145ZM217.158 40.3855H249.76V51.9156V93.8686C249.624 93.9169 249.491 93.9726 249.362 94.0372C248.872 93.7926 248.328 93.6629 247.772 93.6629C247.362 93.6629 246.959 93.7339 246.579 93.8689V93.2648C246.579 92.606 246.045 92.072 245.386 92.072C244.728 92.072 244.194 92.606 244.194 93.2648V93.6854C243.777 93.7321 243.374 93.8513 243.001 94.0372C242.628 93.8513 242.225 93.732 241.808 93.6854V93.2648C241.808 92.606 241.274 92.072 240.615 92.072C239.957 92.072 239.423 92.606 239.423 93.2648V93.8686C239.043 93.7338 238.64 93.6626 238.23 93.6626C237.82 93.6626 237.417 93.7336 237.037 93.8686V93.2648C237.037 92.606 236.503 92.072 235.844 92.072C235.186 92.072 234.651 92.606 234.651 93.2648V93.6854C234.235 93.7321 233.832 93.8513 233.459 94.0372C233.086 93.8513 232.682 93.732 232.266 93.6854V93.2648C232.266 92.606 231.732 92.072 231.073 92.072C230.414 92.072 229.88 92.606 229.88 93.2648V93.8686C229.5 93.7338 229.098 93.6626 228.688 93.6626C228.277 93.6626 227.875 93.7336 227.495 93.8686V93.2648C227.495 92.606 226.961 92.072 226.302 92.072C225.643 92.072 225.109 92.606 225.109 93.2648V93.6854C224.693 93.7321 224.289 93.8513 223.917 94.0372C223.544 93.8513 223.14 93.732 222.724 93.6854V93.2648C222.724 92.606 222.19 92.072 221.531 92.072C220.872 92.072 220.338 92.606 220.338 93.2648V93.8686C219.958 93.7338 219.556 93.6626 219.145 93.6626C218.589 93.6626 218.046 93.7924 217.555 94.037C217.426 93.9725 217.293 93.9167 217.158 93.8684V40.3855ZM270.835 101.614C270.833 101.614 270.831 101.615 270.829 101.615H215.176C215.174 101.615 215.172 101.614 215.17 101.614C214.512 101.614 213.977 101.079 213.977 100.421C213.977 100.014 214.184 99.6382 214.53 99.4166C215.064 99.0753 215.238 98.3765 214.926 97.825C214.824 97.6439 214.772 97.4476 214.772 97.2411C214.772 96.5832 215.307 96.0483 215.965 96.0483C216.339 96.0483 216.603 96.2148 216.759 96.3544C217.212 96.7611 217.899 96.7611 218.352 96.3544C218.508 96.2148 218.772 96.0483 219.146 96.0483C219.52 96.0483 219.784 96.2148 219.94 96.3544C220.393 96.7611 221.08 96.7611 221.533 96.3544C221.689 96.2148 221.953 96.0483 222.327 96.0483C222.701 96.0483 222.965 96.2148 223.121 96.3544C223.574 96.7611 224.26 96.7611 224.714 96.3544C224.869 96.2148 225.133 96.0483 225.508 96.0483C225.882 96.0483 226.146 96.2148 226.302 96.3544C226.755 96.7611 227.441 96.7611 227.895 96.3544C228.05 96.2148 228.314 96.0483 228.689 96.0483C229.063 96.0483 229.327 96.2148 229.482 96.3544C229.936 96.7611 230.622 96.7611 231.075 96.3544C231.231 96.2148 231.495 96.0483 231.869 96.0483C232.243 96.0483 232.508 96.2148 232.663 96.3544C233.117 96.7611 233.803 96.7611 234.256 96.3544C234.412 96.2148 234.676 96.0483 235.05 96.0483C235.424 96.0483 235.689 96.2148 235.844 96.3544C236.297 96.7611 236.984 96.7611 237.437 96.3544C237.593 96.2148 237.857 96.0483 238.231 96.0483C238.605 96.0483 238.869 96.2148 239.025 96.3544C239.478 96.7611 240.165 96.7611 240.618 96.3544C240.774 96.2148 241.038 96.0483 241.412 96.0483C241.786 96.0483 242.05 96.2148 242.206 96.3544C242.659 96.7611 243.346 96.7611 243.799 96.3544C243.955 96.2148 244.219 96.0483 244.593 96.0483C244.967 96.0483 245.231 96.2148 245.387 96.3544C245.84 96.7611 246.527 96.7611 246.98 96.3544C247.136 96.2148 247.4 96.0483 247.774 96.0483C248.148 96.0483 248.412 96.2148 248.568 96.3544C249.021 96.7611 249.708 96.7611 250.161 96.3544C250.317 96.2148 250.581 96.0483 250.955 96.0483C251.329 96.0483 251.593 96.2148 251.749 96.3544C252.202 96.7611 252.888 96.7611 253.342 96.3544C253.497 96.2148 253.761 96.0483 254.136 96.0483C254.51 96.0483 254.774 96.2148 254.93 96.3544C255.383 96.7611 256.069 96.7611 256.523 96.3544C256.678 96.2148 256.942 96.0483 257.317 96.0483C257.691 96.0483 257.955 96.2148 258.11 96.3544C258.564 96.7611 259.25 96.7611 259.703 96.3544C259.859 96.2148 260.123 96.0483 260.497 96.0483C260.871 96.0483 261.136 96.2148 261.291 96.3544C261.745 96.7611 262.431 96.7611 262.884 96.3544C263.04 96.2148 263.304 96.0483 263.678 96.0483C264.052 96.0483 264.317 96.2148 264.472 96.3544C264.925 96.7611 265.612 96.7611 266.065 96.3544C266.221 96.2148 266.485 96.0483 266.859 96.0483C267.233 96.0483 267.497 96.2148 267.653 96.3544C268.106 96.7611 268.793 96.7611 269.246 96.3544C269.402 96.2148 269.666 96.0483 270.04 96.0483C270.698 96.0483 271.233 96.5832 271.233 97.2411C271.233 97.4477 271.181 97.6439 271.079 97.825C270.767 98.3766 270.941 99.0754 271.475 99.4166C271.821 99.6383 272.028 100.014 272.028 100.421C272.028 101.079 271.493 101.614 270.835 101.614Z" fill="white"/>
<path d="M255.722 59.4698H265.264C265.923 59.4698 266.457 58.9358 266.457 58.277C266.457 57.6182 265.923 57.0842 265.264 57.0842H255.722C255.063 57.0842 254.529 57.6182 254.529 58.277C254.529 58.936 255.063 59.4698 255.722 59.4698Z" fill="white"/>
<path d="M255.722 65.8313H265.264C265.923 65.8313 266.457 65.2974 266.457 64.6386C266.457 63.9797 265.923 63.4458 265.264 63.4458H255.722C255.063 63.4458 254.529 63.9797 254.529 64.6386C254.529 65.2974 255.063 65.8313 255.722 65.8313Z" fill="white"/>
<path d="M255.722 72.1924H265.264C265.923 72.1924 266.457 71.6585 266.457 70.9997C266.457 70.3408 265.923 69.8069 265.264 69.8069H255.722C255.063 69.8069 254.529 70.3408 254.529 70.9997C254.529 71.6585 255.063 72.1924 255.722 72.1924Z" fill="white"/>
<path d="M255.722 78.554H265.264C265.923 78.554 266.457 78.0201 266.457 77.3612C266.457 76.7024 265.923 76.1685 265.264 76.1685H255.722C255.063 76.1685 254.529 76.7024 254.529 77.3612C254.529 78.0201 255.063 78.554 255.722 78.554Z" fill="white"/>
<path d="M255.722 84.9156H265.264C265.923 84.9156 266.457 84.3816 266.457 83.7228C266.457 83.064 265.923 82.53 265.264 82.53H255.722C255.063 82.53 254.529 83.064 254.529 83.7228C254.529 84.3816 255.063 84.9156 255.722 84.9156Z" fill="white"/>
<path d="M255.722 91.2769H265.264C265.923 91.2769 266.457 90.743 266.457 90.0841C266.457 89.4253 265.923 88.8914 265.264 88.8914H255.722C255.063 88.8914 254.529 89.4253 254.529 90.0841C254.529 90.7431 255.063 91.2769 255.722 91.2769Z" fill="white"/>
<path d="M221.53 48.3372C222.188 48.3372 222.722 47.8033 222.722 47.1444V45.5541C222.722 44.8953 222.188 44.3613 221.53 44.3613C220.871 44.3613 220.337 44.8953 220.337 45.5541V47.1444C220.337 47.8034 220.871 48.3372 221.53 48.3372Z" fill="white"/>
<path d="M226.301 48.3372C226.96 48.3372 227.494 47.8033 227.494 47.1444V45.5541C227.494 44.8953 226.96 44.3613 226.301 44.3613C225.642 44.3613 225.108 44.8953 225.108 45.5541V47.1444C225.109 47.8034 225.642 48.3372 226.301 48.3372Z" fill="white"/>
<path d="M231.073 48.3372C231.731 48.3372 232.265 47.8033 232.265 47.1444V45.5541C232.265 44.8953 231.731 44.3613 231.073 44.3613C230.414 44.3613 229.88 44.8953 229.88 45.5541V47.1444C229.88 47.8034 230.414 48.3372 231.073 48.3372Z" fill="white"/>
<path d="M235.844 48.3372C236.503 48.3372 237.037 47.8033 237.037 47.1444V45.5541C237.037 44.8953 236.503 44.3613 235.844 44.3613C235.185 44.3613 234.651 44.8953 234.651 45.5541V47.1444C234.651 47.8034 235.185 48.3372 235.844 48.3372Z" fill="white"/>
<path d="M240.615 48.3372C241.273 48.3372 241.807 47.8033 241.807 47.1444V45.5541C241.807 44.8953 241.273 44.3613 240.615 44.3613C239.956 44.3613 239.422 44.8953 239.422 45.5541V47.1444C239.422 47.8034 239.956 48.3372 240.615 48.3372Z" fill="white"/>
<path d="M245.386 48.3372C246.045 48.3372 246.579 47.8033 246.579 47.1444V45.5541C246.579 44.8953 246.045 44.3613 245.386 44.3613C244.727 44.3613 244.193 44.8953 244.193 45.5541V47.1444C244.193 47.8034 244.727 48.3372 245.386 48.3372Z" fill="white"/>
<path d="M221.53 56.2891C222.188 56.2891 222.722 55.7552 222.722 55.0963V53.506C222.722 52.8472 222.188 52.3132 221.53 52.3132C220.871 52.3132 220.337 52.8472 220.337 53.506V55.0963C220.337 55.7552 220.871 56.2891 221.53 56.2891Z" fill="white"/>
<path d="M226.301 56.2891C226.96 56.2891 227.494 55.7552 227.494 55.0963V53.506C227.494 52.8472 226.96 52.3132 226.301 52.3132C225.642 52.3132 225.108 52.8472 225.108 53.506V55.0963C225.109 55.7552 225.642 56.2891 226.301 56.2891Z" fill="white"/>
<path d="M231.073 56.2891C231.731 56.2891 232.265 55.7552 232.265 55.0963V53.506C232.265 52.8472 231.731 52.3132 231.073 52.3132C230.414 52.3132 229.88 52.8472 229.88 53.506V55.0963C229.88 55.7552 230.414 56.2891 231.073 56.2891Z" fill="white"/>
<path d="M235.844 56.2891C236.503 56.2891 237.037 55.7552 237.037 55.0963V53.506C237.037 52.8472 236.503 52.3132 235.844 52.3132C235.185 52.3132 234.651 52.8472 234.651 53.506V55.0963C234.651 55.7552 235.185 56.2891 235.844 56.2891Z" fill="white"/>
<path d="M240.615 56.2891C241.273 56.2891 241.807 55.7552 241.807 55.0963V53.506C241.807 52.8472 241.273 52.3132 240.615 52.3132C239.956 52.3132 239.422 52.8472 239.422 53.506V55.0963C239.422 55.7552 239.956 56.2891 240.615 56.2891Z" fill="white"/>
<path d="M245.386 56.2891C246.045 56.2891 246.579 55.7552 246.579 55.0963V53.506C246.579 52.8472 246.045 52.3132 245.386 52.3132C244.727 52.3132 244.193 52.8472 244.193 53.506V55.0963C244.193 55.7552 244.727 56.2891 245.386 56.2891Z" fill="white"/>
<path d="M221.53 64.2407C222.188 64.2407 222.722 63.7068 222.722 63.048V61.4577C222.722 60.7988 222.188 60.2649 221.53 60.2649C220.871 60.2649 220.337 60.7988 220.337 61.4577V63.048C220.337 63.7069 220.871 64.2407 221.53 64.2407Z" fill="white"/>
<path d="M226.301 64.2407C226.96 64.2407 227.494 63.7068 227.494 63.048V61.4577C227.494 60.7988 226.96 60.2649 226.301 60.2649C225.642 60.2649 225.108 60.7988 225.108 61.4577V63.048C225.109 63.7069 225.642 64.2407 226.301 64.2407Z" fill="white"/>
<path d="M231.073 64.2407C231.731 64.2407 232.265 63.7068 232.265 63.048V61.4577C232.265 60.7988 231.731 60.2649 231.073 60.2649C230.414 60.2649 229.88 60.7988 229.88 61.4577V63.048C229.88 63.7069 230.414 64.2407 231.073 64.2407Z" fill="white"/>
<path d="M235.844 64.2407C236.503 64.2407 237.037 63.7068 237.037 63.048V61.4577C237.037 60.7988 236.503 60.2649 235.844 60.2649C235.185 60.2649 234.651 60.7988 234.651 61.4577V63.048C234.651 63.7069 235.185 64.2407 235.844 64.2407Z" fill="white"/>
<path d="M240.615 64.2407C241.273 64.2407 241.807 63.7068 241.807 63.048V61.4577C241.807 60.7988 241.273 60.2649 240.615 60.2649C239.956 60.2649 239.422 60.7988 239.422 61.4577V63.048C239.422 63.7069 239.956 64.2407 240.615 64.2407Z" fill="white"/>
<path d="M245.386 64.2407C246.045 64.2407 246.579 63.7068 246.579 63.048V61.4577C246.579 60.7988 246.045 60.2649 245.386 60.2649C244.727 60.2649 244.193 60.7988 244.193 61.4577V63.048C244.193 63.7069 244.727 64.2407 245.386 64.2407Z" fill="white"/>
<path d="M221.53 72.1924C222.188 72.1924 222.722 71.6585 222.722 70.9996V69.4093C222.722 68.7505 222.188 68.2166 221.53 68.2166C220.871 68.2166 220.337 68.7505 220.337 69.4093V70.9996C220.337 71.6585 220.871 72.1924 221.53 72.1924Z" fill="white"/>
<path d="M226.301 72.1924C226.96 72.1924 227.494 71.6585 227.494 70.9996V69.4093C227.494 68.7505 226.96 68.2166 226.301 68.2166C225.642 68.2166 225.108 68.7505 225.108 69.4093V70.9996C225.109 71.6585 225.642 72.1924 226.301 72.1924Z" fill="white"/>
<path d="M231.073 72.1924C231.731 72.1924 232.265 71.6585 232.265 70.9996V69.4093C232.265 68.7505 231.731 68.2166 231.073 68.2166C230.414 68.2166 229.88 68.7505 229.88 69.4093V70.9996C229.88 71.6585 230.414 72.1924 231.073 72.1924Z" fill="white"/>
<path d="M235.844 72.1924C236.503 72.1924 237.037 71.6585 237.037 70.9996V69.4093C237.037 68.7505 236.503 68.2166 235.844 68.2166C235.185 68.2166 234.651 68.7505 234.651 69.4093V70.9996C234.651 71.6585 235.185 72.1924 235.844 72.1924Z" fill="white"/>
<path d="M240.615 72.1924C241.273 72.1924 241.807 71.6585 241.807 70.9996V69.4093C241.807 68.7505 241.273 68.2166 240.615 68.2166C239.956 68.2166 239.422 68.7505 239.422 69.4093V70.9996C239.422 71.6585 239.956 72.1924 240.615 72.1924Z" fill="white"/>
<path d="M245.386 72.1924C246.045 72.1924 246.579 71.6585 246.579 70.9996V69.4093C246.579 68.7505 246.045 68.2166 245.386 68.2166C244.727 68.2166 244.193 68.7505 244.193 69.4093V70.9996C244.193 71.6585 244.727 72.1924 245.386 72.1924Z" fill="white"/>
<path d="M221.53 80.1443C222.188 80.1443 222.722 79.6104 222.722 78.9515V77.3612C222.722 76.7024 222.188 76.1685 221.53 76.1685C220.871 76.1685 220.337 76.7024 220.337 77.3612V78.9515C220.337 79.6105 220.871 80.1443 221.53 80.1443Z" fill="white"/>
<path d="M226.301 80.1443C226.96 80.1443 227.494 79.6104 227.494 78.9515V77.3612C227.494 76.7024 226.96 76.1685 226.301 76.1685C225.642 76.1685 225.108 76.7024 225.108 77.3612V78.9515C225.109 79.6105 225.642 80.1443 226.301 80.1443Z" fill="white"/>
<path d="M231.073 80.1443C231.731 80.1443 232.265 79.6104 232.265 78.9515V77.3612C232.265 76.7024 231.731 76.1685 231.073 76.1685C230.414 76.1685 229.88 76.7024 229.88 77.3612V78.9515C229.88 79.6105 230.414 80.1443 231.073 80.1443Z" fill="white"/>
<path d="M235.844 80.1443C236.503 80.1443 237.037 79.6104 237.037 78.9515V77.3612C237.037 76.7024 236.503 76.1685 235.844 76.1685C235.185 76.1685 234.651 76.7024 234.651 77.3612V78.9515C234.651 79.6105 235.185 80.1443 235.844 80.1443Z" fill="white"/>
<path d="M240.615 80.1443C241.273 80.1443 241.807 79.6104 241.807 78.9515V77.3612C241.807 76.7024 241.273 76.1685 240.615 76.1685C239.956 76.1685 239.422 76.7024 239.422 77.3612V78.9515C239.422 79.6105 239.956 80.1443 240.615 80.1443Z" fill="white"/>
<path d="M245.386 80.1443C246.045 80.1443 246.579 79.6104 246.579 78.9515V77.3612C246.579 76.7024 246.045 76.1685 245.386 76.1685C244.727 76.1685 244.193 76.7024 244.193 77.3612V78.9515C244.193 79.6105 244.727 80.1443 245.386 80.1443Z" fill="white"/>
<path d="M221.53 88.096C222.188 88.096 222.722 87.562 222.722 86.9032V85.3129C222.722 84.654 222.188 84.1201 221.53 84.1201C220.871 84.1201 220.337 84.654 220.337 85.3129V86.9032C220.337 87.562 220.871 88.096 221.53 88.096Z" fill="white"/>
<path d="M226.301 88.096C226.96 88.096 227.494 87.562 227.494 86.9032V85.3129C227.494 84.654 226.96 84.1201 226.301 84.1201C225.642 84.1201 225.108 84.654 225.108 85.3129V86.9032C225.109 87.562 225.642 88.096 226.301 88.096Z" fill="white"/>
<path d="M231.073 88.096C231.731 88.096 232.265 87.562 232.265 86.9032V85.3129C232.265 84.654 231.731 84.1201 231.073 84.1201C230.414 84.1201 229.88 84.654 229.88 85.3129V86.9032C229.88 87.562 230.414 88.096 231.073 88.096Z" fill="white"/>
<path d="M235.844 88.096C236.503 88.096 237.037 87.562 237.037 86.9032V85.3129C237.037 84.654 236.503 84.1201 235.844 84.1201C235.185 84.1201 234.651 84.654 234.651 85.3129V86.9032C234.651 87.562 235.185 88.096 235.844 88.096Z" fill="white"/>
<path d="M240.615 88.096C241.273 88.096 241.807 87.562 241.807 86.9032V85.3129C241.807 84.654 241.273 84.1201 240.615 84.1201C239.956 84.1201 239.422 84.654 239.422 85.3129V86.9032C239.422 87.562 239.956 88.096 240.615 88.096Z" fill="white"/>
<path d="M245.386 88.096C246.045 88.096 246.579 87.562 246.579 86.9032V85.3129C246.579 84.654 246.045 84.1201 245.386 84.1201C244.727 84.1201 244.193 84.654 244.193 85.3129V86.9032C244.193 87.562 244.727 88.096 245.386 88.096Z" fill="white"/>
</g>
<g filter="url(#filter16_f)">
<circle cx="83" cy="83" r="70" fill="#0E243E" fill-opacity="0.1"/>
<circle cx="83" cy="83" r="70" stroke="#7BD7FF" stroke-width="6"/>
</g>
<g filter="url(#filter17_f)">
<circle cx="83" cy="83" r="70" fill="#0E243E" fill-opacity="0.1"/>
<circle cx="83" cy="83" r="68.5" stroke="white" stroke-width="3"/>
</g>
<path d="M50.7002 122L47.6452 113.862H47.5932C47.6192 114.131 47.6409 114.495 47.6582 114.954C47.6756 115.405 47.6842 115.877 47.6842 116.371V122H46.6052V112.718H48.3342L51.1942 120.323H51.2462L54.1582 112.718H55.8742V122H54.7172V116.293C54.7172 115.842 54.7259 115.396 54.7432 114.954C54.7692 114.512 54.7909 114.152 54.8082 113.875H54.7562L51.6622 122H50.7002ZM58.2432 122V115.032H59.3872V117.892H61.1942C62.0955 117.892 62.7629 118.057 63.1962 118.386C63.6295 118.715 63.8462 119.209 63.8462 119.868C63.8462 120.518 63.6339 121.038 63.2092 121.428C62.7845 121.809 62.0955 122 61.1422 122H58.2432ZM65.0032 122V115.032H66.1472V122H65.0032ZM59.3872 121.077H61.0382C61.5322 121.077 61.9352 120.995 62.2472 120.83C62.5592 120.657 62.7152 120.358 62.7152 119.933C62.7152 119.508 62.5722 119.222 62.2862 119.075C62.0002 118.919 61.5885 118.841 61.0512 118.841H59.3872V121.077ZM73.1713 115.994H70.8963V122H69.7653V115.994H67.5163V115.032H73.1713V115.994ZM75.688 117.892H77.755C79.5663 117.892 80.472 118.551 80.472 119.868C80.472 120.518 80.251 121.038 79.809 121.428C79.367 121.809 78.665 122 77.703 122H74.544V115.032H75.688V117.892ZM79.328 119.933C79.328 119.508 79.1763 119.222 78.873 119.075C78.5783 118.919 78.1623 118.841 77.625 118.841H75.688V121.077H77.651C78.1363 121.077 78.535 120.99 78.847 120.817C79.1676 120.644 79.328 120.349 79.328 119.933ZM84.9537 114.902C85.5517 114.902 86.063 115.032 86.4877 115.292C86.921 115.552 87.2504 115.92 87.4757 116.397C87.7097 116.865 87.8267 117.415 87.8267 118.048V118.737H83.0557C83.073 119.526 83.2724 120.128 83.6537 120.544C84.0437 120.951 84.5854 121.155 85.2787 121.155C85.7207 121.155 86.1107 121.116 86.4487 121.038C86.7954 120.951 87.1507 120.83 87.5147 120.674V121.675C87.1594 121.831 86.8084 121.944 86.4617 122.013C86.115 122.091 85.7034 122.13 85.2267 122.13C84.568 122.13 83.983 121.996 83.4717 121.727C82.969 121.458 82.5747 121.06 82.2887 120.531C82.0114 119.994 81.8727 119.339 81.8727 118.568C81.8727 117.805 81.9984 117.151 82.2497 116.605C82.5097 116.059 82.8694 115.639 83.3287 115.344C83.7967 115.049 84.3384 114.902 84.9537 114.902ZM84.9407 115.838C84.3947 115.838 83.9614 116.016 83.6407 116.371C83.3287 116.718 83.1424 117.203 83.0817 117.827H86.6307C86.622 117.238 86.4834 116.761 86.2147 116.397C85.946 116.024 85.5214 115.838 84.9407 115.838ZM98.1723 118.503C98.1723 119.656 97.8776 120.548 97.2883 121.181C96.7076 121.814 95.9189 122.13 94.9223 122.13C94.3069 122.13 93.7566 121.991 93.2713 121.714C92.7946 121.428 92.4176 121.016 92.1403 120.479C91.8629 119.933 91.7243 119.274 91.7243 118.503C91.7243 117.35 92.0146 116.462 92.5953 115.838C93.1759 115.214 93.9646 114.902 94.9613 114.902C95.5939 114.902 96.1486 115.045 96.6253 115.331C97.1106 115.608 97.4876 116.016 97.7563 116.553C98.0336 117.082 98.1723 117.732 98.1723 118.503ZM92.9073 118.503C92.9073 119.326 93.0676 119.981 93.3883 120.466C93.7176 120.943 94.2376 121.181 94.9483 121.181C95.6503 121.181 96.1659 120.943 96.4953 120.466C96.8246 119.981 96.9893 119.326 96.9893 118.503C96.9893 117.68 96.8246 117.034 96.4953 116.566C96.1659 116.098 95.6459 115.864 94.9353 115.864C94.2246 115.864 93.7089 116.098 93.3883 116.566C93.0676 117.034 92.9073 117.68 92.9073 118.503ZM104.106 115.032H105.354L102.377 118.386L105.601 122H104.275L101.129 118.464V122H99.9854V115.032H101.129V118.412L104.106 115.032ZM112.67 118.503C112.67 119.656 112.376 120.548 111.786 121.181C111.206 121.814 110.417 122.13 109.42 122.13C108.805 122.13 108.255 121.991 107.769 121.714C107.293 121.428 106.916 121.016 106.638 120.479C106.361 119.933 106.222 119.274 106.222 118.503C106.222 117.35 106.513 116.462 107.093 115.838C107.674 115.214 108.463 114.902 109.459 114.902C110.092 114.902 110.647 115.045 111.123 115.331C111.609 115.608 111.986 116.016 112.254 116.553C112.532 117.082 112.67 117.732 112.67 118.503ZM107.405 118.503C107.405 119.326 107.566 119.981 107.886 120.466C108.216 120.943 108.736 121.181 109.446 121.181C110.148 121.181 110.664 120.943 110.993 120.466C111.323 119.981 111.487 119.326 111.487 118.503C111.487 117.68 111.323 117.034 110.993 116.566C110.664 116.098 110.144 115.864 109.433 115.864C108.723 115.864 108.207 116.098 107.886 116.566C107.566 117.034 107.405 117.68 107.405 118.503ZM115.627 115.032V117.931H119.41V115.032H120.554V122H119.41V118.893H115.627V122H114.483V115.032H115.627ZM53.6728 131.032V135.283C53.6728 135.387 53.6684 135.543 53.6598 135.751C53.6511 135.959 53.6381 136.167 53.6208 136.375C53.6121 136.583 53.6034 136.748 53.5948 136.869L57.3258 131.032H58.7298V138H57.6638V133.892C57.6638 133.753 57.6638 133.571 57.6638 133.346C57.6724 133.121 57.6811 132.9 57.6898 132.683C57.6984 132.458 57.7071 132.289 57.7158 132.176L54.0108 138H52.5938V131.032H53.6728ZM67.621 128.12V130.928C68.3143 130.989 68.9166 131.171 69.428 131.474C69.948 131.777 70.351 132.185 70.637 132.696C70.923 133.207 71.066 133.814 71.066 134.516C71.066 135.565 70.7583 136.401 70.143 137.025C69.5363 137.649 68.6956 138.009 67.621 138.104V141.12H66.503V138.104C65.8183 138.043 65.216 137.866 64.696 137.571C64.176 137.268 63.773 136.86 63.487 136.349C63.201 135.829 63.058 135.218 63.058 134.516C63.058 133.459 63.3613 132.618 63.968 131.994C64.5833 131.37 65.4413 131.015 66.542 130.928V128.12H67.621ZM66.542 131.877C65.7446 131.955 65.164 132.219 64.8 132.67C64.436 133.112 64.254 133.727 64.254 134.516C64.254 135.305 64.436 135.924 64.8 136.375C65.1726 136.826 65.7533 137.09 66.542 137.168V131.877ZM67.621 131.89V137.168C68.401 137.081 68.973 136.813 69.337 136.362C69.701 135.911 69.883 135.296 69.883 134.516C69.883 133.736 69.6966 133.125 69.324 132.683C68.96 132.241 68.3923 131.977 67.621 131.89ZM75.5199 130.915C76.3692 130.915 76.9975 131.101 77.4049 131.474C77.8122 131.847 78.0159 132.44 78.0159 133.255V138H77.1839L76.9629 137.012H76.9109C76.6075 137.393 76.2869 137.675 75.9489 137.857C75.6195 138.039 75.1602 138.13 74.5709 138.13C73.9382 138.13 73.4139 137.965 72.9979 137.636C72.5819 137.298 72.3739 136.774 72.3739 136.063C72.3739 135.37 72.6469 134.837 73.1929 134.464C73.7389 134.083 74.5795 133.875 75.7149 133.84L76.8979 133.801V133.385C76.8979 132.804 76.7722 132.401 76.5209 132.176C76.2695 131.951 75.9142 131.838 75.4549 131.838C75.0909 131.838 74.7442 131.894 74.4149 132.007C74.0855 132.111 73.7779 132.232 73.4919 132.371L73.1409 131.513C73.4442 131.348 73.8039 131.21 74.2199 131.097C74.6359 130.976 75.0692 130.915 75.5199 130.915ZM76.8849 134.594L75.8579 134.633C74.9912 134.668 74.3889 134.806 74.0509 135.049C73.7215 135.292 73.5569 135.634 73.5569 136.076C73.5569 136.466 73.6739 136.752 73.9079 136.934C74.1505 137.116 74.4582 137.207 74.8309 137.207C75.4202 137.207 75.9099 137.047 76.2999 136.726C76.6899 136.397 76.8849 135.894 76.8849 135.218V134.594ZM82.963 138.13C82.3477 138.13 81.7973 138.004 81.312 137.753C80.8353 137.502 80.4583 137.112 80.181 136.583C79.9123 136.054 79.778 135.378 79.778 134.555C79.778 133.697 79.921 132.999 80.207 132.462C80.493 131.925 80.8787 131.53 81.364 131.279C81.858 131.028 82.417 130.902 83.041 130.902C83.3963 130.902 83.7387 130.941 84.068 131.019C84.3973 131.088 84.666 131.175 84.874 131.279L84.523 132.228C84.315 132.15 84.0723 132.076 83.795 132.007C83.5177 131.938 83.2577 131.903 83.015 131.903C81.6457 131.903 80.961 132.783 80.961 134.542C80.961 135.383 81.1257 136.028 81.455 136.479C81.793 136.921 82.2913 137.142 82.95 137.142C83.3313 137.142 83.665 137.103 83.951 137.025C84.2457 136.947 84.5143 136.852 84.757 136.739V137.753C84.523 137.874 84.263 137.965 83.977 138.026C83.6997 138.095 83.3617 138.13 82.963 138.13ZM89.0531 130.915C89.9024 130.915 90.5307 131.101 90.9381 131.474C91.3454 131.847 91.5491 132.44 91.5491 133.255V138H90.7171L90.4961 137.012H90.4441C90.1407 137.393 89.8201 137.675 89.4821 137.857C89.1527 138.039 88.6934 138.13 88.1041 138.13C87.4714 138.13 86.9471 137.965 86.5311 137.636C86.1151 137.298 85.9071 136.774 85.9071 136.063C85.9071 135.37 86.1801 134.837 86.7261 134.464C87.2721 134.083 88.1127 133.875 89.2481 133.84L90.4311 133.801V133.385C90.4311 132.804 90.3054 132.401 90.0541 132.176C89.8027 131.951 89.4474 131.838 88.9881 131.838C88.6241 131.838 88.2774 131.894 87.9481 132.007C87.6187 132.111 87.3111 132.232 87.0251 132.371L86.6741 131.513C86.9774 131.348 87.3371 131.21 87.7531 131.097C88.1691 130.976 88.6024 130.915 89.0531 130.915ZM90.4181 134.594L89.3911 134.633C88.5244 134.668 87.9221 134.806 87.5841 135.049C87.2547 135.292 87.0901 135.634 87.0901 136.076C87.0901 136.466 87.2071 136.752 87.4411 136.934C87.6837 137.116 87.9914 137.207 88.3641 137.207C88.9534 137.207 89.4431 137.047 89.8331 136.726C90.2231 136.397 90.4181 135.894 90.4181 135.218V134.594ZM98.8752 131.032V137.038H99.8892V140.418H98.7842V138H93.9352V140.418H92.8432V137.038H93.4022C94.0002 136.215 94.4465 135.279 94.7412 134.23C95.0445 133.173 95.2005 132.107 95.2092 131.032H98.8752ZM97.7702 131.929H96.2232C96.1885 132.518 96.0975 133.129 95.9502 133.762C95.8029 134.386 95.6122 134.984 95.3782 135.556C95.1529 136.128 94.8885 136.622 94.5852 137.038H97.7702V131.929ZM107.313 134.503C107.313 135.656 107.018 136.548 106.429 137.181C105.848 137.814 105.06 138.13 104.063 138.13C103.448 138.13 102.897 137.991 102.412 137.714C101.935 137.428 101.558 137.016 101.281 136.479C101.004 135.933 100.865 135.274 100.865 134.503C100.865 133.35 101.155 132.462 101.736 131.838C102.317 131.214 103.105 130.902 104.102 130.902C104.735 130.902 105.289 131.045 105.766 131.331C106.251 131.608 106.628 132.016 106.897 132.553C107.174 133.082 107.313 133.732 107.313 134.503ZM102.048 134.503C102.048 135.326 102.208 135.981 102.529 136.466C102.858 136.943 103.378 137.181 104.089 137.181C104.791 137.181 105.307 136.943 105.636 136.466C105.965 135.981 106.13 135.326 106.13 134.503C106.13 133.68 105.965 133.034 105.636 132.566C105.307 132.098 104.787 131.864 104.076 131.864C103.365 131.864 102.85 132.098 102.529 132.566C102.208 133.034 102.048 133.68 102.048 134.503ZM114.729 132.787C114.729 133.22 114.599 133.558 114.339 133.801C114.079 134.044 113.745 134.208 113.338 134.295V134.347C113.771 134.408 114.148 134.564 114.469 134.815C114.79 135.058 114.95 135.439 114.95 135.959C114.95 136.548 114.729 137.038 114.287 137.428C113.854 137.809 113.134 138 112.129 138H109.126V131.032H112.116C112.61 131.032 113.052 131.088 113.442 131.201C113.841 131.305 114.153 131.487 114.378 131.747C114.612 131.998 114.729 132.345 114.729 132.787ZM113.572 132.93C113.572 132.601 113.451 132.362 113.208 132.215C112.974 132.059 112.588 131.981 112.051 131.981H110.27V133.892H111.843C112.996 133.892 113.572 133.571 113.572 132.93ZM113.767 135.959C113.767 135.56 113.615 135.274 113.312 135.101C113.009 134.928 112.562 134.841 111.973 134.841H110.27V137.077H111.999C112.571 137.077 113.009 136.995 113.312 136.83C113.615 136.657 113.767 136.366 113.767 135.959Z" fill="white"/>
<g clip-path="url(#clip4)">
<path d="M111.352 98.6872H110.723V77.5589C110.723 77.0715 110.328 76.6765 109.841 76.6765C109.354 76.6765 108.959 77.0715 108.959 77.5589V98.6872H105.941V48.6649C105.941 48.1984 105.579 47.8176 105.121 47.7856C105.111 47.7849 105.101 47.7845 105.092 47.7842C105.081 47.7838 105.07 47.7825 105.059 47.7825H60.9407C60.9301 47.7825 60.9196 47.7837 60.909 47.784C60.8966 47.7845 60.8843 47.7849 60.8719 47.7859C60.8464 47.7878 60.8213 47.7911 60.7965 47.7952C60.7886 47.7965 60.7807 47.7972 60.773 47.7988C60.7387 47.8054 60.7052 47.8138 60.6725 47.8242C60.6703 47.825 60.6683 47.8259 60.6661 47.8265C60.6357 47.8365 60.6063 47.8482 60.5774 47.8613C60.5697 47.8648 60.5622 47.8686 60.5545 47.8723C60.5302 47.8842 60.5065 47.8971 60.4833 47.9112C60.4786 47.914 60.4737 47.916 60.4691 47.9191C60.4665 47.9208 60.4642 47.9227 60.4617 47.9244C60.4327 47.9432 60.4048 47.963 60.3784 47.9848C60.3774 47.9857 60.3765 47.9865 60.3757 47.9872C60.351 48.0079 60.3276 48.0301 60.3053 48.0534C60.2983 48.0606 60.2916 48.0684 60.2849 48.0759C60.2685 48.094 60.253 48.1128 60.2382 48.1323C60.2323 48.1402 60.2263 48.1478 60.2207 48.1558C60.2026 48.1812 60.1858 48.2075 60.1706 48.2349C60.1696 48.2366 60.1685 48.2381 60.1675 48.2398C60.1509 48.27 60.1364 48.3014 60.1233 48.3336C60.1209 48.3396 60.119 48.3458 60.1167 48.3519C60.107 48.3774 60.0984 48.4034 60.091 48.4302C60.0885 48.4393 60.0862 48.4485 60.084 48.4577C60.0779 48.4826 60.0732 48.5079 60.0693 48.5336C60.068 48.5428 60.0662 48.5519 60.0651 48.5611C60.0611 48.5951 60.0584 48.6296 60.0584 48.6648V98.6871H57.0408V77.5626C57.0408 77.0752 56.6458 76.6802 56.1584 76.6802C55.671 76.6802 55.2759 77.0752 55.2759 77.5626V98.6872H54.6472C53.563 98.6872 52.6807 99.5695 52.6807 100.654V103.034C52.6807 104.118 53.563 105 54.6472 105H111.352C112.436 105 113.318 104.118 113.318 103.034V100.654C113.319 99.5695 112.436 98.6872 111.352 98.6872ZM104.173 50.0602V98.6872H102.987L91.8886 94.5385V55.8887L104.173 50.0602ZM101.137 49.5473L91.0432 54.3364C90.4761 54.6055 90.1238 55.1416 90.1238 55.7354V94.704C90.1238 95.347 90.5388 95.9178 91.1812 96.1582L97.9471 98.6872H68.049L74.815 96.1581C75.4573 95.918 75.8723 95.3472 75.8723 94.704V55.7355C75.8723 55.1418 75.5202 54.6057 74.9531 54.3365L64.8591 49.5473H101.137ZM61.823 50.0602L74.1074 55.8887V94.5387L63.0089 98.6874H61.823V50.0602ZM111.352 103.235H54.6473C54.5361 103.235 54.4455 103.145 54.4455 103.034V100.654C54.4455 100.543 54.5361 100.452 54.6473 100.452H56.1584H60.9407H63.1685H102.828H105.055H105.059H109.841H111.352C111.463 100.452 111.554 100.543 111.554 100.654V103.034C111.554 103.145 111.463 103.235 111.352 103.235Z" fill="white" stroke="white" stroke-width="0.3"/>
<path d="M108.44 43H57.5595C56.3005 43 55.2764 44.0242 55.2764 45.2832V73.3138C55.2764 73.8012 55.6714 74.1962 56.1588 74.1962C56.6462 74.1962 57.0412 73.8012 57.0412 73.3138V45.2832C57.0412 44.9973 57.2738 44.7647 57.5597 44.7647H108.441C108.727 44.7647 108.959 44.9973 108.959 45.2832V73.3603C108.959 73.8477 109.354 74.2427 109.842 74.2427C110.329 74.2427 110.724 73.8477 110.724 73.3603V45.2832C110.724 44.0242 109.7 43 108.44 43Z" fill="white" stroke="white" stroke-width="0.3"/>
<path d="M101.301 54.2654C101.134 54.2654 100.969 54.3044 100.821 54.3779L94.6597 57.4601C94.3094 57.6352 94.0918 57.9834 94.0918 58.3689V73.1562C94.0917 73.7259 94.5727 74.1926 95.1636 74.1963L101.318 74.2362C101.32 74.2362 101.324 74.2362 101.325 74.2362C101.912 74.2362 102.389 73.7731 102.389 73.2037V55.32C102.389 54.7385 101.901 54.2654 101.301 54.2654ZM100.624 72.467L95.8563 72.4362V58.8345L100.624 56.4499V72.467Z" fill="white" stroke="white" stroke-width="0.3"/>
<path d="M101.315 75.4832L95.1601 75.545C94.5711 75.5513 94.0918 76.0184 94.0918 76.5861V92.1299C94.0917 92.5465 94.3463 92.9171 94.7416 93.0748L100.903 95.5224C101.029 95.5726 101.163 95.598 101.3 95.598C101.9 95.598 102.389 95.1246 102.389 94.5427V76.5149C102.389 75.946 101.912 75.4832 101.315 75.4832ZM100.624 93.5127L95.8564 91.6188V77.3028L100.624 77.2548V93.5127Z" fill="white" stroke="white" stroke-width="0.3"/>
<path d="M70.8365 75.545L64.6708 75.4832C64.0849 75.4832 63.6084 75.946 63.6084 76.5149V94.5427C63.6083 95.1246 64.0966 95.598 64.6969 95.598C64.8342 95.598 64.9678 95.5725 65.0941 95.5224L71.2558 93.0747C71.6503 92.9178 71.9051 92.5468 71.9051 92.13V76.5861C71.9051 76.0184 71.4258 75.5513 70.8365 75.545ZM70.1404 91.619L65.373 93.5128V77.255L70.1404 77.303V91.619Z" fill="white" stroke="white" stroke-width="0.3"/>
<path d="M71.3377 57.4601L65.1755 54.3779C65.0283 54.3044 64.8627 54.2654 64.6965 54.2654C64.0965 54.2654 63.6084 54.7385 63.6084 55.32V73.2038C63.6084 73.7731 64.0854 74.2363 64.6715 74.2363C64.6734 74.2363 64.6769 74.2363 64.6789 74.2363L70.8333 74.1964C71.4244 74.1927 71.9053 73.726 71.9053 73.1562V58.3689C71.9053 57.9838 71.688 57.6357 71.3377 57.4601ZM70.1406 72.4362L65.3731 72.467V56.4499L70.1406 58.8345V72.4362Z" fill="white" stroke="white" stroke-width="0.3"/>
</g>
<defs>
<filter id="filter0_f" x="260" y="132.583" width="35.9796" height="39.3622" filterUnits="userSpaceOnUse" color-interpolation-filters="sRGB">
<feFlood flood-opacity="0" result="BackgroundImageFix"/>
<feBlend mode="normal" in="SourceGraphic" in2="BackgroundImageFix" result="shape"/>
<feGaussianBlur stdDeviation="5" result="effect1_foregroundBlur"/>
</filter>
<filter id="filter1_f" x="267" y="141.292" width="19.5137" height="23.6537" filterUnits="userSpaceOnUse" color-interpolation-filters="sRGB">
<feFlood flood-opacity="0" result="BackgroundImageFix"/>
<feBlend mode="normal" in="SourceGraphic" in2="BackgroundImageFix" result="shape"/>
<feGaussianBlur stdDeviation="1.5" result="effect1_foregroundBlur"/>
</filter>
<filter id="filter2_f" x="102.005" y="132.583" width="35.9796" height="39.3622" filterUnits="userSpaceOnUse" color-interpolation-filters="sRGB">
<feFlood flood-opacity="0" result="BackgroundImageFix"/>
<feBlend mode="normal" in="SourceGraphic" in2="BackgroundImageFix" result="shape"/>
<feGaussianBlur stdDeviation="5" result="effect1_foregroundBlur"/>
</filter>
<filter id="filter3_f" x="109.005" y="141.292" width="19.5137" height="23.6537" filterUnits="userSpaceOnUse" color-interpolation-filters="sRGB">
<feFlood flood-opacity="0" result="BackgroundImageFix"/>
<feBlend mode="normal" in="SourceGraphic" in2="BackgroundImageFix" result="shape"/>
<feGaussianBlur stdDeviation="1.5" result="effect1_foregroundBlur"/>
</filter>
<filter id="filter4_f" x="191" y="136" width="35.9796" height="39.3622" filterUnits="userSpaceOnUse" color-interpolation-filters="sRGB">
<feFlood flood-opacity="0" result="BackgroundImageFix"/>
<feBlend mode="normal" in="SourceGraphic" in2="BackgroundImageFix" result="shape"/>
<feGaussianBlur stdDeviation="5" result="effect1_foregroundBlur"/>
</filter>
<filter id="filter5_f" x="198" y="143" width="19.5137" height="23.6537" filterUnits="userSpaceOnUse" color-interpolation-filters="sRGB">
<feFlood flood-opacity="0" result="BackgroundImageFix"/>
<feBlend mode="normal" in="SourceGraphic" in2="BackgroundImageFix" result="shape"/>
<feGaussianBlur stdDeviation="1.5" result="effect1_foregroundBlur"/>
</filter>
<filter id="filter6_f" x="354" y="136" width="35.9796" height="39.3622" filterUnits="userSpaceOnUse" color-interpolation-filters="sRGB">
<feFlood flood-opacity="0" result="BackgroundImageFix"/>
<feBlend mode="normal" in="SourceGraphic" in2="BackgroundImageFix" result="shape"/>
<feGaussianBlur stdDeviation="5" result="effect1_foregroundBlur"/>
</filter>
<filter id="filter7_f" x="361" y="143" width="19.5137" height="23.6537" filterUnits="userSpaceOnUse" color-interpolation-filters="sRGB">
<feFlood flood-opacity="0" result="BackgroundImageFix"/>
<feBlend mode="normal" in="SourceGraphic" in2="BackgroundImageFix" result="shape"/>
<feGaussianBlur stdDeviation="1.5" result="effect1_foregroundBlur"/>
</filter>
<filter id="filter8_f" x="239" y="135" width="166" height="166" filterUnits="userSpaceOnUse" color-interpolation-filters="sRGB">
<feFlood flood-opacity="0" result="BackgroundImageFix"/>
<feBlend mode="normal" in="SourceGraphic" in2="BackgroundImageFix" result="shape"/>
<feGaussianBlur stdDeviation="5" result="effect1_foregroundBlur"/>
</filter>
<filter id="filter9_f" x="249" y="145" width="146" height="146" filterUnits="userSpaceOnUse" color-interpolation-filters="sRGB">
<feFlood flood-opacity="0" result="BackgroundImageFix"/>
<feBlend mode="normal" in="SourceGraphic" in2="BackgroundImageFix" result="shape"/>
<feGaussianBlur stdDeviation="1.5" result="effect1_foregroundBlur"/>
</filter>
<filter id="filter10_f" x="79" y="135" width="166" height="166" filterUnits="userSpaceOnUse" color-interpolation-filters="sRGB">
<feFlood flood-opacity="0" result="BackgroundImageFix"/>
<feBlend mode="normal" in="SourceGraphic" in2="BackgroundImageFix" result="shape"/>
<feGaussianBlur stdDeviation="5" result="effect1_foregroundBlur"/>
</filter>
<filter id="filter11_f" x="89" y="145" width="146" height="146" filterUnits="userSpaceOnUse" color-interpolation-filters="sRGB">
<feFlood flood-opacity="0" result="BackgroundImageFix"/>
<feBlend mode="normal" in="SourceGraphic" in2="BackgroundImageFix" result="shape"/>
<feGaussianBlur stdDeviation="1.5" result="effect1_foregroundBlur"/>
</filter>
<filter id="filter12_f" x="317" y="0" width="166" height="166" filterUnits="userSpaceOnUse" color-interpolation-filters="sRGB">
<feFlood flood-opacity="0" result="BackgroundImageFix"/>
<feBlend mode="normal" in="SourceGraphic" in2="BackgroundImageFix" result="shape"/>
<feGaussianBlur stdDeviation="5" result="effect1_foregroundBlur"/>
</filter>
<filter id="filter13_f" x="327" y="10" width="146" height="146" filterUnits="userSpaceOnUse" color-interpolation-filters="sRGB">
<feFlood flood-opacity="0" result="BackgroundImageFix"/>
<feBlend mode="normal" in="SourceGraphic" in2="BackgroundImageFix" result="shape"/>
<feGaussianBlur stdDeviation="1.5" result="effect1_foregroundBlur"/>
</filter>
<filter id="filter14_f" x="158" y="0" width="166" height="166" filterUnits="userSpaceOnUse" color-interpolation-filters="sRGB">
<feFlood flood-opacity="0" result="BackgroundImageFix"/>
<feBlend mode="normal" in="SourceGraphic" in2="BackgroundImageFix" result="shape"/>
<feGaussianBlur stdDeviation="5" result="effect1_foregroundBlur"/>
</filter>
<filter id="filter15_f" x="168" y="10" width="146" height="146" filterUnits="userSpaceOnUse" color-interpolation-filters="sRGB">
<feFlood flood-opacity="0" result="BackgroundImageFix"/>
<feBlend mode="normal" in="SourceGraphic" in2="BackgroundImageFix" result="shape"/>
<feGaussianBlur stdDeviation="1.5" result="effect1_foregroundBlur"/>
</filter>
<filter id="filter16_f" x="0" y="0" width="166" height="166" filterUnits="userSpaceOnUse" color-interpolation-filters="sRGB">
<feFlood flood-opacity="0" result="BackgroundImageFix"/>
<feBlend mode="normal" in="SourceGraphic" in2="BackgroundImageFix" result="shape"/>
<feGaussianBlur stdDeviation="5" result="effect1_foregroundBlur"/>
</filter>
<filter id="filter17_f" x="10" y="10" width="146" height="146" filterUnits="userSpaceOnUse" color-interpolation-filters="sRGB">
<feFlood flood-opacity="0" result="BackgroundImageFix"/>
<feBlend mode="normal" in="SourceGraphic" in2="BackgroundImageFix" result="shape"/>
<feGaussianBlur stdDeviation="1.5" result="effect1_foregroundBlur"/>
</filter>
<clipPath id="clip0">
<rect width="63" height="63" fill="white" transform="translate(291 173)"/>
</clipPath>
<clipPath id="clip1">
<rect width="60" height="60" fill="white" transform="translate(132 174)"/>
</clipPath>
<clipPath id="clip2">
<rect width="63" height="63" fill="white" transform="translate(369 39)"/>
</clipPath>
<clipPath id="clip3">
<rect width="66" height="66" fill="white" transform="translate(210 38)"/>
</clipPath>
<clipPath id="clip4">
<rect width="62" height="62" fill="white" transform="translate(52 43)"/>
</clipPath>
</defs>
</svg>
