<svg width="30" height="30" viewBox="0 0 30 30" fill="none" xmlns="http://www.w3.org/2000/svg">
<g clip-path="url(#clip0)">
<path d="M29.681 12.1914L15.4605 1.77946C15.1863 1.57872 14.8138 1.57872 14.5397 1.77946L0.319077 12.1914C-0.0282669 12.4458 -0.103736 12.9335 0.15062 13.2808C0.404975 13.6282 0.892768 13.7035 1.24005 13.4493L15 3.37444L28.76 13.4492C28.8988 13.5509 29.06 13.5998 29.2199 13.5998C29.4599 13.5998 29.6967 13.4894 29.8494 13.2808C30.1038 12.9335 30.0283 12.4458 29.681 12.1914Z" fill="white"/>
<path d="M25.9127 13.626C25.4823 13.626 25.1333 13.975 25.1333 14.4054V26.8126H18.8976V20.04C18.8976 17.8908 17.149 16.1423 14.9999 16.1423C12.8508 16.1423 11.1023 17.8909 11.1023 20.04V26.8127H4.86656V14.4055C4.86656 13.975 4.51752 13.626 4.08709 13.626C3.65666 13.626 3.30762 13.975 3.30762 14.4055V27.5922C3.30762 28.0227 3.65666 28.3717 4.08709 28.3717H11.8818C12.2917 28.3717 12.6271 28.055 12.6582 27.6529C12.6601 27.6347 12.6612 27.6148 12.6612 27.5922V20.0401C12.6612 18.7505 13.7104 17.7013 14.9999 17.7013C16.2895 17.7013 17.3387 18.7505 17.3387 20.0401V27.5922C17.3387 27.6146 17.3398 27.6342 17.3417 27.6522C17.3724 28.0546 17.708 28.3717 18.1181 28.3717H25.9128C26.3433 28.3717 26.6923 28.0227 26.6923 27.5922V14.4055C26.6922 13.975 26.3432 13.626 25.9127 13.626Z" fill="white"/>
</g>
<defs>
<clipPath id="clip0">
<rect width="30" height="30" fill="white"/>
</clipPath>
</defs>
</svg>
