<svg width="109" height="110" viewBox="0 0 109 110" fill="none" xmlns="http://www.w3.org/2000/svg">
<g filter="url(#filter0_f)">
<path d="M94.2337 54.9504C94.2337 76.8773 76.4584 94.6527 54.5314 94.6527C32.6044 94.6527 14.8291 76.8773 14.8291 54.9504C14.8291 33.0234 32.6044 15.248 54.5314 15.248C76.4584 15.248 94.2337 33.0234 94.2337 54.9504Z" fill="#0E243E" fill-opacity="0.1"/>
<path d="M94.2337 54.9504C94.2337 76.8773 76.4584 94.6527 54.5314 94.6527C32.6044 94.6527 14.8291 76.8773 14.8291 54.9504C14.8291 33.0234 32.6044 15.248 54.5314 15.248C76.4584 15.248 94.2337 33.0234 94.2337 54.9504Z" stroke="white" stroke-width="9"/>
</g>
<g filter="url(#filter1_f)">
<path d="M94.2337 54.9504C94.2337 76.8773 76.4584 94.6527 54.5314 94.6527C32.6044 94.6527 14.8291 76.8773 14.8291 54.9504C14.8291 33.0234 32.6044 15.248 54.5314 15.248C76.4584 15.248 94.2337 33.0234 94.2337 54.9504Z" fill="#0E243E" fill-opacity="0.4"/>
<path d="M92.7337 54.9504C92.7337 76.0489 75.63 93.1527 54.5314 93.1527C33.4329 93.1527 16.3291 76.0489 16.3291 54.9504C16.3291 33.8518 33.4329 16.748 54.5314 16.748C75.63 16.748 92.7337 33.8518 92.7337 54.9504Z" stroke="white" stroke-width="3"/>
</g>
<g opacity="0.8" filter="url(#filter2_f)">
<path d="M40.7952 60.1964C40.9624 60.483 41.1057 60.7876 41.2252 61.1101C41.3565 61.4206 41.4819 61.7371 41.6014 62.0595C41.7208 61.7251 41.8462 61.4086 41.9776 61.1101C42.1089 60.7995 42.2582 60.489 42.4254 60.1785L51.1139 44.3959C51.2692 44.1212 51.4304 43.954 51.5976 43.8943C51.7648 43.8345 52.0037 43.8047 52.3142 43.8047H54.876V69.4761H51.8305V50.6122C51.8305 50.3614 51.8365 50.0927 51.8484 49.806C51.8604 49.5194 51.8783 49.2268 51.9022 48.9282L43.1062 64.9796C42.8076 65.517 42.3896 65.7857 41.8522 65.7857H41.3506C40.8131 65.7857 40.3951 65.517 40.0966 64.9796L31.1035 48.8745C31.1393 49.185 31.1632 49.4895 31.1752 49.7881C31.199 50.0867 31.211 50.3614 31.211 50.6122V69.4761H28.1655V43.8047H30.7273C31.0378 43.8047 31.2767 43.8345 31.4439 43.8943C31.6111 43.954 31.7723 44.1212 31.9276 44.3959L40.7952 60.1964Z" fill="white"/>
<path d="M83.3751 56.6494C83.3751 58.5722 83.0705 60.3218 82.4614 61.8983C81.8524 63.4748 80.9925 64.8243 79.8818 65.947C78.7711 67.0696 77.4394 67.9414 75.8868 68.5625C74.3343 69.1716 72.6145 69.4761 70.7275 69.4761H61.1253V43.8047H70.7275C72.6145 43.8047 74.3343 44.1152 75.8868 44.7362C77.4394 45.3453 78.7711 46.2172 79.8818 47.3518C80.9925 48.4744 81.8524 49.8239 82.4614 51.4004C83.0705 52.9769 83.3751 54.7265 83.3751 56.6494ZM79.8101 56.6494C79.8101 55.0729 79.5951 53.6636 79.1652 52.4215C78.7352 51.1795 78.1262 50.1285 77.3379 49.2686C76.5497 48.4087 75.5942 47.7518 74.4716 47.298C73.349 46.8442 72.1009 46.6173 70.7275 46.6173H64.6187V66.6635H70.7275C72.1009 66.6635 73.349 66.4366 74.4716 65.9828C75.5942 65.529 76.5497 64.8781 77.3379 64.0301C78.1262 63.1702 78.7352 62.1192 79.1652 60.8772C79.5951 59.6351 79.8101 58.2258 79.8101 56.6494Z" fill="white"/>
</g>
<path d="M41.0627 62.0952C41.2418 62.4296 41.3971 62.7878 41.5285 63.17C41.6001 62.9789 41.6718 62.7938 41.7434 62.6147C41.827 62.4236 41.9166 62.2444 42.0122 62.0772L51.9726 44.4673C52.0681 44.3121 52.1637 44.2165 52.2592 44.1807C52.3548 44.1449 52.4861 44.127 52.6533 44.127H53.9253V69.4759H52.313V47.8711C52.313 47.5606 52.3309 47.2321 52.3667 46.8858L42.3884 64.6032C42.2212 64.9137 41.9823 65.069 41.6718 65.069H41.3852C41.0866 65.069 40.8477 64.9137 40.6686 64.6032L30.4215 46.8679C30.4573 47.2142 30.4752 47.5486 30.4752 47.8711V69.4759H28.8809V44.127H30.1349C30.3021 44.127 30.4334 44.1449 30.529 44.1807C30.6365 44.2165 30.738 44.3121 30.8335 44.4673L41.0627 62.0952Z" fill="white"/>
<path d="M82.7919 56.7925C82.7919 58.7511 82.4993 60.5127 81.9141 62.0772C81.3289 63.6418 80.5048 64.9734 79.4419 66.0722C78.379 67.1709 77.107 68.0129 75.6261 68.5981C74.1452 69.1833 72.503 69.4759 70.6996 69.4759H61.4558V44.127H70.6996C72.503 44.127 74.1452 44.4196 75.6261 45.0048C77.107 45.59 78.379 46.4319 79.4419 47.5307C80.5048 48.6295 81.3289 49.9611 81.9141 51.5256C82.4993 53.0902 82.7919 54.8458 82.7919 56.7925ZM80.893 56.7925C80.893 55.0249 80.6481 53.4484 80.1585 52.0631C79.6688 50.6777 78.9761 49.5073 78.0804 48.5518C77.1966 47.5964 76.1277 46.8679 74.8737 46.3663C73.6197 45.8647 72.2283 45.6139 70.6996 45.6139H63.301V67.989H70.6996C72.2283 67.989 73.6197 67.7382 74.8737 67.2366C76.1277 66.735 77.1966 66.0065 78.0804 65.051C78.9761 64.0956 79.6688 62.9252 80.1585 61.5398C80.6481 60.1544 80.893 58.572 80.893 56.7925Z" fill="white"/>
<defs>
<filter id="filter0_f" x="0.329102" y="0.748047" width="108.405" height="108.405" filterUnits="userSpaceOnUse" color-interpolation-filters="sRGB">
<feFlood flood-opacity="0" result="BackgroundImageFix"/>
<feBlend mode="normal" in="SourceGraphic" in2="BackgroundImageFix" result="shape"/>
<feGaussianBlur stdDeviation="5" result="effect1_foregroundBlur"/>
</filter>
<filter id="filter1_f" x="12.8291" y="13.248" width="83.4046" height="83.4046" filterUnits="userSpaceOnUse" color-interpolation-filters="sRGB">
<feFlood flood-opacity="0" result="BackgroundImageFix"/>
<feBlend mode="normal" in="SourceGraphic" in2="BackgroundImageFix" result="shape"/>
<feGaussianBlur stdDeviation="1" result="effect1_foregroundBlur"/>
</filter>
<filter id="filter2_f" x="23.1655" y="38.8047" width="65.2096" height="35.6714" filterUnits="userSpaceOnUse" color-interpolation-filters="sRGB">
<feFlood flood-opacity="0" result="BackgroundImageFix"/>
<feBlend mode="normal" in="SourceGraphic" in2="BackgroundImageFix" result="shape"/>
<feGaussianBlur stdDeviation="2.5" result="effect1_foregroundBlur"/>
</filter>
</defs>
</svg>
